<svg width="64" height="65" viewBox="0 0 64 65" fill="none" xmlns="http://www.w3.org/2000/svg">
<path d="M3.47745 47.287C3.50766 47.3172 3.53585 47.3454 3.56606 47.3756C3.64057 47.3051 3.71509 47.2366 3.79161 47.1662C3.73925 47.144 3.66273 47.0856 3.63655 47.1037C3.5721 47.146 3.52981 47.2246 3.47745 47.287ZM33.5563 48.7168C33.4596 48.6544 33.4052 48.598 33.3811 48.6081C33.2985 48.6423 33.228 48.6987 33.1535 48.749C33.1797 48.7813 33.2139 48.8437 33.23 48.8397C33.3227 48.8155 33.4113 48.7752 33.5583 48.7168M2.56115 47.2809L2.59539 47.2105C2.539 47.1722 2.4806 47.1017 2.42421 47.1037C2.35373 47.1077 2.28525 47.1702 2.21477 47.2084C2.22484 47.2326 2.23491 47.2568 2.24498 47.2809H2.55914H2.56115ZM3.77147 40.8809C4.00911 40.897 4.05341 40.7782 4.07557 40.603C3.85807 40.5587 3.84196 40.7118 3.77147 40.8809ZM17.5502 54.3777C17.5804 54.3737 17.6086 54.3697 17.6388 54.3657C17.6388 54.2871 17.661 54.1985 17.6328 54.1341C17.6086 54.0817 17.522 54.0596 17.4616 54.0253C17.4435 54.0455 17.4254 54.0656 17.4093 54.0857C17.4556 54.1824 17.5039 54.2811 17.5502 54.3777ZM9.52302 47.6918C9.53309 47.6475 9.54316 47.6052 9.55323 47.5609C9.44448 47.5387 9.33574 47.5125 9.22699 47.5005C9.21692 47.5005 9.19678 47.587 9.18067 47.6354C9.29546 47.6535 9.41025 47.6736 9.52504 47.6918M2.69205 47.2205C2.72427 47.2548 2.75448 47.289 2.7867 47.3232C2.87128 47.2608 2.95587 47.1964 3.04045 47.1339C2.98809 47.1078 2.92163 47.0453 2.88941 47.0614C2.8149 47.0957 2.7565 47.1662 2.69205 47.2225M5.23353 36.7747C5.28387 36.7827 5.33623 36.7908 5.38658 36.7968C5.39665 36.678 5.40672 36.5572 5.41075 36.4384C5.41075 36.4344 5.31005 36.4203 5.31005 36.4243C5.27985 36.5391 5.25769 36.6559 5.23353 36.7747ZM23.4045 52.4122C23.3139 52.3558 23.2555 52.2974 23.2313 52.3095C23.1507 52.3458 23.0823 52.4102 23.0098 52.4626C23.038 52.4948 23.0782 52.5613 23.0923 52.5552C23.185 52.523 23.2716 52.4747 23.4045 52.4122ZM6.94731 47.3474C6.94328 47.3836 6.93724 47.4199 6.93322 47.4561C7.03189 47.4823 7.13057 47.5145 7.23328 47.5286C7.26147 47.5327 7.3098 47.4783 7.32592 47.4421C7.33397 47.4219 7.29571 47.3555 7.27356 47.3534C7.16682 47.3434 7.05807 47.3494 6.94933 47.3494M34.6035 47.4662C34.8915 47.4743 34.9217 47.428 34.8149 47.1259C34.7525 47.2266 34.6901 47.3273 34.6035 47.4662ZM5.42283 34.8454C5.4772 34.9139 5.51547 34.9622 5.55172 35.0085C5.59401 34.932 5.65039 34.8595 5.67053 34.777C5.6806 34.7367 5.6222 34.6783 5.59602 34.6299C5.54366 34.6944 5.4913 34.7608 5.42283 34.8454ZM34.1645 47.0836C34.2551 46.9366 34.3155 46.852 34.3578 46.7594C34.3679 46.7372 34.3175 46.6889 34.2954 46.6526C34.2249 46.7271 34.1484 46.7976 34.09 46.8802C34.0738 46.9023 34.1181 46.9648 34.1624 47.0836M8.30666 47.6636C8.4436 47.6213 8.56443 47.583 8.68526 47.5468C8.64297 47.5105 8.6027 47.4461 8.55638 47.4421C8.43957 47.432 8.28451 47.3937 8.30465 47.6656M4.09369 47.3756C4.22862 47.3293 4.33737 47.293 4.44611 47.2568C4.40584 47.2185 4.36757 47.1521 4.32528 47.148C4.21452 47.1359 4.06751 47.1057 4.09369 47.3756ZM27.9437 50.2514C27.8571 50.3078 27.7826 50.3561 27.7061 50.4044C27.7584 50.4346 27.8188 50.4991 27.8631 50.489C27.9497 50.4689 28.0263 50.4064 28.1068 50.3621C28.0625 50.3319 28.0162 50.3017 27.9437 50.2514ZM24.8504 51.3429C24.7276 51.3771 24.6229 51.3993 24.5282 51.4416C24.5141 51.4476 24.5403 51.5483 24.5483 51.6047C24.6692 51.5664 24.8424 51.6027 24.8504 51.3429ZM32.4728 49.0713C32.4849 49.1035 32.497 49.1357 32.5071 49.1699C32.64 49.1176 32.7729 49.0632 32.9078 49.0108C32.8957 48.9806 32.8837 48.9484 32.8736 48.9182C32.6984 48.8437 32.5776 48.9343 32.4728 49.0713ZM5.61616 35.6953C5.55776 35.6409 5.52352 35.6067 5.48727 35.5724C5.43894 35.661 5.38255 35.7456 5.34832 35.8382C5.34026 35.8624 5.40068 35.9128 5.42887 35.951C5.48727 35.8705 5.54567 35.7899 5.61616 35.6933M5.80747 33.9996C5.74303 33.8909 5.6947 33.8103 5.64435 33.7277C5.61012 33.7761 5.54165 33.8304 5.5497 33.8707C5.56581 33.9573 5.6222 34.0359 5.66046 34.1184C5.70477 34.0822 5.74706 34.0479 5.80546 34.0016M25.7748 49.905C25.8815 49.905 25.9822 49.913 26.0789 49.901C26.1131 49.8969 26.1494 49.8466 26.1715 49.8083C26.1816 49.7922 26.1614 49.7439 26.1413 49.7278C26.0426 49.6472 25.8251 49.7419 25.7748 49.905ZM17.8402 53.7031C17.8906 53.691 17.9409 53.6789 17.9913 53.6669C17.955 53.5541 17.9228 53.4413 17.8785 53.3326C17.8745 53.3225 17.7999 53.3406 17.7597 53.3467C17.7858 53.4655 17.812 53.5843 17.8382 53.7031M22.4076 55.7975C22.4096 55.7673 22.4137 55.7351 22.4157 55.7049C22.1801 55.6726 21.9444 55.6424 21.7088 55.6102C21.7048 55.6404 21.7008 55.6727 21.6987 55.7029C21.9344 55.7331 22.172 55.7653 22.4076 55.7975ZM18.251 55.2739C18.4222 55.0967 18.3256 54.9738 18.2611 54.857C18.249 54.8349 18.1826 54.8429 18.1403 54.8369C18.1564 54.9457 18.1705 55.0544 18.1906 55.1631C18.1967 55.1934 18.2208 55.2175 18.251 55.2719M23.7045 51.9349C23.7247 51.9611 23.7448 51.9893 23.767 52.0155C23.8314 51.9954 23.8999 51.9853 23.9583 51.9531C24.0167 51.9209 24.065 51.8665 24.1194 51.8222C24.0429 51.8061 23.9583 51.7618 23.8918 51.7819C23.8213 51.802 23.767 51.8826 23.7045 51.9349ZM12.8962 48.4812C12.9043 48.4389 12.9103 48.3946 12.9164 48.3523C12.8217 48.3221 12.7291 48.2859 12.6324 48.2657C12.6042 48.2597 12.5519 48.2899 12.5398 48.3181C12.5257 48.3463 12.5398 48.4188 12.5539 48.4228C12.6666 48.449 12.7814 48.4651 12.8962 48.4832M27.0757 50.4447C26.9871 50.5212 26.9126 50.5877 26.8401 50.6521C26.8784 50.6783 26.9307 50.7367 26.9549 50.7266C27.0536 50.6864 27.1422 50.6259 27.2348 50.5736C27.1925 50.5394 27.1502 50.5051 27.0757 50.4447ZM33.953 47.2225C33.9329 47.1923 33.9107 47.1601 33.8906 47.1299C33.808 47.1722 33.7113 47.2024 33.6449 47.2628C33.5986 47.3051 33.5966 47.3937 33.5744 47.4602C33.6006 47.4743 33.6268 47.4884 33.6509 47.5025C33.7516 47.4098 33.8523 47.3152 33.953 47.2225ZM6.74794 47.4682C6.74593 47.2346 6.57475 47.2991 6.45593 47.293C6.4217 47.293 6.38344 47.3514 6.34719 47.3816C6.43378 47.4179 6.51635 47.4602 6.60496 47.4843C6.64524 47.4964 6.69558 47.4743 6.74794 47.4662M3.45933 42.1738C3.5137 42.0208 3.55801 41.8939 3.60231 41.767C3.57009 41.757 3.50766 41.7348 3.50565 41.7368C3.45731 41.8576 3.41301 41.9785 3.37072 42.1013C3.37072 42.1033 3.3828 42.1114 3.45933 42.1738ZM17.6408 52.6458C17.5845 52.7606 17.5361 52.815 17.5462 52.8452C17.5845 52.9419 17.6449 53.0305 17.6952 53.1231C17.7274 53.0808 17.7939 53.0285 17.7858 52.9962C17.7637 52.8976 17.7093 52.8069 17.6408 52.6479M2.38796 44.7556C2.44636 44.5844 2.48865 44.4555 2.53296 44.3246C2.23088 44.4616 2.19866 44.5622 2.38796 44.7556ZM29.2809 50.1064C29.3715 50.048 29.438 50.0057 29.5044 49.9634C29.4359 49.9292 29.3655 49.8687 29.297 49.8687C29.2245 49.8687 29.152 49.9312 29.0795 49.9654C29.1399 50.0077 29.2023 50.05 29.2809 50.1064ZM27.7141 49.4297C27.8772 49.464 28.0565 49.5526 28.1833 49.3028C27.9779 49.2726 27.8208 49.2545 27.7141 49.4297ZM16.3399 50.9985C16.3157 51.0186 16.2916 51.0388 16.2674 51.0589C16.2291 51.2402 16.3721 51.3187 16.4909 51.4073C16.499 51.4134 16.5957 51.3167 16.5936 51.3127C16.5151 51.2039 16.4265 51.1032 16.3419 51.0005M31.6492 49.2384C31.8485 49.4398 32.0076 49.4156 32.1385 49.178C31.9492 49.2001 31.8002 49.2203 31.6492 49.2384ZM19.9024 54.5872C19.6366 54.6939 19.6487 54.8651 19.6688 55.0806C19.8943 54.9738 19.8823 54.8007 19.9024 54.5872ZM5.90414 47.3655C5.91018 47.3434 5.91622 47.3212 5.92226 47.2991C5.87192 47.2648 5.82359 47.2024 5.77324 47.2004C5.67456 47.1964 5.57387 47.2225 5.47519 47.2427C5.46512 47.2447 5.45706 47.3212 5.46109 47.3212C5.5497 47.3454 5.63831 47.3736 5.72692 47.3836C5.78532 47.3897 5.84574 47.3716 5.90414 47.3635M34.3296 48.0663C34.4283 47.9475 34.5008 47.867 34.5632 47.7804C34.5793 47.7562 34.5773 47.6998 34.5612 47.6757C34.5431 47.6515 34.4827 47.6314 34.4625 47.6454C34.3377 47.73 34.2168 47.8227 34.3296 48.0663ZM13.5487 60.4676C13.8226 60.6992 14.2395 60.808 14.4247 60.7153C14.1448 60.6368 13.879 60.5603 13.5487 60.4676ZM16.8091 52.1242C16.8474 52.1061 16.8857 52.088 16.9219 52.0719C16.8716 51.9511 16.8273 51.8282 16.7668 51.7134C16.7548 51.6893 16.6802 51.6832 16.642 51.6953C16.6178 51.7034 16.5856 51.7698 16.5957 51.7899C16.6601 51.9047 16.7366 52.0155 16.8091 52.1263M5.00999 38.0434C4.96569 38.0313 4.92138 38.0172 4.87708 38.0052C4.83881 38.1361 4.79854 38.2649 4.76833 38.3979C4.7643 38.412 4.8227 38.4583 4.8509 38.4583C4.8811 38.4583 4.93548 38.4281 4.94152 38.4019C4.97173 38.2831 4.98784 38.1622 5.00999 38.0434ZM5.46311 46.8661C5.47922 46.8983 5.49533 46.9285 5.51144 46.9607C5.58998 46.9426 5.67456 46.9346 5.74706 46.9023C5.80949 46.8741 5.86185 46.8198 5.91824 46.7775C5.84171 46.7553 5.75713 46.703 5.68866 46.7191C5.60609 46.7372 5.53762 46.8137 5.46311 46.8661ZM6.38948 46.9205C6.40156 46.9466 6.41364 46.9728 6.42573 46.999C6.53649 46.999 6.64926 47.0111 6.756 46.9909C6.78822 46.9849 6.80634 46.8943 6.8285 46.8419C6.73586 46.8298 6.64121 46.7996 6.55058 46.8097C6.49218 46.8157 6.44184 46.8802 6.38948 46.9184M4.82069 47.1037C4.73007 47.1742 4.64951 47.2366 4.56896 47.2971C4.65354 47.3132 4.73812 47.3273 4.8227 47.3434C4.83076 47.3434 4.84083 47.3454 4.84687 47.3434C4.90124 47.3051 4.95562 47.2668 5.012 47.2266C4.95964 47.1923 4.90527 47.1581 4.8227 47.1037M31.1336 48.6302C31.3129 48.741 31.4337 48.7188 31.5908 48.5477C31.4498 48.4268 31.2645 48.459 31.1336 48.6302ZM13.6554 48.6987C13.5346 48.6322 13.4319 48.5698 13.3211 48.5195C13.295 48.5074 13.2366 48.5235 13.2204 48.5456C13.2003 48.5718 13.1963 48.6242 13.2104 48.6564C13.2547 48.7652 13.5145 48.8034 13.6554 48.6987ZM2.976 43.4405C2.71622 43.3519 2.71622 43.5473 2.67393 43.6762C2.65782 43.7245 2.69407 43.7889 2.70816 43.8453C2.75851 43.8071 2.82295 43.7768 2.85517 43.7265C2.90351 43.648 2.92969 43.5553 2.976 43.4405ZM1.78582 54.855C1.75763 54.855 1.73145 54.8591 1.70325 54.8611C1.69318 54.9195 1.65895 54.992 1.6811 55.0343C1.72943 55.1289 1.80596 55.2115 1.8704 55.2981C1.90262 55.2497 1.96908 55.1893 1.957 55.1591C1.91471 55.0524 1.84422 54.9557 1.78381 54.855M33.2784 47.7743C33.2643 47.7502 33.2502 47.724 33.2341 47.6998C32.9662 47.6716 32.8253 47.7663 32.8474 48.016C33.0045 47.9274 33.1414 47.8509 33.2784 47.7743ZM33.7859 48.5376C33.8141 48.5416 33.8443 48.5477 33.8725 48.5517C33.9429 48.4752 34.0255 48.4047 34.0799 48.3181C34.098 48.2879 34.0517 48.2174 34.0356 48.167C33.959 48.2194 33.8664 48.2577 33.8141 48.3261C33.7758 48.3765 33.7939 48.4671 33.7859 48.5396M17.0186 52.4304C16.9622 52.5089 16.9098 52.5613 16.9179 52.5754C16.9884 52.6922 17.0709 52.8009 17.1495 52.9117C17.1777 52.8714 17.2381 52.817 17.226 52.7949C17.1736 52.6801 17.1011 52.5733 17.0186 52.4304ZM1.29444 52.8956C1.31659 52.8855 1.33875 52.8754 1.3609 52.8674C1.3609 52.7425 1.37097 52.6176 1.35486 52.4948C1.35083 52.4646 1.26021 52.4445 1.20986 52.4203C1.19778 52.519 1.16757 52.6217 1.17965 52.7163C1.18771 52.7808 1.25618 52.8351 1.29646 52.8956M17.4757 52.529C17.516 52.5109 17.5563 52.4928 17.5965 52.4747C17.5502 52.3518 17.5079 52.2249 17.4536 52.1041C17.4455 52.084 17.379 52.0739 17.3509 52.086C17.3227 52.1001 17.2844 52.1565 17.2924 52.1746C17.3468 52.2954 17.4113 52.4122 17.4737 52.529M4.3273 39.5296C4.52465 39.4914 4.69986 39.2558 4.6475 39.1651C4.63139 39.1369 4.5025 39.1269 4.49243 39.147C4.43202 39.2517 4.39375 39.3685 4.3273 39.5296ZM21.3302 54.5066C21.3906 54.561 21.4229 54.5892 21.4531 54.6174C21.5336 54.5107 21.6162 54.4039 21.6907 54.2932C21.6947 54.2891 21.6061 54.2146 21.6041 54.2166C21.5135 54.3053 21.4289 54.3999 21.3302 54.5086M7.33598 47.14C7.43466 47.0977 7.50716 47.0675 7.57765 47.0373C7.48904 46.993 7.40446 46.9245 7.31182 46.9104C7.24536 46.9003 7.16884 46.9648 7.09634 46.995C7.17286 47.0433 7.2514 47.0896 7.33598 47.14ZM1.12528 50.8233C1.1716 50.8233 1.21792 50.8273 1.26423 50.8273C1.2743 50.6944 1.29041 50.5635 1.29243 50.4306C1.29243 50.4064 1.2441 50.3621 1.21389 50.3581C1.18771 50.3541 1.13132 50.3944 1.12931 50.4165C1.12125 50.5514 1.12528 50.6864 1.12528 50.8213M8.86248 47.2145C8.87456 47.2366 8.88665 47.2568 8.89672 47.2789C9.01352 47.2991 9.12831 47.3313 9.24511 47.3333C9.28136 47.3333 9.31761 47.2527 9.35386 47.2084C9.2431 47.1742 9.13435 47.1259 9.02157 47.1138C8.97123 47.1078 8.91484 47.1802 8.86047 47.2165M25.2371 50.1426C25.1324 50.0742 25.078 50.0137 25.0518 50.0258C24.933 50.0721 24.8222 50.1366 24.7094 50.197C24.7457 50.2292 24.792 50.2957 24.8182 50.2896C24.939 50.2594 25.0558 50.2091 25.2371 50.1446M2.24699 55.8197C2.16644 55.7049 2.09595 55.6022 2.02547 55.4995C1.99929 55.5438 1.93887 55.6002 1.95096 55.6283C1.99929 55.7431 2.06977 55.8479 2.1322 55.9566C2.16241 55.9204 2.19463 55.8821 2.24699 55.8217M29.8911 49.7479C30.1388 49.9614 30.3684 49.913 30.4529 49.6553C30.2717 49.6855 30.1106 49.7117 29.8911 49.7479ZM5.52151 32.2435C5.55373 32.2375 5.58394 32.2335 5.61616 32.2274C5.59401 32.0864 5.57588 31.9475 5.54567 31.8085C5.54366 31.7965 5.46915 31.8005 5.42887 31.7985C5.43693 31.9274 5.44095 32.0542 5.45505 32.1831C5.45707 32.2053 5.49734 32.2254 5.52151 32.2455M25.5331 51.1818C25.5291 51.1556 25.523 51.1294 25.519 51.1012C25.366 51.0046 25.225 51.0811 25.0881 51.1697C25.0719 51.1798 25.0619 51.2402 25.074 51.2502C25.1042 51.2784 25.1565 51.3187 25.1867 51.3086C25.3056 51.2764 25.4183 51.2241 25.5331 51.1818ZM4.87305 46.6365C4.79854 46.701 4.73812 46.7533 4.67972 46.8057C4.78847 46.8379 4.8952 46.8822 5.00596 46.8963C5.04624 46.9023 5.09659 46.8379 5.14089 46.8037C5.05832 46.7513 4.97576 46.701 4.87305 46.6345M18.2067 54.2791C18.1222 54.1703 18.0537 54.0797 17.9832 53.9911C17.9731 54.0878 17.9651 54.1844 17.955 54.2791C17.955 54.2871 17.955 54.2952 17.957 54.3032C17.9872 54.3596 18.0174 54.414 18.0476 54.4684C18.0919 54.416 18.1363 54.3616 18.2067 54.2791ZM4.15209 46.9023C4.24271 46.848 4.32528 46.7976 4.40785 46.7473C4.33535 46.7171 4.25883 46.6566 4.19035 46.6627C4.10577 46.6707 4.02522 46.7352 3.94265 46.7735C4.00105 46.8097 4.06147 46.846 4.15411 46.9003M2.11408 45.543C2.18456 45.3718 2.24095 45.257 2.27921 45.1362C2.28727 45.112 2.22081 45.0637 2.18859 45.0274C2.12415 45.1402 2.05366 45.249 2.0013 45.3658C1.99123 45.3899 2.04963 45.4463 2.11408 45.543ZM12.5599 48.0482C12.7512 48.0966 12.8801 48.1348 13.013 48.159C13.0372 48.163 13.0815 48.1187 13.0976 48.0885C13.1057 48.0724 13.0835 48.018 13.0634 48.01C12.9224 47.9536 12.7814 47.8488 12.5599 48.0502M12.1652 48.2778C12.1753 48.2315 12.1853 48.1852 12.1954 48.1388C12.0645 48.0986 11.9356 48.0543 11.8027 48.022C11.7765 48.016 11.7221 48.0502 11.7121 48.0764C11.702 48.1046 11.7221 48.1731 11.7403 48.1791C11.8792 48.2194 12.0222 48.2456 12.1652 48.2778ZM29.3675 49.0088C29.3675 49.039 29.3715 49.0692 29.3715 49.1015C29.5246 49.2022 29.6816 49.1478 29.8367 49.0733C29.8548 49.0652 29.8709 49.0028 29.8609 48.9907C29.8307 48.9605 29.7843 48.9242 29.7501 48.9283C29.6212 48.9464 29.4964 48.9806 29.3695 49.0088M24.21 50.485C24.1939 50.4467 24.1778 50.4064 24.1617 50.3682C24.0288 50.4125 23.8918 50.4487 23.765 50.5071C23.7428 50.5172 23.7609 50.6199 23.7609 50.7166C23.9422 50.6239 24.0751 50.5534 24.21 50.485ZM22.7339 51.0166C22.756 51.0589 22.7762 51.1012 22.7983 51.1435C22.9292 51.077 23.0621 51.0166 23.187 50.9421C23.2031 50.9321 23.2031 50.8616 23.187 50.8334C23.1709 50.8092 23.1105 50.785 23.0903 50.7951C22.9675 50.8616 22.8527 50.9401 22.7339 51.0146M12.1148 47.8811C12.1148 47.7018 11.8752 47.5307 11.7483 47.5971C11.7181 47.6132 11.6879 47.6575 11.6879 47.6898C11.6879 47.7179 11.7221 47.7643 11.7524 47.7743C11.8692 47.8146 11.99 47.8448 12.1148 47.8811ZM1.25416 51.3127C1.00848 51.3509 1.07292 51.5181 1.07695 51.6349C1.07896 51.6993 1.14944 51.7618 1.18771 51.8262C1.20986 51.8141 1.23201 51.802 1.25416 51.7899V51.3127ZM22.2244 53.5501C22.0129 53.4896 21.7632 53.6729 21.8015 53.8179C21.8095 53.8481 21.9223 53.8864 21.9384 53.8703C22.0371 53.7776 22.1217 53.6689 22.2244 53.5501ZM22.9151 52.8694C22.8406 52.813 22.7882 52.7606 22.7782 52.7667C22.6654 52.8492 22.5587 52.9399 22.4539 53.0345C22.4499 53.0385 22.5204 53.1312 22.5224 53.1292C22.6453 53.0526 22.7641 52.9701 22.9151 52.8674M1.37701 53.1936C1.35687 53.2077 1.33673 53.2238 1.31659 53.2379C1.31659 53.3567 1.30451 53.4776 1.32465 53.5944C1.33069 53.6286 1.42534 53.6467 1.4777 53.6729C1.48576 53.5541 1.5059 53.4353 1.49583 53.3185C1.4918 53.2742 1.41729 53.2339 1.375 53.1916M3.29822 42.5846C3.10489 42.6128 2.89344 42.8384 2.9317 42.9371C2.94378 42.9713 3.0767 43.0015 3.08475 42.9894C3.15926 42.8706 3.21968 42.7437 3.29822 42.5867M5.20332 30.8882C5.00798 31.1117 5.20332 31.2245 5.25165 31.3574C5.26172 31.3856 5.32616 31.3937 5.36443 31.4098C5.37852 31.3615 5.41679 31.3051 5.40068 31.2688C5.35033 31.15 5.28186 31.0392 5.20131 30.8882M10.0668 47.579C9.97614 47.6414 9.91975 47.6817 9.86135 47.722C9.98218 47.7723 10.103 47.8267 10.2279 47.865C10.2541 47.873 10.3024 47.8086 10.3386 47.7784C10.252 47.7159 10.1675 47.6535 10.0668 47.579ZM1.30451 48.4087C1.08097 48.5577 1.19375 48.7591 1.16757 48.9424C1.38104 48.9001 1.42534 48.7108 1.30451 48.4087ZM11.2026 47.7039C11.2308 47.6877 11.2731 47.6616 11.3153 47.6374C11.2872 47.5971 11.267 47.5448 11.2288 47.5206C11.1683 47.4864 11.0958 47.4501 11.0294 47.4541C10.9569 47.4582 10.8884 47.5085 10.8199 47.5367C10.8703 47.5689 10.9186 47.6092 10.973 47.6314C11.0374 47.6595 11.1079 47.6736 11.2046 47.7018M25.8694 50.9159C25.8835 50.9602 25.8996 51.0045 25.9137 51.0489L26.3709 50.9039C26.3528 50.8495 26.3366 50.7951 26.3185 50.7407C26.1695 50.7991 26.0185 50.8575 25.8694 50.9159ZM17.5945 54.8087C17.6469 54.9718 17.6872 55.1068 17.7375 55.2397C17.7456 55.2598 17.806 55.2719 17.8402 55.2679C17.8644 55.2638 17.8926 55.2296 17.9006 55.2034C17.9409 55.0806 17.7899 54.857 17.5945 54.8087ZM30.6563 49.7519C30.7993 49.7016 30.9443 49.6512 31.0873 49.6009C31.0672 49.5546 31.045 49.466 31.0269 49.466C30.8638 49.476 30.6886 49.4781 30.6563 49.7519ZM1.06084 49.609C1.0709 49.6794 1.06688 49.7399 1.09104 49.7862C1.10917 49.8204 1.16153 49.8345 1.19979 49.8587C1.23 49.7419 1.26826 49.6271 1.28639 49.5103C1.29243 49.47 1.24812 49.4237 1.22798 49.3794C1.18972 49.3995 1.13736 49.4096 1.11924 49.4418C1.08702 49.4942 1.07695 49.5586 1.06084 49.6069M26.9126 49.7278C27.0375 49.6573 27.1543 49.5928 27.2711 49.5284C27.2308 49.4962 27.1804 49.4297 27.1543 49.4398C27.0153 49.4861 26.8804 49.5526 26.7454 49.611C26.7918 49.6432 26.8381 49.6754 26.9126 49.7278ZM30.31 48.8658C30.5013 49.0692 30.6463 48.9021 30.8597 48.8276C30.6221 48.6262 30.4731 48.8074 30.31 48.8658ZM3.45933 55.8076C3.45933 55.7955 3.45933 55.7834 3.46336 55.7733H2.49268C2.49268 55.7854 2.49268 55.7975 2.49067 55.8076H3.45933ZM3.79564 46.7714C3.78356 46.7372 3.78154 46.711 3.76946 46.6949C3.69696 46.5962 3.34252 46.6063 3.29016 46.7171C3.27607 46.7473 3.3244 46.846 3.35058 46.848C3.47141 46.8601 3.59426 46.854 3.7171 46.8439C3.74529 46.8419 3.77147 46.7976 3.79765 46.7735M15.7841 50.4346C15.8546 50.6723 16.0137 50.7931 16.205 50.7508C16.1264 50.495 15.9834 50.3863 15.7841 50.4346ZM16.4547 50.6642C16.5755 50.8374 16.6802 50.9864 16.785 51.1354C16.8152 51.1274 16.8434 51.1193 16.8736 51.1113C16.8635 51.0348 16.8796 50.9401 16.8393 50.8857C16.7588 50.777 16.7064 50.6018 16.4547 50.6642ZM28.5076 49.3894C28.6586 49.319 28.7895 49.2565 28.9224 49.1941C28.8781 49.1579 28.8217 49.0854 28.7935 49.0934C28.6566 49.1377 28.5277 49.2042 28.3968 49.2646C28.429 49.3008 28.4612 49.3351 28.5076 49.3874M11.4181 47.9697C11.2288 47.9113 11.0898 47.8589 10.9448 47.8287C10.9206 47.8227 10.8401 47.9254 10.8501 47.9556C10.8804 48.0482 11.2489 48.0865 11.4181 47.9677M1.46763 48.0684C1.49985 47.8952 1.53409 47.724 1.57235 47.5266C1.31055 47.6092 1.25014 47.8569 1.46763 48.0684ZM1.7254 46.3405C1.76971 46.3546 1.81401 46.3707 1.85832 46.3848C1.91672 46.2378 1.97915 46.0928 2.0295 45.9437C2.03755 45.9216 1.99727 45.8551 1.97512 45.8531C1.93686 45.8491 1.8704 45.8712 1.86235 45.8974C1.80999 46.0424 1.77172 46.1914 1.72742 46.3385M1.68714 54.555C1.64082 54.4301 1.60659 54.3153 1.55624 54.2066C1.54214 54.1743 1.4777 54.1321 1.45756 54.1421C1.42131 54.1582 1.375 54.2187 1.38305 54.2468C1.41729 54.3677 1.46562 54.4865 1.51798 54.6013C1.53006 54.6255 1.58846 54.6456 1.61867 54.6375C1.64687 54.6295 1.66499 54.5852 1.68714 54.557M20.9355 52.5572C20.9677 52.5895 21.002 52.6237 21.0342 52.6559C21.1389 52.5613 21.2476 52.4726 21.3423 52.372C21.3685 52.3438 21.3584 52.2793 21.3644 52.231C21.3141 52.231 21.2436 52.2068 21.2195 52.231C21.1167 52.3317 21.0302 52.4465 20.9355 52.5572ZM13.8347 48.9605C14.0938 49.135 14.2663 49.178 14.3522 49.0894C14.1126 48.8376 13.9857 48.8034 13.8347 48.9605ZM32.5937 48.1429C32.3359 48.0422 32.1748 48.1932 31.9653 48.2496C32.1546 48.4168 32.352 48.3825 32.5937 48.1429ZM19.6607 55.4894C19.4473 55.5337 19.2378 55.8599 19.3023 55.9626C19.3204 55.9908 19.4372 55.9969 19.4453 55.9828C19.5198 55.8338 19.5802 55.6787 19.6607 55.4894ZM17.1575 51.8202C17.2965 51.6731 17.2159 51.3288 17.0588 51.3026C17.0266 51.2966 16.942 51.3832 16.9481 51.3993C17.0085 51.5402 17.081 51.6752 17.1555 51.8202M8.57047 47.2064C8.57047 47.1762 8.57047 47.148 8.57047 47.1178C8.44159 47.0775 8.31471 47.0252 8.1818 47.005C8.11736 46.995 8.04083 47.0473 7.97035 47.0715C7.99653 47.1118 8.01868 47.1762 8.05291 47.1863C8.17375 47.2205 8.30062 47.2427 8.42548 47.2548C8.46978 47.2588 8.51811 47.2225 8.56645 47.2064M5.72289 32.6866C5.49734 32.7631 5.46713 33.0672 5.65845 33.2786C5.79741 33.0853 5.71886 32.888 5.72289 32.6866ZM14.1408 48.5255C14.1327 48.4933 14.1327 48.455 14.1186 48.449C13.9777 48.3845 13.8347 48.3201 13.6877 48.2697C13.6736 48.2657 13.6313 48.3422 13.6011 48.3825C13.7622 48.453 13.9253 48.5235 14.0884 48.5899C14.0965 48.594 14.1247 48.5456 14.1408 48.5255ZM17.1535 53.1553C17.23 53.3547 17.2904 53.5138 17.3529 53.6749C17.4052 53.6507 17.4958 53.6387 17.5059 53.6024C17.5482 53.4655 17.377 53.2238 17.1535 53.1553ZM21.7572 51.8765C21.9384 51.7537 22.0834 51.657 22.2264 51.5584C22.1881 51.5141 22.1237 51.4275 22.1176 51.4315C21.9827 51.5161 21.8518 51.6067 21.731 51.7094C21.7108 51.7255 21.7451 51.8041 21.7572 51.8765ZM10.5138 47.4018C10.252 47.2125 9.9701 47.1923 9.86739 47.3696C10.0788 47.3977 10.2601 47.577 10.5138 47.4018ZM16.1969 50.3803C16.2473 50.052 15.9754 49.8144 15.7519 49.9271C15.9049 50.0842 16.0519 50.2312 16.1969 50.3803ZM14.9765 49.0733C14.9806 49.0451 14.9846 49.0149 14.9886 48.9847C14.8315 48.892 14.6744 48.7974 14.5174 48.7047C14.5013 48.7591 14.4549 48.8477 14.4731 48.8638C14.5879 48.9605 14.7127 49.0471 14.8436 49.1216C14.8698 49.1357 14.9322 49.0894 14.9765 49.0713M15.1014 49.6251C15.1074 49.6009 15.1135 49.5787 15.1195 49.5546C15.0128 49.4781 14.9121 49.3894 14.7973 49.327C14.7268 49.2888 14.6362 49.2908 14.5556 49.2747C14.5556 49.323 14.5335 49.3955 14.5556 49.4116C14.6785 49.5002 14.8094 49.5828 14.9443 49.6512C14.9826 49.6694 15.049 49.6351 15.1014 49.6231M2.22081 46.8278C2.43629 46.854 2.62559 46.8822 2.8149 46.8963C2.83504 46.8963 2.89344 46.7936 2.87934 46.7674C2.81288 46.6446 2.35373 46.6647 2.22081 46.8298M3.29218 56.5507C3.16128 56.4621 3.07066 56.3614 3.02434 56.3775C2.94177 56.4077 2.86726 56.5024 2.82899 56.5869C2.81691 56.6131 2.94177 56.7541 2.98607 56.744C3.0767 56.7259 3.15322 56.6433 3.29218 56.5487M20.287 53.7615C20.2629 53.7333 20.2387 53.687 20.2125 53.685C20.1723 53.683 20.1098 53.7011 20.0937 53.7313C20.0232 53.8622 19.9588 53.9991 19.9064 54.1401C19.8943 54.1723 19.9225 54.2307 19.9487 54.263C19.9608 54.2771 20.0373 54.263 20.0494 54.2428C20.132 54.0898 20.2045 53.9327 20.287 53.7635M43.9679 57.8456C43.98 57.8778 43.992 57.91 44.0041 57.9423C44.3767 57.7791 44.7513 57.616 45.1258 57.4509C45.1138 57.4227 45.1017 57.3945 45.0896 57.3643C44.717 57.5254 44.3424 57.6845 43.9699 57.8456M4.11987 56.8064C4.2266 56.6514 4.30917 56.5708 4.33334 56.4742C4.34341 56.4379 4.19841 56.311 4.15411 56.3251C4.06952 56.3533 3.97286 56.4379 3.94467 56.5205C3.92855 56.5728 4.02723 56.6635 4.11786 56.8085M9.43039 56.3352C9.28136 56.2103 9.16254 56.0694 9.1263 56.0875C8.99942 56.1519 8.89873 56.2728 8.78998 56.3735C8.86852 56.452 8.96116 56.603 9.0256 56.593C9.14643 56.5708 9.25317 56.4581 9.4324 56.3372M23.765 56.5668C23.8878 56.5809 23.9684 56.4782 23.9744 56.3272C23.9784 56.1801 23.918 56.0633 23.7347 56.0734C23.5797 56.0815 23.4387 56.1076 23.4387 56.303C23.4387 56.4802 23.5434 56.5567 23.765 56.5668ZM19.9769 58.1215C19.9709 58.1557 19.9628 58.19 19.9568 58.2222C20.3918 58.3329 20.8247 58.4437 21.2597 58.5545C21.2678 58.5222 21.2738 58.492 21.2819 58.4598C20.8469 58.347 20.4119 58.2343 19.9749 58.1215M43.547 54.2388C43.4785 54.1985 43.3557 54.0737 43.2952 54.0998C43.1825 54.1482 43.0576 54.269 43.0254 54.3858C42.9871 54.5227 43.12 54.5771 43.261 54.5791C43.4423 54.5791 43.5228 54.4885 43.547 54.2408M45.4299 53.3608C45.3897 53.3305 45.2648 53.2077 45.2447 53.2218C45.1158 53.3225 45.009 53.4514 44.8942 53.5702C44.9708 53.6367 45.0413 53.7454 45.1279 53.7615C45.2849 53.7917 45.436 53.6085 45.4279 53.3608M44.0263 54.3757C44.1391 54.2448 44.2639 54.1542 44.2498 54.0998C44.2256 54.0032 44.1149 53.9307 44.0404 53.8461C43.9679 53.9206 43.8551 53.9891 43.839 54.0757C43.8249 54.1441 43.9316 54.2348 44.0263 54.3757ZM15.0732 49.174L15.0571 49.2324C15.2041 49.3874 15.3471 49.5465 15.5021 49.6935C15.5283 49.7177 15.6028 49.6935 15.6552 49.6895C15.6451 49.6392 15.6491 49.5767 15.621 49.5445C15.5243 49.4358 15.4256 49.327 15.3108 49.2404C15.2504 49.1941 15.1558 49.1961 15.0752 49.176M20.4139 53.5722C20.4743 53.542 20.5025 53.538 20.5146 53.5198C20.6334 53.3487 20.7502 53.1775 20.861 53.0003C20.8771 52.9761 20.8529 52.9278 20.8469 52.8895C20.7965 52.8976 20.724 52.8895 20.7019 52.9197C20.5831 53.0808 20.4743 53.248 20.3736 53.4192C20.3555 53.4494 20.3978 53.5118 20.4139 53.5702M11.6174 56.4681C11.7987 56.45 11.9497 56.3614 11.9296 56.1801C11.9195 56.0875 11.7725 55.9566 11.6698 55.9405C11.4946 55.9123 11.3697 56.0271 11.3576 56.2224C11.3456 56.4097 11.4724 56.448 11.6174 56.4681ZM34.4625 56.7682C34.4625 56.5003 34.3336 56.4621 34.1886 56.452C33.9933 56.4399 33.9107 56.6071 33.9007 56.7339C33.8946 56.8165 34.0738 56.9917 34.1443 56.9796C34.2732 56.9575 34.384 56.8266 34.4625 56.7682ZM38.75 55.8277C38.4681 55.8257 38.2667 55.9626 38.3049 56.0976C38.3331 56.2003 38.4379 56.3191 38.5365 56.3553C38.6715 56.4037 38.9514 56.162 38.9171 56.0392C38.889 55.9425 38.7842 55.868 38.752 55.8297M17.2361 55.6384C17.2481 55.4552 17.1555 55.3605 16.9843 55.3484C16.8333 55.3363 16.646 55.5136 16.65 55.6606C16.652 55.8479 16.7527 55.9324 16.938 55.9324C17.1374 55.9324 17.224 55.8237 17.2361 55.6384ZM14.6906 55.8096C14.6322 55.7572 14.4892 55.5881 14.457 55.6062C14.314 55.6928 14.2012 55.8297 14.0783 55.9506C14.1629 56.0231 14.2374 56.1358 14.3341 56.162C14.4831 56.2023 14.6845 56.019 14.6906 55.8116M36.5307 56.2667C36.3032 56.2667 36.1078 56.4057 36.1461 56.5708C36.1682 56.6635 36.2971 56.7702 36.3958 56.7944C36.5549 56.8346 36.7966 56.6252 36.7825 56.4782C36.7684 56.3392 36.6939 56.2385 36.5307 56.2667ZM1.75964 47.0091C1.77374 46.9466 1.80193 46.8762 1.80394 46.8077C1.80394 46.7493 1.77374 46.6889 1.75763 46.6305C1.71131 46.6687 1.63277 46.701 1.62471 46.7453C1.59652 46.9164 1.58846 47.0937 1.57235 47.3011C1.73749 47.2648 1.84825 47.2407 2.03352 47.2004C1.90464 47.1098 1.83617 47.0614 1.76165 47.0091M39.2676 51.069C39.2635 51.0891 39.2575 51.1113 39.2535 51.1314C39.7609 51.359 40.2684 51.5886 40.7759 51.8161C40.786 51.794 40.7961 51.7698 40.8041 51.7477C40.3007 51.4979 39.8214 51.1979 39.2676 51.069ZM40.0952 55.6404C40.3107 55.6344 40.4839 55.4592 40.4759 55.292C40.4678 55.1047 40.3409 55.0463 40.1798 55.0564C39.9986 55.0685 39.8415 55.1229 39.8435 55.3464C39.8435 55.5417 39.9583 55.6324 40.0952 55.6404ZM42.6347 54.7503C42.5078 54.6496 42.4333 54.5449 42.3467 54.5308C42.1816 54.5046 42.095 54.6476 42.097 54.7825C42.097 54.8591 42.24 55.0061 42.2783 54.994C42.393 54.9577 42.4877 54.8591 42.6367 54.7503M38.025 51.5C38.3009 51.6168 38.5849 51.7154 38.8487 51.8544C39.1064 51.9913 39.3421 52.1706 39.5878 52.3297C39.5978 52.3115 39.6079 52.2934 39.618 52.2753C39.1749 51.8423 38.6493 51.5664 38.027 51.5M26.6105 56.7823C26.7032 56.6735 26.8341 56.5789 26.8804 56.452C26.9287 56.3231 26.7112 56.1298 26.5582 56.1298C26.395 56.1298 26.2037 56.2929 26.2078 56.4319C26.2138 56.593 26.3789 56.738 26.6085 56.7823M46.5154 52.8815C46.5114 52.8492 46.5053 52.819 46.5013 52.7868C46.4087 52.7506 46.318 52.6861 46.2234 52.6821C46.0502 52.676 45.9636 52.811 45.9696 52.962C45.9737 53.0265 46.1227 53.1513 46.1509 53.1392C46.2818 53.0748 46.3946 52.9721 46.5154 52.8815ZM6.64524 56.4661C6.64121 56.4299 6.63718 56.3936 6.63315 56.3574C6.5385 56.311 6.44989 56.2385 6.35121 56.2244C6.16393 56.1983 6.12163 56.3654 6.12969 56.4883C6.13573 56.5628 6.28274 56.6997 6.32705 56.6856C6.44385 56.6494 6.5385 56.5446 6.64322 56.4661M16.1889 55.0343C16.1889 55 16.1889 54.9638 16.1889 54.9275C15.5686 54.9839 14.9463 55.0403 14.324 55.0967C14.3261 55.1289 14.3301 55.1611 14.3321 55.1934C14.9503 55.141 15.5706 55.0866 16.1889 55.0343ZM43.2852 57.7469C43.6477 57.7812 45.0956 57.1226 45.2044 56.893C44.5801 57.171 43.9457 57.4529 43.2852 57.7469ZM20.7422 56.0009C20.861 55.9022 20.9657 55.8539 21.004 55.7733C21.0845 55.6082 21.1369 55.427 21.1872 55.2497C21.2013 55.1954 21.1671 55.1249 21.155 55.0625C21.1047 55.1047 21.0342 55.137 21.01 55.1893C20.9556 55.3142 20.9033 55.3847 20.7462 55.4129C20.6455 55.431 20.5287 55.5941 20.5045 55.7089C20.4904 55.7774 20.6415 55.8801 20.7442 55.9989M11.2992 59.9319C11.2811 59.9622 11.265 59.9903 11.2469 60.0206C12.0484 60.4435 12.8499 60.8644 13.6514 61.2873C13.6675 61.2571 13.6836 61.2268 13.6997 61.1966C12.9002 60.7757 12.1007 60.3528 11.2992 59.9319ZM8.65707 35.1797C8.62485 35.1717 8.59061 35.1656 8.55839 35.1576C8.34089 36.1041 8.1234 37.0506 7.9059 37.9971C7.94014 38.0052 7.97437 38.0132 8.00861 38.0192C8.22409 37.0727 8.44159 36.1262 8.65707 35.1797ZM18.676 57.3462C18.8371 57.5999 21.4873 58.4014 21.7028 58.2645C20.7019 57.9604 19.6728 57.6482 18.676 57.3462ZM23.2132 55.5861C23.2091 55.6263 23.2051 55.6686 23.2011 55.7089C23.8475 55.7572 24.5 55.7552 25.1444 55.8257C25.801 55.8962 26.4635 55.9163 27.122 55.9586C27.1241 55.9244 27.1261 55.8901 27.1281 55.8559C25.8231 55.7653 24.5181 55.6747 23.2132 55.5861ZM21.0342 31.6152C20.5468 31.6152 20.2105 31.9475 20.1823 32.4067C20.1622 32.747 20.4602 33.1518 20.9496 33.1699C21.3967 33.186 21.7934 32.7953 21.7934 32.3583C21.7934 31.9092 21.4933 31.6172 21.0322 31.6172M17.6288 48.4792C19.2076 48.2355 20.7845 47.9898 22.3633 47.7461C20.7522 47.7804 19.1794 48.0603 17.6288 48.4792ZM8.05694 32.5214C8.09722 34.2151 7.85757 35.8282 7.50515 37.4292C7.8757 36.8915 8.35499 32.9443 8.05694 32.5214ZM8.95512 59.4849C8.94304 59.505 8.93095 59.5272 8.91887 59.5493C10.4413 60.4435 12.0585 61.1564 13.6071 61.9981C13.6252 61.9659 13.6413 61.9317 13.6595 61.8995C12.0907 61.0939 10.5239 60.2904 8.95713 59.4849M20.14 35.3167C20.0977 35.6953 20.3696 36.1041 20.9456 36.1081C21.4833 36.1121 21.8881 35.7537 21.9162 35.2079C21.9384 34.7649 21.5699 34.4286 21.0946 34.4286C20.5388 34.4286 20.14 34.7971 20.14 35.3167ZM13.1842 55.2538C13.1782 55.2256 13.1721 55.1974 13.1681 55.1692C12.6787 55.2276 12.1894 55.294 11.7 55.3424C10.9589 55.4149 10.2158 55.4854 9.47268 55.5397C8.42145 55.6143 7.37022 55.6908 6.31899 55.727C5.65845 55.7492 4.99589 55.6968 4.31119 55.6767C4.34542 55.7149 4.36757 55.7653 4.39375 55.7693C7.28967 55.9969 10.1513 55.582 13.0191 55.3001C13.0755 55.2941 13.1298 55.2699 13.1862 55.2558M38.3956 55.6102C38.3915 55.584 38.3855 55.5579 38.3815 55.5297C37.9122 55.6002 37.445 55.6787 36.9758 55.7371C36.1743 55.8378 35.3728 55.9385 34.5692 56.019C34.1443 56.0613 33.7174 56.0754 33.2905 56.0774C32.491 56.0835 31.6935 56.0794 30.894 56.0633C30.2173 56.0472 29.5427 56.0049 28.866 55.9767C28.8237 55.9767 28.7794 56.0029 28.7351 56.015C28.7371 56.0452 28.7412 56.0754 28.7432 56.1056C30.3684 56.1278 31.9935 56.16 33.6187 56.1701C35.2358 56.1801 36.8187 55.9103 38.3956 55.6062M47.0148 52.966C47.4841 53.7776 47.9553 54.5791 48.4044 55.3907C48.5071 55.576 48.5957 55.8156 48.5675 56.013C48.5413 56.2003 48.3863 56.4017 48.2332 56.5346C47.4639 57.1951 46.5818 57.6946 45.7159 58.2141C44.7573 58.7881 43.7504 59.2352 42.7132 59.654C40.0952 60.7113 37.3524 61.2409 34.5995 61.7464C32.636 62.1069 30.7228 61.8532 28.8298 61.3014C27.0777 60.7919 25.3217 60.2924 23.5656 59.795C22.5848 59.5171 21.6001 59.2513 20.6153 58.9834C19.415 58.6592 18.2148 58.343 17.0166 58.0127C16.7245 57.9322 16.4386 57.8214 16.1546 57.7087C15.9452 57.6261 15.8445 57.7026 15.8143 57.902C15.7498 58.347 15.6773 58.7921 15.6351 59.2392C15.5464 60.1535 15.4739 61.0678 15.3994 61.982C15.3873 62.119 15.3914 62.2559 15.3894 62.3949C15.3753 63.0836 15.1014 63.4219 14.4207 63.4904C13.3755 63.5951 12.3283 63.6837 11.2811 63.7361C9.60156 63.8227 7.92201 63.861 6.24247 63.9476C5.30603 63.9959 4.37361 64.1026 3.43919 64.1651C3.16933 64.1832 2.89344 64.1469 2.62157 64.1187C2.44435 64.1006 2.36178 63.9717 2.34768 63.7985C2.1604 61.6054 2.10401 59.4083 2.0879 57.2092C2.0879 57.179 2.09797 57.1468 2.09595 57.1669C2.76455 57.1387 3.41502 57.1085 4.0655 57.0844C4.46021 57.0682 4.85492 57.0521 5.24964 57.0501C6.87481 57.0461 8.502 57.0602 10.1272 57.0441C11.2388 57.032 12.3505 56.9837 13.4541 56.8185C14.0582 56.7299 14.6744 56.7199 15.2826 56.6594C16.1466 56.5728 17.0085 56.45 17.8724 56.3795C18.7887 56.303 19.7091 56.2667 20.6213 56.452C20.6999 56.4681 20.7845 56.4742 20.861 56.4601C20.9013 56.454 20.9677 56.3916 20.9657 56.3614C20.9556 56.2406 20.9214 56.1217 20.8831 55.9365C20.8006 56.0412 20.7422 56.1177 20.6697 56.2103C20.2548 56.1822 19.8057 56.1137 19.3587 56.1298C18.4987 56.164 17.6408 56.2385 16.7829 56.311C16.0841 56.3694 15.3894 56.444 14.6926 56.5124C13.9233 56.589 13.156 56.6715 12.3867 56.744C12.0887 56.7722 11.7906 56.7944 11.4906 56.7964C9.46865 56.8165 7.44876 56.8246 5.42686 56.8528C4.52465 56.8648 3.62245 56.9152 2.71823 56.9454C2.63768 56.9474 2.55712 56.9454 2.47456 56.9454C2.09797 56.9394 2.04359 56.883 2.05366 56.5467C2.14026 56.4701 2.20873 56.4198 2.25907 56.3574C2.27519 56.3352 2.24296 56.2406 2.23491 56.2406C2.17248 56.2446 2.11005 56.2607 2.0879 56.2667C1.89054 55.8076 1.6952 55.3424 1.49381 54.8792C1.15951 54.1039 1.04875 53.2762 0.94806 52.4525C0.821187 51.4073 0.801049 50.3581 0.867506 49.3049C0.952087 47.9354 1.27028 46.6244 1.77776 45.3557C2.48664 43.5855 3.22371 41.8254 3.90439 40.0472C4.3575 38.8631 4.74416 37.6527 4.9234 36.388C5.10263 35.1253 5.18922 33.8747 4.90124 32.606C4.79048 32.1227 4.84888 31.5971 4.86499 31.0896C4.87506 30.7553 5.07242 30.5096 5.35033 30.3183C5.98067 29.8833 6.67746 29.6759 7.43668 29.6215C8.29256 29.5611 9.12428 29.7464 9.96808 29.835C10.7233 29.9155 11.4785 29.99 12.2337 30.0585C12.6525 30.0948 13.0734 30.137 13.4923 30.129C14.2918 30.1129 15.0651 30.28 15.8485 30.3928C16.2372 30.4492 16.6379 30.423 17.0306 30.4512C17.7999 30.5076 18.5672 30.5761 19.3365 30.6365C19.6325 30.6586 19.9346 30.6486 20.2266 30.6969C20.7905 30.7936 21.3624 30.8842 21.9082 31.0493C22.4539 31.2124 22.7983 31.6353 23.0158 32.1589C23.2937 32.8316 23.4568 33.5223 23.4528 34.2554C23.4488 34.9582 23.4528 35.663 23.5032 36.3639C23.5374 36.8432 23.6582 37.3144 23.7428 37.8058C23.3884 37.8581 23.0279 37.9286 22.6654 37.9548C22.5566 37.9629 22.4116 37.8763 22.3311 37.7897C21.9887 37.4231 21.441 37.3929 21.01 37.7353C20.6415 38.0293 20.575 38.5207 20.8509 38.9194C21.0926 39.2678 21.6826 39.3665 22.0814 39.0685C22.317 38.8933 22.5587 38.8067 22.8346 38.7583C23.2192 38.6919 23.5998 38.6113 23.9643 38.5408C24.2583 39.1128 24.5403 39.6605 24.8504 40.2607C24.5463 40.5003 24.2181 40.7661 23.8797 41.0199C23.8395 41.0481 23.7368 41.0239 23.6804 40.9917C23.1427 40.6916 22.4862 40.9655 22.3734 41.5415C22.2989 41.9241 22.468 42.2906 22.8064 42.4759C23.1346 42.6551 23.5656 42.5987 23.8395 42.3551C24.357 41.8979 24.8826 41.4468 25.4062 40.9937C25.8412 41.4851 26.2823 41.9765 26.7132 42.4759C26.7414 42.5101 26.7253 42.6108 26.6951 42.6612C26.5118 42.9713 26.3205 43.2754 26.1272 43.5875C25.7728 43.4607 25.4566 43.4848 25.1706 43.6902C24.8303 43.9339 24.7014 44.2884 24.8061 44.6549C24.8826 44.9227 25.2028 45.1805 25.4808 45.1986C25.9802 45.2308 26.3105 45.0295 26.5098 44.6448C26.7817 44.1212 27.0878 43.6178 27.3798 43.1022C27.996 43.5593 28.6022 44.0084 29.2326 44.4777C29.0916 44.667 28.9466 44.8684 28.7935 45.0617C28.7029 45.1765 28.6002 45.2449 28.429 45.253C28.0565 45.2731 27.6899 45.6115 27.6658 45.9095C27.6235 46.4331 28.0988 46.8238 28.6385 46.6909C29.005 46.6003 29.297 46.421 29.3957 46.0102C29.4259 45.8894 29.5447 45.7907 29.6232 45.6799C29.7884 45.4443 29.9515 45.2067 30.1166 44.969C30.602 45.1684 31.0893 45.3658 31.6109 45.5792C31.4659 45.6679 31.339 45.7625 31.1981 45.8269C30.9705 45.9296 30.757 46.0384 30.7268 46.3183C30.7047 46.5318 30.8799 46.7332 31.1719 46.852C31.4941 46.9829 31.8143 46.9809 32.1144 46.7996C32.2171 46.7372 32.358 46.6204 32.358 46.5278C32.358 46.2398 32.5574 46.0867 32.7064 45.8571C33.0891 46.0424 33.4657 46.2277 33.9208 46.4492C33.5502 46.7493 33.2502 47.0131 32.928 47.2467C32.0862 47.8589 31.1115 48.165 30.1146 48.3966C28.3787 48.7994 26.6327 49.1498 24.9028 49.5727C23.7871 49.8466 22.7359 50.2977 21.8337 51.0388C21.008 51.7175 20.3193 52.519 19.8118 53.4594C19.4936 54.0495 19.2358 54.6718 18.966 55.2497C18.9096 55.1672 18.7928 55.0705 18.6155 55.1974C18.4726 55.3001 18.4142 55.4572 18.5088 55.5961C18.6276 55.7693 18.8028 55.6888 18.9357 55.6263C18.9841 55.6908 19.0304 55.7552 19.0787 55.8176C19.113 55.7532 19.1653 55.6928 19.1774 55.6223C19.4211 54.3717 20.0655 53.3265 20.8368 52.3397C22.0391 50.8032 23.6884 50.048 25.521 49.621C27.0838 49.2565 28.6586 48.9484 30.2234 48.592C31.5565 48.2879 32.7991 47.7844 33.804 46.8097C34.0054 46.6144 34.1161 46.3868 34.1363 46.0404C34.2269 46.1492 34.2974 46.2116 34.3397 46.2901C34.3739 46.3546 34.3759 46.4351 34.392 46.5096C34.4545 46.4573 34.5149 46.4049 34.5995 46.3324C34.6921 46.3848 34.8089 46.4472 34.9096 46.5036C34.8874 46.6345 34.8552 46.7432 34.8552 46.85C34.8552 46.9023 34.9136 46.9547 34.9478 47.005C34.9801 46.9587 35.0264 46.9164 35.0445 46.8661C35.0707 46.7936 35.0767 46.7151 35.0888 46.6546C36.0092 47.0574 36.9093 47.4561 37.8115 47.8468C38.6775 48.2214 39.5354 48.6383 40.4859 48.7591C41.1344 48.8417 41.7889 48.886 42.4414 48.9363C43.7745 49.037 44.999 49.4076 45.9777 50.3722C46.5818 50.9683 46.8698 51.7054 46.9101 52.5472C46.9182 52.7203 46.8336 52.813 46.7107 52.9036C45.5346 53.7756 44.2559 54.4664 42.9066 55.0282C41.7124 55.5256 40.5262 56.0432 39.2555 56.3191C38.4016 56.5044 37.5417 56.6796 36.6757 56.7863C35.5419 56.9253 34.4001 57.0058 33.2602 57.0844C32.7628 57.1186 32.2614 57.0904 31.7801 57.0904C31.9331 56.9716 31.9351 56.8024 31.772 56.6453C31.619 56.4983 31.4639 56.591 31.3431 56.6957C31.1719 56.8427 31.2524 56.9937 31.3934 57.1045H29.293C29.3816 57.0119 29.5628 56.887 29.5447 56.8306C29.4984 56.6896 29.3796 56.5245 29.2487 56.4762C29.152 56.4399 28.9365 56.5346 28.8781 56.6333C28.8298 56.7178 28.9305 56.889 28.9687 57.036C28.8479 57.036 28.6606 57.0501 28.4774 57.034C27.4664 56.9454 26.4575 56.8407 25.4465 56.7561C24.8927 56.7098 24.3349 56.6957 23.7811 56.6494C23.3582 56.6131 22.9373 56.5447 22.5144 56.4903C22.466 56.4842 22.4157 56.454 22.3754 56.4641C22.3251 56.4762 22.2808 56.5205 22.2344 56.5507C22.2687 56.5849 22.3009 56.6433 22.3392 56.6514C22.758 56.7219 23.1769 56.8064 23.5998 56.8447C24.5926 56.9373 25.5895 57.0098 26.5843 57.0884C27.2751 57.1428 27.9658 57.2012 28.6566 57.2374C29.5991 57.2898 30.5436 57.3542 31.486 57.3562C32.348 57.3582 33.2119 57.2938 34.0718 57.2435C34.6981 57.2072 35.3265 57.1649 35.9507 57.0904C36.7563 56.9917 37.5618 56.891 38.3573 56.7339C40.9854 56.2184 43.4121 55.1813 45.7139 53.836C46.1509 53.5803 46.5557 53.2742 47.0148 52.964" fill="white"/>
<path d="M24.1694 13.2794C24.2318 13.2311 24.2741 13.1969 24.3164 13.1647C24.26 13.1224 24.2056 13.0539 24.1432 13.0438C24.0949 13.0358 24.0345 13.1022 23.9801 13.1344C24.0365 13.1767 24.0929 13.221 24.1694 13.2794ZM25.1018 13.4587C25.1804 13.4063 25.2327 13.3721 25.2851 13.3378C25.2206 13.2996 25.1602 13.2351 25.0938 13.2291C25.0333 13.2231 24.9669 13.2794 24.9024 13.3076C24.9649 13.356 25.0253 13.4023 25.1018 13.4587ZM30.3539 14.7999C30.3237 14.524 30.1948 14.4696 29.9552 14.6086C30.1062 14.6811 30.2311 14.7395 30.3539 14.7999ZM27.4842 13.7406C27.4741 13.7708 27.4641 13.801 27.454 13.8312C27.5748 13.8715 27.6956 13.9118 27.8165 13.944C27.8265 13.946 27.8527 13.8876 27.8729 13.8574C27.7641 13.8091 27.6554 13.7567 27.5466 13.7124C27.5325 13.7064 27.5043 13.7305 27.4842 13.7406ZM26.8498 13.7406C26.9042 13.7003 26.9425 13.6701 26.9827 13.6399C26.8982 13.5835 26.8176 13.509 26.725 13.4768C26.6847 13.4627 26.6142 13.5292 26.5578 13.5574C26.6505 13.6158 26.7431 13.6742 26.8498 13.7406ZM25.6798 13.3842C25.6798 13.4265 25.6798 13.4687 25.6778 13.511C25.7885 13.5292 25.8993 13.5533 26.0121 13.5594C26.0423 13.5594 26.0906 13.513 26.1047 13.4768C26.1128 13.4567 26.0705 13.3902 26.0463 13.3882C25.9255 13.3781 25.8026 13.3842 25.6798 13.3842ZM33.9648 16.4009C33.8741 16.5238 33.8258 16.5822 33.8318 16.5862C33.9265 16.6808 34.0272 16.7694 34.1279 16.8601C34.1561 16.8278 34.2145 16.7775 34.2084 16.7634C34.142 16.6486 34.0634 16.5419 33.9668 16.4009M34.8911 17.8005C34.9455 17.726 34.9958 17.6737 34.9878 17.6636C34.9133 17.5569 34.8287 17.4562 34.7461 17.3535C34.7159 17.3837 34.6535 17.43 34.6595 17.4401C34.724 17.5528 34.7985 17.6616 34.8911 17.8025M32.2973 15.5168C32.2751 15.5591 32.251 15.6014 32.2288 15.6437C32.3496 15.7202 32.4685 15.7988 32.5933 15.8672C32.6135 15.8793 32.6759 15.8531 32.692 15.827C32.7061 15.8028 32.698 15.7363 32.6779 15.7243C32.5551 15.6497 32.4242 15.5853 32.2973 15.5168ZM24.3506 12.6531C24.2761 12.7075 24.2238 12.7458 24.1734 12.784C24.2842 12.8324 24.3929 12.8908 24.5077 12.923C24.546 12.9331 24.6044 12.8747 24.6527 12.8485C24.5561 12.786 24.4594 12.7236 24.3506 12.6531ZM25.4321 13.0277C25.4562 13.0096 25.4804 12.9915 25.5046 12.9733C25.4583 12.9169 25.418 12.8223 25.3636 12.8122C25.2468 12.7901 25.1199 12.8122 24.9991 12.8183C25.0213 12.8606 25.0333 12.927 25.0656 12.9371C25.1844 12.9774 25.3072 12.9995 25.4301 13.0277M28.3058 13.9178C28.33 14.1696 28.5354 14.2682 28.7952 14.1957C28.7106 13.9642 28.4871 14.0205 28.3058 13.9178ZM31.2823 15.0395C31.097 14.953 30.9682 14.8885 30.8332 14.8361C30.8151 14.8281 30.7688 14.8885 30.7366 14.9187C30.8574 14.9973 30.9742 15.0818 31.1011 15.1503C31.1212 15.1624 31.1796 15.104 31.2823 15.0395ZM31.4152 15.245C31.5602 15.3235 31.675 15.394 31.7958 15.4403C31.822 15.4504 31.9227 15.3678 31.9167 15.3376C31.8965 15.2067 31.5783 15.1302 31.4132 15.245M29.6128 14.5844C29.5564 14.2904 29.3692 14.2038 29.0993 14.3448C29.2524 14.4173 29.4054 14.4878 29.6128 14.5844ZM34.6213 16.6567C34.583 16.8983 34.7582 16.9829 34.877 17.0957C34.8811 17.0997 34.9898 17.0171 34.9858 17.0051C34.9133 16.85 34.8267 16.705 34.6213 16.6547M36.768 23.0043C36.7419 23.0164 36.7157 23.0285 36.6915 23.0426C36.6996 23.1755 36.6996 23.3084 36.7217 23.4393C36.7298 23.4856 36.7902 23.5239 36.8264 23.5642C36.8486 23.5199 36.8848 23.4756 36.8909 23.4292C36.9009 23.3426 36.905 23.25 36.8848 23.1674C36.8707 23.107 36.8103 23.0587 36.77 23.0043M30.2975 14.1696C30.2794 14.2159 30.2613 14.2622 30.2432 14.3085C30.3841 14.3669 30.5211 14.4293 30.6641 14.4817C30.6882 14.4898 30.7446 14.4575 30.7567 14.4314C30.7688 14.4032 30.7507 14.3367 30.7305 14.3287C30.5895 14.2703 30.4425 14.2219 30.2975 14.1696ZM33.6405 16.2559C33.4593 16.1552 33.3143 16.0767 33.1693 15.9961C33.1491 16.0324 33.1069 16.0988 33.1129 16.1029C33.2357 16.1975 33.3626 16.2881 33.4935 16.3707C33.5056 16.3788 33.558 16.3224 33.6405 16.2559ZM36.4821 22.8593C36.4599 22.8694 36.4357 22.8795 36.4136 22.8915C36.4035 23.0386 36.3854 23.1876 36.3874 23.3346C36.3874 23.3648 36.4639 23.395 36.5042 23.4252C36.5344 23.2923 36.5787 23.1614 36.5868 23.0285C36.5908 22.9741 36.5183 22.9157 36.48 22.8593M25.996 12.8726C25.9859 12.923 25.9758 12.9733 25.9678 13.0237C26.1369 13.0559 26.3041 13.0922 26.4732 13.1203C26.4934 13.1244 26.5357 13.0861 26.5377 13.064C26.5377 13.0297 26.5216 12.9673 26.5014 12.9633C26.3343 12.927 26.1651 12.9008 25.996 12.8726ZM28.2696 13.3922C28.2374 13.4124 28.1951 13.4385 28.1548 13.4647C28.183 13.505 28.2052 13.5634 28.2434 13.5795C28.3522 13.6238 28.467 13.656 28.5838 13.6802C28.626 13.6883 28.6764 13.656 28.7227 13.6439C28.6925 13.5976 28.6744 13.5271 28.6321 13.509C28.5254 13.4607 28.4065 13.4345 28.2696 13.3942M35.5275 17.8187C35.5517 17.8146 35.5738 17.8106 35.598 17.8066C35.6121 17.7582 35.6544 17.6958 35.6383 17.6656C35.5658 17.5347 35.4792 17.4098 35.3885 17.293C35.3744 17.2749 35.302 17.3031 35.2556 17.3092C35.2697 17.3676 35.2697 17.432 35.2979 17.4803C35.3684 17.5971 35.451 17.7059 35.5275 17.8187ZM33.9929 16.0344C33.9728 16.1371 33.9345 16.2197 33.9567 16.2418C34.0634 16.3506 34.1843 16.4432 34.3051 16.5358C34.3252 16.5499 34.3796 16.5358 34.4058 16.5157C34.4239 16.5036 34.434 16.4432 34.4239 16.4331C34.2991 16.3123 34.1682 16.1955 33.9929 16.0364M35.4389 18.7309C35.5658 18.5779 35.4731 18.1711 35.3301 18.1389C35.2999 18.1328 35.2093 18.2275 35.2174 18.2496C35.2798 18.4087 35.3583 18.5618 35.4389 18.7329M27.162 13.07C27.1358 13.0942 27.0814 13.1203 27.0774 13.1506C27.0734 13.1868 27.1076 13.2472 27.1398 13.2613C27.2425 13.3036 27.3493 13.3419 27.46 13.358C27.5204 13.366 27.5889 13.3298 27.6534 13.3117C27.603 13.2653 27.5607 13.2009 27.5003 13.1727C27.3996 13.1284 27.2868 13.1063 27.162 13.07ZM36.7982 22.0256V22.674C36.8244 22.6841 36.8506 22.6922 36.8768 22.7022C36.913 22.6177 36.9714 22.5351 36.9775 22.4485C36.9896 22.3035 37.0157 22.1363 36.7962 22.0256M36.5123 22.2532C36.5606 22.2451 36.6089 22.235 36.6573 22.227C36.6331 22.0477 36.611 21.8665 36.5787 21.6893C36.5747 21.6631 36.5183 21.6268 36.4901 21.6309C36.4599 21.6329 36.4076 21.6812 36.4116 21.7034C36.4398 21.8886 36.478 22.0699 36.5123 22.2532ZM36.3189 20.2131C36.2767 20.0762 36.2545 19.9654 36.2082 19.8647C36.188 19.8245 36.1176 19.8083 36.0692 19.7801C36.0551 19.8265 36.0249 19.8768 36.031 19.9211C36.0471 20.0238 36.0753 20.1245 36.1095 20.2212C36.1276 20.2695 36.1719 20.3098 36.2042 20.3541C36.2444 20.3037 36.2867 20.2534 36.3189 20.2131ZM35.8135 18.9444C35.7812 18.9525 35.747 18.9625 35.7148 18.9726C35.7571 19.1518 35.8014 19.3311 35.8437 19.5103C35.898 19.4942 36.0028 19.4781 36.0028 19.4599C36.0088 19.2606 35.9605 19.0793 35.8135 18.9444ZM36.6049 20.048C36.5666 20.0601 36.5304 20.0701 36.4921 20.0822C36.4478 20.2796 36.5747 20.4487 36.6271 20.628C36.6311 20.6401 36.7056 20.6501 36.7338 20.634C36.762 20.6199 36.7942 20.5655 36.7862 20.5394C36.7318 20.3742 36.6673 20.2111 36.6049 20.046M36.7942 21.6571C36.8184 21.6691 36.8405 21.6792 36.8647 21.6893C36.903 21.643 36.9815 21.5825 36.9714 21.5503C36.9171 21.3771 36.9755 21.1476 36.6915 21.0569C36.7257 21.2563 36.76 21.4577 36.7942 21.6571ZM32.2691 15.1322C32.4765 15.2752 32.6356 15.3859 32.8008 15.4886C32.8088 15.4927 32.8994 15.4121 32.8974 15.3759C32.8914 15.2671 32.4866 15.0758 32.2691 15.1322ZM35.7712 18.2396C35.8356 18.5436 35.9967 18.7712 36.1417 18.7793C36.1659 18.5114 36.0008 18.2577 35.7712 18.2396ZM33.0928 15.7021C33.2962 15.8431 33.4472 15.9518 33.6063 16.0545C33.6284 16.0686 33.6909 16.0545 33.709 16.0304C33.7291 16.0062 33.7311 15.9538 33.7191 15.9216C33.6707 15.7947 33.3223 15.6477 33.0948 15.7021M29.2302 13.795C29.2221 13.8192 29.2141 13.8433 29.206 13.8695C29.3833 13.942 29.5585 14.0185 29.7397 14.081C29.7538 14.085 29.8384 13.9782 29.8263 13.946C29.7921 13.8494 29.345 13.7487 29.2302 13.797M36.3471 21.3026C36.5042 21.1677 36.4901 20.7105 36.3512 20.63C36.323 20.6139 36.2142 20.6683 36.2142 20.6783C36.2505 20.8817 36.2968 21.0831 36.3451 21.3026M31.9046 15.0416C31.9489 14.7838 31.5804 14.5804 31.2159 14.7032C31.4797 14.8321 31.6871 14.9348 31.9046 15.0416ZM36.5707 19.7217C36.5082 19.5465 36.4639 19.3935 36.3995 19.2485C36.3814 19.2082 36.3089 19.1901 36.2626 19.1619C36.2525 19.2183 36.2243 19.2787 36.2364 19.329C36.2666 19.468 36.3089 19.607 36.3572 19.7419C36.3733 19.7842 36.4257 19.8124 36.4619 19.8466C36.4982 19.8043 36.5364 19.762 36.5707 19.7197M34.3333 23.0688C34.297 23.1171 34.1903 23.1976 34.1742 23.2923C34.144 23.4735 34.3051 23.5501 34.4461 23.5481C34.5327 23.5481 34.6837 23.4373 34.6897 23.3668C34.7038 23.2097 34.6092 23.0829 34.3333 23.0688ZM24.5903 21.0851C24.8581 21.0912 25.0817 20.9381 25.0333 20.8213C24.985 20.7025 24.8602 20.5696 24.7413 20.5333C24.5883 20.485 24.3869 20.6824 24.4211 20.8354C24.4453 20.9421 24.55 21.0328 24.5883 21.0871M29.9189 22.3055C30.0639 22.2793 30.2432 22.2813 30.2351 22.0659C30.2291 21.8806 30.1425 21.7517 29.923 21.7598C29.7296 21.7678 29.5947 21.8826 29.5987 22.0598C29.6028 22.2733 29.7598 22.2854 29.9189 22.3035M32.0999 22.2491C31.9026 22.235 31.7556 22.3458 31.7415 22.519C31.7254 22.7022 31.818 22.7848 31.9912 22.7989C32.1825 22.815 32.3839 22.6942 32.3718 22.5552C32.3577 22.3982 32.2993 22.2552 32.1019 22.2511M27.3009 21.5241C27.5204 21.5262 27.6755 21.4174 27.6634 21.2482C27.6493 21.061 27.5265 20.9784 27.3533 20.9885C27.1781 20.9985 27.0009 21.0489 26.9908 21.2623C26.9807 21.4476 27.1056 21.5322 27.3009 21.5241ZM22.5966 20.5978C22.6348 20.4206 22.4878 20.3823 22.3569 20.3702C22.1314 20.3521 21.9381 20.5212 21.936 20.7045C21.934 20.9099 22.079 20.9663 22.2341 20.9804C22.4234 20.9965 22.6006 20.8032 22.5966 20.5978ZM40.8944 17.5488C40.9025 17.5226 40.9085 17.4944 40.9145 17.4662C39.958 17.1037 39.0497 16.6003 38.0186 16.4492C38.9772 16.8158 39.9358 17.1823 40.8924 17.5488M43.7158 8.43815C44.0501 8.43815 44.1951 8.22468 44.0763 7.90851C43.9575 7.59233 43.7319 7.41511 43.3976 7.37887C43.0935 7.34463 42.8619 7.65073 42.9747 7.93469C43.0734 8.18239 43.454 8.44016 43.7158 8.43815ZM32.4644 7.59032C32.7504 8.27906 34.5286 10.3775 34.7924 10.4198C34.0473 9.51355 33.278 8.57912 32.4644 7.59032ZM32.7967 10.1519C32.3094 9.77736 29.1335 9.40681 28.8415 9.68069C30.1868 9.66861 31.5018 9.82166 32.7967 10.1519ZM33.8963 8.53079L33.9486 8.50259C33.3103 7.27415 32.6719 6.04771 32.0315 4.81926C32.0093 4.83135 31.9872 4.84343 31.965 4.85551C32.5571 6.10813 33.1653 7.35067 33.8963 8.53079ZM47.4092 19.3129C45.496 19.0169 43.6836 18.3584 41.8208 17.7965C42.0705 18.1268 46.9339 19.462 47.4092 19.3129ZM32.1463 3.08333C32.1241 3.08735 32.104 3.09138 32.0838 3.09541C32.0939 3.15381 32.0959 3.21423 32.116 3.26659C32.3275 3.82644 32.5249 4.39233 32.7625 4.94211C33.2881 6.15445 33.862 7.34463 34.6495 8.416C34.6938 8.47641 34.7582 8.52072 34.8146 8.57106C33.6607 6.85929 32.839 5.00252 32.1463 3.08333ZM44.7932 10.156C44.5918 9.97069 44.4529 9.81361 44.2877 9.69278C43.9655 9.45716 43.6373 9.22758 43.2949 9.02217C43.158 8.9396 42.9787 8.88522 42.8217 8.89328C42.7008 8.89932 42.5317 8.99599 42.4813 9.09869C42.4249 9.21348 42.429 9.41084 42.4934 9.52361C42.6827 9.86395 43.2184 9.97673 43.6071 9.76326C43.9635 10.0734 44.3341 10.3916 44.6986 10.7158C44.7368 10.75 44.7469 10.8306 44.7429 10.889C44.7308 11.1287 44.7066 11.3703 44.6865 11.6442C44.4488 11.4529 44.2313 11.2817 44.0179 11.1085C43.8286 10.9555 43.6574 10.7762 43.452 10.6494C43.2345 10.5124 42.9969 10.3876 42.7492 10.3211C42.5115 10.2567 42.2759 10.45 42.1692 10.7239C42.0665 10.9877 42.1269 11.2656 42.3464 11.4146C42.6666 11.6301 43.0029 11.7912 43.3956 11.5636C43.4339 11.5415 43.5225 11.5596 43.5648 11.5898C43.8769 11.8275 44.187 12.0711 44.4911 12.3209C44.5415 12.3611 44.5959 12.4417 44.5898 12.4981C44.5576 12.9149 44.5093 13.3298 44.4629 13.7769C43.9937 13.5191 43.5567 13.2694 43.1117 13.0358C42.9566 12.9552 42.7774 12.8626 42.6122 12.8706C42.4108 12.8807 42.1692 12.927 42.1249 13.2069C42.0785 13.499 42.2336 13.8675 42.4672 14.0064C42.7129 14.1535 42.9687 14.2139 43.2466 14.0951C43.2889 14.0769 43.3513 14.089 43.3976 14.1071C43.5305 14.1635 43.6574 14.228 43.7863 14.2924C44.4388 14.6267 44.4267 14.6287 44.5093 15.3517C44.5475 15.686 44.6422 16.0142 44.7127 16.3506C44.4791 16.3888 44.2253 16.4372 43.9675 16.4654C43.9132 16.4714 43.8527 16.4009 43.7923 16.3727C43.6312 16.2922 43.4741 16.1854 43.303 16.1451C43.0794 16.0928 42.8156 16.3506 42.8196 16.6063C42.8277 16.9829 42.9526 17.3132 43.2707 17.5448C43.4359 17.6656 43.6373 17.7079 43.7762 17.5548C44.03 17.2729 44.3723 17.2789 44.6905 17.2064C44.8073 17.1803 44.9281 17.1662 45.047 17.1662C45.1094 17.1662 45.198 17.1903 45.2322 17.2346C45.8827 18.1207 46.793 18.6745 47.7213 19.2102C47.7697 19.2384 47.818 19.2666 47.8885 19.3069C47.8361 19.3311 47.8019 19.3472 47.7234 19.3834C49.3123 19.7238 50.6535 20.4608 51.9081 21.5121C51.6181 21.6027 51.3684 21.7376 51.1127 21.7477C50.4058 21.7718 49.6869 21.8141 48.9921 21.7175C47.7133 21.5423 46.4526 21.2422 45.1738 21.0589C44.5737 20.9723 43.9534 21.0227 43.3412 21.0368C42.435 21.0569 41.5872 21.3107 40.7756 21.7114C39.5935 22.2954 38.7718 23.2379 38.1314 24.3576C38.0287 24.5369 37.9361 24.5731 37.7588 24.5207C37.5212 24.4523 37.2755 24.4039 37.0379 24.3314C36.9714 24.3113 36.9211 24.2348 36.903 24.1462C36.9896 24.1583 37.1003 24.2106 37.1607 24.1744C37.2493 24.122 37.3037 24.0072 37.3722 23.9206C37.2735 23.8501 37.1829 23.7474 37.0741 23.7172C36.9573 23.687 36.7036 23.9971 36.7016 24.1301C36.7016 24.1643 36.6875 24.1985 36.6814 24.2328C36.6613 24.2328 36.6391 24.2328 36.619 24.2348C36.611 24.1361 36.615 24.0354 36.5948 23.9387C36.5807 23.8743 36.5324 23.8159 36.4982 23.7555C36.466 23.8199 36.4216 23.8803 36.4055 23.9468C36.3894 24.0153 36.4015 24.0898 36.4015 24.1905C35.8417 24.0656 35.2999 23.9649 34.7683 23.824C32.9236 23.3326 31.087 22.809 29.2383 22.3317C27.7319 21.943 26.2235 21.5503 24.697 21.2603C23.4545 21.0247 22.1837 21.0005 20.9251 21.4154C20.9392 21.3489 20.9493 21.2966 20.9654 21.218C20.7982 21.3832 20.6492 21.5302 20.5002 21.6772C20.474 21.6591 20.4478 21.643 20.4216 21.6248C20.4901 21.2321 20.5525 20.8374 20.627 20.4447C20.8466 19.3029 21.0278 18.153 21.3077 17.0272C21.6521 15.6457 22.2985 14.383 23.0457 13.1747C23.0658 13.1405 23.094 13.1123 23.1021 13.1002H23.6277C23.6357 13.072 23.6418 13.0438 23.6498 13.0156C23.523 12.9693 23.3961 12.923 23.2692 12.8767C23.2692 12.8585 23.2672 12.8404 23.2652 12.8203C23.4001 12.8001 23.5371 12.782 23.7445 12.7518C23.6257 12.6592 23.5572 12.6068 23.4686 12.5383C23.6176 12.347 23.7646 12.1235 23.9459 11.9342C24.8461 10.9957 25.7462 10.0553 26.6666 9.13494C27.9011 7.90045 28.9402 6.53506 29.4276 4.83739C29.7115 3.84657 29.8686 2.82153 30.08 1.81057C30.0941 1.74009 30.0901 1.66558 30.0921 1.59308C30.0982 0.988923 30.3277 0.721081 30.9339 0.715039C31.2823 0.711012 31.6428 0.769413 31.9791 0.868092C32.8833 1.13191 33.707 1.57495 34.4138 2.18918C36.0672 3.62304 38.0065 4.45274 40.0889 5.02266C41.0535 5.28648 42.0161 5.57043 42.8942 6.07591C44.1548 6.8029 44.7711 7.90045 44.7932 9.3464C44.7972 9.58806 44.7932 9.83173 44.7932 10.156Z" fill="white"/>
<path d="M47.0209 29.3843C47.0229 29.3621 47.0249 29.34 47.0269 29.3178C46.702 29.2306 46.5161 29.2238 46.4691 29.2977C46.6523 29.3259 46.8356 29.3561 47.0209 29.3843ZM30.5637 27.31C30.3744 27.0925 29.7582 26.9274 29.591 27.0261C29.9032 27.1167 30.2032 27.2053 30.5637 27.31ZM31.6411 26.138C31.6089 26.148 31.5747 26.1601 31.5424 26.1702C31.7861 26.9012 32.0318 27.6322 32.2755 28.3633C32.3077 28.3532 32.3399 28.3431 32.3721 28.331C32.1285 27.6 31.8868 26.867 31.6431 26.1359M31.9915 29.0983C32.0197 29.0903 32.0479 29.0822 32.0761 29.0742C31.7076 27.8095 31.337 26.5468 30.9685 25.2821C30.9423 25.2901 30.9161 25.2982 30.892 25.3042C31.2142 26.583 31.5888 27.8457 31.9915 29.0983ZM19.3788 27.5396C19.256 27.0804 19.1331 26.6918 19.256 26.2427C19.6124 24.9599 19.9427 23.667 20.2427 22.37C20.3273 22.0055 20.5106 21.8203 20.8268 21.6874C21.3685 21.4598 21.9304 21.3611 22.5144 21.3289C23.9341 21.2503 25.2814 21.6169 26.6488 21.923C29.1238 22.4788 31.5364 23.2521 33.9953 23.8643C35.2318 24.1724 36.4764 24.4483 37.7229 24.7202C38.6735 24.9276 39.5616 25.3083 40.4718 25.6325C41.8916 26.1359 43.3456 26.5448 44.7795 27.0079C45.9012 27.3704 47.0027 27.7994 48.1365 28.1135C50.1363 28.6653 52.1461 29.1889 54.17 29.6501C55.5978 29.9764 57.0539 30.1516 58.53 30.1193C59.5309 30.0972 60.5318 30.1214 61.5327 30.1073C61.8931 30.1032 62.2536 30.0509 62.6141 30.0126C62.9947 29.9743 63.2787 30.1093 63.3995 30.4758C63.5304 30.8725 63.619 31.2854 63.6915 31.6962C63.7862 32.2439 63.8466 32.7978 63.9171 33.3496C63.9291 33.4361 63.9171 33.5248 63.9171 33.6456C63.47 33.6456 63.043 33.6557 62.6181 33.6436C61.8368 33.6194 61.0534 33.5852 60.272 33.5509C59.2087 33.5046 58.1434 33.4764 57.08 33.3979C55.2635 33.267 53.4994 32.8461 51.7353 32.4192C49.7134 31.9278 47.8043 31.1303 45.8992 30.3167C44.0082 29.5091 42.1292 28.6714 40.2382 27.8658C39.4347 27.5235 38.601 27.2536 37.7954 26.9153C37.1893 26.6595 36.6053 26.3514 36.0152 26.0614C35.5903 25.852 35.1714 25.6305 34.7505 25.415C34.4504 25.2619 34.3598 25.2821 34.237 25.5982C33.8342 26.6293 33.4455 27.6665 33.0468 28.6996C32.9521 28.9473 32.8414 29.1889 32.7286 29.4286C32.646 29.6058 32.5494 29.6642 32.3178 29.5957C30.7772 29.1507 29.2305 28.7298 27.6819 28.3149C26.2803 27.9404 24.8766 27.5698 23.4669 27.2254C22.4237 26.9717 21.3604 26.8307 20.283 26.9072C19.705 26.9495 19.5178 27.0704 19.3768 27.5356" fill="white"/>
<path d="M63.9132 33.8869C63.7581 34.0681 63.6413 34.2433 63.4903 34.3762C63.0332 34.777 62.4794 35.0046 61.9255 35.2341C60.6629 35.7557 59.3901 36.2511 58.0509 36.5371C56.6372 36.8392 55.1973 36.8976 53.7574 36.8855C51.369 36.8654 49.0309 36.4606 46.7331 35.8322C45.3616 35.4577 44.107 34.7931 42.8463 34.1527C39.9202 32.6645 37.0626 31.0534 34.2372 29.3879C33.9109 29.1946 33.5827 29.0053 33.2463 28.81C33.6572 27.7245 34.068 26.641 34.4708 25.5737C34.5271 25.5656 34.5473 25.5576 34.5574 25.5636C35.5723 26.0671 36.5793 26.5887 37.6043 27.068C38.0514 27.2774 38.5488 27.3761 39.0039 27.5714C41.048 28.4475 43.08 29.3517 45.126 30.2257C46.9546 31.0071 48.7711 31.8388 50.6963 32.3563C52.1121 32.737 53.5419 33.0793 54.9818 33.3451C55.9907 33.5304 57.0259 33.5848 58.0529 33.6533C59.0437 33.7177 60.0366 33.7197 61.0294 33.758C61.9638 33.7942 62.9002 33.8426 63.9112 33.8869" fill="white"/>
<path d="M45.194 23.0262C45.2705 22.9799 45.3249 22.9477 45.3773 22.9155C45.3088 22.8752 45.2443 22.8128 45.1718 22.8027C45.1195 22.7946 45.057 22.8551 44.9966 22.8873C45.0591 22.9316 45.1195 22.9739 45.194 23.0283M47.7757 23.0867C47.7073 23.141 47.661 23.1793 47.6126 23.2176C47.6791 23.2558 47.7415 23.3102 47.812 23.3243C47.8684 23.3344 47.9328 23.2921 47.9932 23.2739C47.9288 23.2176 47.8623 23.1612 47.7757 23.0867ZM49.5862 23.3766C49.5983 23.3525 49.6104 23.3263 49.6245 23.3021C49.5942 23.2901 49.564 23.2699 49.5318 23.2679C49.417 23.2598 49.3043 23.2578 49.1895 23.2598C49.1834 23.2598 49.1713 23.3404 49.1754 23.3404C49.2781 23.3686 49.3788 23.3988 49.4835 23.4149C49.5157 23.421 49.552 23.3907 49.5862 23.3766ZM51.89 22.9618C51.7068 23.1008 51.6262 23.1632 51.5457 23.2236C51.5799 23.2498 51.6222 23.3062 51.6464 23.3001C51.7551 23.2719 51.8618 23.2296 51.9585 23.1753C51.9706 23.1692 51.9202 23.0544 51.888 22.9618M46.6701 21.9146C46.7386 21.8622 46.7849 21.826 46.8312 21.7897C46.7547 21.7495 46.6822 21.685 46.6017 21.6749C46.5453 21.6669 46.4768 21.7293 46.4144 21.7595C46.4929 21.8079 46.5735 21.8562 46.6701 21.9146ZM46.2654 23.0162C46.3439 23.2437 46.5191 23.1652 46.7084 23.1511C46.6178 22.8833 46.4204 23.0121 46.2654 23.0162ZM52.2324 22.99C52.4277 23.133 52.5546 23.0625 52.6634 22.9759C52.7016 22.9457 52.6936 22.8591 52.7177 22.7362C52.5284 22.8349 52.4056 22.8994 52.2324 22.99ZM44.6845 22.9255C44.6845 22.8974 44.6845 22.8692 44.6865 22.841C44.5093 22.6899 44.3421 22.6879 44.179 22.8974C44.3764 22.9074 44.5294 22.9155 44.6845 22.9235M48.9236 22.0656C48.8612 22.118 48.8169 22.1583 48.7726 22.1965C48.8773 22.2429 48.98 22.2972 49.0888 22.3274C49.119 22.3355 49.1693 22.263 49.2116 22.2288C49.123 22.1784 49.0324 22.1281 48.9236 22.0656ZM50.9234 22.2771C51.1087 22.3939 51.2557 22.3657 51.3906 22.1844C51.2355 22.0757 51.0543 22.112 50.9234 22.2771ZM50.2548 22.2046C50.2508 22.2509 50.2467 22.2972 50.2427 22.3435C50.3776 22.3556 50.5126 22.3697 50.6455 22.3717C50.6676 22.3717 50.7079 22.3153 50.7079 22.2851C50.7079 22.259 50.6676 22.2086 50.6414 22.2066C50.5126 22.1985 50.3837 22.2026 50.2548 22.2026M43.2124 21.6125C43.2124 21.5843 43.2083 21.5541 43.2063 21.5259C43.1399 21.5098 43.0694 21.4675 43.011 21.4816C42.9224 21.5038 42.8438 21.5622 42.7613 21.6065C42.8116 21.6407 42.866 21.7052 42.9143 21.7011C43.017 21.6911 43.1137 21.6447 43.2144 21.6125M48.1302 21.9247C48.0698 21.969 48.0234 22.0012 47.9791 22.0334C48.0738 22.0878 48.1644 22.1563 48.2671 22.1905C48.3094 22.2046 48.3759 22.1361 48.4302 22.1059C48.3356 22.0495 48.2409 21.9911 48.1302 21.9247ZM50.0111 22.3113C49.854 22.1019 49.6466 22.0999 49.4815 22.3113H50.0111ZM40.8924 22.2972C40.7957 22.2328 40.7494 22.1844 40.7293 22.1925C40.6105 22.2509 40.4977 22.3194 40.3869 22.3919C40.3789 22.3959 40.4171 22.4664 40.4333 22.5067C40.5682 22.4442 40.7031 22.3818 40.8924 22.2972ZM39.4908 23.4894C39.4686 23.4653 39.4445 23.4411 39.4223 23.4169C39.2411 23.4069 39.1565 23.5438 39.0799 23.6807C39.0659 23.7049 39.082 23.7593 39.1021 23.7855C39.1142 23.8016 39.1726 23.8056 39.1887 23.7915C39.2934 23.6948 39.3901 23.5901 39.4908 23.4874M43.5849 22.6859C43.4903 22.7423 43.4117 22.7886 43.3332 22.8349C43.3997 22.8671 43.4681 22.9296 43.5326 22.9255C43.6292 22.9195 43.7239 22.8651 43.8185 22.8329C43.748 22.7886 43.6776 22.7463 43.5829 22.6879M47.226 23.3162C47.2864 23.2518 47.3267 23.2095 47.3669 23.1672C47.2501 23.1209 47.1353 23.0665 47.0165 23.0363C46.9843 23.0283 46.9319 23.0987 46.8896 23.133C46.9944 23.1894 47.0991 23.2457 47.228 23.3162M48.7927 23.2518H48.2329C48.3155 23.3263 48.3618 23.4048 48.4101 23.4069C48.539 23.4109 48.7021 23.4794 48.7927 23.2518ZM45.9834 21.824C46.0599 21.7716 46.1042 21.7434 46.1506 21.7132C46.0398 21.6629 45.9331 21.6024 45.8163 21.5662C45.778 21.5541 45.7176 21.6045 45.6693 21.6266C45.77 21.6911 45.8706 21.7535 45.9854 21.826M47.1434 21.7938C47.2038 22.0676 47.4012 21.9992 47.5462 22.0435C47.5562 22.0475 47.6046 21.9891 47.6046 21.9589C47.6046 21.9287 47.5723 21.8783 47.5462 21.8723C47.4133 21.8401 47.2783 21.8199 47.1454 21.7958M41.2469 21.9951C41.2589 22.0213 41.273 22.0495 41.2851 22.0777C41.416 22.0334 41.5469 21.9931 41.6738 21.9408C41.7 21.9307 41.7261 21.8723 41.7201 21.8441C41.712 21.8139 41.6597 21.7676 41.6375 21.7736C41.4865 21.8119 41.3032 21.8119 41.2469 21.9972M49.9467 23.2538C50.1702 23.4834 50.4119 23.4532 50.4642 23.2538H49.9467ZM40.6729 23.7291C40.8985 23.8257 41.1784 23.6646 41.1482 23.5237C41.1421 23.4935 41.0294 23.4491 40.9991 23.4673C40.8924 23.5317 40.8018 23.6203 40.6709 23.7291M41.9396 21.6488C42 21.7193 42.0423 21.7998 42.0685 21.7958C42.2216 21.7676 42.3686 21.7172 42.5196 21.6749C42.3202 21.4655 42.1591 21.6105 41.9396 21.6488ZM45.9975 23.0927L46.0318 23.0222C45.9834 22.9759 45.9391 22.9014 45.8847 22.8913C45.7659 22.8692 45.6411 22.8833 45.5182 22.8812C45.5323 22.9296 45.5384 23.0121 45.5645 23.0202C45.7055 23.0564 45.8525 23.0726 45.9975 23.0947M50.9194 23.1632V23.1712C50.863 23.1712 50.8026 23.1592 50.7522 23.1753C50.6998 23.1914 50.6576 23.2357 50.6112 23.2679C50.6616 23.3021 50.7119 23.3605 50.7643 23.3626C50.867 23.3686 50.9717 23.3485 51.0724 23.3263C51.1087 23.3182 51.1348 23.2699 51.1671 23.2397C51.1328 23.2135 51.1006 23.1773 51.0623 23.1652C51.018 23.1531 50.9677 23.1632 50.9194 23.1632ZM43.154 22.8792C43.1298 22.847 43.1076 22.8027 43.0915 22.8027C42.9244 22.8228 42.7572 22.851 42.5901 22.8752C42.6022 22.9215 42.6183 23.0061 42.6283 23.0061C42.7834 22.996 42.9405 22.9779 43.0935 22.9537C43.1157 22.9497 43.1318 22.9094 43.154 22.8792ZM38.935 24.2023C38.9128 24.1701 38.8967 24.1298 38.8685 24.1117C38.8484 24.0976 38.792 24.1016 38.7819 24.1157C38.6953 24.2466 38.6127 24.3816 38.5382 24.5205C38.5302 24.5366 38.5684 24.591 38.5966 24.6111C38.6127 24.6232 38.6671 24.6111 38.6792 24.591C38.7658 24.4661 38.8443 24.3373 38.9329 24.2023M54.4416 24.7702C54.4436 24.736 54.4476 24.7038 54.4496 24.6695C54.1173 24.6353 53.7871 24.6011 53.4548 24.5668C53.4508 24.597 53.4488 24.6272 53.4467 24.6575C53.779 24.6957 54.1113 24.732 54.4436 24.7702M39.7042 23.2055C39.8513 23.0826 39.9761 22.9759 40.101 22.8712C40.0667 22.8329 40.0325 22.7946 39.9983 22.7564C39.8835 22.8611 39.7647 22.9618 39.6599 23.0766C39.6438 23.0947 39.6922 23.1712 39.7063 23.2075M41.9799 23.1471C41.9759 23.1209 41.9698 23.0947 41.9658 23.0665C41.8953 23.0665 41.8107 23.0424 41.7564 23.0726C41.6355 23.137 41.4321 23.1229 41.4523 23.3444C41.5731 23.3142 41.6959 23.2921 41.8148 23.2538C41.8752 23.2337 41.9275 23.1833 41.9819 23.1471M40.6185 23.9909C40.5178 23.9526 40.4514 23.9103 40.4373 23.9244C40.3205 24.0271 40.2097 24.1399 40.105 24.2587C40.0949 24.2688 40.1513 24.3373 40.1775 24.3775C40.3104 24.2607 40.4453 24.1439 40.6205 23.9929M44.7952 21.4172C44.765 21.4373 44.7107 21.4736 44.6563 21.5098C44.6805 21.544 44.7006 21.6045 44.7308 21.6105C44.8798 21.6367 45.0329 21.6548 45.1839 21.6629C45.2161 21.6629 45.2524 21.6145 45.2866 21.5884C45.2564 21.5501 45.2302 21.4877 45.192 21.4776C45.0772 21.4474 44.9543 21.4393 44.7973 21.4172M43.5306 21.6206C43.7642 21.6206 43.9293 21.6266 44.0944 21.6165C44.1347 21.6145 44.171 21.5622 44.2092 21.532C44.179 21.4977 44.1508 21.4393 44.1206 21.4373C43.9696 21.4272 43.8165 21.4212 43.6675 21.4373C43.6292 21.4413 43.599 21.5259 43.5306 21.6226M58.282 29.2873C58.0987 29.3457 57.9819 29.392 57.994 29.5632C58.0081 29.7565 58.1632 29.8351 58.3082 29.8089C58.4068 29.7908 58.4814 29.6437 58.5679 29.5551C58.4733 29.4665 58.3766 29.3779 58.282 29.2893M60.3764 29.6619C60.3764 29.4947 60.2274 29.3558 60.026 29.394C59.9213 29.4142 59.7581 29.5531 59.7622 29.6337C59.7702 29.821 59.9615 29.8532 60.1206 29.8693C60.2676 29.8834 60.3724 29.833 60.3744 29.6619M47.2421 27.5191C47.2924 27.4708 47.4253 27.4043 47.4475 27.3117C47.4857 27.1506 47.2763 27.0016 47.0689 27.0036C46.9098 27.0036 46.8212 27.0801 46.8373 27.2392C46.8554 27.4346 47.0004 27.495 47.2441 27.5191M56.5038 29.6297C56.54 29.5914 56.6508 29.5249 56.677 29.4343C56.7172 29.2974 56.4856 29.0879 56.3124 29.094C56.1755 29.098 56.0607 29.1524 56.0527 29.3175C56.0466 29.4605 56.242 29.6216 56.5017 29.6276M49.9588 27.7809C49.7795 27.7568 49.6869 27.8736 49.6587 28.0367C49.6365 28.1656 49.8701 28.3287 50.0514 28.3166C50.2044 28.3045 50.3676 28.2784 50.3756 28.075C50.3817 27.9199 50.1883 27.7829 49.9588 27.7829M52.7963 29.0456C52.9856 29.0456 53.1285 28.9449 53.1326 28.81C53.1386 28.6308 52.9272 28.4677 52.6956 28.4596C52.5103 28.4515 52.3995 28.5422 52.3713 28.7133C52.3431 28.8805 52.5667 29.0476 52.7963 29.0476M39.2189 24.8105C39.3458 24.7038 39.4243 24.6353 39.5049 24.5668C39.4082 24.4903 39.3216 24.3816 39.2129 24.3433C39.088 24.301 38.9209 24.3493 38.937 24.5084C38.947 24.6031 39.094 24.6836 39.2169 24.8105M55.3196 25.0643C55.2894 25.0481 55.2592 25.0199 55.227 25.0179C54.4577 24.9837 53.6904 24.9374 52.9211 24.9273C52.6634 24.9233 52.4036 25.0099 52.1498 25.0703C52.0874 25.0844 52.037 25.1569 51.9484 25.2274C53.1004 24.8991 54.206 25.0038 55.3196 25.0663M54.51 29.4887C53.8112 29.3417 53.1104 29.2067 52.4156 29.0436C49.8983 28.4556 47.4173 27.7366 44.9866 26.8304C45.1376 26.7418 45.2564 26.629 45.1497 26.4357C45.0711 26.2947 44.8194 26.2464 44.6563 26.3229C44.4609 26.4155 44.5073 26.5525 44.608 26.7297C43.9937 26.5364 43.4178 26.3551 42.9002 26.192C42.9929 26.1115 43.1298 26.041 43.1882 25.9302C43.2647 25.7892 43.1298 25.6926 43.011 25.6805C42.8881 25.6684 42.717 25.6805 42.6485 25.759C42.5941 25.8215 42.6606 25.9926 42.6747 26.1175C41.6879 25.8154 40.6286 25.5717 39.6559 25.0602C39.7485 24.883 39.9419 24.7682 39.8935 24.5547C39.8694 24.5386 39.8432 24.5225 39.817 24.5064C39.7324 24.6293 39.6539 24.7561 39.5592 24.8709C39.521 24.9172 39.4364 24.9736 39.3901 24.9595C39.0135 24.8528 38.6429 24.73 38.2422 24.6051C38.2945 24.4984 38.3409 24.3916 38.4013 24.293C39.3337 22.7503 40.6407 21.7092 42.433 21.3547C43.599 21.1232 44.765 21.1473 45.9331 21.395C46.938 21.6085 47.9449 21.8159 48.9619 21.9428C49.854 22.0536 50.7623 22.114 51.6443 21.8159C51.7209 21.7897 51.7934 21.7575 51.8679 21.7293C51.9384 21.7011 52.0089 21.6709 52.1015 21.6347C52.1196 21.8159 52.0491 21.9106 51.9061 21.9569C51.8377 21.979 51.7591 21.973 51.6987 22.0052C51.6403 22.0354 51.6 22.0958 51.5497 22.1422C51.6202 22.1542 51.7027 22.1965 51.7611 22.1744C51.9565 22.0999 52.1418 22.0032 52.3834 21.8884C52.5526 22.0213 52.7781 22.1965 53.0057 22.3778C52.9634 22.4583 52.9171 22.5187 52.901 22.5852C52.8849 22.6436 52.901 22.7101 52.903 22.7725C52.9594 22.7423 53.0238 22.7201 53.0701 22.6799C53.1104 22.6456 53.1306 22.5892 53.1749 22.5187C53.4125 22.704 53.6401 22.8812 53.8676 23.0564C54.8806 23.8358 55.9077 24.6031 57.0737 25.1408C57.6939 25.4267 58.3605 25.612 59.005 25.8416C60.0582 26.2162 61.0953 26.6129 61.9391 27.3923C62.6299 28.0286 62.9279 28.802 62.8877 29.7626C62.505 29.8129 62.1345 29.8592 61.8163 29.9015C61.7498 29.7787 61.7176 29.6518 61.6371 29.5934C61.5746 29.5491 61.4236 29.5531 61.3591 29.5994C61.2866 29.6538 61.2705 29.7787 61.2101 29.9196C60.3442 29.9196 59.4158 29.9217 58.4874 29.9196C57.1623 29.9156 55.8533 29.7706 54.5523 29.5249C54.5322 29.5209 54.5161 29.4988 54.4959 29.4847C54.6651 29.4786 54.8705 29.537 54.9309 29.2994C54.9793 29.102 54.8705 28.9832 54.6853 28.9248C54.5221 28.8745 54.3812 28.8886 54.2946 29.0557C54.1939 29.251 54.3268 29.3477 54.4637 29.4403C54.4819 29.4524 54.4919 29.4746 54.506 29.4927" fill="white"/>
<path d="M32.4504 29.8698C32.11 30.5123 31.7959 31.1305 31.4596 31.7347C31.2944 32.0327 31.0467 32.1757 30.6722 32.1092C29.1155 31.8293 27.5547 31.5736 25.998 31.3017C24.832 31.0983 23.7022 30.764 22.6107 30.3109C21.5514 29.8719 20.609 29.2637 19.8739 28.3655C19.6927 28.144 19.5759 27.9164 19.6061 27.6184C19.6322 27.3566 19.7269 27.1834 19.9847 27.1673C20.4982 27.131 21.0178 27.0907 21.5273 27.137C23.7687 27.3465 25.8913 28.0896 28.0562 28.6394C29.4296 28.9878 30.791 29.3905 32.1564 29.7691C32.2409 29.7933 32.3215 29.8255 32.4504 29.8698Z" fill="white"/>
<path d="M15.9812 57.8699C16.5632 58.1297 17.0606 58.3512 17.558 58.5708C17.7191 58.6412 17.8802 58.7238 18.0514 58.7621C18.2891 58.8164 18.3374 58.9433 18.3132 59.1709C18.2427 59.7952 18.2045 60.4235 18.138 61.0478C18.13 61.1304 18.0635 61.231 17.993 61.2794C17.2237 61.8151 16.4484 62.3407 15.6751 62.8703C15.6368 62.8965 15.5945 62.9187 15.52 62.963C15.6731 61.2572 15.8241 59.5898 15.9812 57.8679" fill="white"/>
<path d="M29.3494 44.3087C28.6829 43.8092 28.0747 43.3541 27.4846 42.9131C27.6518 42.472 27.8028 42.0713 27.9579 41.6584C27.97 41.6645 28.0163 41.6746 28.0505 41.6987C28.5802 42.0673 29.1038 42.4438 29.6394 42.8043C29.7663 42.8889 29.7844 42.9836 29.7482 43.1024C29.6274 43.479 29.5005 43.8535 29.3494 44.3067" fill="white"/>
<path d="M29.4419 45.7306C29.2264 45.5473 29.0331 45.3822 28.8518 45.2271C29.0451 44.9089 29.2908 44.5666 29.4701 44.192C29.6473 43.8235 29.7601 43.4247 29.9111 43.0139C30.1407 43.165 30.3743 43.318 30.622 43.4811C30.3743 44.331 29.9856 45.1003 29.4439 45.7306" fill="white"/>
<path d="M30.2251 44.8053C30.4105 44.3618 30.5698 43.9809 30.7451 43.5576C31.2792 43.9507 31.8073 44.3397 32.3596 44.7468C32.1762 44.9524 32.021 45.1358 31.8537 45.3091C31.8194 45.3434 31.7368 45.3696 31.6944 45.3535C31.2067 45.1781 30.7229 44.9927 30.2251 44.8073" fill="white"/>
<path d="M14.9561 30.1436C17.1592 29.9865 19.3624 29.8274 21.4588 30.7599C19.31 30.3591 17.1149 30.4376 14.9561 30.1436Z" fill="white"/>
<path d="M26.8975 42.3775C26.4158 41.8232 25.9905 41.3314 25.5652 40.8416C25.7647 40.6159 25.9421 40.4184 26.1275 40.2087C26.4843 40.4909 26.831 40.763 27.1736 41.0412C27.2079 41.0694 27.2381 41.1399 27.226 41.1802C27.1273 41.5551 27.0224 41.928 26.8955 42.3755" fill="white"/>
<path d="M25.5868 39.7036C25.734 39.8387 25.8851 39.9797 26.0807 40.1611C25.4175 40.792 24.7726 41.4027 24.1578 41.9873C24.0852 41.695 24.0167 41.4289 23.9502 41.1589C24.4682 40.6993 25.0225 40.2055 25.5868 39.7036Z" fill="white"/>
<path d="M26.6063 44.2002C26.4875 44.0049 26.3687 43.8136 26.2458 43.6122C26.4633 43.2557 26.7352 42.8832 26.9265 42.4744C27.1138 42.0736 27.2206 41.6346 27.3696 41.1956C27.4844 41.2822 27.6253 41.3647 27.7341 41.4775C27.7885 41.5339 27.8187 41.6608 27.7965 41.7373C27.5267 42.6314 27.1098 43.4551 26.6063 44.2002Z" fill="white"/>
<path d="M21.1954 38.3141C21.1995 38.5801 21.3647 38.7635 21.5945 38.7575C21.8062 38.7514 22.0279 38.5055 22.0198 38.2858C22.0097 38.0561 21.8243 37.8706 21.6066 37.8747C21.3768 37.8767 21.1934 38.0742 21.1954 38.3141ZM21.5502 39.1384C21.2055 39.1646 20.8024 38.9167 20.7822 38.439C20.7661 38.0419 21.137 37.6146 21.651 37.6187C22.0843 37.6227 22.3987 37.917 22.3947 38.3302C22.3927 38.7756 22.0138 39.1384 21.5482 39.1384" fill="white"/>
<path d="M23.6426 41.7014C23.6446 41.4475 23.4834 41.2802 23.2294 41.2741C23.0319 41.2681 22.8203 41.4475 22.8122 41.6269C22.8041 41.8345 23.05 42.1005 23.2476 42.0965C23.4773 42.0925 23.6406 41.9292 23.6426 41.7034M22.4716 41.7055C22.4736 41.2903 22.79 40.9839 23.2133 40.9839C23.6386 40.9839 23.9973 41.3427 23.9913 41.7659C23.9853 42.1751 23.6628 42.4835 23.2455 42.4895C22.8384 42.4935 22.4171 42.0985 22.4716 41.7075" fill="white"/>
<path d="M26.1665 44.4127C26.1665 44.1386 25.9972 43.9874 25.6969 43.9895C25.451 43.9895 25.2837 44.1588 25.2878 44.3966C25.2938 44.6344 25.5034 44.8703 25.711 44.8723C25.967 44.8723 26.1665 44.6727 26.1665 44.4147M24.8967 44.4107C24.8988 43.9713 25.2676 43.6327 25.7352 43.6388C26.1746 43.6448 26.4548 43.9149 26.4528 44.3361C26.4507 44.7775 26.09 45.1101 25.6143 45.1081C25.191 45.1081 24.8947 44.8179 24.8967 44.4107Z" fill="white"/>
<path d="M28.9375 45.7674C28.9375 45.6102 28.7964 45.5739 28.6432 45.5699C28.4155 45.5639 28.2361 45.6949 28.2401 45.8561C28.2422 46.0012 28.4236 46.1363 28.607 46.1282C28.7743 46.1222 28.9436 45.9589 28.9395 45.7674M29.2721 45.9327C29.2721 46.4265 28.613 46.7591 28.1071 46.5233C27.708 46.3378 27.6355 45.9388 27.9418 45.6223C28.2039 45.3522 28.5949 45.2716 28.9335 45.4308C29.1411 45.5276 29.2862 45.6788 29.2741 45.9327" fill="white"/>
<path d="M22.4559 38.7413C22.4801 38.4994 22.5022 38.2999 22.5224 38.1004C22.9436 38.0298 23.3971 37.9512 23.8527 37.8807C24.0824 37.8444 24.1953 37.9512 24.3304 38.3442C23.7015 38.4773 23.0787 38.6083 22.4539 38.7393" fill="white"/>
<path d="M42.7983 10.7926C42.766 10.8269 42.6491 10.8975 42.627 10.9902C42.5927 11.1272 42.8305 11.3006 43.0281 11.2764C43.1208 11.2643 43.2578 11.1736 43.2719 11.099C43.3022 10.9398 43.0926 10.7926 42.7983 10.7926ZM43.536 11.0567C43.54 11.3449 43.3304 11.5787 43.0462 11.5666C42.6733 11.5505 42.2077 11.2965 42.2259 10.97C42.246 10.6153 42.4415 10.4419 42.7197 10.4198C43.0986 10.3875 43.5319 10.7443 43.536 11.0547" fill="white"/>
<path d="M32.4451 44.8286C32.6144 44.9536 32.7817 45.0765 32.9711 45.2176C32.7655 45.5441 32.568 45.8566 32.4007 46.1226C32.1064 45.9856 31.8464 45.8626 31.5945 45.7437C31.8626 45.4555 32.1508 45.1451 32.4451 44.8286Z" fill="white"/>
<path d="M24.252 38.4282C24.3306 38.4544 24.4354 38.4585 24.4838 38.5129C24.8083 38.8696 25.1227 39.2385 25.4573 39.6235C25.3344 39.7545 25.1933 39.9016 25.0058 40.0971C24.7257 39.5529 24.4596 39.0389 24.1956 38.525C24.2137 38.4927 24.2318 38.4605 24.252 38.4282Z" fill="white"/>
<path d="M43.1906 16.7175C43.1946 16.9816 43.3518 17.1831 43.503 17.1489C43.5917 17.1287 43.7287 16.9534 43.7186 16.9413C43.6159 16.8042 43.4949 16.6792 43.3619 16.5724C43.3478 16.5623 43.2248 16.6873 43.1906 16.7175ZM42.9023 16.6692C42.9729 16.5462 43.0172 16.3507 43.118 16.3184C43.2611 16.2701 43.4707 16.2943 43.6058 16.3709C43.9605 16.5704 44.0351 17.1892 43.767 17.4391C43.6259 17.5721 43.4788 17.5802 43.3357 17.4613C43.0979 17.2658 42.9225 17.032 42.9023 16.6692Z" fill="white"/>
<path d="M31.6034 46.5208C31.7868 46.5066 31.9481 46.4623 31.9803 46.2567C32.0025 46.1096 31.8251 45.9806 31.6256 45.9806C31.4281 45.9806 31.2144 46.1217 31.2346 46.2567C31.2668 46.4623 31.4301 46.5066 31.6034 46.5208ZM31.4583 45.9141C31.9057 45.9141 32.1476 46.0592 32.2423 46.3011C32.3189 46.4966 32.2423 46.6215 32.0912 46.7022C31.7505 46.8815 31.3938 46.8856 31.0693 46.678C30.9564 46.6054 30.8335 46.4341 30.8456 46.3212C30.8576 46.2043 31.0088 46.0753 31.1297 46.0007C31.2386 45.9342 31.3877 45.9322 31.4603 45.9161" fill="white"/>
<path d="M42.5563 13.4087C42.5664 13.6567 42.7781 13.8443 42.9495 13.7979C43.0281 13.7777 43.131 13.6648 43.139 13.5841C43.1592 13.3986 42.9616 13.2252 42.774 13.2615C42.6813 13.2797 42.6027 13.3744 42.5543 13.4087M42.9575 14.0479C42.5502 14.0479 42.2094 13.7313 42.2296 13.3442C42.2437 13.0538 42.3647 12.9893 42.7035 12.9711C42.9838 12.955 43.3931 13.3845 43.383 13.6567C43.3749 13.8987 43.2136 14.0479 42.9596 14.0499" fill="white"/>
<path d="M44.456 14.5452C44.0791 14.3416 43.7385 14.1562 43.4241 13.9849C43.4422 13.7833 43.4604 13.5918 43.4825 13.3459C43.7869 13.5213 44.0932 13.6926 44.3895 13.8801C44.4339 13.9083 44.45 14.003 44.454 14.0695C44.4641 14.2207 44.456 14.3739 44.456 14.5452Z" fill="white"/>
<path d="M45.121 17.0419C44.748 17.1023 44.3971 17.1588 44.0402 17.2173C44.0221 17.0237 44.0039 16.814 43.9797 16.572C44.1491 16.5438 44.3548 16.5115 44.5605 16.4773C44.7419 16.447 44.867 16.4994 44.9335 16.6849C44.9759 16.8039 45.0505 16.9108 45.121 17.0419Z" fill="white"/>
<path d="M44.6272 12.2615C44.2422 11.9631 43.8996 11.6971 43.5549 11.431C43.5912 11.3141 43.6315 11.1872 43.694 10.9856C44.0205 11.2597 44.343 11.4935 44.6151 11.7757C44.6937 11.8563 44.6272 12.076 44.6272 12.2594" fill="white"/>
<path d="M32.8111 45.6748C32.8897 45.5438 32.9643 45.4248 33.0571 45.2695C33.3455 45.5982 33.8556 45.6829 33.9383 46.2213C33.5491 46.0338 33.1922 45.8603 32.8091 45.6748" fill="white"/>
<path d="M44.7748 10.6066C44.4038 10.3042 44.063 10.036 43.7363 9.75167C43.6658 9.69117 43.6456 9.5722 43.6274 9.46533C44.1134 9.61253 44.432 9.95936 44.7506 10.3022C44.799 10.3546 44.7667 10.4816 44.7748 10.6066Z" fill="white"/>
<path d="M42.8586 9.14719C42.8263 9.18752 42.7215 9.26011 42.7013 9.35287C42.6711 9.48797 42.9171 9.64727 43.1429 9.6271C43.2276 9.61904 43.3546 9.53233 43.3748 9.45974C43.4051 9.33875 43.1147 9.14719 42.8586 9.14921M43.1691 9.84891C42.9695 9.72591 42.7719 9.6271 42.6065 9.48797C42.5461 9.43756 42.5239 9.26818 42.5622 9.19155C42.6065 9.10485 42.7295 9.02822 42.8304 9.01007C43.0723 8.96773 43.2841 9.07662 43.4192 9.26616C43.4897 9.36497 43.516 9.53636 43.4857 9.65533C43.4676 9.72994 43.3083 9.76825 43.1671 9.84891" fill="white"/>
<path d="M29.2247 57.0187C29.1158 56.8977 29.0291 56.8029 28.9424 56.7082C29.017 56.6598 29.1218 56.5529 29.1581 56.5731C29.2711 56.6336 29.3598 56.7445 29.4566 56.8352C29.3961 56.8836 29.3336 56.932 29.2227 57.0207" fill="white"/>
<path d="M44.6184 26.486C44.8699 26.329 44.9403 26.3451 45.0812 26.5886C44.8961 26.7797 44.7512 26.7495 44.6184 26.486Z" fill="white"/>
<path d="M31.8098 56.8971C31.667 57.036 31.5382 57.1104 31.4034 56.9595C31.3752 56.9273 31.3933 56.8025 31.4315 56.7683C31.6046 56.6215 31.6931 56.7683 31.8098 56.8971Z" fill="white"/>
<path d="M43.1111 25.9482C43.0467 25.9764 42.9743 26.0408 42.92 26.0247C42.8435 26.0046 42.7811 25.9281 42.7107 25.8738C42.759 25.8315 42.8133 25.749 42.8556 25.7531C42.9461 25.7651 43.0286 25.8235 43.1151 25.8637C43.1151 25.8919 43.1131 25.9181 43.1111 25.9462" fill="white"/>
<path d="M18.5469 55.5115C18.6152 55.425 18.6836 55.3386 18.7519 55.2542C18.8062 55.3125 18.8585 55.3708 18.9128 55.4291C18.8283 55.4954 18.7439 55.5617 18.6595 55.6261C18.6213 55.5879 18.5851 55.5497 18.5469 55.5115Z" fill="white"/>
<path d="M37.0221 23.8401C37.1065 23.8642 37.191 23.8863 37.2734 23.9105C37.2774 23.9346 37.2835 23.9587 37.2875 23.9828C37.2111 24.017 37.1367 24.0693 37.0583 24.0753C37.0302 24.0753 36.998 23.9587 36.9658 23.8944C36.9839 23.8763 37.002 23.8582 37.0221 23.8401Z" fill="white"/>
<path d="M21.0142 35.5617C21.2782 35.5617 21.4556 35.4005 21.4596 35.1606C21.4636 34.9449 21.2641 34.7635 21.0323 34.7696C20.8328 34.7756 20.6332 34.9812 20.6312 35.1808C20.6292 35.3823 20.8086 35.5617 21.0142 35.5617ZM20.9396 35.985C20.5163 35.985 20.2422 35.727 20.2422 35.3319C20.2422 34.8905 20.6211 34.5297 21.0847 34.5317C21.5059 34.5317 21.7942 34.8079 21.7942 35.209C21.7942 35.6645 21.4394 35.987 20.9396 35.985Z" fill="white"/>
<path d="M20.6458 32.2888C20.6498 32.4944 20.8514 32.6879 21.059 32.6859C21.2202 32.6839 21.4097 32.5025 21.4097 32.3513C21.4097 32.1518 21.188 31.9502 20.9703 31.9542C20.7607 31.9563 20.6417 32.0812 20.6458 32.2908M21.6959 32.3533C21.6959 32.7222 21.3331 33.0709 20.9562 33.0648C20.5974 33.0588 20.289 32.7544 20.291 32.4077C20.291 32.0288 20.6317 31.7104 21.0328 31.7144C21.4197 31.7164 21.6959 31.9825 21.6959 32.3533Z" fill="white"/>
<path d="M20.5566 55.6125C20.6712 55.5823 20.7677 55.5562 20.8662 55.53C20.8662 55.6145 20.9064 55.7371 20.8662 55.7773C20.7496 55.8939 20.6531 55.8175 20.5586 55.6125" fill="white"/>
<path d="M26.5399 56.6824C26.4431 56.5736 26.3766 56.501 26.3101 56.4284C26.3806 56.3759 26.4613 56.2711 26.5198 56.2832C26.6166 56.3034 26.6992 56.3961 26.788 56.4606C26.7194 56.5231 26.6488 56.5857 26.5399 56.6824Z" fill="white"/>
<path d="M40.1251 55.6325C40.0406 55.4896 39.9359 55.383 39.9581 55.3407C39.9983 55.2603 40.107 55.1939 40.1995 55.1697C40.2438 55.1576 40.3746 55.2904 40.3665 55.3065C40.3183 55.4031 40.2398 55.4856 40.1251 55.6325Z" fill="white"/>
<path d="M36.635 56.3757C36.7155 56.6191 36.5464 56.6534 36.4016 56.6855C36.3633 56.6936 36.2607 56.6071 36.2627 56.5729C36.2849 56.3435 36.4559 56.3596 36.635 56.3757Z" fill="white"/>
<path d="M14.1628 55.9326C14.2674 55.824 14.3337 55.6632 14.5086 55.7738C14.5448 55.7959 14.5589 55.9426 14.5267 55.9728C14.4202 56.0733 14.2935 56.0914 14.1649 55.9346" fill="white"/>
<path d="M16.9339 55.9294C16.8432 55.7943 16.7444 55.7076 16.7605 55.6632C16.7908 55.5785 16.8896 55.52 16.9581 55.4495C17.0166 55.514 17.1215 55.5765 17.1215 55.641C17.1215 55.7156 17.0307 55.7902 16.9339 55.9294Z" fill="white"/>
<path d="M38.6409 55.8782C38.7214 55.9487 38.7696 55.9909 38.8179 56.0312C38.7314 56.1076 38.6489 56.1901 38.5523 56.2485C38.5362 56.2585 38.4517 56.1539 38.3994 56.1036C38.4739 56.0332 38.5483 55.9648 38.6429 55.8762" fill="white"/>
<path d="M34.16 56.9509C34.0917 56.8564 34.0032 56.762 34.0153 56.7479C34.0736 56.6755 34.152 56.6152 34.2364 56.573C34.2545 56.5629 34.359 56.6634 34.353 56.6755C34.3088 56.762 34.2445 56.8363 34.162 56.9529" fill="white"/>
<path d="M11.6091 56.4235C11.5387 56.329 11.4523 56.2466 11.4664 56.2245C11.5126 56.1481 11.587 56.0697 11.6674 56.0395C11.7016 56.0274 11.78 56.136 11.8383 56.1903C11.7719 56.2586 11.7056 56.325 11.6091 56.4235Z" fill="white"/>
<path d="M45.3105 53.3208C45.3045 53.4012 45.3266 53.5058 45.2844 53.556C45.2342 53.6163 45.1276 53.6284 45.0452 53.6626C45.0251 53.6344 45.005 53.6063 44.9849 53.5781C45.0633 53.4816 45.1417 53.3831 45.2181 53.2866C45.2482 53.2967 45.2784 53.3087 45.3085 53.3188" fill="white"/>
<path d="M43.1101 54.4038L43.3011 54.1907C43.3453 54.2349 43.3895 54.2811 43.4338 54.3254C43.3594 54.3877 43.287 54.448 43.2126 54.5103C43.1785 54.4741 43.1443 54.44 43.1101 54.4038Z" fill="white"/>
<path d="M23.9622 56.2952C23.8415 56.3797 23.7811 56.4582 23.7308 56.4521C23.6644 56.4421 23.6061 56.3676 23.5437 56.3213C23.592 56.273 23.6383 56.1885 23.6926 56.1845C23.757 56.1785 23.8294 56.2368 23.9642 56.2972" fill="white"/>
<path d="M8.86816 56.3334C8.96868 56.2892 9.06317 56.247 9.15766 56.2068C9.1657 56.2772 9.2039 56.3696 9.17374 56.4118C9.08529 56.5385 8.97874 56.5264 8.86816 56.3334Z" fill="white"/>
<path d="M43.7009 8.13867C43.7251 8.11044 43.8098 8.05398 43.8219 7.98341C43.844 7.84024 43.5617 7.61037 43.3924 7.6386C43.3198 7.6507 43.2189 7.73337 43.2048 7.7979C43.1746 7.9572 43.4206 8.13867 43.7009 8.13666M43.711 8.32419C43.4851 8.32419 43.1443 8.09431 43.0657 7.88662C43.0012 7.71119 43.1161 7.51963 43.3016 7.49745C43.6021 7.46115 43.9791 7.75353 44.0154 8.05197C44.0376 8.22336 43.9247 8.32419 43.7089 8.3262" fill="white"/>
<path d="M22.2362 20.9272C22.1477 20.8226 22.0934 20.7602 22.0391 20.6978C22.1236 20.6314 22.202 20.5429 22.2986 20.5087C22.3369 20.4966 22.4173 20.6113 22.4777 20.6677C22.4093 20.7401 22.3409 20.8145 22.2383 20.9272" fill="white"/>
<path d="M27.2928 21.4986C27.2 21.3957 27.1436 21.3332 27.0891 21.2727C27.1778 21.2122 27.2625 21.1195 27.3593 21.0993C27.4158 21.0892 27.4964 21.1961 27.565 21.2505C27.4863 21.3211 27.4097 21.3937 27.2928 21.4986Z" fill="white"/>
<path d="M32.2773 22.6134C32.1585 22.6355 32.0418 22.6657 31.9231 22.6717C31.899 22.6717 31.8346 22.5611 31.8487 22.5248C31.8748 22.4604 31.9533 22.3639 31.9976 22.3699C32.1002 22.384 32.1927 22.4524 32.2893 22.4987C32.2853 22.5369 32.2813 22.5751 32.2773 22.6134Z" fill="white"/>
<path d="M30.1483 22.1019C29.9954 22.2166 29.8485 22.2609 29.7217 22.114C29.6956 22.0838 29.7579 21.9168 29.8163 21.8866C29.9954 21.7981 30.0839 21.9208 30.1483 22.0999" fill="white"/>
<path d="M24.959 20.8453C24.8705 20.8916 24.784 20.9661 24.6914 20.9741C24.6391 20.9781 24.5747 20.8795 24.5164 20.8252C24.5888 20.7669 24.6532 20.6723 24.7337 20.6582C24.8001 20.6461 24.8826 20.7266 24.959 20.7669C24.959 20.793 24.959 20.8192 24.959 20.8453Z" fill="white"/>
<path d="M34.5766 23.4473C34.4801 23.4171 34.3816 23.391 34.2891 23.3488C34.2811 23.3447 34.3132 23.2442 34.3293 23.1899C34.4258 23.2322 34.5243 23.2724 34.6208 23.3146C34.6068 23.3588 34.5927 23.403 34.5786 23.4473" fill="white"/>
<path d="M52.815 29.0322C52.6698 28.9031 52.571 28.8144 52.4702 28.7277C52.5368 28.6733 52.6194 28.5603 52.6678 28.5724C52.7868 28.6067 52.8896 28.6975 52.9985 28.766C52.9501 28.8366 52.8997 28.9072 52.815 29.0322Z" fill="white"/>
<path d="M54.8441 29.2949C54.6127 29.4136 54.4658 29.3915 54.4075 29.2165C54.3893 29.1601 54.4336 29.0474 54.4839 29.0152C54.6067 28.9348 54.7696 29.0635 54.8441 29.2949Z" fill="white"/>
<path d="M50.2719 28.1093C50.0763 28.2262 49.8464 28.2182 49.802 28.0871C49.7839 28.0347 49.8323 27.9097 49.8726 27.8976C50.0541 27.8471 50.2093 27.8875 50.2698 28.1093" fill="white"/>
<path d="M56.5898 29.4504C56.4108 29.5993 56.286 29.4947 56.1773 29.37C56.1633 29.3519 56.2055 29.2412 56.2397 29.2291C56.4329 29.1708 56.5234 29.2875 56.5878 29.4504" fill="white"/>
<path d="M47.1536 27.4528C47.0671 27.3603 47.0007 27.2898 46.9363 27.2194C46.9866 27.1812 47.055 27.1027 47.0832 27.1148C47.1818 27.159 47.2683 27.2335 47.3588 27.2979C47.3045 27.3401 47.2482 27.3824 47.1536 27.4548" fill="white"/>
<path d="M59.8347 29.7244C59.9233 29.4206 60.0701 29.481 60.1969 29.5474C60.2351 29.5675 60.2351 29.6641 60.2532 29.7244H59.8347Z" fill="white"/>
<path d="M58.5132 29.5877C58.3965 29.6561 58.3241 29.7265 58.2939 29.7104C58.2174 29.6742 58.1611 29.5997 58.0967 29.5394C58.151 29.5052 58.2094 29.4388 58.2597 29.4428C58.3281 29.4509 58.3905 29.5132 58.5132 29.5877Z" fill="white"/>
</svg>
