<svg width="62" height="61" viewBox="0 0 62 61" fill="none" xmlns="http://www.w3.org/2000/svg">
<path d="M37.9269 38.7184C37.7937 38.6227 37.7073 38.5532 37.6115 38.5044C37.5984 38.4987 37.482 38.6377 37.4952 38.6583C37.5533 38.7484 37.636 38.8292 37.7223 38.893C37.7355 38.9024 37.8256 38.8066 37.9269 38.7184ZM41.6103 50.0783C41.4883 50.0783 41.4245 50.0745 41.3606 50.0783C41.1898 50.0877 41.019 50.0971 40.8481 50.114C40.7974 50.1196 40.7486 50.144 40.6998 50.1609C40.7411 50.2041 40.7824 50.2867 40.8218 50.2848C41.0434 50.2773 41.2649 50.2529 41.4845 50.2228C41.5165 50.2191 41.5427 50.1571 41.6103 50.0783ZM43.7167 46.0852C43.6773 45.935 43.651 45.8035 43.6078 45.6796C43.5966 45.6459 43.5327 45.629 43.4933 45.6045C43.4783 45.6477 43.4426 45.6984 43.4539 45.7341C43.5158 45.9481 43.5459 46.1546 43.4332 46.363C43.4163 46.393 43.4501 46.4512 43.4614 46.4963C43.5083 46.4738 43.5815 46.4644 43.5984 46.4287C43.651 46.3179 43.681 46.1959 43.7167 46.0852ZM40.9739 52.2297C40.9739 52.196 40.9739 52.1622 40.9758 52.1284C40.8969 52.0627 40.8218 51.9519 40.7355 51.9406C40.5834 51.92 40.4764 52.0476 40.4839 52.1866C40.4877 52.2692 40.6153 52.4194 40.6679 52.4118C40.7768 52.3968 40.8725 52.2936 40.972 52.2279M44.3212 43.7497C44.3025 43.7234 44.2874 43.6765 44.2611 43.6709C44.2255 43.6634 44.1692 43.6746 44.1485 43.7009C44.0978 43.7647 44.064 43.8417 44.0227 43.913C43.7768 44.3336 43.529 44.7522 43.2887 45.1765C43.2605 45.2253 43.2718 45.2948 43.2661 45.3567C43.3262 45.3323 43.3938 45.3154 43.4445 45.2779C43.4839 45.2497 43.5046 45.1934 43.5309 45.1484C43.7693 44.7335 44.0077 44.3186 44.2461 43.9018C44.2724 43.8567 44.2931 43.8079 44.3231 43.7497M37.4445 35.6076C37.4614 35.1833 37.2135 35.0444 36.9207 35.0144C36.6804 34.99 36.4945 35.1833 36.4908 35.4255C36.4851 35.7766 36.6992 36.045 36.992 36.0525C37.2473 36.0601 37.4426 35.8686 37.4445 35.6076ZM44.4752 43.3724C44.3325 42.9687 44.1898 42.5895 43.8012 42.3999C43.6322 42.3173 43.5384 42.2028 43.452 42.0451C43.2023 41.5851 42.9414 41.1308 42.6767 40.6802C42.6447 40.6258 42.5603 40.5995 42.5002 40.5601C42.5096 40.6333 42.4964 40.7159 42.5302 40.776C42.7874 41.2491 43.0446 41.7222 43.3206 42.1821C43.4069 42.3267 43.5571 42.4337 43.681 42.552C43.7881 42.6533 43.9251 42.7322 44.004 42.8505C44.111 43.0082 44.1729 43.1978 44.2611 43.3686C44.2837 43.4137 44.3325 43.4437 44.3682 43.4813C44.4038 43.4418 44.4395 43.4043 44.4714 43.3686M39.5978 40.3423C39.6147 40.7347 39.6654 41.0764 39.9695 41.3242C40.2305 41.5363 40.7242 41.4988 40.8688 41.2322C41.0452 40.9055 41.1485 40.5582 41.0584 40.1771C40.9852 39.873 40.7186 39.6026 40.4614 39.5782C39.9658 39.5332 39.5884 39.8824 39.5978 40.3404M45.457 39.9011C45.457 39.8242 45.4495 39.7716 45.457 39.7228C45.5359 39.2478 45.4514 39.0995 45.0459 38.863C44.8431 38.7447 44.661 38.5851 44.4958 38.418C44.3175 38.2359 44.1673 38.0275 44.0096 37.8248C43.8312 37.5976 43.7862 37.592 43.621 37.8417C43.3844 38.1984 43.1798 38.5795 42.9245 38.923C42.5903 39.3717 42.7424 39.888 43.0202 40.1996C43.6754 40.9356 44.3287 41.6734 44.9858 42.4074C45.0158 42.4412 45.0816 42.4431 45.1304 42.4618C45.1285 42.4093 45.1454 42.3398 45.1191 42.3042C45.014 42.1671 44.8844 42.0488 44.7831 41.9099C44.7399 41.8498 44.7023 41.7409 44.7267 41.679C44.9145 41.1834 45.1172 40.6934 45.3219 40.2034C45.3425 40.1527 45.4026 40.0889 45.4533 40.0832C45.6541 40.0588 45.8569 40.057 46.0597 40.0363C46.1197 40.0307 46.1761 39.9912 46.2361 39.9668C46.1761 39.9293 46.116 39.8598 46.054 39.8598C45.8625 39.8598 45.6692 39.8842 45.4608 39.9011M33.7667 36.9387C33.7911 36.5745 33.6747 36.3698 33.3424 36.1464C33.1791 36.0356 33.059 35.9174 32.9688 35.7259C32.8374 35.4462 32.5859 35.2641 32.263 35.2397C31.8537 35.2077 31.4332 35.5137 31.2454 35.9568C31.1084 36.2778 31.2079 36.5275 31.5327 36.8692C32.3925 37.776 33.2824 38.6602 34.0821 39.6195C35.3212 41.1045 36.5471 42.6008 37.9119 43.9731C38.0922 44.1533 38.2536 44.3542 38.4113 44.557C38.539 44.7203 38.4507 44.8836 38.34 45C38.2217 45.1258 38.0959 45.032 37.9833 44.9475C37.8331 44.8367 37.6866 44.709 37.5177 44.6358C37.3262 44.5532 37.1047 44.5495 36.9545 44.7241C36.8043 44.8987 36.8625 45.0958 36.992 45.261C37.191 45.5144 37.3994 45.7604 37.6059 46.0082C37.9119 46.3743 38.3118 46.4475 38.7492 46.3367C39.3275 46.1903 39.7893 46.3086 40.1497 46.8173C40.3431 47.0914 40.5872 47.3355 40.8368 47.5608C41.0809 47.7823 41.3625 47.7466 41.5653 47.6265C41.783 47.4988 41.8919 47.1515 41.7868 46.8849C41.6967 46.6577 41.5915 46.4268 41.4414 46.2353C40.8218 45.4506 40.1817 44.6809 39.5527 43.9037C38.768 42.9331 38.0058 41.9418 37.1948 40.9938C36.0759 39.6852 35.0696 38.2828 33.8456 37.0644C33.7968 37.0156 33.7724 36.9443 33.7686 36.9387M58.1142 58.6991C58.2212 58.3931 58.3282 58.1528 58.3901 57.9013C58.5948 57.0846 58.7769 56.2623 58.9796 55.4457C59.2913 54.1822 59.6179 52.9244 59.9258 51.659C59.9821 51.43 60.0197 51.1784 59.9878 50.9494C59.892 50.266 59.4189 49.8943 58.8125 49.6765C57.5735 49.2316 56.3363 48.7773 55.086 48.3661C53.1767 47.7391 51.2881 47.0539 49.4333 46.2766C48.6917 45.965 47.9389 45.6815 47.1823 45.4074C46.8406 45.2835 46.7411 45.3361 46.5684 45.6365C46.2361 46.2184 45.9132 46.8042 45.5922 47.3918C45.5528 47.465 45.5378 47.5664 45.5471 47.6509C45.5847 48.0451 45.7743 48.338 46.161 48.4619C46.3957 48.537 46.6398 48.5914 46.8838 48.6252C47.8826 48.7604 48.8757 48.92 49.8331 49.2541C50.4358 49.4644 50.8845 49.8417 51.1417 50.4218C51.3163 50.8198 51.4402 51.2404 51.6054 51.644C51.7462 51.9913 51.8701 52.3555 52.0766 52.6615C52.3582 53.0764 52.6811 53.4744 53.0378 53.8255C54.4646 55.2335 55.9083 56.6228 57.3501 58.0158C57.5754 58.2335 57.8194 58.4344 58.1142 58.6954M26.4319 34.0644C28.6303 33.8992 29.8036 32.6245 30.333 30.5913C30.6034 30.9198 30.838 31.2071 31.0746 31.4924C31.9569 32.5513 32.8412 33.6063 33.7217 34.6652C34.5402 35.6489 35.3568 36.6345 36.1735 37.6201C36.3894 37.8792 36.442 37.883 36.7198 37.6239C36.748 37.6464 36.7799 37.6671 36.8024 37.6952C37.0371 37.9956 37.3093 38.2228 37.6866 38.341C37.9626 38.4274 38.0978 38.6715 38.0753 38.9831C38.0508 39.3191 38.2893 39.52 38.507 39.7078C38.631 39.8148 38.7661 39.7115 38.8468 39.5895C39.0421 39.2947 39.2204 38.9906 39.4213 38.7015C39.5696 38.4875 39.7423 38.2885 39.9282 38.0482C40.0615 38.1984 40.1854 38.326 40.2924 38.465C40.4238 38.6395 40.5346 38.8273 40.6623 39.0038C40.8049 39.199 40.9664 39.3642 41.2086 39.4524C41.4751 39.5482 41.6873 39.7265 41.8225 39.9894C41.8694 40.0814 41.9389 40.1658 42.0158 40.2372C42.0628 40.2804 42.1435 40.2879 42.228 40.2804C41.9952 39.9368 41.8563 39.5125 41.4451 39.3548C41.0096 39.1877 40.7824 38.8367 40.5402 38.4837C40.4257 38.3185 40.2962 38.1589 40.1535 38.0163C39.9676 37.8285 39.8193 37.8417 39.671 38.0538C39.3744 38.4781 39.0871 38.908 38.7962 39.3342C38.7473 39.4055 38.691 39.4731 38.6234 39.5613C38.4226 39.3473 38.2405 39.1765 38.2611 38.8554C38.2836 38.4875 38.034 38.2509 37.7129 38.1364C37.4351 38.0369 37.2211 37.8886 37.0314 37.6633C36.7573 37.3385 36.7423 37.3536 36.4175 37.607C34.7955 35.6508 33.1735 33.6965 31.5514 31.7403C31.5608 31.7271 31.5702 31.7121 31.5796 31.699C31.8312 31.7891 32.0884 31.866 32.3324 31.973C34.4351 32.8892 36.6334 33.5275 38.8037 34.2522C39.6616 34.5375 40.5046 34.8623 41.2236 35.4424C41.6741 35.8066 42.029 36.2328 42.2261 36.781C42.258 36.873 42.3012 36.9612 42.35 37.0776C42.412 36.995 42.4626 36.933 42.5077 36.8673C42.7874 36.4543 43.1629 36.3679 43.6473 36.4374C44.5334 36.5632 45.1041 37.0964 45.5772 37.7891C45.8325 38.1627 46.0747 38.5438 46.3375 38.9118C46.8237 39.5914 46.8275 40.2973 46.467 41.02C46.2756 41.403 46.0578 41.7747 45.8494 42.1502C45.763 42.3079 45.6692 42.4618 45.5828 42.612C45.7443 42.6815 45.9095 42.7228 46.039 42.8129C46.2568 42.965 46.3281 43.2034 46.3525 43.4625C46.3675 43.6352 46.4088 43.8023 46.606 43.8774C48.1567 44.4781 49.698 45.1052 51.2562 45.6796C53.6367 46.5582 56.0284 47.4012 58.4145 48.2629C58.9383 48.4525 59.4696 48.6252 59.9784 48.8524C60.352 49.0195 60.7162 49.2335 61.041 49.4832C61.3639 49.7329 61.4502 50.129 61.5197 50.5232C61.6267 51.1371 61.4746 51.7266 61.3545 52.3105C61.0748 53.6659 60.7537 55.012 60.4552 56.3637C60.245 57.3174 60.0572 58.2767 59.8376 59.2285C59.7437 59.6397 59.6048 60.0546 59.2049 60.2799C58.7656 60.5258 58.3244 60.5633 57.8588 60.2855C57.0234 59.7861 56.3063 59.1422 55.5948 58.4926C54.3857 57.3906 53.1767 56.2886 51.9752 55.1791C51.32 54.5746 50.6761 53.955 50.2743 53.1421C50.1035 52.8005 49.9852 52.4325 49.8463 52.0739C49.6567 51.5839 49.4821 51.0846 49.2756 50.6002C49.0897 50.1647 48.7893 49.9112 48.2674 49.8755C47.3006 49.808 46.3375 49.6709 45.3725 49.562C45.2993 49.5545 45.228 49.5301 45.1942 49.5207C45.1285 49.0946 45.0816 48.6872 44.9989 48.2873C44.9539 48.0714 44.8638 47.8593 44.768 47.6584C44.708 47.5326 44.7192 47.4406 44.7793 47.3261C45.2393 46.4681 45.6954 45.6064 46.1516 44.7447C46.1798 44.6922 46.2192 44.6415 46.2305 44.5833C46.2418 44.5307 46.2211 44.4706 46.2136 44.4124C46.1592 44.4406 46.0822 44.4556 46.0578 44.5007C45.8794 44.8217 45.7123 45.1502 45.5396 45.475C45.2524 46.0176 44.9633 46.562 44.6742 47.1046C44.646 47.1571 44.6122 47.2059 44.5803 47.2566C44.4301 47.1177 44.4113 46.8643 44.1241 46.8436C44.1579 46.9149 44.1861 46.9919 44.2274 47.0576C44.6272 47.694 44.9332 48.3624 44.952 49.1302C44.9614 49.4888 44.8581 49.8117 44.6291 50.0933C44.5859 50.1459 44.5296 50.2397 44.5503 50.2848C44.6498 50.5138 44.5259 50.6715 44.3851 50.8067C43.7167 51.4488 42.9263 51.813 41.9877 51.7923C41.8056 51.7886 41.7155 51.8355 41.6479 51.9988C41.5784 52.164 41.4751 52.3161 41.3907 52.4757C41.2424 52.7554 40.9927 52.8549 40.6979 52.8624C40.3638 52.8737 40.1403 52.6728 40.1704 52.303C40.2061 51.8806 40.3056 51.46 40.4182 51.0489C40.4726 50.8536 40.482 50.7204 40.3318 50.5645C40.1141 50.3355 39.9207 50.0839 39.7273 49.8324C39.6428 49.7235 39.5865 49.5958 39.534 49.4588C39.9714 49.7178 40.4332 49.8455 40.927 49.8586C41.1053 49.8643 41.293 49.8699 41.4639 49.8249C42.5772 49.5188 43.345 48.8486 43.6097 47.694C43.6717 47.4256 43.6397 47.1346 43.6397 46.8549C43.6397 46.8136 43.5759 46.7741 43.5421 46.7328C43.5158 46.7873 43.4633 46.8455 43.467 46.898C43.5609 47.9381 43.1291 48.7116 42.2711 49.2654C41.492 49.7685 40.6754 49.8117 39.8625 49.3762C39.5978 49.2354 39.3594 49.0157 39.1604 48.7867C37.0652 46.3743 34.9795 43.9525 32.89 41.5326C30.915 39.2441 28.94 36.9556 26.9651 34.6671C26.8036 34.4793 26.6403 34.2935 26.4338 34.055" fill="white"/>
<path d="M16.0105 22.1831C16.05 22.1287 16.0875 22.093 16.0819 22.0855C15.9599 21.9165 15.8341 21.7495 15.7045 21.5861C15.6989 21.5805 15.6426 21.5974 15.6332 21.6143C15.6182 21.6425 15.6107 21.6913 15.6257 21.71C15.7458 21.8659 15.8735 22.016 16.0105 22.1813M13.7389 19.3371C13.7314 19.2807 13.7333 19.262 13.7258 19.2526C13.5812 19.0817 13.4367 18.9109 13.2865 18.7438C13.2696 18.725 13.1983 18.7213 13.187 18.7363C13.1663 18.7663 13.1494 18.8283 13.1663 18.8508C13.2996 19.0217 13.4348 19.1887 13.5812 19.3464C13.6038 19.3708 13.6826 19.3408 13.7371 19.3352M11.12 16.5079C11.1426 16.506 11.167 16.5041 11.1895 16.5004C11.1951 16.4516 11.2252 16.384 11.2045 16.3558C11.0768 16.1831 10.9398 16.016 10.7971 15.8546C10.7783 15.8339 10.7183 15.8508 10.6788 15.8489C10.6845 15.8959 10.6732 15.9541 10.6976 15.9878C10.8328 16.1643 10.9773 16.3352 11.1181 16.5079M20.4486 19.0367C20.4111 18.7607 20.3228 18.4716 20.0318 18.3176C19.9361 18.267 19.7728 18.2688 19.677 18.3176C19.6019 18.3552 19.5343 18.5054 19.5419 18.5993C19.5644 18.9278 19.7409 19.1775 20.0337 19.3277C20.244 19.4347 20.4467 19.2995 20.4486 19.0348M17.3979 15.2519C17.2139 15.25 17.0468 15.4265 17.1182 15.5805C17.2271 15.8114 17.366 16.031 17.5256 16.2319C17.642 16.3783 17.8241 16.4478 18.0043 16.3201C18.1864 16.1925 18.1282 16.0123 18.0587 15.8546C17.9273 15.5561 17.7377 15.3158 17.3979 15.2519ZM15.7346 13.245C15.6839 12.9202 15.5018 12.6161 15.2446 12.4716C15.0813 12.3796 14.9085 12.3608 14.7621 12.4791C14.6119 12.6011 14.5838 12.787 14.6814 12.9484C14.7996 13.1436 14.9386 13.3351 15.1038 13.4891C15.192 13.5698 15.3854 13.6355 15.4755 13.5923C15.59 13.5379 15.6501 13.3652 15.7346 13.245ZM9.60124 14.7882C9.95982 14.9591 10.3015 14.8614 10.6206 14.7075C11.7527 14.1631 12.8021 13.4947 13.6188 12.5204C13.8516 12.2425 14.0412 11.9196 14.2139 11.5967C14.3003 11.4371 14.3003 11.2306 14.3453 11.0166C14.4354 11.0879 14.5687 11.1593 14.6588 11.2644C15.2052 11.9065 15.7477 12.5504 16.2809 13.2037C17.871 15.1543 19.4424 17.1218 21.0512 19.0555C21.4399 19.521 21.4173 19.9678 21.2127 20.4485C20.9067 21.1731 20.3679 21.7138 19.7615 22.2C19.0669 22.7576 18.2615 23.0561 17.3998 23.1669C17.0112 23.2157 16.5963 23.1368 16.2865 22.7707C14.1933 20.3076 12.085 17.8577 9.98235 15.4021C9.8284 15.2238 9.68948 15.0323 9.54492 14.8464C9.5637 14.8258 9.58247 14.8051 9.60124 14.7845" fill="white"/>
<path d="M2.85986 29.9498C3.07764 29.6607 3.25411 29.4204 3.43621 29.1857C3.53196 29.0599 3.62958 28.9322 3.7441 28.8252C3.83046 28.7445 3.93934 28.6563 4.05011 28.6319C5.77352 28.2808 7.50257 27.9523 9.22411 27.5918C11.0564 27.207 12.8831 26.7939 14.7116 26.3978C14.8243 26.3734 14.9876 26.3227 15.0514 26.3753C15.196 26.4973 15.2974 26.6738 15.4081 26.8334C15.4231 26.854 15.4025 26.9047 15.3912 26.9404C15.3387 27.1281 15.2974 27.3196 15.2279 27.4998C15.1359 27.7382 15.1922 27.9354 15.3424 28.1269C15.6634 28.5361 15.9732 28.951 16.298 29.3565C16.8349 30.0249 17.3793 30.6876 17.9181 31.3522C17.9369 31.3747 17.9463 31.4047 17.9782 31.4648C17.8599 31.4648 17.7342 31.5042 17.6685 31.4573C17.4038 31.2696 17.1297 31.3709 16.8631 31.4047C15.3706 31.5925 13.8781 31.7877 12.3875 31.983C10.8217 32.1876 9.25602 32.3941 7.68843 32.5987C7.15901 32.6682 6.6296 32.7358 6.0983 32.7921C6.02133 32.7996 5.91245 32.7714 5.86176 32.7189C5.01882 31.859 4.18152 30.9917 3.3048 30.0887C3.55636 30.0343 3.76663 29.9854 3.97877 29.946C5.14648 29.7226 6.3142 29.4992 7.48192 29.2777C8.85427 29.0167 10.2285 28.7558 11.6027 28.4967C12.6615 28.2977 13.7204 28.1006 14.7773 27.9016C14.813 27.8941 14.8543 27.8847 14.8825 27.864C14.9256 27.834 14.9613 27.7927 14.9989 27.7551C14.9444 27.7289 14.8862 27.6782 14.8336 27.6838C14.6553 27.7045 14.4788 27.742 14.3024 27.7758C12.5677 28.1062 10.833 28.4347 9.1002 28.767C7.16089 29.1388 5.22158 29.5142 3.28227 29.8859C3.16775 29.9085 3.05135 29.9197 2.85986 29.9479" fill="white"/>
<path d="M11.1882 14.1991C10.9461 13.9006 10.7133 13.6077 10.4748 13.3186C9.4836 12.1171 8.49611 10.9099 7.4936 9.71592C6.07244 8.0263 4.63439 6.34981 3.21135 4.66207C2.49232 3.80975 1.78644 2.94616 1.08055 2.08258C0.992314 1.97557 0.934116 1.84415 0.868408 1.73527C1.28143 1.45742 1.67379 1.21148 2.04363 0.935511C2.35715 0.702718 2.65565 0.44552 2.9335 0.173303C3.10434 0.00621837 3.22074 0.0569071 3.34089 0.197709C3.62437 0.530001 3.90034 0.869803 4.17819 1.20773C5.819 3.20524 7.44291 5.21777 9.10438 7.19838C9.96608 8.2253 10.8973 9.19401 11.7928 10.1928C12.1138 10.5513 12.4235 10.9231 12.7408 11.2854C12.9755 11.5539 13.2083 11.8261 13.4561 12.0833C13.5781 12.2091 13.5706 12.2935 13.458 12.4231C12.8234 13.1665 12.0199 13.6922 11.1864 14.1991" fill="white"/>
<path d="M29.626 30.1525C29.6204 29.7883 29.5227 29.4053 29.1942 28.966C28.4602 27.986 27.7017 27.0248 26.9357 26.0692C26.3631 25.354 25.7661 24.6575 25.1785 23.9553C25.1504 23.9215 25.0884 23.8821 25.0546 23.8915C25.0171 23.9028 24.9852 23.961 24.9664 24.006C24.6116 24.8583 24.1009 25.5905 23.3537 26.1462C23.2524 26.2213 23.2073 26.3002 23.3312 26.3959C23.3669 26.4241 23.3969 26.4579 23.4232 26.4935C24.4351 27.8471 25.4432 29.2026 26.4589 30.5543C26.8832 31.1175 27.2643 31.7182 27.8275 32.1632C28.0828 32.3659 28.2968 32.3603 28.524 32.1369C28.7061 31.9566 28.8769 31.767 29.0478 31.5755C29.412 31.17 29.5978 30.6913 29.626 30.1506M23.5377 21.7739C23.7517 21.9447 23.9695 22.063 24.116 22.2413C26.014 24.543 27.9007 26.8521 29.7912 29.1613C29.8438 29.2251 29.8813 29.3021 29.9376 29.3621C30.3225 29.7658 30.3037 30.2126 30.1179 30.7007C29.8776 31.3315 29.6692 31.9698 29.2299 32.5048C28.6554 33.2051 27.9214 33.6162 27.0428 33.7852C26.7705 33.8378 26.4964 33.8715 26.2242 33.9185C25.9764 33.9617 25.7737 33.9053 25.6009 33.7026C25.1034 33.1187 24.5909 32.5443 24.0859 31.966C23.1623 30.9147 22.2367 29.8634 21.3149 28.8102C20.6259 28.0236 19.9445 27.2313 19.2761 26.4597C19.6309 25.9172 20.2355 25.8083 20.7555 25.5586C21.2849 25.3052 21.8087 25.0461 22.2461 24.6443C22.9088 24.0379 23.3763 23.3283 23.4645 22.4084C23.4833 22.2225 23.5058 22.0367 23.5358 21.772" fill="white"/>
<path d="M20.5615 31.979C20.4883 31.8851 20.4226 31.7837 20.3381 31.7011C20.2161 31.581 20.0959 31.4402 19.9457 31.3726C19.8293 31.32 19.6416 31.3219 19.5327 31.382C19.3806 31.4665 19.3544 31.6486 19.4182 31.8251C19.4313 31.8588 19.4332 31.8964 19.4463 31.9602C19.1685 31.9095 18.8813 31.9133 18.6522 31.7988C18.4307 31.6861 18.2486 31.4721 18.0871 31.2694C17.2404 30.2124 16.4069 29.1479 15.5696 28.0835C15.5189 28.0196 15.4739 27.9502 15.4081 27.8582C15.5846 27.8225 15.7442 27.8019 15.8981 27.7549C15.9545 27.738 15.992 27.6648 16.0389 27.616C15.9751 27.6047 15.9094 27.5785 15.8474 27.586C15.7085 27.5991 15.5715 27.6292 15.4006 27.6592C15.4607 27.4339 15.5133 27.2443 15.5658 27.0528C15.7498 27.1654 15.9169 27.295 16.1028 27.3757C16.5008 27.5447 16.7298 27.4564 16.9438 27.0791C17.0114 26.9589 17.0602 26.8613 17.2367 26.8538C17.4244 26.8482 17.4751 26.6999 17.3756 26.5234C17.3362 26.452 17.278 26.392 17.2048 26.2962C17.5277 26.2455 17.8299 26.1986 18.089 26.1592C18.2223 26.3488 18.3162 26.5591 18.4776 26.6923C18.6879 26.8669 18.8982 26.6924 19.1084 26.5741C19.206 26.6867 19.3037 26.7956 19.4332 26.9439C19.0727 27.0115 18.7498 27.0753 18.4232 27.1354C18.0777 27.1992 17.7304 27.2556 17.3869 27.325C17.3362 27.3363 17.2968 27.4076 17.2517 27.4508C17.263 27.4771 17.2761 27.5034 17.2874 27.5278C17.6291 27.4677 17.9726 27.4076 18.3143 27.3438C18.6973 27.2725 19.0765 27.188 19.4595 27.1317C19.5346 27.1204 19.6491 27.1936 19.7073 27.2612C20.2161 27.8357 20.7173 28.4176 21.2204 28.9977C21.9169 29.7994 22.6134 30.601 23.3081 31.4026C23.3456 31.4458 23.3775 31.4928 23.4282 31.5603C23.3325 31.5679 23.2686 31.5697 23.2029 31.5772C23.0039 31.596 22.8594 31.6692 22.773 31.8757C22.696 32.0597 22.574 32.2324 22.4426 32.3845C22.3656 32.4727 22.2361 32.5422 22.1197 32.561C21.6522 32.6361 21.181 32.6886 20.7117 32.7487C20.4507 32.7825 20.2217 32.6999 20.0659 32.5009C19.8969 32.285 19.7599 32.0447 19.6284 31.8025C19.5928 31.7368 19.6322 31.6317 19.6378 31.5434C19.7298 31.5528 19.8462 31.5303 19.9082 31.5791C20.049 31.688 20.1597 31.8326 20.2874 31.9565C20.3831 32.0503 20.4751 32.1555 20.5897 32.2174C20.6478 32.2493 20.7718 32.2268 20.8281 32.1817C20.8675 32.1517 20.8694 32.0297 20.8431 31.9677C20.7924 31.8438 20.7079 31.7349 20.6441 31.6148C20.6084 31.5453 20.5859 31.4702 20.5972 31.3576C20.6816 31.4083 20.7718 31.4515 20.8468 31.5134C21.1435 31.7575 21.427 32.0165 21.7292 32.2531C21.977 32.4483 22.1817 32.4202 22.3619 32.1611C22.4839 31.9846 22.5759 31.7837 22.6623 31.5866C22.728 31.4383 22.6754 31.3407 22.4952 31.3426C22.4201 31.3426 22.3393 31.3576 22.2699 31.3388C22.1967 31.3182 22.1028 31.2787 22.0728 31.2187C21.9245 30.922 21.656 30.8 21.3669 30.7137C21.1679 30.6536 20.997 30.7268 20.8882 30.9127C20.8393 30.9971 20.7962 31.0835 20.7492 31.1699C20.3005 31.1473 20.2761 31.2675 20.5615 31.9752" fill="white"/>
<path d="M18.7877 25.7986C18.8534 25.5827 18.9078 25.3611 18.9886 25.1509C19.0392 25.0213 19.0374 24.9218 18.9059 24.8768C18.7332 24.8167 18.5455 24.7322 18.3765 24.7547C18.1738 24.781 18.0367 24.721 17.9241 24.5933C17.573 24.1934 17.2351 23.7842 16.884 23.3711C18.0104 23.4012 18.9998 23.052 19.8615 22.3705C20.7138 21.6946 21.4629 20.9343 21.5587 19.7122C21.8891 20.1177 22.1876 20.4931 22.4973 20.8592C22.7527 21.1615 23.0418 21.4393 23.2727 21.7585C23.3534 21.8692 23.3271 22.0758 23.3102 22.2353C23.1507 23.6584 22.2871 24.5539 21.0799 25.1903C20.956 25.256 20.879 25.2278 20.7852 25.1415C20.6162 24.9819 20.4435 24.8261 20.2595 24.6853C19.9704 24.4638 19.7095 24.5201 19.533 24.8373C19.4128 25.0532 19.3171 25.2823 19.1838 25.4888C19.0993 25.6221 18.9679 25.7253 18.8553 25.8436C18.8327 25.8305 18.8102 25.8173 18.7877 25.8042" fill="white"/>
<path d="M17.1861 24.4698C17.0396 24.5167 16.9157 24.5787 16.7843 24.5956C16.3638 24.65 16.2098 24.9616 16.1404 25.3071C16.0653 25.6807 16.1235 26.0355 16.4727 26.2889C16.5966 26.3791 16.681 26.5217 16.7824 26.6419C16.912 26.7921 16.8312 26.9235 16.7392 27.0455C16.6397 27.1788 16.5365 27.3121 16.3319 27.2614C16.024 27.1863 15.7987 26.9929 15.6072 26.7545C15.4608 26.5724 15.3237 26.3866 15.1829 26.2007C14.8694 25.7839 14.937 24.911 15.3519 24.4754C15.5452 24.2727 15.7856 24.1018 16.0334 23.9666C16.3919 23.7714 16.9852 24.0399 17.1861 24.4717" fill="white"/>
<path d="M20.7418 25.3708C20.3851 25.5004 20.0547 25.6168 19.728 25.7388C19.6773 25.7576 19.636 25.8083 19.5928 25.8458C19.3582 26.0561 19.1385 26.2832 18.8888 26.4728C18.6617 26.6456 18.4646 26.5761 18.3988 26.2964C18.35 26.088 18.3538 25.8664 18.3557 25.6506C18.3557 25.4647 18.3857 25.277 18.4007 25.0911C18.412 24.9484 18.4871 24.8865 18.6241 24.9315C18.7293 24.9653 18.8344 24.9935 18.7687 25.1662C18.6955 25.3596 18.6523 25.5679 18.626 25.7726C18.6166 25.8496 18.6748 25.9791 18.7368 26.0073C18.8044 26.0373 18.947 26.0073 18.9958 25.9491C19.1967 25.72 19.4314 25.4966 19.5497 25.2263C19.8651 24.5035 20.0077 24.6893 20.387 25.0066C20.5015 25.1024 20.5954 25.2188 20.7399 25.3689" fill="white"/>
<path d="M10.2633 13.3591C10.5189 13.6729 10.7575 13.9679 10.9961 14.2629C10.5959 14.6387 9.9533 14.7608 9.56812 14.5297C9.69213 14.0938 9.90633 13.7086 10.2633 13.3591Z" fill="white"/>
<path d="M5.62935 32.8934C5.52798 32.8615 5.40407 32.854 5.32898 32.7901C5.16377 32.6493 5.02297 32.4804 4.8709 32.3227C4.39968 31.8346 3.92659 31.3502 3.45913 30.8583C3.26201 30.6499 3.04799 30.4491 2.94849 30.1487C3.11182 30.1637 5.08116 32.1255 5.64813 32.8145C5.64062 32.8408 5.63311 32.8671 5.62748 32.8934" fill="white"/>
<path d="M13.7271 12.1387C13.466 11.8099 13.2574 11.5487 13.0056 11.233C13.3419 11.1316 13.6351 11.0301 13.9357 10.9568C14.0597 10.9268 14.1837 11.1316 14.1198 11.2932C14.0127 11.5656 13.8737 11.8249 13.7271 12.1387Z" fill="white"/>
<path d="M1.24961 1.03549C1.28155 1.02985 1.29846 1.03173 1.30974 1.02421C1.61037 0.789342 1.91101 0.556351 2.20788 0.317723C2.23043 0.298933 2.23795 0.221896 2.21916 0.204985C2.19473 0.180559 2.12333 0.167406 2.0989 0.184316C1.79451 0.41355 1.49388 0.646541 1.197 0.88329C1.17633 0.900201 1.16694 0.952812 1.17821 0.979117C1.18948 1.0073 1.23082 1.02233 1.24961 1.03737M2.85049 0.00957297C2.22855 0.561988 1.6348 1.08434 0.905762 1.44698C0.947099 0.708547 2.03126 -0.103165 2.85049 0.00957297Z" fill="white"/>
<path d="M16.8787 24.7888C16.6157 25.2473 16.6232 25.6776 16.9182 26.0966C16.9069 26.1191 16.8956 26.1398 16.8844 26.1623C16.7491 26.1248 16.5687 26.1285 16.486 26.0402C16.285 25.826 16.2605 25.5442 16.3507 25.2642C16.4278 25.0256 16.5236 24.7963 16.8806 24.7888" fill="white"/>
<path d="M17.4608 26.0498C17.1283 26.1249 16.8295 25.8337 16.8765 25.4015C16.9065 25.1215 17.0099 24.8716 17.2128 24.7063C17.2936 25.1385 17.3763 25.5857 17.4627 26.0498" fill="white"/>
<path d="M22.5058 31.5381C22.3968 31.7354 22.3216 31.9159 22.2069 32.0663C22.064 32.2561 21.9625 32.2298 21.6655 31.9648C21.7595 31.8238 21.8234 31.6264 21.955 31.555C22.0866 31.4835 22.2859 31.5399 22.5058 31.5399" fill="white"/>
<path d="M17.5582 24.6538C17.654 25.1273 17.7424 25.5651 17.8401 26.0424C17.5056 25.8188 17.515 25.4524 17.4624 25.1348C17.438 24.9845 17.3384 24.7534 17.5582 24.6538Z" fill="white"/>
<path d="M20.8977 31.0687C21.0744 30.8713 21.2379 31.0424 21.3789 31.1157C21.7116 31.2886 21.8169 31.4522 21.7549 31.6044C21.4804 31.4334 21.206 31.2604 20.8977 31.0687Z" fill="white"/>
<path d="M17.8167 24.8C18.0347 24.8602 18.0855 24.9655 18.0535 25.1722C18.0197 25.3959 18.0648 25.6328 18.0592 25.8678C17.8938 25.535 17.7659 25.1948 17.8167 24.8Z" fill="white"/>
<path d="M21.1079 30.832C21.1587 30.8244 21.2433 30.785 21.2959 30.8094C21.5064 30.9071 21.7132 31.0181 21.9087 31.1421C21.9482 31.1666 21.935 31.2718 21.9463 31.3395C21.8843 31.3226 21.8147 31.3207 21.7639 31.2869C21.544 31.1421 21.3316 30.988 21.1079 30.8301" fill="white"/>
<path d="M21.6837 31.779C21.5672 31.8335 21.0973 31.5215 20.8679 31.2151C21.1743 31.3504 21.4939 31.4651 21.6837 31.779Z" fill="white"/>
<path d="M16.8201 26.3321C17.0658 26.3021 17.1164 26.5028 17.2234 26.6416C17.087 26.6829 16.9526 26.5797 16.8201 26.3321Z" fill="white"/>
<path d="M37.4317 45.44C37.7321 45.3724 38.0343 45.3105 38.3309 45.2316C38.4117 45.211 38.498 45.1528 38.5468 45.0852C38.8115 44.721 39.065 44.3512 39.3353 43.9663C39.5681 44.2385 39.799 44.5032 40.0224 44.7736C40.0544 44.813 40.0675 44.8881 40.0544 44.9369C39.9004 45.5358 39.0932 46.1628 38.4642 46.1872C38.1714 46.1985 37.9442 46.0858 37.7546 45.87C37.6476 45.7479 37.5293 45.6353 37.4148 45.517C37.4204 45.4907 37.4261 45.4663 37.4336 45.44" fill="white"/>
<path d="M33.4629 38.6072C33.8481 38.4644 34.1393 38.2314 34.3573 37.8594C34.6485 38.2164 34.936 38.5677 35.2178 38.9229C35.2423 38.9529 35.231 39.0375 35.2047 39.0751C35.0149 39.3625 34.7594 39.573 34.4418 39.7102C34.1149 39.3419 33.7917 38.9755 33.4648 38.6053" fill="white"/>
<path d="M35.3202 40.8057C35.0215 40.4374 34.7716 40.1311 34.533 39.8399C34.8167 39.5881 35.0873 39.3495 35.3635 39.1052C35.5795 39.3664 35.8182 39.6464 36.0436 39.9357C36.0718 39.9733 36.0606 40.0879 36.0249 40.1255C35.8031 40.3529 35.5701 40.5671 35.3202 40.8057Z" fill="white"/>
<path d="M36.2161 40.125C36.4209 40.3655 36.6389 40.6135 36.8437 40.8728C36.8813 40.9198 36.8888 41.0344 36.8568 41.087C36.6783 41.3745 36.4172 41.5699 36.1015 41.724C35.8554 41.4346 35.613 41.149 35.3762 40.8709C35.6505 40.6267 35.9211 40.3881 36.2161 40.1269" fill="white"/>
<path d="M40.2092 44.9949C40.4046 45.2335 40.6244 45.4984 40.8367 45.7671C40.863 45.7991 40.8724 45.8667 40.8574 45.9062C40.7409 46.2124 40.5455 46.4586 40.2731 46.6578C39.9837 46.3421 39.7094 46.0245 39.2922 46.0903C39.5835 45.7427 39.8954 45.3725 40.2092 44.9949Z" fill="white"/>
<path d="M37.0306 41.1091C37.2054 41.3233 37.3951 41.5469 37.5718 41.7799C37.6112 41.8325 37.6413 41.9321 37.6187 41.9885C37.491 42.2985 37.2749 42.5371 36.9761 42.7269C36.7037 42.4188 36.4406 42.1238 36.1982 41.8494C36.482 41.5977 36.7544 41.3572 37.0306 41.1129" fill="white"/>
<path d="M32.5544 37.6341C32.7348 37.4744 32.9114 37.4274 33.1407 37.4819C33.3624 37.5345 33.5484 37.4199 33.6762 37.1851C33.8547 37.3654 34.0313 37.5364 34.1948 37.7168C34.2286 37.7544 34.238 37.8521 34.2136 37.8934C34.0369 38.1865 33.7833 38.3914 33.4545 38.4909C33.415 38.5041 33.3455 38.4872 33.3173 38.4571C33.058 38.1847 32.8062 37.9066 32.5544 37.6322" fill="white"/>
<path d="M40.3471 46.7901C40.5763 46.5007 40.7774 46.2471 40.9916 45.9746C41.2528 46.2809 41.5553 46.6059 41.6398 47.0625C41.6736 47.241 41.5628 47.3669 41.4068 47.4627C41.2471 47.5605 41.0949 47.5454 40.9747 47.4346C40.7492 47.2279 40.5444 46.9986 40.3452 46.792" fill="white"/>
<path d="M37.9261 43.5878C37.6142 43.3173 37.3361 43.0786 37.1125 42.8832C37.2422 42.7198 37.3549 42.5826 37.4602 42.4398C37.5597 42.3008 37.6499 42.1561 37.7476 42.0095C37.9487 42.2594 38.1591 42.5131 38.3564 42.778C38.3959 42.8325 38.4128 42.9546 38.379 43.0054C38.2324 43.2196 38.0633 43.4187 37.9299 43.5878" fill="white"/>
<path d="M38.7352 44.6566C38.4534 44.3165 38.2016 44.0121 37.946 43.7058C38.1396 43.4785 38.3331 43.2474 38.5417 43.0012C38.7521 43.2568 38.9851 43.5386 39.2125 43.8242C39.2313 43.8486 39.2331 43.9106 39.2162 43.9369C39.0565 44.1831 38.8893 44.4255 38.7333 44.6566" fill="white"/>
<path d="M32.9334 37.2413C32.8696 36.9578 33.0273 36.7513 33.2038 36.5748C33.3539 36.4246 33.5191 36.5035 33.5511 36.7137C33.6149 37.1455 33.3896 37.3408 32.9334 37.2431" fill="white"/>
<path d="M37.979 45.1587C37.7365 45.2583 37.5467 45.3373 37.338 45.4219C37.2685 45.3147 37.1857 45.217 37.135 45.1042C37.103 45.0309 37.0786 44.8993 37.1162 44.8636C37.1745 44.8072 37.3098 44.7658 37.3756 44.7978C37.5749 44.8899 37.7553 45.0215 37.979 45.1587Z" fill="white"/>
<path d="M32.8915 35.8246C32.666 35.693 32.4706 35.4657 32.1832 35.5653C32.0441 35.6141 31.9069 35.7212 31.8092 35.8358C31.5255 36.1703 31.5556 36.4503 31.8919 36.8373C31.6476 36.8862 31.5105 36.7772 31.471 36.5066C31.4053 36.0407 31.8186 35.4901 32.2809 35.4262C32.5157 35.3943 32.7713 35.5502 32.8896 35.8265" fill="white"/>
<path d="M33.3531 36.3854C32.9809 36.5226 32.8738 36.8459 32.7873 37.1786C32.4884 37.0941 32.4471 37.0358 32.573 36.8027C32.6557 36.6486 32.7704 36.5019 32.8982 36.3797C33.0354 36.2482 33.2009 36.2294 33.355 36.3854" fill="white"/>
<path d="M32.9777 36.1303C32.7634 36.401 32.5604 36.6566 32.3517 36.9198C32.1562 36.8108 32.1412 36.7356 32.3066 36.4705C32.5303 36.1077 32.7878 36.0006 32.9796 36.1303" fill="white"/>
<path d="M32.7299 35.9855C32.3859 36.1115 32.2092 36.3859 32.0739 36.7356C31.9837 36.6378 31.9085 36.557 31.8088 36.4498C31.9949 36.2769 32.1716 36.1096 32.354 35.9461C32.4837 35.8295 32.6096 35.8483 32.7299 35.9855Z" fill="white"/>
<path d="M31.9796 36.9204C32.0922 36.9974 32.203 37.0762 32.3157 37.1532C32.4358 37.2358 32.5578 37.3184 32.6799 37.401C32.4489 37.6019 32.5015 37.555 31.9402 36.988C31.9533 36.9655 31.9665 36.9429 31.9796 36.9204Z" fill="white"/>
<path d="M32.0352 35.3562C31.6162 35.6813 31.2986 36.0044 31.3907 36.5663C31.0938 36.1905 31.5166 35.5309 32.0352 35.3562Z" fill="white"/>
<path d="M32.4145 35.7524C32.219 35.9272 32.0348 36.0926 31.845 36.2618C31.8769 35.9366 32.1044 35.7299 32.4145 35.7524Z" fill="white"/>
<path d="M43.8223 40.8066C44.01 40.4537 44.1884 40.1158 44.3723 39.7797C44.4812 39.5807 44.5713 39.3855 44.5432 39.1414C44.5188 38.9274 44.622 38.873 44.8154 38.9631C44.9036 39.0044 44.9919 39.0457 45.0726 39.1001C45.2603 39.2278 45.3767 39.3949 45.2885 39.6352C45.1289 40.0688 44.9675 40.5006 44.8004 40.9305C44.7159 41.1521 44.6201 41.368 44.5263 41.5933C44.2916 41.3304 44.0607 41.0732 43.8223 40.8066Z" fill="white"/>
<path d="M40.935 40.5197C40.8711 40.6813 40.8147 40.8861 40.717 41.0665C40.6249 41.2356 40.375 41.2431 40.2849 41.0797C40.1327 40.8035 40.0293 40.5066 40.1082 40.1797C40.1552 39.9842 40.2661 39.8621 40.4784 39.849C40.6982 39.8358 40.7809 39.9842 40.841 40.1534C40.8786 40.2586 40.8974 40.3694 40.935 40.5216" fill="white"/>
<path d="M39.9584 39.9583C39.7893 40.3342 39.9321 40.6895 40.028 41.0636C39.7498 40.8305 39.7084 40.1895 39.9584 39.9583Z" fill="white"/>
<path d="M37.2973 35.3887C37.1676 35.4225 37.0361 35.4544 36.9045 35.4883C36.9045 35.5221 36.9026 35.5541 36.9007 35.5879C37.0473 35.6161 37.1921 35.6424 37.3368 35.6687C37.2898 35.8417 37.1225 35.977 36.9684 35.9563C36.756 35.9281 36.5849 35.6988 36.583 35.445C36.5811 35.242 36.7052 35.1462 36.8819 35.1086C37.0473 35.0747 37.2409 35.2157 37.2973 35.3887Z" fill="white"/>
<path d="M15.0496 12.626C15.2538 12.6485 15.3869 12.7834 15.4281 12.9914C15.3176 12.8846 15.1751 12.7478 15.0496 12.626Z" fill="white"/>
<path d="M27.6807 31.8626C26.5261 30.3025 25.3791 28.7518 24.1851 27.1373C24.3615 26.9871 24.5511 26.8369 24.7239 26.6717C24.8327 26.5666 24.8759 26.5928 24.9642 26.7017C25.8371 27.785 26.7139 28.8645 27.5962 29.9402C27.7858 30.173 28.058 30.1091 28.1557 29.8182C28.1763 29.7543 28.1557 29.6454 28.1106 29.5929C27.6507 29.0466 27.1757 28.5134 26.7157 27.9671C26.237 27.3964 25.7714 26.8144 25.2946 26.2437C25.2045 26.1348 25.1988 26.0616 25.2965 25.9583C25.4241 25.8213 25.5368 25.6711 25.67 25.5059C25.9441 25.8325 26.2239 26.146 26.4829 26.4783C27.1945 27.3907 27.9003 28.3069 28.5987 29.2287C28.7189 29.3882 28.8203 29.5722 28.886 29.76C28.9817 30.034 28.9892 30.3232 28.8315 30.586C28.5424 31.0628 28.2289 31.5209 27.6807 31.8626Z" fill="white"/>
<path d="M24.1169 27.0715C23.8935 26.7787 23.7152 26.544 23.5293 26.2999C24.2164 25.7236 24.6839 25.0027 25.1138 24.2461C25.5662 24.7736 26.0299 25.288 26.4655 25.825C27.3065 26.8631 28.1476 27.9051 28.9586 28.9677C29.2177 29.3075 29.4392 29.6942 29.4355 30.1579C29.4336 30.5972 29.2552 30.9783 29.0149 31.3237C28.8479 31.5622 28.6282 31.7649 28.4198 31.9714C28.2208 32.1686 28.1176 32.1629 27.8904 31.9695C28.3391 31.6917 28.6207 31.2674 28.9117 30.8488C29.2703 30.3325 29.2383 29.8087 28.8967 29.3168C28.4311 28.6447 27.943 27.9858 27.438 27.3419C26.9329 26.6979 26.396 26.0765 25.8685 25.4514C25.7145 25.2693 25.6301 25.2768 25.4686 25.4626C25.05 25.9451 24.6332 26.4276 24.2183 26.9119C24.1882 26.9457 24.1695 26.9889 24.1188 27.0696" fill="white"/>
<path d="M25.1143 26.3848C26.083 27.5093 27.0349 28.6132 27.9942 29.7246C27.936 29.7884 27.8872 29.841 27.814 29.9217C26.8903 28.7709 25.976 27.6313 25.0674 26.4899C25.058 26.4768 25.0956 26.4279 25.1162 26.3848" fill="white"/>
</svg>
