<svg width="29" height="76" viewBox="0 0 29 76" fill="none" xmlns="http://www.w3.org/2000/svg">
<path d="M24.3384 64.0489C24.2724 63.9272 24.2347 63.7982 24.1522 63.7171C23.9141 63.4878 23.6618 63.2754 23.4049 63.0652C23.3624 63.0318 23.2776 63.0485 23.2139 63.0438C23.2375 63.113 23.2445 63.2013 23.2893 63.2515C23.5557 63.5404 23.8315 63.8197 24.1074 64.0991C24.1404 64.1325 24.204 64.1492 24.2488 64.1444C24.2795 64.142 24.303 64.0847 24.336 64.0465M26.1159 65.6343C26.064 65.6582 26.0192 65.6749 25.9815 65.6988C25.5737 65.9519 25.1682 66.2049 24.7651 66.4628C24.7297 66.4867 24.7203 66.5535 24.6991 66.6013C24.7533 66.6252 24.8311 66.6848 24.8617 66.6657C25.3026 66.3983 25.7411 66.1238 26.1748 65.842C26.2055 65.8229 26.2078 65.7417 26.2031 65.6892C26.2031 65.6677 26.1489 65.6534 26.1183 65.6343M25.6798 56.1913L25.7811 56.2319C25.8283 56.1507 25.9084 56.072 25.9155 55.986C25.965 55.3796 26.0027 54.7731 26.0287 54.1666C26.0334 54.0831 25.958 53.9971 25.9202 53.9112C25.8802 53.9924 25.8141 54.0735 25.8094 54.1595C25.7811 54.606 25.7717 55.0524 25.7481 55.4989C25.7364 55.7305 25.7034 55.9597 25.6798 56.1913ZM7.75857 69.0796C7.75857 69.051 7.76329 69.0223 7.76329 68.9913C7.68785 68.9507 7.61713 68.9005 7.53697 68.8719C6.85096 68.6188 6.16495 68.3681 5.47422 68.1246C5.41764 68.1055 5.34456 68.1389 5.27855 68.1484C5.31627 68.2129 5.33985 68.318 5.39407 68.3395C6.12251 68.614 6.85332 68.8791 7.58884 69.1369C7.63363 69.1536 7.69963 69.1011 7.75621 69.082M18.7772 74.6905C18.822 74.7549 18.8668 74.8218 18.9139 74.8863C19.7886 74.7024 20.649 74.4732 21.4835 74.1437C21.4694 74.0936 21.4576 74.041 21.4435 73.9909C20.6089 74.1198 19.8286 74.4923 18.9965 74.6332C18.9234 74.6451 18.8503 74.6714 18.7772 74.6905ZM26.7831 62.1938C26.809 62.1962 26.8326 62.2009 26.8585 62.2033C26.8868 62.1078 26.9339 62.0147 26.9386 61.9192C26.9811 61.031 27.0164 60.1452 27.0471 59.257C27.0471 59.1997 26.9858 59.1376 26.9528 59.0779C26.9104 59.1257 26.8326 59.1711 26.8278 59.2212C26.7831 60.1667 26.7477 61.1122 26.7147 62.0577C26.7147 62.103 26.7571 62.1508 26.7807 62.1985M24.9254 64.5933C24.8877 64.5432 24.85 64.4906 24.8099 64.4381C24.7627 64.4835 24.6944 64.5217 24.6708 64.579C24.3478 65.3908 23.7985 66.0163 23.1338 66.5583C23.0371 66.6371 22.7848 66.6037 22.8768 66.8377C22.8839 66.8568 23.1668 66.8114 23.2752 66.7326C23.9023 66.2694 24.3832 65.6725 24.7651 64.992C24.8287 64.8774 24.8641 64.7485 24.923 64.5957M4.83064 37.6277L4.87307 37.7423C4.97209 37.7232 5.08289 37.7232 5.17011 37.6803C5.73825 37.4081 6.30639 37.1383 6.86275 36.8446C7.28709 36.6202 7.69492 36.3671 8.10276 36.114C8.16405 36.0758 8.18762 35.9707 8.2277 35.8943C8.14519 35.8991 8.04854 35.8728 7.98253 35.9087C7.00184 36.4292 6.0235 36.9592 5.04752 37.4869C4.97208 37.5275 4.90136 37.5824 4.83064 37.6277ZM15.5923 72.3793C14.8709 72.4175 14.1802 72.4461 13.4942 72.4963C13.2137 72.5178 12.9355 72.5774 12.6597 72.6371C12.6055 72.6491 12.5654 72.735 12.5182 72.7852C12.5795 72.8067 12.6455 72.852 12.7045 72.8472C13.1524 72.7995 13.6003 72.7112 14.0506 72.6968C14.8544 72.6706 15.6583 72.6849 16.4622 72.6801C16.5494 72.6801 16.639 72.6491 16.7262 72.6324C16.6485 72.5679 16.5777 72.4605 16.4929 72.4509C16.184 72.4103 15.8729 72.4008 15.5923 72.3817M10.8114 73.5946C10.8162 73.5611 10.8232 73.5301 10.8279 73.4967C10.7384 73.4489 10.6511 73.3868 10.5568 73.3582C9.17067 72.9404 7.84108 72.4055 6.63879 71.5723C6.56807 71.5245 6.4667 71.5197 6.37947 71.4959C6.42426 71.5842 6.44784 71.7131 6.51856 71.7537C7.23051 72.1596 7.93066 72.5918 8.67325 72.9356C9.28383 73.2197 9.94627 73.394 10.5875 73.6089C10.6535 73.6304 10.736 73.5993 10.8114 73.5946ZM16.9243 47.522C16.9243 47.522 16.9243 47.5148 16.9243 47.5124C16.83 47.5172 16.7357 47.5172 16.6414 47.5291C16.4622 47.5554 16.4221 47.6604 16.5542 47.7774C16.7498 47.9493 16.7687 48.1666 16.7687 48.4006C16.7687 49.3198 16.7758 50.239 16.7758 51.1607C16.7758 51.2442 16.7569 51.3302 16.7451 51.4137C16.7262 51.5379 16.7074 51.6644 16.6862 51.7886C16.8229 51.8005 16.962 51.834 17.0964 51.8196C17.292 51.7981 17.4382 51.7241 17.2614 51.4878C17.2095 51.4161 17.1789 51.3135 17.1742 51.2227C17.1529 50.7381 17.1317 50.2534 17.1341 49.7687C17.1388 49.0858 17.0469 48.3934 17.3203 47.7321C17.3392 47.6867 17.2614 47.5602 17.2024 47.5339C17.1223 47.4981 17.0162 47.5243 16.9219 47.5243M12.7186 50.9959C12.1905 51.4376 11.62 51.1989 11.0849 51.2538C11.0661 51.2538 11.0472 51.2514 11.0283 51.2538C10.8185 51.2848 10.7478 51.1989 10.7549 50.9816C10.7808 50.1006 10.7784 49.2195 10.8209 48.3409C10.8327 48.1117 10.9482 47.8801 11.0472 47.6628C11.1132 47.5148 11.1297 47.4193 10.9458 47.4073C10.7478 47.3954 10.5498 47.3978 10.3517 47.4097C10.2975 47.4121 10.2197 47.4599 10.2032 47.5076C10.1891 47.5434 10.2551 47.6079 10.281 47.6628C10.3447 47.8013 10.4578 47.9422 10.4578 48.0807C10.4578 48.933 10.4366 49.783 10.406 50.6354C10.3942 50.9553 10.3447 51.2753 10.2975 51.5928C10.2692 51.7862 10.3683 51.7958 10.5097 51.7934C11.1038 51.7862 11.7002 51.7814 12.2943 51.7767C12.8082 51.7767 12.8082 51.7767 12.7516 51.2753C12.7422 51.2012 12.7375 51.1272 12.7233 50.9935M25.5713 39.9915C25.536 39.9915 25.4983 39.9938 25.4629 39.9962C25.444 40.0535 25.411 40.1132 25.4087 40.1705C25.3875 40.543 25.3474 40.9178 25.3615 41.2879C25.3992 42.243 25.47 43.1956 25.5171 44.1507C25.5808 45.4304 25.6468 46.7102 25.6868 47.9899C25.7246 49.2052 25.7293 50.4205 25.7552 51.6382C25.7576 51.7981 25.7835 51.9629 25.8307 52.1157C25.8519 52.1849 25.9485 52.2303 26.0122 52.2852C26.0263 52.2112 26.0593 52.1372 26.0522 52.0656C26.0381 51.8769 25.991 51.6883 25.9862 51.4973C25.9438 49.623 25.9037 47.7464 25.8637 45.8697C25.8637 45.7933 25.8566 45.7169 25.8495 45.6405C25.7788 44.5924 25.6916 43.5466 25.6444 42.4984C25.6114 41.7631 25.6397 41.0277 25.6326 40.2923C25.6326 40.192 25.5926 40.0917 25.5713 39.9938M18.8762 47.9183C18.8762 48.8781 18.8385 49.74 18.8904 50.5948C18.9187 51.0675 18.8574 51.4305 18.4354 51.6764C18.426 51.6812 18.4307 51.7122 18.4212 51.7767C18.5085 51.7958 18.598 51.8292 18.69 51.8316C18.9823 51.8387 19.277 51.8411 19.5693 51.8316C19.6589 51.8292 19.7485 51.7743 19.8381 51.7432C19.7862 51.6621 19.7485 51.5618 19.6778 51.5045C19.4397 51.3135 19.2534 51.0962 19.2463 50.7739C19.2322 50.1913 19.2322 49.6063 19.2157 49.0238C19.2063 48.6919 19.1756 48.3624 19.1568 48.0425C19.4043 48.0425 19.6212 48.021 19.8333 48.0496C19.9583 48.0663 20.0762 48.1571 20.1964 48.2215C20.2648 48.2573 20.326 48.3075 20.3921 48.3505C20.4203 48.2764 20.4534 48.2024 20.4699 48.126C20.4887 48.0424 20.517 47.9446 20.4887 47.8729C20.4557 47.7822 20.3732 47.6461 20.3072 47.6437C19.5339 47.6103 18.7584 47.5888 17.9851 47.5864C17.9073 47.5864 17.7847 47.7201 17.7635 47.8132C17.7376 47.9159 17.8036 48.0425 17.8201 48.1141C18.1501 48.0544 18.4613 47.9971 18.8786 47.9207M14.1071 49.4058C14.4395 49.4487 14.7366 49.4822 15.0313 49.5299C15.0808 49.5371 15.1538 49.6087 15.1562 49.6541C15.1774 50.2916 15.4957 50.9219 15.1916 51.5666C15.1633 51.6262 15.2364 51.8101 15.2835 51.8172C15.4485 51.8483 15.6253 51.8483 15.7903 51.822C15.986 51.791 16.0002 51.674 15.8776 51.5116C15.8139 51.4281 15.7738 51.3135 15.755 51.206C15.6206 50.4253 15.4886 49.6445 15.3707 48.8614C15.3024 48.4054 15.0808 47.966 15.2316 47.4814C15.2434 47.4408 15.1161 47.2999 15.0478 47.2951C14.6894 47.276 14.3287 47.2736 13.9728 47.2951C13.829 47.3047 13.6993 47.3739 13.8172 47.5864C13.8879 47.7106 13.9303 47.8777 13.9185 48.0186C13.8785 48.5224 13.8337 49.0309 13.7441 49.5275C13.6262 50.1937 13.4636 50.8503 13.3363 51.5164C13.3221 51.5928 13.4093 51.7647 13.4423 51.7623C13.6451 51.7528 13.8431 51.7026 14.0435 51.6668C14.0246 51.6143 14.0034 51.5642 13.9893 51.5116C13.9515 51.366 13.8738 51.2156 13.8879 51.0771C13.9421 50.5303 14.027 49.986 14.1048 49.4034M23.7703 67.2292C23.7585 67.1934 23.7443 67.16 23.7325 67.1242C23.5911 67.1624 23.4402 67.1791 23.3082 67.2412C22.7165 67.5133 22.1271 67.7879 21.5448 68.0816C20.3591 68.6785 19.0884 68.9244 17.7824 68.9722C15.9224 69.039 14.0718 68.9841 12.2259 68.6522C10.446 68.3323 8.71805 67.881 7.09377 67.0788C6.34411 66.7087 5.5473 66.4103 4.93672 65.7943C4.899 65.7561 4.81178 65.7704 4.68919 65.7513C4.84007 66.1118 5.0876 66.2933 5.34692 66.4294C6.18852 66.8711 7.02305 67.3343 7.8953 67.7091C9.25554 68.2965 10.6818 68.6498 12.1458 68.8838C13.3763 69.0796 14.6046 69.2563 15.8493 69.2658C16.5872 69.2706 17.3274 69.2658 18.0606 69.2014C18.7513 69.1417 19.4703 69.0963 20.1139 68.8647C21.3232 68.4278 22.4855 67.8619 23.6642 67.3462C23.709 67.3271 23.7349 67.2674 23.7703 67.2268M22.6505 65.6821C22.8084 65.6367 22.9452 65.6391 23.0064 65.5722C23.1597 65.4051 23.2941 65.2165 23.4072 65.0207C23.6712 64.5647 23.6359 64.3402 23.2634 63.9582C22.8674 63.5523 22.3723 63.304 21.8395 63.1751C20.8989 62.9482 19.9559 62.7262 19.0012 62.5782C17.7753 62.3895 16.54 62.2105 15.3024 62.1484C14.2227 62.0935 13.1359 62.1842 12.0538 62.2463C11.1674 62.2964 10.2928 62.4755 9.4795 62.8336C8.61432 63.2157 7.79629 63.6836 7.31066 64.579C6.90282 65.3335 7.181 66.0187 7.69964 66.5129C7.85287 66.6586 8.09097 66.7207 8.29842 66.8018C8.34557 66.8209 8.42101 66.7612 8.4823 66.7374C8.43751 66.6896 8.39743 66.6347 8.34557 66.5965C8.11926 66.4365 7.82929 66.3291 7.67135 66.1166C7.17864 65.4528 7.27766 64.684 7.91888 64.1301C8.51531 63.6144 9.15889 63.1727 9.92505 62.9315C10.901 62.6235 11.9006 62.4874 12.9166 62.4063C14.2509 62.2988 15.5782 62.3776 16.9031 62.5185C17.6221 62.5949 18.3434 62.688 19.0507 62.8313C20.0526 63.0318 21.0498 63.2634 22.0375 63.5189C22.5067 63.6407 22.9192 63.8961 23.221 64.3044C23.3365 64.4596 23.3601 64.6172 23.254 64.7819C23.0795 65.0493 22.898 65.3144 22.6528 65.6821M26.8891 57.6908L27.0353 57.7075C27.0824 57.5021 27.1602 57.2992 27.1673 57.0915C27.2145 55.7138 27.2522 54.3338 27.2852 52.9561C27.3064 52.0847 27.3323 51.2108 27.3182 50.3393C27.2781 47.8873 27.2263 45.4376 27.165 42.9855C27.1508 42.422 27.1013 41.861 27.0471 41.2999C26.9481 40.2756 26.8373 39.2513 26.7194 38.2294C26.5921 37.1311 26.5049 36.0256 26.3021 34.9417C25.8212 32.3702 25.1564 29.8418 24.2017 27.404C23.3506 25.2337 22.6151 23.0323 22.0823 20.7617C21.9291 20.1123 21.7853 19.4605 21.8372 18.7824C21.8442 18.6964 21.7994 18.6057 21.7806 18.5198C21.7264 18.5962 21.625 18.6726 21.6273 18.749C21.6321 19.1692 21.6085 19.5966 21.6886 20.0048C22.1318 22.2396 22.7495 24.4243 23.6052 26.5325C24.5411 28.8366 25.2248 31.2194 25.7929 33.638C26.1583 35.1972 26.3422 36.7897 26.4931 38.3846C26.6157 39.6763 26.7736 40.9632 26.8726 42.2573C26.9646 43.4678 27.0188 44.6831 27.0494 45.8984C27.0801 47.1137 27.0801 48.3314 27.0659 49.549C27.0353 51.896 26.9882 54.2431 26.9434 56.5901C26.9386 56.8193 26.908 57.0461 26.8962 57.2753C26.8891 57.4138 26.8962 57.5523 26.8962 57.6931M13.4753 9.44925C13.5225 8.85474 13.5249 8.24113 14.0529 7.75167C14.4466 7.38637 14.779 6.94466 15.0996 6.50773C15.2364 6.31911 15.3259 6.05886 15.3471 5.82488C15.3943 5.25424 14.9393 4.89849 14.4042 5.08711C13.6286 5.36168 13.2325 5.98484 13.0392 6.75365C12.8766 7.40547 12.7351 8.06445 12.6031 8.72581C12.5465 9.00516 12.5347 9.29406 12.5159 9.57819C12.5112 9.65936 12.5512 9.74293 12.5725 9.8265C12.5984 9.8265 12.6267 9.83127 12.6526 9.83366C12.6832 9.75487 12.728 9.68085 12.7445 9.59729C12.8813 8.92876 12.9449 8.23635 13.1665 7.59886C13.3433 7.08792 13.6852 6.61756 14.1873 6.33821C14.4183 6.20928 14.6564 6.18779 14.8733 6.50534C14.7059 6.6295 14.5385 6.74888 14.3735 6.87542C14.2698 6.95421 14.1496 7.02345 14.0718 7.12612C13.572 7.79226 13.209 8.52287 13.2632 9.38479C13.2797 9.64504 13.3999 9.91245 13.5272 10.1464C13.6427 10.3661 13.9044 10.4138 14.1048 10.3255C14.317 10.23 14.4867 10.039 14.6706 9.88141C14.6871 9.86709 14.6776 9.80501 14.6635 9.77397C14.4112 9.21766 14.6776 8.7664 14.9511 8.28172C15.0572 8.47034 15.1538 8.63031 15.2364 8.79744C15.5145 9.37046 15.3448 10.0891 14.8238 10.5643C14.3853 10.9654 13.7677 11.0418 13.2844 10.7314C13.1477 10.6431 13.051 10.4902 12.9379 10.3685C12.8789 10.304 12.82 10.2419 12.7634 10.1775C12.7021 10.2515 12.6125 10.316 12.5819 10.3995C12.2424 11.3975 11.9666 12.4218 11.5682 13.3936C11.0566 14.6399 10.4437 15.8433 9.88733 17.0705C9.10702 18.7896 8.08154 20.3654 7.15507 22.0009C5.47186 24.9687 3.90653 28.0009 2.68066 31.1979C2.20917 32.4299 1.78719 33.6834 1.59388 35.0014C1.50902 35.5863 1.53259 36.1713 1.7259 36.7348C1.94043 37.3532 2.42134 37.6516 3.05785 37.5298C3.46569 37.4511 3.86409 37.3221 4.25543 37.1884C4.34265 37.1598 4.43695 37.0237 4.44873 36.9258C4.74106 34.6194 4.96737 32.301 5.32099 30.0017C5.68167 27.6643 6.27339 25.3698 7.01126 23.1231C7.18571 22.5882 7.52283 22.1059 7.79629 21.6069C8.42572 20.4657 9.06459 19.3339 9.69167 18.1903C9.78832 18.0136 9.89441 17.8775 10.0971 17.8417C10.7077 17.739 11.3159 17.622 11.9289 17.5385C13.2915 17.357 14.6635 17.3427 16.0332 17.3713C16.6555 17.3856 17.2755 17.4406 17.9568 17.4811C17.5773 19.0665 17.2496 20.628 16.8253 22.1632C16.3656 23.8298 15.8045 25.4677 15.3118 27.1247C15.1586 27.6428 14.8592 27.8195 14.3382 27.9078C12.3556 28.2421 10.4413 28.827 8.63082 29.7343C7.88823 30.1068 7.2918 30.6607 6.7826 31.3125C6.7213 31.3913 6.6883 31.4964 6.6435 31.5895C6.66236 31.6062 6.68358 31.6229 6.70244 31.642C6.75666 31.6205 6.83446 31.6181 6.86275 31.5775C7.73736 30.3408 9.02687 29.7486 10.3753 29.2449C11.7992 28.7148 13.2632 28.34 14.7554 28.0749C14.7814 28.0702 14.8097 28.0845 14.8969 28.1012C14.5338 28.7076 14.2014 29.3022 13.8337 29.8752C12.7893 31.4988 11.5705 32.9862 10.274 34.4092C10.2197 34.4689 10.215 34.5764 10.1867 34.6623C10.2763 34.6313 10.3942 34.6265 10.446 34.562C11.1934 33.6977 11.9572 32.8454 12.6644 31.95C13.5979 30.7729 14.4372 29.5266 15.1043 28.1681C15.2269 27.9197 15.4627 27.9747 15.6465 27.9627C17.2661 27.8672 18.8739 27.9747 20.4392 28.4307C21.2572 28.6695 22.0564 28.9798 22.865 29.252C22.9287 29.2735 23.0017 29.264 23.0725 29.2687C23.0866 29.2401 23.1031 29.209 23.1172 29.178C22.9994 29.0921 22.8933 28.9703 22.7636 28.9225C22.1908 28.7124 21.6132 28.5071 21.0286 28.328C19.5127 27.8648 17.9592 27.6404 16.375 27.6595C16.2053 27.6595 16.0379 27.6977 15.8681 27.7072C15.7078 27.7168 15.5475 27.7072 15.3613 27.7072C16.6178 24.3885 17.4665 20.9694 18.169 17.4883C19.8074 17.6698 21.4223 17.8918 22.9899 18.3837C23.1455 18.4314 23.2257 18.5007 23.254 18.6678C23.8245 22.1608 24.6849 25.5799 25.7788 28.944C26.5049 31.1788 26.9646 33.4781 27.297 35.8036C27.4573 36.9306 27.6341 38.0575 27.7661 39.1892C27.8651 40.0535 27.9429 40.925 27.9641 41.7965C28.0561 45.7169 28.1551 49.6374 28.1904 53.5578C28.2069 55.339 28.0561 57.1225 28.0325 58.9037C27.9971 61.425 28.0325 63.9463 27.9948 66.4676C27.9783 67.5563 27.917 68.6522 27.7732 69.7338C27.5469 71.4362 26.5143 72.6037 25.114 73.4656C23.3742 74.5377 21.5 75.2468 19.4892 75.593C17.9168 75.8628 16.3396 76.0514 14.746 75.9296C11.646 75.6933 8.64968 75.0677 5.9292 73.4441C4.66798 72.692 3.98196 71.5245 3.67314 70.1111C3.60713 69.8078 3.64485 69.4807 3.63542 69.1656C3.58827 67.6041 3.48926 66.0426 3.50105 64.4811C3.52698 60.8949 3.60242 57.3111 3.67078 53.7249C3.71557 51.3373 3.74858 48.9497 3.84995 46.5645C3.96075 43.931 4.14463 41.3023 4.29786 38.6711C4.30729 38.5016 4.33086 38.3321 4.35208 38.1291C4.08333 38.2031 3.8523 38.2724 3.61656 38.3297C1.99936 38.7308 0.881939 37.9071 0.705132 36.2238C0.594332 35.1566 0.804143 34.1418 1.09646 33.1367C1.94514 30.2381 3.24645 27.5377 4.59725 24.8517C5.58973 22.8771 6.78259 21.0315 7.9566 19.1692C9.33569 16.9774 10.2928 14.5826 11.1486 12.1472C11.4786 11.2089 11.7379 10.2467 12.0397 9.29645C12.0892 9.13887 12.0232 9.08634 11.9006 9.10544C11.0896 9.2296 10.2787 9.36569 9.63037 9.94588C9.16596 10.3637 9.07166 10.9391 8.909 11.5599C8.8147 11.4238 8.68033 11.2973 8.63789 11.1468C8.57424 10.92 8.52474 10.6693 8.5601 10.4425C8.60253 10.1703 8.56717 9.94588 8.46344 9.69757C8.41158 9.57341 8.45873 9.40389 8.46344 9.25586C8.6096 9.31077 8.75812 9.3633 8.90193 9.42299C8.93257 9.43493 8.95143 9.47791 8.98444 9.51611C9.58087 9.09111 10.2127 8.73775 10.9293 8.58494C11.2122 8.52525 11.5069 8.50854 11.7969 8.48944C11.9972 8.47511 12.1198 8.43452 12.1552 8.1886C12.2165 7.73734 12.3226 7.29325 12.4145 6.84677C12.5418 6.22599 12.8436 5.68878 13.2137 5.19216C13.6922 4.5499 14.8049 4.24428 15.4556 4.49976C16.1487 4.77433 16.2807 5.50971 16.1157 5.98723C15.9742 6.40268 15.7456 6.8014 15.491 7.15954C15.076 7.73973 14.6187 8.28888 14.159 8.83087C13.9657 9.05769 13.7158 9.23437 13.4918 9.43493" fill="white"/>
<path d="M21.0662 3.74778C21.0804 3.70957 21.0922 3.67137 21.1063 3.63556C21.045 3.59258 20.9861 3.52095 20.9177 3.50902C20.1539 3.37053 19.3854 3.23683 18.6192 3.11029C18.5791 3.10312 18.5084 3.15087 18.4919 3.18908C18.4801 3.21773 18.5249 3.29413 18.5603 3.31562C18.6239 3.35143 18.6994 3.36815 18.7725 3.38008C19.2157 3.45649 19.6589 3.53289 20.1044 3.60452C20.4227 3.65466 20.7433 3.70002 21.0639 3.74539M17.2354 6.93522C17.3297 7.01879 17.3674 7.08564 17.4122 7.08803C19.1426 7.2098 20.8494 7.45811 22.4807 8.0956C22.5161 8.10992 22.5679 8.08127 22.7094 8.0574C22.5797 7.94757 22.5161 7.85684 22.4312 7.8258C22.0163 7.67777 21.599 7.52974 21.1747 7.41036C19.9535 7.06415 18.697 6.96865 17.4429 6.85643C17.391 6.85166 17.3368 6.89463 17.2354 6.93522ZM23.2634 9.42788C22.905 9.38013 22.5891 9.33237 22.2732 9.29895C21.9078 9.25836 21.5424 9.20106 21.177 9.19867C19.6636 9.18673 18.1477 9.19389 16.6343 9.19151C16.2948 9.19151 15.9577 9.19151 15.6583 9.19151C15.5239 8.89067 15.432 8.59699 15.2693 8.35107C15.0878 8.0765 15.1679 7.90698 15.3471 7.68015C15.6701 7.27426 15.9789 6.85404 16.2382 6.40518C16.4645 6.01122 16.4433 5.55996 16.3231 5.12542C16.1769 4.59299 15.6489 4.19664 15.1066 4.17993C13.9232 4.14412 13.0934 4.66939 12.5724 5.74381C12.2211 6.46248 12.0066 7.21218 11.9359 8.00726C11.9288 8.09082 11.8251 8.23169 11.7614 8.23408C10.8397 8.26273 10.0146 8.5755 9.28379 9.04347C8.87359 8.18394 8.45869 7.33395 8.06735 6.46964C7.93769 6.18552 7.87404 5.87035 7.78917 5.56713C7.58643 4.84846 7.82454 4.25872 8.31724 3.74539C9.24843 2.7808 10.4059 2.23404 11.6695 1.88783C13.3409 1.42941 15.0501 1.43419 16.7569 1.49388C18.9375 1.57028 21.0309 2.09794 23.0677 2.86436C23.8339 3.15326 24.5435 3.52334 24.8782 4.34706C24.9395 4.49748 24.9725 4.67894 24.9584 4.8413C24.9065 5.48595 24.7556 6.10673 24.4633 6.68691C24.0154 7.57988 23.4284 8.40837 23.261 9.42788" fill="white"/>
<path d="M21.2688 12.5649L21.2547 12.4288C21.1439 12.4288 21.0284 12.4073 20.9223 12.4336C20.5946 12.51 20.2693 12.5936 19.9463 12.6915C19.8544 12.7177 19.7789 12.7989 19.6964 12.8538C19.8049 12.8705 19.9227 12.9183 20.0241 12.8968C20.3542 12.8299 20.6771 12.7368 21.0024 12.6533C21.092 12.6294 21.1816 12.596 21.2712 12.5673M15.8821 13.2907C15.8703 13.2693 15.8562 13.2454 15.8444 13.2239C14.9132 13.1284 13.982 13.0281 13.0508 12.9398C12.999 12.935 12.94 13.0042 12.8834 13.0377C12.9353 13.0806 12.9848 13.157 13.0414 13.1618C13.8806 13.2454 14.7199 13.3242 15.5615 13.3886C15.6652 13.3958 15.776 13.3266 15.8821 13.2907ZM22.8813 10.9413C22.5065 13.3695 22.8577 15.7571 23.143 18.097C21.4999 17.789 19.8709 17.481 18.2325 17.1754C18.355 16.4782 18.4918 15.7309 18.6144 14.9836C18.777 13.9808 18.9326 12.9756 19.0835 11.9704C19.0929 11.9155 19.0293 11.8486 19.001 11.7866C18.9586 11.8343 18.8855 11.8749 18.8737 11.9298C18.737 12.6604 18.6049 13.3886 18.4823 14.1216C18.3338 14.9931 18.1971 15.867 18.0533 16.7408C18.025 16.908 17.9849 17.0703 17.9519 17.2231C15.2857 17.0679 12.6524 17.0393 9.98145 17.5622C11.1531 15.3321 12.0466 13.0042 12.7444 10.5832C13.5011 11.3544 14.3333 11.3377 15.1183 10.6333C15.3069 10.4638 15.6558 10.4185 15.934 10.4137C17.1221 10.3922 18.3173 10.3468 19.5008 10.4232C20.5569 10.4925 21.6036 10.7097 22.655 10.8673C22.7375 10.8793 22.813 10.9175 22.8813 10.9413Z" fill="white"/>
<path d="M7.91187 3.78583C8.0651 3.28921 8.33385 2.86661 8.6686 2.48936C9.46306 1.59401 10.4838 1.10217 11.613 0.80133C13.0134 0.428864 14.4255 0.116089 15.88 0.0707243C17.3369 0.0253599 18.7749 0.209205 20.1729 0.595997C21.3351 0.918323 22.4879 1.3075 23.6006 1.77547C24.4493 2.13122 24.7864 2.94778 24.9655 3.8885C24.0933 2.76394 22.8438 2.48698 21.6533 2.12406C20.7575 1.84949 19.8358 1.64415 18.9164 1.46508C18.2893 1.34332 17.6457 1.27408 17.0092 1.26214C15.8682 1.24065 14.7296 1.14992 13.5862 1.29318C12.2613 1.46031 10.9647 1.70384 9.77895 2.35327C9.43241 2.54189 9.0953 2.75916 8.78176 3.00031C8.47765 3.2343 8.2089 3.51365 7.91187 3.78344" fill="white"/>
<path d="M8.58643 17.3785C8.63357 16.9559 8.68308 16.5357 8.72316 16.1131C8.83631 14.9026 8.9259 13.6897 9.05791 12.4816C9.11921 11.9181 9.23472 11.357 9.36909 10.8079C9.47753 10.359 9.77929 10.0247 10.1989 9.85043C10.6728 9.65226 11.1678 9.51377 11.7053 9.39917C10.9651 12.1927 9.93016 14.8429 8.69015 17.4096C8.65715 17.4 8.62179 17.3905 8.58878 17.3809" fill="white"/>
<path d="M15.425 10.2061C15.4863 9.99833 15.5382 9.78822 15.616 9.59005C15.6372 9.53514 15.7409 9.485 15.8093 9.485C17.3416 9.47306 18.8716 9.45157 20.404 9.46829C21.1843 9.47545 21.9646 9.53753 22.7425 9.60677C23.0561 9.63542 23.3649 9.74047 23.6714 9.8312C23.9684 9.91954 24.0698 10.2252 23.9095 10.4926C23.768 10.7266 23.4757 10.8173 23.1952 10.7695C22.1319 10.5809 21.0711 10.3445 20.0008 10.2419C18.848 10.132 17.6811 10.1392 16.5213 10.1153C16.1582 10.1082 15.7952 10.175 15.4274 10.2061" fill="white"/>
<path d="M13.2988 6.75723C13.4428 6.17655 13.7495 5.73685 14.2284 5.4262C14.5092 5.2422 14.8112 5.23503 14.9646 5.39036C15.1581 5.58631 15.1699 5.83961 14.9953 6.19088C14.7003 5.9567 14.3677 5.92325 14.0609 6.12159C13.7896 6.29603 13.5607 6.53738 13.3012 6.75962" fill="white"/>
<path d="M14.299 9.06928C14.3296 9.31791 14.3934 9.54503 14.3698 9.76258C14.358 9.87494 14.2093 10.0112 14.0912 10.059C13.985 10.0997 13.8198 10.0662 13.7136 10.004C13.5814 9.92514 13.5979 9.77453 13.7018 9.66456C13.8906 9.46614 14.0889 9.27488 14.2966 9.06689" fill="white"/>
<path d="M14.343 47.6604C14.6308 47.5887 14.763 47.6508 14.8007 47.9352C14.855 48.3366 14.9611 48.7333 15.0508 49.1467C14.7464 49.1324 14.468 49.1204 14.1448 49.1061C14.2132 48.6114 14.2769 48.1359 14.343 47.658" fill="white"/>
</svg>
