<svg width="69" height="59" viewBox="0 0 69 59" fill="none" xmlns="http://www.w3.org/2000/svg">
<path d="M60.0376 44.4187C60.0769 44.4362 60.1163 44.4559 60.1556 44.4733C60.2146 44.2876 60.2758 44.1019 60.3348 43.9161C60.3064 43.9052 60.2758 43.8943 60.2474 43.8834L60.0376 44.4187ZM44.9471 46.1668C44.8575 46.0816 44.792 46.0204 44.7045 45.9374C44.6346 46.1428 44.5778 46.3067 44.521 46.4727C44.5341 46.4793 44.5472 46.4859 44.5625 46.4946C44.6805 46.3941 44.8007 46.2936 44.9471 46.169M46.7389 54.1841C46.7498 54.2081 46.7586 54.23 46.7695 54.254C47.1432 54.1491 47.519 54.042 47.8927 53.9372C47.8839 53.9087 47.8774 53.8825 47.8686 53.8541C47.4928 53.9634 47.1147 54.0726 46.7389 54.1841ZM20.9675 57.807C20.7883 57.4377 20.4627 57.641 20.2049 57.5404C20.2005 57.5645 20.1939 57.5863 20.1896 57.6104C20.4496 57.6759 20.7074 57.7415 20.9675 57.807ZM38.3043 53.0216C38.4573 52.5911 38.3174 52.3857 37.9809 52.5059C38.088 52.6763 38.1907 52.8402 38.3043 53.0216ZM5.62567 44.5455C5.83107 44.4712 6.00807 44.4078 6.24406 44.3226C5.95125 44.2308 5.71744 44.1587 5.43556 44.0691C5.48363 44.2068 5.50985 44.2876 5.54045 44.3663C5.5623 44.4209 5.5907 44.4733 5.62348 44.5433M64.48 38.1037C64.4581 38.0796 64.4341 38.0578 64.4122 38.0338C64.2615 38.1496 64.1238 38.2916 63.9577 38.3746C63.7567 38.4752 63.7021 38.6041 63.7895 38.8969C64.043 38.6063 64.2615 38.3528 64.48 38.1015M29.1967 58.0496C29.5594 58.0037 29.9003 57.9622 30.2455 57.9185C29.9921 57.6016 29.6687 57.641 29.1967 58.0496ZM40.0939 56.3277C40.2491 56.2774 40.3365 56.2447 40.4282 56.2228C40.5288 56.1966 40.6315 56.1725 40.7342 56.1594C41.0969 56.1135 41.1362 56.0458 40.9789 55.6809C40.7058 55.8819 40.4326 56.0808 40.0939 56.3277ZM1.75361 39.0171C1.82791 38.5691 1.98961 38.0928 1.49358 37.7278C1.58536 38.1845 1.67058 38.6019 1.75361 39.0171ZM43.907 47.8472C43.7191 48.1203 43.5464 48.3672 43.3388 48.6688C43.6207 48.5639 43.8392 48.4831 44.0621 48.4C44.0075 48.2099 43.9616 48.046 43.907 47.8472ZM45.1459 44.4012C44.9012 44.9934 44.9537 45.1791 45.4693 45.5135C45.3601 45.1354 45.2552 44.7793 45.1459 44.4012ZM6.90615 43.9292C6.928 43.9292 6.94986 43.9292 6.97171 43.9314C7.06567 43.6037 7.15963 43.2759 7.26014 42.9241C7.10937 42.911 6.99574 42.9001 6.83186 42.8848C6.85808 43.2606 6.88212 43.5949 6.90615 43.9292ZM43.9092 51.9552C44.1255 51.8919 44.3243 51.8329 44.521 51.7761C44.4642 51.4876 44.2457 51.4395 43.6885 51.5663C43.7584 51.6887 43.8261 51.8088 43.9092 51.9552ZM35.7958 56.9789C35.7958 56.9789 35.8045 56.9985 35.8089 57.0094C36.2415 56.9854 36.6764 56.9701 37.1068 56.9286C37.1964 56.9199 37.2751 56.8062 37.3603 56.7407C37.2707 56.6992 37.1724 56.6074 37.0959 56.6249C36.6589 56.7297 36.2284 56.8587 35.7936 56.9789M67.6331 29.6429C67.679 29.6341 67.7249 29.6254 67.773 29.6166C67.8101 28.9218 67.8473 28.2247 67.8844 27.5298C67.8626 27.5298 67.8407 27.5276 67.8189 27.5255C67.7205 28.1373 67.6156 28.7491 67.5282 29.361C67.5173 29.4484 67.596 29.5489 67.6353 29.6429M5.12746 45.8522C5.15368 45.8391 5.1799 45.8238 5.20612 45.8106C5.05535 45.1923 4.79532 44.646 4.21189 44.316C4.18785 44.3313 4.16381 44.3466 4.13978 44.3641C4.46973 44.8601 4.7975 45.3561 5.12746 45.8522ZM32.1379 48.8808C32.3302 48.8633 32.4787 48.8589 32.623 48.8283C32.6732 48.8174 32.741 48.7475 32.7475 48.6972C32.7868 48.4197 32.8174 48.14 32.8305 47.8603C32.8349 47.7773 32.7694 47.692 32.7213 47.5719C32.5224 48.022 32.3411 48.4263 32.14 48.8829M28.8733 53.5416C28.8886 53.5722 28.906 53.6006 28.9213 53.6312C29.4676 53.4171 30.0139 53.2008 30.5733 52.9801C30.5362 52.8358 30.5012 52.7047 30.4662 52.5736C29.9243 52.9036 29.3977 53.2204 28.8733 53.5395M63.2497 36.915C63.2279 36.8997 63.2061 36.8844 63.1842 36.8669C62.9001 37.0133 62.6161 37.1597 62.2839 37.3323C62.4522 37.5814 62.6008 37.8021 62.7494 38.0228C62.7799 38.0141 62.8127 38.0054 62.8433 37.9966C62.9788 37.6361 63.1121 37.2755 63.2476 36.915M35.5532 50.4999C35.8067 50.8583 36.1651 51.0506 36.5824 51.1467C36.8468 51.2079 37.1178 51.2385 37.3734 51.3215C37.5854 51.3893 37.6422 51.3128 37.6488 51.1926C36.9408 50.9566 36.2525 50.7294 35.5532 50.4978M56.454 49.3462C56.454 49.3462 56.454 49.3265 56.454 49.3156C56.3644 49.3462 56.2726 49.3702 56.1896 49.4096C55.8006 49.5909 55.4292 49.8225 55.0249 49.9493C54.6076 50.0804 54.4699 50.3426 54.4633 50.7228C55.1254 50.2661 55.7919 49.8051 56.4562 49.3462M37.7711 56.9505C38.4944 56.7778 39.1915 56.6118 39.8885 56.4457C39.8841 56.4304 39.8776 56.4151 39.8732 56.3998C39.1652 56.4326 38.4573 56.4675 37.7362 56.5003C37.7471 56.6489 37.7558 56.7582 37.7689 56.9505M55.9077 41.3311C55.9317 41.3136 55.9536 41.294 55.9776 41.2765C55.9383 41.1913 55.9143 41.0929 55.8553 41.023C55.3942 40.4746 54.9288 39.9283 54.4568 39.3864C54.4131 39.3361 54.3148 39.3339 54.2426 39.3121C54.2645 39.3864 54.2689 39.4781 54.3148 39.5328C54.778 40.0922 55.2478 40.645 55.7198 41.1956C55.7679 41.2525 55.8443 41.2874 55.9077 41.3311ZM50.4471 51.7367C50.3728 52.1038 50.3072 52.4229 50.2351 52.7812C50.6503 52.6086 51.0086 52.46 51.3976 52.2983C51.0742 52.106 50.7836 51.9334 50.4471 51.7345M60.7259 43.785C61.0078 43.5425 61.2984 43.2977 61.5803 43.0443C61.6153 43.0137 61.6393 42.9306 61.624 42.8891C61.5585 42.6946 61.4754 42.5067 61.3727 42.2511C61.0887 42.7908 60.5904 43.1557 60.7259 43.785ZM3.12806 41.6698C3.38154 42.581 3.82293 43.3349 4.51344 43.9445C4.4304 43.7085 4.30366 43.4988 4.19222 43.2803C4.04582 42.9962 3.83604 42.7209 3.78797 42.4193C3.7246 42.0129 3.5192 41.8075 3.12806 41.672M26.9613 58.0998C25.7857 57.6366 24.7783 57.6825 24.267 58.22C25.187 58.1785 26.0741 58.1392 26.9613 58.0998ZM63.3874 22.1653C63.217 22.3248 63.0771 22.4407 62.9548 22.5761C62.9111 22.6242 62.8826 22.7182 62.8958 22.7815C63.005 23.3169 63.3 23.7517 63.6868 24.1713C63.5863 23.4983 63.4901 22.8558 63.3874 22.1675M2.72381 37.7104C2.68885 38.1299 2.64733 38.5516 2.6233 38.9712C2.62111 39.0258 2.68448 39.1001 2.73692 39.1373C2.88988 39.2487 3.05158 39.347 3.23076 39.4628C3.21328 39.1329 3.17832 38.8444 3.19143 38.5582C3.20673 38.1998 3.04284 37.942 2.72381 37.7082M64.3074 36.2223C64.7706 35.971 65.2273 35.7219 65.6884 35.475C66.2084 35.1975 66.4728 34.7539 66.5537 34.1967C65.8064 34.8719 65.0569 35.5471 64.3074 36.2223ZM32.5093 54.4507C32.5312 54.4375 32.5552 54.4266 32.5771 54.4135C32.5771 54.171 32.5793 53.9284 32.5771 53.6859C32.5771 53.6378 32.5618 53.5635 32.529 53.5482C32.1226 53.3537 31.7008 53.2204 31.2485 53.2598C31.2354 53.286 31.2223 53.3122 31.2092 53.3384L32.5115 54.4507H32.5093ZM2.65826 39.6245C2.71726 40.0004 2.77189 40.3587 2.83525 40.7149C2.84181 40.7564 2.89207 40.8089 2.93359 40.8264C3.14336 40.9225 3.35532 41.0099 3.58257 41.1061C3.55198 40.2604 3.29195 39.8387 2.65826 39.6223M2.11198 30.1476C2.42445 29.6866 2.73911 29.2277 3.0494 28.7666C3.07999 28.7207 3.08436 28.6508 3.08436 28.5918C3.08654 28.2706 3.08436 27.9494 3.08436 27.5976C2.59489 28.393 2.29334 29.2452 2.10979 30.1476M21.7388 57.6366C22.2305 57.9338 22.709 58.2222 23.2968 58.2178C23.5962 58.2178 23.9021 58.0365 24.0332 57.7415C23.2684 57.7065 22.5036 57.6715 21.7388 57.6366ZM63.4224 24.5209V26.6776C63.63 26.6012 63.8135 26.5247 64.0036 26.47C64.1478 26.4285 64.1522 26.3499 64.1435 26.2166C64.0954 25.5763 63.6693 25.1087 63.4224 24.5209ZM6.65486 47.172C6.6789 47.1632 6.70075 47.1545 6.72479 47.1458C6.49972 46.3438 6.4735 45.5309 6.6199 44.6678C6.39046 44.7268 6.19817 44.7749 6.00806 44.823C5.81796 44.871 5.74803 44.9606 5.83981 45.1617C5.94251 45.3824 6.01025 45.6205 6.10203 45.8478C6.28339 46.2914 6.46913 46.7306 6.65268 47.172M16.8179 56.0196C16.8332 55.9912 16.8463 55.965 16.8594 55.9365C16.6737 55.6525 16.488 55.3662 16.3 55.0843C16.2782 55.0516 16.2388 55.0079 16.2061 55.0035C15.7843 54.9576 15.3626 54.9161 14.8535 54.8658C14.9147 55.0363 14.9234 55.2089 14.9933 55.2417C15.5942 55.5148 16.2083 55.7617 16.8179 56.0174M6.64831 40.35C6.71168 39.7819 6.40357 38.757 6.08673 38.4183C5.82014 38.5997 5.60382 39.1045 5.66937 39.4038C5.68029 39.4519 5.70652 39.5065 5.74148 39.5371C6.02992 39.8015 6.32491 40.0616 6.64831 40.35ZM66.121 35.7022C65.0459 36.1873 63.9665 36.6702 63.7217 38.1146C63.9293 37.9092 64.0998 37.765 64.2418 37.5967C64.4385 37.3629 64.6067 37.1051 64.799 36.8669C65.0175 36.5938 65.2885 36.3927 65.6337 36.3075C66.0467 36.207 66.0904 36.1545 66.1232 35.7022M21.2384 56.2272C21.9704 57.075 22.8882 56.8477 23.795 56.922C23.594 56.6751 23.4389 56.4763 23.275 56.2862C23.2466 56.2534 23.1854 56.2315 23.1395 56.2294C22.5277 56.225 21.9136 56.2272 21.2384 56.2272ZM4.49158 41.3464C4.86087 41.1039 5.17116 40.9028 5.50767 40.6821C5.0335 40.2429 4.59428 39.8365 4.15507 39.4301C4.13322 39.441 4.10919 39.4519 4.08733 39.4628C4.21844 40.0725 4.34736 40.68 4.4894 41.3464M45.4409 54.6932C45.4082 54.691 45.3797 54.6801 45.3601 54.6888C44.8291 54.8899 44.285 54.9838 43.7125 54.9161C43.4852 54.8899 43.2624 55.2045 43.3279 55.4318C43.3738 55.5891 43.4394 55.7421 43.5005 55.906C44.2544 55.6634 44.9143 55.2919 45.4431 54.6932M45.2268 46.4771C44.3768 47.0234 44.0883 47.8013 44.5472 48.2864C44.9209 47.8188 45.288 47.3599 45.6638 46.8879C45.5065 46.7393 45.3732 46.6148 45.2268 46.4771ZM61.9518 43.2737C61.825 43.3655 61.7223 43.4179 61.6459 43.4944C61.3443 43.7981 61.0515 44.1106 60.7521 44.4165C60.4419 44.7312 60.3741 45.2097 60.5861 45.6052C61.2766 44.9956 61.6371 44.1849 61.9496 43.2737M1.95902 37.6011C2.2409 37.1247 2.24745 36.9084 2.0049 36.4758C1.91968 36.3228 1.83446 36.1677 1.76673 36.0081C1.64873 35.7328 1.54166 35.4531 1.42147 35.1494C1.08715 36.6877 1.0653 36.5872 1.95902 37.6011ZM30.1844 56.6992C30.405 57.0116 30.5012 57.0663 30.6979 57.0553C31.124 57.0313 31.5501 57.0204 31.9762 56.9942C32.0439 56.9898 32.1553 56.9636 32.1706 56.9199C32.2624 56.6555 32.3345 56.3823 32.4328 56.0349C31.6243 56.2731 30.9076 56.4828 30.1844 56.697M61.7617 40.0878C61.1302 40.1949 60.6953 40.5838 60.2649 40.9771C60.2474 40.9924 60.2343 41.0252 60.2365 41.0471C60.2758 41.4666 60.3195 41.884 60.3676 42.356C60.8483 41.5737 61.305 40.8307 61.7617 40.0878ZM67.4124 29.9575C67.1131 30.4688 66.829 30.9605 66.5384 31.4456C66.2915 31.8608 66.1691 32.2978 66.274 32.8004C66.3199 32.7807 66.333 32.7348 66.3614 32.702C66.9426 32.0072 67.3447 31.2205 67.5676 30.3399C67.6178 30.1389 67.5719 30.0253 67.4124 29.9553M26.6291 57.5492C27.654 57.9207 28.6548 58.0321 29.6512 57.2913C29.4654 57.1864 29.2688 56.9767 29.1158 57.0029C28.2833 57.1515 27.4617 57.3591 26.6291 57.5492ZM4.84339 42.4587C4.99416 42.8476 5.13183 43.206 5.27386 43.56C5.28479 43.5862 5.32849 43.6037 5.35908 43.6146C5.73492 43.7435 6.11295 43.8702 6.51283 44.0057C6.48661 43.5949 6.46257 43.2213 6.43854 42.8367C5.9294 42.7165 5.42245 42.5941 4.8412 42.4587M57.6383 48.3432C57.6536 48.3607 57.6711 48.3782 57.6886 48.3957C57.8241 48.3039 57.977 48.2296 58.095 48.116C58.7855 47.4582 59.4717 46.7918 60.1512 46.1231C60.208 46.0685 60.2452 45.9527 60.2321 45.8762C60.1884 45.5878 60.1206 45.3015 60.0485 44.9475C59.9349 45.0852 59.8213 45.1857 59.7514 45.3124C59.5481 45.6905 59.3821 46.0882 59.1679 46.4574C58.7571 47.1632 58.2502 47.7969 57.6383 48.3454M62.6335 21.9293C62.8368 21.6518 63.3306 21.512 63.1077 20.9832C63.1012 20.9679 63.1143 20.946 63.1077 20.9307C63.0596 20.8302 63.0378 20.6926 62.9569 20.6401C62.544 20.3604 62.12 20.0982 61.6939 19.836C61.5191 19.7289 61.3356 19.6371 61.1564 19.5388C61.6481 20.3364 62.1288 21.1143 62.6292 21.9272M43.0875 54.8418C42.4735 54.8484 41.9338 54.9838 41.4553 55.3203C41.4072 55.3553 41.3788 55.4514 41.381 55.517C41.3831 55.6372 41.3963 55.7661 41.44 55.8776C41.4706 55.9562 41.5601 56.0677 41.6257 56.0698C42.0452 56.0764 42.4648 56.0655 42.8821 56.0414C43.0635 56.0305 43.1247 55.906 43.0438 55.7421C42.8953 55.4471 42.8931 55.1565 43.0875 54.844M44.0031 54.4987C44.5188 54.5927 44.9078 54.4288 45.2989 54.289C45.3404 54.2737 45.3863 54.219 45.395 54.1753C45.5065 53.6378 45.5065 53.1112 45.1918 52.6326C45.1459 52.5649 45.0345 52.484 44.9689 52.4972C44.7482 52.5387 44.5363 52.6195 44.2872 52.6938C44.6477 53.3581 44.6696 53.9612 44.0031 54.4987ZM31.0213 52.8074C31.5391 52.8905 32.0483 52.9713 32.588 53.0587C32.588 52.7135 32.5924 52.3464 32.5836 51.9793C32.5836 51.9246 32.529 51.8394 32.4831 51.8263C32.0767 51.7061 31.6659 51.6144 31.2463 51.7564C31.0453 51.8241 30.9207 51.9618 30.9426 52.189C30.9644 52.4119 30.9972 52.6348 31.0191 52.8074M38.7304 53.2619C40.3452 52.8468 41.9316 52.4381 43.5289 52.0295C43.2055 51.4395 43.1881 51.409 42.5937 51.6122C42.1239 51.7739 41.6803 52.0077 41.228 52.2218C40.4545 52.5889 39.6809 52.9451 38.761 52.6829C38.7501 52.8861 38.7413 53.0653 38.7326 53.2641M62.002 42.7624C62.7515 42.4608 62.9482 42.1921 62.9482 41.4644C62.9482 41.2022 62.9198 40.9378 62.9482 40.68C62.9875 40.3216 63.0706 39.9676 63.147 39.5481C63.029 39.6355 62.9089 39.6813 62.8564 39.7688C62.45 40.4418 62.0545 41.1214 61.659 41.8009C61.6284 41.8534 61.6065 41.9408 61.6284 41.991C61.7464 42.2511 61.8775 42.5045 62.0042 42.7602M53.6701 50.4497C53.6177 50.4475 53.6068 50.4453 53.6002 50.4475C52.7196 50.642 51.8368 50.8124 50.9256 50.6398C50.8688 50.6289 50.7595 50.701 50.7377 50.7578C50.7158 50.8168 50.7508 50.9413 50.8011 50.9719C51.2403 51.2385 51.6839 51.5007 52.1384 51.7455C52.37 51.87 52.6278 51.8394 52.8398 51.6952C53.2724 51.4002 53.55 50.9916 53.6701 50.4519M34.0739 23.566C33.2632 23.5026 32.494 23.4458 31.7271 23.3868C31.7161 23.4174 31.703 23.4502 31.6921 23.4808C32.6535 24.0314 33.3528 24.8377 33.9187 25.773C33.9406 25.7642 33.9624 25.7533 33.9843 25.7446C34.0127 25.03 34.0433 24.3155 34.0717 23.5682M32.6164 51.4002C32.6535 50.6835 32.6907 49.9646 32.7278 49.2522C32.5028 49.2522 32.3192 49.2675 32.1379 49.2479C31.9543 49.2282 31.856 49.2959 31.7686 49.4576C31.4124 50.1197 31.0409 50.7753 30.6804 51.4352C30.6476 51.4964 30.6476 51.575 30.6323 51.645C30.9295 51.4068 31.2354 51.2953 31.5806 51.3084C31.9172 51.3215 32.2537 51.3652 32.6186 51.3958M17.4232 56.166C18.5922 56.4894 19.8858 56.7953 21.2472 56.7734C20.9478 56.5353 20.6616 56.2119 20.3185 56.1288C19.2412 55.8688 18.2011 55.5257 17.1959 55.0625C17.0648 55.0013 16.8944 55.0297 16.7108 55.0144C16.9534 55.4077 17.161 55.7421 17.4232 56.166ZM46.2035 26.1685C46.2276 26.1619 46.2516 26.1554 46.2757 26.1488C46.2625 25.9085 46.2713 25.6637 46.2298 25.4277C46.0987 24.6542 45.9501 23.8828 46.4789 23.1836C46.4854 23.1749 46.4745 23.153 46.4723 23.1377C46.1074 23.0306 44.7439 23.2732 44.2173 23.5376C44.8794 24.416 45.5415 25.2923 46.2035 26.1685ZM10.5488 52.259L10.4767 52.3442C10.551 52.3879 10.6384 52.4207 10.6952 52.4797C11.4709 53.3166 12.4651 53.8432 13.42 54.431C13.8002 54.667 14.1368 54.5927 14.5476 54.4791C14.4667 54.2933 14.4186 54.112 14.3159 53.9656C14.0756 53.6203 13.8155 53.2904 13.5511 52.9648C13.514 52.9189 13.4091 52.8948 13.3435 52.908C12.5001 53.0653 11.7309 52.8358 10.9836 52.4775C10.8372 52.4076 10.693 52.3311 10.5488 52.259ZM65.8632 36.6746C65.5201 36.6768 65.3409 36.9128 65.306 37.1007C65.2229 37.5421 64.9869 37.8983 64.7684 38.2588C64.5871 38.5582 64.3773 38.8881 64.0932 39.0673C63.7501 39.2837 63.5644 39.5415 63.4857 39.9152C63.4814 39.9326 63.4748 39.9479 63.4705 39.9654C63.241 40.5794 63.3481 41.2131 63.3219 41.8927C64.5346 40.2976 65.2579 38.5363 65.8653 36.6768M63.9949 21.4093C64.2199 22.6089 64.4297 23.7386 64.6417 24.8683C64.6701 24.8815 64.6985 24.8924 64.7269 24.9055C65.0525 24.0227 65.7823 24.0926 66.5384 24.1472C65.8566 23.0547 65.0765 22.1413 63.9949 21.4093ZM43.4372 51.114C43.5333 51.1227 43.6797 51.1314 43.8261 51.1489C44.2238 51.1926 44.5428 51.1008 44.7286 50.7032C44.8007 50.548 44.9252 50.4147 45.0367 50.2792C45.1831 50.1022 45.2115 49.9034 45.0979 49.7198C44.934 49.4554 44.7308 49.2129 44.5516 48.955C44.4139 48.7562 44.2282 48.73 44.0228 48.8021C43.7846 48.8873 43.5552 48.9966 43.3192 49.084C43.1028 49.1648 43.0657 49.3156 43.1094 49.5232C43.2208 50.0411 43.3235 50.5611 43.4372 51.114ZM38.6386 54.1972C38.3065 54.5512 37.9918 54.8789 37.6881 55.2155C37.5657 55.3509 37.4368 55.4886 37.3538 55.6481C37.2401 55.8666 37.4346 56.1616 37.6662 56.1507C38.2169 56.1223 38.7654 56.0698 39.316 56.0611C39.9628 56.0524 40.3867 55.6656 40.8194 55.2657C40.2338 54.5687 39.3335 54.5665 38.6386 54.1972ZM3.34876 35.5646C3.67216 35.6345 3.76394 35.8486 3.77486 36.1305C3.78579 36.4452 3.80327 36.7598 3.8273 37.0745C3.83604 37.175 3.84915 37.2952 3.90815 37.3695C4.36703 37.9507 4.83683 38.5232 5.27605 39.063C5.43993 38.7352 5.61256 38.3943 5.79829 38.025C5.82014 38.06 5.81359 38.0425 5.80048 38.0294C5.74366 37.9748 5.68903 37.9179 5.62785 37.8677C5.15586 37.4962 4.94828 36.9893 4.88272 36.4124C4.83902 36.0387 4.83028 35.6585 4.76691 35.2892C4.72321 35.0379 4.61395 34.7954 4.53529 34.5507C4.50688 34.555 4.47847 34.5594 4.45007 34.5616C4.22937 35.0489 3.82512 35.3286 3.35095 35.5624M64.2855 31.2293C64.5062 29.739 64.4559 28.2771 64.2134 26.7891C64.032 26.8524 63.8791 26.9267 63.7196 26.9595C63.4617 27.0141 63.3634 27.1824 63.276 27.4096C63.1318 27.7833 63.0006 28.181 62.7668 28.4935C62.5068 28.8387 62.5243 29.2189 62.4128 29.6188C63.4836 29.6538 63.9599 30.353 64.2855 31.2293ZM39.1893 53.9743C39.2767 54.0289 39.2963 54.0464 39.3204 54.053C39.9759 54.2321 40.6074 54.4594 41.1035 54.9576C41.134 54.9882 41.2389 54.9838 41.2826 54.9554C41.9141 54.5512 42.6046 54.4201 43.3432 54.4725C43.4088 54.4769 43.4874 54.466 43.5399 54.4332C44.1014 54.0792 44.2435 53.6028 43.9966 52.9735C43.9376 52.8227 43.8742 52.7747 43.7081 52.8205C43.1684 52.9691 42.6221 53.0959 42.0802 53.2357C41.1406 53.4761 40.201 53.7186 39.1915 53.9787M67.1611 28.8606C67.1852 28.8584 67.207 28.854 67.2311 28.8518C67.2922 28.4367 67.3534 28.0215 67.4124 27.6063C67.5523 26.623 67.6091 25.655 66.9492 24.7962C66.8312 24.6455 66.7263 24.5406 66.5384 24.5209C65.365 24.3876 65.271 24.534 64.9585 25.3207C64.7553 25.832 64.893 26.1335 65.4327 26.2472C65.9528 26.3564 66.3439 26.6558 66.5821 27.1278C66.7154 27.3922 66.8115 27.6762 66.9055 27.9559C67.0038 28.2531 67.0781 28.5568 67.1611 28.8584M28.681 56.2884C28.2221 55.7027 27.82 55.187 27.4114 54.6648C26.2336 55.3531 24.9903 55.8207 23.6748 56.1725C23.8628 56.3911 24.0157 56.5943 24.1971 56.7713C24.2779 56.8499 24.4156 56.9242 24.5227 56.9177C25.0646 56.8871 25.6087 56.8609 26.144 56.7734C26.97 56.6402 27.7894 56.461 28.681 56.2884ZM44.993 50.9981C45.5939 50.961 46.1292 50.7818 46.5554 50.4016C46.9815 50.0214 47.3791 49.6193 48.0194 49.5035C47.2983 48.7016 46.6165 47.9455 45.926 47.1785C45.5174 47.6702 45.1394 48.1225 44.7657 48.5748C44.9558 48.8305 45.1875 49.0949 45.371 49.3921C45.6179 49.792 45.6354 50.2006 45.3011 50.5808C45.1875 50.7097 45.0957 50.8583 44.993 50.9981ZM42.7161 49.3593C42.6636 49.3833 42.6352 49.3877 42.6199 49.403C41.429 50.5218 40.0087 51.0724 38.383 51.1052C38.0858 51.1118 38.0115 51.3041 37.9656 51.5204C38.1295 51.6624 38.3109 51.7629 38.4136 51.9159C38.678 52.3158 39.0604 52.3813 39.4908 52.3704C40.1005 52.3551 40.6118 52.0623 41.1472 51.8219C41.6475 51.5969 42.1479 51.3521 42.6724 51.197C42.9564 51.1118 43.0242 50.9938 42.9805 50.7512C42.8996 50.2945 42.8122 49.84 42.7204 49.3549M14.6306 45.7473C14.0493 46.842 13.6866 47.9783 13.6254 49.1845C13.5642 50.3951 13.7194 51.5859 14.1936 52.72C14.1083 52.7616 14.0362 52.7987 13.9554 52.838C13.9903 52.8927 14.0122 52.932 14.0384 52.9648C14.3924 53.4083 14.8076 53.8148 14.9125 54.4113C14.919 54.4507 14.978 54.5031 15.0174 54.5075C15.3888 54.5512 15.7603 54.584 16.1318 54.6211C16.1493 54.5993 16.1646 54.5796 16.182 54.5577C16.1208 54.4681 16.0771 54.3567 15.9985 54.289C15.6598 53.9961 15.2949 53.7339 14.9737 53.4236C14.7704 53.227 14.5825 52.991 14.4645 52.7375C13.9226 51.5816 13.7915 50.3535 13.8745 49.0883C13.9423 48.046 14.2569 47.078 14.6896 46.1362C14.812 45.8696 14.9365 45.8369 15.2184 45.9046C16.6234 46.2367 18.0307 46.5536 19.4466 46.8333C20.0694 46.9557 20.7096 46.9819 21.3433 47.0452C21.6318 47.0737 21.9202 47.0889 22.2086 47.0977C22.2589 47.0977 22.3091 47.0343 22.3594 46.9994C22.3135 46.96 22.272 46.9032 22.2196 46.8901C22.1016 46.8595 21.9792 46.8508 21.8568 46.8377C20.8866 46.7328 19.9099 46.665 18.9462 46.5143C16.9031 46.1952 14.9103 45.6708 12.9808 44.9169C11.2961 44.2592 9.64849 43.5228 8.10798 42.5701C7.30166 42.0719 6.5172 41.5365 5.69122 40.9946C5.46397 41.1476 5.17553 41.3399 4.88928 41.5322C4.88928 41.5562 4.88928 41.5824 4.88928 41.6064C5.40497 41.7332 5.92066 41.8621 6.43854 41.9823C6.53687 42.0041 6.6636 41.9517 6.74882 41.9932C6.96734 42.0981 7.17711 42.227 7.38033 42.3647C9.4409 43.7566 11.7134 44.7115 14.0362 45.5594C14.2285 45.6293 14.4274 45.6839 14.635 45.7516M65.0241 26.6514C65.0284 26.6973 65.0285 26.7563 65.0394 26.8153C65.306 28.5372 65.271 30.2591 65.0437 31.9788C64.9367 32.7938 64.9301 32.7938 65.767 32.772C65.7823 32.772 65.7954 32.7545 65.8435 32.7239C65.7408 31.9547 66.1254 31.3298 66.5449 30.7114C66.6826 30.5103 66.7766 30.2787 66.8858 30.0602C67.0278 29.7783 67.1021 29.5074 66.8946 29.2036C66.7853 29.0441 66.7525 28.83 66.6935 28.6377C66.5952 28.3187 66.5209 27.9931 66.4095 27.6806C66.1822 27.0513 65.8042 26.5968 65.0241 26.6492M42.515 14.5458C42.1698 14.4999 41.7677 14.419 41.3613 14.3994C40.236 14.3469 39.1915 14.6463 38.1885 15.1423C36.9408 15.7585 36.1082 16.7112 35.7608 18.066C35.6734 18.4025 35.6231 18.75 35.551 19.1193C35.4003 18.9335 35.2713 18.7784 35.1446 18.621C35.1184 18.6298 35.0922 18.6363 35.0681 18.6451C35.0135 20.0392 34.9567 21.4311 34.9042 22.7925C35.4571 22.6439 35.9749 22.504 36.5322 22.3533C36.46 22.1194 36.353 21.8332 36.2852 21.5404C36.1104 20.769 35.9334 19.9955 35.8023 19.2176C35.763 18.9816 35.8482 18.7172 35.8985 18.4725C36.1061 17.4804 36.5147 16.5911 37.3428 15.9683C38.6758 14.9675 40.1704 14.4649 41.8508 14.6725C42.3555 14.7359 42.869 14.8473 43.2405 15.2669C43.2908 15.3237 43.4372 15.3412 43.518 15.3128C43.8829 15.1904 44.2435 15.0549 44.5975 14.9041C44.7745 14.8277 44.934 14.7075 45.1001 14.607C44.8859 14.5239 44.698 14.478 44.5057 14.4693C43.9288 14.4431 43.3519 14.4256 42.7729 14.4169C42.7052 14.4169 42.6352 14.4846 42.5172 14.5436M45.7993 54.1273C45.9391 54.0792 46.0397 54.053 46.1358 54.0114C47.0994 53.605 48.0871 53.3406 49.1491 53.4542C49.4375 53.4848 49.6692 53.2991 49.75 53.0085C49.8483 52.6545 49.9008 52.2874 50.0144 51.9399C50.1215 51.6165 50.0843 51.4221 49.7609 51.2276C49.5206 51.0834 49.3523 51.0943 49.1404 51.2057C48.994 51.2822 48.8497 51.374 48.6924 51.4199C47.7288 51.7061 46.7608 51.9815 45.7949 52.259C45.69 52.2896 45.5873 52.318 45.4606 52.3529C45.8233 52.9036 45.8889 53.4761 45.7993 54.1273ZM29.0262 16.7396C29.1355 16.9123 29.1989 17.0718 29.3103 17.1789C29.5244 17.3843 29.7583 17.5722 30.0008 17.7426C30.4138 18.0332 30.8159 18.3239 31.0169 18.8133C31.0366 18.8592 31.1021 18.916 31.1458 18.9139C31.4954 18.9073 31.8429 18.9182 32.14 18.6647C32.7759 18.1207 33.4664 17.6683 34.3427 17.5176C33.9013 16.9451 33.4773 16.3878 33.0425 15.8394C33.0119 15.8 32.9005 15.7979 32.8327 15.8153C32.5596 15.8809 32.293 15.9683 32.0199 16.0317C31.0497 16.2633 30.0773 16.4884 29.0219 16.7353M2.71726 35.5099C3.02318 35.3308 3.33346 35.1843 3.60005 34.9789C3.79453 34.8304 3.93875 34.6118 4.08733 34.413C4.19659 34.2666 4.166 34.1246 4.05674 33.9629C3.75082 33.5105 3.55635 33.0145 3.62627 32.4551C3.69183 31.9438 3.78579 31.4347 3.86227 30.9255C3.92345 30.5278 4.01304 30.1214 3.73334 29.763C3.5782 29.5642 3.41213 29.3763 3.23076 29.1556C3.1521 29.267 3.08654 29.3544 3.02536 29.4462C2.70852 29.9378 2.3873 30.4295 2.0792 30.9277C2.0049 31.0479 1.93498 31.1921 1.92843 31.3276C1.87161 32.7217 2.1666 34.059 2.63641 35.3613C2.65607 35.416 2.69322 35.4662 2.71726 35.5099ZM28.6963 16.7702C28.115 16.8904 27.5556 17.0019 27.0028 17.1264C26.9329 17.1417 26.863 17.216 26.8236 17.2816C26.5854 17.6661 26.3582 18.0595 26.1222 18.4462C25.9255 18.7653 25.6961 19.069 25.5191 19.399C25.3814 19.6568 25.5497 20.0982 25.7879 20.1244C26.3363 20.1812 26.8892 20.2424 27.3918 19.9081C27.7567 19.6655 28.1303 19.4339 28.5062 19.211C28.9629 18.9401 29.4523 18.8068 29.9899 18.8614C30.1844 18.8811 30.3832 18.8636 30.6345 18.8636C30.5362 18.7281 30.4772 18.6079 30.381 18.5271C30.1275 18.3129 29.861 18.1141 29.5944 17.9131C29.2054 17.6203 28.8361 17.3143 28.6985 16.7681M47.2524 22.9498C47.8424 23.1727 48.2794 23.6709 48.9371 23.7561C48.9481 23.684 48.9568 23.625 48.9677 23.566C49.0967 22.9323 49.1688 22.2811 49.3698 21.6715C49.6713 20.7581 50.2526 20.0021 50.9365 19.3312C51.0655 19.2067 51.0851 19.104 51.0021 18.9444C50.6852 18.3195 49.9576 17.9393 49.2605 18.0573C49.2321 18.6036 48.9109 18.9881 48.5263 19.34C48.3406 19.5104 48.1658 19.7005 48.0063 19.895C47.8184 20.1222 47.7463 20.391 47.8271 20.6838C48.0565 21.5185 47.9276 22.2637 47.283 22.8821C47.2764 22.8886 47.2743 22.8974 47.2502 22.9476M18.4109 31.0763C18.4109 30.7245 18.4065 30.3792 18.4109 30.034C18.4174 29.6407 18.3912 29.2408 18.4502 28.8562C18.5332 28.3121 18.6709 27.7768 18.8042 27.2436C18.9244 26.7607 18.7605 26.5094 18.2841 26.505C17.244 26.4941 16.4399 26.9748 15.7843 27.7396C15.7166 27.8183 15.6991 27.9669 15.7057 28.0783C15.7406 28.7076 15.7887 29.3369 15.8346 29.9663C15.8696 30.4492 15.9089 30.9321 15.9482 31.4543C16.7065 30.7573 17.5324 30.8512 18.4131 31.0785M30.6454 22.9695C30.6651 22.952 30.6847 22.9345 30.7044 22.917C30.593 22.6723 30.5012 22.4166 30.3679 22.1872C29.9724 21.5098 29.9768 20.863 30.4575 20.2271C30.558 20.096 30.6389 19.9452 30.7022 19.7945C30.8683 19.3968 30.8137 19.3159 30.3985 19.2831C30.3286 19.2788 30.2586 19.27 30.1887 19.2591C29.6184 19.1717 29.094 19.2941 28.6067 19.6C28.2374 19.8338 27.8703 20.0763 27.4901 20.2927C27.3109 20.3932 27.1077 20.4675 26.9045 20.5024C26.616 20.5527 26.3189 20.5549 26.0566 20.5746C26.1047 20.9154 26.2074 21.2541 26.1834 21.5841C26.1593 21.9097 26.0064 22.2287 25.9059 22.5608C27.4988 22.3358 29.0874 22.4581 30.6432 22.9695M34.4912 46.1537C34.5197 46.381 34.524 46.5929 34.5743 46.7918C34.6223 46.9819 34.6901 47.1851 34.9458 47.2048C35.208 47.2244 35.3325 47.0431 35.409 46.8486C35.5183 46.5754 35.5947 46.287 35.6625 46.0008C35.6843 45.9112 35.6275 45.8019 35.6078 45.7036C35.5314 45.7211 35.4549 45.7385 35.3784 45.7538C35.326 45.7648 35.2735 45.7691 35.2233 45.7779C34.2443 45.9396 33.2676 46.1253 32.2843 46.2564C31.1873 46.4028 30.0838 46.5011 28.9825 46.6191C28.5739 46.6628 28.1653 46.7022 27.7567 46.7393C27.0531 46.8049 26.3516 46.8879 25.6458 46.9294C25.1301 46.96 24.6101 46.9316 24.0944 46.9404C23.6443 46.9469 23.382 47.3665 23.5787 47.7663C23.6858 47.9849 23.8322 48.1837 23.9589 48.3913C25.2678 50.524 26.8411 52.4687 28.3051 54.49C28.6351 54.9445 28.9978 55.375 29.33 55.8273C29.4458 55.9846 29.555 56.0305 29.7473 55.9737C30.5121 55.7464 31.2813 55.5389 32.0461 55.3138C32.2143 55.2635 32.3695 55.1739 32.5312 55.1018C32.4154 54.9576 32.3127 54.7981 32.1772 54.6735C31.7598 54.289 31.3119 53.9306 30.9098 53.5307C30.7722 53.3931 30.6826 53.3603 30.5121 53.4258C29.8915 53.6662 29.2666 53.8978 28.6438 54.1316C28.5084 54.1819 28.4144 54.1753 28.3117 54.0377C27.4136 52.8315 26.4849 51.6471 25.6043 50.43C24.9837 49.5756 24.4134 48.6841 23.8387 47.7969C23.5896 47.4102 23.7491 47.1479 24.2015 47.1523C25.3836 47.1654 26.5614 47.1414 27.737 46.9928C28.6198 46.8814 29.5091 46.8224 30.3941 46.724C31.1742 46.6388 31.9521 46.5383 32.7278 46.4312C33.3135 46.3504 33.8969 46.2477 34.4891 46.1515M19.3898 25.8145C19.4095 25.8276 19.4291 25.8429 19.4466 25.856C19.5078 25.7774 19.569 25.6965 19.6302 25.62C20.3316 24.7307 21.1838 24.0314 22.2196 23.5594C23.1111 23.153 24.0441 22.893 25.0034 22.7138C25.1192 22.6919 25.2613 22.6723 25.3399 22.5958C25.8338 22.1173 25.9496 21.2978 25.6065 20.7013C25.5475 20.5986 25.4077 20.5046 25.2918 20.4806C24.7128 20.3648 24.2058 20.5483 23.7426 20.8958C23.3799 21.1689 23.0106 21.4421 22.6282 21.6868C22.1737 21.9774 21.6645 22.0583 21.1379 21.9381C20.8233 21.866 20.5195 21.748 20.2027 21.678C20.0847 21.6518 19.8749 21.6628 19.8378 21.7305C19.7001 21.9818 19.5996 22.268 19.711 22.5608C19.7984 22.7881 19.923 23.0022 20.0191 23.2273C20.1218 23.4677 20.2464 23.7058 20.2988 23.9571C20.3775 24.3483 20.2442 24.6957 19.9929 25.006C19.7809 25.266 19.5908 25.5435 19.392 25.8123M3.44272 28.4257C3.73334 28.3274 3.98682 28.2334 4.24466 28.1591C4.66421 28.039 5.00509 27.8117 5.26294 27.4577C5.47926 27.1605 5.69559 26.8612 5.92066 26.5727C6.32272 26.0571 6.83841 25.7468 7.50488 25.7074C7.8108 25.69 8.11672 25.6703 8.42045 25.631C8.49474 25.6222 8.604 25.5479 8.62367 25.4824C8.74603 25.0716 8.78974 24.6498 8.5887 24.2521C8.32867 23.7408 8.1779 23.212 8.24127 22.6351C8.24127 22.6242 8.2216 22.6111 8.18227 22.5674C7.79113 22.7925 7.37159 22.9935 6.99356 23.2557C5.79829 24.0817 4.84776 25.1524 3.98463 26.3127C3.50827 26.9508 3.49953 27.6719 3.44491 28.4257M48.7754 17.6399C48.6247 17.4236 48.5001 17.2138 48.3472 17.0281C47.8642 16.4425 47.4578 15.8306 47.4403 15.0331C47.4403 14.9675 47.3267 14.8604 47.2546 14.8473C46.787 14.7708 46.3172 14.7053 45.8474 14.655C45.7469 14.6441 45.6136 14.6791 45.5371 14.7424C44.9974 15.1882 44.368 15.4439 43.7059 15.6318C43.636 15.6515 43.5464 15.6536 43.4809 15.6274C42.6614 15.2865 41.8092 15.2057 40.9396 15.3412C39.8514 15.5094 38.8768 15.9399 38.0792 16.7069C37.2576 17.4979 36.7507 18.4572 36.8512 19.6262C36.8971 20.1463 37.0806 20.6576 37.2423 21.158C37.3844 21.595 37.6335 21.9971 37.6203 22.4778C37.616 22.6723 37.7383 22.7291 37.9197 22.7335C37.8826 22.6614 37.817 22.598 37.8236 22.5412C37.8826 21.9993 37.5963 21.5535 37.439 21.0684C37.2751 20.568 37.1003 20.0501 37.0675 19.5322C37.0063 18.5271 37.4281 17.6596 38.1382 16.9756C39.3095 15.8481 40.7189 15.3412 42.3512 15.5597C43.1575 15.6667 43.896 15.9268 44.379 16.6501C44.4707 16.7877 44.5822 16.9145 44.6914 17.039C44.7767 17.1373 44.8619 17.2488 44.9733 17.31C46.1686 17.9611 47.4207 18.042 48.7711 17.6356M48.8497 18.0485C47.6348 18.3282 46.4592 18.4462 45.3317 17.8628C45.312 17.9393 45.3011 17.9808 45.2945 18.0027C45.0432 17.8628 44.816 17.7164 44.5713 17.605C43.8414 17.2772 43.0766 17.2379 42.2878 17.334C41.3394 17.4476 40.5047 17.8038 39.7858 18.4266C38.8855 19.2088 38.4573 20.2686 38.112 21.3699C38.0858 21.4508 38.088 21.5448 38.1011 21.63C38.1098 21.6868 38.1579 21.737 38.1885 21.7917C38.2278 21.7414 38.289 21.6999 38.3065 21.6431C38.4398 21.2323 38.5381 20.8084 38.6933 20.4063C39.6241 18.007 42.0299 17.1133 44.0446 17.6705C45.5021 18.0726 46.0244 18.9881 45.6179 20.4609C45.3557 21.4115 44.8116 22.185 44.0512 22.8099C43.9725 22.8733 43.896 22.9411 43.8196 23.0066C43.8239 23.0416 43.8305 23.0765 43.8349 23.1093C43.9878 23.1137 44.1452 23.1465 44.2894 23.1159C44.615 23.0503 44.9384 22.9651 45.2574 22.8689C45.7097 22.7335 46.162 22.6767 46.6318 22.7531C46.7302 22.7684 46.8678 22.7116 46.9487 22.6417C47.4971 22.1697 47.6457 21.5753 47.4644 20.8827C47.3245 20.3473 47.4447 19.8753 47.8337 19.4776C48.0478 19.2591 48.2729 19.0493 48.4848 18.8264C48.6706 18.6276 48.8344 18.4113 48.8454 18.0485M15.6642 27.2042C15.7144 27.1889 15.7341 27.1889 15.7472 27.178C16.5863 26.4242 17.5303 25.9784 18.6927 26.1401C18.7474 26.1488 18.837 26.1139 18.8654 26.0702C19.1844 25.5807 19.4947 25.0847 19.805 24.5908C19.9492 24.3614 19.9863 24.1145 19.8858 23.8632C19.8159 23.684 19.7329 23.5092 19.6367 23.3431C19.3745 22.893 19.1888 22.4297 19.3701 21.8266C19.2172 21.9315 19.1167 21.984 19.038 22.0583C18.8282 22.2571 18.6185 22.4581 18.4283 22.6745C18.1334 23.0153 17.7619 23.1967 17.3205 23.1814C16.8944 23.1661 16.4705 23.1028 16.0444 23.0591C15.9264 23.0481 15.8106 23.0328 15.6642 23.0175V27.1999V27.2042ZM47.838 14.9151C47.8489 15.0855 47.8489 15.2232 47.8708 15.3586C47.9538 15.8722 48.2554 16.2698 48.5613 16.6697C48.7514 16.9188 48.935 17.1789 49.0923 17.4498C49.1688 17.5853 49.2431 17.6356 49.3938 17.6334C49.9663 17.6312 50.4886 17.7907 50.9103 18.1906C51.1026 18.3741 51.2534 18.6036 51.4238 18.8133C52.6475 17.841 53.987 17.098 55.6411 17.0019C53.1107 16.0011 50.5585 15.2232 47.8402 14.9172M31.2551 19.2963C31.124 19.6546 31.0213 19.9649 30.8945 20.2643C30.8312 20.415 30.7197 20.5461 30.6323 20.6882C30.4313 21.0116 30.4116 21.3437 30.5667 21.6912C30.7743 22.1588 30.9776 22.6286 31.1633 23.0547C31.62 23.0547 32.092 23.0416 32.5618 23.0591C32.9638 23.0722 33.3659 23.1137 33.768 23.1508C34.0061 23.1727 34.0979 23.1071 34.1088 22.8427C34.1613 21.4836 34.24 20.1266 34.3099 18.7696C34.3252 18.4943 34.3492 18.219 34.3689 17.9131C33.792 18.0136 33.3266 18.2561 32.9048 18.5708C32.3848 18.9554 31.9128 19.4339 31.2551 19.2963ZM26.4478 17.3078C26.4237 17.2816 26.3997 17.2575 26.3779 17.2313C24.2779 17.688 22.1802 18.1447 20.0366 18.6101C21.0527 19.4929 20.4802 20.3604 20.1 21.2257C20.3469 21.3109 20.5851 21.3984 20.8276 21.4748C21.3258 21.63 21.8284 21.689 22.3048 21.4202C22.5998 21.2519 22.8838 21.0575 23.1548 20.8499C23.747 20.3997 24.3391 19.9562 25.1891 20.096C24.9466 19.5322 25.187 19.1083 25.4798 18.6997C25.6546 18.4572 25.8425 18.2277 26.0129 17.983C26.1659 17.7645 26.3036 17.535 26.4478 17.31M9.01917 30.2394C8.47726 30.4535 8.01183 30.7114 7.84794 31.2424C7.60321 32.0356 7.00011 32.3328 6.28339 32.5141C6.07143 32.5666 5.85292 32.5993 5.64752 32.6714C5.15586 32.8419 4.94828 33.2636 4.72976 33.6963C4.55058 34.0481 4.77784 34.2513 4.91987 34.5004C4.92424 34.5091 4.92642 34.5157 4.9308 34.5244C5.23453 35.0226 5.20175 35.5908 5.23453 36.1349C5.27823 36.856 5.58415 37.4066 6.15884 37.8196C6.20691 37.8546 6.29432 37.8764 6.34676 37.8568C6.59805 37.7584 6.85371 37.6623 7.09189 37.5334C7.46118 37.3301 7.61632 36.9674 7.76054 36.5916C8.11235 35.6694 8.59307 34.8784 9.72716 34.7998C9.78616 34.7954 9.87575 34.6687 9.88449 34.5922C9.94567 34.0503 9.78834 33.5695 9.4409 33.1522C8.87933 32.4813 8.67392 31.7297 8.90336 30.8709C8.95362 30.6808 8.97984 30.4819 9.02573 30.2416M8.46415 26.0352C8.16916 26.0527 7.91568 26.0789 7.66439 26.0811C7.06785 26.0876 6.60023 26.3411 6.2375 26.8C6.0474 27.0404 5.86603 27.2895 5.69341 27.5429C5.33067 28.0717 4.84776 28.4192 4.22063 28.5743C3.989 28.6311 3.77049 28.7404 3.49953 28.8431C3.62846 29.007 3.70494 29.1359 3.80982 29.2364C4.27307 29.68 4.37577 30.2175 4.27089 30.8294C4.17255 31.3997 4.08733 31.9722 4.01522 32.5447C3.96715 32.9402 4.10263 33.2942 4.32988 33.6548C4.38014 33.5411 4.41729 33.4625 4.45007 33.3838C4.73413 32.7217 5.21049 32.3022 5.93596 32.1907C6.0321 32.1754 6.12825 32.1645 6.22002 32.1339C6.70512 31.9766 7.21863 31.8498 7.40436 31.2839C7.64254 30.5519 8.17353 30.1301 8.87059 29.8898C9.04977 29.8286 9.09784 29.7609 9.06943 29.5729C9.00169 29.1337 8.80503 28.7579 8.54282 28.4126C8.11453 27.8445 8.06427 27.2261 8.28716 26.5684C8.34397 26.4045 8.3986 26.2384 8.46634 26.0374M14.9168 28.3296C14.5738 28.3296 14.2526 28.3755 13.9488 28.3208C13.0835 28.1613 12.4127 28.4651 11.8336 29.0878C11.2393 29.7281 10.5094 30.1127 9.6179 30.1498C9.54798 30.152 9.43216 30.2132 9.42124 30.2634C9.33383 30.683 9.24424 31.1047 9.19836 31.5286C9.14373 32.0312 9.38628 32.4486 9.68564 32.8244C10.0222 33.2483 10.2516 33.7094 10.2866 34.2557C10.2953 34.4086 10.2866 34.5616 10.2866 34.7189C10.7345 34.708 11.0645 34.5485 11.283 34.2076C11.4643 33.9279 11.6086 33.6285 11.7834 33.3445C12.1942 32.6802 12.8432 32.1121 13.9161 32.4988C14.305 32.6387 14.6918 32.5819 15.0654 32.4092C15.1965 32.348 15.2381 32.2803 15.2228 32.1273C15.1507 31.4041 15.0917 30.6786 15.0348 29.9531C14.9911 29.4047 14.954 28.8562 14.9168 28.3274M38.029 54.4266C37.9984 54.3873 37.9656 54.3501 37.935 54.3108C37.1921 54.5468 36.4513 54.7828 35.7105 55.0166C34.9589 55.2548 34.2094 55.4908 33.4249 55.7399C33.4424 55.4908 33.4402 55.2723 33.4795 55.0625C33.4948 54.9773 33.58 54.8615 33.6587 54.8352C34.7491 54.4769 35.8438 54.1316 36.9386 53.7842C37.321 53.664 37.7034 53.546 38.077 53.4302C37.9044 53.1221 37.7493 52.8293 37.5766 52.5474C37.5439 52.495 37.4281 52.4513 37.3669 52.4687C36.8883 52.6042 36.4098 52.7419 35.9422 52.908C35.4309 53.0893 34.937 53.3188 34.4235 53.4936C34.1482 53.5875 33.851 53.6138 33.5145 53.6793C33.5407 53.5001 33.556 53.3865 33.5669 53.3275C34.0651 53.1789 34.5306 53.074 34.9676 52.9036C35.8045 52.5736 36.5955 52.1213 37.5024 52.0492C37.5941 51.6799 37.3079 51.6865 37.1309 51.6515C36.4469 51.5138 35.7652 51.3805 35.3019 50.7818C35.0506 51.0506 34.8518 51.3325 34.5874 51.5226C34.3208 51.7149 33.9865 51.8132 33.6434 51.9727V51.5095C34.4366 51.4155 34.7469 50.7425 35.2211 50.253C34.784 49.9187 34.3732 49.6062 33.969 49.285C33.8925 49.2238 33.7942 49.1277 33.7898 49.0446C33.7723 48.5792 33.7811 48.1116 33.7811 47.644C33.8838 47.7729 33.9253 47.9171 34.004 48.0373C34.3448 48.5595 34.9195 48.9485 35.5554 48.4044C35.7936 48.2012 36.0055 47.9302 36.1345 47.6483C36.46 46.9382 36.6895 46.1974 36.5256 45.4086C36.672 45.3824 36.8097 45.3692 36.9408 45.3321C38.018 45.0218 39.0909 44.6984 40.1726 44.3947C41.027 44.1543 41.8879 43.9424 42.7423 43.7064C42.8144 43.6867 42.8669 43.5949 42.928 43.5359C42.8428 43.5206 42.7467 43.4747 42.6724 43.4966C41.5252 43.8134 40.378 44.1368 39.233 44.4646C38.3218 44.7246 37.4149 44.9978 36.4994 45.2403C36.318 45.2884 36.3071 45.3649 36.3093 45.5069C36.3136 45.7932 36.353 46.086 36.3005 46.3635C36.1869 46.9644 36.0274 47.5588 35.6275 48.046C35.2036 48.5639 34.6245 48.5464 34.2487 48.0111C34.2137 47.9608 34.1766 47.9084 34.1591 47.8537C34.0498 47.4976 33.9471 47.1414 33.8357 46.7852C33.8182 46.7284 33.7636 46.6825 33.7264 46.6323C33.6762 46.6803 33.6063 46.7197 33.58 46.7787C33.5538 46.8377 33.5735 46.9163 33.5713 46.9862C33.5538 47.6964 33.5495 48.4044 33.5167 49.1124C33.4555 50.4956 33.3812 51.8766 33.3091 53.2576C33.261 54.1928 33.2501 55.1324 33.1343 56.0589C33.0381 56.8325 32.9398 57.6519 32.1466 58.126C33.119 58.2725 34.111 57.8573 35.0397 57.2695C34.3711 57.3634 33.7155 57.6082 33.0316 57.512C33.0359 57.2345 33.1539 57.1296 33.4249 57.1449C33.6259 57.1558 33.8313 57.0947 34.0957 57.0575C33.7789 56.9264 33.5298 56.8259 33.2698 56.7188C33.3025 56.5702 33.3266 56.4501 33.3528 56.3321C33.5822 56.426 33.7789 56.5375 33.9908 56.5833C34.3973 56.6707 34.8299 56.8215 35.2189 56.7582C35.8242 56.6598 36.4054 56.4042 36.9954 56.2141C37.0085 56.2097 37.0151 56.1878 37.0304 56.1682C36.8119 55.7661 36.9408 55.4165 37.2358 55.1215C37.4827 54.8746 37.7602 54.6582 38.0224 54.4288M14.8338 23.2972C14.6284 23.4764 14.4667 23.5944 14.3312 23.7386C13.9117 24.1866 13.3873 24.4182 12.7863 24.4248C12.3974 24.4269 12.0041 24.3592 11.6195 24.2805C11.0732 24.1691 10.61 24.2784 10.2407 24.7066C10.0986 24.8727 9.96752 25.0497 9.85389 25.2376C9.66379 25.5501 9.41905 25.7817 9.06725 25.8997C8.98858 25.9259 8.90555 26.009 8.87496 26.0855C8.77007 26.3542 8.66518 26.6274 8.59744 26.9071C8.50348 27.2917 8.51222 27.6762 8.75259 28.0171C9.12188 28.5437 9.45839 29.0835 9.46494 29.7609C9.55672 29.7652 9.61572 29.7718 9.6769 29.7696C9.74682 29.7674 9.81675 29.7608 9.88449 29.7477C10.5488 29.6123 11.1082 29.2976 11.5758 28.7994C12.1745 28.1635 12.8694 27.7658 13.7959 27.921C14.0668 27.9669 14.3553 27.9253 14.635 27.9166C14.812 27.9122 14.8841 27.8379 14.8797 27.6369C14.8535 26.54 14.8447 25.4452 14.8338 24.3483C14.8294 24.0249 14.8338 23.7015 14.8338 23.2994M15.662 22.6002C16.0793 22.6745 16.4639 22.7662 16.8551 22.8078C17.4232 22.8689 17.9192 22.7444 18.2951 22.244C18.5922 21.8507 18.9834 21.5469 19.4488 21.3525C19.5034 21.3306 19.569 21.3 19.5996 21.2519C19.923 20.7581 20.2202 20.249 20.2442 19.6371C20.2595 19.2373 19.7438 18.715 19.3833 18.7784C18.8086 18.8789 18.2251 18.9554 17.6657 19.1149C16.5032 19.447 15.3561 19.8272 14.2001 20.19C12.5351 20.7122 10.8896 21.2869 9.30761 22.032C8.59963 22.3642 8.55374 22.4232 8.62148 23.2055C8.63678 23.3999 8.71544 23.5966 8.80285 23.7758C9.02573 24.2347 9.16339 24.7066 9.08473 25.2223C9.0738 25.2944 9.06288 25.3666 9.05195 25.4387C9.07162 25.4518 9.09347 25.4649 9.11314 25.478C9.22021 25.3709 9.34257 25.277 9.43435 25.159C9.56983 24.9863 9.67908 24.7962 9.80801 24.617C10.1205 24.1822 10.5335 23.8916 11.0732 23.8566C11.3463 23.8391 11.6282 23.8981 11.8992 23.9571C12.7252 24.1363 13.4856 24.0839 14.1062 23.4174C14.2373 23.2776 14.3815 23.1355 14.5476 23.0459C14.8404 22.8908 14.8994 22.6592 14.8928 22.3554C14.8775 21.6977 15.1179 21.0356 14.8404 20.3823C14.8207 20.3364 14.8578 20.2206 14.895 20.2075C15.214 20.0829 15.5374 19.9758 15.8805 19.8556C15.8805 19.9824 15.8608 20.0654 15.8849 20.1353C15.9198 20.2446 15.9832 20.3429 16.0356 20.4456C16.1361 20.3888 16.2673 20.3539 16.3328 20.2686C16.4552 20.1113 16.5404 19.9234 16.6431 19.7508C16.6781 19.6918 16.7108 19.6 16.7633 19.5847C17.1566 19.4689 17.5543 19.3662 18.0066 19.246C17.7772 19.9212 17.504 20.4806 17.1238 20.9788C16.8245 21.3699 16.4137 21.5688 15.9023 21.512C15.8521 21.5054 15.8018 21.512 15.7166 21.512C15.6991 21.8813 15.6816 22.2353 15.6642 22.6024M18.7212 17.7994C23.3034 16.8271 27.8113 15.8722 32.3804 14.902C30.6345 12.4961 28.6897 10.3197 27.1951 7.77405C27.1077 7.89861 27.0487 7.98601 26.9875 8.06905C26.4041 8.8688 25.825 9.67075 25.235 10.4661C24.9794 10.8114 24.704 11.1413 24.4331 11.4757C23.393 12.7649 22.3703 14.0694 21.3018 15.3368C20.5457 16.2327 19.7569 17.1089 18.7233 17.7973M6.48442 38.2129C6.52157 38.2938 6.54779 38.3572 6.57838 38.4183C6.86464 38.9974 7.08752 39.6071 7.0613 40.256C7.046 40.6319 7.14433 40.8744 7.46118 41.0492C7.53766 41.0908 7.60102 41.1563 7.6775 41.1978C8.90336 41.8424 10.1161 42.5198 11.3638 43.1208C13.2561 44.0319 15.1659 44.9082 17.2549 45.2862C18.3344 45.4807 19.4138 45.673 20.4977 45.8325C21.1161 45.9243 21.7454 45.9549 22.3725 45.9986C23.1919 46.0576 24.0114 46.1493 24.8308 46.1406C26.2839 46.1275 27.737 46.0816 29.1857 45.9855C30.1931 45.9177 31.2048 45.8019 32.1925 45.6031C33.1889 45.4042 34.1591 45.0808 35.138 44.8055C35.2254 44.7814 35.2976 44.7028 35.3762 44.6503C35.3631 44.6176 35.3522 44.587 35.3413 44.5542C34.9414 44.5629 34.5721 44.7705 34.1591 44.823C34.3208 44.139 34.4716 43.4769 34.6355 42.8214C34.6573 42.7296 34.736 42.5876 34.7972 42.5832C35.0506 42.5614 35.0572 42.4084 35.0594 42.2161C35.0725 41.1279 35.0878 40.0419 35.1118 38.9537C35.1184 38.6216 35.1468 38.2894 35.1796 37.9595C35.256 37.2209 35.3391 36.4845 35.4221 35.7481C35.4964 35.0991 35.5751 34.4501 35.6494 33.799C35.7324 33.0626 35.8111 32.324 35.8963 31.5876C35.9749 30.9124 36.058 30.2372 36.1367 29.562C36.2153 28.8868 36.2983 28.2116 36.3661 27.5342C36.4163 27.0382 36.4142 26.5378 36.4863 26.0461C36.6283 25.0716 36.672 24.097 36.6392 23.1159C36.6305 22.8602 36.5278 22.8099 36.3027 22.8209C35.8482 22.8427 35.4614 23.0481 35.0637 23.2273C34.9305 23.2885 34.8846 23.3628 34.8802 23.5026C34.8671 24.0293 34.854 24.5559 34.8168 25.0803C34.8081 25.2092 34.7294 25.3644 34.6333 25.454C33.5232 26.4744 32.5596 27.6107 31.8778 28.9633C31.0737 30.5606 30.676 32.2366 30.9994 34.0284C31.0518 34.3234 30.947 34.4414 30.711 34.5681C30.2106 34.8369 29.7145 34.9899 29.1442 34.791C28.9432 34.7211 28.7072 34.6992 28.4952 34.7255C27.9446 34.7976 27.3939 34.885 26.852 35.0095C26.4303 35.1057 26.0326 35.346 25.6109 35.3854C24.6385 35.475 23.6661 35.3504 22.7615 34.9789C22.1453 34.7255 21.5662 34.3671 21.0068 34C20.0672 33.386 19.1363 32.7501 18.6032 31.7056C18.5813 31.6619 18.5354 31.6226 18.4917 31.5964C17.9061 31.2467 17.2855 31.1768 16.6497 31.4237C16.2104 31.592 16.0094 32.0028 16.0771 32.4726C16.123 32.8026 16.1493 33.1369 16.2039 33.4646C16.2826 33.9432 16.3765 34.4174 16.477 34.9505C16.6409 34.8107 16.7392 34.7277 16.8092 34.6687C16.7239 34.5616 16.6497 34.4698 16.5754 34.378C16.6955 34.3321 16.8114 34.2557 16.9337 34.2491C17.1719 34.236 17.3882 34.2294 17.6024 34.0787C17.9673 33.8208 18.3562 33.5979 18.743 33.3729C18.9419 33.2571 19.1538 33.1653 19.2893 33.0975C20.2202 33.7159 21.1117 34.3496 22.0447 34.9156C22.9996 35.4946 24.0966 35.5842 25.2547 35.6498C23.4039 36.8319 22.5845 38.6216 21.9486 40.4942C21.0636 40.7717 20.1786 41.0536 19.2893 41.3268C19.2303 41.3442 19.1189 41.3071 19.0817 41.2568C18.1071 39.9916 16.8114 39.2006 15.3145 38.7221C14.6765 38.5189 14.0122 38.3965 13.3261 38.2304C13.4878 38.1561 13.6385 38.0949 13.7806 38.0185C13.8636 37.9748 13.951 37.9267 14.0078 37.8568C14.5694 37.1619 15.1222 36.4583 15.6882 35.7678C15.7975 35.6367 15.8149 35.5296 15.78 35.3679C15.6336 34.673 15.5046 33.976 15.3714 33.2789C15.3386 33.1107 15.3233 32.9402 15.2927 32.7304C14.718 33.0298 14.1673 33.0167 13.6014 32.8244C13.1469 32.6714 12.7339 32.7938 12.4345 33.1522C12.1964 33.4384 12.0062 33.7684 11.8227 34.0962C11.5102 34.6555 11.095 35.0664 10.4198 35.1101C10.2297 35.1232 10.1817 35.2302 10.1445 35.3898C9.985 36.0518 10.1598 36.62 10.6056 37.1182C11.0645 37.6317 11.4971 38.1583 11.6632 38.851C11.6654 38.8641 11.6894 38.8729 11.7069 38.886C12.0587 38.7964 12.4258 38.733 12.771 38.6106C13.1447 38.4795 13.5118 38.5123 13.8833 38.5779C15.3429 38.8335 16.6759 39.3973 17.8384 40.3194C18.2492 40.645 18.5944 41.0536 18.9572 41.4142C18.5092 41.707 18.1049 41.9364 17.7378 42.2161C16.9337 42.8323 16.2367 43.56 15.627 44.3663C15.509 44.5214 15.3976 44.5979 15.1922 44.5127C14.5978 44.2636 13.9838 44.0582 13.3982 43.7894C11.9341 43.1142 10.4788 42.4171 9.02355 41.7223C8.73948 41.5868 8.47289 41.412 8.18445 41.2481C8.59089 40.6953 9.03666 40.2451 9.57638 39.9108C10.1161 39.5743 10.693 39.2968 11.3157 38.9603C11.1715 38.6718 11.0404 38.3419 10.8503 38.0447C10.6777 37.7737 10.4439 37.5399 10.2341 37.2908C9.82549 36.8013 9.64412 36.242 9.7206 35.6039C9.7359 35.4772 9.75556 35.3504 9.7796 35.1953C9.30324 35.239 8.89462 35.3592 8.64552 35.7569C8.43356 36.0977 8.23253 36.4517 8.09049 36.8232C7.8545 37.4394 7.45462 37.8611 6.83623 38.0818C6.7226 38.1234 6.60898 38.1671 6.48224 38.2151M56.4824 31.9831C56.9347 32.1121 57.3936 32.2279 57.8394 32.3743C58.4774 32.584 58.9101 32.9861 59.0215 33.6853C59.0609 33.941 59.1395 34.1879 59.2007 34.4414C59.2247 34.4436 59.2466 34.448 59.2706 34.4501C59.3668 34.2972 59.5044 34.1552 59.5503 33.9869C59.6421 33.6438 59.7295 33.2855 59.7339 32.9337C59.7404 32.123 60.0442 31.4718 60.6604 30.9561C60.9357 30.7245 61.2088 30.4929 61.4842 30.2591C61.5803 30.1782 61.6765 30.1017 61.7748 30.0231C61.7507 29.9816 61.7245 29.9378 61.6983 29.8963C61.5257 29.9466 61.3334 29.9619 61.187 30.0515C60.5883 30.4229 59.9808 30.7813 59.2772 30.9015C58.0273 31.1134 56.7949 31.5111 55.4947 31.1987C54.3257 30.9168 53.1785 30.6065 52.1864 29.892C51.4413 29.3544 50.7945 28.7076 50.2417 27.9822C49.8789 27.508 49.4987 27.0032 49.3108 26.4482C49.0879 25.7861 49.0595 25.0584 48.959 24.3592C48.9415 24.2347 48.9262 24.1735 48.7842 24.1254C48.4477 24.0074 48.1243 23.8523 47.8031 23.6949C47.5605 23.5769 47.3333 23.4218 47.0885 23.3038C47.0317 23.2776 46.8962 23.3125 46.8547 23.365C46.575 23.7321 46.4177 24.1341 46.5029 24.6149C46.6165 25.2617 46.7455 25.9085 46.5969 26.5706C46.5794 26.6449 46.6165 26.7454 46.6559 26.8153C47.1279 27.6325 47.5977 28.4498 48.0806 29.2605C49.4026 31.4893 50.8841 33.6067 52.4792 35.6498C53.4341 36.8713 54.3759 38.1015 55.4488 39.2247C56.0388 39.8409 56.6048 40.4877 56.8408 41.3508C56.8998 41.5606 56.8211 41.6851 56.7228 41.8184C56.6244 41.9517 56.489 42.0326 56.312 41.943C56.0956 41.8337 55.8356 41.7682 55.6717 41.6043C55.2391 41.1716 54.8151 40.7237 54.4502 40.232C53.9192 39.5175 53.4429 38.7614 52.9512 38.0185C52.8179 37.8174 52.6999 37.6055 52.5907 37.3891C52.5055 37.2209 52.4727 37.0199 52.3656 36.8669C51.6489 35.8333 50.9147 34.8107 50.1936 33.7793C49.0289 32.1077 47.8774 30.4295 46.7083 28.7601C45.7884 27.4468 44.8553 26.1466 43.9223 24.8421C43.6163 24.416 43.2951 24.0008 43.0111 23.6228C42.3533 23.8304 41.7262 24.0292 41.11 24.2237C41.1013 24.215 41.11 24.2303 41.1253 24.2368C41.1756 24.2543 41.2258 24.2696 41.2761 24.2849C42.6221 24.6848 43.7802 25.3687 44.6499 26.4984C44.9995 26.953 45.2967 27.414 45.3819 28.0084C45.4868 28.7448 45.4409 29.4768 45.3994 30.2088C45.371 30.7092 45.2771 31.2183 45.1219 31.6947C44.757 32.8113 44.1233 33.7902 43.4 34.7036C43.0723 35.1166 42.6636 35.4662 42.2856 35.8399C42.196 35.9295 42.1042 35.9251 41.9862 35.8464C40.9592 35.1559 39.8317 34.968 38.6343 35.2346C37.9656 35.3832 37.3079 35.5799 36.6414 35.7569C36.6414 35.6214 36.6305 35.4793 36.6414 35.3439C36.7026 34.7451 36.7747 34.1486 36.8337 33.5499C36.9102 32.7851 36.9779 32.0203 37.0544 31.2555C37.1353 30.4382 37.2248 29.6232 37.3079 28.8059C37.3669 28.2247 37.404 27.6391 37.4827 27.06C37.6051 26.1554 37.7602 25.2529 37.8826 24.3483C37.9088 24.1516 37.9831 24.0686 38.1666 24.0489C38.5621 24.0052 38.9598 23.9593 39.3881 23.9091C38.8222 23.6206 38.4245 23.035 37.6794 23.1355C37.817 24.2609 37.4477 25.3425 37.3494 26.4526C37.2664 27.39 37.144 28.3252 37.0435 29.2626C36.9845 29.8264 36.9386 30.3924 36.8774 30.9583C36.7791 31.887 36.6698 32.8157 36.5737 33.7443C36.4775 34.6818 36.401 35.6236 36.2983 36.561C36.1607 37.8196 35.9881 39.0717 36.0274 40.3478C36.0667 41.5737 36.1847 42.7886 36.3486 44.0035C36.3683 44.1456 36.353 44.2308 36.1825 44.2636C36.0252 44.2963 35.8766 44.3794 35.7237 44.4406C35.739 44.4908 35.7542 44.5411 35.7717 44.5913C36.9561 44.2811 38.1273 43.9183 39.3116 43.608C40.5222 43.289 41.7284 42.9503 42.9368 42.6182C44.1342 42.2882 45.3317 41.9473 46.5313 41.6261C47.7397 41.3005 48.959 41.0077 50.163 40.6734C51.3583 40.3413 52.5426 39.9742 53.7291 39.6245C53.8624 39.8234 53.9804 39.996 54.1137 40.1949C53.6964 40.315 53.2943 40.4243 52.8966 40.5445C51.5549 40.9487 50.2154 41.3639 48.8716 41.7572C47.2437 42.2314 45.6092 42.6859 43.9791 43.1535C43.9223 43.171 43.8851 43.2475 43.837 43.2977C43.896 43.3196 43.9529 43.3502 44.014 43.3589C44.0534 43.3655 44.0971 43.3371 44.1386 43.3262C45.8299 42.852 47.5234 42.3887 49.2125 41.9036C50.8338 41.436 52.4508 40.9465 54.0656 40.4571C54.212 40.4134 54.2842 40.4374 54.3759 40.5445C54.6578 40.8788 54.9266 41.2306 55.2478 41.5256C55.5188 41.7725 55.84 41.9845 56.1721 42.144C56.5021 42.3013 56.6944 42.2183 56.9129 41.9561C57.127 41.7004 57.1816 41.3661 57.0396 41.1017C56.8211 40.6996 56.5982 40.2997 56.3906 39.9261C57.3892 39.5721 58.4031 39.2115 59.4585 38.8379C59.6902 39.4148 59.9152 39.9785 60.1512 40.5663C60.6604 40.0419 61.2788 39.7294 61.9649 39.5349C62.0195 39.5196 62.0829 39.4781 62.1091 39.4301C62.2948 39.0936 62.4718 38.7549 62.6226 38.4752C62.367 38.1321 62.1441 37.8371 61.9518 37.5793C60.9641 37.9704 59.9786 38.3768 58.9844 38.7527C58.1475 39.0695 57.2975 39.3558 56.4496 39.6442C56.3535 39.677 56.1896 39.6879 56.135 39.6333C55.9077 39.4104 55.7111 39.1569 55.5035 38.9122C55.7438 38.851 55.9645 38.8073 56.1809 38.7396C58.1322 38.1255 60.007 37.328 61.8338 36.4168C63.0968 35.7874 64.3161 35.0838 65.2928 34.0372C65.5135 33.8012 65.6927 33.5258 65.8916 33.268C65.8763 33.2396 65.8632 33.2112 65.8501 33.185C65.5463 33.1522 65.2426 33.1172 64.8864 33.0801C64.9126 33.9454 64.646 34.6271 63.7917 34.9636C63.8747 34.4785 63.9687 33.9956 64.0364 33.5127C64.0976 33.0801 64.2199 32.6277 64.15 32.2104C64.067 31.71 63.8244 31.2336 63.619 30.7616C63.4267 30.3159 63.0531 30.0886 62.5789 30.01C62.3735 29.9772 62.2227 29.9881 62.0829 30.1848C61.9496 30.3749 61.7508 30.5213 61.5781 30.6808C61.2569 30.978 60.9226 31.2642 60.6123 31.5723C60.3413 31.8389 60.1927 32.1754 60.1622 32.5556C60.1381 32.8616 60.1316 33.1697 60.101 33.4734C60.0507 33.9847 59.8344 34.4283 59.4192 34.8566C59.7229 34.9505 59.9655 35.0358 60.2146 35.0991C60.6604 35.2128 61.1192 35.2936 61.5585 35.4313C61.8229 35.5143 62.002 35.7306 62.061 36.0409C61.9518 36.0977 61.8469 36.1545 61.7333 36.2135C61.5759 35.7284 61.1673 35.6454 60.7718 35.5755C60.2146 35.4772 59.6312 35.4793 59.1745 35.0926C58.8074 35.3548 58.827 35.3504 58.9363 35.759C59.039 36.1393 59.1155 36.526 59.1636 36.9172C59.2182 37.3454 59.192 37.3345 58.7965 37.5356C58.6107 37.6295 58.5168 37.5902 58.3769 37.4547C57.0636 36.1873 55.5515 35.2586 53.7685 34.8172C53.1719 34.6687 52.5579 34.5856 51.9548 34.4633C51.8827 34.448 51.8106 34.378 51.7647 34.3125C51.1223 33.4188 50.4798 32.525 49.8462 31.6248C49.6123 31.2926 49.3982 30.943 49.1535 30.5693C49.9882 30.5693 50.7814 30.5016 51.5571 30.5846C53.0496 30.742 54.4612 31.1943 55.8028 31.8914C57.0505 32.5382 57.9858 33.4537 58.5386 34.7495C58.5714 34.826 58.6173 34.8959 58.6522 34.9636C58.8664 34.8675 58.9232 34.7539 58.8336 34.5419C58.744 34.3256 58.6894 34.0896 58.6588 33.8558C58.5779 33.2221 58.1715 32.9271 57.6187 32.6977C57.2122 32.5294 56.8626 32.2279 56.4868 31.9853L56.4824 31.9897V31.9831ZM46.0921 51.1314C46.1686 51.1271 46.2494 51.138 46.3237 51.1183C47.0492 50.9282 47.7747 50.7337 48.4979 50.5371C48.6116 50.5065 48.723 50.4672 48.8847 50.4169C48.6531 50.2049 48.4608 49.8837 48.2729 49.8859C47.9582 49.8903 47.6414 50.0913 47.3333 50.2268C47.2437 50.2661 47.1847 50.3754 47.1016 50.4366C46.7717 50.6747 46.4352 50.9064 46.103 51.1402C45.6922 51.2669 45.2792 51.3937 44.8378 51.5313C44.875 51.5663 44.9296 51.6471 44.9558 51.6384C45.3535 51.5117 45.8277 51.5532 46.0943 51.1314M68.9595 27.5757C68.8983 29.3675 68.6514 30.7988 68.0155 32.1667C67.7162 32.8113 67.5938 33.5368 67.3971 34.2273C67.2027 34.909 67.0322 35.5995 66.8203 36.2769C66.5602 37.1116 66.2259 37.9245 66.0074 38.7658C65.7714 39.6726 65.4196 40.4877 64.7968 41.2088C64.3183 41.7616 63.9665 42.4237 63.5382 43.0246C62.9132 43.903 62.2686 44.7705 61.6371 45.6446C61.5563 45.756 61.4885 45.8828 61.4339 46.0117C61.27 46.4094 61.0253 46.7459 60.6953 47.0212C59.7907 47.7685 58.886 48.518 57.977 49.2588C57.7061 49.4795 57.4286 49.7002 57.1314 49.8837C56.2726 50.4169 55.4685 51.0244 54.7124 51.6952C54.3934 51.9771 54.0438 52.2043 53.5893 52.2109C53.5128 52.2109 53.4341 52.2808 53.3598 52.3267C52.9818 52.5627 52.5819 52.6763 52.1318 52.5889C52.0029 52.5649 51.8477 52.578 51.7254 52.6261C51.2599 52.8053 50.7945 52.991 50.3444 53.2029C50.2089 53.2663 50.128 53.4368 50.0122 53.5482C49.9161 53.6422 49.8199 53.7645 49.7019 53.8017C49.0857 54.0005 48.4652 54.1819 47.8402 54.3545C47.3595 54.4878 46.8744 54.6102 46.3893 54.7216C46.0287 54.8046 45.7206 54.9642 45.4453 55.2111C44.3964 56.1507 43.1575 56.5069 41.7612 56.4479C41.3001 56.4282 40.815 56.5243 40.3714 56.662C39.4406 56.9548 38.5184 57.252 37.5351 57.3088C37.4521 57.3132 37.3734 57.3722 37.2904 57.3918C36.825 57.5033 36.3573 57.6147 35.8897 57.7196C35.8417 57.7305 35.7717 57.7305 35.7346 57.7065C35.4352 57.5011 35.1905 57.6847 34.9326 57.8048C34.5765 57.9709 34.2247 58.1566 33.8576 58.2965C33.0294 58.6155 32.1619 58.6046 31.3141 58.4342C30.5973 58.2899 29.9047 58.3271 29.201 58.4342C29.0809 58.4516 28.9563 58.4691 28.8339 58.4669C27.3437 58.421 25.8578 58.5543 24.3697 58.6111C23.6705 58.6374 22.9756 58.6264 22.2917 58.3861C21.9202 58.255 21.4985 58.2725 21.1008 58.2091C20.8254 58.1654 20.5348 58.1413 20.2813 58.0343C19.5559 57.7305 18.7867 57.6847 18.0241 57.5732C17.0452 57.4312 16.1471 57.0881 15.3735 56.4435C15.1638 56.2687 14.9015 56.1551 14.6546 56.0283C13.8702 55.6219 13.0595 55.2592 12.3034 54.809C11.567 54.3698 10.8853 53.8432 10.1773 53.3559C8.45541 52.1672 7.01978 50.69 5.82451 48.9791C4.88272 47.6309 4.13978 46.169 3.44928 44.6787C3.27665 44.3051 3.08217 43.9424 2.87896 43.584C2.25401 42.4849 1.83009 41.3071 1.56132 40.0769C1.34937 39.1132 1.20296 38.1321 0.966968 37.175C0.827119 36.6112 0.814008 36.0781 0.951672 35.5209C1.0063 35.298 0.966968 35.0511 0.966968 34.8151C0.966968 34.4676 0.971338 34.118 0.962597 33.7706C0.953857 33.4057 0.945116 33.0385 0.910154 32.6758C0.680715 30.3661 1.26415 28.2859 2.6233 26.4067C3.36406 25.3818 4.10482 24.3592 5.0335 23.4917C5.7677 22.8056 6.56964 22.2265 7.46555 21.7567C9.85389 20.5024 12.3777 19.6131 14.9584 18.8614C15.1638 18.8024 15.3735 18.6691 15.5178 18.5118C15.9548 18.0398 16.5142 17.7688 17.0801 17.5088C17.9454 17.1133 18.708 16.5736 19.3614 15.8874C20.5064 14.6856 21.6012 13.4423 22.6063 12.1203C23.4454 11.0168 24.3282 9.94826 25.1848 8.85788C25.4601 8.50607 25.6786 8.10401 25.9802 7.78061C26.4084 7.31955 26.5374 6.76671 26.6226 6.18109C26.8367 4.69739 27.4682 3.42127 28.5258 2.36148C29.0415 1.8436 29.6927 1.62509 30.4072 1.5508C31.4299 1.44372 32.3039 1.81738 33.1234 2.37022C33.2326 2.44452 33.3113 2.57125 33.3921 2.68269C33.6565 3.05417 33.9122 3.4322 34.1744 3.80367C35.5554 5.74188 37.0326 7.60143 38.584 9.40635C39.198 10.1209 39.6853 10.9469 40.2556 11.7029C40.6992 12.2907 41.1777 12.8523 41.6519 13.4161C41.7175 13.4925 41.8617 13.5668 41.9535 13.5494C43.0264 13.3549 44.1014 13.3614 45.1765 13.5122C46.8176 13.7395 48.463 13.9318 50.0931 14.218C51.815 14.5196 53.48 15.0462 55.1101 15.682C56.1459 16.0863 57.1642 16.5386 58.2065 16.9298C58.5517 17.0609 58.9429 17.063 59.31 17.1395C59.6006 17.2007 59.8956 17.2619 60.1731 17.3646C60.5817 17.5154 60.8986 17.7732 61.0668 18.2015C61.104 18.2998 61.2263 18.3829 61.329 18.4331C62.6969 19.1258 63.949 19.9999 65.1443 20.9526C66.6476 22.1522 67.6856 23.7168 68.4285 25.4583C68.7497 26.21 68.8328 27.0644 68.9573 27.5801" fill="white"/>
<path d="M33.1252 2.08396C33.0466 2.03807 32.9679 1.99437 32.8892 1.9463C32.2512 1.55953 31.565 1.30168 30.8177 1.28857C29.5001 1.26454 28.4862 1.84578 27.728 2.90994C27.0484 3.86266 26.572 4.89623 26.4125 6.06527C26.3994 6.15923 26.3797 6.25319 26.3579 6.34715C26.3382 6.43237 26.312 6.51541 26.2748 6.64652C26.1088 6.33841 25.8007 6.1352 25.8422 5.77028C25.923 5.05356 25.9755 4.32809 26.1306 3.62666C26.3229 2.75698 26.8539 2.07085 27.5073 1.47431C28.2327 0.812215 29.0106 0.259376 29.9961 0.0452333C30.7544 -0.118652 31.4449 0.108602 32.1179 0.399224C32.2992 0.477889 32.4369 0.696403 32.5505 0.879954C32.7843 1.25143 32.9876 1.64257 33.2017 2.02496C33.1755 2.04463 33.1493 2.0643 33.123 2.08396" fill="white"/>
<path d="M25.6124 5.67872C24.8432 4.67793 24.6968 3.67277 25.289 2.56272C25.9926 1.2429 27.131 0.53929 28.5186 0.152522C28.641 0.11756 28.7743 0.121929 28.9119 0.13067C27.9286 0.729396 27.0415 1.42645 26.4143 2.39884C25.7806 3.38215 25.6583 4.50093 25.6124 5.67654" fill="white"/>
<path d="M36.604 44.1482C36.3549 42.5246 36.2129 40.912 36.2675 39.2928C36.2915 38.5957 36.392 37.903 36.462 37.2082C36.4947 36.8782 36.5275 36.5483 36.5822 36.2205C36.5974 36.1331 36.6783 36.0107 36.7548 35.9867C37.8255 35.6414 38.894 35.2525 40.0434 35.3639C40.9568 35.4535 41.7238 35.8818 42.4208 36.4783C43.7297 37.5971 44.3809 39.0612 44.7196 40.6978C44.7786 40.9797 44.7917 41.2703 44.8223 41.5566C44.8441 41.7664 44.7655 41.8734 44.5404 41.9346C42.1717 42.577 39.8074 43.2326 37.4431 43.8859C37.1678 43.9624 36.8946 44.0564 36.6062 44.1482" fill="white"/>
<path d="M45.0339 41.2597C44.7432 39.2101 44.0243 37.4117 42.3374 36.1312C43.5305 35.1567 44.2975 33.9264 44.9989 32.6394C45.1103 32.434 45.2764 32.2351 45.4621 32.0909C46.0871 31.608 46.7776 31.2431 47.5402 31.018C47.7762 30.9481 47.9139 30.9962 48.0624 31.2081C48.8076 32.2766 49.5724 33.3299 50.3284 34.3897C50.3568 34.4312 50.3809 34.4749 50.4049 34.5142C48.8207 34.759 47.7085 35.6855 46.8322 36.9441C45.9363 38.2289 45.3529 39.6449 45.0907 41.192C45.0885 41.2051 45.071 41.216 45.0339 41.2575" fill="white"/>
<path d="M53.6388 39.4497C50.82 40.2277 48.0623 40.9859 45.2195 41.7704C45.3156 41.2765 45.3659 40.8482 45.4839 40.4374C45.9318 38.8685 46.5961 37.4045 47.7324 36.2026C48.3551 35.5449 49.0981 35.0642 49.9765 34.8107C50.4223 34.6818 50.5905 34.7473 50.8506 35.121C51.2723 35.7219 51.705 36.3141 52.1179 36.9215C52.2316 37.0898 52.2862 37.2974 52.3758 37.4831C52.4719 37.6776 52.5659 37.8743 52.6839 38.0534C52.9789 38.497 53.2848 38.9341 53.641 39.4476" fill="white"/>
<path d="M58.2952 37.7411C57.3534 38.1017 56.4575 38.5125 55.4786 38.6655C55.389 38.6786 55.2535 38.6349 55.1967 38.5671C54.4625 37.6996 53.7348 36.8256 53.0138 35.945C52.6882 35.5473 52.3801 35.1321 52.061 34.7213C53.2323 34.4023 57.3294 36.3798 58.2974 37.7411" fill="white"/>
<path d="M47.8184 28.3453C48.3188 27.8799 48.688 27.3358 49.3283 27.0911C50.1827 28.4546 51.2599 29.6149 52.7021 30.5195C52.5142 30.4911 52.394 30.4736 52.276 30.454C52.1558 30.4343 52.0378 30.4059 51.9177 30.3862C51.0939 30.2486 50.2657 30.2464 49.4397 30.3469C49.171 30.3797 48.9787 30.3557 48.8279 30.0672C48.5132 29.4663 48.1461 28.8938 47.8227 28.3475" fill="white"/>
<path d="M47.7068 30.7424C46.8328 30.9566 46.0614 31.3761 45.3381 31.9049C45.7074 30.4911 45.7686 29.0686 45.5457 27.5762C45.6419 27.6483 45.7227 27.6811 45.762 27.7422C46.411 28.7256 47.0535 29.711 47.6981 30.6965C47.7068 30.7097 47.7046 30.7293 47.7068 30.7424Z" fill="white"/>
<path d="M56.4876 31.9797C56.1484 31.8069 55.8115 31.6362 55.4614 31.459C55.9559 31.3671 56.1966 31.7194 56.4832 31.9841L56.4876 31.9797Z" fill="white"/>
<path d="M15.7099 44.6613C17.0669 42.7515 18.8019 41.4514 21.0985 40.9925C21.7802 40.857 22.4729 40.6822 23.159 40.6931C25.0426 40.7215 26.8213 41.2066 28.4798 42.12C29.3889 42.6204 30.252 43.1885 30.9621 43.949C31.3096 44.3226 31.5805 44.7706 31.8908 45.1814C31.9389 45.2448 32.0219 45.2841 32.0897 45.3343C32.0919 45.2491 32.1334 45.1333 32.094 45.0831C31.7488 44.6526 31.7226 44.1609 31.7859 43.6452C31.8078 43.4726 31.8187 43.2978 31.8406 43.1252C31.9367 42.3298 32.0503 41.5388 32.3606 40.7893C32.9113 39.4695 33.7285 38.3572 34.8866 37.5094C34.9063 37.4941 34.9325 37.4897 34.9435 37.4854C34.8932 39.0805 34.8451 40.6756 34.7949 42.2926C34.5305 42.3451 34.4343 42.5855 34.3731 42.8346C34.2202 43.4704 34.0869 44.1085 33.9339 44.7444C33.9164 44.8208 33.8334 44.9235 33.7613 44.941C32.9594 45.1399 32.1596 45.354 31.3489 45.5048C29.8587 45.7779 28.3509 45.8784 26.8366 45.885C26.1439 45.8872 25.4534 45.9353 24.7629 45.9243C24.2756 45.9178 23.7884 45.8435 23.2989 45.8129C22.7592 45.7779 22.2194 45.767 21.6819 45.7211C20.9958 45.6621 20.3053 45.6184 19.6279 45.4982C18.4457 45.2863 17.2745 45.0219 16.0989 44.7771C15.9722 44.7509 15.8498 44.705 15.7056 44.6613" fill="white"/>
<path d="M31.5366 44.1746C28.9712 41.5481 25.8552 40.3572 22.2061 40.4643C22.3809 39.8022 22.6496 39.151 23.0036 38.5392C23.4494 37.7678 23.8952 37.003 24.6053 36.4174C25.5012 35.6788 26.5348 35.2374 27.6492 35.0539C29.5088 34.748 31.0646 35.4013 32.3188 36.7823C32.7078 37.2106 33.0509 37.6782 33.418 38.1218C33.5447 38.2769 33.525 38.3928 33.4049 38.5545C32.675 39.5443 32.0282 40.5801 31.8163 41.819C31.7092 42.4462 31.648 43.0799 31.5715 43.7114C31.5519 43.8665 31.5475 44.0217 31.5366 44.1724" fill="white"/>
<path d="M36.4226 24.6609C36.3811 25.0695 36.3417 25.4563 36.3046 25.843C36.2543 26.3544 36.2084 26.8679 36.1538 27.3792C36.0642 28.1942 35.9681 29.0071 35.8719 29.8222C35.7911 30.5149 35.708 31.2075 35.6272 31.9002C35.5267 32.759 35.4262 33.6156 35.3257 34.4743C35.2492 35.1233 35.1749 35.7745 35.0984 36.4235C35.0765 36.6136 35.0722 36.808 35.035 36.996C35.0175 37.079 34.9454 37.162 34.8799 37.221C34.7444 37.3434 34.5914 37.4483 34.4516 37.5685C34.0342 37.9203 34.0168 37.9443 33.5797 37.6187C33.2323 37.3609 32.887 37.0703 32.6226 36.7316C32.0021 35.934 31.3946 35.1167 31.2154 34.081C30.9751 32.6869 31.1652 31.3408 31.659 30.0276C32.2839 28.3625 33.3219 26.9749 34.6155 25.7884C35.1006 25.3427 35.7277 25.052 36.2915 24.6915C36.3177 24.674 36.357 24.6762 36.4226 24.6631" fill="white"/>
<path d="M30.2124 35.043C30.4858 34.9117 30.7832 34.7674 31.0828 34.6252C31.2622 35.0058 31.4371 35.3798 31.6099 35.7472C31.1484 35.5154 30.6804 35.2792 30.2124 35.0451" fill="white"/>
<path d="M35.4667 46.0406C35.3551 46.325 35.2588 46.6182 35.121 46.8917C35.0444 47.0448 34.8869 47.047 34.8366 46.8632C34.7775 46.651 34.7644 46.4234 34.7534 46.2003C34.7534 46.1609 34.8541 46.0931 34.9175 46.0756C35.0685 46.0362 35.2238 46.0187 35.3792 45.9902C35.4098 46.0055 35.4382 46.0231 35.4667 46.0384" fill="white"/>
</svg>
