<svg width="516" height="516" viewBox="0 0 516 516" fill="none" xmlns="http://www.w3.org/2000/svg">
<mask id="mask0_2541_227" style="mask-type:luminance" maskUnits="userSpaceOnUse" x="36" y="35" width="444" height="446">
<path d="M479.07 35.6499H36.9399V480.26H479.07V35.6499Z" fill="white"/>
</mask>
<g mask="url(#mask0_2541_227)">
<path d="M55.51 361.97C55.72 362.18 55.92 362.38 56.13 362.59C56.65 362.1 57.18 361.61 57.7 361.12C57.33 360.96 56.8 360.56 56.62 360.68C56.16 360.98 55.87 361.52 55.51 361.97ZM266.27 371.98C265.59 371.54 265.22 371.14 265.04 371.22C264.47 371.45 263.97 371.86 263.44 372.2C263.62 372.43 263.86 372.87 263.97 372.84C264.62 372.67 265.24 372.38 266.27 371.98ZM49.09 361.93L49.33 361.44C48.93 361.17 48.52 360.67 48.14 360.69C47.64 360.72 47.16 361.16 46.68 361.42C46.75 361.59 46.82 361.76 46.89 361.93H49.1H49.09ZM57.56 317.08C59.22 317.19 59.54 316.36 59.7 315.13C58.18 314.82 58.07 315.89 57.56 317.08ZM154.12 411.64C154.33 411.61 154.53 411.58 154.74 411.55C154.74 411 154.9 410.38 154.69 409.93C154.52 409.57 153.91 409.41 153.5 409.17C153.38 409.31 153.25 409.45 153.13 409.6C153.46 410.28 153.79 410.96 154.12 411.65M97.86 364.8C97.93 364.49 98 364.19 98.07 363.88C97.31 363.73 96.55 363.54 95.78 363.46C95.71 363.46 95.56 364.07 95.46 364.4C96.26 364.53 97.07 364.66 97.87 364.8M50.01 361.49C50.23 361.73 50.45 361.97 50.67 362.21C51.26 361.77 51.85 361.32 52.44 360.88C52.08 360.69 51.61 360.26 51.38 360.36C50.86 360.6 50.45 361.09 50 361.48M67.8 288.3C68.16 288.35 68.51 288.41 68.87 288.46C68.94 287.62 69.01 286.78 69.04 285.94C69.04 285.91 68.34 285.82 68.33 285.85C68.12 286.66 67.96 287.48 67.79 288.3M195.13 397.87C194.49 397.48 194.09 397.07 193.92 397.15C193.36 397.41 192.88 397.85 192.36 398.23C192.56 398.46 192.84 398.91 192.94 398.88C193.59 398.66 194.19 398.32 195.13 397.87ZM79.81 362.38C79.78 362.63 79.74 362.89 79.71 363.14C80.41 363.32 81.1 363.55 81.81 363.64C82.01 363.66 82.35 363.29 82.46 363.03C82.52 362.89 82.24 362.43 82.09 362.41C81.34 362.35 80.57 362.38 79.82 362.38M273.6 363.22C275.62 363.28 275.83 362.95 275.08 360.83C274.64 361.54 274.2 362.25 273.6 363.22ZM69.14 274.79C69.52 275.27 69.78 275.6 70.05 275.94C70.34 275.4 70.74 274.89 70.88 274.32C70.95 274.03 70.55 273.63 70.36 273.28C69.99 273.74 69.62 274.2 69.15 274.79M270.53 360.53C271.16 359.5 271.58 358.91 271.88 358.26C271.95 358.11 271.6 357.77 271.45 357.52C270.96 358.04 270.42 358.53 270.02 359.11C269.91 359.26 270.22 359.7 270.53 360.53ZM89.34 364.61C90.3 364.31 91.15 364.05 92 363.78C91.7 363.52 91.42 363.07 91.1 363.04C90.29 362.96 89.2 362.7 89.34 364.61ZM59.82 362.59C60.77 362.27 61.53 362.02 62.29 361.76C62.01 361.49 61.75 361.03 61.44 360.99C60.66 360.9 59.64 360.69 59.82 362.58M226.93 382.73C226.33 383.12 225.8 383.46 225.27 383.81C225.64 384.02 226.06 384.47 226.37 384.4C226.97 384.25 227.51 383.82 228.07 383.51C227.76 383.3 227.44 383.08 226.93 382.73ZM205.27 390.38C204.4 390.62 203.68 390.77 203.02 391.06C202.92 391.11 203.1 391.81 203.16 392.21C204 391.94 205.22 392.19 205.27 390.38ZM258.68 374.47C258.76 374.7 258.84 374.93 258.92 375.15C259.85 374.78 260.79 374.41 261.72 374.04C261.64 373.83 261.56 373.61 261.47 373.39C260.24 372.87 259.39 373.5 258.67 374.47M70.49 280.74C70.09 280.36 69.84 280.12 69.58 279.88C69.24 280.5 68.85 281.09 68.61 281.75C68.55 281.92 68.97 282.27 69.18 282.54C69.59 281.98 70 281.41 70.49 280.74ZM71.83 268.86C71.38 268.1 71.03 267.53 70.69 266.95C70.45 267.28 69.98 267.67 70.03 267.94C70.15 268.55 70.53 269.1 70.81 269.68C71.12 269.43 71.42 269.18 71.83 268.86ZM211.74 380.31C212.49 380.31 213.19 380.37 213.87 380.28C214.12 380.25 214.37 379.9 214.52 379.64C214.58 379.52 214.45 379.19 214.31 379.08C213.63 378.52 212.09 379.19 211.74 380.31ZM156.14 406.93C156.49 406.84 156.85 406.76 157.2 406.67C156.95 405.88 156.72 405.09 156.42 404.33C156.39 404.26 155.88 404.39 155.59 404.43C155.77 405.26 155.96 406.09 156.14 406.93ZM188.15 421.59C188.17 421.37 188.19 421.16 188.21 420.94C186.56 420.72 184.91 420.5 183.26 420.28C183.24 420.5 183.21 420.71 183.19 420.93C184.85 421.15 186.5 421.37 188.16 421.59M159.02 417.92C160.22 416.68 159.54 415.82 159.09 415C159.01 414.85 158.54 414.9 158.25 414.86C158.36 415.62 158.46 416.39 158.6 417.15C158.64 417.36 158.81 417.54 159.02 417.92ZM197.24 394.53C197.38 394.72 197.53 394.91 197.67 395.1C198.12 394.96 198.61 394.89 199.01 394.66C199.43 394.43 199.76 394.05 200.13 393.74C199.6 393.63 199.01 393.32 198.54 393.46C198.04 393.6 197.67 394.16 197.23 394.53M121.5 370.33C121.55 370.03 121.6 369.73 121.65 369.43C120.99 369.22 120.34 368.97 119.66 368.82C119.47 368.78 119.1 368.99 119 369.18C118.91 369.37 119 369.89 119.1 369.91C119.89 370.1 120.7 370.2 121.5 370.33ZM220.86 384.08C220.24 384.62 219.72 385.08 219.21 385.53C219.48 385.72 219.85 386.12 220.02 386.05C220.7 385.77 221.33 385.34 221.98 384.97C221.69 384.73 221.39 384.49 220.87 384.07M269.04 361.51L268.6 360.86C268.02 361.16 267.34 361.37 266.88 361.8C266.56 362.1 266.54 362.71 266.38 363.18C266.56 363.28 266.74 363.37 266.92 363.47C267.62 362.82 268.33 362.16 269.03 361.5M78.42 363.23C78.4 361.59 77.2 362.04 76.37 362.01C76.12 362.01 75.86 362.41 75.6 362.63C76.2 362.88 76.79 363.17 77.41 363.35C77.7 363.43 78.05 363.28 78.41 363.23M55.37 326.14C55.75 325.06 56.06 324.17 56.38 323.28C56.15 323.21 55.72 323.06 55.71 323.08C55.37 323.92 55.06 324.77 54.76 325.63C54.76 325.65 54.84 325.7 55.38 326.14M154.74 399.51C154.34 400.31 154 400.69 154.08 400.91C154.34 401.59 154.76 402.21 155.12 402.85C155.35 402.55 155.81 402.19 155.75 401.96C155.59 401.27 155.22 400.63 154.73 399.52M47.88 344.22C48.28 343.01 48.59 342.11 48.89 341.21C46.77 342.17 46.55 342.88 47.88 344.22ZM236.3 381.72C236.94 381.31 237.4 381.02 237.86 380.72C237.37 380.48 236.88 380.05 236.4 380.06C235.89 380.06 235.38 380.49 234.88 380.73C235.31 381.03 235.74 381.33 236.3 381.72ZM225.33 376.98C226.47 377.22 227.73 377.84 228.62 376.09C227.18 375.88 226.08 375.75 225.33 376.98ZM145.63 387.97C145.46 388.11 145.29 388.25 145.12 388.39C144.85 389.67 145.86 390.21 146.69 390.83C146.74 390.87 147.43 390.2 147.4 390.16C146.85 389.41 146.23 388.7 145.63 387.98M252.91 375.63C254.3 377.04 255.43 376.87 256.34 375.21C255.01 375.37 253.96 375.5 252.91 375.63ZM170.59 413.12C168.73 413.86 168.81 415.06 168.95 416.58C170.53 415.83 170.44 414.62 170.59 413.12ZM72.5 362.52C72.54 362.37 72.58 362.21 72.62 362.06C72.27 361.82 71.93 361.39 71.57 361.37C70.88 361.34 70.17 361.52 69.48 361.67C69.41 361.69 69.35 362.22 69.37 362.22C69.99 362.4 70.61 362.59 71.24 362.66C71.64 362.71 72.07 362.57 72.49 362.51M271.69 367.43C272.38 366.59 272.9 366.03 273.33 365.42C273.45 365.25 273.43 364.86 273.31 364.69C273.19 364.53 272.76 364.38 272.62 364.47C271.74 365.06 270.9 365.71 271.69 367.42M126.07 454.31C127.99 455.93 130.91 456.69 132.21 456.05C130.24 455.49 128.39 454.97 126.07 454.31ZM148.92 395.86C149.19 395.74 149.45 395.61 149.72 395.49C149.37 394.65 149.06 393.79 148.64 392.98C148.55 392.81 148.03 392.77 147.76 392.85C147.59 392.9 147.36 393.38 147.43 393.51C147.88 394.32 148.42 395.08 148.92 395.87M66.25 297.2C65.94 297.11 65.62 297.02 65.31 296.93C65.05 297.84 64.76 298.75 64.55 299.68C64.53 299.78 64.93 300.1 65.13 300.1C65.35 300.1 65.72 299.89 65.77 299.71C65.98 298.88 66.1 298.04 66.25 297.2ZM69.42 359.01C69.53 359.23 69.65 359.45 69.76 359.67C70.31 359.54 70.9 359.49 71.42 359.27C71.86 359.08 72.22 358.7 72.62 358.4C72.08 358.24 71.49 357.88 71.02 357.99C70.44 358.12 69.96 358.66 69.43 359.02M75.91 359.4C75.99 359.58 76.07 359.77 76.16 359.95C76.93 359.95 77.72 360.03 78.47 359.9C78.7 359.86 78.82 359.22 78.99 358.85C78.34 358.76 77.68 358.56 77.05 358.63C76.65 358.68 76.29 359.13 75.91 359.4ZM64.92 360.67C64.28 361.16 63.72 361.59 63.16 362.03C63.75 362.14 64.34 362.24 64.94 362.35C64.99 362.35 65.07 362.37 65.11 362.35C65.5 362.08 65.88 361.81 66.26 361.54C65.89 361.3 65.51 361.06 64.93 360.68M249.29 371.38C250.54 372.16 251.39 372.01 252.49 370.81C251.51 369.96 250.2 370.19 249.29 371.38ZM126.82 371.85C125.98 371.39 125.25 370.95 124.48 370.59C124.3 370.51 123.89 370.61 123.77 370.77C123.63 370.95 123.61 371.33 123.7 371.55C124.01 372.32 125.83 372.58 126.82 371.85ZM52 335.01C50.18 334.39 50.18 335.76 49.89 336.66C49.78 336.99 50.04 337.45 50.12 337.84C50.47 337.57 50.93 337.37 51.15 337.01C51.49 336.46 51.67 335.8 52 335M43.65 414.99C43.46 415 43.27 415.02 43.08 415.04C43.01 415.45 42.77 415.95 42.92 416.25C43.26 416.92 43.8 417.49 44.25 418.09C44.47 417.76 44.95 417.32 44.86 417.11C44.56 416.36 44.07 415.68 43.65 414.98M264.32 365.38C264.22 365.21 264.12 365.03 264.02 364.86C262.15 364.66 261.16 365.33 261.31 367.08C262.41 366.46 263.37 365.92 264.33 365.38M267.87 370.72C268.07 370.75 268.27 370.78 268.47 370.82C268.97 370.28 269.54 369.79 269.92 369.18C270.05 368.98 269.73 368.48 269.61 368.12C269.08 368.48 268.42 368.75 268.05 369.24C267.79 369.59 267.91 370.22 267.86 370.73M150.38 398.01C149.98 398.57 149.61 398.93 149.67 399.03C150.17 399.84 150.74 400.61 151.29 401.39C151.48 401.11 151.91 400.72 151.83 400.57C151.46 399.76 150.96 399.01 150.37 398.01M40.21 401.27C40.37 401.2 40.52 401.13 40.67 401.07C40.67 400.2 40.74 399.31 40.62 398.46C40.59 398.24 39.96 398.11 39.6 397.94C39.52 398.64 39.31 399.35 39.39 400.02C39.44 400.46 39.92 400.86 40.21 401.27ZM153.59 398.7C153.87 398.57 154.15 398.44 154.44 398.31C154.12 397.44 153.82 396.56 153.44 395.72C153.38 395.59 152.92 395.5 152.73 395.59C152.53 395.68 152.27 396.08 152.33 396.22C152.71 397.07 153.17 397.88 153.6 398.7M61.47 307.61C62.86 307.34 64.08 305.69 63.72 305.06C63.61 304.86 62.71 304.8 62.63 304.94C62.21 305.67 61.94 306.49 61.47 307.62M180.6 412.55C181.02 412.93 181.24 413.13 181.46 413.33C182.02 412.58 182.6 411.83 183.12 411.05C183.14 411.02 182.53 410.5 182.52 410.51C181.89 411.14 181.29 411.8 180.6 412.55ZM82.54 360.93C83.23 360.64 83.74 360.42 84.24 360.21C83.62 359.89 83.03 359.41 82.38 359.32C81.92 359.25 81.38 359.7 80.87 359.91C81.41 360.24 81.95 360.57 82.54 360.93ZM39.02 386.74C39.35 386.75 39.67 386.76 40 386.77C40.07 385.84 40.18 384.92 40.19 383.99C40.19 383.81 39.85 383.51 39.64 383.49C39.45 383.47 39.06 383.74 39.05 383.9C38.99 384.84 39.02 385.79 39.02 386.73M93.24 361.46C93.32 361.61 93.4 361.76 93.48 361.91C94.29 362.05 95.11 362.27 95.93 362.29C96.18 362.29 96.44 361.72 96.69 361.41C95.92 361.17 95.16 360.83 94.37 360.75C94.02 360.71 93.62 361.21 93.24 361.46ZM207.98 381.98C207.24 381.5 206.87 381.08 206.69 381.16C205.86 381.48 205.08 381.94 204.29 382.36C204.55 382.59 204.87 383.06 205.06 383.01C205.91 382.8 206.73 382.45 207.99 381.99M46.88 421.75C46.32 420.94 45.83 420.22 45.33 419.5C45.14 419.8 44.73 420.21 44.81 420.4C45.15 421.2 45.64 421.94 46.08 422.69C46.3 422.43 46.51 422.17 46.88 421.74M240.58 379.21C242.31 380.71 243.93 380.36 244.52 378.56C243.24 378.77 242.13 378.96 240.58 379.21ZM69.83 256.56C70.05 256.52 70.27 256.49 70.49 256.45C70.34 255.47 70.2 254.48 70 253.51C69.98 253.43 69.47 253.46 69.18 253.43C69.23 254.33 69.26 255.23 69.36 256.12C69.38 256.28 69.66 256.41 69.83 256.55M210.05 389.25C210.02 389.06 209.98 388.88 209.95 388.69C208.87 388.02 207.89 388.55 206.93 389.17C206.81 389.25 206.74 389.66 206.82 389.74C207.04 389.94 207.39 390.22 207.61 390.16C208.44 389.93 209.24 389.57 210.04 389.26M65.29 357.4C64.77 357.85 64.35 358.22 63.93 358.59C64.69 358.82 65.44 359.12 66.22 359.23C66.5 359.27 66.85 358.82 67.17 358.59C66.59 358.23 66.02 357.87 65.29 357.41M158.72 410.95C158.13 410.19 157.64 409.56 157.16 408.93C157.1 409.6 157.03 410.28 156.97 410.95C156.97 411.01 156.97 411.07 156.99 411.12C157.2 411.51 157.41 411.89 157.62 412.28C157.93 411.91 158.24 411.53 158.73 410.95M60.23 359.27C60.87 358.88 61.44 358.54 62.02 358.19C61.51 357.98 60.98 357.56 60.49 357.6C59.89 357.66 59.33 358.1 58.75 358.38C59.17 358.63 59.58 358.88 60.23 359.27ZM45.96 349.74C46.46 348.55 46.85 347.74 47.11 346.89C47.16 346.71 46.71 346.38 46.48 346.12C46.03 346.9 45.53 347.67 45.17 348.49C45.09 348.66 45.51 349.05 45.96 349.74ZM119.15 367.3C120.49 367.64 121.4 367.9 122.32 368.07C122.49 368.1 122.8 367.79 122.92 367.57C122.98 367.45 122.83 367.07 122.68 367.01C121.7 366.61 120.7 365.88 119.15 367.29M116.38 368.91C116.45 368.58 116.52 368.26 116.59 367.93C115.67 367.65 114.76 367.34 113.83 367.12C113.65 367.08 113.27 367.31 113.2 367.5C113.13 367.7 113.27 368.18 113.4 368.21C114.38 368.49 115.38 368.68 116.37 368.9M236.91 374.02C236.92 374.23 236.93 374.45 236.94 374.66C238.02 375.36 239.11 374.99 240.19 374.46C240.32 374.4 240.43 373.96 240.35 373.89C240.14 373.68 239.81 373.42 239.57 373.46C238.67 373.59 237.79 373.83 236.9 374.03M200.77 384.37C200.66 384.09 200.55 383.82 200.43 383.55C199.49 383.86 198.53 384.11 197.65 384.52C197.49 384.59 197.63 385.31 197.63 385.99C198.9 385.34 199.84 384.85 200.77 384.37ZM190.43 388.09C190.58 388.39 190.73 388.69 190.88 388.98C191.79 388.52 192.72 388.09 193.61 387.57C193.73 387.5 193.73 387 193.61 386.81C193.5 386.64 193.08 386.47 192.93 386.55C192.07 387.02 191.26 387.56 190.43 388.09ZM116.02 366.12C116.02 364.87 114.34 363.66 113.45 364.13C113.24 364.24 113.03 364.56 113.03 364.78C113.03 364.98 113.27 365.3 113.48 365.37C114.3 365.66 115.15 365.87 116.02 366.12ZM39.93 390.16C38.2 390.43 38.66 391.6 38.69 392.41C38.71 392.86 39.19 393.3 39.47 393.74C39.62 393.66 39.78 393.57 39.93 393.49V390.15V390.16ZM186.87 405.84C185.39 405.42 183.63 406.7 183.9 407.71C183.95 407.92 184.74 408.19 184.86 408.08C185.55 407.43 186.15 406.67 186.87 405.84ZM191.71 401.08C191.18 400.68 190.82 400.32 190.75 400.37C189.96 400.95 189.21 401.59 188.48 402.25C188.45 402.27 188.94 402.93 188.96 402.92C189.82 402.38 190.65 401.81 191.71 401.09M40.78 403.36C40.64 403.47 40.5 403.57 40.36 403.67C40.36 404.51 40.28 405.35 40.41 406.17C40.45 406.41 41.11 406.54 41.49 406.72C41.55 405.89 41.69 405.06 41.62 404.24C41.59 403.92 41.07 403.65 40.78 403.36ZM54.24 329.02C52.89 329.22 51.41 330.8 51.67 331.48C51.76 331.72 52.69 331.93 52.74 331.84C53.26 331.01 53.68 330.11 54.24 329.01M67.6 247.06C66.23 248.62 67.6 249.42 67.94 250.34C68.01 250.54 68.46 250.59 68.74 250.71C68.84 250.38 69.1 249.97 69 249.72C68.65 248.89 68.17 248.11 67.61 247.05M101.68 364C101.05 364.44 100.65 364.72 100.24 365.01C101.09 365.36 101.93 365.75 102.81 366C102.99 366.06 103.33 365.6 103.59 365.39C102.99 364.95 102.39 364.51 101.68 364ZM40.27 369.83C38.71 370.88 39.5 372.29 39.3 373.57C40.79 373.28 41.11 371.95 40.27 369.83ZM109.64 364.88C109.84 364.76 110.13 364.59 110.42 364.42C110.22 364.14 110.08 363.77 109.81 363.61C109.39 363.36 108.87 363.12 108.41 363.15C107.91 363.18 107.43 363.53 106.94 363.73C107.29 363.96 107.63 364.23 108.01 364.4C108.46 364.59 108.96 364.69 109.63 364.89M212.4 387.39C212.5 387.7 212.61 388.01 212.71 388.32L215.91 387.31C215.79 386.93 215.66 386.55 215.54 386.17C214.49 386.58 213.44 386.99 212.39 387.4M154.42 414.66C154.79 415.8 155.07 416.75 155.43 417.68C155.49 417.83 155.91 417.91 156.14 417.88C156.3 417.86 156.51 417.61 156.57 417.43C156.85 416.56 155.8 415 154.42 414.67M245.95 379.23C246.96 378.87 247.96 378.52 248.97 378.16C248.83 377.83 248.67 377.21 248.55 377.22C247.41 377.29 246.18 377.3 245.95 379.23ZM38.58 378.23C38.65 378.73 38.63 379.15 38.79 379.48C38.91 379.72 39.29 379.82 39.55 379.99C39.76 379.18 40.03 378.37 40.16 377.55C40.2 377.27 39.9 376.94 39.75 376.64C39.49 376.78 39.12 376.86 38.99 377.08C38.77 377.45 38.7 377.9 38.58 378.24M219.72 379.06C220.59 378.57 221.41 378.11 222.23 377.66C221.95 377.44 221.6 376.97 221.42 377.03C220.44 377.36 219.51 377.82 218.56 378.24C218.88 378.47 219.2 378.69 219.73 379.06M243.52 373.03C244.85 374.46 245.88 373.29 247.37 372.77C245.71 371.36 244.66 372.63 243.52 373.03ZM55.38 421.66C55.38 421.58 55.39 421.5 55.4 421.41H48.61C48.61 421.49 48.6 421.57 48.59 421.66H55.38ZM57.73 358.35C57.65 358.11 57.63 357.93 57.54 357.81C57.03 357.12 54.55 357.19 54.18 357.96C54.08 358.17 54.42 358.86 54.6 358.88C55.45 358.97 56.31 358.93 57.16 358.86C57.36 358.84 57.54 358.53 57.72 358.36M141.74 384.02C142.23 385.69 143.34 386.53 144.68 386.24C144.12 384.45 143.13 383.69 141.74 384.02ZM146.44 385.63C147.29 386.84 148.02 387.89 148.75 388.93C148.96 388.87 149.16 388.82 149.37 388.76C149.3 388.22 149.42 387.56 149.14 387.18C148.58 386.42 148.21 385.18 146.44 385.62M230.9 376.69C231.96 376.19 232.88 375.76 233.8 375.33C233.49 375.08 233.1 374.56 232.9 374.63C231.95 374.94 231.04 375.41 230.12 375.83C230.34 376.08 230.57 376.33 230.9 376.7M111.15 366.75C109.82 366.33 108.85 365.97 107.84 365.77C107.67 365.73 107.1 366.44 107.17 366.66C107.38 367.31 109.96 367.57 111.15 366.75ZM41.42 367.43C41.65 366.22 41.89 365.02 42.15 363.64C40.32 364.21 39.89 365.96 41.42 367.43ZM43.23 355.33C43.54 355.43 43.85 355.54 44.16 355.64C44.57 354.61 45 353.6 45.36 352.55C45.42 352.39 45.13 351.94 44.98 351.92C44.72 351.89 44.25 352.05 44.18 352.24C43.81 353.25 43.54 354.3 43.23 355.33ZM42.96 412.89C42.64 412.02 42.39 411.21 42.05 410.46C41.95 410.23 41.5 409.94 41.36 410.01C41.11 410.12 40.78 410.54 40.84 410.74C41.08 411.59 41.42 412.42 41.79 413.22C41.87 413.39 42.29 413.53 42.49 413.47C42.69 413.41 42.82 413.1 42.97 412.9M177.83 398.89C178.06 399.12 178.29 399.35 178.52 399.58C179.25 398.92 180.01 398.3 180.68 397.59C180.87 397.39 180.79 396.94 180.83 396.6C180.48 396.6 179.98 396.43 179.81 396.6C179.09 397.31 178.48 398.12 177.82 398.89M128.08 373.69C129.893 374.91 131.103 375.213 131.71 374.6C130.03 372.84 129.15 372.6 128.08 373.69ZM259.52 367.97C257.71 367.27 256.58 368.33 255.12 368.72C256.45 369.89 257.83 369.65 259.52 367.97ZM168.9 419.44C167.41 419.75 165.94 422.04 166.39 422.76C166.51 422.95 167.34 423 167.39 422.89C167.91 421.85 168.33 420.77 168.89 419.43M151.36 393.73C152.33 392.7 151.77 390.28 150.68 390.1C150.45 390.06 149.86 390.66 149.91 390.77C150.33 391.76 150.85 392.7 151.37 393.72M91.19 361.41C91.19 361.2 91.19 361 91.2 360.79C90.3 360.51 89.41 360.14 88.48 360C88.02 359.93 87.5 360.3 87 360.47C87.19 360.75 87.33 361.2 87.58 361.27C88.43 361.51 89.32 361.66 90.2 361.75C90.51 361.78 90.86 361.53 91.18 361.41M71.24 259.66C69.65 260.2 69.44 262.33 70.79 263.8C71.77 262.45 71.21 261.06 71.24 259.66ZM130.22 370.64C130.16 370.41 130.16 370.15 130.07 370.11C129.08 369.66 128.07 369.21 127.04 368.85C126.94 368.82 126.65 369.36 126.44 369.63C127.57 370.12 128.71 370.62 129.85 371.08C129.91 371.1 130.1 370.77 130.22 370.63M151.33 403.08C151.86 404.48 152.29 405.6 152.72 406.72C153.09 406.55 153.72 406.47 153.8 406.21C154.1 405.25 152.9 403.56 151.33 403.08ZM183.59 394.12C184.86 393.26 185.87 392.58 186.88 391.9C186.62 391.59 186.16 390.98 186.12 391.01C185.18 391.6 184.26 392.24 183.41 392.96C183.27 393.08 183.5 393.62 183.59 394.13M104.81 362.77C102.97 361.44 101 361.31 100.28 362.54C101.77 362.74 103.03 364 104.81 362.77ZM144.63 383.63C144.98 381.33 143.08 379.67 141.51 380.46C142.59 381.56 143.61 382.59 144.63 383.63ZM136.07 374.48C136.1 374.28 136.13 374.07 136.16 373.86C135.06 373.21 133.95 372.55 132.85 371.9C132.74 372.28 132.42 372.91 132.54 373.01C133.35 373.69 134.22 374.29 135.13 374.82C135.31 374.93 135.75 374.6 136.06 374.47M136.95 378.35C136.99 378.19 137.03 378.02 137.07 377.86C136.32 377.32 135.62 376.7 134.82 376.26C134.33 375.99 133.69 376.01 133.12 375.9C133.12 376.23 132.97 376.75 133.12 376.86C133.98 377.49 134.89 378.06 135.84 378.54C136.11 378.67 136.57 378.42 136.94 378.35M46.7 358.74C48.2 358.93 49.53 359.12 50.87 359.21C51.01 359.21 51.41 358.49 51.32 358.3C50.86 357.43 47.64 357.59 46.71 358.73M54.2 426.87C53.29 426.25 52.65 425.54 52.32 425.66C51.74 425.87 51.22 426.53 50.95 427.13C50.86 427.32 51.74 428.29 52.05 428.23C52.68 428.1 53.22 427.53 54.2 426.87ZM173.29 407.33C173.12 407.14 172.95 406.8 172.77 406.79C172.49 406.77 172.06 406.9 171.94 407.11C171.44 408.03 171 408.99 170.62 409.97C170.53 410.2 170.73 410.61 170.92 410.83C171 410.92 171.54 410.83 171.62 410.69C172.2 409.62 172.71 408.51 173.29 407.33ZM339.23 435.94C339.31 436.16 339.4 436.39 339.48 436.61C342.1 435.46 344.72 434.32 347.33 433.17C347.24 432.97 347.16 432.77 347.07 432.57C344.46 433.69 341.84 434.82 339.23 435.94ZM60.01 428.66C60.75 427.57 61.33 427 61.5 426.33C61.56 426.08 60.55 425.19 60.25 425.28C59.65 425.47 58.97 426.07 58.79 426.64C58.67 427.01 59.36 427.65 60.01 428.66ZM97.22 425.37C96.17 424.49 95.34 423.51 95.09 423.64C94.2 424.1 93.5 424.94 92.73 425.64C93.28 426.19 93.93 427.25 94.37 427.17C95.22 427.02 95.96 426.22 97.22 425.37ZM197.66 426.98C198.52 427.08 199.09 426.36 199.12 425.3C199.15 424.28 198.73 423.45 197.44 423.52C196.35 423.58 195.37 423.76 195.36 425.13C195.36 426.37 196.1 426.92 197.65 426.98M171.11 437.89C171.06 438.13 171.02 438.36 170.97 438.6C174.01 439.38 177.06 440.15 180.1 440.93C180.15 440.71 180.21 440.49 180.26 440.27C177.21 439.48 174.16 438.69 171.11 437.89ZM336.27 410.68C335.79 410.39 334.93 409.52 334.5 409.7C333.7 410.04 332.83 410.89 332.61 411.7C332.34 412.66 333.28 413.04 334.26 413.05C335.54 413.05 336.1 412.42 336.27 410.68ZM349.46 404.52C349.18 404.31 348.3 403.44 348.16 403.55C347.25 404.25 346.51 405.15 345.71 405.99C346.25 406.46 346.74 407.21 347.35 407.33C348.45 407.55 349.5 406.25 349.46 404.52ZM339.62 411.63C340.4 410.71 341.29 410.08 341.19 409.69C341.02 409.02 340.25 408.5 339.73 407.91C339.23 408.44 338.43 408.91 338.31 409.51C338.22 409.99 338.96 410.62 339.62 411.62M136.76 375.18L136.65 375.59C137.68 376.68 138.68 377.79 139.76 378.82C139.94 378.99 140.47 378.81 140.84 378.79C140.77 378.44 140.8 378 140.59 377.77C139.92 377.01 139.22 376.24 138.41 375.64C137.99 375.32 137.32 375.33 136.76 375.18ZM174.18 406.01C174.6 405.8 174.8 405.76 174.88 405.65C175.71 404.45 176.53 403.25 177.31 402.02C177.42 401.85 177.25 401.51 177.21 401.25C176.86 401.31 176.35 401.25 176.2 401.46C175.37 402.58 174.6 403.76 173.9 404.96C173.78 405.17 174.07 405.61 174.18 406.02M112.54 426.3C113.81 426.17 114.87 425.55 114.72 424.28C114.65 423.63 113.62 422.71 112.91 422.6C111.69 422.41 110.81 423.21 110.72 424.58C110.63 425.9 111.53 426.15 112.54 426.3ZM272.62 428.4C272.61 426.52 271.72 426.25 270.7 426.18C269.33 426.09 268.75 427.26 268.68 428.15C268.64 428.72 269.89 429.96 270.38 429.88C271.28 429.72 272.06 428.81 272.62 428.4ZM302.66 421.81C300.68 421.79 299.27 422.75 299.53 423.7C299.73 424.42 300.46 425.25 301.15 425.5C302.09 425.84 304.06 424.15 303.81 423.28C303.62 422.6 302.88 422.08 302.65 421.81M151.91 420.48C152 419.2 151.35 418.54 150.15 418.45C149.08 418.37 147.79 419.61 147.8 420.64C147.82 421.95 148.52 422.55 149.82 422.54C151.22 422.54 151.83 421.78 151.9 420.48M134.07 421.68C133.66 421.31 132.65 420.12 132.44 420.25C131.44 420.86 130.65 421.82 129.78 422.66C130.37 423.17 130.89 423.95 131.57 424.14C132.62 424.42 134.03 423.14 134.07 421.68ZM287.12 424.88C285.53 424.88 284.16 425.85 284.42 427.01C284.57 427.65 285.48 428.4 286.17 428.58C287.29 428.86 288.97 427.39 288.87 426.36C288.78 425.39 288.25 424.67 287.11 424.88M43.47 360.02C43.57 359.58 43.77 359.09 43.78 358.6C43.78 358.19 43.57 357.77 43.46 357.36C43.13 357.63 42.58 357.85 42.52 358.16C42.32 359.36 42.27 360.59 42.15 362.06C43.31 361.81 44.08 361.64 45.38 361.36C44.48 360.73 43.99 360.38 43.48 360.02M306.29 388.46C306.25 388.61 306.22 388.75 306.19 388.89C309.75 390.49 313.31 392.09 316.86 393.69C316.93 393.53 316.99 393.37 317.06 393.21C313.54 391.46 310.17 389.35 306.29 388.45M312.09 420.5C313.6 420.46 314.81 419.23 314.76 418.06C314.7 416.75 313.82 416.34 312.68 416.41C311.42 416.49 310.31 416.87 310.32 418.44C310.33 419.81 311.12 420.44 312.09 420.5ZM329.88 414.26C328.99 413.55 328.47 412.83 327.86 412.72C326.7 412.53 326.1 413.54 326.11 414.48C326.11 415.01 327.11 416.04 327.37 415.96C328.17 415.7 328.84 415.01 329.88 414.25M297.58 391.48C299.51 392.3 301.5 392.99 303.34 393.96C305.15 394.92 306.8 396.17 308.51 397.29C308.58 397.16 308.65 397.03 308.72 396.91C305.61 393.88 301.93 391.94 297.57 391.48M217.59 428.5C218.25 427.74 219.15 427.07 219.49 426.19C219.83 425.29 218.31 423.94 217.24 423.93C216.09 423.93 214.76 425.07 214.79 426.05C214.83 427.17 215.99 428.2 217.6 428.51M357.08 401.16C357.05 400.94 357.01 400.72 356.98 400.5C356.33 400.24 355.69 399.79 355.04 399.77C353.82 399.73 353.22 400.67 353.27 401.73C353.29 402.19 354.34 403.06 354.54 402.96C355.46 402.51 356.25 401.78 357.09 401.16M77.7 426.29C77.67 426.04 77.65 425.78 77.62 425.53C76.96 425.21 76.33 424.69 75.64 424.6C74.33 424.42 74.03 425.59 74.09 426.45C74.13 426.97 75.16 427.93 75.48 427.83C76.3 427.57 76.97 426.84 77.7 426.29ZM144.57 416.25C144.57 416 144.57 415.75 144.57 415.51C140.22 415.9 135.86 416.3 131.51 416.69C131.53 416.92 131.55 417.14 131.57 417.37C135.91 417 140.24 416.63 144.58 416.25M334.44 435.25C336.98 435.49 347.13 430.87 347.89 429.27C343.51 431.22 339.07 433.19 334.44 435.25ZM176.48 423.02C177.31 422.33 178.05 421.99 178.32 421.43C178.89 420.27 179.26 419.01 179.6 417.76C179.71 417.37 179.46 416.89 179.37 416.45C179.02 416.74 178.52 416.97 178.36 417.34C177.98 418.21 177.61 418.71 176.5 418.9C175.8 419.02 174.98 420.17 174.8 420.98C174.7 421.46 175.75 422.19 176.48 423.02ZM110.31 450.56C110.19 450.77 110.07 450.97 109.95 451.18C115.56 454.14 121.18 457.1 126.79 460.06C126.9 459.85 127.02 459.63 127.13 459.42C121.52 456.47 115.92 453.51 110.31 450.56ZM91.8 277.13C91.57 277.08 91.34 277.03 91.1 276.97C89.58 283.6 88.05 290.23 86.53 296.86C86.77 296.91 87.01 296.97 87.25 297.02C88.77 290.39 90.28 283.76 91.8 277.12M161.99 432.45C163.13 434.23 181.69 439.84 183.2 438.89C176.18 436.76 168.98 434.57 161.99 432.45ZM193.79 420.12C193.76 420.41 193.73 420.7 193.7 420.99C198.23 421.33 202.8 421.31 207.32 421.8C211.92 422.3 216.56 422.44 221.18 422.74C221.2 422.5 221.21 422.26 221.22 422.02C212.08 421.39 202.93 420.76 193.79 420.12ZM178.53 252.15C175.11 252.15 172.76 254.48 172.56 257.69C172.42 260.07 174.51 262.91 177.94 263.03C181.07 263.14 183.85 260.4 183.86 257.34C183.86 254.2 181.76 252.15 178.53 252.14M154.66 370.32C165.72 368.61 176.77 366.9 187.83 365.19C176.54 365.43 165.52 367.4 154.66 370.32ZM87.6 258.5C87.89 270.37 86.2 281.67 83.73 292.89C86.32 289.13 89.68 261.47 87.6 258.5ZM93.89 447.44C93.81 447.59 93.72 447.74 93.63 447.89C104.3 454.15 115.62 459.15 126.48 465.05C126.6 464.82 126.72 464.59 126.84 464.36C115.85 458.72 104.87 453.08 93.88 447.44M172.26 278.09C171.96 280.74 173.87 283.6 177.91 283.63C181.67 283.66 184.52 281.14 184.71 277.33C184.87 274.22 182.29 271.87 178.95 271.86C175.06 271.86 172.26 274.45 172.26 278.08M123.53 417.79C123.49 417.6 123.45 417.4 123.41 417.2C119.98 417.61 116.56 418.07 113.12 418.41C107.92 418.92 102.72 419.42 97.51 419.79C90.15 420.31 82.78 420.85 75.41 421.1C70.78 421.26 66.13 420.89 61.34 420.75C61.57 421.02 61.73 421.38 61.92 421.39C82.21 422.99 102.26 420.08 122.36 418.1C122.76 418.06 123.14 417.89 123.53 417.79ZM300.18 420.29C300.15 420.1 300.11 419.92 300.08 419.73C296.8 420.22 293.52 420.77 290.23 421.19C284.62 421.9 279 422.6 273.37 423.16C270.4 423.46 267.4 423.55 264.41 423.57C258.81 423.61 253.22 423.59 247.62 423.46C242.88 423.35 238.15 423.05 233.41 422.86C233.11 422.85 232.8 423.04 232.49 423.14C232.51 423.35 232.53 423.56 232.55 423.78C243.94 423.94 255.32 424.16 266.71 424.24C278.04 424.31 289.13 422.43 300.18 420.29ZM360.57 401.76C363.85 407.45 367.16 413.06 370.31 418.75C371.03 420.05 371.65 421.72 371.46 423.1C371.28 424.41 370.19 425.83 369.11 426.75C363.72 431.38 357.54 434.87 351.47 438.52C344.76 442.55 337.69 445.68 330.43 448.61C312.09 456.01 292.87 459.72 273.58 463.27C259.82 465.79 246.42 464.02 233.15 460.16C220.87 456.58 208.57 453.09 196.26 449.61C189.38 447.66 182.48 445.8 175.58 443.93C167.18 441.65 158.76 439.44 150.36 437.12C148.31 436.55 146.31 435.77 144.33 434.99C142.87 434.41 142.15 434.94 141.94 436.35C141.49 439.47 140.98 442.58 140.68 445.72C140.06 452.12 139.56 458.54 139.03 464.95C138.95 465.91 138.98 466.87 138.96 467.84C138.86 472.66 136.94 475.03 132.17 475.51C124.85 476.24 117.51 476.86 110.17 477.24C98.41 477.85 86.63 478.12 74.86 478.72C68.3 479.05 61.77 479.81 55.22 480.24C53.32 480.37 51.39 480.11 49.49 479.91C48.25 479.78 47.67 478.88 47.57 477.67C46.26 462.31 45.87 446.91 45.75 431.5C45.75 431.28 45.82 431.07 45.8 431.2C50.49 431 55.04 430.79 59.6 430.62C62.37 430.51 65.14 430.39 67.9 430.38C79.29 430.35 90.68 430.46 102.07 430.34C109.86 430.26 117.64 429.91 125.38 428.76C129.61 428.13 133.92 428.07 138.19 427.64C144.25 427.03 150.28 426.18 156.34 425.68C162.76 425.15 169.21 424.89 175.6 426.18C176.15 426.29 176.74 426.33 177.29 426.24C177.58 426.19 178.04 425.76 178.02 425.54C177.95 424.69 177.71 423.86 177.44 422.57C176.87 423.31 176.46 423.84 175.95 424.49C173.04 424.29 169.89 423.81 166.77 423.93C160.74 424.16 154.73 424.7 148.71 425.19C143.82 425.59 138.94 426.12 134.06 426.61C128.68 427.15 123.29 427.73 117.91 428.24C115.83 428.44 113.73 428.59 111.64 428.61C97.48 428.76 83.32 428.81 69.16 429.01C62.83 429.1 56.51 429.44 50.18 429.66C49.61 429.68 49.05 429.67 48.48 429.66C45.84 429.62 45.46 429.22 45.53 426.87C46.14 426.33 46.62 425.99 46.97 425.54C47.09 425.39 46.85 424.72 46.8 424.73C46.36 424.75 45.92 424.88 45.77 424.91C44.39 421.69 43.01 418.44 41.61 415.19C39.27 409.76 38.49 403.96 37.79 398.19C36.9 390.87 36.76 383.51 37.22 376.14C37.82 366.55 40.04 357.36 43.6 348.47C48.56 336.07 53.73 323.74 58.51 311.27C61.69 302.98 64.39 294.5 65.65 285.64C66.91 276.8 67.52 268.02 65.5 259.15C64.73 255.76 65.13 252.07 65.24 248.53C65.31 246.19 66.7 244.46 68.64 243.12C73.05 240.08 77.94 238.61 83.26 238.23C89.26 237.8 95.09 239.11 100.99 239.73C106.28 240.29 111.57 240.82 116.87 241.29C119.8 241.55 122.75 241.85 125.69 241.78C131.29 241.66 136.71 242.84 142.2 243.63C144.92 244.02 147.73 243.85 150.48 244.04C155.87 244.43 161.25 244.91 166.63 245.34C168.71 245.5 170.82 245.42 172.87 245.77C176.83 246.45 180.82 247.09 184.66 248.24C188.49 249.39 190.9 252.35 192.42 256.02C194.37 260.73 195.51 265.57 195.48 270.71C195.45 275.63 195.48 280.57 195.83 285.48C196.07 288.83 196.91 292.14 197.51 295.59C195.03 295.96 192.51 296.45 189.96 296.63C189.2 296.69 188.19 296.08 187.62 295.47C185.23 292.91 181.39 292.69 178.36 295.09C175.78 297.14 175.31 300.59 177.25 303.39C178.94 305.83 183.08 306.52 185.87 304.44C187.52 303.21 189.22 302.6 191.15 302.26C193.84 301.79 196.52 301.23 199.07 300.73C201.13 304.74 203.11 308.58 205.28 312.78C203.16 314.46 200.85 316.33 198.49 318.1C198.21 318.3 197.48 318.13 197.09 317.91C193.32 315.81 188.73 317.72 187.93 321.76C187.4 324.43 188.6 327.01 190.96 328.31C193.26 329.57 196.28 329.17 198.2 327.47C201.83 324.26 205.51 321.11 209.17 317.93C212.22 321.37 215.3 324.81 218.33 328.31C218.53 328.54 218.41 329.26 218.2 329.61C216.92 331.78 215.58 333.91 214.22 336.1C211.73 335.21 209.52 335.39 207.51 336.83C205.13 338.54 204.22 341.02 204.95 343.58C205.48 345.46 207.72 347.26 209.68 347.39C213.17 347.61 215.49 346.2 216.89 343.51C218.79 339.85 220.94 336.31 222.99 332.7C227.31 335.91 231.55 339.06 235.97 342.34C234.98 343.67 233.97 345.08 232.89 346.44C232.26 347.24 231.53 347.72 230.34 347.78C227.72 347.92 225.16 350.29 224.99 352.38C224.69 356.05 228.03 358.79 231.8 357.85C234.36 357.22 236.41 355.96 237.11 353.08C237.32 352.23 238.16 351.54 238.7 350.76C239.85 349.1 241 347.44 242.16 345.77C245.57 347.16 248.98 348.55 252.64 350.04C251.62 350.66 250.73 351.33 249.74 351.77C248.15 352.49 246.65 353.25 246.44 355.21C246.28 356.7 247.51 358.11 249.57 358.95C251.83 359.87 254.08 359.86 256.17 358.58C256.89 358.14 257.88 357.32 257.88 356.68C257.87 354.66 259.27 353.58 260.32 351.97C263 353.28 265.64 354.57 268.83 356.12C266.23 358.22 264.13 360.07 261.87 361.71C255.97 366.01 249.14 368.14 242.15 369.76C229.99 372.58 217.75 375.03 205.63 378.01C197.82 379.93 190.44 383.09 184.13 388.28C178.35 393.04 173.52 398.65 169.97 405.24C167.74 409.37 165.94 413.73 164.04 417.78C163.65 417.2 162.83 416.52 161.59 417.41C160.59 418.13 160.18 419.23 160.84 420.2C161.67 421.41 162.9 420.85 163.83 420.41C164.17 420.86 164.5 421.31 164.83 421.76C165.07 421.31 165.43 420.88 165.52 420.4C167.23 411.63 171.74 404.32 177.15 397.4C185.57 386.64 197.13 381.34 209.97 378.35C220.92 375.8 231.95 373.64 242.91 371.14C252.25 369.01 260.96 365.48 268 358.65C269.41 357.28 270.19 355.69 270.33 353.25C270.96 354.01 271.45 354.45 271.75 355C271.99 355.45 272 356.02 272.12 356.54C272.55 356.17 272.98 355.8 273.58 355.29C274.23 355.65 275.05 356.1 275.75 356.48C275.59 357.4 275.37 358.15 275.37 358.91C275.37 359.27 275.79 359.64 276.01 360C276.24 359.68 276.56 359.38 276.69 359.03C276.87 358.53 276.92 357.98 277.01 357.55C283.45 360.38 289.76 363.17 296.09 365.91C302.16 368.54 308.16 371.46 314.83 372.3C319.38 372.88 323.96 373.19 328.53 373.54C337.87 374.25 346.45 376.84 353.3 383.6C357.53 387.78 359.55 392.94 359.84 398.84C359.9 400.05 359.31 400.7 358.45 401.34C350.2 407.45 341.25 412.28 331.79 416.22C323.43 419.7 315.11 423.34 306.21 425.27C300.23 426.57 294.2 427.8 288.13 428.55C280.19 429.53 272.19 430.09 264.2 430.64C260.71 430.88 257.2 430.68 253.83 430.68C254.9 429.85 254.91 428.66 253.77 427.56C252.7 426.54 251.61 427.18 250.77 427.91C249.57 428.95 250.14 430 251.12 430.78H236.41C237.03 430.14 238.31 429.26 238.17 428.86C237.84 427.87 237.01 426.72 236.09 426.37C235.42 426.11 233.9 426.78 233.5 427.47C233.16 428.06 233.86 429.26 234.13 430.29C233.28 430.29 231.97 430.39 230.68 430.27C223.6 429.64 216.53 428.92 209.45 428.32C205.57 427.99 201.66 427.9 197.78 427.57C194.81 427.31 191.87 426.84 188.91 426.45C188.58 426.41 188.22 426.19 187.93 426.27C187.57 426.36 187.27 426.67 186.94 426.88C187.19 427.12 187.4 427.53 187.68 427.58C190.62 428.08 193.55 428.66 196.51 428.94C203.47 429.59 210.45 430.1 217.42 430.64C222.26 431.02 227.1 431.43 231.94 431.69C238.55 432.05 245.16 432.5 251.77 432.52C257.81 432.54 263.86 432.08 269.89 431.73C274.28 431.47 278.69 431.19 283.05 430.66C288.69 429.98 294.34 429.26 299.91 428.17C318.32 424.56 335.33 417.3 351.46 407.86C354.52 406.07 357.37 403.92 360.58 401.75" fill="white"/>
<path d="M200.5 123.68C200.94 123.34 201.23 123.1 201.53 122.87C201.13 122.57 200.75 122.1 200.31 122.03C199.97 121.98 199.55 122.43 199.16 122.66C199.55 122.96 199.95 123.26 200.49 123.68M207.03 124.92C207.58 124.56 207.94 124.32 208.31 124.07C207.87 123.8 207.44 123.35 206.97 123.3C206.55 123.26 206.08 123.65 205.64 123.85C206.07 124.18 206.51 124.51 207.03 124.91M243.83 134.33C243.63 132.4 242.71 132.02 241.03 132.99C242.09 133.5 242.96 133.91 243.83 134.33ZM223.72 126.9C223.65 127.11 223.58 127.33 223.51 127.54C224.36 127.82 225.2 128.11 226.05 128.34C226.12 128.36 226.31 127.94 226.45 127.73C225.69 127.38 224.93 127.03 224.16 126.71C224.06 126.67 223.87 126.83 223.72 126.9ZM219.28 126.9C219.66 126.61 219.93 126.4 220.21 126.19C219.61 125.79 219.06 125.28 218.4 125.04C218.12 124.94 217.63 125.4 217.23 125.61C217.88 126.02 218.53 126.43 219.28 126.9ZM211.07 124.4C211.07 124.69 211.06 124.99 211.05 125.28C211.83 125.41 212.61 125.58 213.39 125.62C213.61 125.63 213.94 125.29 214.04 125.04C214.1 124.9 213.8 124.43 213.64 124.42C212.79 124.36 211.93 124.39 211.07 124.39M269.14 145.54C268.51 146.41 268.17 146.8 268.2 146.83C268.87 147.5 269.57 148.12 270.27 148.75C270.47 148.52 270.88 148.16 270.83 148.08C270.36 147.28 269.81 146.53 269.14 145.54ZM275.62 155.35C276 154.83 276.36 154.46 276.3 154.39C275.77 153.64 275.18 152.93 274.6 152.22C274.39 152.43 273.95 152.76 273.99 152.82C274.44 153.61 274.96 154.37 275.61 155.36M257.45 139.34C257.29 139.63 257.13 139.93 256.97 140.22C257.82 140.75 258.65 141.31 259.53 141.79C259.68 141.87 260.1 141.69 260.21 141.51C260.31 141.34 260.25 140.88 260.11 140.79C259.25 140.27 258.34 139.81 257.44 139.34M201.77 119.28C201.24 119.67 200.89 119.93 200.53 120.19C201.31 120.53 202.07 120.94 202.88 121.17C203.15 121.24 203.55 120.84 203.89 120.65C203.22 120.21 202.54 119.78 201.77 119.28ZM209.35 121.9C209.52 121.77 209.69 121.65 209.87 121.52C209.54 121.12 209.27 120.46 208.89 120.39C208.07 120.24 207.19 120.39 206.33 120.43C206.48 120.72 206.58 121.19 206.8 121.26C207.63 121.54 208.5 121.7 209.36 121.9M229.48 128.15C229.65 129.91 231.08 130.61 232.91 130.09C232.32 128.46 230.76 128.87 229.48 128.15ZM250.33 136C249.03 135.4 248.12 134.94 247.18 134.58C247.05 134.53 246.74 134.95 246.51 135.15C247.36 135.7 248.18 136.29 249.06 136.77C249.21 136.85 249.61 136.45 250.33 136ZM251.27 137.44C252.29 137.98 253.08 138.48 253.94 138.81C254.12 138.88 254.82 138.3 254.79 138.09C254.65 137.18 252.42 136.64 251.26 137.44M238.64 132.82C238.24 130.76 236.94 130.15 235.04 131.14C236.12 131.64 237.19 132.15 238.64 132.82ZM273.74 147.33C273.48 149.03 274.7 149.62 275.53 150.41C275.56 150.44 276.33 149.86 276.29 149.78C275.79 148.69 275.17 147.68 273.74 147.33ZM288.78 191.81C288.6 191.9 288.42 191.98 288.24 192.07C288.3 193 288.29 193.94 288.44 194.85C288.49 195.17 288.92 195.44 289.18 195.73C289.34 195.42 289.59 195.11 289.63 194.79C289.69 194.18 289.73 193.54 289.59 192.95C289.49 192.53 289.07 192.18 288.79 191.81M243.44 129.91C243.31 130.23 243.19 130.56 243.06 130.88C244.04 131.29 245.01 131.73 246.01 132.09C246.17 132.15 246.58 131.92 246.66 131.73C246.74 131.54 246.62 131.07 246.47 131.01C245.48 130.6 244.45 130.26 243.44 129.9M266.87 144.53C265.6 143.83 264.58 143.27 263.57 142.71C263.43 142.97 263.14 143.43 263.18 143.46C264.04 144.12 264.93 144.76 265.85 145.34C265.93 145.39 266.3 145 266.87 144.53ZM286.77 190.8C286.61 190.87 286.45 190.95 286.29 191.02C286.22 192.06 286.09 193.1 286.11 194.13C286.11 194.35 286.64 194.55 286.93 194.76C287.14 193.83 287.45 192.91 287.52 191.98C287.55 191.6 287.04 191.19 286.77 190.79M213.3 120.82C213.23 121.17 213.17 121.53 213.1 121.88C214.28 122.11 215.46 122.36 216.64 122.55C216.77 122.57 217.08 122.3 217.09 122.16C217.1 121.92 216.97 121.49 216.84 121.46C215.67 121.21 214.48 121.02 213.3 120.82ZM229.23 124.46C229 124.6 228.71 124.79 228.42 124.97C228.62 125.25 228.77 125.66 229.04 125.77C229.81 126.08 230.61 126.31 231.42 126.48C231.71 126.54 232.07 126.31 232.39 126.22C232.18 125.89 232.05 125.4 231.76 125.27C231.01 124.93 230.19 124.75 229.23 124.46ZM280.09 155.47C280.26 155.44 280.42 155.42 280.59 155.39C280.69 155.05 280.99 154.61 280.87 154.4C280.36 153.48 279.76 152.61 279.11 151.79C279.01 151.66 278.5 151.86 278.18 151.9C278.27 152.3 278.28 152.76 278.48 153.1C278.97 153.92 279.55 154.68 280.09 155.47ZM269.33 142.97C269.19 143.69 268.92 144.26 269.07 144.42C269.82 145.17 270.66 145.84 271.51 146.48C271.64 146.58 272.03 146.48 272.21 146.34C272.34 146.25 272.41 145.84 272.33 145.76C271.45 144.91 270.54 144.09 269.32 142.97M279.46 161.86C280.35 160.78 279.69 157.94 278.69 157.71C278.48 157.66 277.84 158.33 277.9 158.48C278.33 159.6 278.89 160.67 279.46 161.86ZM221.47 122.21C221.29 122.37 220.9 122.56 220.88 122.77C220.86 123.02 221.09 123.45 221.32 123.55C222.04 123.85 222.79 124.11 223.56 124.22C223.99 124.28 224.46 124.02 224.91 123.9C224.56 123.57 224.26 123.12 223.84 122.93C223.13 122.62 222.35 122.47 221.47 122.21ZM288.99 184.96V189.51C289.17 189.58 289.36 189.64 289.54 189.71C289.79 189.12 290.2 188.54 290.25 187.93C290.33 186.91 290.52 185.74 288.99 184.97M286.99 186.56C287.33 186.5 287.67 186.44 288.01 186.38C287.84 185.12 287.68 183.86 287.46 182.61C287.43 182.43 287.04 182.18 286.84 182.2C286.63 182.22 286.27 182.56 286.29 182.71C286.48 184 286.75 185.28 286.99 186.57M285.63 172.25C285.34 171.29 285.18 170.51 284.85 169.81C284.72 169.52 284.21 169.41 283.87 169.22C283.77 169.55 283.56 169.9 283.61 170.21C283.72 170.93 283.91 171.64 284.16 172.32C284.28 172.66 284.6 172.94 284.82 173.25C285.11 172.9 285.39 172.55 285.63 172.26M282.09 163.37C281.86 163.43 281.63 163.5 281.4 163.56C281.7 164.82 282 166.07 282.31 167.33C282.7 167.21 283.42 167.1 283.42 166.98C283.46 165.59 283.13 164.31 282.09 163.37ZM287.63 171.1C287.37 171.18 287.11 171.26 286.84 171.34C286.53 172.72 287.42 173.9 287.78 175.17C287.81 175.26 288.33 175.32 288.53 175.22C288.72 175.12 288.95 174.73 288.89 174.56C288.51 173.4 288.06 172.26 287.63 171.11M288.96 182.38C289.12 182.46 289.29 182.54 289.45 182.61C289.72 182.28 290.27 181.86 290.2 181.64C289.81 180.42 290.23 178.81 288.24 178.18C288.48 179.58 288.72 180.98 288.96 182.38ZM257.25 136.65C258.7 137.65 259.82 138.43 260.97 139.15C261.03 139.19 261.67 138.62 261.65 138.35C261.61 137.59 258.77 136.25 257.25 136.65ZM281.79 158.43C282.25 160.56 283.37 162.16 284.38 162.21C284.54 160.33 283.39 158.56 281.79 158.43ZM263.02 140.64C264.44 141.63 265.51 142.4 266.61 143.11C266.76 143.21 267.2 143.11 267.33 142.94C267.47 142.77 267.48 142.4 267.4 142.17C267.06 141.28 264.62 140.25 263.02 140.64ZM235.96 127.28C235.9 127.45 235.85 127.63 235.79 127.8C237.03 128.31 238.26 128.84 239.53 129.28C239.63 129.31 240.22 128.56 240.14 128.33C239.9 127.65 236.77 126.94 235.97 127.28M285.82 179.89C286.92 178.95 286.82 175.74 285.85 175.18C285.65 175.06 284.89 175.45 284.9 175.51C285.15 176.94 285.48 178.35 285.82 179.89ZM254.7 136.01C255.01 134.21 252.43 132.78 249.88 133.64C251.72 134.55 253.18 135.26 254.7 136.01ZM287.39 168.81C286.96 167.58 286.64 166.51 286.19 165.5C286.06 165.21 285.56 165.09 285.23 164.9C285.16 165.29 284.96 165.71 285.04 166.08C285.25 167.06 285.55 168.03 285.89 168.97C286 169.27 286.37 169.47 286.62 169.71C286.88 169.41 287.14 169.12 287.39 168.83M271.71 192.26C271.45 192.6 270.7 193.16 270.6 193.83C270.39 195.1 271.52 195.64 272.5 195.62C273.11 195.61 274.16 194.84 274.2 194.34C274.3 193.24 273.63 192.34 271.71 192.26ZM203.44 178.36C205.31 178.4 206.89 177.33 206.55 176.51C206.21 175.67 205.34 174.75 204.5 174.49C203.42 174.15 202.02 175.54 202.26 176.61C202.43 177.36 203.17 177.99 203.44 178.37M240.78 186.92C241.79 186.73 243.05 186.75 242.99 185.24C242.94 183.94 242.33 183.04 240.8 183.1C239.44 183.16 238.5 183.96 238.53 185.21C238.56 186.7 239.65 186.79 240.78 186.92ZM256.06 186.52C254.68 186.42 253.65 187.2 253.55 188.41C253.44 189.69 254.09 190.27 255.29 190.37C256.63 190.48 258.04 189.64 257.95 188.66C257.85 187.56 257.44 186.56 256.06 186.52ZM222.44 181.45C223.97 181.47 225.07 180.7 224.99 179.52C224.9 178.21 224.04 177.64 222.81 177.71C221.58 177.78 220.34 178.14 220.27 179.62C220.21 180.92 221.08 181.51 222.44 181.45ZM189.48 174.95C189.74 173.7 188.72 173.44 187.8 173.36C186.22 173.23 184.87 174.42 184.85 175.7C184.83 177.14 185.85 177.54 186.94 177.63C188.27 177.74 189.51 176.39 189.49 174.95M317.69 153.59C317.74 153.4 317.79 153.21 317.84 153.02C311.13 150.48 304.77 146.95 297.55 145.89C304.26 148.46 310.98 151.02 317.69 153.59ZM337.46 89.7497C339.8 89.7397 340.82 88.2497 339.99 86.0397C339.16 83.8297 337.58 82.5797 335.23 82.3297C333.09 82.0997 331.47 84.2297 332.26 86.2197C332.95 87.9497 335.61 89.7597 337.45 89.7497M258.61 83.7997C260.61 88.6197 273.08 103.32 274.92 103.63C269.7 97.2797 264.31 90.7297 258.61 83.7997ZM260.95 101.76C257.53 99.1297 235.28 96.5297 233.24 98.4497C242.66 98.3697 251.88 99.4397 260.95 101.76ZM268.66 90.3897L269.02 90.1897C264.54 81.5897 260.07 72.9797 255.59 64.3797C255.43 64.4597 255.28 64.5497 255.12 64.6297C259.27 73.4097 263.54 82.1197 268.65 90.3897M363.34 165.95C349.94 163.87 337.24 159.26 324.18 155.32C325.93 157.64 360.01 166.99 363.34 165.95ZM256.38 52.2297C256.23 52.2597 256.09 52.2797 255.94 52.3097C256.01 52.7097 256.02 53.1397 256.17 53.5097C257.66 57.4297 259.03 61.3997 260.7 65.2497C264.39 73.7497 268.4 82.0897 273.93 89.5997C274.24 90.0197 274.7 90.3297 275.09 90.6897C267 78.6997 261.25 65.6897 256.4 52.2297M345.01 101.79C343.6 100.49 342.62 99.3997 341.46 98.5497C339.2 96.8997 336.9 95.2997 334.51 93.8497C333.55 93.2697 332.29 92.8997 331.2 92.9497C330.35 92.9897 329.17 93.6697 328.82 94.3897C328.43 95.1997 328.46 96.5697 328.9 97.3697C330.23 99.7497 333.97 100.55 336.7 99.0397C339.2 101.21 341.8 103.44 344.35 105.72C344.61 105.95 344.68 106.53 344.66 106.94C344.57 108.63 344.41 110.31 344.26 112.23C342.59 110.9 341.07 109.69 339.57 108.47C338.25 107.39 337.04 106.15 335.6 105.25C334.07 104.29 332.41 103.42 330.68 102.95C329.01 102.5 327.37 103.86 326.62 105.78C325.9 107.62 326.32 109.57 327.87 110.61C330.12 112.13 332.47 113.25 335.22 111.66C335.49 111.5 336.11 111.63 336.4 111.84C338.59 113.51 340.76 115.21 342.9 116.96C343.25 117.25 343.63 117.8 343.6 118.2C343.37 121.12 343.04 124.03 342.71 127.16C339.42 125.35 336.36 123.6 333.24 121.97C332.15 121.4 330.89 120.76 329.74 120.81C328.32 120.87 326.64 121.21 326.32 123.17C325.99 125.22 327.09 127.8 328.72 128.78C330.44 129.8 332.23 130.23 334.18 129.4C334.47 129.28 334.92 129.35 335.23 129.49C336.16 129.88 337.06 130.34 337.95 130.8C342.53 133.14 342.44 133.15 343.02 138.23C343.29 140.57 343.95 142.87 344.44 145.23C342.81 145.49 341.02 145.83 339.22 146.03C338.84 146.07 338.42 145.58 338 145.38C336.86 144.82 335.77 144.06 334.57 143.78C333 143.41 331.16 145.22 331.19 147.02C331.24 149.66 332.12 151.98 334.35 153.6C335.51 154.45 336.92 154.75 337.89 153.66C339.67 151.69 342.06 151.73 344.3 151.22C345.11 151.04 345.96 150.94 346.8 150.94C347.24 150.94 347.86 151.1 348.09 151.42C352.65 157.62 359.02 161.52 365.53 165.26C365.87 165.46 366.21 165.66 366.7 165.94C366.34 166.11 366.09 166.22 365.54 166.48C376.67 168.86 386.07 174.03 394.86 181.39C392.82 182.02 391.07 182.98 389.29 183.04C384.34 183.21 379.31 183.5 374.43 182.83C365.47 181.6 356.63 179.5 347.68 178.21C343.48 177.61 339.12 177.95 334.84 178.05C328.49 178.19 322.55 179.96 316.86 182.77C308.57 186.87 302.83 193.47 298.34 201.31C297.62 202.56 296.98 202.82 295.73 202.46C294.06 201.97 292.34 201.65 290.68 201.14C290.21 201 289.86 200.46 289.73 199.85C290.34 199.94 291.12 200.3 291.53 200.05C292.16 199.68 292.53 198.88 293.01 198.27C292.32 197.78 291.69 197.05 290.92 196.85C290.11 196.64 288.32 198.82 288.31 199.75C288.31 199.99 288.22 200.23 288.17 200.48C288.02 200.48 287.88 200.49 287.73 200.5C287.68 199.81 287.7 199.1 287.56 198.43C287.46 197.97 287.12 197.57 286.88 197.14C286.65 197.59 286.34 198.01 286.23 198.49C286.12 198.97 286.2 199.49 286.2 200.19C282.27 199.31 278.48 198.61 274.76 197.61C261.83 194.16 248.97 190.49 236.02 187.15C225.46 184.43 214.89 181.67 204.19 179.64C195.48 177.98 186.59 177.82 177.76 180.72C177.86 180.26 177.93 179.88 178.05 179.33C176.88 180.49 175.84 181.52 174.8 182.55C174.62 182.43 174.43 182.3 174.25 182.18C174.73 179.43 175.16 176.66 175.69 173.92C177.23 165.92 178.5 157.86 180.46 149.97C182.87 140.28 187.4 131.45 192.64 122.98C192.78 122.75 192.97 122.54 193.04 122.46H196.72C196.77 122.26 196.82 122.07 196.87 121.87C195.98 121.55 195.09 121.23 194.21 120.9C194.21 120.77 194.19 120.64 194.18 120.51C195.13 120.37 196.08 120.24 197.54 120.03C196.71 119.39 196.23 119.02 195.6 118.53C196.65 117.19 197.67 115.62 198.94 114.3C205.25 107.72 211.56 101.14 218 94.6897C226.65 86.0397 233.94 76.4697 237.34 64.5697C239.33 57.6297 240.43 50.4397 241.92 43.3597C242.02 42.8697 241.99 42.3397 242 41.8397C242.04 37.6097 243.65 35.7297 247.9 35.6897C250.34 35.6697 252.87 36.0797 255.23 36.7597C261.56 38.5997 267.34 41.7197 272.29 46.0097C283.87 56.0597 297.47 61.8697 312.06 65.8597C318.82 67.7097 325.57 69.6997 331.72 73.2497C340.56 78.3397 344.88 86.0297 345.03 96.1597C345.05 97.8597 345.03 99.5597 345.03 101.83" fill="white"/>
<path d="M360.61 236.51C360.63 236.35 360.64 236.2 360.66 236.05C358.387 235.443 357.083 235.396 356.75 235.91C358.04 236.11 359.33 236.31 360.61 236.52M245.29 221.98C243.96 220.46 239.65 219.3 238.48 219.99C240.67 220.63 242.77 221.24 245.29 221.98ZM252.85 213.77C252.62 213.85 252.39 213.92 252.15 214C253.86 219.12 255.57 224.25 257.29 229.37C257.51 229.3 257.74 229.22 257.96 229.15C256.26 224.02 254.55 218.9 252.85 213.77ZM255.31 234.52C255.51 234.46 255.7 234.41 255.9 234.35C253.31 225.49 250.73 216.64 248.14 207.78C247.96 207.83 247.78 207.89 247.6 207.94C249.86 216.89 252.48 225.74 255.31 234.52ZM166.93 223.59C166.06 220.38 165.2 217.66 166.07 214.51C168.56 205.52 170.88 196.47 172.98 187.38C173.57 184.82 174.85 183.53 177.08 182.6C180.87 181.01 184.82 180.31 188.9 180.09C198.85 179.54 208.29 182.1 217.87 184.26C235.21 188.16 252.12 193.58 269.35 197.86C278.02 200.02 286.74 201.96 295.47 203.86C302.13 205.31 308.35 207.98 314.74 210.25C324.69 213.78 334.87 216.65 344.93 219.89C352.79 222.42 360.5 225.44 368.45 227.64C382.47 231.51 396.55 235.17 410.73 238.41C420.73 240.7 430.94 241.93 441.28 241.69C448.29 241.53 455.31 241.71 462.32 241.61C464.85 241.57 467.38 241.21 469.9 240.95C472.57 240.68 474.56 241.62 475.41 244.2C476.33 246.98 476.95 249.87 477.45 252.75C478.11 256.59 478.54 260.47 479.04 264.34C479.12 264.94 479.05 265.56 479.05 266.41C475.91 266.41 472.93 266.48 469.95 266.39C464.47 266.22 458.99 265.98 453.51 265.73C446.05 265.4 438.59 265.2 431.15 264.66C418.43 263.74 406.06 260.8 393.69 257.8C379.52 254.36 366.14 248.78 352.8 243.07C339.55 237.41 326.39 231.54 313.13 225.9C307.5 223.51 301.65 221.61 296.01 219.23C291.76 217.44 287.67 215.29 283.53 213.24C280.55 211.77 277.62 210.23 274.67 208.71C272.57 207.63 271.93 207.78 271.06 210C268.24 217.23 265.52 224.49 262.72 231.73C262.05 233.46 261.27 235.16 260.49 236.84C259.91 238.07 259.24 238.48 257.62 238.02C246.83 234.91 235.99 231.95 225.13 229.05C215.31 226.42 205.47 223.82 195.59 221.42C188.28 219.64 180.83 218.65 173.28 219.19C169.24 219.48 167.91 220.34 166.94 223.59" fill="white"/>
<path d="M478.97 268.07C477.88 269.34 477.07 270.56 476.01 271.49C472.81 274.29 468.93 275.9 465.05 277.51C456.2 281.17 447.28 284.63 437.89 286.64C427.98 288.76 417.89 289.16 407.81 289.08C391.07 288.94 374.69 286.1 358.59 281.69C348.98 279.06 340.19 274.41 331.36 269.92C310.86 259.5 290.84 248.2 271.03 236.53C268.74 235.18 266.44 233.85 264.09 232.48C266.97 224.88 269.85 217.28 272.67 209.81C273.07 209.76 273.2 209.69 273.28 209.73C280.39 213.26 287.44 216.91 294.63 220.27C297.76 221.73 301.25 222.42 304.43 223.79C318.75 229.93 333 236.27 347.33 242.39C360.15 247.87 372.87 253.69 386.36 257.32C396.28 259.99 406.3 262.38 416.39 264.25C423.46 265.55 430.72 265.93 437.91 266.41C444.85 266.87 451.81 266.88 458.77 267.15C465.32 267.4 471.88 267.74 478.97 268.06" fill="white"/>
<path d="M347.81 191.969C348.35 191.639 348.72 191.409 349.09 191.189C348.61 190.909 348.16 190.469 347.65 190.399C347.28 190.349 346.84 190.769 346.43 190.989C346.86 191.299 347.29 191.599 347.81 191.979M365.91 192.389C365.43 192.769 365.1 193.039 364.76 193.309C365.22 193.569 365.66 193.959 366.15 194.059C366.54 194.129 367 193.839 367.43 193.709C366.97 193.319 366.51 192.919 365.91 192.399M378.59 194.419C378.68 194.249 378.76 194.069 378.85 193.899C378.64 193.819 378.42 193.679 378.21 193.669C377.41 193.619 376.61 193.599 375.81 193.609C375.77 193.609 375.69 194.169 375.71 194.179C376.42 194.379 377.14 194.579 377.87 194.699C378.09 194.739 378.35 194.529 378.59 194.429M394.74 191.509C393.46 192.489 392.89 192.919 392.33 193.349C392.57 193.539 392.86 193.929 393.04 193.879C393.8 193.679 394.54 193.379 395.23 192.999C395.31 192.959 394.96 192.149 394.74 191.509ZM358.15 184.169C358.63 183.799 358.96 183.549 359.28 183.299C358.75 183.009 358.23 182.569 357.67 182.489C357.27 182.429 356.8 182.869 356.36 183.079C356.91 183.419 357.47 183.749 358.15 184.169ZM355.32 191.899C355.86 193.489 357.1 192.939 358.43 192.839C357.79 190.969 356.41 191.869 355.32 191.899ZM397.14 191.709C398.51 192.719 399.4 192.219 400.16 191.609C400.42 191.399 400.37 190.779 400.54 189.939C399.21 190.629 398.36 191.079 397.14 191.719M344.25 191.259C344.25 191.059 344.26 190.869 344.27 190.669C343.03 189.609 341.86 189.599 340.72 191.069C342.11 191.139 343.18 191.199 344.25 191.259ZM373.95 185.239C373.52 185.609 373.2 185.879 372.89 186.149C373.62 186.469 374.34 186.859 375.1 187.069C375.31 187.129 375.67 186.619 375.96 186.379C375.33 186.029 374.71 185.669 373.95 185.239ZM387.95 186.719C389.25 187.539 390.27 187.339 391.23 186.069C390.14 185.309 388.87 185.559 387.95 186.719ZM383.27 186.209C383.24 186.529 383.21 186.859 383.18 187.179C384.12 187.259 385.06 187.359 386.01 187.379C386.16 187.379 386.44 186.989 386.44 186.779C386.44 186.589 386.15 186.249 385.97 186.229C385.07 186.169 384.17 186.199 383.26 186.199M333.92 182.059C333.91 181.859 333.89 181.659 333.87 181.449C333.41 181.329 332.91 181.049 332.5 181.149C331.88 181.299 331.33 181.719 330.75 182.019C331.11 182.249 331.49 182.709 331.82 182.679C332.53 182.609 333.22 182.279 333.92 182.059ZM368.39 184.249C367.97 184.549 367.65 184.779 367.33 185.009C368 185.389 368.63 185.879 369.35 186.099C369.64 186.189 370.11 185.719 370.5 185.509C369.83 185.109 369.17 184.709 368.39 184.239M381.56 186.959C380.46 185.499 379.01 185.489 377.85 186.959H381.56ZM317.68 186.859C317 186.409 316.67 186.059 316.54 186.129C315.71 186.539 314.92 187.019 314.15 187.529C314.1 187.559 314.36 188.059 314.47 188.339C315.42 187.909 316.36 187.469 317.68 186.869M307.86 195.209C307.7 195.039 307.54 194.869 307.38 194.699C306.1 194.629 305.51 195.579 304.98 196.549C304.88 196.719 305 197.089 305.14 197.289C305.22 197.399 305.64 197.429 305.74 197.329C306.47 196.649 307.16 195.919 307.86 195.199M336.54 189.579C335.87 189.979 335.33 190.299 334.78 190.619C335.25 190.849 335.73 191.279 336.18 191.249C336.86 191.199 337.52 190.829 338.19 190.599C337.7 190.289 337.2 189.989 336.54 189.579ZM362.05 193.989C362.47 193.539 362.75 193.239 363.04 192.949C362.22 192.629 361.42 192.239 360.58 192.039C360.35 191.979 359.99 192.469 359.69 192.709C360.43 193.109 361.16 193.509 362.06 193.989M373.02 193.539H369.1C369.67 194.059 370 194.609 370.34 194.629C371.24 194.669 372.39 195.139 373.01 193.539M353.35 183.549C353.89 183.189 354.2 182.979 354.52 182.769C353.74 182.409 352.99 181.989 352.18 181.739C351.9 181.649 351.49 182.009 351.15 182.159C351.86 182.609 352.57 183.049 353.36 183.549M361.48 183.339C361.91 185.259 363.29 184.769 364.3 185.089C364.37 185.109 364.7 184.699 364.7 184.489C364.7 184.279 364.47 183.919 364.29 183.879C363.36 183.649 362.42 183.509 361.48 183.339ZM320.15 184.749C320.24 184.939 320.33 185.129 320.42 185.319C321.33 185.009 322.26 184.719 323.15 184.359C323.33 184.289 323.52 183.879 323.47 183.679C323.42 183.469 323.04 183.149 322.89 183.189C321.83 183.459 320.55 183.449 320.15 184.759M381.11 193.559C382.67 195.169 384.37 194.959 384.73 193.559H381.11ZM316.13 196.889C317.71 197.559 319.66 196.429 319.47 195.449C319.43 195.239 318.64 194.929 318.43 195.049C317.69 195.499 317.05 196.129 316.13 196.879M325.01 182.319C325.43 182.809 325.73 183.379 325.92 183.349C326.99 183.149 328.03 182.809 329.08 182.509C327.69 181.049 326.55 182.049 325.01 182.319ZM353.44 192.429C353.52 192.259 353.6 192.099 353.69 191.929C353.35 191.609 353.04 191.079 352.66 191.009C351.83 190.859 350.95 190.949 350.09 190.939C350.19 191.279 350.24 191.859 350.41 191.909C351.4 192.159 352.43 192.269 353.45 192.429M387.93 192.919V192.979C387.53 192.979 387.11 192.889 386.75 192.999C386.39 193.109 386.09 193.429 385.77 193.649C386.13 193.879 386.47 194.289 386.84 194.309C387.56 194.349 388.29 194.219 389 194.059C389.25 193.999 389.44 193.659 389.66 193.449C389.42 193.269 389.2 193.009 388.92 192.929C388.61 192.839 388.25 192.909 387.91 192.909M333.52 190.939C333.35 190.719 333.19 190.399 333.08 190.409C331.9 190.549 330.73 190.739 329.56 190.919C329.65 191.239 329.76 191.839 329.83 191.829C330.92 191.759 332.01 191.629 333.09 191.459C333.24 191.439 333.35 191.149 333.51 190.939M303.96 200.209C303.8 199.979 303.7 199.699 303.5 199.569C303.36 199.479 302.97 199.499 302.9 199.599C302.3 200.519 301.72 201.469 301.2 202.439C301.14 202.559 301.41 202.929 301.61 203.069C301.72 203.149 302.1 203.069 302.18 202.939C302.78 202.069 303.34 201.169 303.96 200.209ZM412.61 204.179C412.63 203.939 412.65 203.709 412.67 203.469C410.34 203.229 408.02 202.989 405.69 202.749C405.67 202.959 405.65 203.169 405.63 203.379C407.96 203.639 410.28 203.909 412.61 204.169M309.35 193.219C310.38 192.349 311.25 191.609 312.13 190.869C311.89 190.599 311.65 190.329 311.4 190.059C310.6 190.799 309.76 191.499 309.02 192.299C308.91 192.419 309.25 192.959 309.34 193.209M325.3 192.819C325.26 192.629 325.23 192.449 325.19 192.259C324.69 192.259 324.1 192.089 323.72 192.299C322.88 192.749 321.45 192.649 321.58 194.209C322.43 194.009 323.29 193.849 324.12 193.579C324.55 193.439 324.91 193.089 325.3 192.829M315.76 198.729C315.06 198.459 314.59 198.159 314.48 198.259C313.65 198.989 312.88 199.769 312.16 200.599C312.1 200.669 312.48 201.149 312.66 201.439C313.6 200.619 314.53 199.809 315.76 198.739M345.02 180.699C344.81 180.839 344.42 181.089 344.04 181.339C344.21 181.589 344.35 182.009 344.57 182.049C345.62 182.239 346.68 182.359 347.74 182.419C347.97 182.429 348.22 182.079 348.45 181.899C348.23 181.629 348.05 181.189 347.78 181.119C346.97 180.909 346.12 180.849 345.01 180.699M336.16 182.119C337.79 182.119 338.96 182.159 340.12 182.089C340.4 182.069 340.65 181.699 340.92 181.499C340.71 181.269 340.52 180.849 340.29 180.829C339.23 180.749 338.16 180.719 337.11 180.829C336.84 180.859 336.63 181.449 336.15 182.119M439.53 235.839C438.24 236.249 437.43 236.569 437.52 237.769C437.62 239.119 438.7 239.669 439.72 239.489C440.41 239.359 440.93 238.339 441.53 237.709C440.86 237.089 440.2 236.459 439.53 235.839ZM454.2 238.459C454.2 237.289 453.16 236.309 451.75 236.589C451.02 236.729 449.88 237.709 449.9 238.259C449.96 239.569 451.29 239.789 452.42 239.909C453.45 240.019 454.19 239.649 454.2 238.459ZM362.16 223.449C362.52 223.109 363.44 222.649 363.6 221.999C363.87 220.869 362.41 219.829 360.94 219.839C359.83 219.839 359.2 220.369 359.31 221.489C359.44 222.859 360.45 223.289 362.16 223.449ZM427.07 238.239C427.33 237.969 428.09 237.509 428.29 236.879C428.58 235.919 426.94 234.449 425.74 234.499C424.79 234.539 423.97 234.919 423.93 236.069C423.89 237.069 425.26 238.199 427.08 238.239M381.2 225.279C379.95 225.109 379.29 225.929 379.1 227.069C378.95 227.969 380.58 229.119 381.85 229.029C382.92 228.949 384.06 228.759 384.12 227.329C384.17 226.239 382.8 225.289 381.2 225.289M401.08 234.149C402.4 234.149 403.41 233.449 403.44 232.489C403.48 231.229 402 230.099 400.37 230.029C399.07 229.979 398.3 230.609 398.11 231.809C397.92 232.989 399.47 234.149 401.08 234.149ZM305.95 204.469C306.83 203.719 307.4 203.239 307.96 202.759C307.28 202.219 306.68 201.459 305.91 201.199C305.04 200.899 303.86 201.239 303.98 202.359C304.05 203.019 305.08 203.589 305.95 204.469ZM418.77 206.249C418.55 206.139 418.34 205.929 418.12 205.919C412.73 205.669 407.35 205.349 401.96 205.279C400.16 205.259 398.34 205.859 396.55 206.269C396.11 206.369 395.77 206.869 395.15 207.379C403.23 205.079 410.97 205.819 418.77 206.249ZM413.1 237.259C408.21 236.229 403.3 235.279 398.43 234.139C380.79 230.019 363.41 224.979 346.37 218.629C347.42 218.009 348.27 217.219 347.51 215.859C346.96 214.869 345.2 214.529 344.05 215.069C342.67 215.719 343.01 216.679 343.72 217.909C339.42 216.559 335.38 215.289 331.75 214.149C332.41 213.579 333.35 213.089 333.77 212.309C334.3 211.319 333.37 210.649 332.53 210.569C331.67 210.489 330.46 210.579 329.99 211.119C329.6 211.549 330.08 212.749 330.18 213.639C323.27 211.519 315.84 209.809 309.03 206.229C309.67 204.989 311.03 204.179 310.7 202.679C310.52 202.569 310.35 202.459 310.17 202.349C309.57 203.209 309.02 204.109 308.36 204.909C308.09 205.239 307.49 205.629 307.18 205.539C304.54 204.789 301.94 203.929 299.14 203.049C299.51 202.309 299.83 201.559 300.25 200.859C306.78 190.049 315.95 182.759 328.5 180.269C336.66 178.649 344.84 178.809 353.02 180.549C360.05 182.039 367.12 183.499 374.25 184.379C380.5 185.149 386.87 185.569 393.05 183.489C393.58 183.309 394.1 183.089 394.62 182.879C395.12 182.679 395.61 182.479 396.26 182.209C396.38 183.479 395.9 184.149 394.9 184.459C394.42 184.609 393.87 184.579 393.44 184.789C393.04 184.989 392.74 185.419 392.4 185.749C392.9 185.839 393.47 186.129 393.88 185.979C395.24 185.459 396.55 184.769 398.25 183.979C399.43 184.909 401.01 186.139 402.61 187.399C402.31 187.959 401.99 188.379 401.87 188.849C401.76 189.259 401.87 189.719 401.89 190.159C402.29 189.949 402.73 189.789 403.07 189.509C403.35 189.269 403.49 188.879 403.81 188.379C405.47 189.669 407.06 190.919 408.67 192.149C415.77 197.609 422.97 202.989 431.13 206.749C435.48 208.749 440.14 210.049 444.67 211.669C452.05 214.299 459.31 217.079 465.23 222.539C470.07 226.999 472.16 232.419 471.87 239.149C469.19 239.499 466.59 239.829 464.36 240.119C463.89 239.249 463.67 238.369 463.11 237.959C462.67 237.639 461.61 237.669 461.17 238.009C460.67 238.389 460.54 239.269 460.12 240.249C454.05 240.249 447.55 240.259 441.04 240.249C431.76 240.219 422.58 239.209 413.47 237.489C413.33 237.459 413.21 237.309 413.08 237.209C414.26 237.159 415.71 237.579 416.12 235.909C416.47 234.519 415.7 233.689 414.4 233.279C413.26 232.919 412.27 233.029 411.66 234.199C410.96 235.559 411.89 236.239 412.84 236.899C412.96 236.979 413.04 237.139 413.13 237.269" fill="white"/>
<path d="M258.51 239.91C256.13 244.42 253.93 248.74 251.57 252.98C250.41 255.06 248.67 256.07 246.06 255.6C235.15 253.64 224.22 251.84 213.3 249.94C205.13 248.52 197.22 246.17 189.57 242.99C182.15 239.92 175.55 235.65 170.39 229.36C169.12 227.81 168.3 226.21 168.51 224.12C168.7 222.28 169.36 221.08 171.16 220.95C174.75 220.7 178.4 220.41 181.97 220.74C197.68 222.2 212.55 227.41 227.72 231.27C237.35 233.72 246.88 236.53 256.45 239.19C257.04 239.35 257.61 239.59 258.51 239.9" fill="white"/>
<path d="M143.11 436.12C147.19 437.93 150.67 439.5 154.16 441.03C155.29 441.53 156.42 442.1 157.61 442.37C159.28 442.75 159.62 443.63 159.44 445.24C158.95 449.62 158.67 454.02 158.22 458.4C158.16 458.98 157.69 459.69 157.2 460.03C151.81 463.78 146.38 467.47 140.96 471.17C140.69 471.35 140.4 471.51 139.87 471.82C140.95 459.87 142.01 448.18 143.1 436.12" fill="white"/>
<path d="M236.79 341.09C232.12 337.59 227.85 334.4 223.72 331.31C224.89 328.22 225.95 325.42 227.04 322.52C227.13 322.56 227.44 322.64 227.69 322.81C231.4 325.39 235.07 328.03 238.82 330.55C239.71 331.15 239.84 331.81 239.58 332.64C238.74 335.28 237.84 337.91 236.79 341.08" fill="white"/>
<path d="M237.44 351.06C235.93 349.77 234.58 348.61 233.3 347.53C234.66 345.3 236.37 342.9 237.63 340.28C238.88 337.7 239.66 334.9 240.71 332.03C242.32 333.09 243.96 334.17 245.69 335.3C243.95 341.26 241.23 346.65 237.43 351.06" fill="white"/>
<path d="M242.92 344.56C244.22 341.45 245.33 338.79 246.56 335.82C250.3 338.58 253.99 341.29 257.86 344.14C256.58 345.58 255.49 346.86 254.32 348.07C254.08 348.32 253.5 348.49 253.2 348.38C249.79 347.15 246.39 345.86 242.92 344.55" fill="white"/>
<path d="M135.94 241.84C151.38 240.74 166.81 239.63 181.5 246.15C166.45 243.34 151.06 243.89 135.94 241.84Z" fill="white"/>
<path d="M219.6 327.54C216.23 323.66 213.25 320.22 210.27 316.79C211.67 315.21 212.91 313.82 214.21 312.36C216.7 314.34 219.14 316.24 221.54 318.19C221.78 318.38 221.98 318.88 221.91 319.16C221.23 321.78 220.48 324.39 219.6 327.53" fill="white"/>
<path d="M210.42 308.82C211.44 309.77 212.51 310.76 213.87 312.03C209.22 316.45 204.72 320.73 200.42 324.82C199.9 322.77 199.44 320.91 198.96 319.02C202.58 315.8 206.46 312.35 210.42 308.82Z" fill="white"/>
<path d="M217.57 340.33C216.73 338.96 215.91 337.62 215.05 336.21C216.58 333.71 218.48 331.11 219.83 328.24C221.15 325.43 221.9 322.35 222.93 319.28C223.73 319.88 224.73 320.46 225.48 321.26C225.86 321.66 226.08 322.55 225.92 323.08C224.03 329.35 221.11 335.12 217.57 340.33Z" fill="white"/>
<path d="M179.66 299.079C179.69 300.949 180.84 302.229 182.45 302.189C183.94 302.149 185.49 300.429 185.43 298.879C185.37 297.269 184.07 295.979 182.54 295.999C180.93 296.019 179.64 297.399 179.67 299.079M182.14 304.859C179.73 305.039 176.9 303.309 176.77 299.959C176.66 297.169 179.25 294.189 182.86 294.219C185.9 294.239 188.09 296.309 188.07 299.199C188.05 302.329 185.41 304.849 182.14 304.859Z" fill="white"/>
<path d="M196.8 322.81C196.82 321.04 195.69 319.86 193.91 319.81C192.53 319.77 191.04 321.03 190.98 322.27C190.92 323.72 192.64 325.58 194.03 325.55C195.63 325.52 196.78 324.38 196.8 322.8M188.6 322.85C188.62 319.94 190.83 317.8 193.79 317.8C196.77 317.8 199.27 320.32 199.23 323.27C199.19 326.13 196.92 328.3 194 328.33C191.15 328.36 188.2 325.59 188.59 322.85" fill="white"/>
<path d="M214.48 341.81C214.48 339.9 213.29 338.83 211.19 338.84C209.47 338.85 208.29 340.02 208.33 341.68C208.37 343.34 209.85 345 211.29 345.01C213.08 345.01 214.48 343.61 214.48 341.8M205.59 341.79C205.61 338.71 208.18 336.35 211.46 336.39C214.54 336.43 216.49 338.33 216.48 341.27C216.46 344.36 213.93 346.69 210.61 346.68C207.64 346.67 205.57 344.65 205.59 341.79Z" fill="white"/>
<path d="M233.9 351.3C233.9 350.2 232.91 349.95 231.84 349.92C230.24 349.87 228.99 350.8 229.01 351.92C229.03 352.93 230.3 353.87 231.57 353.82C232.74 353.77 233.92 352.64 233.89 351.3M236.24 352.47C236.23 355.92 231.63 358.25 228.08 356.61C225.29 355.31 224.77 352.52 226.92 350.3C228.75 348.41 231.49 347.84 233.86 348.96C235.31 349.64 236.34 350.7 236.24 352.47Z" fill="white"/>
<path d="M188.48 302.08C188.65 300.39 188.8 298.99 188.95 297.59C191.89 297.1 195.08 296.55 198.27 296.05C199.88 295.8 200.66 296.54 201.62 299.3C197.21 300.23 192.85 301.15 188.49 302.07" fill="white"/>
<path d="M331.03 106.25C330.81 106.49 329.99 106.98 329.83 107.63C329.59 108.59 331.26 109.81 332.64 109.63C333.28 109.55 334.25 108.91 334.35 108.39C334.56 107.28 333.09 106.24 331.03 106.25ZM336.18 108.1C336.21 110.12 334.74 111.76 332.75 111.68C330.15 111.57 326.88 109.79 327 107.51C327.13 105.02 328.51 103.82 330.45 103.65C333.11 103.43 336.14 105.92 336.17 108.1" fill="white"/>
<path d="M258.48 344.74C259.66 345.61 260.83 346.48 262.16 347.46C260.72 349.74 259.34 351.94 258.17 353.79C256.11 352.82 254.28 351.97 252.53 351.14C254.4 349.13 256.42 346.96 258.49 344.74" fill="white"/>
<path d="M201.07 299.89C201.62 300.08 202.35 300.11 202.7 300.49C204.97 302.99 207.17 305.57 209.51 308.27C208.64 309.18 207.66 310.22 206.35 311.59C204.38 307.77 202.53 304.18 200.68 300.58C200.81 300.35 200.94 300.13 201.07 299.9" fill="white"/>
<path d="M333.77 147.76C333.8 149.61 334.9 151.02 335.95 150.78C336.57 150.64 337.53 149.41 337.47 149.32C336.76 148.36 335.91 147.49 334.97 146.74C334.88 146.66 334.01 147.55 333.77 147.76ZM331.75 147.41C332.24 146.55 332.56 145.18 333.26 144.95C334.27 144.62 335.73 144.78 336.67 145.31C339.16 146.71 339.68 151.04 337.81 152.79C336.82 153.72 335.79 153.78 334.79 152.95C333.13 151.58 331.89 149.95 331.75 147.41Z" fill="white"/>
<path d="M252.58 356.59C253.87 356.5 255 356.18 255.22 354.74C255.38 353.71 254.13 352.81 252.74 352.81C251.35 352.81 249.86 353.8 250.01 354.74C250.23 356.18 251.38 356.49 252.59 356.59M251.57 352.33C254.7 352.33 256.4 353.35 257.06 355.04C257.6 356.41 257.06 357.28 256 357.84C253.61 359.1 251.12 359.12 248.84 357.66C248.06 357.16 247.19 355.95 247.27 355.16C247.35 354.33 248.42 353.44 249.26 352.91C250.02 352.44 251.06 352.43 251.57 352.32" fill="white"/>
<path d="M329.32 124.57C329.39 126.3 330.87 127.61 332.08 127.3C332.64 127.16 333.35 126.36 333.41 125.8C333.56 124.5 332.18 123.29 330.86 123.54C330.21 123.67 329.66 124.33 329.32 124.57ZM332.13 129.05C329.28 129.06 326.9 126.83 327.03 124.12C327.13 122.09 327.98 121.64 330.34 121.51C332.31 121.4 335.16 124.4 335.1 126.3C335.04 128 333.91 129.04 332.13 129.04" fill="white"/>
<path d="M342.64 132.54C340.01 131.11 337.62 129.82 335.41 128.62C335.54 127.21 335.66 125.87 335.82 124.15C337.94 125.38 340.09 126.58 342.17 127.88C342.48 128.07 342.59 128.74 342.62 129.2C342.68 130.26 342.64 131.33 342.64 132.53" fill="white"/>
<path d="M347.3 150.04C344.69 150.46 342.23 150.86 339.73 151.27C339.6 149.91 339.47 148.44 339.31 146.76C340.49 146.57 341.94 146.33 343.38 146.09C344.64 145.88 345.52 146.24 345.99 147.55C346.29 148.38 346.81 149.13 347.3 150.04Z" fill="white"/>
<path d="M343.83 116.53C341.13 114.44 338.73 112.58 336.33 110.72C336.59 109.9 336.86 109.02 337.3 107.6C339.59 109.51 341.84 111.16 343.75 113.14C344.29 113.7 343.83 115.24 343.83 116.53Z" fill="white"/>
<path d="M261.05 350.66C261.61 349.75 262.12 348.9 262.77 347.83C264.79 350.13 268.36 350.73 268.94 354.49C266.22 353.17 263.72 351.96 261.04 350.66" fill="white"/>
<path d="M344.87 104.929C342.27 102.809 339.89 100.939 337.61 98.9494C337.12 98.5194 336.98 97.6895 336.85 96.9395C340.25 97.9695 342.48 100.399 344.71 102.789C345.05 103.159 344.83 104.049 344.88 104.919" fill="white"/>
<path d="M331.45 94.7199C331.22 94.9999 330.49 95.5099 330.35 96.1499C330.14 97.0999 331.85 98.2099 333.45 98.0699C334.05 98.0199 334.94 97.4099 335.07 96.8899C335.29 96.0499 333.25 94.6999 331.45 94.7199ZM333.62 99.6199C332.23 98.7599 330.84 98.0699 329.69 97.0999C329.27 96.7399 329.11 95.5599 329.38 95.0299C329.68 94.4299 330.56 93.8799 331.26 93.7599C332.95 93.4599 334.43 94.2299 335.38 95.5499C335.88 96.2399 336.05 97.4399 335.85 98.2699C335.72 98.7899 334.6 99.0699 333.62 99.6299" fill="white"/>
<path d="M235.92 430.15C235.15 429.3 234.55 428.64 233.95 427.97C234.47 427.63 235.2 426.89 235.46 427.03C236.25 427.46 236.87 428.22 237.55 428.86C237.12 429.2 236.69 429.54 235.92 430.15Z" fill="white"/>
<path d="M343.79 216.22C345.56 215.12 346.04 215.24 347.03 216.94C345.74 218.28 344.72 218.07 343.79 216.22Z" fill="white"/>
<path d="M254.03 429.3C253.03 430.28 252.13 430.79 251.18 429.73C250.98 429.51 251.11 428.62 251.38 428.39C252.59 427.36 253.21 428.4 254.04 429.3" fill="white"/>
<path d="M333.22 212.44C332.77 212.64 332.25 213.08 331.89 212.98C331.35 212.83 330.91 212.3 330.43 211.93C330.77 211.63 331.15 211.05 331.44 211.09C332.07 211.18 332.65 211.59 333.26 211.86C333.25 212.05 333.24 212.25 333.23 212.44" fill="white"/>
<path d="M161.09 419.6C161.57 419 162.05 418.39 162.53 417.79C162.91 418.2 163.28 418.61 163.66 419.02C163.07 419.48 162.48 419.95 161.88 420.41C161.62 420.14 161.35 419.87 161.09 419.6Z" fill="white"/>
<path d="M290.56 197.659C291.15 197.819 291.74 197.989 292.33 198.149C292.36 198.319 292.4 198.489 292.43 198.659C291.9 198.899 291.37 199.269 290.82 199.299C290.63 199.309 290.39 198.479 290.17 198.029C290.3 197.899 290.43 197.779 290.56 197.649" fill="white"/>
<path d="M178.39 279.8C180.24 279.8 181.48 278.68 181.51 276.99C181.54 275.48 180.15 274.21 178.51 274.26C177.12 274.3 175.71 275.74 175.7 277.14C175.68 278.56 176.95 279.81 178.39 279.8ZM177.86 282.76C174.9 282.76 172.98 280.96 172.97 278.18C172.97 275.09 175.62 272.57 178.87 272.57C181.82 272.57 183.84 274.5 183.83 277.32C183.83 280.51 181.34 282.77 177.85 282.76" fill="white"/>
<path d="M175.8 256.869C175.83 258.309 177.24 259.659 178.69 259.649C179.82 259.629 181.15 258.369 181.15 257.309C181.15 255.909 179.6 254.509 178.07 254.519C176.61 254.539 175.77 255.409 175.8 256.869ZM183.16 257.32C183.16 259.91 180.62 262.349 177.98 262.299C175.47 262.259 173.31 260.13 173.32 257.7C173.33 255.04 175.71 252.819 178.51 252.839C181.22 252.859 183.16 254.719 183.16 257.309" fill="white"/>
<path d="M175.18 420.299C175.98 420.089 176.67 419.909 177.35 419.729C177.36 420.319 177.63 421.179 177.34 421.459C176.52 422.269 175.85 421.739 175.18 420.299Z" fill="white"/>
<path d="M217.11 427.79C216.43 427.03 215.96 426.52 215.5 426.01C215.99 425.64 216.56 424.91 216.96 425C217.64 425.14 218.22 425.8 218.84 426.24C218.35 426.68 217.87 427.11 217.1 427.8" fill="white"/>
<path d="M312.29 420.44C311.69 419.44 310.97 418.69 311.12 418.39C311.41 417.83 312.16 417.36 312.81 417.2C313.12 417.12 314.04 418.04 313.98 418.16C313.64 418.84 313.09 419.42 312.28 420.45" fill="white"/>
<path d="M287.84 425.65C288.4 427.35 287.22 427.6 286.2 427.82C285.93 427.88 285.21 427.28 285.23 427.03C285.38 425.43 286.58 425.54 287.83 425.65" fill="white"/>
<path d="M130.38 422.54C131.11 421.78 131.58 420.65 132.8 421.42C133.06 421.58 133.15 422.6 132.92 422.81C132.17 423.51 131.28 423.64 130.37 422.54" fill="white"/>
<path d="M149.79 422.51C149.15 421.57 148.46 420.96 148.58 420.65C148.8 420.06 149.48 419.65 149.97 419.16C150.38 419.61 151.11 420.05 151.11 420.5C151.11 421.02 150.48 421.54 149.8 422.51" fill="white"/>
<path d="M301.89 422.16C302.46 422.66 302.79 422.94 303.13 423.23C302.52 423.76 301.95 424.35 301.26 424.76C301.15 424.83 300.56 424.1 300.19 423.75C300.71 423.26 301.24 422.77 301.89 422.16Z" fill="white"/>
<path d="M270.5 429.68C270.01 429.02 269.4 428.36 269.48 428.25C269.88 427.74 270.44 427.32 271.03 427.02C271.15 426.96 271.89 427.65 271.85 427.74C271.54 428.34 271.09 428.87 270.51 429.68" fill="white"/>
<path d="M112.49 425.989C112 425.329 111.4 424.749 111.49 424.589C111.82 424.049 112.33 423.499 112.9 423.289C113.14 423.199 113.69 423.969 114.09 424.349C113.63 424.819 113.16 425.299 112.49 425.989Z" fill="white"/>
<path d="M348.63 404.23C348.59 404.8 348.74 405.53 348.45 405.89C348.09 406.31 347.35 406.4 346.77 406.64C346.63 406.44 346.49 406.25 346.35 406.05C346.9 405.37 347.44 404.69 347.99 404.01C348.2 404.09 348.41 404.16 348.63 404.24" fill="white"/>
<path d="M333.21 411.83C333.65 411.33 334.1 410.83 334.54 410.33C334.85 410.65 335.16 410.96 335.48 411.28C334.96 411.71 334.45 412.15 333.93 412.58C333.69 412.33 333.45 412.08 333.21 411.83Z" fill="white"/>
<path d="M199.04 425.089C198.2 425.689 197.76 426.229 197.42 426.179C196.95 426.109 196.54 425.589 196.11 425.259C196.45 424.919 196.77 424.339 197.15 424.299C197.6 424.249 198.1 424.669 199.05 425.089" fill="white"/>
<path d="M93.28 425.35C93.98 425.04 94.65 424.75 95.31 424.45C95.36 424.94 95.63 425.59 95.42 425.89C94.79 426.78 94.05 426.69 93.28 425.34" fill="white"/>
<path d="M337.34 87.6396C337.5 87.4396 338.1 87.0396 338.18 86.5596C338.34 85.5596 336.36 83.9496 335.17 84.1496C334.67 84.2396 333.95 84.8096 333.86 85.2696C333.65 86.3796 335.37 87.6496 337.33 87.6396M337.42 88.9396C335.83 88.9496 333.45 87.3296 332.91 85.8696C332.45 84.6396 333.27 83.2996 334.56 83.1396C336.66 82.8796 339.3 84.9296 339.56 87.0196C339.71 88.2296 338.93 88.9196 337.42 88.9296" fill="white"/>
<path d="M186.95 177.27C186.32 176.54 185.94 176.1 185.57 175.67C186.17 175.2 186.71 174.58 187.38 174.35C187.64 174.26 188.21 175.06 188.64 175.46C188.16 175.97 187.68 176.49 186.95 177.27Z" fill="white"/>
<path d="M222.39 181.259C221.74 180.539 221.35 180.109 220.96 179.669C221.59 179.239 222.17 178.589 222.85 178.459C223.25 178.379 223.81 179.139 224.29 179.519C223.74 180.019 223.2 180.519 222.39 181.259Z" fill="white"/>
<path d="M257.31 189.08C256.48 189.23 255.66 189.45 254.82 189.48C254.64 189.48 254.2 188.7 254.3 188.46C254.48 188.01 255.03 187.33 255.34 187.37C256.05 187.47 256.71 187.95 257.39 188.27C257.36 188.54 257.33 188.81 257.3 189.08" fill="white"/>
<path d="M242.4 185.489C241.33 186.289 240.3 186.609 239.41 185.579C239.23 185.369 239.66 184.189 240.07 183.989C241.33 183.359 241.95 184.229 242.4 185.489Z" fill="white"/>
<path d="M206.02 176.68C205.4 177.01 204.79 177.52 204.14 177.58C203.77 177.61 203.33 176.91 202.92 176.54C203.42 176.13 203.88 175.47 204.44 175.37C204.91 175.29 205.49 175.85 206.02 176.13C206.02 176.31 206.02 176.49 206.02 176.68Z" fill="white"/>
<path d="M273.42 194.92C272.74 194.71 272.05 194.52 271.4 194.23C271.34 194.2 271.58 193.5 271.68 193.12C272.36 193.41 273.04 193.7 273.72 193.99C273.62 194.3 273.52 194.61 273.42 194.92Z" fill="white"/>
<path d="M401.21 234.039C400.19 233.139 399.5 232.519 398.8 231.909C399.27 231.519 399.85 230.729 400.18 230.829C401.01 231.069 401.73 231.709 402.5 232.179C402.16 232.679 401.81 233.169 401.21 234.039Z" fill="white"/>
<path d="M415.43 235.89C413.81 236.72 412.77 236.57 412.37 235.34C412.24 234.95 412.55 234.15 412.9 233.92C413.76 233.36 414.9 234.26 415.42 235.89" fill="white"/>
<path d="M383.38 227.59C382.01 228.41 380.41 228.35 380.1 227.43C379.98 227.06 380.31 226.18 380.6 226.1C381.86 225.74 382.96 226.03 383.38 227.58" fill="white"/>
<path d="M427.67 236.98C426.42 238.02 425.54 237.29 424.78 236.42C424.67 236.3 424.98 235.51 425.22 235.44C426.57 235.02 427.21 235.86 427.67 236.99" fill="white"/>
<path d="M361.54 222.98C360.93 222.33 360.47 221.83 360.01 221.34C360.36 221.08 360.85 220.52 361.04 220.6C361.74 220.91 362.34 221.44 362.97 221.88C362.58 222.17 362.2 222.47 361.53 222.97" fill="white"/>
<path d="M450.4 238.9C451.02 236.77 452.06 237.2 452.95 237.65C453.22 237.79 453.22 238.47 453.34 238.9H450.4Z" fill="white"/>
<path d="M441.15 237.94C440.33 238.42 439.83 238.91 439.61 238.8C439.08 238.55 438.68 238.02 438.23 237.6C438.61 237.36 439.02 236.89 439.37 236.93C439.85 236.98 440.28 237.42 441.15 237.94Z" fill="white"/>
</g>
</svg>
