<svg width="104" height="104" viewBox="0 0 516 516" fill="none" xmlns="http://www.w3.org/2000/svg">
<mask id="mask0_2541_129" style="mask-type:luminance" maskUnits="userSpaceOnUse" x="29" y="25" width="470" height="469">
<path d="M498.84 25.73H29.98V493.06H498.84V25.73Z" fill="white"/>
</mask>
<g mask="url(#mask0_2541_129)">
<path d="M316.3 324.88C315.27 324.14 314.61 323.6 313.86 323.23C313.76 323.18 312.85 324.26 312.95 324.42C313.4 325.12 314.03 325.74 314.71 326.23C314.81 326.3 315.5 325.57 316.29 324.88M344.77 412.66C343.82 412.66 343.33 412.64 342.85 412.66C341.53 412.74 340.21 412.81 338.89 412.94C338.5 412.98 338.12 413.17 337.74 413.3C338.05 413.64 338.38 414.27 338.68 414.26C340.39 414.2 342.1 414.01 343.79 413.78C344.04 413.75 344.24 413.28 344.76 412.66M361.04 381.8C360.74 380.64 360.54 379.63 360.2 378.66C360.11 378.4 359.62 378.27 359.32 378.08C359.21 378.42 358.93 378.81 359.01 379.09C359.48 380.74 359.71 382.34 358.84 383.95C358.71 384.19 358.97 384.63 359.05 384.98C359.42 384.81 359.98 384.73 360.11 384.45C360.51 383.59 360.75 382.65 361.03 381.8M339.85 429.29C339.85 429.03 339.86 428.77 339.87 428.51C339.25 428 338.68 427.15 338.01 427.07C336.84 426.92 336.01 427.9 336.07 428.98C336.1 429.62 337.08 430.78 337.5 430.72C338.33 430.6 339.07 429.81 339.85 429.3M365.7 363.76C365.56 363.56 365.44 363.19 365.24 363.15C364.97 363.09 364.52 363.18 364.37 363.38C363.98 363.88 363.72 364.47 363.4 365.02C361.5 368.27 359.58 371.51 357.72 374.78C357.51 375.15 357.59 375.7 357.54 376.17C358 375.98 358.52 375.85 358.91 375.56C359.21 375.34 359.37 374.91 359.57 374.56C361.42 371.35 363.26 368.14 365.09 364.93C365.29 364.58 365.46 364.21 365.68 363.76M312.58 300.85C312.71 297.57 310.8 296.5 308.54 296.27C306.69 296.08 305.24 297.58 305.21 299.45C305.17 302.17 306.82 304.24 309.09 304.3C311.07 304.36 312.57 302.87 312.58 300.86M366.89 360.85C365.78 357.73 364.68 354.81 361.69 353.34C360.39 352.7 359.65 351.82 359 350.6C357.08 347.04 355.06 343.54 353.01 340.05C352.76 339.62 352.11 339.43 351.65 339.12C351.72 339.68 351.63 340.33 351.88 340.79C353.87 344.44 355.85 348.1 357.99 351.66C358.66 352.77 359.81 353.6 360.78 354.52C361.6 355.31 362.66 355.92 363.28 356.83C364.11 358.05 364.59 359.51 365.27 360.84C365.45 361.18 365.82 361.42 366.1 361.71C366.37 361.41 366.65 361.11 366.9 360.84M329.22 337.44C329.35 340.47 329.74 343.12 332.09 345.03C334.11 346.67 337.92 346.38 339.04 344.32C340.4 341.8 341.21 339.11 340.5 336.17C339.94 333.83 337.88 331.73 335.88 331.54C332.05 331.19 329.13 333.89 329.21 337.43M374.48 334.02C374.48 333.42 374.42 333.02 374.48 332.64C375.09 328.97 374.43 327.82 371.3 326C369.74 325.09 368.32 323.85 367.05 322.56C365.67 321.16 364.51 319.54 363.29 317.98C361.92 316.23 361.56 316.19 360.29 318.1C358.46 320.86 356.88 323.8 354.9 326.45C352.32 329.91 353.5 333.91 355.64 336.32C360.7 342 365.74 347.71 370.82 353.38C371.05 353.64 371.56 353.66 371.94 353.8C371.92 353.39 372.06 352.85 371.85 352.59C371.03 351.54 370.04 350.61 369.25 349.54C368.91 349.07 368.63 348.24 368.81 347.76C370.27 343.93 371.83 340.14 373.41 336.36C373.58 335.97 374.04 335.48 374.42 335.43C375.97 335.24 377.54 335.23 379.1 335.07C379.57 335.02 380.01 334.71 380.46 334.53C379.99 334.24 379.52 333.71 379.05 333.71C377.56 333.71 376.08 333.9 374.46 334.03M284.17 311.14C284.36 308.33 283.46 306.74 280.89 305.01C279.63 304.16 278.69 303.24 278 301.77C276.99 299.62 275.03 298.2 272.54 298.01C269.38 297.76 266.13 300.12 264.68 303.54C263.63 306.02 264.39 307.95 266.9 310.59C273.55 317.59 280.41 324.43 286.6 331.83C296.18 343.3 305.64 354.86 316.2 365.46C317.59 366.86 318.84 368.41 320.05 369.96C321.03 371.22 320.35 372.48 319.5 373.38C318.59 374.35 317.62 373.63 316.74 372.97C315.58 372.11 314.45 371.13 313.15 370.57C311.67 369.93 309.95 369.9 308.79 371.26C307.63 372.61 308.07 374.12 309.08 375.41C310.62 377.37 312.23 379.27 313.83 381.18C316.2 384.01 319.29 384.58 322.66 383.72C327.13 382.59 330.69 383.5 333.48 387.43C334.98 389.54 336.87 391.43 338.79 393.18C340.67 394.89 342.86 394.61 344.42 393.69C346.1 392.71 346.95 390.01 346.13 387.96C345.43 386.21 344.62 384.41 343.46 382.95C338.68 376.88 333.73 370.94 328.87 364.94C322.8 357.44 316.93 349.78 310.66 342.46C302.02 332.36 294.24 321.51 284.78 312.1C284.4 311.73 284.21 311.17 284.18 311.12M472.27 479.26C473.1 476.89 473.92 475.04 474.41 473.1C475.99 466.79 477.4 460.44 478.96 454.12C481.37 444.36 483.9 434.63 486.27 424.86C486.7 423.09 486.99 421.15 486.74 419.37C486 414.08 482.34 411.23 477.65 409.54C468.08 406.1 458.53 402.59 448.86 399.41C434.1 394.56 419.52 389.28 405.19 383.27C399.46 380.87 393.64 378.67 387.79 376.56C385.15 375.61 384.38 376 383.05 378.33C380.48 382.82 377.98 387.35 375.51 391.9C375.2 392.47 375.1 393.25 375.16 393.9C375.44 396.94 376.91 399.21 379.9 400.17C381.71 400.75 383.6 401.17 385.49 401.43C393.21 402.48 400.88 403.7 408.28 406.28C412.94 407.9 416.41 410.82 418.38 415.3C419.74 418.38 420.69 421.63 421.96 424.75C423.05 427.43 424 430.25 425.6 432.61C427.77 435.82 430.27 438.88 433.03 441.61C444.05 452.49 455.21 463.23 466.35 473.99C468.1 475.68 469.98 477.22 472.26 479.24M227.49 288.92C244.47 287.64 253.55 277.79 257.63 262.08C259.72 264.61 261.53 266.84 263.37 269.04C270.18 277.22 277.01 285.38 283.82 293.56C290.15 301.16 296.46 308.77 302.76 316.39C304.42 318.4 304.84 318.43 306.98 316.42C307.19 316.6 307.45 316.75 307.62 316.97C309.43 319.28 311.53 321.04 314.46 321.96C316.59 322.63 317.64 324.51 317.46 326.93C317.26 329.52 319.11 331.08 320.79 332.53C321.74 333.35 322.79 332.56 323.42 331.62C324.92 329.35 326.31 327 327.86 324.76C329.01 323.1 330.33 321.56 331.78 319.72C332.81 320.89 333.77 321.86 334.59 322.95C335.6 324.29 336.46 325.75 337.45 327.11C338.55 328.62 339.8 329.9 341.67 330.58C343.72 331.32 345.37 332.7 346.42 334.73C346.78 335.44 347.32 336.1 347.91 336.64C348.28 336.98 348.89 337.04 349.55 336.98C347.75 334.32 346.68 331.05 343.51 329.83C340.15 328.54 338.39 325.83 336.51 323.1C335.63 321.82 334.62 320.59 333.53 319.49C332.09 318.04 330.94 318.14 329.8 319.78C327.51 323.05 325.29 326.38 323.03 329.67C322.65 330.23 322.21 330.75 321.69 331.43C320.14 329.77 318.74 328.46 318.89 325.98C319.06 323.13 317.14 321.32 314.66 320.42C312.51 319.65 310.87 318.5 309.39 316.76C307.27 314.26 307.15 314.36 304.65 316.33C292.12 301.22 279.58 286.11 267.05 271C267.12 270.89 267.19 270.78 267.26 270.68C269.2 271.38 271.19 271.97 273.08 272.79C289.33 279.87 306.32 284.8 323.08 290.4C329.71 292.61 336.22 295.12 341.78 299.6C345.26 302.41 348 305.7 349.52 309.95C349.77 310.66 350.1 311.34 350.47 312.24C350.94 311.61 351.34 311.13 351.68 310.62C353.84 307.43 356.73 306.77 360.49 307.3C367.34 308.27 371.74 312.4 375.4 317.74C377.37 320.62 379.24 323.58 381.27 326.41C385.03 331.66 385.05 337.11 382.27 342.7C380.79 345.66 379.11 348.53 377.5 351.43C376.83 352.64 376.11 353.83 375.44 355C376.69 355.54 377.96 355.85 378.96 356.55C380.64 357.72 381.2 359.56 381.38 361.57C381.5 362.91 381.82 364.19 383.34 364.78C395.32 369.42 407.22 374.26 419.27 378.71C437.66 385.5 456.14 392.02 474.58 398.67C478.63 400.13 482.74 401.47 486.66 403.23C489.55 404.53 492.36 406.17 494.87 408.11C497.36 410.04 498.03 413.1 498.56 416.15C499.39 420.89 498.21 425.44 497.28 429.96C495.12 440.43 492.64 450.83 490.34 461.27C488.72 468.64 487.27 476.05 485.58 483.41C484.85 486.59 483.79 489.79 480.69 491.53C477.3 493.43 473.88 493.72 470.29 491.58C463.84 487.72 458.3 482.75 452.79 477.72C443.45 469.2 434.11 460.69 424.82 452.12C419.76 447.45 414.79 442.66 411.68 436.39C410.37 433.75 409.45 430.9 408.37 428.14C406.9 424.35 405.56 420.5 403.96 416.76C402.53 413.4 400.2 411.44 396.17 411.16C388.7 410.64 381.26 409.58 373.81 408.74C373.24 408.67 372.69 408.49 372.43 408.43C371.92 405.14 371.55 402 370.92 398.91C370.57 397.24 369.88 395.6 369.13 394.06C368.66 393.09 368.75 392.38 369.22 391.5C372.77 384.86 376.29 378.21 379.82 371.56C380.04 371.15 380.35 370.76 380.43 370.32C380.51 369.91 380.35 369.45 380.3 369.01C379.89 369.23 379.28 369.35 379.09 369.69C377.71 372.17 376.42 374.7 375.09 377.22C372.87 381.42 370.64 385.62 368.41 389.81C368.2 390.21 367.93 390.59 367.68 390.98C366.52 389.9 366.37 387.94 364.16 387.79C364.42 388.34 364.63 388.93 364.96 389.45C368.04 394.36 370.41 399.53 370.56 405.46C370.63 408.23 369.83 410.72 368.07 412.9C367.74 413.31 367.31 414.03 367.46 414.38C368.22 416.16 367.27 417.36 366.18 418.41C361.02 423.37 354.91 426.18 347.66 426.02C346.25 425.99 345.56 426.36 345.03 427.62C344.49 428.9 343.7 430.07 343.04 431.3C341.9 433.46 339.96 434.22 337.69 434.3C335.11 434.38 333.37 432.83 333.62 429.97C333.9 426.71 334.67 423.46 335.54 420.29C335.96 418.78 336.03 417.76 334.88 416.55C333.2 414.78 331.71 412.83 330.21 410.9C329.56 410.06 329.11 409.07 328.71 408.01C332.08 410.01 335.66 410.99 339.47 411.1C340.85 411.14 342.3 411.19 343.61 410.83C352.21 408.47 358.15 403.28 360.18 394.36C360.66 392.28 360.41 390.04 360.42 387.87C360.42 387.56 359.93 387.24 359.67 386.93C359.47 387.36 359.06 387.8 359.1 388.21C359.83 396.24 356.49 402.22 349.86 406.5C343.84 410.39 337.54 410.72 331.25 407.35C329.21 406.25 327.36 404.57 325.82 402.8C309.63 384.16 293.51 365.44 277.37 346.75C262.11 329.07 246.85 311.39 231.59 293.71C230.34 292.26 229.08 290.82 227.48 288.98" fill="white"/>
<path d="M146.98 197.13C147.29 196.71 147.57 196.43 147.53 196.38C146.59 195.07 145.61 193.79 144.62 192.53C144.58 192.48 144.15 192.61 144.07 192.75C143.96 192.96 143.89 193.34 144.01 193.5C144.94 194.7 145.93 195.86 146.98 197.14M129.42 175.14C129.35 174.7 129.38 174.56 129.32 174.48C128.2 173.16 127.09 171.84 125.93 170.55C125.8 170.4 125.24 170.38 125.16 170.49C125 170.72 124.88 171.21 125.01 171.38C126.03 172.7 127.09 173.99 128.22 175.22C128.39 175.4 129.01 175.17 129.43 175.13M109.18 153.29C109.36 153.27 109.54 153.26 109.72 153.24C109.77 152.86 110 152.34 109.83 152.12C108.84 150.78 107.78 149.5 106.69 148.24C106.55 148.08 106.09 148.21 105.77 148.2C105.81 148.56 105.73 149.02 105.92 149.27C106.97 150.64 108.08 151.96 109.17 153.3M181.26 172.82C180.97 170.69 180.29 168.45 178.04 167.27C177.3 166.88 176.05 166.9 175.3 167.27C174.71 167.56 174.2 168.71 174.25 169.44C174.42 171.98 175.78 173.91 178.05 175.08C179.67 175.91 181.24 174.87 181.26 172.82ZM157.7 143.57C156.28 143.55 154.98 144.92 155.54 146.12C156.38 147.9 157.46 149.61 158.68 151.15C159.58 152.29 160.99 152.81 162.38 151.83C163.79 150.84 163.33 149.45 162.79 148.23C161.78 145.93 160.3 144.07 157.69 143.58M144.84 128.08C144.45 125.57 143.04 123.22 141.06 122.11C139.8 121.4 138.46 121.25 137.33 122.17C136.17 123.11 135.95 124.55 136.71 125.8C137.63 127.31 138.7 128.78 139.98 129.98C140.65 130.61 142.15 131.11 142.85 130.78C143.74 130.36 144.2 129.03 144.85 128.09M97.45 139.99C100.22 141.31 102.86 140.56 105.32 139.37C114.07 135.17 122.18 130 128.49 122.47C130.29 120.32 131.75 117.83 133.08 115.34C133.74 114.1 133.74 112.52 134.1 110.86C134.8 111.41 135.83 111.96 136.53 112.78C140.75 117.74 144.94 122.72 149.06 127.77C161.34 142.84 173.49 158.04 185.92 172.99C188.92 176.59 188.74 180.04 187.17 183.75C184.8 189.35 180.64 193.53 175.96 197.29C170.6 201.6 164.36 203.9 157.72 204.75C154.72 205.13 151.51 204.51 149.12 201.69C132.94 182.66 116.65 163.73 100.42 144.76C99.23 143.38 98.16 141.9 97.04 140.46C97.18 140.3 97.33 140.14 97.47 139.98" fill="white"/>
<path d="M45.3599 257.13C47.0399 254.89 48.4099 253.05 49.8099 251.23C50.5599 250.26 51.2999 249.27 52.1899 248.44C52.8599 247.81 53.6899 247.13 54.5499 246.95C67.8699 244.23 81.2199 241.69 94.5299 238.91C108.69 235.94 122.8 232.75 136.93 229.68C137.8 229.49 139.07 229.1 139.55 229.51C140.67 230.46 141.44 231.82 142.3 233.05C142.41 233.22 142.25 233.6 142.17 233.87C141.77 235.32 141.45 236.8 140.91 238.19C140.2 240.03 140.63 241.56 141.79 243.04C144.26 246.19 146.66 249.41 149.17 252.53C153.31 257.69 157.52 262.81 161.69 267.95C161.83 268.12 161.91 268.35 162.16 268.82C161.24 268.82 160.27 269.12 159.77 268.77C157.73 267.32 155.6 268.11 153.54 268.37C142.01 269.81 130.48 271.33 118.96 272.84C106.86 274.42 94.7599 276.02 82.6599 277.59C78.5699 278.12 74.4699 278.65 70.3699 279.09C69.7799 279.15 68.9399 278.94 68.5399 278.53C62.0199 271.89 55.5499 265.19 48.7899 258.22C50.7299 257.81 52.3499 257.43 53.9899 257.11C63.0099 255.38 72.0299 253.66 81.0499 251.95C91.6599 249.93 102.27 247.92 112.89 245.92C121.07 244.38 129.25 242.86 137.42 241.32C137.7 241.27 138.01 241.19 138.24 241.03C138.57 240.8 138.84 240.47 139.14 240.19C138.71 239.99 138.26 239.6 137.86 239.64C136.48 239.79 135.12 240.1 133.76 240.36C120.36 242.91 106.96 245.45 93.5699 248.01C78.5899 250.88 63.6099 253.78 48.6199 256.65C47.7299 256.82 46.8299 256.92 45.3499 257.13" fill="white"/>
<path d="M109.71 135.44C107.84 133.13 106.03 130.87 104.19 128.64C96.52 119.35 88.91 110.02 81.16 100.81C70.18 87.7502 59.07 74.8002 48.07 61.7602C42.52 55.1702 37.07 48.5002 31.6 41.8402C30.92 41.0102 30.47 40.0002 29.97 39.1502C33.16 37.0002 36.2 35.1102 39.05 32.9802C41.47 31.1802 43.77 29.1902 45.93 27.0902C47.25 25.8002 48.15 26.1802 49.08 27.2802C51.26 29.8502 53.4 32.4702 55.54 35.0802C68.21 50.5202 80.76 66.0602 93.6 81.3602C100.26 89.2902 107.45 96.7802 114.37 104.5C116.86 107.27 119.24 110.14 121.69 112.94C123.51 115.02 125.3 117.11 127.22 119.1C128.16 120.08 128.1 120.72 127.24 121.72C122.33 127.47 116.12 131.52 109.69 135.44" fill="white"/>
<path d="M252.16 258.7C252.11 255.88 251.36 252.92 248.82 249.54C243.15 241.97 237.29 234.54 231.38 227.15C226.96 221.62 222.35 216.25 217.8 210.82C217.58 210.55 217.1 210.26 216.84 210.33C216.55 210.41 216.3 210.87 216.16 211.21C213.42 217.8 209.47 223.46 203.69 227.75C202.91 228.33 202.56 228.93 203.52 229.68C203.79 229.89 204.03 230.16 204.23 230.44C212.05 240.9 219.84 251.38 227.68 261.82C230.95 266.18 233.91 270.81 238.26 274.26C240.23 275.82 241.89 275.79 243.64 274.05C245.04 272.66 246.37 271.19 247.69 269.72C250.5 266.58 251.94 262.89 252.16 258.71M205.12 193.96C206.78 195.27 208.46 196.19 209.59 197.57C224.25 215.35 238.84 233.2 253.44 251.04C253.84 251.53 254.13 252.13 254.57 252.59C257.55 255.71 257.4 259.17 255.96 262.93C254.1 267.8 252.49 272.74 249.1 276.88C244.66 282.28 239 285.47 232.21 286.78C230.11 287.19 227.99 287.45 225.88 287.81C223.96 288.14 222.41 287.71 221.07 286.15C217.22 281.63 213.27 277.2 209.36 272.74C202.23 264.61 195.07 256.5 187.96 248.35C182.64 242.27 177.37 236.15 172.2 230.19C174.94 226 179.61 225.15 183.64 223.23C187.73 221.27 191.77 219.27 195.16 216.17C200.28 211.48 203.89 206 204.58 198.9C204.72 197.46 204.9 196.03 205.13 193.98" fill="white"/>
<path d="M182.13 272.82C181.56 272.1 181.05 271.31 180.4 270.67C179.46 269.74 178.53 268.65 177.37 268.13C176.47 267.73 175.02 267.73 174.18 268.2C173.01 268.86 172.8 270.26 173.29 271.62C173.39 271.89 173.41 272.18 173.5 272.66C171.35 272.27 169.13 272.3 167.37 271.41C165.66 270.55 164.25 268.88 163.01 267.33C156.47 259.17 150.03 250.93 143.56 242.72C143.17 242.22 142.82 241.69 142.31 240.98C143.68 240.71 144.91 240.54 146.09 240.19C146.52 240.06 146.82 239.49 147.18 239.12C146.68 239.03 146.18 238.83 145.69 238.88C144.62 238.99 143.56 239.22 142.23 239.44C142.7 237.71 143.1 236.23 143.5 234.75C144.92 235.62 146.21 236.62 147.65 237.24C150.72 238.55 152.5 237.87 154.15 234.95C154.67 234.02 155.06 233.26 156.41 233.22C157.86 233.17 158.25 232.03 157.48 230.67C157.17 230.12 156.72 229.65 156.17 228.92C158.66 228.53 161.01 228.17 163.01 227.86C164.04 229.32 164.77 230.95 166.01 231.98C167.64 233.33 169.26 231.98 170.88 231.07C171.64 231.93 172.38 232.78 173.39 233.93C170.61 234.46 168.1 234.94 165.59 235.41C162.92 235.9 160.24 236.33 157.58 236.88C157.18 236.96 156.88 237.51 156.54 237.85C156.63 238.05 156.73 238.25 156.82 238.45C159.47 237.98 162.12 237.52 164.76 237.03C167.71 236.48 170.64 235.82 173.61 235.39C174.2 235.3 175.07 235.87 175.53 236.39C179.46 240.83 183.33 245.32 187.22 249.8C192.6 255.99 197.98 262.18 203.35 268.38C203.64 268.71 203.88 269.08 204.27 269.6C203.54 269.65 203.03 269.68 202.54 269.72C201 269.87 199.89 270.43 199.23 272.03C198.64 273.45 197.7 274.79 196.67 275.96C196.08 276.64 195.07 277.18 194.18 277.33C190.57 277.91 186.93 278.31 183.3 278.78C181.29 279.04 179.51 278.41 178.31 276.86C177.01 275.19 175.94 273.33 174.93 271.46C174.66 270.96 174.96 270.14 175 269.46C175.71 269.54 176.61 269.37 177.09 269.74C178.17 270.57 179.03 271.69 180.02 272.66C180.76 273.38 181.47 274.2 182.35 274.68C182.8 274.93 183.75 274.75 184.2 274.4C184.5 274.16 184.52 273.23 184.32 272.74C183.93 271.78 183.27 270.94 182.78 270.02C182.5 269.49 182.33 268.9 182.42 268.04C183.07 268.44 183.77 268.76 184.35 269.24C186.64 271.13 188.83 273.13 191.16 274.95C193.08 276.46 194.65 276.24 196.05 274.24C197 272.88 197.7 271.33 198.38 269.8C198.88 268.66 198.48 267.9 197.09 267.92C196.51 267.93 195.89 268.04 195.35 267.89C194.79 267.73 194.05 267.42 193.82 266.96C192.67 264.67 190.59 263.73 188.36 263.06C186.82 262.6 185.5 263.17 184.66 264.6C184.28 265.25 183.94 265.92 183.59 266.59C180.12 266.42 179.94 267.34 182.14 272.81" fill="white"/>
<path d="M168.43 225.06C168.94 223.39 169.35 221.68 169.98 220.06C170.37 219.06 170.35 218.29 169.34 217.94C168.01 217.48 166.56 216.82 165.26 216.99C163.7 217.2 162.64 216.73 161.77 215.74C159.06 212.65 156.45 209.49 153.74 206.3C162.44 206.53 170.08 203.84 176.74 198.57C183.33 193.35 189.12 187.47 189.85 178.02C192.4 181.15 194.71 184.05 197.1 186.88C199.08 189.22 201.31 191.36 203.09 193.83C203.71 194.69 203.52 196.29 203.38 197.51C202.14 208.5 195.48 215.43 186.15 220.34C185.2 220.84 184.6 220.64 183.88 219.96C182.57 218.73 181.24 217.52 179.81 216.43C177.58 214.72 175.55 215.16 174.19 217.6C173.26 219.26 172.52 221.03 171.5 222.63C170.84 223.66 169.82 224.46 168.97 225.37C168.79 225.27 168.62 225.17 168.44 225.07" fill="white"/>
<path d="M156.05 214.8C154.92 215.17 153.96 215.65 152.95 215.78C149.69 216.21 148.51 218.61 147.98 221.27C147.4 224.15 147.85 226.89 150.54 228.85C151.49 229.54 152.15 230.65 152.94 231.57C153.94 232.73 153.32 233.75 152.61 234.7C151.84 235.73 151.04 236.76 149.46 236.37C147.08 235.79 145.34 234.3 143.86 232.46C142.74 231.06 141.67 229.61 140.58 228.18C138.16 224.96 138.68 218.22 141.88 214.84C143.37 213.27 145.23 211.95 147.15 210.91C149.92 209.41 154.5 211.48 156.05 214.81" fill="white"/>
<path d="M183.52 221.76C180.76 222.76 178.22 223.66 175.69 224.61C175.29 224.76 174.97 225.14 174.64 225.44C172.83 227.06 171.13 228.81 169.2 230.29C167.45 231.63 165.92 231.08 165.42 228.93C165.05 227.32 165.08 225.6 165.08 223.93C165.08 222.49 165.31 221.05 165.43 219.61C165.52 218.51 166.09 218.03 167.15 218.38C167.96 218.65 168.78 218.86 168.27 220.19C167.7 221.68 167.37 223.29 167.17 224.88C167.1 225.47 167.54 226.48 168.02 226.69C168.54 226.92 169.64 226.69 170.03 226.25C171.58 224.48 173.39 222.75 174.3 220.66C176.73 215.07 177.83 216.52 180.76 218.97C181.64 219.7 182.37 220.61 183.49 221.77" fill="white"/>
<path d="M102.56 128.95C104.53 131.37 106.38 133.65 108.22 135.93C105.13 138.83 100.18 139.78 97.1899 137.99C98.1399 134.62 99.7999 131.65 102.55 128.95" fill="white"/>
<path d="M66.7601 279.88C65.9801 279.63 65.0201 279.58 64.4401 279.09C63.1601 278.01 62.07 276.7 60.91 275.49C57.27 271.72 53.61 267.97 50 264.17C48.47 262.56 46.82 261 46.05 258.69C47.31 258.81 62.52 273.97 66.92 279.28C66.87 279.48 66.8101 279.69 66.7601 279.89" fill="white"/>
<path d="M129.32 119.51C127.3 116.97 125.69 114.96 123.75 112.52C126.34 111.73 128.61 110.95 130.93 110.38C131.89 110.14 132.85 111.72 132.36 112.97C131.54 115.07 130.46 117.08 129.32 119.5" fill="white"/>
<path d="M32.93 33.7202C33.17 33.6802 33.31 33.6902 33.39 33.6302C35.71 31.8202 38.03 30.0202 40.32 28.1702C40.49 28.0302 40.54 27.4302 40.41 27.3002C40.22 27.1102 39.67 27.0002 39.49 27.1402C37.14 28.9002 34.83 30.7102 32.52 32.5402C32.36 32.6602 32.29 33.0802 32.37 33.2802C32.46 33.4902 32.78 33.6102 32.93 33.7202ZM45.28 25.8102C40.48 30.0702 35.9 34.1002 30.26 36.9102C30.58 31.2102 38.94 24.9502 45.28 25.8102Z" fill="white"/>
<path d="M153.68 217.26C151.64 220.81 151.7 224.13 153.99 227.36C153.9 227.53 153.81 227.7 153.72 227.86C152.67 227.57 151.28 227.6 150.64 226.92C149.09 225.26 148.89 223.1 149.59 220.93C150.18 219.08 150.92 217.32 153.68 217.26Z" fill="white"/>
<path d="M158.16 226.99C155.6 227.57 153.28 225.31 153.64 221.99C153.88 219.83 154.68 217.89 156.23 216.63C156.85 219.97 157.49 223.41 158.15 227" fill="white"/>
<path d="M197.14 269.4C196.29 270.93 195.71 272.31 194.84 273.47C193.73 274.93 192.95 274.73 190.66 272.68C191.38 271.6 191.88 270.07 192.9 269.52C193.91 268.97 195.45 269.4 197.14 269.4Z" fill="white"/>
<path d="M158.92 216.21C159.66 219.86 160.35 223.25 161.09 226.92C158.51 225.19 158.58 222.37 158.18 219.92C157.99 218.76 157.23 216.97 158.92 216.21Z" fill="white"/>
<path d="M184.73 265.79C186.1 264.27 187.35 265.59 188.44 266.15C191 267.48 191.83 268.75 191.34 269.92C189.23 268.6 187.1 267.27 184.73 265.79Z" fill="white"/>
<path d="M160.93 217.35C162.61 217.82 163 218.62 162.75 220.23C162.48 221.96 162.84 223.78 162.79 225.59C161.52 223.03 160.53 220.4 160.93 217.35Z" fill="white"/>
<path d="M186.36 263.95C186.75 263.89 187.4 263.59 187.82 263.78C189.45 264.53 191.03 265.39 192.55 266.35C192.85 266.54 192.75 267.35 192.84 267.87C192.37 267.74 191.82 267.72 191.43 267.47C189.74 266.35 188.09 265.16 186.37 263.95" fill="white"/>
<path d="M190.79 271.27C189.89 271.7 186.27 269.28 184.5 266.91C186.86 267.96 189.34 268.83 190.79 271.27Z" fill="white"/>
<path d="M153.22 229.19C155.12 228.96 155.51 230.51 156.34 231.58C155.28 231.893 154.24 231.097 153.22 229.19Z" fill="white"/>
<path d="M312.48 376.81C314.8 376.28 317.13 375.8 319.43 375.2C320.05 375.04 320.72 374.58 321.1 374.07C323.15 371.26 325.11 368.4 327.19 365.42C328.99 367.52 330.77 369.57 332.49 371.66C332.73 371.96 332.83 372.54 332.73 372.92C331.53 377.54 325.3 382.39 320.44 382.58C318.18 382.67 316.42 381.8 314.95 380.13C314.12 379.19 313.21 378.31 312.33 377.41C312.38 377.21 312.42 377.01 312.47 376.82" fill="white"/>
<path d="M281.81 324.02C284.78 322.92 287.04 321.12 288.71 318.25C290.96 321.01 293.18 323.71 295.35 326.47C295.53 326.7 295.44 327.35 295.25 327.65C293.78 329.86 291.81 331.5 289.36 332.56C286.84 329.71 284.35 326.89 281.81 324.03" fill="white"/>
<path d="M296.15 341C293.84 338.16 291.91 335.8 290.07 333.54C292.27 331.6 294.35 329.76 296.49 327.87C298.16 329.89 300 332.04 301.74 334.28C301.96 334.57 301.87 335.45 301.59 335.74C299.88 337.49 298.08 339.15 296.14 341" fill="white"/>
<path d="M303.08 335.75C304.66 337.6 306.35 339.52 307.92 341.52C308.21 341.89 308.26 342.77 308.02 343.17C306.65 345.39 304.63 346.9 302.19 348.08C300.29 345.84 298.41 343.64 296.59 341.5C298.71 339.62 300.79 337.78 303.08 335.75Z" fill="white"/>
<path d="M333.93 373.37C335.43 375.21 337.13 377.25 338.78 379.33C338.98 379.58 339.05 380.1 338.94 380.4C338.04 382.76 336.52 384.66 334.43 386.2C332.2 383.76 330.08 381.31 326.85 381.82C329.1 379.14 331.5 376.27 333.94 373.37" fill="white"/>
<path d="M309.38 343.35C310.73 345 312.19 346.73 313.55 348.52C313.86 348.93 314.09 349.7 313.91 350.13C312.93 352.52 311.26 354.36 308.95 355.82C306.85 353.45 304.82 351.17 302.94 349.04C305.13 347.1 307.23 345.24 309.37 343.35" fill="white"/>
<path d="M274.79 316.5C276.19 315.27 277.54 314.91 279.31 315.33C281.02 315.74 282.46 314.86 283.45 313.04C284.83 314.43 286.19 315.75 287.45 317.15C287.71 317.44 287.79 318.2 287.59 318.52C286.22 320.78 284.27 322.36 281.73 323.14C281.43 323.23 280.89 323.11 280.68 322.88C278.68 320.78 276.74 318.63 274.79 316.51" fill="white"/>
<path d="M335 387.25C336.77 385.02 338.32 383.05 339.98 380.95C341.99 383.31 344.34 385.83 344.99 389.35C345.25 390.73 344.4 391.7 343.2 392.44C341.97 393.19 340.8 393.07 339.86 392.22C338.12 390.62 336.54 388.85 335 387.26" fill="white"/>
<path d="M316.29 362.49C313.88 360.41 311.74 358.55 310 357.05C311 355.78 311.88 354.73 312.68 353.62C313.45 352.55 314.15 351.43 314.89 350.31C316.44 352.24 318.07 354.2 319.58 356.25C319.89 356.67 320.01 357.61 319.75 358C318.62 359.65 317.31 361.19 316.28 362.5" fill="white"/>
<path d="M322.54 370.76C320.36 368.13 318.41 365.78 316.45 363.42C317.94 361.66 319.44 359.88 321.05 357.98C322.67 359.96 324.47 362.13 326.23 364.33C326.38 364.52 326.39 365 326.26 365.2C325.02 367.1 323.74 368.97 322.54 370.76Z" fill="white"/>
<path d="M277.71 313.47C277.21 311.28 278.43 309.68 279.8 308.31C280.95 307.16 282.24 307.76 282.48 309.38C282.97 312.72 281.24 314.23 277.71 313.47Z" fill="white"/>
<path d="M316.7 374.64C314.82 375.41 313.36 376.01 311.75 376.68C311.21 375.86 310.58 375.1 310.19 374.23C309.94 373.67 309.75 372.65 310.04 372.37C310.49 371.94 311.53 371.62 312.04 371.86C313.57 372.58 314.97 373.58 316.7 374.65" fill="white"/>
<path d="M277.39 302.52C275.65 301.51 274.15 299.75 271.92 300.52C270.84 300.89 269.79 301.72 269.04 302.61C266.85 305.19 267.09 307.35 269.68 310.34C267.79 310.71 266.73 309.87 266.43 307.79C265.92 304.2 269.11 299.94 272.68 299.44C274.5 299.19 276.47 300.4 277.39 302.53" fill="white"/>
<path d="M280.95 306.85C278.08 307.9 277.25 310.41 276.59 312.98C274.28 312.33 273.96 311.88 274.93 310.07C275.57 308.87 276.45 307.75 277.43 306.81C278.49 305.8 279.77 305.65 280.95 306.85Z" fill="white"/>
<path d="M278.05 304.89C276.39 306.97 274.83 308.95 273.22 310.98C271.72 310.13 271.6 309.56 272.87 307.51C274.59 304.72 276.59 303.88 278.06 304.89" fill="white"/>
<path d="M276.14 303.77C273.49 304.74 272.13 306.87 271.08 309.56C270.39 308.81 269.81 308.19 269.03 307.35C270.47 306.02 271.83 304.72 273.24 303.46C274.25 302.56 275.21 302.7 276.14 303.76" fill="white"/>
<path d="M270.35 310.99C271.21 311.59 272.07 312.2 272.94 312.79C273.88 313.43 274.82 314.06 275.76 314.7C273.98 316.25 274.39 315.89 270.05 311.51C270.15 311.33 270.25 311.16 270.35 310.98" fill="white"/>
<path d="M270.78 298.91C267.55 301.42 265.09 303.92 265.8 308.25C263.51 305.35 266.77 300.25 270.78 298.91Z" fill="white"/>
<path d="M273.7 301.96C272.2 303.3 270.76 304.58 269.3 305.89C269.55 303.38 271.3 301.78 273.7 301.96Z" fill="white"/>
<path d="M361.85 341.01C363.3 338.28 364.68 335.67 366.1 333.07C366.94 331.53 367.63 330.03 367.41 328.14C367.22 326.49 368.02 326.06 369.51 326.76C370.19 327.08 370.88 327.4 371.49 327.82C372.95 328.81 373.85 330.1 373.17 331.95C371.94 335.3 370.69 338.64 369.4 341.96C368.74 343.67 368.01 345.34 367.28 347.09C365.46 345.05 363.69 343.07 361.84 341.01" fill="white"/>
<path d="M339.53 338.8C339.04 340.05 338.61 341.62 337.85 343.02C337.14 344.32 335.21 344.38 334.52 343.12C333.35 340.99 332.55 338.69 333.16 336.17C333.53 334.66 334.37 333.71 336.01 333.61C337.7 333.5 338.35 334.66 338.81 335.96C339.1 336.77 339.24 337.63 339.53 338.8Z" fill="white"/>
<path d="M331.99 334.46C330.69 337.36 331.78 340.1 332.53 342.99C330.38 341.2 330.06 336.24 331.99 334.46Z" fill="white"/>
<path d="M311.43 299.16C310.43 299.41 309.42 299.67 308.4 299.93C308.4 300.19 308.38 300.44 308.38 300.69C309.51 300.9 310.63 301.11 311.74 301.32C311.38 302.65 310.08 303.7 308.9 303.54C307.27 303.32 305.94 301.55 305.92 299.6C305.9 298.03 306.87 297.29 308.22 297.01C309.49 296.74 310.99 297.83 311.42 299.17" fill="white"/>
<path d="M139.55 123.28C141.13 123.45 142.17 124.5 142.48 126.1C141.62 125.27 140.53 124.22 139.55 123.28Z" fill="white"/>
<path d="M237.14 271.92C228.22 259.86 219.36 247.89 210.13 235.41C211.49 234.24 212.96 233.1 214.29 231.81C215.13 231 215.46 231.2 216.14 232.05C222.88 240.43 229.66 248.77 236.48 257.08C237.95 258.87 240.05 258.39 240.8 256.13C240.96 255.63 240.8 254.8 240.45 254.39C236.89 250.17 233.23 246.05 229.68 241.83C225.98 237.43 222.39 232.93 218.7 228.51C218 227.67 217.96 227.1 218.72 226.3C219.71 225.25 220.57 224.08 221.61 222.81C223.73 225.34 225.89 227.76 227.89 230.32C233.39 237.37 238.84 244.45 244.24 251.58C245.17 252.81 245.94 254.23 246.45 255.68C247.2 257.8 247.26 260.03 246.02 262.06C243.78 265.75 241.36 269.29 237.13 271.93" fill="white"/>
<path d="M209.6 234.9C207.88 232.64 206.49 230.82 205.06 228.94C210.37 224.49 213.98 218.92 217.31 213.07C220.81 217.15 224.39 221.12 227.75 225.27C234.25 233.3 240.75 241.34 247.01 249.55C249.01 252.17 250.72 255.17 250.7 258.74C250.68 262.14 249.31 265.08 247.45 267.75C246.16 269.59 244.46 271.16 242.85 272.76C241.31 274.28 240.51 274.24 238.76 272.74C242.23 270.6 244.41 267.31 246.65 264.08C249.42 260.09 249.17 256.04 246.54 252.24C242.94 247.04 239.17 241.95 235.27 236.98C231.37 232 227.23 227.21 223.15 222.37C221.96 220.96 221.31 221.02 220.06 222.46C216.83 226.19 213.61 229.92 210.39 233.66C210.16 233.92 210.01 234.25 209.62 234.88" fill="white"/>
<path d="M217.31 229.59C224.8 238.28 232.15 246.81 239.55 255.4C239.09 255.9 238.72 256.31 238.15 256.93C231.02 248.03 223.96 239.23 216.93 230.41C216.85 230.32 217.15 229.93 217.31 229.59Z" fill="white"/>
</g>
</svg>
