<svg width="516" height="516" viewBox="0 0 516 516" fill="none" xmlns="http://www.w3.org/2000/svg">
<mask id="mask0_2541_183" style="mask-type:luminance" maskUnits="userSpaceOnUse" x="17" y="131" width="482" height="254">
<path d="M498.17 131.83H17.8198V384.08H498.17V131.83Z" fill="white"/>
</mask>
<g mask="url(#mask0_2541_183)">
<path d="M221.55 165.76C222.2 165.2 222.68 164.8 223.15 164.4C222.8 164.17 222.43 163.72 222.12 163.77C221.45 163.87 220.81 164.22 220.16 164.46C220.56 164.83 220.96 165.21 221.55 165.76ZM234.21 162.03C233.42 161.55 232.98 161.11 232.8 161.2C231.96 161.6 231.2 162.15 230.41 162.65C230.66 162.88 230.99 163.35 231.15 163.29C232.04 163 232.89 162.59 234.21 162.03ZM406.41 275.27C405.4 276.97 406.21 279.82 407.83 280.98C408.5 278.83 407.42 277.26 406.41 275.27ZM316.66 334.25C318.45 333.74 319.98 330.34 319.21 329.42C319.06 329.25 318.16 329.36 318.1 329.52C317.59 330.96 317.19 332.44 316.66 334.25ZM386.4 272.82C386.49 273.02 386.58 273.22 386.67 273.42C387.63 273.7 391.32 272.61 391.73 271.87C391.86 271.63 391.87 271.26 391.78 270.99C391.73 270.83 391.32 270.62 391.18 270.69C389.57 271.37 387.99 272.11 386.4 272.83M210.83 214.62C208.01 214.12 205.55 212.19 205.17 209.99C204 210.19 202.84 210.39 201.67 210.59C201.91 211.15 202.14 211.19 202.32 211.31C203.86 212.36 205.68 213.19 206.85 214.56C208.06 215.99 209.72 216.28 210.84 214.62M124.08 235.12C123.97 235.26 123.71 235.94 123.24 236.16C119.46 237.93 118.91 237.77 116.49 234.5C116.38 234.35 116.3 234.17 116.2 234.01C115.55 233.05 114.86 232.79 114.11 233.9C115.02 235.06 116.06 236.13 116.78 237.38C117.53 238.67 118.42 238.69 119.65 238.33C121.82 237.7 124.02 237.18 126.47 236.55C125.62 236.04 124.83 235.57 124.08 235.12ZM283.37 205.61C281.99 207.28 279.32 207.7 277.68 206.58C276.32 205.65 275.02 204.62 273.63 203.73C272.57 203.05 271.47 202.84 270.65 203.89C272.53 205.04 274.33 206.12 276.1 207.26C276.51 207.52 276.83 208.32 277.13 208.28C279.57 208.02 282 207.61 284.53 207.24C284.32 206.6 284.3 206.37 284.19 206.25C283.97 206.03 283.7 205.86 283.36 205.61M458.29 263.14C458.86 263.26 459.14 263.42 459.34 263.35C463.14 262.03 466.93 260.68 470.71 259.3C470.9 259.23 471.05 258.79 471.05 258.52C471.05 258.35 470.73 258.08 470.53 258.06C470.1 258.01 469.62 257.98 469.22 258.12C465.85 259.36 462.48 260.62 459.14 261.94C458.81 262.07 458.64 262.62 458.29 263.13M266.63 196.39C265.32 194.73 260.8 194.84 259.78 196.74C259.54 197.19 259.82 198.26 260.23 198.68C262.23 200.75 267.01 201.38 269.63 200.06C270.94 199.41 271.08 198.63 270.09 197.58C268.27 200.93 264.17 200.15 261.8 198.06C261.07 197.42 261.14 196.55 262.24 196.43C263.67 196.27 265.13 196.39 266.63 196.39ZM213.8 212.71C214.46 213.22 214.93 213.88 215.29 213.82C216.62 213.62 217.94 213.27 219.21 212.81C219.7 212.63 220.34 212 220.34 211.58C220.34 211.11 219.76 210.31 219.31 210.22C217.61 209.87 215.87 209.74 214.14 209.54C213.51 209.47 212.88 209.42 212.25 209.37C212.26 209.15 212.27 208.94 212.28 208.72H215.81C214.88 207.56 212.16 206.97 211.34 207.7C210.91 208.08 210.55 208.78 210.56 209.31C210.57 209.69 211.25 210.3 211.69 210.36C212.8 210.52 213.96 210.36 215.09 210.45C216.51 210.57 217.92 210.81 219.34 210.99C219.34 211.29 219.33 211.58 219.32 211.88C217.63 212.14 215.93 212.39 213.8 212.71ZM268.97 194.05C272.1 194.68 273.96 196.72 276.22 198.74C278.4 198.17 280.86 197.52 283.32 196.88C283.25 196.53 283.17 196.19 283.1 195.84C282.6 195.96 281.95 195.92 281.61 196.22C279.84 197.81 276.19 197.69 274.7 195.75H277.68C276.81 194.74 276.37 193.79 275.09 194.69C273.89 195.53 272.8 195.38 271.82 193.9C273.37 193.68 274.79 193.48 276.7 193.22C275.85 192.75 275.26 192.14 274.85 192.25C272.86 192.74 270.92 193.43 268.96 194.04M281.91 201.19C284.22 202.68 286.5 204.15 289.06 205.8C290.99 205.31 293.37 204.71 295.93 204.06C295.05 203 294.63 202.41 293.59 203.63C292.46 204.95 289.34 204.62 288.1 203.14H290.86C289.97 202.45 289.5 202.08 288.97 201.67C287.4 202.91 285.86 202.88 283.95 201.22C285.83 200.96 287.34 200.75 289.46 200.46C288.47 200.03 287.77 199.43 287.25 199.55C285.39 199.98 283.59 200.66 281.92 201.19M257.2 214.23C257.2 214.05 257.21 213.87 257.22 213.69C256.19 213.21 255.09 212.84 254.15 212.22C253.14 211.56 252.27 210.68 250.94 209.57C252.31 209.46 253.17 209.39 254.18 209.31C252.98 208.16 247.13 209.26 244.62 211.09C245.31 211.25 245.89 211.56 246.11 211.4C248.02 209.96 249.63 210.71 251.15 212.01C252.15 212.86 253.06 213.83 254.01 214.74C253.91 214.89 253.81 215.04 253.71 215.19C254.88 214.87 256.04 214.55 257.21 214.22M201.68 215.79C199.69 218.37 197.49 217.01 195.16 217.21C195.85 217.83 196.27 218.5 196.65 218.48C198.13 218.4 199.64 218.25 201.05 217.82C201.75 217.61 202.24 216.73 202.82 216.15C202.1 215.68 201.41 214.9 200.64 214.79C198.36 214.45 196.05 214.37 193.75 214.19C194.29 213.48 194.95 212.97 195.64 212.93C196.44 212.89 197.26 213.27 198.07 213.47C198.01 212.81 197.71 212.16 197.36 212.13C196.24 212.05 195.03 211.98 193.99 212.33C193.36 212.54 192.98 213.52 192.49 214.16C193.1 214.61 193.67 215.37 194.33 215.45C195.84 215.65 197.38 215.49 198.91 215.53C199.69 215.55 200.46 215.67 201.68 215.78M225.72 205.85C225.78 205.68 225.85 205.51 225.91 205.33C226.97 205.21 228.02 205.08 229.4 204.92C227.62 203.72 220.16 204.91 219.76 206.23C220.06 206.63 220.39 207.07 220.8 207.61C222.25 206.39 223.74 205.98 225.27 207.22C226.43 208.16 227.52 209.17 228.65 210.15C228.57 210.3 228.49 210.45 228.41 210.59C229.55 210.28 230.69 209.96 231.76 209.67C229.68 208.35 227.7 207.1 225.73 205.84M131.22 235.02C131.95 233.31 135.06 232.28 136.42 233.19C137.7 234.04 138.85 234.21 140.28 232.93C136.75 231.3 133.64 229.27 129.71 228.88C130 231.5 131.36 233.84 129.91 236.37C130.97 236.04 131.91 235.56 132.85 235.07C132.89 235.05 132.85 234.88 132.85 234.65C132.34 234.77 131.88 234.87 131.22 235.03M219.27 219.44C220.07 217.57 221.36 216.73 222.42 217.58C224.16 218.98 226.37 219.99 227.09 222.46C228.35 222.05 229.53 221.67 230.28 221.42C228.27 219.84 226.25 218.25 224.23 216.66C224.31 216.5 224.4 216.34 224.48 216.18C225.59 216.25 226.69 216.31 227.93 216.38C227.46 215.04 226.45 214.96 225.39 215.17C223.73 215.5 222.07 215.85 220.45 216.32C219.48 216.6 218.58 217.1 217.21 217.69C218.09 218.44 218.61 218.87 219.27 219.43M238.78 206.24C240.71 205.32 242.44 205.43 244.29 206.28C244.95 206.58 246 206.03 246.88 205.87L246.86 205.1C242.81 205.07 239.56 202.09 235.57 202.08C236.33 204.22 237.02 206.13 237.77 208.24C238.24 208.07 238.95 207.81 239.85 207.48C239.4 206.95 239.14 206.64 238.79 206.23M260.95 205.58C261.12 208.61 264.64 209.69 263.46 212.75C264.34 212.35 265.04 212.03 265.79 211.69C265.53 211.15 265.33 210.74 264.82 209.67C266.8 209.97 268.26 210.31 269.72 210.36C270.53 210.39 271.36 209.93 272.17 209.69C270.18 208.7 268.41 208.1 266.63 207.5C264.88 206.91 263.12 206.32 260.94 205.59M187.56 215.93C185.95 214.27 184.11 215.56 182.39 215.45C182.72 214.98 183 214.59 183.28 214.2C183.17 214.08 183.06 213.96 182.95 213.83C181.6 214.8 180.24 215.76 178.82 216.78C178.79 216.69 178.79 216.88 178.87 216.91C181.02 217.89 183.03 219.01 184.12 221.28C184.24 221.52 184.91 221.68 185.24 221.59C187.53 220.93 189.79 220.2 192.06 219.47C192.2 219.43 192.28 219.23 192.45 219.04C192.07 218.73 191.73 218.46 191.4 218.19C189.46 220.51 185.96 220.73 184.33 218.7C185.24 218.48 186.17 218.25 187.09 218.03C187.06 217.85 187.04 217.66 187.01 217.48C186.17 217.59 185.32 217.64 184.49 217.82C183.3 218.07 182.6 217.68 182.27 216.31C184.05 216.18 185.7 216.07 187.57 215.94M249 201.31C249.06 201.17 249.11 201.04 249.17 200.91C252.3 201.62 255.43 202.33 258.56 203.04C258.68 202.81 258.8 202.57 258.93 202.34C257.15 201.02 255.37 199.7 253.59 198.39C253.69 198.2 253.79 198.02 253.89 197.84C253.08 197.94 252.27 198.03 251.46 198.12C251.45 198.26 251.44 198.39 251.43 198.53C252.63 199.25 253.83 199.97 255.02 200.69C253.16 200.58 251.48 200.12 249.79 199.71C248.12 199.3 246.44 199.02 245.11 199.91C247.31 201.47 249.41 202.96 251.77 204.64C251.99 204.58 252.67 204.39 253.83 204.07C251.95 203 250.48 202.15 249 201.31ZM174.5 221.47C175.21 219.42 174.75 218.69 172.73 218.58C171.33 218.5 169.93 218.51 168.53 218.58C166.96 218.67 165.84 219.64 165.59 221.04C168.06 221.55 170.16 222.53 170.47 225.77C171.7 225.13 172.72 224.59 173.92 223.96C172.75 223.48 171.93 223.13 170.76 222.65C174.3 220.91 177.36 224.26 180.66 222.68C178.44 222.24 176.49 221.86 174.51 221.47M237.45 211.82C236.41 212.15 235.33 212.32 234.44 212.82C232.72 213.78 232.61 215.21 233.75 216.79C235.05 218.58 241.86 219.67 243.79 217.67C245.52 215.89 245.35 213.94 242.99 213.14C241.22 212.54 239.35 212.26 237.44 211.82M292.83 169.09C292.78 168.77 292.73 168.46 292.68 168.14C291.99 168.14 291.26 167.99 290.62 168.16C283.01 170.26 275.41 172.39 267.82 174.57C267.35 174.71 267 175.26 266.59 175.63C266.73 175.87 266.88 176.11 267.03 176.35C275.65 173.99 284.37 172.01 292.82 169.09M301.37 167.53C301.45 167.71 301.54 167.9 301.62 168.08C302.31 167.97 303.02 167.92 303.69 167.73C307.63 166.62 311.55 165.42 315.51 164.36C319.35 163.33 323.24 162.48 327.08 161.46C327.83 161.26 329.13 161.2 328.53 159.47C327.16 159.77 325.82 160.02 324.5 160.38C317.2 162.4 309.91 164.44 302.63 166.52C302.15 166.66 301.79 167.18 301.37 167.52M276.21 154.32L276.3 154.73C285.28 152.7 294.26 150.69 303.22 148.62C303.83 148.48 304.32 147.84 304.87 147.44C304.19 147.3 303.52 147.15 302.83 147.04C302.66 147.01 302.48 147.18 302.3 147.22C296.46 148.56 290.63 149.94 284.77 151.23C281.63 151.92 278.45 152.43 275.29 153.07C274.97 153.14 274.71 153.55 274.43 153.81C274.77 154.02 275.1 154.28 275.46 154.42C275.67 154.5 275.96 154.37 276.21 154.34M242.27 168.54C244.01 169.35 306.02 153.65 307.07 152.25C285.29 157.73 263.78 163.13 242.27 168.54ZM315.03 155.45C314.96 155.17 314.89 154.89 314.82 154.61C288.39 161.11 261.95 167.61 235.52 174.11C235.59 174.39 235.66 174.67 235.73 174.95C262.17 168.45 288.6 161.95 315.03 155.45ZM454.93 264.09C453.45 263.11 452.26 264.15 451.08 264.67C445.64 267.08 440.33 269.81 434.78 271.94C428.27 274.43 421.95 277.74 414.73 277.95C414.33 277.96 413.95 278.59 413.26 279.2C419.61 280.04 452.49 267.91 454.93 264.09ZM206.78 222.31C178.64 229.82 150.78 237.27 122.91 244.71L123.04 245.19C125.18 245.4 205.88 223.59 206.78 222.31ZM125.73 246.76C125.8 247.04 125.88 247.31 125.95 247.59C153.63 240.19 181.3 232.79 208.98 225.39C208.91 225.11 208.83 224.84 208.76 224.56C181.08 231.96 153.41 239.36 125.73 246.76ZM204.01 167.62C203.98 167.79 203.95 167.96 203.93 168.13C204.34 168.47 204.74 168.81 204.94 168.97C204.74 169.66 204.36 170.41 204.51 170.53C205.16 171.07 206.26 171.98 206.64 171.77C208.37 170.79 209.32 171.95 210.41 172.78C213.16 174.87 216.24 175.79 219.65 175.29C220.75 175.13 221.79 174.58 222.93 174.18C222.02 172.48 221.15 171.94 219.65 172.68C219.12 172.94 218.25 172.92 217.71 172.66C216.27 171.99 214.93 171.13 213.32 170.21C214.18 169.77 214.65 169.53 215.29 169.2C214.41 168.3 213.9 167.37 212.44 167.95C211.78 168.21 210.53 168.17 210.14 167.74C207.97 165.3 206.03 167.35 204.01 167.61M366.81 288.63L366.64 287.83C365.9 287.9 365.13 287.84 364.44 288.07C352.22 292 340.01 295.97 327.8 299.93C325.57 300.65 323.33 301.32 321.13 302.11C320.76 302.25 320.58 302.92 320.31 303.35C320.73 303.46 321.15 303.67 321.57 303.66C322 303.66 322.42 303.43 322.84 303.3C330.29 300.88 337.74 298.46 345.2 296.05C351.87 293.89 358.54 291.73 365.2 289.54C365.78 289.35 366.28 288.94 366.82 288.64M271.51 179.55C271.64 179.81 271.78 180.08 271.91 180.34C272.57 180.23 273.25 180.18 273.9 180.01C290.47 175.72 307.04 171.4 323.62 167.12C326.62 166.35 329.66 165.76 332.67 165.03C333.06 164.94 333.37 164.5 333.71 164.22C333.28 163.96 332.87 163.64 332.4 163.47C332.14 163.38 331.78 163.54 331.48 163.61C325.1 165.2 318.72 166.76 312.36 168.41C299.27 171.81 286.19 175.26 273.12 178.71C272.55 178.86 272.05 179.26 271.52 179.54M317.52 297.82C317.62 298.01 317.71 298.2 317.81 298.39C319.08 298.14 320.4 298.03 321.6 297.61C327.8 295.42 333.95 293.07 340.16 290.92C352.4 286.68 364.68 282.55 376.92 278.31C379.18 277.52 381.34 276.42 383.49 275.36C383.82 275.2 383.87 274.47 384.05 274C383.59 274 383.07 273.83 382.68 274C380.51 274.89 378.43 276 376.22 276.77C363.96 281.02 351.67 285.17 339.41 289.4C332.42 291.82 325.46 294.34 318.5 296.85C318.11 296.99 317.84 297.49 317.51 297.83M97.1598 219.8C97.2198 220.09 97.2698 220.37 97.3298 220.66C143.05 209.31 188.76 197.97 234.48 186.62C234.41 186.34 234.34 186.06 234.27 185.78C188.56 197.12 142.86 208.46 97.1598 219.8ZM231.11 182.51C184.36 193.98 138.06 205.34 91.7598 216.7C91.8298 216.98 91.8998 217.25 91.9598 217.53C138.1 206.22 184.24 194.92 230.37 183.59C230.57 183.54 230.68 183.15 231.11 182.51ZM210.81 177.36C209.83 176.05 209.3 174.45 207.56 175.14C206.12 175.71 205.25 175.43 204.3 174.35C203.55 173.5 202.58 172.84 201.73 172.08C200.08 170.6 196.79 170.31 194.96 171.58C194.67 171.78 194.63 172.36 194.57 172.5C192.06 173.01 189.46 173.24 187.08 174.09C184.71 174.93 184.7 176.72 186.87 178.09C190.65 180.48 194.89 180.12 199.03 179.83C200.36 179.74 201.63 178.57 202.44 178.14C204 178.24 205.22 178.47 206.4 178.35C207.76 178.21 209.08 177.77 210.82 177.36M117.47 189.48C113.46 189.89 109.87 190.91 106.99 193.66C105.18 195.38 105.97 198 108.38 198.65C108.86 198.78 109.36 198.86 109.85 198.98C115.17 200.29 120.23 199.59 125.04 197.01C127.84 195.51 127.09 191.92 124.77 191.25C122.37 190.56 119.91 190.06 117.48 189.48M254.94 186.43C254.87 186.15 254.8 185.87 254.73 185.59C203.09 198.41 151.46 211.22 99.8198 224.04C99.8898 224.32 99.9598 224.6 100.03 224.88L254.94 186.43ZM400.94 285.17C400.03 284.76 399.63 284.43 399.26 284.45C398.65 284.49 398.04 284.74 397.44 284.95C373.49 293.09 349.53 301.23 325.59 309.42C324.78 309.7 324.14 310.5 323.43 311.07C324.33 311.06 325.31 311.27 326.13 311C341.77 305.74 357.39 300.42 373.01 295.11C381.57 292.2 390.12 289.27 398.66 286.33C399.27 286.12 399.83 285.74 400.94 285.18M165.84 179.85C164.36 178.67 162.95 177.49 161.48 176.38C159.53 174.9 155.54 175.88 154 178.51C154.89 178.61 155.59 178.67 156.29 178.77C157.14 178.89 158.15 178.8 158.8 179.23C160.84 180.62 162.74 182.2 164.68 183.72C164.91 183.9 165.19 184.16 165.24 184.43C165.74 187.33 166.17 187.61 168.93 186.83C171.25 186.17 173.57 185.5 175.92 184.91C177.8 184.44 179.83 184.34 181.59 183.59C183.72 182.69 183.8 180.29 181.8 179.17C180.08 178.21 178.17 177.15 176.28 177.03C172.65 176.78 168.92 176.92 165.86 179.85M132.53 193.59C133.25 195.36 134.32 195.68 135.92 195.13C137.64 194.54 139.44 194.19 141.19 193.68C141.86 193.48 142.49 193.14 143.69 192.64C142.54 192.04 141.88 191.39 141.28 191.45C138.99 191.67 138.01 189.93 136.48 188.8C139.27 187.23 142.11 188.31 143.19 190.93C143.48 191.65 144.71 192.56 145.36 192.45C147.68 192.08 149.94 191.31 152.33 190.66C151.53 189.48 150.83 189.19 149.45 189.19C148.36 189.19 147.27 187.52 146.17 186.59C146.45 186.29 146.67 185.85 147.01 185.73C148.78 185.12 151.6 186.74 152.32 188.55C152.77 189.68 153.43 190.7 155.05 190.05C155.9 189.7 156.89 189.69 157.8 189.47C159.22 189.13 160.62 188.74 162.04 188.38C162.07 188.12 162.1 187.87 162.12 187.61C161.33 187.34 160.54 187.08 159.76 186.81C158.97 186.53 158.15 186.31 157.41 185.93C155.3 184.86 153.34 183.34 151.12 182.73C148.74 182.08 146.17 182.63 144.24 184.42C143.56 185.05 143.15 185.39 142.21 185.08C139.17 184.1 136.36 184.51 133.98 186.72C132.19 185.63 126.71 187.05 125.56 188.83C126.83 190.03 128.15 190.88 129.9 189.61C130.1 189.46 130.67 189.58 130.92 189.77C131.95 190.58 132.93 191.47 134.01 192.4C133.47 192.84 133.03 193.19 132.55 193.58M318.8 322.09C320.54 319.17 319.82 316.38 319.45 313.67C318.26 305.13 314.01 297.95 307.9 292.29C299.7 284.7 290.98 277.62 282.12 270.81C272.4 263.34 262.25 256.43 252.31 249.25C245.56 244.38 238.93 239.35 232.09 234.6C229.14 232.55 225.82 231.04 222.64 229.34C222.32 229.17 221.8 229.39 221.37 229.42C221.51 229.8 221.57 230.24 221.81 230.54C222.03 230.82 222.44 230.95 222.77 231.14C225.42 232.61 228.24 233.84 230.71 235.59C239.83 242.05 248.74 248.82 257.9 255.21C273.76 266.27 289.3 277.76 303.78 290.58C312.58 298.38 318.67 307.75 318.1 320.23C318.07 320.84 318.56 321.47 318.81 322.09M96.7798 195.36C96.7798 195.19 96.7598 195.01 96.7498 194.84C96.0398 194.84 95.2698 194.66 94.6198 194.87C91.9498 195.72 89.2798 197.03 87.2398 193.76C87.1198 193.56 86.8098 193.3 86.6398 193.33C85.6698 193.5 84.7198 193.74 83.7598 193.96C83.9898 194.54 84.1998 195.12 84.4498 195.69C84.5498 195.9 84.7298 196.08 85.0198 196.47C83.6998 196.73 82.4998 196.83 81.4098 197.22C80.5798 197.52 79.1698 198.37 79.2498 198.65C79.6698 200.2 80.8398 199.13 81.7498 199.09C81.8598 199.09 81.9698 199.16 82.1098 199.21C81.9098 201.08 81.0598 203.26 83.4998 204.26C85.2498 204.98 87.1698 205.27 89.2798 205.83C87.8198 206.3 86.5698 206.68 85.3398 207.11C84.1398 207.54 82.9698 208.03 81.7798 208.49C81.8198 208.78 81.8598 209.07 81.8998 209.36C82.9198 209.39 83.9998 209.64 84.9598 209.41C87.0298 208.93 89.0298 208.13 91.0998 207.6C95.9498 206.35 95.9498 206.38 99.4098 209.91C101.67 212.21 101.74 212.22 104.49 210.05C103.08 208.7 101.67 207.35 99.9398 205.69C104.08 204.52 107.77 203.49 111.73 202.37C109.91 200.77 109.64 200.71 107.95 201.24C105.44 202.03 102.94 202.83 100.28 203.67C100.93 202.8 101.46 202.08 102.17 201.13C99.3998 200.82 97.0298 199.27 94.6798 201.45C94.0398 200.65 93.5098 199.98 92.9798 199.31C95.9198 200.7 98.1798 198.95 100.66 197.61C98.8198 197.12 96.9798 196.63 95.1698 196.15C95.6798 195.9 96.2298 195.64 96.7798 195.37M102.01 229.41C102.66 229.3 103.04 229.25 103.4 229.16C120.28 224.97 137.15 220.8 154.03 216.59C191.81 207.18 229.59 197.76 267.37 188.3C267.98 188.15 268.47 187.51 269.01 187.09C268.37 186.96 267.67 186.58 267.1 186.72C237.44 194.05 207.79 201.42 178.13 208.79C159.34 213.46 140.56 218.12 121.77 222.79C115.26 224.41 108.76 226.06 102.27 227.74C101.82 227.86 101.46 228.36 101.06 228.68C101.42 228.95 101.78 229.22 102.01 229.39M256.23 173.27C278.62 167.99 300.46 162.85 322.28 157.66C323.16 157.45 323.92 156.78 324.73 156.32C323.9 154.97 322.83 155.83 321.88 156.05C305.62 159.88 289.37 163.75 273.11 167.6C267.51 168.92 261.89 170.17 256.29 171.52C255.64 171.68 254.53 172.44 254.59 172.6C254.86 173.42 255.35 174.25 255.97 174.87C256.48 175.39 257.28 175.61 257.94 175.99C265.66 180.5 273.16 185.44 281.14 189.45C297.66 197.75 313.58 207.04 329.14 217.01C342.55 225.61 356.09 234.04 369.67 242.37C377.32 247.07 384.84 251.93 391.55 257.92C396.47 262.31 400.57 267.42 403.91 273.13C404.36 273.89 404.67 275.06 406.32 273.95C405.26 272.19 404.27 270.39 403.13 268.68C397.14 259.65 389 252.84 380.07 246.97C372.86 242.23 365.3 238.01 357.99 233.42C346.74 226.36 335.53 219.25 324.38 212.05C311.83 203.94 298.84 196.63 285.52 189.84C275.71 184.84 266.32 179.01 256.23 173.27ZM163.6 382.42C165.79 382.68 167.99 382.94 170.18 383.19C177.19 383.97 183.14 381.15 189.12 377.99C193.73 375.55 196.05 371.67 198.11 367.16C200.71 361.46 202.02 355.53 201.57 349.42C200.82 339.27 197 330.27 190.93 321.98C181.54 309.15 169.06 300.61 154.93 293.96C143.06 288.37 131.17 282.79 119.56 276.69C108.39 270.82 98.1598 263.45 88.7198 255.05C82.1598 249.2 75.5998 243.32 69.3498 237.15C59.0398 226.97 50.4698 215.33 42.0898 203.55C40.3998 201.17 38.4898 198.94 36.7298 196.6C35.6798 195.2 34.7698 193.7 33.7498 192.28C33.3798 191.77 32.8498 191.37 32.4598 190.87C31.9598 190.22 31.5298 189.52 31.0698 188.84C31.7798 188.53 32.4698 188.03 33.2098 187.95C41.4998 187.02 49.8198 186.29 58.0898 185.25C70.0898 183.74 82.0798 182.08 94.0598 180.39C106.36 178.66 118.67 177 130.92 174.97C148.64 172.04 166.24 168.43 183.58 163.68C210.98 156.18 238.34 148.53 265.76 141.11C277.5 137.93 289.36 135.22 301.14 132.2C303.99 131.47 306.11 131.78 308.56 133.88C313.14 137.81 318.2 141.2 323.18 144.63C333.47 151.73 343.74 158.93 355.58 163.28C365.8 167.04 376.03 170.83 386.44 174.02C408.6 180.81 430.18 189.1 451.21 198.75C464.97 205.07 477.41 213.53 487.3 225.29C495.1 234.57 499.3 245.13 497.91 257.38C496.62 268.68 493.31 279.37 486.15 288.42C482.03 293.64 476.81 297.29 470.18 299.28C460.37 302.22 450.9 306.31 441.08 309.26C420.34 315.48 399.43 321.17 378.66 327.27C361.61 332.28 344.61 337.46 327.65 342.78C304.79 349.94 282 357.32 259.17 364.58C243.86 369.45 228.35 373.58 212.61 376.79C205.25 378.29 197.82 379.43 190.45 380.86C187.2 381.49 184.03 382.48 180.81 383.24C175.04 384.6 169.32 384.28 163.6 382.41" fill="white"/>
<path d="M174.35 354.46C174.47 352.43 170.75 347.38 169.27 347.39C169.34 349.26 172.56 353.84 174.35 354.46ZM104.7 289.18C104.53 289.24 104.36 289.29 104.2 289.35C104.5 289.91 104.68 290.57 105.1 291.01C109.25 295.39 114.63 298.08 119.59 301.33C119.96 301.57 120.63 301.36 121.16 301.36C121.16 301.19 121.15 301.02 121.14 300.85C115.66 296.96 110.17 293.07 104.69 289.18M146.7 331.74C146.47 331.86 146.24 331.99 146.01 332.11C146.19 332.71 146.23 333.39 146.56 333.88C151.97 341.95 157.41 350 162.84 358.05C163.12 358.46 163.59 358.92 163.58 359.34C163.49 361.79 165.31 361.57 166.58 361.18C169.1 360.42 171.59 359.43 173.93 358.24C180.09 355.1 181.46 348.83 178.29 343.02C175.3 337.55 171.23 332.81 166.23 329.14C161.28 325.51 155.87 322.52 150.72 319.16C143.54 314.48 136.42 309.71 129.25 304.99C128.25 304.33 127.19 303.74 126.1 303.24C125.83 303.12 125.35 303.47 124.96 303.6C125.12 303.96 125.18 304.47 125.46 304.66C126.56 305.41 127.76 306 128.86 306.75C134.44 310.51 139.94 314.39 145.57 318.06C152.16 322.35 159.05 326.2 165.46 330.73C170.31 334.15 174.09 338.83 176.94 344.08C178.34 346.66 178.97 349.51 177.47 352.39C175.48 351.19 175.3 348.23 172.97 347.53C172.74 347.72 172.52 347.92 172.29 348.11C173.69 350.08 175.08 352.05 176.61 354.21C175.6 355.02 174.41 355.98 173.14 357.01C170.31 352.44 167.66 348.16 165.01 343.89C164.68 344.02 164.36 344.15 164.03 344.28C164.15 344.85 164.13 345.49 164.42 345.96C166.56 349.55 168.77 353.11 170.94 356.68C171.13 357 171.21 357.39 171.35 357.75C171.21 357.83 171.08 357.92 170.94 358C170.33 357.15 169.64 356.34 169.11 355.45C167.15 352.19 165.31 348.85 163.29 345.63C162.15 343.81 160.77 342.13 159.43 340.44C159.23 340.18 158.69 340.19 158.3 340.07C158.28 340.53 158.09 341.09 158.28 341.43C158.66 342.07 159.36 342.53 159.76 343.17C162.89 348.24 165.98 353.34 169.07 358.44C169.14 358.56 169 358.82 168.92 359.15C166.99 356.32 165.15 353.69 163.39 351C160.54 346.64 157.78 342.24 154.92 337.89C154.64 337.46 153.99 337.28 153.5 336.98C153.51 337.53 153.32 338.22 153.57 338.62C158.01 345.59 162.51 352.52 167 359.46C166.36 359.49 165.71 359.29 165.41 358.85C159.61 350.35 153.86 341.82 148.08 333.31C147.68 332.73 147.13 332.25 146.66 331.73M151.16 351.84C147.27 347.15 143.04 342.7 139.55 337.74C130.9 325.41 121.73 313.53 110.97 302.97C98.2299 290.47 85.3199 278.14 72.5899 265.62C67.2299 260.35 62.1999 254.74 56.9699 249.35C51.0199 243.22 44.9099 237.24 39.0699 231.01C34.6799 226.32 30.5999 221.33 26.3999 216.45C25.9499 215.92 25.5899 215.3 25.2599 214.68C24.6699 213.57 23.7999 212.4 25.2099 211.28C26.1199 210.56 28.4899 211.12 29.3499 212.23C30.0499 213.13 30.6499 214.12 31.3799 214.99C35.9799 220.52 40.4599 226.15 45.2599 231.5C50.4899 237.32 55.7199 243.21 61.5199 248.43C69.7999 255.86 78.6199 262.68 87.1799 269.8C92.3699 274.12 97.4499 278.56 102.65 282.85C114.66 292.76 127.66 301.11 141.67 307.93C151.73 312.83 161.55 318.22 170.35 325.17C175.38 329.14 179.96 333.72 183.05 339.51C186.78 346.5 186.73 353.45 182.86 360.35C182.38 361.21 181.63 362 180.84 362.6C179.02 363.98 177.23 365.52 175.18 366.45C173.34 367.29 171.18 367.59 169.13 367.78C164.55 368.2 160.17 367.33 156.05 365.21C149.54 361.86 144.07 357.27 139.89 351.26C135.69 345.21 131.71 339.01 127.54 332.94C121.79 324.59 115.48 316.67 108.3 309.5C98.5999 299.81 88.9599 290.06 78.9599 280.69C71.3499 273.55 63.1599 267.02 55.3399 260.09C48.6499 254.16 42.6999 247.56 37.3999 240.32C34.3299 236.13 30.5099 232.49 27.2899 228.39C25.7699 226.45 24.7599 224.07 23.7799 221.78C23.5299 221.19 24.1199 219.65 24.6499 219.46C25.3799 219.2 26.7299 219.52 27.2699 220.1C29.9999 223.03 32.4499 226.22 35.1999 229.14C40.0899 234.33 45.1499 239.36 50.0999 244.51C57.8299 252.55 65.3499 260.8 73.2699 268.66C81.9599 277.27 91.1299 285.4 99.8599 293.99C113.58 307.49 126.62 321.59 137.32 337.7C141.62 344.18 146.44 350.29 152.31 355.45C154.19 357.1 156.09 358.87 158.94 358.77C159.52 358.75 160.1 359.45 160.73 359.7C161.02 359.81 161.58 359.77 161.73 359.57C161.9 359.35 161.87 358.79 161.7 358.53C155.38 349.32 149.04 340.12 142.7 330.93C141.51 329.21 140.28 327.5 139.05 325.81C138.71 325.34 138.3 324.93 137.92 324.49C137.69 324.6 137.47 324.72 137.24 324.83C137.52 325.61 137.66 326.49 138.11 327.15C144.36 336.5 150.66 345.81 156.94 355.14C157.31 355.69 157.66 356.27 158.29 357.23C155.12 355.86 152.91 354.07 151.07 351.79C151.69 351.92 152.31 352.06 152.93 352.19C153.06 352.03 153.19 351.87 153.31 351.71C146.19 341.29 139.07 330.87 131.95 320.45C130.75 322.15 131.82 323.11 132.46 324.06C137.31 331.29 142.23 338.47 147.1 345.68C148.48 347.72 149.79 349.8 151.13 351.86" fill="white"/>
<path d="M23.0902 226.03C27.2902 230.92 31.8802 235.64 35.7402 240.89C42.0502 249.47 49.2502 257.12 57.3302 264.01C63.6802 269.43 70.0602 274.82 76.1702 280.5C84.9402 288.65 93.5902 296.95 102.1 305.38C114.72 317.88 125.54 331.8 134.74 347.04C139.86 355.52 146.67 362.58 155.84 366.89C160.7 369.18 165.82 369.74 171.22 369.26C176 368.83 179.53 366.22 182.55 363.22C186.64 359.15 187.93 353.67 187.43 347.94C186.93 342.18 184.34 337.14 180.68 332.87C176.76 328.29 172.4 324.08 167.3 320.71C158.43 314.86 149.16 309.77 139.65 305.03C128.03 299.23 117.08 292.31 106.98 284.09C96.2602 275.38 85.4602 266.79 74.8502 257.96C62.7902 247.93 51.3102 237.29 41.6902 224.78C38.4002 220.5 34.7302 216.51 31.4002 212.25C29.8902 210.32 28.7302 208.09 27.5202 205.94C26.7102 204.5 27.0802 203.97 28.7602 204.1C29.9602 204.19 31.1502 204.5 32.3502 204.6C33.6402 204.71 34.4402 205.34 34.9002 206.52C37.7802 213.91 42.4802 220.16 47.4802 226.17C50.4902 229.78 53.7102 233.25 57.0902 236.52C61.0302 240.32 65.2402 243.83 69.3602 247.44C76.0202 253.27 82.5602 259.25 89.4002 264.86C95.2402 269.65 101.06 274.64 107.54 278.43C120.89 286.23 134.53 293.57 148.34 300.54C156.72 304.76 164.74 309.4 172.18 315.08C177.76 319.34 182.17 324.67 186.02 330.49C187.18 332.24 188.35 333.98 189.57 335.69C193.14 340.72 193.77 346.25 192.77 352.21C191.54 359.6 187.21 365.11 181.99 369.93C178.75 372.92 174.31 373.91 170.01 374.31C158.1 375.42 148.19 371.15 140.43 362.17C134.32 355.09 128.61 347.66 122.55 340.53C116.48 333.4 110.35 326.32 103.98 319.45C92.7102 307.3 81.2702 295.31 69.8602 283.29C61.7402 274.74 53.4702 266.33 45.4302 257.7C37.7802 249.5 30.3402 241.11 22.8502 232.76C22.5902 232.47 22.7902 231.79 22.6702 231.32C22.5002 230.66 22.3202 229.97 21.9902 229.38C21.2602 228.1 21.0502 227.01 23.0902 226.03Z" fill="white"/>
<path d="M21.2899 233.37C26.3899 238.95 31.4399 244.52 36.5399 250.04C44.5799 258.74 52.5899 267.47 60.7299 276.08C73.3799 289.48 86.2399 302.67 98.7899 316.16C111.55 329.87 123.73 344.09 135.23 358.88C141.83 367.37 149.8 373.86 160.87 375.73C168.46 377.01 175.88 376.3 182.01 371.85C188.62 367.04 193.19 360.43 194.49 351.88C195.57 344.79 193.99 338.66 189.81 332.9C186 327.65 182.48 322.2 177.75 317.67C172.43 312.57 166.43 308.38 160.04 304.83C153.05 300.96 145.71 297.74 138.72 293.88C126.62 287.18 114.6 280.34 102.7 273.29C95.9899 269.31 90.6299 263.56 84.7999 258.44C79.1999 253.53 73.5399 248.69 67.8199 243.92C57.0399 234.93 47.4699 224.87 39.8899 213.02C38.8099 211.33 38.2999 209.28 37.2999 207.53C35.2299 203.9 32.9999 200.36 30.8499 196.79C33.1099 195.66 33.9199 195.66 35.3399 197.5C39.2899 202.64 43.2099 207.8 46.9799 213.06C54.3799 223.39 62.5799 233.04 71.7199 241.87C84.9199 254.63 98.7099 266.75 114.72 275.88C124.01 281.17 133.9 285.4 143.49 290.18C151.2 294.02 159.05 297.63 166.47 301.97C176.81 308.02 185.23 316.23 191.91 326.28C196.01 332.45 198.56 339.17 199.56 346.34C200.38 352.23 200.24 358.29 197.52 363.91C197.19 364.59 196.9 365.3 196.69 366.03C195.02 371.95 190.86 375.46 185.51 377.97C181.11 380.03 176.74 382.01 171.71 381.59C164.99 381.03 158.15 380.42 152.06 377.58C147.47 375.44 143.07 372.34 139.47 368.77C131.02 360.38 123.03 351.52 114.98 342.73C101.33 327.82 87.7899 312.81 74.1699 297.88C68.3299 291.47 62.4599 285.09 56.5099 278.77C50.2199 272.08 43.7699 265.54 37.4799 258.86C31.6299 252.64 25.8799 246.32 20.0899 240.04C19.8699 239.8 19.6599 239.57 19.4499 239.33C17.1499 236.68 17.2599 235.85 20.1999 234.07C20.5699 233.85 20.9199 233.61 21.3199 233.36" fill="white"/>
<path d="M91.9701 203.09C91.0701 202.72 90.1101 202.44 89.2801 201.94C88.9701 201.75 88.8301 201.08 88.8301 200.64C88.8301 200.38 89.3201 199.86 89.4901 199.9C89.8601 199.98 90.2101 200.3 90.4701 200.61C91.0301 201.28 91.5301 202.01 92.0601 202.71C92.0301 202.84 92.0001 202.96 91.9701 203.08" fill="white"/>
<path d="M175.97 181.81C174.76 183.32 170.4 183.4 169.41 181.85C169.2 181.52 169.38 180.55 169.68 180.38C171.38 179.37 174.66 180.19 175.97 181.82" fill="white"/>
<path d="M121.05 195.33C118.86 197.09 116.53 196.87 114.3 196.6C113.76 196.53 113.1 195.36 112.99 194.62C112.94 194.27 114.07 193.39 114.67 193.39C116.27 193.39 117.89 193.64 119.46 193.98C120.02 194.1 120.45 194.8 121.05 195.32" fill="white"/>
<path d="M199.7 176.45C198.62 177.03 197.75 177.89 196.9 177.87C195.52 177.85 194.12 177.33 192.79 176.84C192.4 176.7 192.05 175.95 192.04 175.47C192.04 175.18 192.71 174.65 193.11 174.62C195.31 174.45 197.5 174.48 199.7 176.44" fill="white"/>
<path d="M234.41 213.91C236.94 212.96 239.29 213.37 241.47 214.82C242.63 215.6 242.45 216.73 241.17 217.26C239.03 218.14 235.21 216.29 234.41 213.91Z" fill="white"/>
<path d="M173.12 219.75C171.26 221.277 169.55 221.107 167.99 219.24C170.01 219.44 171.56 219.59 173.12 219.75Z" fill="white"/>
<path d="M134.36 231.97C133.07 232.46 132.26 232.77 131.41 233.09C131.21 232.13 131.03 231.23 130.78 230.01C132.04 230.7 133.02 231.23 134.37 231.97" fill="white"/>
</g>
</svg>
