<svg width="516" height="516" viewBox="0 0 516 516" fill="none" xmlns="http://www.w3.org/2000/svg">
<mask id="mask0_2541_491" style="mask-type:luminance" maskUnits="userSpaceOnUse" x="179" y="45" width="158" height="426">
<path d="M336.06 45.3701H179.94V470.63H336.06V45.3701Z" fill="white"/>
</mask>
<g mask="url(#mask0_2541_491)">
<path d="M314.26 403.8C313.89 403.12 313.68 402.39 313.2 401.94C311.85 400.66 310.41 399.46 308.96 398.29C308.72 398.1 308.24 398.2 307.87 398.17C308.01 398.56 308.04 399.06 308.3 399.34C309.81 400.96 311.37 402.53 312.95 404.09C313.13 404.27 313.49 404.37 313.76 404.34C313.93 404.32 314.07 404.01 314.26 403.8ZM324.34 412.69C324.04 412.83 323.79 412.92 323.57 413.06C321.26 414.48 318.95 415.89 316.67 417.34C316.46 417.47 316.41 417.85 316.29 418.11C316.6 418.24 317.04 418.58 317.21 418.47C319.72 416.97 322.2 415.43 324.65 413.85C324.82 413.74 324.83 413.28 324.81 413C324.81 412.88 324.5 412.79 324.33 412.69M321.87 359.78C322.06 359.85 322.25 359.93 322.44 360C322.71 359.54 323.17 359.1 323.21 358.63C323.49 355.24 323.7 351.84 323.86 348.44C323.88 347.97 323.46 347.49 323.25 347.01C323.03 347.47 322.65 347.92 322.62 348.4C322.46 350.9 322.41 353.41 322.27 355.91C322.2 357.2 322.01 358.49 321.88 359.78M220.19 431.99C220.2 431.83 220.21 431.66 220.22 431.5C219.79 431.27 219.39 430.99 218.94 430.83C215.05 429.41 211.15 428.01 207.24 426.64C206.92 426.53 206.5 426.72 206.13 426.77C206.35 427.14 206.48 427.72 206.79 427.83C210.92 429.37 215.07 430.85 219.24 432.3C219.49 432.39 219.87 432.1 220.19 431.99ZM282.71 463.42C282.97 463.79 283.22 464.15 283.48 464.51C288.44 463.48 293.33 462.19 298.05 460.35C297.98 460.07 297.9 459.78 297.83 459.5C293.1 460.22 288.67 462.31 283.95 463.1C283.53 463.17 283.12 463.31 282.71 463.43M328.13 393.41C328.27 393.43 328.42 393.44 328.56 393.46C328.72 392.93 328.99 392.4 329.02 391.86C329.26 386.89 329.47 381.92 329.64 376.94C329.65 376.61 329.29 376.28 329.1 375.94C328.86 376.2 328.41 376.46 328.4 376.74C328.15 382.03 327.94 387.33 327.76 392.62C327.76 392.88 328 393.14 328.13 393.4M317.59 406.86C317.38 406.58 317.16 406.28 316.93 405.99C316.66 406.25 316.27 406.46 316.15 406.78C314.31 411.32 311.2 414.83 307.43 417.86C306.88 418.31 305.45 418.12 305.98 419.42C306.02 419.52 307.63 419.28 308.24 418.83C311.8 416.24 314.53 412.89 316.69 409.08C317.05 408.44 317.25 407.71 317.59 406.86ZM203.58 255.79L203.82 256.43C204.39 256.32 205 256.32 205.51 256.08C208.73 254.55 211.96 253.04 215.12 251.39C217.52 250.14 219.85 248.71 222.16 247.29C222.51 247.07 222.64 246.48 222.87 246.06C222.4 246.08 221.85 245.94 221.48 246.14C215.91 249.06 210.37 252.02 204.82 254.98C204.39 255.21 204 255.51 203.59 255.77M264.64 450.47C260.54 450.69 256.63 450.85 252.73 451.13C251.14 451.25 249.56 451.58 248 451.91C247.69 451.98 247.47 452.45 247.2 452.74C247.55 452.86 247.92 453.12 248.26 453.08C250.81 452.82 253.34 452.32 255.89 452.23C260.45 452.08 265.01 452.17 269.57 452.13C270.07 452.13 270.57 451.96 271.07 451.86C270.63 451.51 270.23 450.9 269.75 450.84C268 450.61 266.23 450.56 264.65 450.45M237.52 457.28C237.55 457.1 237.58 456.91 237.61 456.73C237.1 456.47 236.61 456.12 236.07 455.96C228.21 453.62 220.66 450.62 213.84 445.96C213.44 445.69 212.86 445.67 212.37 445.53C212.63 446.02 212.76 446.75 213.16 446.98C217.2 449.26 221.18 451.68 225.38 453.6C228.85 455.19 232.6 456.16 236.24 457.37C236.62 457.49 237.09 457.32 237.52 457.29M272.19 311.22C272.19 311.22 272.19 311.19 272.19 311.17C271.66 311.2 271.11 311.19 270.59 311.27C269.58 311.41 269.35 312 270.1 312.66C271.2 313.63 271.31 314.84 271.32 316.15C271.33 321.3 271.36 326.45 271.37 331.61C271.37 332.08 271.27 332.56 271.2 333.03C271.1 333.73 270.98 334.43 270.87 335.13C271.65 335.2 272.44 335.38 273.19 335.3C274.3 335.17 275.13 334.77 274.12 333.44C273.82 333.04 273.65 332.46 273.63 331.95C273.51 329.23 273.38 326.52 273.4 323.8C273.43 319.97 272.9 316.09 274.46 312.39C274.57 312.14 274.13 311.43 273.79 311.28C273.34 311.08 272.74 311.23 272.2 311.23M248.34 330.68C245.35 333.16 242.1 331.82 239.07 332.12C238.96 332.13 238.85 332.1 238.75 332.12C237.56 332.29 237.16 331.81 237.2 330.6C237.35 325.67 237.33 320.73 237.57 315.81C237.63 314.52 238.3 313.22 238.85 312.01C239.23 311.18 239.32 310.65 238.27 310.58C237.15 310.51 236.02 310.53 234.89 310.6C234.58 310.62 234.14 310.88 234.04 311.14C233.96 311.34 234.34 311.7 234.48 312.01C234.84 312.79 235.48 313.57 235.48 314.35C235.48 319.12 235.36 323.89 235.19 328.66C235.13 330.46 234.84 332.25 234.57 334.03C234.41 335.11 234.97 335.17 235.77 335.16C239.14 335.12 242.52 335.09 245.89 335.07C248.81 335.06 248.81 335.07 248.48 332.26C248.43 331.84 248.4 331.43 248.32 330.69M321.25 269.03C321.04 269.03 320.84 269.05 320.63 269.06C320.52 269.39 320.34 269.71 320.32 270.04C320.2 272.13 319.97 274.22 320.05 276.3C320.27 281.65 320.66 286.99 320.93 292.33C321.28 299.5 321.66 306.67 321.89 313.84C322.11 320.65 322.13 327.46 322.28 334.27C322.3 335.17 322.44 336.09 322.71 336.94C322.83 337.33 323.38 337.58 323.74 337.89C323.82 337.48 324 337.06 323.97 336.66C323.89 335.6 323.63 334.54 323.6 333.48C323.35 322.97 323.14 312.47 322.91 301.96C322.91 301.53 322.86 301.1 322.84 300.68C322.44 294.81 321.94 288.95 321.68 283.07C321.5 278.96 321.65 274.83 321.61 270.71C321.61 270.15 321.38 269.59 321.26 269.03M283.27 313.44C283.27 318.81 283.05 323.64 283.36 328.43C283.53 331.08 283.18 333.11 280.78 334.49C280.73 334.52 280.75 334.69 280.7 335.06C281.19 335.17 281.71 335.36 282.22 335.37C283.88 335.41 285.55 335.42 287.21 335.37C287.72 335.35 288.23 335.05 288.73 334.87C288.43 334.42 288.22 333.85 287.82 333.53C286.47 332.46 285.41 331.25 285.37 329.44C285.3 326.17 285.29 322.9 285.2 319.63C285.15 317.77 284.98 315.92 284.86 314.13C286.26 314.13 287.5 314.01 288.69 314.17C289.41 314.26 290.07 314.77 290.75 315.13C291.14 315.34 291.49 315.61 291.86 315.85C292.01 315.43 292.21 315.02 292.31 314.59C292.41 314.12 292.57 313.57 292.42 313.17C292.23 312.67 291.76 311.9 291.39 311.89C287 311.7 282.61 311.58 278.22 311.57C277.78 311.57 277.08 312.32 276.96 312.84C276.82 313.42 277.19 314.12 277.28 314.52C279.16 314.18 280.92 313.86 283.28 313.43M256.21 321.77C258.1 322.01 259.79 322.2 261.46 322.46C261.74 322.5 262.16 322.91 262.17 323.15C262.29 326.72 264.1 330.25 262.37 333.87C262.21 334.21 262.63 335.23 262.9 335.28C263.83 335.45 264.84 335.45 265.78 335.3C266.88 335.12 266.97 334.47 266.27 333.57C265.91 333.1 265.68 332.46 265.57 331.86C264.81 327.49 264.06 323.12 263.39 318.73C263 316.18 261.75 313.71 262.6 311C262.67 310.77 261.94 309.98 261.56 309.96C259.53 309.86 257.49 309.84 255.46 309.96C254.64 310.01 253.91 310.41 254.57 311.59C254.97 312.29 255.21 313.22 255.15 314.01C254.92 316.84 254.66 319.67 254.17 322.46C253.51 326.19 252.58 329.88 251.85 333.6C251.77 334.03 252.26 334.99 252.45 334.98C253.59 334.92 254.73 334.65 255.86 334.45C255.76 334.16 255.64 333.88 255.56 333.58C255.34 332.77 254.91 331.93 254.99 331.14C255.3 328.08 255.77 325.03 256.22 321.76M311.03 421.62C310.96 421.42 310.88 421.23 310.81 421.03C310 421.24 309.15 421.34 308.4 421.68C305.05 423.21 301.7 424.74 298.4 426.38C291.67 429.73 284.47 431.11 277.06 431.37C266.51 431.75 256.01 431.44 245.54 429.58C235.44 427.79 225.64 425.26 216.42 420.77C212.17 418.7 207.64 417.03 204.19 413.57C203.98 413.36 203.48 413.44 202.79 413.33C203.65 415.35 205.05 416.36 206.53 417.13C211.31 419.61 216.04 422.2 220.99 424.31C228.7 427.59 236.8 429.58 245.1 430.89C252.08 431.99 259.05 432.97 266.12 433.02C270.3 433.05 274.5 433.02 278.66 432.66C282.58 432.32 286.66 432.08 290.3 430.78C297.16 428.34 303.75 425.17 310.45 422.28C310.7 422.17 310.85 421.84 311.05 421.61M304.68 412.95C305.58 412.7 306.35 412.72 306.7 412.34C307.57 411.41 308.33 410.35 308.97 409.25C310.46 406.7 310.26 405.44 308.15 403.3C305.9 401.02 303.1 399.64 300.06 398.92C294.73 397.65 289.37 396.4 283.96 395.58C277 394.52 269.99 393.53 262.97 393.17C256.85 392.86 250.67 393.37 244.53 393.71C239.5 393.99 234.54 394.99 229.92 397C225 399.14 220.37 401.76 217.62 406.78C215.3 411 216.88 414.85 219.82 417.62C220.69 418.44 222.04 418.78 223.22 419.24C223.48 419.34 223.91 419.01 224.26 418.88C224 418.62 223.78 418.3 223.48 418.09C222.2 417.19 220.55 416.59 219.66 415.4C216.86 411.69 217.43 407.38 221.06 404.27C224.44 401.38 228.09 398.91 232.44 397.55C237.98 395.82 243.65 395.07 249.42 394.61C256.99 394.01 264.52 394.46 272.03 395.23C276.11 395.65 280.2 396.19 284.22 396.98C289.9 398.1 295.56 399.4 301.17 400.83C303.83 401.51 306.17 402.95 307.89 405.23C308.55 406.1 308.68 406.98 308.08 407.9C307.09 409.4 306.07 410.88 304.67 412.94M328.73 368.18L329.56 368.28C329.82 367.13 330.27 365.99 330.31 364.83C330.58 357.11 330.8 349.38 330.98 341.66C331.1 336.78 331.25 331.89 331.17 327C330.95 313.27 330.64 299.54 330.3 285.81C330.22 282.66 329.94 279.51 329.63 276.36C329.06 270.62 328.44 264.89 327.77 259.16C327.05 253.01 326.55 246.82 325.4 240.75C322.67 226.34 318.91 212.18 313.49 198.53C308.66 186.38 304.49 174.04 301.46 161.32C300.59 157.68 299.78 154.03 300.07 150.24C300.11 149.76 299.86 149.26 299.74 148.76C299.43 149.19 298.86 149.62 298.86 150.05C298.88 152.4 298.75 154.8 299.21 157.08C301.72 169.59 305.23 181.84 310.08 193.65C315.39 206.56 319.27 219.9 322.49 233.45C324.57 242.19 325.6 251.1 326.46 260.03C327.16 267.26 328.05 274.48 328.61 281.73C329.13 288.51 329.43 295.32 329.61 302.12C329.79 308.93 329.78 315.75 329.7 322.57C329.53 335.72 329.25 348.87 329 362.02C328.98 363.3 328.8 364.57 328.73 365.85C328.69 366.63 328.73 367.41 328.73 368.19M252.62 97.9403C252.88 94.6203 252.9 91.1803 255.9 88.4303C258.13 86.3803 260.02 83.9103 261.83 81.4603C262.61 80.4003 263.12 78.9503 263.23 77.6403C263.5 74.4403 260.92 72.4503 257.88 73.5103C253.48 75.0503 251.23 78.5403 250.14 82.8403C249.21 86.5003 248.41 90.1903 247.66 93.8903C247.34 95.4503 247.27 97.0703 247.16 98.6603C247.13 99.1103 247.36 99.5903 247.48 100.05C247.63 100.06 247.79 100.08 247.94 100.09C248.12 99.6503 248.36 99.2303 248.46 98.7703C249.23 95.0303 249.6 91.1403 250.86 87.5703C251.87 84.7103 253.8 82.0803 256.65 80.5103C257.96 79.7903 259.31 79.6603 260.54 81.4503C259.59 82.1403 258.64 82.8203 257.7 83.5203C257.11 83.9703 256.43 84.3603 255.99 84.9303C253.16 88.6703 251.09 92.7603 251.4 97.5803C251.49 99.0403 252.18 100.53 252.89 101.85C253.55 103.08 255.03 103.35 256.16 102.85C257.36 102.32 258.33 101.24 259.37 100.37C259.46 100.29 259.41 99.9403 259.33 99.7603C257.9 96.6403 259.4 94.1103 260.97 91.4003C261.57 92.4603 262.12 93.3503 262.59 94.2903C264.17 97.4903 263.21 101.52 260.25 104.18C257.76 106.42 254.26 106.85 251.51 105.12C250.73 104.63 250.19 103.77 249.54 103.08C249.21 102.72 248.88 102.37 248.54 102.01C248.19 102.42 247.68 102.78 247.51 103.26C245.59 108.85 244.02 114.59 241.76 120.03C238.86 127.02 235.39 133.76 232.23 140.63C227.8 150.26 221.98 159.09 216.72 168.25C207.18 184.87 198.28 201.86 191.33 219.77C188.65 226.67 186.26 233.7 185.17 241.07C184.68 244.34 184.82 247.62 185.92 250.77C187.13 254.24 189.87 255.91 193.47 255.22C195.78 254.78 198.04 254.05 200.27 253.3C200.76 253.14 201.3 252.37 201.37 251.83C203.03 238.9 204.31 225.92 206.32 213.05C208.36 199.95 211.72 187.11 215.91 174.52C216.91 171.53 218.81 168.82 220.37 166.03C223.94 159.64 227.57 153.29 231.12 146.9C231.67 145.91 232.27 145.14 233.42 144.95C236.88 144.37 240.33 143.71 243.81 143.26C251.54 142.24 259.32 142.16 267.1 142.33C270.63 142.41 274.15 142.72 278.02 142.95C275.87 151.83 274 160.58 271.6 169.18C268.99 178.51 265.81 187.69 263.01 196.97C262.14 199.87 260.44 200.86 257.49 201.35C246.24 203.22 235.38 206.5 225.11 211.58C220.89 213.67 217.52 216.77 214.63 220.42C214.28 220.87 214.1 221.45 213.84 221.97C213.95 222.07 214.06 222.16 214.17 222.26C214.48 222.14 214.92 222.12 215.08 221.9C220.05 214.98 227.35 211.65 235.01 208.83C243.09 205.85 251.39 203.76 259.86 202.27C260.01 202.24 260.17 202.32 260.66 202.42C258.61 205.81 256.71 209.15 254.62 212.36C248.69 221.46 241.77 229.78 234.43 237.76C234.12 238.1 234.1 238.7 233.94 239.18C234.44 239 235.11 238.97 235.42 238.62C239.66 233.78 243.99 229.01 248.01 223.99C253.3 217.39 258.07 210.41 261.85 202.81C262.54 201.42 263.89 201.72 264.92 201.66C274.11 201.12 283.23 201.73 292.11 204.28C296.76 205.61 301.28 207.35 305.87 208.89C306.23 209.01 306.65 208.96 307.04 208.98C307.13 208.81 307.21 208.65 307.3 208.48C306.63 207.99 306.03 207.32 305.29 207.05C302.03 205.87 298.76 204.73 295.45 203.73C286.85 201.14 278.04 199.88 269.05 199.99C268.09 200 267.13 200.2 266.17 200.25C265.26 200.3 264.35 200.25 263.3 200.25C270.43 181.66 275.24 162.5 279.23 143.01C288.52 144.03 297.68 145.27 306.58 148.03C307.46 148.3 307.92 148.69 308.08 149.62C311.31 169.19 316.2 188.34 322.4 207.18C326.52 219.7 329.12 232.57 331.01 245.6C331.92 251.92 332.93 258.22 333.66 264.56C334.23 269.41 334.66 274.29 334.78 279.17C335.31 301.13 335.86 323.09 336.07 345.06C336.16 355.04 335.31 365.02 335.17 375.01C334.98 389.13 335.17 403.26 334.95 417.39C334.86 423.49 334.51 429.63 333.69 435.68C332.41 445.22 326.55 451.75 318.6 456.59C308.73 462.59 298.1 466.57 286.69 468.51C277.77 470.03 268.82 471.08 259.78 470.4C242.2 469.08 225.19 465.57 209.76 456.47C202.61 452.25 198.71 445.71 196.97 437.8C196.59 436.1 196.81 434.27 196.75 432.5C196.48 423.75 195.92 415.01 195.99 406.26C196.14 386.17 196.56 366.09 196.95 346.01C197.21 332.64 197.4 319.26 197.97 305.9C198.6 291.15 199.64 276.42 200.51 261.68C200.57 260.73 200.7 259.78 200.81 258.64C199.29 259.05 197.97 259.44 196.64 259.77C187.47 262.02 181.12 257.4 180.12 247.98C179.48 242 180.68 236.32 182.35 230.69C187.16 214.45 194.54 199.32 202.2 184.28C207.84 173.22 214.6 162.88 221.26 152.44C229.09 140.16 234.52 126.75 239.37 113.1C241.24 107.84 242.72 102.45 244.42 97.1303C244.7 96.2403 244.32 95.9503 243.63 96.0503C239.03 96.7503 234.43 97.5003 230.76 100.76C228.12 103.1 227.59 106.32 226.67 109.8C226.14 109.03 225.37 108.34 225.13 107.49C224.76 106.23 224.49 104.81 224.69 103.54C224.94 102.02 224.73 100.75 224.14 99.3703C223.85 98.6703 224.12 97.7303 224.14 96.9003C224.97 97.2103 225.81 97.5003 226.63 97.8403C226.81 97.9103 226.91 98.1503 227.09 98.3503C230.47 95.9703 234.05 93.9903 238.13 93.1403C239.74 92.8003 241.4 92.7203 243.05 92.6103C244.18 92.5303 244.89 92.3003 245.08 90.9303C245.43 88.4103 246.03 85.9203 246.54 83.4203C247.26 79.9403 248.97 76.9303 251.07 74.1403C253.78 70.5503 260.1 68.8303 263.78 70.2603C267.71 71.7903 268.46 75.9103 267.53 78.6003C266.72 80.9203 265.44 83.1603 263.99 85.1603C261.64 88.4103 259.05 91.4803 256.43 94.5203C255.33 95.7903 253.91 96.7903 252.64 97.9003" fill="white"/>
<path d="M295.7 66.0002C295.77 65.7902 295.85 65.5802 295.93 65.3702C295.58 65.1302 295.25 64.7302 294.87 64.6702C290.53 63.8902 286.18 63.1502 281.83 62.4402C281.61 62.4002 281.2 62.6702 281.11 62.8902C281.04 63.0602 281.29 63.4802 281.5 63.6002C281.86 63.8002 282.29 63.8902 282.71 63.9602C285.22 64.3902 287.74 64.8202 290.26 65.2102C292.07 65.5002 293.89 65.7402 295.71 66.0002M273.96 83.8602C274.49 84.3302 274.71 84.7102 274.97 84.7202C284.79 85.4002 294.47 86.7902 303.72 90.3602C303.92 90.4402 304.22 90.2902 305.02 90.1402C304.28 89.5202 303.92 89.0202 303.44 88.8502C301.08 88.0202 298.71 87.2002 296.31 86.5202C289.39 84.5902 282.25 84.0402 275.13 83.4202C274.84 83.3902 274.52 83.6402 273.96 83.8502M308.15 97.8302C306.11 97.5602 304.33 97.3002 302.54 97.1002C300.47 96.8702 298.4 96.5502 296.32 96.5402C287.73 96.4702 279.13 96.5102 270.54 96.5002C268.62 96.5002 266.7 96.5002 265 96.5002C264.23 94.8202 263.72 93.1602 262.79 91.7902C261.75 90.2502 262.21 89.3102 263.23 88.0302C265.06 85.7602 266.82 83.4002 268.29 80.8902C269.58 78.6902 269.46 76.1602 268.77 73.7202C267.94 70.7402 264.94 68.5202 261.86 68.4302C255.15 68.2202 250.44 71.1802 247.48 77.1902C245.49 81.2202 244.28 85.4102 243.86 89.8702C243.82 90.3402 243.23 91.1302 242.88 91.1402C237.65 91.3002 232.96 93.0602 228.83 95.6702C226.51 90.8502 224.14 86.0902 221.93 81.2602C221.2 79.6702 220.84 77.9002 220.35 76.2102C219.2 72.1902 220.55 68.8802 223.35 66.0102C228.63 60.6102 235.2 57.5402 242.37 55.6002C251.85 53.0402 261.55 53.0602 271.24 53.3902C283.62 53.8102 295.49 56.7702 307.04 61.0702C311.38 62.6902 315.41 64.7602 317.32 69.3802C317.67 70.2302 317.85 71.2402 317.77 72.1402C317.47 75.7502 316.61 79.2302 314.96 82.4802C312.42 87.4802 309.09 92.1202 308.14 97.8402" fill="white"/>
<path d="M296.84 115.4L296.76 114.64C296.13 114.64 295.47 114.52 294.87 114.66C293.01 115.08 291.16 115.56 289.33 116.1C288.81 116.25 288.38 116.7 287.91 117.01C288.53 117.1 289.19 117.36 289.77 117.25C291.64 116.87 293.48 116.36 295.33 115.88C295.84 115.75 296.34 115.56 296.85 115.4M266.29 119.46C266.22 119.33 266.15 119.21 266.08 119.08C260.8 118.54 255.51 117.99 250.23 117.48C249.93 117.45 249.59 117.84 249.28 118.03C249.58 118.27 249.86 118.69 250.18 118.73C254.94 119.2 259.71 119.64 264.48 120.01C265.07 120.06 265.69 119.66 266.3 119.46M305.99 106.31C303.86 119.91 305.85 133.29 307.48 146.39C298.16 144.66 288.91 142.95 279.62 141.22C280.31 137.31 281.09 133.13 281.78 128.94C282.71 123.32 283.59 117.69 284.44 112.06C284.49 111.75 284.14 111.38 283.97 111.03C283.72 111.3 283.31 111.53 283.25 111.83C282.48 115.92 281.73 120.01 281.02 124.11C280.18 129 279.41 133.89 278.59 138.78C278.43 139.71 278.2 140.63 278.02 141.49C262.89 140.62 247.95 140.46 232.8 143.38C239.45 130.89 244.52 117.85 248.48 104.29C252.77 108.61 257.49 108.52 261.94 104.58C263.02 103.63 264.99 103.38 266.57 103.35C273.31 103.23 280.09 102.97 286.81 103.41C292.8 103.8 298.74 105.02 304.7 105.9C305.16 105.97 305.6 106.18 305.99 106.31Z" fill="white"/>
<path d="M221.06 66.2203C221.93 63.4403 223.45 61.0703 225.36 58.9503C229.86 53.9303 235.66 51.1803 242.06 49.5003C250.01 47.4103 258.02 45.6603 266.27 45.4103C274.53 45.1603 282.7 46.1903 290.63 48.3603C297.23 50.1603 303.77 52.3503 310.08 54.9703C314.9 56.9703 316.81 61.5303 317.82 66.8103C312.87 60.5003 305.78 58.9603 299.03 56.9203C293.94 55.3803 288.72 54.2303 283.5 53.2303C279.95 52.5503 276.29 52.1603 272.67 52.0903C266.2 51.9703 259.73 51.4703 253.24 52.2703C245.72 53.2003 238.37 54.5703 231.64 58.2103C229.67 59.2703 227.77 60.4903 225.99 61.8403C224.26 63.1503 222.73 64.7203 221.06 66.2303" fill="white"/>
<path d="M224.89 142.36C225.15 140 225.44 137.63 225.66 135.27C226.3 128.49 226.81 121.69 227.56 114.93C227.91 111.77 228.57 108.64 229.33 105.55C229.95 103.04 231.66 101.16 234.03 100.19C236.71 99.0902 239.53 98.3102 242.57 97.6602C238.37 113.31 232.5 128.15 225.46 142.53C225.27 142.48 225.07 142.42 224.88 142.37" fill="white"/>
<path d="M263.69 102.19C264.04 101.02 264.33 99.8503 264.77 98.7403C264.89 98.4403 265.48 98.1503 265.86 98.1503C274.55 98.0803 283.24 97.9603 291.92 98.0503C296.34 98.1003 300.77 98.4303 305.19 98.8203C306.97 98.9803 308.72 99.5703 310.46 100.08C312.15 100.57 312.73 102.29 311.81 103.79C311.01 105.1 309.34 105.61 307.76 105.34C301.73 104.28 295.71 102.96 289.63 102.38C283.08 101.76 276.47 101.8 269.88 101.68C267.82 101.64 265.76 102.01 263.67 102.19" fill="white"/>
<path d="M251.63 82.8603C252.44 79.6103 254.19 77.1603 256.9 75.4003C258.49 74.3803 260.21 74.3303 261.07 75.1903C262.17 76.2903 262.23 77.7103 261.25 79.6703C259.57 78.3603 257.69 78.1803 255.95 79.2803C254.41 80.2603 253.11 81.6103 251.64 82.8503" fill="white"/>
<path d="M257.29 95.8101C257.46 97.2001 257.82 98.4701 257.69 99.6901C257.62 100.31 256.78 101.09 256.12 101.35C255.52 101.58 254.58 101.4 253.99 101.05C253.24 100.61 253.33 99.7701 253.93 99.1501C255 98.0401 256.12 96.9701 257.3 95.8101" fill="white"/>
<path d="M257.54 311.99C259.18 311.58 259.92 311.93 260.14 313.53C260.45 315.78 261.05 317.99 261.55 320.32C259.82 320.24 258.24 320.17 256.41 320.09C256.8 317.32 257.16 314.67 257.54 311.99Z" fill="white"/>
</g>
</svg>
