<svg width="516" height="516" viewBox="0 0 516 516" fill="none" xmlns="http://www.w3.org/2000/svg">
<mask id="mask0_2541_199" style="mask-type:luminance" maskUnits="userSpaceOnUse" x="24" y="77" width="468" height="361">
<path d="M491.6 77.9102H24.4099V438H491.6V77.9102Z" fill="white"/>
</mask>
<g mask="url(#mask0_2541_199)">
<path d="M44.0599 427.55C44.4599 427.35 44.8599 427.15 45.2599 426.95C45.6799 426.21 46.1399 425.48 46.4899 424.71C46.5399 424.61 45.8199 424.02 45.7799 424.05C45.0499 424.64 44.2499 425.21 43.7299 425.97C43.5199 426.28 43.9299 427.02 44.0599 427.56M480.12 191.91C480.23 191.72 480.33 191.53 480.44 191.35C480.12 190.56 479.88 189.72 479.42 189.02C479.28 188.81 478.53 189 478.06 189C478.25 189.74 478.32 190.57 478.69 191.2C478.92 191.58 479.63 191.68 480.13 191.9M264.93 134.95C265.19 134.77 265.62 134.47 266.06 134.17C265.63 133.85 265.25 133.41 264.77 133.24C264.02 132.97 263.21 132.78 262.41 132.74C261.95 132.71 261.48 133.04 261.01 133.22C261.35 133.63 261.61 134.24 262.04 134.4C262.84 134.7 263.74 134.75 264.92 134.96M52.8999 422.54C51.6799 421.33 50.9399 420.59 50.2099 419.86C49.6299 420.54 48.6899 421.16 48.5599 421.93C48.3499 423.17 49.2899 423.95 50.5599 423.83C51.1499 423.77 51.6899 423.24 52.9099 422.54M326.36 192.63C326.68 192.6 327 192.58 327.32 192.55C327.39 191.97 327.56 191.38 327.5 190.81C327.35 189.33 327.06 187.87 326.91 186.39C326.47 181.95 326.1 177.5 325.64 173.06C325.6 172.65 325.09 172.3 324.8 171.92C324.54 172.32 324.05 172.72 324.06 173.11C324.09 174.53 324.3 175.94 324.42 177.35C324.72 181 324.94 184.65 325.33 188.29C325.49 189.76 326 191.19 326.35 192.64M48.7899 409.22C49.0599 408.82 49.3299 408.42 49.5899 408.02C48.7699 407.53 47.8399 407.16 47.1599 406.53C43.4299 403.06 39.7799 399.51 36.0699 396.02C35.4099 395.41 34.5899 394.97 33.8499 394.45C34.1899 395.37 34.2799 396.54 34.9099 397.16C38.9799 401.15 43.1599 405.02 47.3499 408.89C47.6599 409.18 48.2999 409.12 48.7899 409.22ZM32.0199 413.3C32.2299 414.9 32.3199 416.53 32.6599 418.11C33.2199 420.73 35.8999 421.94 38.3299 420.83C39.2399 420.41 40.2599 420.22 41.1099 419.72C42.1499 419.11 43.0599 418.29 44.0299 417.55C43.0799 416.8 42.1399 416.02 41.1699 415.31C40.9799 415.17 40.6399 415.25 40.3699 415.24C38.7099 415.17 37.6299 414.51 37.2099 412.74C36.7599 410.86 35.1499 409.71 33.7099 410.02C31.7899 410.43 32.1599 411.94 32.0399 413.31M475.97 108.25C475.68 108.25 475.38 108.23 475.09 108.22C474.95 108.94 474.64 109.66 474.68 110.37C475.06 118.04 475.41 125.71 475.95 133.37C476.51 141.23 477.2 149.08 477.96 156.92C478.37 161.17 479.01 165.4 479.61 169.63C479.67 170.04 480.19 170.39 480.49 170.77C480.74 170.35 481.17 169.95 481.22 169.51C481.3 168.78 481.16 168.02 481.07 167.28C480.45 161.9 479.74 156.52 479.21 151.13C478.8 146.94 478.69 142.72 478.31 138.52C477.45 129.12 475.88 119.78 476.3 110.29C476.33 109.62 476.09 108.93 475.97 108.25ZM215.45 226.65C215.42 226.41 215.4 226.18 215.38 225.94C216.63 224.81 217.93 223.74 219.09 222.52C219.4 222.2 219.5 221.12 219.28 220.97C218.84 220.65 217.97 220.45 217.54 220.68C216.43 221.29 215.18 221.97 214.51 222.97C213.16 224.97 211.34 226.18 209.24 227.17C208.81 227.37 208.61 228.04 208.3 228.49C208.89 228.52 209.56 228.76 210.04 228.55C211.77 227.8 213.37 226.28 215.32 228.12C215.51 228.3 216 228.26 216.32 228.19C218.42 227.75 220.6 227.5 222.59 226.75C224.81 225.92 226.85 224.64 229.14 223.46C227.59 227.73 228.6 229.7 232.94 230.34C234.95 230.64 237.09 230.18 239.15 229.93C240.08 229.82 240.96 229.39 241.87 229.1C241.86 228.85 241.84 228.59 241.83 228.34C241.28 228.23 240.72 228.01 240.18 228.05C237.88 228.19 235.59 228.57 233.3 228.55C230.31 228.52 229.35 226.66 231.07 224.27C232.26 222.63 233.71 221.17 235.11 219.68C235.83 218.92 236.67 218.28 237.48 217.57C236.04 215.92 235.25 217.29 234.36 217.79C229.58 220.47 224.86 223.28 220.01 225.81C218.7 226.49 216.99 226.39 215.46 226.64M258.73 193.41C263.75 193.41 268.82 192.25 273.72 190.35C274.37 190.1 274.78 189.23 275.3 188.64C274.6 188.64 273.83 188.43 273.21 188.66C265.33 191.57 257.41 192.77 249.17 190.09C239.42 186.92 231.7 181.38 227.29 171.9C225.64 168.36 224.39 164.63 222.91 161C222.74 160.58 222.28 160.27 221.96 159.91C221.73 160.35 221.36 160.78 221.32 161.24C221.28 161.75 221.5 162.3 221.68 162.8C222.5 165.02 223.32 167.24 224.18 169.44C230.26 184.93 243.74 192.68 258.72 193.4M366.33 230.25C367.83 229.34 369.05 228.72 370.1 227.91C370.48 227.62 370.74 226.74 370.57 226.32C370.41 225.91 369.49 225.39 369.15 225.53C367.51 226.18 365.93 227.02 364.36 227.83C364.1 227.96 363.99 228.41 363.72 228.53C362.17 229.21 358.04 228.1 357 226.67C356.06 225.38 354.97 224.96 353.48 225.64C352.34 226.16 351.17 226.6 349.99 227.08C349.35 223.5 347.43 223.2 341.93 225.72C340.98 223.71 339.35 223.82 337.69 224.62C335.92 225.48 334.29 226.62 332.5 227.42C331.3 227.96 329.92 228.11 328.29 228.51C328.69 226.78 329.48 225.28 329.05 224.72C328.49 223.99 326.97 223.9 325.83 223.72C322.68 223.21 319.91 224.21 317.55 226.24C317.04 226.67 316.62 227.84 316.85 228.34C317.16 229 318.13 229.67 318.86 229.74C319.8 229.83 320.85 229.45 321.75 229.04C323.42 228.26 325.02 227.31 326.71 226.4C326.23 229.19 328.13 230.94 330.84 230.01C332.93 229.29 334.82 228.04 336.83 227.06C337.66 226.66 338.53 226.36 339.38 226.02C339.3 227.08 339.25 227.74 339.2 228.4C339.9 228.33 340.67 228.41 341.3 228.16C342.93 227.51 344.47 226.66 346.1 226.02C346.58 225.83 347.22 226.06 347.79 226.09C347.73 226.63 347.64 227.18 347.61 227.72C347.57 228.28 347.39 229.21 347.61 229.34C348.1 229.6 348.83 229.55 349.42 229.42C350 229.3 350.53 228.92 351.08 228.66C353.02 227.73 354.66 226.35 356.84 228.88C357.86 230.06 360.46 230 362.38 230.23C363.63 230.37 364.5 230.68 365.51 231.56C367.16 233 369.23 233.98 371.19 235.02C371.68 235.28 372.43 235.06 373.05 235.06C373.13 234.86 373.21 234.66 373.29 234.47C371.02 233.09 368.75 231.72 366.32 230.24M432.69 228.9C433.47 227.97 434.23 227.32 434.63 226.49C434.9 225.93 434.87 224.96 434.54 224.48C434.31 224.14 433.12 224.01 432.74 224.29C431.76 225.04 430.99 226.07 430.13 226.99C429.5 227.66 429.01 228.64 428.24 228.96C423.03 231.11 417.58 231.62 412.08 230.51C410.58 230.21 409.06 229.27 407.91 228.22C406.81 227.21 405.94 226.91 404.52 227.35C400.77 228.49 397 229.59 393.18 230.43C392.11 230.66 390.65 230.18 389.71 229.53C389.21 229.18 389.04 228.07 388.25 228.79C387.92 229.09 388.1 230.69 388.41 230.82C389.91 231.44 391.63 232.31 393.11 232.09C396.63 231.55 400.09 230.53 403.51 229.53C405.06 229.08 406.24 228.85 407.46 230.28C408.11 231.04 409.23 231.55 410.24 231.84C414.97 233.22 419.75 232.97 424.54 232.03C427.85 231.38 430.77 229.58 434.62 231.31C438.67 233.13 443.15 231.49 446.92 230.4C448.67 231.36 450.04 232.55 451.6 232.89C455.82 233.83 460.11 234.55 464.4 235.09C466.24 235.32 468.18 234.97 470.05 234.75C470.39 234.71 470.66 234.06 470.96 233.69C470.51 233.5 470.06 233.15 469.61 233.15C468.74 233.15 467.85 233.54 467 233.43C462.11 232.78 457.21 232.13 452.35 231.26C450.83 230.99 449.05 230.48 449.19 227.95C443.65 229.17 438.35 231.6 432.69 228.89M455.91 175.31C454.94 175.49 454.28 175.69 453.61 175.73C443.01 176.29 432.42 176.89 421.81 177.37C411.54 177.84 401.26 178.18 390.99 178.61C378.34 179.15 365.7 179.66 353.06 180.32C349.69 180.49 346.33 181.11 342.99 181.64C342.5 181.72 342.11 182.41 341.67 182.82C342.19 182.95 342.72 183.25 343.22 183.19C346.45 182.82 349.66 182.21 352.9 181.99C360.64 181.48 368.39 181.09 376.14 180.74C386.34 180.28 396.54 179.9 406.75 179.5C413.76 179.22 420.77 178.99 427.77 178.68C436.61 178.29 445.44 177.85 454.27 177.41C454.8 177.38 455.39 177.32 455.84 177.08C456.3 176.84 456.62 176.35 457.01 175.97C456.58 175.71 456.15 175.45 455.91 175.31ZM271.13 136.48C270.96 136.69 270.79 136.89 270.63 137.1C271.11 137.52 271.58 137.94 272.06 138.36C273.75 139.87 275.86 141.1 277.07 142.93C282.76 151.59 280.97 162.91 272.75 170.87C268.34 175.14 263.08 177.21 256.96 176.04C250.66 174.84 245.21 171.81 240.97 166.95C237.87 163.39 236.43 158.99 237.48 154.43C239.7 144.8 244.82 137.31 254.67 133.92C254.93 133.83 255.11 133.48 255.33 133.24C254.09 132.21 254.04 132.14 251.85 133.16C243.38 137.09 238.39 143.88 236.05 152.74C235.61 154.41 235.41 156.24 235.52 157.96C235.93 164.25 239.22 168.89 244.3 172.38C250.46 176.6 257.01 179.47 264.67 177.48C272.63 175.42 277.51 169.8 280.46 162.52C283.65 154.64 282.56 147.08 277.46 140.22C275.9 138.12 273.86 136.6 271.12 136.48M325.7 196.04C325.72 196.33 325.73 196.62 325.75 196.91C326.78 197.01 327.8 197.22 328.83 197.2C346 196.91 363.17 196.41 380.34 196.34C401.12 196.26 421.87 196.12 442.59 194.28C450.04 193.62 457.53 193.42 464.99 192.95C467.43 192.8 469.86 192.48 472.28 192.15C472.68 192.09 473.02 191.57 473.39 191.26C472.97 191.01 472.55 190.55 472.13 190.56C470.98 190.57 469.84 190.82 468.69 190.9C460.62 191.46 452.55 192.02 444.48 192.53C435.39 193.11 426.3 193.87 417.19 194.13C397.23 194.7 377.27 195.05 357.3 195.39C347.28 195.56 337.26 195.49 327.24 195.56C326.72 195.56 326.2 195.88 325.68 196.05M184.79 283.75C185.29 286.43 186.85 288.39 189.65 288.69C191.98 288.94 194.45 288.9 196.74 288.44C201.57 287.46 206.33 286.1 211.12 284.94C211.74 284.79 212.73 284.62 213.03 284.94C215.27 287.34 217.73 286.26 220.23 285.68C221.59 285.36 223.01 285.19 224.41 285.17C227.39 285.12 230.38 285.44 233.33 285.2C238.16 284.8 242.89 284.17 247.38 286.89C250.02 288.48 253.07 289.25 256.18 288.76C259.23 288.28 262.27 287.59 265.25 286.77C266.84 286.33 268.15 285.78 269.63 287.18C270.26 287.78 271.58 288.06 272.49 287.91C276.61 287.21 280.71 286.41 284.76 285.41C286.5 284.98 287.81 285.18 289.33 286.12C291.15 287.24 293.16 288.45 295.2 288.69C300.18 289.28 305.22 289.29 310.23 289.62C311.35 289.69 312.44 290.1 313.54 290.35C315.96 290.91 318.36 291.87 320.79 291.97C327.22 292.25 333.46 290.85 339.56 288.92C341.68 288.25 343.77 287.46 345.81 286.57C346.22 286.39 346.34 285.53 346.59 284.98C346.11 284.98 345.57 284.81 345.17 284.98C338 288.05 330.5 289.8 322.74 290.27C320.43 290.41 317.88 290.15 315.78 289.26C313.36 288.24 311.03 287.8 308.49 287.89C306.51 287.96 304.53 287.97 302.56 287.89C297.84 287.69 293.27 287.07 289.3 284.07C288.43 283.41 286.86 283.22 285.74 283.43C282.76 284.01 279.88 285.06 276.9 285.68C274.44 286.19 271.76 287.21 269.61 284.91C268.59 283.82 267.77 283.79 266.42 284.39C259.78 287.32 253.11 288.49 246.37 284.48C243.17 282.57 239.59 282.84 236.04 283.18C233.07 283.46 230.01 284.11 227.12 283.67C223.78 283.16 220.75 283.38 217.63 284.5C216.87 284.78 215.5 284.65 215 284.13C213.54 282.64 211.98 282.85 210.3 283.28C208.27 283.8 206.25 284.37 204.21 284.89C199.88 286 195.61 287.39 191.04 287.12C187.81 286.93 186.18 284.81 187.06 281.87C187.19 281.43 187.02 280.91 186.98 280.42C186.51 280.55 185.99 280.59 185.58 280.81C178.23 284.76 170.75 288.42 162.58 290.34C160.4 290.85 158.09 290.8 155.84 291C155.77 291.22 155.7 291.44 155.63 291.67C156.3 291.93 157.01 292.47 157.64 292.4C160.78 292.01 164.05 291.9 166.99 290.87C172.99 288.78 178.81 286.17 184.8 283.74M278.66 218.67C278.74 218.8 278.82 218.93 278.9 219.06C278.67 219.31 278.42 219.54 278.21 219.81C276.28 222.25 274.07 224.54 272.5 227.19C270.93 229.85 272.37 231.88 275.45 231.89C276.73 231.89 278.08 231.95 279.29 231.58C282.75 230.53 286.16 229.28 289.69 228.07C292.13 230.61 294.11 227.91 296.31 227.03C296.74 229.78 297.71 230.61 300.56 230.32C302.69 230.11 304.91 229.95 306.87 229.2C309.11 228.35 311.34 227.13 313.14 225.58C314.59 224.34 315.5 222.41 316.46 220.68C317.51 218.77 319.03 218.85 320.93 218.87C324.37 218.91 327.82 218.53 331.25 218.19C331.73 218.14 332.14 217.3 332.58 216.82C331.99 216.72 331.39 216.49 330.8 216.53C327.12 216.78 323.44 217.08 319.81 217.37C319.94 216.17 320.11 215.42 320.05 214.69C320.04 214.52 319.03 214.17 318.85 214.33C317.93 215.13 316.68 215.95 316.39 216.99C315.77 219.24 312.6 222.62 310.47 223.38C308.55 224.07 306.48 225.06 305.18 226.53C303.93 227.94 302.55 228.32 301 228.53C300.15 228.64 299.23 228.22 298.34 228.04C298.65 227.25 298.93 226.46 299.27 225.68C299.46 225.25 299.93 224.88 299.96 224.46C300 223.96 299.85 223.16 299.52 222.97C297.58 221.87 295.68 221.81 293.67 223.12C291.3 224.66 288.83 226.12 286.24 227.26C283.53 228.45 280.68 229.37 277.8 230.08C276.61 230.37 275.2 229.81 273.9 229.64C274.33 228.43 274.44 226.91 275.26 226.07C279.32 221.88 283.59 217.89 287.74 213.79C288.28 213.26 288.54 212.45 288.94 211.78C288.16 211.91 287.28 211.83 286.63 212.19C280.76 215.46 274.92 218.79 269.1 222.15C266.08 223.89 263.1 225.71 260.1 227.5C260.01 227.36 259.91 227.22 259.82 227.08C261.24 225.87 262.66 224.66 264.09 223.45C269.07 219.23 274.07 215.03 279.01 210.75C279.45 210.37 279.48 209.5 279.69 208.86C279.05 208.83 278.42 208.74 277.78 208.78C277.46 208.8 277.15 209.01 276.85 209.16C267.24 213.54 257.62 217.91 248.02 222.32C247.6 222.51 247.38 223.14 247.07 223.57C247.57 223.65 248.17 223.95 248.57 223.78C252.55 222.07 256.49 220.29 260.44 218.51C264.98 216.46 269.5 214.39 274.03 212.33C272.17 214.29 270.17 216.01 268.16 217.72C264.02 221.26 259.85 224.76 255.78 228.37C255.27 228.82 255.29 229.87 255.06 230.64C255.81 230.67 256.69 230.96 257.29 230.68C259.98 229.41 262.63 228.04 265.22 226.57C269.73 224 274.18 221.31 278.65 218.68M261.58 403.2C262.14 401.79 262.56 401.06 262.7 400.28C262.85 399.47 263.01 398.43 262.63 397.85C262.36 397.44 261.15 397.44 260.42 397.59C256.18 398.45 251.98 399.6 247.71 400.27C245.07 400.68 242.3 400.62 239.62 400.4C237.4 400.22 236.99 398.79 238.61 397.26C239.77 396.16 241.17 395.29 242.53 394.43C243.55 393.78 244.72 393.36 245.73 392.68C246.12 392.42 246.24 391.73 246.48 391.24C245.94 391.06 245.34 390.65 244.87 390.76C244.04 390.96 243.27 391.46 242.5 391.88C240.89 392.75 239.38 393.86 237.69 394.51C232.39 396.58 227.11 398.74 221.67 400.36C217.81 401.51 213.72 401.92 209.71 402.47C208.93 402.58 207.62 402.03 207.3 401.4C207.01 400.83 207.47 399.45 208.05 398.93C210.45 396.77 212.86 394.53 215.58 392.82C219.24 390.51 223.22 388.73 226.97 386.56C227.72 386.13 228.02 384.93 228.53 384.08C227.54 384.08 226.43 383.77 225.59 384.12C223.59 384.95 221.67 385.99 219.82 387.12C215.61 389.7 211.77 392.83 207.06 394.65C194.38 399.57 181.95 405.18 168.31 407.1C167.94 407.15 167.64 407.59 167.3 407.85C167.62 408.14 167.92 408.64 168.27 408.67C169.14 408.75 170.07 408.77 170.9 408.54C177.66 406.65 184.46 404.86 191.14 402.7C196.58 400.94 201.86 398.7 207.42 396.6C207.13 397.04 206.98 397.33 206.78 397.59C205.67 399.03 204.66 400.58 205.64 402.42C206.56 404.16 208.34 404.22 210.08 404.27C215.34 404.41 220.25 402.78 225.15 401.22C228.77 400.06 232.31 398.67 235.99 397.34C235.51 400.25 236.48 401.61 239.15 402.2C243.89 403.24 248.45 402.07 253.02 401.1C255.64 400.54 258.23 399.9 261.16 399.21C260.76 400.24 260.42 400.9 260.25 401.6C259.86 403.12 260.29 404.41 261.85 404.88C262.99 405.23 264.3 405.47 265.45 405.26C270.84 404.31 276.23 403.28 281.57 402.07C283.34 401.67 284.28 401.62 284.38 403.77C284.41 404.37 285.08 405.26 285.65 405.44C287.21 405.96 288.94 406.65 290.48 406.42C293.58 405.96 296.59 404.93 299.67 404.13C300.22 406.32 302.07 407.14 304.1 407.06C309.18 406.86 314.24 406.29 319.32 406.04C323.03 405.86 326.89 405.28 330.43 406.06C336.4 407.38 342.31 408.92 348.44 408.95C352.17 408.97 355.9 408.56 359.63 408.27C359.97 408.24 360.26 407.71 360.58 407.41C360.19 407.16 359.81 406.72 359.4 406.69C358.39 406.61 357.35 406.65 356.34 406.76C349.04 407.54 341.78 407.37 334.75 405.16C329.07 403.37 323.47 403.54 317.68 404.47C313.54 405.14 309.3 405.27 305.1 405.36C303.93 405.39 302.16 404.72 301.68 403.82C300.42 401.48 300.66 401.39 298.12 402.44C295.11 403.68 292.09 404.94 288.71 404.64C287.12 404.5 286.03 404.03 285.93 402.12C285.83 400.24 284.8 399.6 282.82 400.02C277.99 401.05 273.2 402.28 268.34 403.16C266.29 403.53 264.11 403.22 261.59 403.22M276.76 339.8C279.68 344.15 284.03 344.38 288.33 343.79C292.32 343.25 296.21 341.94 300.16 341.04C300.8 340.9 301.98 340.92 302.14 341.25C303.8 344.66 307 344.74 310.01 344.81C314.07 344.9 318.14 344.6 322.2 344.47C323.76 344.42 325.21 344.39 326.58 345.56C327.44 346.3 328.76 346.77 329.91 346.86C333.63 347.14 337.37 347.25 341.11 347.32C344.86 347.39 348.61 347.22 352.36 347.35C355.4 347.46 358.43 348.13 361.46 348.09C366.96 348.01 372.47 347.62 377.97 347.27C380.34 347.12 382.7 346.8 385.05 346.49C385.47 346.43 385.85 346.02 386.25 345.78C385.82 345.47 385.42 345.07 384.94 344.87C384.59 344.73 384.13 344.82 383.72 344.85C379.99 345.13 376.27 345.42 372.54 345.7C370.1 345.89 367.66 346.19 365.22 346.21C361.77 346.24 358.31 346.13 354.86 345.97C351.82 345.83 348.78 345.37 345.74 345.34C341.73 345.29 337.7 345.74 333.7 345.54C331.49 345.42 329.33 344.41 327.15 343.79C325.9 343.44 324.64 342.76 323.39 342.76C319.11 342.77 314.82 343.18 310.54 343.11C308.32 343.07 305.49 343.3 304.26 341.03C303.01 338.7 301.39 338.91 299.49 339.3C298.43 339.52 297.41 339.9 296.39 340.25C292.29 341.66 288.1 342.35 283.77 341.96C281.59 341.76 279.65 341.12 278.58 338.97C277.98 337.76 277.01 337.56 275.86 338.15C275.32 338.43 274.8 338.76 274.26 339.04C271.09 340.65 269.72 340.3 267.75 337.41C266.19 335.12 265.44 334.94 262.84 335.87C260.17 336.83 257.5 337.85 254.74 338.48C252.7 338.94 250.44 339.21 248.63 337.2C249.31 336.28 249.96 335.5 250.48 334.63C250.68 334.3 250.72 333.65 250.52 333.37C250.35 333.14 249.69 333.11 249.31 333.22C248.73 333.38 248.22 333.77 247.66 334.01C241.38 336.71 235.15 339.55 228.78 342.01C226.31 342.97 223.52 343.3 220.84 343.51C218.07 343.73 217.42 342.59 218.39 340.01C218.56 339.57 218.75 339.13 218.86 338.67C219.32 336.74 218.45 335.91 216.58 336.51C215.55 336.85 214.57 337.33 213.57 337.74C208.07 340.02 202.64 342.5 197.03 344.49C194.28 345.47 191.21 345.77 188.26 345.96C185.25 346.15 184.33 344.72 185.26 341.86C185.72 340.45 186.45 339.11 186.81 337.68C187.14 336.38 187.13 335 187.27 333.65C185.87 333.79 184.35 333.62 183.09 334.11C177.92 336.14 172.91 338.56 167.7 340.46C165.08 341.41 162.18 341.83 159.38 341.96C156.99 342.07 156.19 340.51 156.96 338.24C157.09 337.85 157.29 337.49 157.39 337.1C157.84 335.35 157.19 334.58 155.39 334.97C153.81 335.31 152.27 335.85 150.75 336.42C141.7 339.84 132.69 343.38 123.05 344.91C122.6 344.98 122.21 345.41 121.79 345.67C121.83 345.92 121.87 346.17 121.91 346.42C122.85 346.42 123.84 346.63 124.71 346.39C130.71 344.75 136.71 343.13 142.64 341.28C146.87 339.96 151 338.29 155.48 336.66C155.28 337.3 155.16 337.6 155.1 337.9C154.33 341.51 156.2 343.98 159.9 343.99C161.37 343.99 162.92 343.81 164.3 343.31C169.7 341.36 175.05 339.26 180.4 337.19C182.12 336.52 183.8 335.76 185.92 334.86C185 337.34 184.18 339.33 183.53 341.37C182.29 345.32 183.99 347.75 188.06 347.7C190.22 347.68 192.39 347.43 194.51 347.03C201.64 345.68 208.06 342.42 214.52 339.3C215.24 338.95 216 338.68 216.91 338.3C216.8 338.88 216.79 339.08 216.73 339.28C215.31 343.55 216.54 345.31 221.01 345.26C226.4 345.19 231.39 343.41 236.28 341.39C239.88 339.91 243.37 338.17 246.95 336.52C247.27 339.13 248.53 340.16 251.18 340.38C255.53 340.73 259.49 339.35 263.34 337.63C264.78 336.99 265.53 337.12 266.42 338.55C268.63 342.12 270.85 342.64 274.68 340.82C275.35 340.5 276.02 340.17 276.78 339.8M183.18 225.5C181.31 228.53 181.65 229.4 184.73 229.76C184.93 229.78 185.14 229.8 185.34 229.78C188.66 229.52 191.98 229.28 195.29 228.96C195.64 228.93 195.96 228.46 196.29 228.19C195.92 227.91 195.56 227.4 195.18 227.38C194.03 227.34 192.88 227.53 191.72 227.54C189.26 227.57 186.8 227.55 184.19 227.55C184.43 227.15 184.61 226.87 184.77 226.58C185.86 224.6 185.37 223.78 183.09 223.61C182.5 223.57 181.93 223.28 181.34 223.25C180.62 223.22 179.79 223.15 179.18 223.45C178.22 223.92 177.42 224.73 176.5 225.29C175.36 225.98 174.16 226.56 172.98 227.19C172.86 226.5 173.03 226.27 173.1 226.02C173.28 225.36 173.42 224.7 173.58 224.03C172.85 224.13 172.05 224.06 171.42 224.36C169.58 225.21 167.82 226.25 165.99 227.13C165.35 227.44 164.59 227.5 163.34 227.81C164.13 226.64 164.59 226.06 164.92 225.42C165.24 224.78 165.43 224.07 165.67 223.4C164.92 223.45 164.11 223.33 163.42 223.57C160.16 224.7 156.95 225.98 153.68 227.07C152.49 227.47 151.1 227.97 149.91 226.48C151.03 226.02 152.1 225.76 152.93 225.17C153.48 224.78 153.7 223.92 154.06 223.26C153.29 223.01 152.31 222.33 151.79 222.59C149.67 223.64 147.85 225.37 145.23 225.13C145.2 225.13 145.18 225.28 145.13 225.3C142.48 226 139.83 226.7 137.17 227.39C137.08 227.19 136.99 226.99 136.9 226.8C137.37 225.84 137.94 224.92 138.29 223.91C138.53 223.23 138.46 222.44 138.52 221.7C137.8 221.79 137.02 221.72 136.38 221.99C133.89 223.05 131.44 224.23 129.01 225.35C128.94 223.87 128.88 222.79 128.83 221.71C127.8 222.23 126.75 222.73 125.74 223.28C125.45 223.44 125.26 223.78 124.97 223.94C123.5 224.76 122.02 225.54 120.69 226.26C120.38 224.61 120.21 222.44 119.94 222.42C118.16 222.33 116.36 222.71 114.49 222.95C113.94 221.03 112.87 220.63 109.44 221.3C108.84 221.42 108.16 221.09 107.52 220.98C106.81 220.86 105.88 220.41 105.44 220.7C104.84 221.09 104.25 222.08 104.3 222.77C104.46 225.02 102.72 226.82 99.5899 226.65C100.68 224.77 101.66 223.14 102.56 221.47C102.87 220.89 102.96 220.19 103.15 219.55C102.45 219.7 101.65 219.68 101.06 220.02C99.4699 220.93 98.0099 222.07 96.4299 222.99C93.8899 224.46 91.2799 225.82 88.7099 227.23C88.4799 226.97 88.2399 226.71 88.0099 226.44C90.9999 222.55 93.6499 218.32 97.0599 214.84C101.62 210.18 106.8 206.12 111.64 201.73C112.21 201.21 112.35 200.21 112.69 199.43C111.91 199.59 110.99 199.52 110.39 199.93C103.44 204.69 96.5399 209.53 89.6099 214.33C87.2699 215.95 84.8999 217.52 82.5399 219.11C82.3999 218.92 82.2499 218.73 82.1099 218.54C90.0899 211.86 98.0699 205.17 106.04 198.49C107.5 197.27 108.99 196.07 110.35 194.75C110.67 194.44 110.56 193.67 110.64 193.11C110.13 193.08 109.6 192.96 109.1 193.04C108.72 193.09 108.37 193.38 108.01 193.57C95.5899 200.11 83.1999 206.7 70.7299 213.15C67.3999 214.87 63.8299 216.15 60.3799 217.64V217.02C59.8999 216.69 59.2899 216 58.9699 216.11C58.4399 216.31 57.7799 217 57.7599 217.51C57.7399 217.98 58.3999 218.66 58.9199 218.92C59.3899 219.16 60.1199 219.1 60.6799 218.94C62.3699 218.46 64.1199 218.06 65.6799 217.31C74.7899 212.92 83.8599 208.44 92.9399 203.97C95.1299 202.89 97.2899 201.75 99.4699 200.64C96.0399 204.08 92.4399 207.19 88.9099 210.39C84.4699 214.42 80.0599 218.49 75.7199 222.62C75.2299 223.09 75.2699 224.11 75.0599 224.87C75.7999 224.82 76.5599 224.85 77.2899 224.7C77.7299 224.61 78.1299 224.27 78.5199 224C83.4099 220.68 88.2999 217.36 93.1799 214.03C94.8399 212.9 96.4899 211.75 98.1399 210.61C97.9299 211.36 97.4699 211.76 97.0199 212.18C92.7599 216.18 89.4299 220.89 86.7199 226.04C86.3799 226.68 86.3399 227.94 86.7399 228.38C87.1699 228.84 88.3299 228.88 89.0999 228.72C90.1399 228.5 91.1299 227.99 92.0799 227.48C94.2999 226.3 96.4799 225.06 98.8399 223.76C98.6699 224.29 98.4599 224.61 98.4899 224.91C98.5999 225.97 98.4299 227.44 99.0399 227.98C99.6999 228.56 101.31 228.68 102.18 228.28C103.55 227.66 104.97 226.66 105.79 225.43C107.5 222.9 109.96 223.15 112.52 222.8C112.4 223.4 112.29 223.79 112.26 224.18C112.2 224.88 112.18 225.58 112.15 226.28C112.89 226.11 113.68 226.06 114.35 225.75C115.74 225.11 117.07 224.33 118.54 223.54C118.4 226.607 119.683 227.974 122.39 227.64C123.34 229.59 124.5 229.68 126.44 228.64C129.38 227.06 132.5 225.81 135.91 224.24C134.48 228.03 135.14 229.39 137.94 228.91C140.5 228.46 142.98 227.52 145.49 226.8C146.59 226.49 147.62 226.05 148.45 227.47C149.36 229.02 150.84 229.62 152.64 229.07C155.7 228.14 158.76 227.2 161.83 226.26C162 229.34 163.16 230.1 166.08 228.99C167.53 228.44 168.92 227.73 170.35 227.09C171.01 228.87 172.3 229.36 174.03 228.59C175.26 228.04 176.55 227.51 177.58 226.69C179.25 225.36 181 224.86 183.16 225.46M438.46 153.77C441.39 152.4 440.51 150.54 439.29 148.53C442.61 146.88 439.85 145.05 439.48 143.1C441.37 142.42 442.33 141.36 440.77 139.42C440.63 139.25 441.03 138.44 441.37 138.13C442 137.54 442.77 137.1 443.59 136.51C443.07 135.58 442.56 134.68 442.01 133.71C443.48 132.7 445.42 131.91 443.61 129.6C446.74 129.44 449.66 129.3 452.58 129.13C454.75 129 456.93 128.91 459.09 128.64C459.57 128.58 459.96 127.84 460.39 127.41C460.03 127.18 459.66 126.74 459.32 126.76C454.32 127.07 449.32 127.44 443.94 127.82C446.1 126.18 443.95 125.17 443.61 123.57C444.42 123.37 445.16 123.08 445.9 123.03C448.75 122.84 451.61 122.76 454.46 122.55C454.94 122.51 455.39 122.05 455.86 121.79C455.37 121.49 454.88 120.94 454.4 120.94C452.36 120.94 450.33 121.14 448.29 121.22C447.57 121.25 446.57 121.39 446.19 121.01C445.2 119.99 444.47 118.7 443.64 117.51C445.113 116.944 445.51 115.477 444.83 113.11C446.663 111.937 447.313 110.504 446.78 108.81C448.8 108.64 450.83 108.4 452.86 108.3C461.63 107.86 470.4 107.48 479.17 107.01C479.73 106.98 480.26 106.4 480.81 106.07C480.26 105.83 479.7 105.37 479.16 105.38C475.14 105.47 471.13 105.62 467.12 105.83C463.59 106.02 460.07 106.39 456.54 106.52C453.24 106.64 449.94 106.55 446.59 106.55C446.9 106.1 447.3 105.51 447.83 104.74C447.2 104.34 446.69 103.92 446.09 103.67C444.2 102.87 442.53 102 443.55 99.4504C443.65 99.2104 443.42 98.8404 443.33 98.4404C442.02 98.8404 440.82 99.2004 439.56 99.5804C438.81 97.8204 437.93 97.4304 436.56 98.9804C436.1 99.4904 435.15 99.5704 434.4 99.8604C434.02 98.9704 433.72 98.2604 433.32 97.3104C432.17 98.1004 431.19 98.7804 430.2 99.4604C429.68 98.4504 429.14 97.4004 428.54 96.2204C427.31 97.0604 426.23 97.7904 424.96 98.6504C424.81 97.6904 424.71 97.0504 424.55 95.9704C423.35 96.7204 422.38 97.3304 421.33 97.9804C420.31 96.5704 419.16 96.2504 418.05 97.9104C416.203 96.2571 414.273 95.9771 412.26 97.0704C410.95 94.5904 410.53 94.5104 407.59 96.3004C406.34 94.3504 404.77 93.4404 402.67 95.5804C400.72 91.6104 399.12 94.6504 397.67 95.6104C395.75 95.1204 395.25 91.6404 392.62 93.7704C392.58 93.7204 392.54 93.6704 392.5 93.6104C391.07 91.5004 389.9 93.1204 388.67 93.9904C387.48 92.7504 386.38 91.2104 384.72 93.1504C382.9 91.6437 381.42 91.6137 380.28 93.0604C379.02 91.4404 377.65 90.0604 375.95 91.8104C374.96 91.0704 374.15 89.9804 373.44 90.0404C372.52 90.1204 371.69 91.1204 370.82 91.7304C369.3 90.1104 367.66 89.9771 365.9 91.3304C364.46 89.8904 362.973 89.4604 361.44 90.0404C360.89 89.5404 360.34 89.0504 359.73 88.5004C358.93 89.1104 358.21 89.6704 357.49 90.2204C356.21 88.7804 354.657 88.6837 352.83 89.9304C351.59 88.7304 350.24 88.0004 348.76 89.8604C347.34 87.8604 345.86 86.5504 343.63 88.6704C343.41 88.8804 342.4 88.6304 342.09 88.3004C340.65 86.7304 339.41 87.0804 338.18 88.5804C336.52 87.6504 335.26 85.0404 333.07 87.5204C332.72 87.1804 332.45 87.0304 332.33 86.8004C331.33 84.8704 330.15 84.6704 328.54 86.1904C328.16 86.5504 327.12 86.8004 326.83 86.5604C325.1 85.1004 323.87 86.2004 322.68 87.2504C320.62 86.3104 318.95 83.1004 316.53 86.5604C314.89 85.3904 313.54 83.0004 311.31 86.0204C309.65 83.4104 307.78 82.5004 305.68 85.0304C303.893 83.4037 302.043 83.1904 300.13 84.3904C298.25 82.9171 296.33 82.8004 294.37 84.0404C293.97 83.6904 293.6 83.1404 293.13 83.0304C292.53 82.8904 291.48 82.8604 291.25 83.2004C290.15 84.8104 288.85 85.8804 286.84 85.9904C286.52 86.0104 286.22 86.3704 285.8 86.6404C286.48 87.7904 287.1 88.8104 287.69 89.8104C286.117 91.2037 285.943 92.7171 287.17 94.3504C286.53 95.2104 285.5 96.0104 285.38 96.9204C285.26 97.8104 286.07 98.8204 286.46 99.7404C285.54 100.14 284.82 100.45 284.05 100.79C284.51 101.68 284.86 102.37 285.19 103.01C284.57 103.73 284.05 104.33 283.51 104.96C284.23 106.06 284.88 107.06 285.66 108.24C282.24 109.01 283.78 110.76 284.88 112.44C281.4 113.83 283.39 115.68 284.47 117.32C282.89 118.26 282.757 119.857 284.07 122.11C283.17 122.32 282.09 122.96 281.57 122.65C276 119.36 269.93 118.04 263.57 117.51C257.3 116.99 251.28 117.93 245.37 119.96C239.34 122.03 235.55 126.83 231.34 131.18C226.84 135.82 224.71 141.66 222.61 147.54C222.41 148.1 222.8 148.88 222.91 149.55C223.33 149.04 223.91 148.59 224.16 148C225.42 145.09 226.52 142.11 227.81 139.22C229.91 134.49 233.92 131.27 237.26 127.53C240.24 124.2 244.04 122.1 248.29 120.9C256.87 118.49 265.43 118.61 273.96 121.27C277.29 122.31 280.42 123.65 283.03 126.39C279.89 127.63 281.86 129.19 282.65 130.83C279.68 131.82 280.81 133.44 281.76 134.57C281.38 135.72 280.67 136.76 280.94 137.25C281.84 138.88 282.25 140.29 280.3 141.64C281.24 142.23 281.96 142.51 282.44 143.02C283.04 143.66 283.53 144.44 283.9 145.24C284.22 145.93 284.29 146.73 284.47 147.48C285.19 147.28 285.91 147.09 286.48 146.93C286.91 147.75 287.33 148.53 287.75 149.33C289.03 148.61 290.03 148.06 291.15 147.44C291.71 148.53 292.22 149.51 292.75 150.53C294.27 149.8 295.6 149.17 296.95 148.53C296.84 149.5 296.64 150.43 296.66 151.36C296.78 155.64 296 159.8 294.21 163.63C292.21 167.91 289.71 171.96 287.48 176.14C287.17 176.71 287.17 177.45 287.03 178.11C287.34 178.19 287.64 178.27 287.95 178.35C293.86 170.02 298.66 161.25 298.35 151.16C299.81 150.44 300.96 149.87 302.12 149.3C303.753 151.067 305.733 151.057 308.06 149.27C308.61 150.39 309.15 151.48 309.8 152.81C310.85 151.89 311.65 151.19 312.54 150.42C313.54 151.27 314.41 152.52 315.52 152.8C316.54 153.06 317.83 152.28 319.15 151.91C320.843 153.497 322.957 153.514 325.49 151.96C326.41 153.07 327.4 154.27 328.46 155.55C329.5 154.59 330.37 153.79 331.17 153.05C333.31 154 335.11 155.93 337.6 154.18C337.76 154.07 338.43 154.36 338.62 154.63C340.34 157.05 342.25 157.03 344.46 155.31C344.77 155.07 345.65 155.16 346.02 155.44C348.44 157.23 348.42 157.26 350.9 155.01C353.05 157.22 355.42 158.41 358.13 155.48C359.47 157.69 360.85 159.39 363.15 157.09C364.12 158 364.95 158.77 365.87 159.64C366.67 159.01 367.36 158.47 368.12 157.87C368.57 158.2 369.13 158.49 369.53 158.92C370.31 159.78 371.16 159.94 371.99 159.17C373.66 157.63 374.72 158.45 375.51 160.04C376.34 161.71 377.3 161.6 378.49 160.48C378.78 160.21 379.12 160 379.61 159.62C381.97 163.27 384.19 160.7 386.49 159.23C387.22 160.56 387.82 161.65 388.51 162.9C389.12 162.38 389.61 162.03 390.01 161.6C390.44 161.12 390.79 160.56 391.03 160.22C392.35 161.2 393.31 162.49 394.26 162.48C395.32 162.47 396.37 161.27 397.4 160.61C398.933 162.537 400.837 162.857 403.11 161.57C403.84 162.65 404.57 163.73 405.36 164.9C406.37 164.14 407.27 163.47 408.31 162.69C410.69 165.92 412.83 164.17 414.84 162.14C415.59 163.18 416.18 163.98 416.83 164.88C417.95 164.16 419.01 163.49 420.13 162.78C420.84 163.53 421.49 164.23 422.14 164.93C422.06 165.17 421.98 165.41 421.9 165.65C419.26 165.65 416.6 165.52 413.96 165.68C406.22 166.14 398.49 166.7 390.76 167.24C386.62 167.53 382.49 167.8 378.35 168.13C372.05 168.63 365.76 169.16 359.46 169.69C355.67 170.01 351.88 170.32 348.1 170.7C347.51 170.76 346.96 171.2 346.38 171.46C346.46 171.7 346.54 171.95 346.62 172.19C347.36 172.19 348.1 172.24 348.83 172.19C355.46 171.67 362.09 171.1 368.73 170.62C375.58 170.13 382.43 169.75 389.28 169.27C398.37 168.63 407.44 167.86 416.53 167.32C423.8 166.89 431.09 166.73 438.37 166.41C439.45 166.36 440.55 166.25 441.59 165.98C442.07 165.85 442.43 165.25 442.85 164.87C442.72 164.68 442.6 164.5 442.47 164.31C440.31 164.42 438.14 164.53 435.29 164.67C436.44 163.47 437.36 162.7 438.02 161.75C438.43 161.16 438.62 160.3 438.59 159.57C438.57 158.96 438.08 158.36 437.74 157.64C440.31 156.98 439.65 155.54 438.43 153.82M245.16 77.9404C316.37 77.9404 387.59 77.9404 458.8 77.9004C460.97 77.9004 462.61 78.4604 464.3 79.9004C471.99 86.4404 479.77 92.8704 487.64 99.1904C489.59 100.75 490.32 102.33 490.32 104.86C490.36 136.1 490.52 167.35 490.67 198.59C490.84 235.7 491.03 272.81 491.2 309.92C491.34 339.53 491.45 369.13 491.59 398.74C491.59 400.16 491.58 401.53 490.11 402.27C485.45 404.62 482.45 408.75 479.08 412.48C476.8 415.01 474.77 417.76 471.49 419.2C470.69 419.55 470.1 420.49 469.53 421.24C467.36 424.1 464.83 426.48 461.71 428.33C459.32 429.74 457.06 431.46 455 433.33C453.46 434.72 451.89 435.31 449.86 435.32C436.35 435.35 422.85 435.43 409.34 435.5C336.29 435.89 263.23 436.27 190.18 436.67C139.22 436.95 88.2699 437.24 37.3199 437.56C35.0199 437.57 32.7199 437.87 30.4199 438C30.0399 438.02 29.5299 437.98 29.2699 437.75C27.8099 436.43 26.3199 435.13 25.0399 433.64C24.5399 433.06 24.3899 432.01 24.3899 431.18C24.4199 396.25 24.4799 361.33 24.5599 326.4C24.6499 285.61 24.7499 244.81 24.8599 204.02C24.9699 163.98 25.0999 123.94 25.2299 83.8904C25.2399 80.0404 26.8499 78.4504 30.6799 78.4504H245.14V77.9404H245.16Z" fill="white"/>
<path d="M302.91 109.29C302.68 109.23 302.45 109.18 302.22 109.12C302.11 110.29 301.73 111.53 302.02 112.59C302.15 113.06 303.63 113.22 304.52 113.35C304.68 113.37 304.91 112.51 305.21 112.15C305.75 111.5 306.33 110.48 306.98 110.4C308.61 110.2 310.19 110.64 311.07 112.75C309.96 113.06 308.95 113.35 307.84 113.66C308.87 115.03 309.99 114.19 310.86 113.73C311.34 113.47 311.82 112.4 311.65 111.91C311.06 110.15 309.44 109.65 307.77 109.48C306.27 109.33 304.97 109.68 304.33 111.32C304.15 111.78 303.6 112.1 303.22 112.49C303.07 112.39 302.92 112.3 302.76 112.2C302.81 111.23 302.85 110.26 302.89 109.3M305.35 102C304.22 102.78 302.8 103.25 302.31 104.2C301.61 105.56 302.89 107.3 304.77 107.63C306.46 107.93 308.25 108 309.94 107.76C311.87 107.49 312.47 105.47 310.91 104.39C309.39 103.34 307.46 102.87 305.35 101.99M323.45 145.46C314.51 144.46 305.7 143.47 296.8 142.47C295.63 138.1 293.55 134.17 290.67 130.56C289.96 129.68 290.37 127.76 290.53 126.35C291.15 120.7 291.85 115.05 292.57 109.41C293.38 102.97 294.24 96.5303 295.11 89.7603C317.43 92.2703 339.67 94.7703 362.08 97.2803C361.91 99.8203 361.78 101.9 361.64 103.97C361.51 105.8 361.33 107.63 361.25 109.46C361.2 110.63 360.77 111.06 359.52 111.11C350.62 111.47 341.72 111.92 332.82 112.34C330.24 112.46 327.66 112.6 325.08 112.73C323.02 112.83 322.33 113.52 322.37 115.59C322.51 123.43 322.64 131.26 322.85 139.09C322.9 141.12 323.23 143.14 323.45 145.44" fill="white"/>
<path d="M367.95 133.91C390.6 132.57 413.1 131.24 435.67 129.9C434.58 139.34 433.52 148.5 432.42 157.98C410.37 155.58 388.38 153.19 366.03 150.76C366.67 145.16 367.28 139.74 367.95 133.9" fill="white"/>
<path d="M358.55 134.521C357.84 139.621 357.19 144.351 356.47 149.541C345.92 148.311 335.71 147.121 325.03 145.871C324.65 135.521 324.27 125.281 323.88 114.671C336.25 114.071 348.38 113.481 360.86 112.871C360.32 117.791 359.79 122.661 359.23 127.791C352.48 128.241 345.84 128.691 339.2 129.131C339.22 129.451 339.24 129.781 339.26 130.101C345.7 131.091 352.14 129.761 358.71 129.521V132.761C355.99 133.041 353.37 133.361 350.75 133.581C346.89 133.901 343.03 134.141 339.17 134.451C338.64 134.491 338.06 134.591 337.63 134.861C337.32 135.051 337.22 135.581 337.02 135.951C337.41 136.101 337.81 136.421 338.17 136.391C344.84 135.811 351.5 135.181 358.56 134.531" fill="white"/>
<path d="M379.93 123.841C380.37 120.221 382.32 119.031 384.85 120.691C385.32 121.001 385.7 121.751 385.74 122.321C385.76 122.611 384.96 123.141 384.46 123.231C383.63 123.381 382.76 123.271 381.91 123.271C382.25 123.831 382.64 124.151 383.04 124.171C384.43 124.231 386.01 124.411 386.63 122.761C387.17 121.331 386.12 119.861 384.18 119.481C383.06 119.261 381.61 119.221 380.71 119.761C379.81 120.301 379.43 121.681 378.75 122.801C376.77 122.001 378.89 120.111 377.65 118.861C377.35 120.271 377.05 121.681 376.71 123.221C377.9 123.441 378.9 123.631 379.92 123.831M368.85 126.611C369.38 121.901 369.9 117.271 370.44 112.511C372.89 112.341 375.3 112.171 377.51 112.021C377.78 113.151 377.76 114.391 378.35 115.171C378.87 115.861 380.04 116.271 380.97 116.391C382.47 116.591 384.05 116.601 385.54 116.391C386.24 116.291 387.28 115.531 387.36 114.961C387.45 114.301 386.7 113.481 386.19 112.821C385.88 112.431 385.34 112.231 384.54 111.721C402.54 110.841 420.14 109.991 438.03 109.121C437.54 113.421 437.07 117.611 436.58 121.891C433.99 122.111 431.57 122.371 429.15 122.521C423.99 122.841 418.83 123.041 413.67 123.401C407.23 123.861 400.8 124.461 394.37 124.951C390.03 125.281 385.69 125.531 381.35 125.831C377.49 126.101 373.63 126.401 369.76 126.671C369.5 126.691 369.24 126.631 368.84 126.601" fill="white"/>
<path d="M357.55 91.5803C358.25 90.9503 358.86 90.4203 359.59 89.7603C360.18 90.2503 360.79 90.7603 361.48 91.3303C362.07 90.9903 362.69 90.6403 363.49 90.1803C363.97 90.7803 364.36 91.5403 364.98 91.9803C365.45 92.3203 366.2 92.2603 367.29 92.4703C367.67 93.0603 368.29 94.0903 366.88 95.1003C366.78 95.1703 366.67 95.3203 366.67 95.4303C366.67 97.5503 366.68 99.6703 366.69 101.79C366.69 102.22 366.83 102.71 366.66 103.06C365.99 104.49 365.42 105.72 366.36 107.42C366.73 108.08 365.8 109.64 365.16 110.59C364.87 111.03 363.85 110.98 362.74 111.26C363.04 107.35 363.15 103.76 363.62 100.22C364.04 97.0503 363.92 96.3603 360.83 95.8603C354.28 94.8103 347.71 93.9003 341.12 93.0803C334.12 92.2103 327.1 91.4903 320.09 90.7203C314.56 90.1203 309.03 89.5503 303.5 88.9603C301.28 88.7303 299.05 88.4703 296.83 88.2503C294.62 88.0403 293.44 87.8403 293.21 91.0603C292.82 96.6003 291.86 102.09 291.16 107.6C290.5 112.78 289.87 117.97 289.22 123.15C289.01 124.75 288.75 126.35 288.47 128.27C286.58 126.62 284.93 125.17 283.35 123.79C283.83 123.03 284.66 122.3 284.65 121.58C284.64 120.74 283.89 119.92 283.46 119.08C285.047 118.22 285.153 116.667 283.78 114.42C284.49 113.79 285.23 113.13 286.02 112.42C285.47 111.57 284.97 110.79 284.35 109.83C288.29 108.52 285.47 106.61 284.62 104.79C286.12 103.9 287.02 102.86 285.47 101.34C286.26 100.81 286.96 100.35 287.7 99.8503C287.29 99.0503 286.8 98.4303 286.66 97.7303C286.55 97.1803 286.66 96.1903 287 96.0103C289.19 94.8403 288.24 93.7703 287.06 92.6203C286.92 92.4803 286.85 92.2803 286.66 91.9803C287.42 91.3403 288.2 90.7003 288.98 90.0503C288.31 88.8803 287.75 87.9203 287.46 87.4103C289.23 86.0703 290.8 84.8903 292.52 83.6003C293.86 85.6603 295.42 85.3503 296.81 83.0303C298.77 84.3903 300.51 86.7603 302.69 83.5903C303.24 84.0703 303.7 84.3603 304.02 84.7503C304.97 85.9403 306.01 86.1003 307.15 85.0703C307.94 84.3403 308.66 84.1803 309.36 85.1403C310.6 86.8403 311.94 86.9603 313.41 85.2403C313.94 85.6803 314.43 86.0203 314.83 86.4503C315.79 87.4803 316.69 87.7103 317.73 86.5303C318.4 85.7803 319.19 85.7203 319.92 86.5403C320.05 86.6903 320.28 86.7403 320.43 86.8703C322.06 88.3903 323.6 88.6003 324.94 86.5503C325.78 87.1103 326.5 87.6003 327.34 88.1703C327.69 87.8803 328.11 87.5503 328.51 87.2003C329.83 86.0203 331.01 85.8203 331.92 87.6603C332.35 88.5203 332.92 89.0103 333.75 88.0703C334.69 87.0103 335.45 87.3703 336.27 88.2803C337.18 89.2903 338.15 90.1203 339.45 88.6203C339.68 88.3603 340.73 88.4303 341.1 88.7303C342.33 89.7303 343.4 90.3103 344.85 89.0103C345.21 88.6903 346.34 88.8703 346.89 89.2103C347.55 89.6103 347.97 90.4103 348.59 91.1503C349.88 89.9203 350.93 89.2203 352.35 90.7003C352.64 91.0003 354.21 90.0703 355.5 89.6003C355.94 90.0103 356.66 90.7003 357.56 91.5603" fill="white"/>
<path d="M405.44 163.28C404.313 161.407 402.46 161.014 399.88 162.1C399.09 161.19 398.3 160.27 397.44 159.27C396.87 159.71 396.38 160.05 395.93 160.45C394.62 161.6 393.52 161.72 392.56 160C391.84 158.73 391 158.6 390.15 159.98C389.84 160.49 389.35 160.88 388.93 161.34C388.72 161.14 388.52 161.02 388.43 160.86C386.82 157.78 386.78 157.72 384.11 159.73C382.88 160.65 381.93 160.92 380.85 159.6C380.48 159.15 379.87 158.9 379.73 158.8C378.42 159.2 377.17 160.02 376.5 159.69C375.53 159.21 374.98 157.88 374.09 156.7C372.03 158.71 369.99 159.06 368.16 156.52C367.36 157.17 366.68 157.71 365.84 158.38C364.41 156.85 362.96 154.77 360.85 157.34C358.86 155.58 359.55 154.07 360.85 152.72C361.91 151.63 362.42 150.6 361.69 149.1C361.5 148.71 361.61 147.87 361.91 147.6C362.93 146.69 363.21 145.76 362.5 144.56C362.4 144.39 362.19 144.11 362.25 144.03C363.44 142.36 363.35 140.55 363.14 138.61C363.01 137.39 363.52 136.1 363.82 134.42C364.19 134.35 365.05 134.2 366.13 134.01C365.65 138.22 365.21 142.11 364.75 145.99C364.57 147.54 364.33 149.08 364.15 150.63C364.02 151.73 364.31 152.33 365.64 152.48C374.6 153.49 383.54 154.67 392.5 155.65C397.76 156.23 403.06 156.46 408.33 156.98C413.66 157.51 418.97 158.23 424.29 158.83C426.99 159.13 429.69 159.44 432.4 159.53C432.97 159.55 434.01 158.68 434.08 158.12C434.88 152.21 435.51 146.28 436.21 140.35C436.61 136.93 437.06 133.51 437.53 129.81C439.52 130.52 442.16 127.88 443.42 131.47C442.49 132.21 441.6 132.92 440.69 133.64C441.28 134.5 441.81 135.27 442.33 136.02C440.25 137.694 439.683 139.447 440.63 141.28C440.23 141.49 439.84 141.73 439.42 141.91C438.27 142.41 438.23 143.13 438.79 144.17C439.44 145.38 440.68 146.68 438.68 147.9C438.48 148.02 438.5 148.74 438.63 149.12C439.48 151.74 439.5 151.73 437.38 153.55C437.77 154.3 438.17 155.07 438.57 155.84C437.59 156.647 437.363 158.284 437.89 160.75C435.19 160.57 435.99 163.29 434.82 164.37C433.83 163.67 432.76 162.31 431.81 162.39C430.66 162.49 429.62 163.81 428.45 164.67C427.66 163.62 426.85 162.56 425.53 160.81C424.63 162.11 423.88 163.19 423.12 164.3C422.05 163.38 421.24 162.16 420.25 161.99C419.35 161.84 418.25 162.82 417.11 163.37C416.47 162.62 415.75 161.77 414.93 160.81C413.73 161.81 412.66 162.71 411.38 163.77C410.51 163.21 409.57 162.17 408.53 162.06C407.55 161.95 406.46 162.82 405.43 163.26" fill="white"/>
<path d="M438.04 107.33C415.59 108.43 393.25 109.51 370.68 110.62C371.15 106.64 371.59 102.84 372.08 98.6504C375.87 99.0404 379.61 99.4004 383.36 99.8204C388.68 100.42 393.99 101.13 399.32 101.69C406.07 102.4 412.82 103.04 419.58 103.66C423.5 104.02 427.44 104.23 431.36 104.58C433.25 104.75 435.11 105.21 436.99 105.34C438.46 105.45 438.54 106.1 438.04 107.32" fill="white"/>
<path d="M354.74 156.541C352.053 154.847 349.873 154.714 348.2 156.141C347.29 155.321 346.35 154.491 345.22 153.481C342.36 156.941 339.91 155.231 337.61 152.541C336.35 154.161 335.03 154.301 333.65 153.291C331.71 151.881 329.98 151.571 328.75 154.401C327.39 153.101 326.27 152.041 325.07 150.891C324.1 151.661 323.11 152.431 321.73 153.521C320.93 152.351 320.1 151.131 319.22 149.851C318.3 150.621 317.9 150.861 317.61 151.211C316.72 152.271 315.93 152.321 314.89 151.311C312.61 149.111 312.57 149.151 310.08 151.261C309.53 150.151 308.99 149.051 308.37 147.791C307.13 148.741 306.03 149.581 304.75 150.551C303.81 149.661 302.91 148.791 301.95 147.871C301.18 148.481 300.45 149.061 299.46 149.841C297.79 146.201 295.55 148.101 293.31 149.351C292.69 148.251 292.16 147.281 291.54 146.191C290.32 146.811 289.2 147.381 287.94 148.021C287.65 147.121 287.4 146.341 287.07 145.331C286.34 145.661 285.76 145.921 284.95 146.281C284.92 144.081 284.27 142.251 281.54 141.681C283.89 139.851 282.36 138.341 281.54 136.651C284.46 135.361 282.27 133.911 281.48 132.351C285.38 131.571 282.72 129.651 282.24 128.011C282.89 127.581 283.5 127.181 284.11 126.771C284.36 126.991 284.55 127.201 284.77 127.351C287.8 129.331 288.38 131.941 287.4 135.371C286.8 137.481 286.84 139.811 286.87 142.041C286.87 142.611 287.89 143.581 288.52 143.651C299.23 144.861 309.95 145.931 320.66 147.101C329.01 148.021 337.34 149.081 345.69 150.001C349.13 150.381 352.6 150.511 356.04 150.861C357.35 150.991 357.88 150.571 358.07 149.291C358.82 144.421 359.65 139.571 360.48 134.531C360.95 134.511 361.6 134.471 362.83 134.411C362.57 135.921 362.3 137.191 362.14 138.481C362.07 139.001 362.26 139.541 362.27 140.081C362.27 140.721 362.45 141.541 362.13 141.951C361.09 143.291 361.2 144.541 362.16 145.961C360.68 147.101 359.97 148.461 360.99 150.291C361.14 150.571 360.95 151.221 360.69 151.511C359.31 153.081 358.51 155.291 356.08 155.761C355.64 155.841 355.26 156.221 354.74 156.531" fill="white"/>
<path d="M368.89 110.611H365.95C366.36 109.901 366.7 109.431 366.91 108.921C367.13 108.381 367.55 107.571 367.33 107.251C366.34 105.811 367.57 104.521 367.46 103.371C367.22 100.881 368.64 98.4205 367.4 95.8205C370.23 94.5205 367.48 92.2005 368.21 90.0405C369.14 91.2805 369.84 92.2105 370.61 93.2305C371.68 92.3205 372.64 91.5005 373.66 90.6305C374.21 91.6605 374.68 92.5205 375.18 93.4705C376.13 92.8905 376.96 92.3805 377.76 91.8905C380.72 94.5505 380 94.6205 382.23 92.2605C382.96 92.9405 383.7 93.6105 384.52 94.3705C385.11 93.9905 385.72 93.6005 386.51 93.0805C387.76 95.3705 389.3 95.6705 390.92 93.1605C391.9 94.6305 392.82 95.6005 394 93.7605C395.18 94.8805 396.2 95.8605 397.35 96.9505C398.4 96.0905 399.39 95.2905 400.39 94.4805C401.857 95.7339 403.517 95.9439 405.37 95.1105C406.59 97.7505 408.44 97.3605 410.32 95.7705C411.01 96.7905 411.56 97.6005 412.13 98.4305C412.71 98.0305 413.21 97.7805 413.6 97.4105C414.62 96.4505 415.53 96.5705 416.36 97.6305C417.41 98.9905 418.47 99.3005 419.57 97.6305C420.21 98.2105 420.8 98.7505 421.45 99.3405C422.22 98.6605 422.91 98.0405 423.65 97.3905C424.097 99.2105 425.56 99.3272 428.04 97.7405C428.69 98.6405 429.18 99.9905 430.04 100.301C430.7 100.531 431.83 99.4605 432.76 98.9705C434.22 101.371 434.95 101.371 438.12 98.9105C439.04 101.751 440.96 99.7105 442.03 99.7205C442.47 101.031 442.57 102.351 443.26 103.131C444 103.961 445.32 104.281 446.38 104.831C445.27 107.971 442.6 106.671 440.61 107.171C439.83 104.321 439.85 104.161 436.58 103.681C432.03 103.011 427.44 102.571 422.86 102.091C417.6 101.541 412.33 101.071 407.06 100.561C402.47 100.121 397.88 99.7105 393.29 99.2105C388.03 98.6405 382.79 97.9805 377.54 97.3605C375.79 97.1505 374.03 96.9805 372.28 96.7705C370.93 96.6105 370.35 97.0505 370.23 98.5205C369.89 102.501 369.36 106.461 368.88 110.591" fill="white"/>
<path d="M436.18 123.69C436.18 124.46 436.18 124.86 436.18 125.26C436.13 128.24 436.09 128.16 433.1 128.32C424.48 128.79 415.86 129.36 407.24 129.88C402.35 130.17 397.46 130.44 392.58 130.72C384.53 131.18 376.48 131.64 368.43 132.1C368.08 129.06 368.46 128.55 371.31 128.34C379.3 127.77 387.3 127.21 395.3 126.65C405.13 125.96 414.95 125.29 424.78 124.58C428.5 124.31 432.21 123.99 436.18 123.67" fill="white"/>
<path d="M443.37 112.611C443.7 113.361 443.91 113.851 444.13 114.331C444.35 114.811 444.58 115.281 444.86 115.851C443.95 116.291 443.13 116.681 441.99 117.241C443.15 118.571 444.18 119.741 445.46 121.191C443.02 121.421 440.92 121.631 438.47 121.861C438.96 117.481 439.41 113.361 439.89 109.081C442.35 109.501 445.27 107.141 446.65 111.001C445.66 111.491 444.61 112.011 443.38 112.611" fill="white"/>
<path d="M361.09 127.32C361.59 122.53 362.09 117.74 362.6 112.86H364.75C365.25 114.46 365.89 116.08 364.63 117.72C364.46 117.94 364.44 118.43 364.56 118.71C365.35 120.48 364.55 121.93 363.75 123.42C363.53 123.82 363.56 124.44 363.67 124.92C364.24 127.54 364.21 127.58 361.09 127.31" fill="white"/>
<path d="M294.89 142.531C292.61 142.301 290.8 142.111 288.65 141.891C288.92 138.781 289.18 135.811 289.48 132.291C292.37 135.551 293.86 138.771 294.89 142.531Z" fill="white"/>
<path d="M368.62 112.521C368.31 115.431 368.03 118.311 367.69 121.191C367.51 122.741 367.34 124.291 366.98 125.801C366.84 126.391 366.19 126.861 365.58 127.631C364.44 125.311 364.15 123.621 365.58 122.021C365.66 121.921 365.72 121.781 365.73 121.651C365.9 119.441 366.2 117.221 366.16 115.011C366.12 112.681 365.98 112.691 368.6 112.521" fill="white"/>
<path d="M437.65 128.391C437.92 126.341 438.11 124.971 438.3 123.521H442.16C442.73 124.381 443.34 125.331 444.33 126.831C442.11 127.351 440.18 127.801 437.65 128.391Z" fill="white"/>
<path d="M386.75 114.79C384.95 116.08 380.77 116.19 379.38 114.97C378.93 114.57 378.52 113.77 378.61 113.24C378.67 112.87 379.59 112.42 380.15 112.38C382.68 112.18 385.12 112.35 386.75 114.8" fill="white"/>
<path d="M360.92 129.21H362.94C364.04 132.59 363.89 132.83 360.47 132.67C360.61 131.56 360.76 130.48 360.92 129.21Z" fill="white"/>
<path d="M366.68 128.8C366.18 130.21 367.59 132.23 364.92 132.41C364.16 130.17 364.746 128.967 366.68 128.8Z" fill="white"/>
<path d="M423.56 164.96C424.36 164.07 424.98 163.38 425.73 162.55C426.29 163.38 426.76 164.06 427.37 164.96H423.56Z" fill="white"/>
<path d="M291.54 226.69C293.22 225.6 294.9 224.52 296.59 223.43C296.74 223.66 296.89 223.89 297.05 224.12C295.39 225.26 293.73 226.4 292.07 227.53C291.9 227.25 291.72 226.96 291.55 226.68" fill="white"/>
<path d="M318.51 227.271C320.39 226.481 322.27 225.691 324.15 224.891C324.27 225.141 324.39 225.401 324.5 225.651C322.67 226.561 320.83 227.481 319 228.391C318.84 228.011 318.67 227.641 318.51 227.261" fill="white"/>
<path d="M303.34 103.74C306 103.98 308.94 102.72 310.89 105.67C309.91 107.07 307.16 107.52 304.9 106.77C303.53 106.31 302.88 105.51 303.34 103.74Z" fill="white"/>
</g>
</svg>
