<svg width="516" height="516" viewBox="0 0 516 516" fill="none" xmlns="http://www.w3.org/2000/svg">
<mask id="mask0_2541_76" style="mask-type:luminance" maskUnits="userSpaceOnUse" x="120" y="34" width="276" height="448">
<path d="M395.37 34.0298H120.62V481.97H395.37V34.0298Z" fill="white"/>
</mask>
<g mask="url(#mask0_2541_76)">
<path d="M225.47 334.02C223.66 334.02 222.62 334.06 222.75 335.43C222.78 335.73 223.87 336.25 223.97 336.15C224.48 335.65 224.83 334.99 225.47 334.02ZM280.68 390.92C280.44 390.8 280.21 390.68 279.98 390.55C279.3 392.78 278.02 394.82 277.9 397.23C278.07 397.28 278.24 397.34 278.41 397.39C279.17 395.23 279.93 393.07 280.69 390.92M266.71 398.55C267.23 395.9 267.68 393.66 268.12 391.43C267.92 391.38 267.72 391.34 267.53 391.29C266.97 393.38 266.39 395.46 265.88 397.56C265.83 397.75 266.28 398.06 266.71 398.55ZM288.06 409.6C288.3 409.69 288.54 409.77 288.78 409.86C289.61 407.57 290.44 405.28 291.27 402.98C291.03 402.9 290.8 402.81 290.56 402.73C289.72 405.02 288.88 407.31 288.05 409.6M265.67 403.95C265.49 403.9 265.31 403.85 265.13 403.8C264.29 406.48 263.45 409.17 262.61 411.85C262.83 411.91 263.05 411.97 263.27 412.04C264.12 409.36 265.44 406.81 265.66 403.95M271.3 391.38C271.3 391.57 271.28 391.75 271.28 391.94C271.88 392.04 272.48 392.14 273.03 392.24C272.65 393.98 272.29 395.64 271.93 397.31C272.11 397.36 272.29 397.41 272.46 397.45C273.81 395.26 272.43 391.09 277.4 391.53C277.23 391.3 277.07 391.07 276.9 390.84C275.03 391.02 273.17 391.2 271.3 391.38ZM246.07 393.79C246.13 393.54 246.2 393.3 246.26 393.05C245.53 393 244.66 392.69 244.12 392.98C243.68 393.22 243.37 394.23 243.47 394.81C243.63 395.7 244.32 396.48 244.56 397.37C244.68 397.8 244.37 398.71 244.07 398.81C243.6 398.97 242.95 398.66 242.4 398.46C242.17 398.38 242.02 398.09 241.84 397.89C241.68 398.04 241.53 398.2 241.38 398.35C241.93 398.84 242.41 399.59 243.03 399.73C243.64 399.86 244.86 399.52 244.99 399.12C245.29 398.19 245.21 397.09 245.05 396.09C244.93 395.31 244.45 394.59 244.02 393.58C245.02 393.68 245.55 393.73 246.08 393.78M295.43 409.63C295.64 409.7 295.86 409.77 296.07 409.85C296.62 408.42 297.23 407.02 297.69 405.56C298.19 403.98 298.78 402.6 300.94 402.8C300.87 402.58 300.79 402.37 300.72 402.15C298.86 402.31 297.01 402.46 295.15 402.62C295.15 402.79 295.15 402.96 295.15 403.13C295.92 403.21 296.7 403.29 297.51 403.37C296.8 405.5 296.11 407.56 295.42 409.62M234.57 400.3C234.55 400.05 234.53 399.8 234.51 399.55C232.93 399.66 231.34 399.77 229.35 399.91C230.15 397.5 230.83 395.43 231.51 393.36C231.27 393.28 231.04 393.21 230.8 393.13C230.01 395.47 229.23 397.81 228.44 400.14C228.61 400.38 228.77 400.62 228.94 400.87C230.81 400.68 232.69 400.49 234.56 400.29M238.77 97.05C238.56 97.17 238.35 97.3 238.14 97.42C239.25 99.57 240.36 101.73 241.55 104.06C243.13 101.81 243.52 98.55 242.53 96.78C242.29 98.61 242.06 100.32 241.76 102.56C240.57 100.37 239.67 98.71 238.77 97.05ZM296.14 392.74C294.79 393.83 294.89 394.99 295.93 395.69C296.56 396.11 297.87 396.06 298.58 395.67C299.94 394.92 299.28 393.79 298.69 392.72C298.3 392.01 298.17 391.15 297.92 390.36C298.66 390.42 299.39 390.48 300.13 390.52C300.22 390.52 300.33 390.4 300.48 390.29C299.71 389.28 298.79 388.51 297.63 389.5C296.57 390.41 296.63 391.62 297.5 392.74C297.73 393.04 298.1 393.3 298.2 393.63C298.31 394.04 298.35 394.61 298.15 394.94C297.97 395.25 297.32 395.57 297.06 395.46C296.67 395.3 296.33 394.8 296.18 394.37C296.03 393.95 296.15 393.44 296.15 392.74M282.38 393.8C282.36 395.36 282.96 396.05 284.3 396.05C286.07 396.05 288.16 394.02 288.17 392.21C288.18 390.9 287.51 389.91 286.19 389.84C284.26 389.73 282.4 391.78 282.38 393.81M280.94 403.11C280.69 403.06 280.44 403.01 280.19 402.96C279.89 404.7 279.47 406.42 279.36 408.17C279.32 408.82 279.88 409.9 280.4 410.08C280.99 410.28 282.11 409.9 282.54 409.38C284.15 407.44 285.09 405.16 285.11 402.55C284.69 402.97 284.51 403.49 284.28 403.99C283.59 405.54 282.94 407.12 282.13 408.61C281.92 409 281.21 409.12 280.73 409.37C280.51 408.89 280.14 408.43 280.11 407.94C280.07 407.27 280.27 406.58 280.39 405.9C280.56 404.97 280.74 404.03 280.91 403.1M241.05 393.59C237.96 392.25 237.41 392.51 236.47 395.44C236.22 396.22 236.03 397.04 235.69 397.78C235.25 398.74 235.2 399.56 236.34 399.94C237.52 400.34 238.71 400.37 239.79 399.92C239.76 399.76 239.74 399.6 239.71 399.44C238.56 399.36 237.42 399.27 236.18 399.18C236.43 398.29 236.58 397.76 236.72 397.23C237.9 397.11 239.02 397 240.15 396.89C240.12 396.68 240.09 396.47 240.06 396.26H237.17C237.43 395.31 237.65 394.49 237.89 393.6H241.05V393.59ZM258.59 392.73C258.62 392.55 258.66 392.37 258.69 392.19C257.64 391.9 256.58 391.38 255.55 391.42C255.09 391.44 254.61 392.54 254.25 393.2C253.98 393.69 253.8 394.26 253.72 394.81C253.55 396.01 253.48 397.23 253.37 398.44H257.22V397.77H253.8C254.03 396.8 254.22 396.03 254.39 395.28C255.66 395.17 256.82 395.08 257.99 394.98C257.97 394.79 257.95 394.6 257.94 394.41H254.97C254.62 390.53 257.25 393 258.59 392.72M238.48 412.26C237.99 409.33 240.39 409.41 242.27 409.21C241.27 408.63 239.75 408.11 239.78 407.69C239.91 405.49 241.87 406.7 243.15 406.39C241.37 404.93 239.56 405.32 238.95 407.16C238.44 408.72 237.88 410.26 237.52 411.86C237.43 412.26 238.01 413.23 238.26 413.22C239.37 413.18 240.48 412.88 241.58 412.68C241.56 412.54 241.54 412.41 241.52 412.27H238.48V412.26ZM264.79 99.01C264.92 98.83 265.04 98.64 265.17 98.46C264.21 97.92 263.27 97.02 262.29 96.97C261.49 96.93 260.38 97.72 259.85 98.46C258.75 100 259.51 103.49 261.15 104.42C261.89 104.83 263.17 104.86 263.91 104.48C264.5 104.18 264.66 103 265.01 102.21C264.8 102.13 264.59 102.04 264.38 101.96C264.19 102.39 264 102.83 263.8 103.26C263.37 104.2 262.74 104.42 261.82 103.88C260.43 103.05 259.72 100.2 260.58 98.79C261.35 97.53 262.43 97.58 264.42 98.95C264.51 99.01 264.66 98.99 264.78 99.01M247.02 97.84C248.15 97.58 249.06 97.37 249.98 97.16C249.91 96.89 249.83 96.62 249.76 96.35C248.59 96.66 246.43 96.91 246.41 97.28C246.28 99.58 246.45 101.96 247 104.19C247.1 104.6 249.4 104.47 250.69 104.59C250.71 104.35 250.73 104.11 250.74 103.87C249.66 103.81 248.57 103.75 247.39 103.69C247.31 102.69 247.23 101.78 247.17 101.06C248.05 100.98 248.78 100.92 249.51 100.86C249.51 100.73 249.51 100.61 249.5 100.48C248.68 100.25 247.87 100.02 247.02 99.79V97.84ZM227.99 413.1C231.3 414.02 234.11 411.06 233.38 408.3C233.15 407.43 231.87 406.85 231.07 406.13C230.59 406.67 229.91 407.14 229.67 407.77C229.02 409.47 228.56 411.23 227.99 413.1ZM284.53 99.91C284.74 99.83 284.95 99.74 285.16 99.66C284.85 98.99 284.54 97.76 284.24 97.76C283.2 97.77 281.86 97.91 281.21 98.57C280.4 99.39 280.53 100.73 281.65 101.58C282.36 102.12 283.15 102.55 283.81 103.14C284.09 103.39 284.36 104.07 284.22 104.26C283.99 104.6 283.23 104.99 283.04 104.86C282.33 104.36 281.76 103.66 281.1 102.99C280.48 103.92 280.69 105.1 281.78 105.5C282.64 105.82 284.11 105.65 284.75 105.08C285.64 104.29 285.21 103.06 284.2 102.31C283.55 101.82 282.72 101.51 282.18 100.92C281.82 100.53 281.66 99.77 281.72 99.22C281.76 98.91 282.43 98.44 282.81 98.45C283.25 98.45 283.71 98.87 284.11 99.18C284.31 99.34 284.39 99.65 284.52 99.9M290.41 391.3C291.14 393.02 291.76 394.5 292.63 396.57C294.14 393.99 294.65 391.68 294.89 389.27C294.32 390.02 293.99 390.85 293.69 391.7C293.39 392.57 293.12 393.45 292.76 394.57C292.13 393.09 291.71 391.9 291.11 390.8C290.95 390.51 289.86 390.37 289.85 390.4C289.22 392.04 288.66 393.71 288.09 395.37C288.31 395.45 288.53 395.52 288.75 395.6C289.26 394.26 289.78 392.93 290.41 391.28M264.69 394.12C264.72 391.71 263.06 391.67 261.64 391.61C261.01 391.58 259.97 392.03 259.77 392.53C259.19 393.98 258.89 395.54 258.62 397.09C258.56 397.46 258.99 398.2 259.32 398.29C261.57 398.91 264.74 396.25 264.69 394.12ZM252.99 96.56V104.65C253.17 104.65 253.34 104.64 253.52 104.63V97.17C254.66 97.79 255.38 98.18 256.11 98.58C255.45 99.25 254.8 99.93 254.4 100.34C254.98 101.24 255.69 102.13 256.15 103.13C256.76 104.44 257.07 104.65 258.45 104.15C256.63 103.14 256.24 101.73 256.91 99.58C257.08 99.02 256.76 97.9 256.32 97.64C255.35 97.08 254.16 96.9 253 96.55M272.01 100.47C272.01 98.22 271.2 96.86 269.84 96.82C267.97 96.77 266.26 98.63 266.24 100.74C266.21 102.9 267.6 104.77 269.2 104.75C270.82 104.72 271.99 103.01 272.01 100.66C272.01 100.6 272.01 100.53 272.01 100.47ZM279.58 105.17C279.74 105.05 279.89 104.93 280.05 104.81C279.07 103.17 277.82 101.71 278.87 99.52C279.4 98.41 278.36 97.47 277.16 97.25C276.39 97.11 275.57 97.22 274.99 97.22V105.02C275.16 105.02 275.32 105 275.49 104.99C275.49 103.01 275.44 101.03 275.54 99.06C275.56 98.69 276.3 98.01 276.54 98.07C277.12 98.23 277.61 98.75 278.13 99.13C277.8 99.51 277.52 99.96 277.13 100.26C276.74 100.55 276.24 100.67 276.2 100.69C276.96 101.77 277.58 102.69 278.25 103.58C278.66 104.13 279.14 104.64 279.59 105.16M272.45 411.02C272.72 411.02 272.99 411.02 273.26 411.02C273.99 408.38 274.71 405.74 275.44 403.11C275.2 403.04 274.96 402.96 274.72 402.89C274.13 404.9 273.55 406.92 272.85 409.32C272.07 407.17 271.42 405.36 270.77 403.56C270.53 403.58 270.3 403.61 270.06 403.63C269.4 406.01 268.74 408.4 268.07 410.78C268.3 410.85 268.53 410.92 268.77 410.99C269.32 409.14 269.87 407.28 270.49 405.18C271.21 407.33 271.83 409.18 272.44 411.03M255.43 409.94C255.43 408.93 255.53 408.4 255.41 407.92C255.16 406.87 254.79 405.86 254.47 404.83C254 405.72 253.42 406.57 253.07 407.5C252.47 409.08 252 410.71 251.47 412.32C251.69 412.4 251.91 412.47 252.13 412.54C252.78 410.74 253.43 408.94 254.08 407.14C254.19 407.17 254.3 407.2 254.41 407.23C254.59 408.61 254.77 409.99 254.96 411.37C255.17 411.37 255.38 411.39 255.59 411.4C256.46 410.02 257.34 408.63 258.48 406.82C258.05 408.76 257.73 410.17 257.41 411.58C257.66 411.63 257.91 411.68 258.16 411.73C258.79 409.24 259.42 406.75 260.05 404.26C259.8 404.17 259.55 404.08 259.3 404C258.11 405.83 256.91 407.66 255.42 409.95M240.1 148.06C240.06 148.27 240.02 148.49 239.98 148.7C240.73 148.91 241.56 148.99 242.19 149.39C242.72 149.72 243.35 150.42 243.38 150.98C243.6 155.27 243.59 159.56 243.84 163.85C244.01 166.64 243.58 168.92 240.54 169.86C240.5 169.87 240.51 170.09 240.48 170.49C243.55 170.2 246.57 169.91 250.12 169.57C249.42 169.01 249.14 168.58 248.83 168.57C247.17 168.48 246.81 167.57 246.78 166.06C246.67 161.32 246.46 156.59 246.21 151.86C246.13 150.29 246.21 149.08 248.24 149.1C248.69 149.1 249.15 148.71 249.6 148.5C249.57 148.36 249.54 148.21 249.51 148.07H240.11L240.1 148.06ZM268.92 164.11C268.73 164.09 268.54 164.06 268.35 164.04C268.13 164.87 267.89 165.7 267.69 166.54C267.25 168.41 265.78 169.12 264.16 169.22C262.3 169.33 260.26 169.55 258.86 167.82C258.61 167.51 258.52 167 258.51 166.58C258.37 162.1 258.33 157.61 258.1 153.14C257.98 150.8 258.2 148.88 260.99 148.4C261.03 148.4 261.04 148.18 261.15 147.6C258.22 147.79 255.42 147.96 252.45 148.15C252.69 148.64 252.73 148.76 252.81 148.84C252.9 148.93 253.02 149.02 253.14 149.03C255.59 149.21 255.36 150.9 255.31 152.65C255.23 155.39 255.42 158.15 255.31 160.89C255.18 164.03 256.78 167.8 252.5 169.63C252.44 169.66 252.46 169.86 252.4 170.29C253.48 170.23 254.5 170.12 255.52 170.11C259.43 170.09 263.34 170.1 267.25 170.11C268.15 170.11 268.95 170.05 268.94 168.84C268.93 167.27 268.94 165.69 268.94 164.12M237.73 204.08C237.73 198.88 237.73 194.02 237.73 189.15C237.73 186.61 237.22 183.85 240.64 182.81H232.34C232.21 183.01 232.07 183.21 231.94 183.4C234.98 183.85 234.61 185.93 234.61 187.86C234.6 192.48 234.56 197.09 234.63 201.71C234.66 203.26 234.3 204.38 232.6 204.76C233.76 205.71 243.59 205.51 248.24 204.49C248.07 202.93 247.9 201.34 247.73 199.76C247.56 199.76 247.38 199.76 247.21 199.76C245.4 203.87 241.64 203.61 237.74 204.08M192.67 164.03C192.48 164.01 192.28 163.99 192.09 163.96C191.21 165.97 190.99 168.52 187.87 168.55C185.63 168.57 183.38 168.86 181.41 169.01V147.72C182.51 147.72 183.41 147.81 184.29 147.68C184.76 147.61 185.18 147.17 185.63 146.9C185.19 146.65 184.74 146.19 184.3 146.2C181.3 146.26 178.31 146.39 175.32 146.59C174.86 146.62 174.43 147.14 173.99 147.43C174.08 147.62 174.17 147.82 174.26 148.01C174.95 148.05 175.66 148.2 176.32 148.09C177.93 147.82 178.34 148.59 178.31 150.02C178.27 151.75 178.35 153.48 178.35 155.21C178.35 159.87 178.35 164.53 178.35 169.13C177.07 169.29 176.1 169.4 175.14 169.52C175.16 169.61 175.18 169.7 175.2 169.8H192.28C192.42 167.7 192.55 165.87 192.67 164.04M312.03 184.48C312.03 188.72 312.06 192.88 312.02 197.05C311.99 199.61 312.77 202.46 309.25 204.26C310.25 204.34 310.61 204.38 310.97 204.39C314.49 204.51 318 204.62 321.52 204.75C324.59 204.87 324.61 204.86 324.83 201.78C324.86 201.34 325.1 200.9 325.06 200.48C325.03 200.08 324.76 199.69 324.58 199.26C323.83 200.55 323.37 202.35 322.58 202.51C320.41 202.94 318.1 202.75 315.85 202.64C315.49 202.62 314.9 201.74 314.87 201.24C314.77 198.89 314.82 196.53 314.82 194.2C317.833 193.753 319.747 194.427 320.56 196.22C321.71 193.56 321.67 190.82 320.46 189.45C319.35 192.75 318.28 193.34 314.9 192.52V184.01C316.74 183.87 318.5 183.66 320.27 183.61C322.46 183.55 322.65 185.75 323.79 187.01C324.03 185.64 324.13 184.37 323.97 183.13C323.92 182.73 323.18 182.11 322.77 182.13C318.69 182.29 314.62 182.55 310.55 182.84C309.76 182.9 308.99 183.25 308.21 183.46C308.23 183.58 308.25 183.71 308.27 183.83C309.45 184.03 310.64 184.24 312.03 184.48ZM327.22 148.16C327.07 148.06 326.92 147.95 326.77 147.85C326 149.49 325.1 149.19 323.8 148.62C322.36 147.99 320.62 147.49 319.11 147.68C315.79 148.1 313.62 150.2 312.59 153.41C311.2 157.78 311.49 162.13 312.73 166.48C314.05 171.15 318.94 172.54 322.48 171.42C323.91 170.97 325.39 170.7 327.11 170.29C327 168.08 327.61 165.36 326.17 162.39C325.89 163.72 325.76 164.6 325.51 165.44C324.95 167.39 324.15 169.24 321.88 169.65C319.5 170.09 317.1 168.9 316.09 166.51C313.95 161.48 313.53 154.77 318.43 150.39C320.82 148.25 323.49 148.6 324.92 151.52C325.22 152.14 325.32 152.85 325.58 153.49C325.77 153.97 326.07 154.41 326.31 154.86C326.48 154.82 326.65 154.78 326.82 154.74C326.95 152.54 327.08 150.35 327.22 148.15M225.08 168.62C226.59 169.19 227.8 169.47 228.83 170.06C231.83 171.79 235.91 170.72 237.58 167.67C239.27 164.58 238.16 160.63 234.82 158.36C233.45 157.43 231.88 156.82 230.44 155.99C228.39 154.82 227.64 152.91 228.58 150.78C229.18 149.41 230.2 148.36 231.96 148.44C233.64 148.51 234.73 149.15 235.04 150.91C235.21 151.89 235.52 152.84 235.77 153.81C235.99 153.78 236.2 153.74 236.42 153.71C236.32 151.51 236.22 149.31 236.1 146.7C235.57 147.39 235.3 147.74 235.08 148.02C234.07 147.66 233.21 147.26 232.29 147.04C229.91 146.46 226.45 148.03 225.77 149.93C224.51 153.46 225.61 156.58 228.86 158.52C229.79 159.08 230.78 159.54 231.77 159.99C234.29 161.14 235.34 163.17 235.35 165.84C235.35 167.38 233.96 169.1 232.27 169.58C230.68 170.04 229.74 169.3 229.1 167.89C228.27 166.06 227.41 164.25 226.51 162.46C226.29 162.02 225.82 161.7 225.09 160.94V168.61L225.08 168.62ZM211.84 163.57C209.8 168.49 206.93 170.01 201.05 169.12C201.05 166.17 201.03 163.23 201.07 160.28C201.07 159.83 201.16 159.2 201.46 158.96C203.03 157.69 205.55 158.64 206.12 160.63C206.29 161.22 206.55 161.79 206.92 162.79V154.09C204.94 157.11 203.75 157.65 200.88 157.09V148.01C204.15 148.84 208.27 146.09 210.22 151.06V147.27H194.61C194.61 147.52 194.59 147.77 194.58 148.02C195.66 148.08 196.74 148.14 197.91 148.2V169.06C197.16 169.34 196.42 169.61 195.23 170.06C200.83 170.06 205.83 170.1 210.84 170C211.29 170 212.1 169.15 212.11 168.67C212.17 166.97 211.95 165.27 211.84 163.57ZM259.14 204.65H267.97C267.38 203.61 266.61 202.65 266.24 201.56C264.26 195.75 262.4 189.91 260.45 184.1C260.23 183.43 259.7 182.87 259.11 181.93C258.45 183.14 257.93 183.82 257.7 184.58C256.13 189.73 254.56 194.88 253.14 200.07C252.61 202.01 252.23 203.84 249.91 204.33C249.84 204.34 249.82 204.54 249.6 205.08C251.9 204.93 254 204.79 255.92 204.66C255.36 203.8 254.34 202.96 254.44 202.27C254.73 200.25 255.46 198.29 255.99 196.41H259.81C260.28 197.7 260.69 198.85 261.1 199.99C262.16 202.89 262.06 203.19 259.13 204.65M341.05 156.13C339.5 158.9 338.48 159.37 335.45 158.62C335.45 156.3 335.45 154 335.45 151.7C335.45 151.2 335.52 150.71 335.55 150.24C341.11 149.76 342.4 149.73 344.08 154.72C345.4 153.47 344.64 151.93 344.83 150.59C345 149.4 344.55 148.83 343.24 148.85C340.16 148.92 337.08 148.81 334 148.9C332.61 148.94 331.22 149.27 329.83 149.46C329.72 149.63 329.61 149.8 329.51 149.97C332.73 149.63 332.53 151.54 332.48 153.52C332.39 157.5 332.28 161.48 332.51 165.45C332.65 167.94 332.1 169.79 329.91 171.06C329.86 171.09 329.91 171.29 329.91 171.64C335.48 171.27 341.04 170.89 346.81 170.51C346.47 168.07 347.44 165.69 345.92 163.56C345.59 165.61 345.29 167.76 343.05 168.38C340.72 169.02 338.26 169.18 335.73 169.57C335.55 166.71 335.31 164.36 335.31 162C335.31 161.37 335.91 160.36 336.47 160.16C338.54 159.42 339.63 160.14 340.22 162.27C340.3 162.57 340.47 162.85 340.6 163.14C340.76 163.11 340.91 163.09 341.07 163.06V156.14L341.05 156.13ZM276.66 158.51C276.66 155.49 276.63 152.68 276.7 149.88C276.7 149.55 277.33 148.95 277.63 148.97C280.3 149.17 283.03 149.35 284.92 151.65C285.37 152.2 285.68 152.87 286.06 153.48C286.25 153.45 286.44 153.42 286.64 153.39C286.64 152.02 286.59 150.65 286.66 149.28C286.71 148.14 286.33 147.67 285.13 147.68C280.7 147.73 276.27 147.66 271.84 147.75C271.09 147.77 270.35 148.36 269.6 148.69C269.68 148.91 269.75 149.12 269.83 149.34H273.75V168.65C272.77 168.89 271.77 169.14 270.78 169.39C270.83 169.59 270.88 169.78 270.93 169.98C272.9 170.14 274.86 170.45 276.83 170.44C280.35 170.42 283.87 170.23 287.39 170.06C287.77 170.04 288.47 169.7 288.46 169.55C288.3 167.79 288.03 166.03 287.79 164.28C284.94 168.59 282.24 169.72 276.81 168.65V159.34C279.56 159.25 282.43 158.53 283.33 162.28V155.54C283.17 155.52 283.01 155.5 282.86 155.47C282.7 155.98 282.63 156.53 282.37 156.98C282.13 157.41 281.74 157.98 281.34 158.05C279.9 158.29 278.42 158.35 276.67 158.5M305.19 170.96C305.49 170.86 305.79 170.77 306.1 170.67C306.17 165.11 306.28 159.55 306.28 154C306.28 151.79 306.17 149.62 308.72 148.4C308.62 148.27 308.52 148.13 308.43 148H302.14C303.05 148.94 304.57 149.77 304.61 150.66C304.78 154.69 304.53 158.73 304.43 162.77C304.23 162.81 304.02 162.85 303.82 162.89C301.31 158.44 298.81 153.99 296.29 149.54C295.26 147.73 291.66 147.4 290.53 148.57C291.1 149.61 291.88 150.44 292.01 151.36C292.23 152.9 292.02 154.51 292.01 156.09C292.01 160.43 292.01 164.78 292.01 168.92C291.01 169.27 290.55 169.44 290.08 169.6C290.1 169.75 290.12 169.89 290.15 170.04C292.13 170.16 294.11 170.29 296.56 170.44C296.02 169.75 295.91 169.46 295.79 169.46C293.21 169.42 293.1 167.64 293.19 165.75C293.31 163.13 293.4 160.51 293.6 157.89C293.74 156.14 294.04 154.39 294.3 152.43C298.05 158.83 301.62 164.9 305.18 170.97M199.7 183.83V203.33C198.28 203.66 196.87 203.99 195.46 204.32C195.51 204.6 195.56 204.88 195.6 205.16H213.69V198.24C211.14 202.58 207.41 203.87 202.78 203.52V194.03C205.61 193.92 208.52 193.21 209.63 196.82V189.08C208.63 190.21 207.98 191.54 206.99 191.91C205.76 192.36 204.24 192.02 202.76 192.02V183.57C204.98 183.57 207.15 183.29 209.21 183.65C211.49 184.04 212.51 186.04 213.22 188.24C213.54 186.5 213.63 184.87 213.49 183.26C213.45 182.83 212.74 182.14 212.33 182.13C207.71 182.03 203.09 182.03 198.47 182.05C197.95 182.05 197.43 182.33 196.91 182.48C196.9 182.63 196.89 182.77 196.87 182.92C197.79 183.22 198.7 183.51 199.7 183.84M330.54 183.61C330.54 188.85 330.43 193.91 330.59 198.96C330.66 201.26 330.25 202.96 327.86 203.69C327.81 203.71 327.8 203.89 327.72 204.23C330.68 205.26 333.68 204.62 336.71 204.53C336.32 203.97 335.8 203.66 335.4 203.24C334.77 202.57 333.79 201.85 333.73 201.09C333.53 198.37 333.65 195.63 333.65 192.68C334.74 192.88 335.54 193.06 336.34 193.16C337.72 193.34 338.8 193.88 339.02 195.41C339.18 196.54 339.22 197.7 339.44 198.82C339.7 200.18 339.84 201.64 340.47 202.82C341.37 204.5 343.98 204.87 346.85 203.98C346.45 203.73 346.16 203.41 345.87 203.41C343.88 203.37 343.73 202.22 343.59 200.51C343.33 197.13 342.84 193.68 338.77 192.3C341.38 191.57 342.75 190.22 342.92 188.35C343.16 185.52 341.83 183.25 338.81 182.91C335.46 182.53 332.01 182.96 328.61 183.08C328.14 183.1 327.69 183.36 327.22 183.51C327.26 183.67 327.3 183.82 327.34 183.98C328.52 183.84 329.69 183.71 330.53 183.62M174.35 182.25C174.3 182.48 174.25 182.71 174.19 182.94C174.84 183.15 175.49 183.43 176.16 183.55C177.59 183.81 178.59 184.58 178.62 186.03C178.74 190.97 178.78 195.91 178.75 200.85C178.75 202.74 177.49 203.86 175.62 203.99C175.14 204.02 174.66 204.15 174.18 204.24C174.2 204.42 174.22 204.6 174.24 204.78C177.47 204.78 180.71 204.8 183.94 204.78C187.68 204.76 190.88 203.48 192.7 200.1C193.64 198.36 194.29 196.28 194.38 194.32C194.57 190.45 193.47 186.85 190.25 184.35C185.33 180.52 179.72 182.31 174.34 182.27M294.33 197.73C292.86 193.01 291.52 188.63 290.1 184.27C289.89 183.63 289.32 182.66 288.86 182.63C286.98 182.5 285.08 182.68 283.18 182.75C283.18 182.96 283.16 183.18 283.15 183.39C283.76 183.65 284.36 183.91 285.24 184.28C285.44 189 285.8 193.85 285.79 198.7C285.79 200.79 285.66 203.26 282.72 204.18C285.15 205.08 287.61 204.56 289.59 204.82C288.84 203.25 287.59 201.74 287.49 200.16C287.2 195.7 287.39 191.22 287.39 187C287.36 186.95 287.55 187.19 287.63 187.46C289.1 192.37 290.54 197.3 292.06 202.2C292.32 203.03 292.91 203.75 293.35 204.53C293.55 204.46 293.74 204.39 293.94 204.32C295.74 198.86 297.54 193.39 299.34 187.93C299.77 190.81 299.82 193.57 299.75 196.33C299.68 199.16 300.7 202.31 297.39 204.49C299.86 204.79 302.13 204.81 304.4 204.76C304.77 204.76 305.13 204.45 305.5 204.29C305.25 203.98 305.05 203.56 304.73 203.37C303.38 202.58 302.83 201.46 302.83 199.9C302.83 196.37 302.86 192.83 302.62 189.31C302.44 186.57 302.81 184.35 305.8 183.41C305.84 183.4 305.83 183.19 305.87 182.78C304.08 182.78 302.32 182.84 300.56 182.76C299.16 182.69 298.53 183.28 298.16 184.62C296.99 188.88 295.69 193.11 294.33 197.75M269.04 307.27C268.37 305.74 268.07 303.3 266.86 302.72C265.5 302.06 263.34 303.08 261.23 303.41C260.87 302.2 260.52 300.65 259.94 299.2C259.41 297.9 259.91 297.15 260.89 296.44C262.24 295.47 263.58 294.48 264.87 293.43C265.21 293.15 265.62 292.4 265.5 292.24C265.2 291.86 264.63 291.5 264.16 291.47C262.56 291.39 260.95 291.37 259.35 291.49C258.2 291.58 257.72 291.04 257.46 290.07C257.02 288.41 256.65 286.73 256.1 285.11C255.86 284.4 255.26 283.8 254.82 283.15C254.31 283.73 253.61 284.23 253.31 284.9C252.56 286.59 252.08 288.39 251.3 290.06C251.02 290.65 250.27 291.28 249.64 291.41C248.03 291.74 246.37 291.81 244.41 292.01C245.71 294.66 248.87 294.95 250.38 297.09C249.44 299.19 248.46 301.26 247.62 303.39C247.39 303.98 247.58 304.74 247.58 305.42C248.25 305.25 248.98 305.19 249.57 304.86C250.29 304.46 250.85 303.8 251.53 303.32C256.12 300.08 254.63 299.95 258.64 303.75C258.78 303.88 258.92 304.01 259.04 304.16C260.19 305.62 261.41 306.01 263.13 304.88C264 304.31 265.23 304.28 266.3 304.01C266.51 305.25 266.73 306.49 266.91 307.73C266.94 307.96 266.76 308.22 266.74 308.47C266.54 310.63 266.32 312.79 266.21 314.96C266.19 315.42 266.6 315.91 266.82 316.39C267.16 316 267.65 315.67 267.82 315.22C268.5 313.44 268.94 311.55 269.75 309.84C270.55 308.13 271.69 306.58 272.67 304.97C272.87 305.07 273.07 305.17 273.27 305.27C272.93 308.73 272.59 312.18 272.24 315.64C272.49 315.75 272.75 315.86 273 315.97C273.43 315.37 274.03 314.83 274.27 314.17C275.46 310.91 277.02 307.9 279.53 305.43C278.94 308.52 278.16 311.54 277.51 314.58C277.37 315.25 277.55 316.55 277.83 316.63C278.59 316.83 279.64 316.78 280.3 316.38C281.65 315.55 282.86 314.46 284.03 313.38C284.36 313.08 284.38 312.43 284.54 311.95C284.03 311.98 283.39 311.82 283.03 312.06C281.79 312.91 280.66 313.9 279.16 315.09C279.46 313.77 279.7 312.85 279.88 311.93C280.35 309.56 280.86 307.2 281.22 304.82C281.3 304.3 280.92 303.26 280.63 303.21C279.97 303.1 279.17 303.34 278.55 303.67C278.08 303.92 277.77 304.5 277.43 304.96C276.58 306.1 275.75 307.25 274.8 308.56C274.8 306.97 274.94 305.63 274.74 304.34C274.65 303.73 273.99 302.92 273.42 302.75C272.97 302.61 272.11 303.17 271.7 303.64C270.64 304.9 269.74 306.28 269.03 307.26M138.6 37.94C142.81 37.94 146.66 37.86 150.5 37.96C157.29 38.14 164.08 38.36 170.86 38.68C188.73 39.51 206.59 40.43 224.46 41.25C237.74 41.86 251.02 42.35 264.3 42.93C280.34 43.63 296.37 44.39 312.4 45.1C322.53 45.55 332.67 45.93 342.81 46.38C356.15 46.96 369.49 47.57 382.83 48.18C385.06 48.28 385.69 48.93 385.75 51.1C386.12 65.29 386.48 79.48 386.83 93.67C387.31 113.19 387.79 132.71 388.25 152.23C388.71 171.94 389.12 191.66 389.59 211.37C390.36 244.25 391.15 277.12 391.93 310C392.43 331 392.93 351.99 393.43 372.99C394.08 400.15 394.73 427.31 395.37 454.47C395.45 457.63 394.56 458.48 391.38 458.77C380.77 459.73 370.17 460.77 359.57 461.75C349.35 462.7 339.12 463.62 328.9 464.57C318.55 465.54 308.21 466.55 297.86 467.52C287.7 468.47 277.54 469.38 267.39 470.34C257.04 471.31 246.7 472.31 236.35 473.28C227.54 474.11 218.72 474.9 209.9 475.73C200.96 476.57 192.02 477.43 183.08 478.27C174.27 479.1 165.45 479.91 156.63 480.73C153.95 480.98 151.27 481.23 148.43 481.5C148.26 477.94 148 474.44 147.93 470.95C147.74 460.81 147.65 450.66 147.47 440.52C147.25 428.58 146.96 416.65 146.71 404.71C146.45 392.64 146.19 380.58 145.93 368.51C145.68 356.7 145.42 344.89 145.17 333.08C144.91 321.01 144.65 308.95 144.39 296.88C144.14 285.07 143.88 273.26 143.63 261.45C143.37 249.45 143.11 237.45 142.85 225.45C142.59 213.51 142.34 201.58 142.09 189.64C141.83 177.7 141.58 165.77 141.32 153.83C141.06 141.83 140.8 129.83 140.54 117.83C140.28 105.96 140.03 94.09 139.78 82.22C139.52 70.15 139.27 58.09 138.99 46.02C138.93 43.28 138.73 40.54 138.6 37.96" fill="white"/>
<path d="M128.27 89.3898C127.23 88.4298 126.64 87.4198 126.01 87.3898C124.81 87.3398 123.71 88.1698 124.03 89.5398C124.22 90.3398 125.15 90.9598 125.74 91.6598C126.44 91.0298 127.14 90.3998 128.26 89.3898M131.76 297.07C131.76 297.07 131.82 297.07 131.85 297.07C131.69 294.06 131.46 291.05 131.37 288.04C131.08 277.84 130.84 267.64 130.58 257.44C130.33 247.82 130.07 238.2 129.82 228.57C129.56 218.43 129.3 208.3 129.04 198.16C128.79 188.48 128.5 178.79 128.28 169.1C127.99 156.33 127.75 143.56 127.47 130.79C127.4 127.65 127.27 124.51 127.08 121.37C127.05 120.93 126.57 120.52 126.29 120.09C126.03 120.53 125.71 120.95 125.53 121.42C125.42 121.7 125.52 122.05 125.53 122.37C125.78 130.77 126.04 139.17 126.28 147.58C126.55 157.27 126.79 166.95 127.05 176.64C127.31 186.71 127.57 196.78 127.83 206.86C128.08 216.61 128.34 226.36 128.59 236.11C128.85 246.12 129.11 256.13 129.37 266.13C129.62 275.94 129.9 285.76 130.13 295.57C130.41 307.06 130.63 318.54 130.93 330.02C131.28 343.56 131.71 357.09 132.05 370.62C132.25 378.32 132.32 386.02 132.52 393.72C132.54 394.33 133.11 394.92 133.43 395.53C133.71 394.91 134.26 394.28 134.24 393.67C133.96 382.9 133.6 372.12 133.29 361.35C133.01 351.73 132.75 342.11 132.53 332.48C132.25 320.68 132.02 308.87 131.77 297.07M141.34 470.61H130.66C130.66 467.04 130.73 463.47 130.65 459.9C130.25 441.28 129.84 422.66 129.39 404.05C128.81 380.42 128.18 356.8 127.6 333.18C127.25 319.06 126.99 304.93 126.65 290.81C126.02 264.04 125.36 237.27 124.71 210.5C124.21 189.96 123.71 169.41 123.21 148.87C122.54 121.52 121.88 94.1698 121.21 66.8198C121.06 60.5898 120.83 54.3698 120.72 48.1398C120.71 47.4598 120.97 46.4698 121.46 46.1398C124.5 44.1098 127.79 42.6198 131.57 42.0498C131.74 45.9698 131.98 49.7898 132.06 53.6098C132.26 63.1698 132.35 72.7398 132.54 82.2998C132.76 93.4698 133.04 104.63 133.29 115.79C133.55 127.15 133.81 138.51 134.07 149.86C134.33 161.02 134.58 172.19 134.84 183.35C135.1 194.71 135.36 206.07 135.62 217.42C135.88 228.58 136.13 239.75 136.38 250.91C136.64 262.27 136.9 273.62 137.16 284.98C137.42 296.21 137.67 307.44 137.93 318.67C138.19 329.96 138.44 341.25 138.7 352.55C138.96 363.84 139.22 375.14 139.48 386.43C139.73 397.53 139.98 408.63 140.24 419.73C140.5 431.22 140.76 442.7 141.03 454.19C141.14 459 141.27 463.81 141.38 468.62C141.39 469.24 141.38 469.87 141.38 470.59" fill="white"/>
<path d="M133.27 37.23C134.64 37.31 135.72 37.38 136.89 37.45C136.96 38.03 137.07 38.52 137.08 39.01C137.22 46.71 137.34 54.42 137.49 62.12C137.75 74.89 138.02 87.66 138.3 100.44C138.54 111.54 138.79 122.65 139.03 133.75C139.31 146.59 139.58 159.42 139.86 172.26C140.1 183.36 140.34 194.47 140.58 205.57C140.85 218.34 141.12 231.12 141.4 243.89C141.64 255.12 141.89 266.35 142.13 277.58C142.4 290.23 142.67 302.87 142.94 315.51C143.18 326.74 143.43 337.97 143.67 349.21C143.94 361.92 144.21 374.63 144.48 387.34C144.72 398.57 144.97 409.8 145.21 421.03C145.48 433.55 145.72 446.06 146.02 458.58C146.19 465.83 146.47 473.08 146.69 480.33C146.7 480.71 146.64 481.09 146.6 481.66C145.58 481.75 144.59 481.85 143.52 481.95C143.44 481.49 143.34 481.19 143.33 480.88C143.19 474.85 143.05 468.82 142.93 462.78C142.77 454.24 142.66 445.71 142.48 437.17C142.25 426 141.97 414.84 141.72 403.67C141.46 392.31 141.21 380.95 140.95 369.59C140.69 358.36 140.44 347.13 140.18 335.9C139.92 324.54 139.66 313.18 139.4 301.82C139.15 290.72 138.89 279.62 138.64 268.51C138.38 257.02 138.12 245.53 137.85 234.05C137.6 223.08 137.35 212.1 137.1 201.13C136.84 189.64 136.58 178.16 136.31 166.67C136.06 155.57 135.8 144.47 135.55 133.36C135.29 121.94 135.03 110.52 134.77 99.09C134.52 87.92 134.28 76.76 134 65.59C133.78 56.86 133.52 48.14 133.27 39.41C133.25 38.78 133.27 38.15 133.27 37.23Z" fill="white"/>
<path d="M132.66 476.58C133.38 477.38 133.83 477.89 134.29 478.4C134.76 477.73 135.43 477.11 135.63 476.37C135.73 476.02 134.94 475.43 134.55 474.94C134.01 475.41 133.47 475.88 132.67 476.58M141.6 477.28V481.97C138.67 481.79 135.81 481.64 132.96 481.41C131.54 481.3 130.83 480.65 131.04 478.99C131.24 477.35 131.08 475.67 130.98 474.01C130.9 472.78 131.33 472.25 132.6 472.27C135.1 472.31 137.6 472.31 140.1 472.27C141.88 472.24 141.6 473.61 141.58 474.57C141.58 474.96 140.69 475.48 140.12 475.67C139.54 475.86 138.83 475.62 138.22 475.76C137.58 475.91 137 476.28 136.39 476.55C137.03 476.8 137.66 477.18 138.32 477.26C139.33 477.38 140.36 477.29 141.63 477.29" fill="white"/>
<path d="M156.43 36.1298C157.6 34.4898 160.5 33.6298 162.6 34.2198C165.17 34.9398 167.73 35.6398 170.31 36.3098C170.73 36.4198 171.26 36.4798 171.64 36.3098C174.97 34.8798 177.57 37.4598 180.58 37.6998C180.56 37.8998 180.55 38.0998 180.53 38.3098C172.1 37.9598 163.68 37.6198 155.25 37.2698L155.27 36.8998C158.04 36.7598 160.81 36.6298 163.8 36.4798C161.32 34.7998 158.85 36.1398 156.43 36.1298Z" fill="white"/>
<path d="M120.7 44.1896C120.38 41.6496 121.05 40.4596 123.56 39.7096C126.12 38.9396 128.72 38.2996 131.35 37.5996C131.96 39.4296 131.74 40.2096 129.9 40.7396C126.75 41.6496 123.74 43.0296 120.7 44.1996" fill="white"/>
<path d="M249.86 302.33C250.48 300.93 250.87 299.79 251.45 298.77C252.44 297.03 252.08 295.77 250.35 294.82C249.8 294.52 249.3 294.12 248.26 293.41C253.52 293.79 252.96 289.48 254.63 286.63C255.04 287.91 255.54 288.98 255.72 290.11C256.07 292.32 257.24 293.35 259.47 293.22C260.23 293.18 260.99 293.22 262.29 293.22C259.39 295.24 256.55 297.02 258.66 301.2C255 296.8 252.78 300.85 249.86 302.34" fill="white"/>
<path d="M181.45 189.67C181.45 188.71 181.32 187.73 181.48 186.79C181.68 185.66 180.5 184.05 182.7 183.54C185.43 182.89 187.59 183.21 188.33 185.25C189.29 187.88 189.81 190.71 190.22 193.5C190.59 195.98 190 198.37 188.9 200.7C187.89 202.84 186.11 203.59 184.09 203.93C182.65 204.17 181.85 203.2 181.84 201.76C181.81 197.73 181.84 193.7 181.84 189.67C181.71 189.67 181.58 189.67 181.45 189.67Z" fill="white"/>
<path d="M333.83 183.71C337.19 183.45 340.06 185.44 340.19 187.89C340.3 189.86 337.24 191.67 333.83 191.56V183.71Z" fill="white"/>
<path d="M256.21 194.81C256.81 192.68 257.33 190.82 257.99 188.46C258.51 190.77 258.92 192.61 259.38 194.67C258.33 194.72 257.41 194.76 256.21 194.81Z" fill="white"/>
<path d="M271.63 100.3C271.19 102.64 270.36 103.91 269.04 103.77C267.12 103.56 267.33 101.96 267.28 100.7C267.21 98.9298 268.52 97.2898 269.69 97.7798C270.54 98.1398 271 99.4198 271.63 100.3Z" fill="white"/>
<path d="M259.45 397.41C259.88 395.71 260.27 394.13 260.69 392.43C261.89 392.63 263.54 391.9 263.85 393.87C264.12 395.56 262.1 397.16 259.45 397.41Z" fill="white"/>
<path d="M229.07 412.5C229.7 410.55 230.26 408.82 230.82 407.12C232.38 407.34 232.9 408.15 232.65 409.41C232.3 411.18 231.25 412.24 229.07 412.5Z" fill="white"/>
<path d="M283.17 394.28C283.23 392.22 284.56 390.77 285.94 390.99C286.47 391.07 287.24 391.78 287.3 392.28C287.45 393.43 285.55 395.27 284.47 395.11C283.92 395.03 283.44 394.46 283.17 394.28Z" fill="white"/>
</g>
</svg>
