<svg width="516" height="516" viewBox="0 0 516 516" fill="none" xmlns="http://www.w3.org/2000/svg">
<mask id="mask0_2541_298" style="mask-type:luminance" maskUnits="userSpaceOnUse" x="21" y="54" width="474" height="408">
<path d="M494.12 54.71H21.8899V461.3H494.12V54.71Z" fill="white"/>
</mask>
<g mask="url(#mask0_2541_298)">
<path d="M432.24 362.79C432.51 362.91 432.79 363.04 433.06 363.16C433.47 361.87 433.89 360.58 434.3 359.29C434.1 359.21 433.89 359.14 433.69 359.06L432.24 362.78M327.6 374.9C326.98 374.31 326.53 373.88 325.92 373.31C325.43 374.73 325.04 375.87 324.64 377.02C324.74 377.07 324.83 377.12 324.92 377.16C325.74 376.46 326.57 375.77 327.59 374.9M340.03 430.51C340.1 430.67 340.17 430.83 340.24 430.99C342.84 430.26 345.43 429.53 348.03 428.8C347.98 428.61 347.92 428.42 347.87 428.23C345.26 428.99 342.64 429.75 340.03 430.51ZM161.3 455.63C160.05 453.07 157.8 454.48 156.02 453.79C155.98 453.95 155.95 454.11 155.91 454.27C157.71 454.72 159.51 455.18 161.31 455.63M281.53 422.44C282.59 419.45 281.63 418.02 279.29 418.87C280.03 420.05 280.75 421.19 281.53 422.44ZM54.9298 363.66C56.3598 363.15 57.5898 362.71 59.2198 362.12C57.1998 361.49 55.5698 360.98 53.6098 360.37C53.9498 361.32 54.1298 361.88 54.3398 362.43C54.4898 362.81 54.6898 363.17 54.9198 363.66M463.04 318.99C462.89 318.83 462.73 318.67 462.57 318.51C461.53 319.31 460.57 320.29 459.42 320.88C458.03 321.58 457.64 322.48 458.25 324.5C460.01 322.48 461.53 320.73 463.04 318.99ZM218.38 457.31C220.9 457 223.25 456.7 225.65 456.41C223.89 454.22 221.65 454.49 218.38 457.31ZM293.93 445.36C295 445.02 295.62 444.79 296.25 444.63C296.95 444.45 297.66 444.28 298.38 444.19C300.9 443.87 301.16 443.4 300.07 440.88C298.17 442.27 296.28 443.65 293.93 445.37M28.0798 325.33C28.5998 322.22 29.7198 318.92 26.2698 316.39C26.9098 319.56 27.4898 322.44 28.0798 325.33ZM320.39 386.56C319.08 388.45 317.9 390.17 316.45 392.25C318.41 391.52 319.92 390.97 321.47 390.39C321.1 389.07 320.78 387.93 320.39 386.56ZM328.97 362.67C327.27 366.78 327.63 368.06 331.21 370.38C330.45 367.76 329.73 365.28 328.97 362.67ZM63.7998 359.39C63.9498 359.39 64.0998 359.4 64.2498 359.41C64.8998 357.14 65.5498 354.86 66.2498 352.42C65.2098 352.32 64.4098 352.25 63.2798 352.14C63.4598 354.75 63.6298 357.07 63.7898 359.39M320.39 415.05C321.89 414.61 323.27 414.21 324.63 413.81C324.24 411.82 322.72 411.47 318.86 412.35C319.34 413.2 319.81 414.03 320.39 415.05ZM264.14 449.88C264.17 449.95 264.2 450.02 264.24 450.09C267.24 449.92 270.25 449.82 273.24 449.53C273.86 449.47 274.41 448.68 274.99 448.22C274.38 447.94 273.68 447.3 273.16 447.42C270.13 448.14 267.14 449.04 264.14 449.87M484.91 260.33C485.23 260.27 485.55 260.21 485.87 260.15C486.13 255.32 486.38 250.5 486.64 245.67C486.49 245.66 486.33 245.65 486.18 245.64C485.49 249.88 484.76 254.12 484.17 258.38C484.09 258.98 484.65 259.68 484.91 260.33ZM51.4698 372.73C51.6498 372.63 51.8298 372.54 52.0098 372.44C50.9598 368.15 49.1598 364.36 45.1098 362.08C44.9398 362.19 44.7798 362.3 44.6198 362.41C46.8998 365.85 49.1898 369.29 51.4698 372.73ZM238.77 393.72C240.1 393.59 241.13 393.56 242.13 393.36C242.48 393.29 242.95 392.8 243 392.45C243.27 390.53 243.48 388.59 243.57 386.65C243.6 386.08 243.14 385.48 242.81 384.65C241.43 387.77 240.18 390.57 238.78 393.73M216.13 426.05C216.24 426.26 216.36 426.47 216.47 426.67C220.26 425.18 224.04 423.69 227.92 422.16C227.66 421.16 227.42 420.25 227.18 419.35C223.42 421.63 219.77 423.84 216.13 426.05ZM454.51 310.75C454.36 310.64 454.21 310.53 454.06 310.42C452.09 311.44 450.12 312.45 447.82 313.64C448.98 315.36 450.02 316.9 451.05 318.43C451.27 318.37 451.49 318.31 451.7 318.25C452.63 315.75 453.57 313.25 454.51 310.75ZM262.46 404.96C264.22 407.45 266.7 408.77 269.59 409.45C271.42 409.88 273.31 410.09 275.08 410.67C276.55 411.15 276.94 410.61 276.98 409.78C272.06 408.15 267.29 406.57 262.45 404.96M407.39 396.96C407.39 396.89 407.39 396.82 407.38 396.75C406.76 396.96 406.13 397.13 405.54 397.4C402.85 398.66 400.27 400.26 397.46 401.14C394.56 402.05 393.61 403.86 393.56 406.51C398.15 403.34 402.77 400.15 407.39 396.96ZM277.83 449.69C282.85 448.49 287.68 447.34 292.51 446.18C292.48 446.07 292.44 445.97 292.41 445.86C287.5 446.09 282.59 446.32 277.6 446.56C277.68 447.59 277.73 448.35 277.83 449.68M403.59 341.37C403.75 341.24 403.91 341.11 404.08 340.98C403.8 340.39 403.64 339.71 403.23 339.23C400.03 335.42 396.81 331.63 393.54 327.89C393.24 327.55 392.56 327.53 392.05 327.37C392.21 327.89 392.23 328.52 392.55 328.9C395.76 332.77 399.02 336.61 402.29 340.44C402.63 340.84 403.16 341.07 403.6 341.38M365.74 413.53C365.22 416.08 364.78 418.28 364.27 420.78C367.15 419.59 369.63 418.56 372.33 417.44C370.08 416.11 368.07 414.92 365.74 413.54M437.02 358.4C438.97 356.72 440.98 355.02 442.95 353.27C443.19 353.05 443.36 352.49 443.26 352.19C442.8 350.84 442.23 349.53 441.52 347.77C439.54 351.52 436.1 354.05 437.03 358.4M37.5998 343.72C39.3598 350.03 42.4198 355.27 47.1998 359.49C46.6198 357.86 45.7498 356.39 44.9698 354.88C43.9598 352.92 42.4898 350.99 42.1698 348.91C41.7398 346.09 40.3098 344.67 37.5998 343.72ZM202.87 457.66C194.71 454.44 187.73 454.77 184.19 458.5C190.57 458.21 196.72 457.94 202.87 457.66ZM455.46 208.48C454.28 209.58 453.3 210.39 452.46 211.32C452.16 211.65 451.96 212.3 452.05 212.74C452.81 216.45 454.85 219.46 457.53 222.37C456.83 217.7 456.17 213.25 455.46 208.47M34.7998 316.26C34.5498 319.17 34.2698 322.09 34.0998 325.01C34.0798 325.38 34.5198 325.9 34.8798 326.16C35.9398 326.93 37.0698 327.62 38.3098 328.43C38.1998 326.14 37.9498 324.14 38.0398 322.16C38.1498 319.67 37.0098 317.89 34.7998 316.26ZM461.84 305.95C465.05 304.21 468.23 302.48 471.42 300.78C475.02 298.86 476.86 295.78 477.42 291.91C472.23 296.59 467.03 301.27 461.84 305.95ZM241.34 432.35C241.5 432.27 241.65 432.18 241.81 432.1C241.81 430.42 241.83 428.73 241.79 427.05C241.79 426.72 241.68 426.19 241.46 426.09C238.64 424.74 235.72 423.82 232.58 424.09C232.49 424.27 232.4 424.45 232.31 424.63L241.34 432.35ZM34.3498 329.54C34.7598 332.14 35.1398 334.63 35.5698 337.1C35.6198 337.4 35.9598 337.74 36.2498 337.88C37.6998 338.55 39.1798 339.15 40.7598 339.82C40.5498 333.95 38.7398 331.04 34.3498 329.54ZM30.5498 263.83C32.7198 260.64 34.8998 257.46 37.0498 254.25C37.2598 253.93 37.2898 253.45 37.2998 253.04C37.3198 250.81 37.3098 248.58 37.3098 246.14C33.9098 251.65 31.8298 257.57 30.5598 263.83M166.66 454.45C170.06 456.51 173.39 458.51 177.46 458.49C179.54 458.48 181.65 457.23 182.56 455.19C177.25 454.95 171.95 454.7 166.66 454.46M455.72 224.81V239.76C457.16 239.24 458.44 238.7 459.75 238.32C460.76 238.03 460.79 237.49 460.72 236.57C460.39 232.13 457.44 228.89 455.72 224.82M62.0598 381.89C62.2198 381.83 62.3798 381.77 62.5398 381.71C60.9698 376.15 60.7898 370.52 61.8198 364.53C60.2198 364.93 58.8998 365.28 57.5798 365.6C56.2598 365.93 55.7698 366.56 56.4198 367.95C57.1298 369.48 57.5998 371.13 58.2398 372.7C59.4898 375.77 60.7898 378.82 62.0598 381.89ZM132.54 443.23C132.64 443.04 132.74 442.85 132.83 442.66C131.54 440.69 130.26 438.71 128.95 436.75C128.79 436.52 128.53 436.22 128.29 436.2C125.37 435.88 122.44 435.6 118.9 435.25C119.32 436.44 119.38 437.63 119.88 437.86C124.05 439.75 128.3 441.47 132.53 443.24M62.0198 334.58C62.4598 330.63 60.3198 323.53 58.1298 321.19C56.2798 322.45 54.7798 325.95 55.2398 328.02C55.3098 328.35 55.4898 328.72 55.7398 328.95C57.7498 330.78 59.7798 332.58 62.0198 334.58ZM474.42 302.35C466.96 305.72 459.48 309.06 457.78 319.07C459.23 317.65 460.41 316.65 461.38 315.48C462.74 313.86 463.91 312.07 465.24 310.42C466.75 308.53 468.64 307.12 471.03 306.54C473.89 305.84 474.2 305.48 474.42 302.35ZM163.19 444.67C168.27 450.54 174.63 448.97 180.92 449.49C179.53 447.78 178.45 446.4 177.31 445.07C177.11 444.84 176.69 444.69 176.37 444.68C172.12 444.66 167.88 444.66 163.19 444.66M47.0498 341.48C49.6198 339.8 51.7598 338.4 54.0998 336.87C50.8098 333.83 47.7698 331.01 44.7298 328.19C44.5698 328.27 44.4198 328.34 44.2598 328.42C45.1598 332.64 46.0598 336.86 47.0498 341.48ZM331.02 434.03C330.8 434.01 330.6 433.94 330.45 434C326.76 435.4 323 436.05 319.03 435.58C317.45 435.4 315.91 437.58 316.36 439.16C316.67 440.25 317.13 441.3 317.55 442.44C322.77 440.76 327.35 438.19 331.02 434.03ZM329.53 377.06C323.63 380.84 321.63 386.24 324.81 389.6C327.4 386.36 329.94 383.18 332.56 379.91C331.47 378.88 330.54 378.01 329.53 377.06ZM445.52 354.85C444.64 355.48 443.94 355.84 443.4 356.37C441.31 358.47 439.28 360.64 437.2 362.76C435.06 364.95 434.58 368.25 436.06 371.01C440.85 366.78 443.35 361.17 445.52 354.85ZM29.4998 315.51C31.4598 312.2 31.4998 310.7 29.8298 307.7C29.2398 306.64 28.6598 305.57 28.1798 304.45C27.3598 302.54 26.6198 300.6 25.7798 298.5C23.4698 309.16 23.3098 308.47 29.4998 315.51ZM225.22 447.94C226.75 450.11 227.42 450.49 228.77 450.41C231.72 450.24 234.68 450.16 237.64 449.99C238.11 449.96 238.88 449.78 238.99 449.48C239.63 447.64 240.12 445.74 240.81 443.35C235.2 445 230.23 446.46 225.22 447.94ZM444.19 332.76C439.81 333.49 436.8 336.2 433.81 338.93C433.69 339.04 433.59 339.26 433.61 339.41C433.89 342.31 434.19 345.22 434.52 348.49C437.86 343.06 441.02 337.91 444.19 332.76ZM483.38 262.51C481.3 266.06 479.33 269.46 477.32 272.83C475.6 275.7 474.76 278.74 475.48 282.23C475.8 282.09 475.89 281.78 476.08 281.55C480.12 276.72 482.9 271.28 484.45 265.17C484.8 263.77 484.48 262.99 483.38 262.51ZM200.57 453.84C207.67 456.42 214.62 457.19 221.52 452.05C220.23 451.32 218.87 449.87 217.8 450.06C212.03 451.09 206.32 452.54 200.56 453.84M49.4898 349.2C50.5298 351.89 51.4898 354.37 52.4698 356.84C52.5398 357.02 52.8498 357.15 53.0698 357.22C55.6798 358.11 58.2998 358.99 61.0698 359.92C60.8898 357.07 60.7298 354.48 60.5598 351.82C57.0298 350.98 53.5098 350.15 49.4898 349.19M415.6 390C415.71 390.12 415.83 390.24 415.94 390.36C416.89 389.72 417.94 389.2 418.76 388.42C423.55 383.85 428.3 379.25 433.02 374.6C433.41 374.22 433.67 373.42 433.59 372.88C433.29 370.87 432.82 368.89 432.32 366.44C431.53 367.39 430.74 368.09 430.27 368.97C428.86 371.59 427.71 374.34 426.22 376.91C423.37 381.81 419.85 386.2 415.61 390M450.24 206.83C451.65 204.9 455.07 203.93 453.53 200.27C453.49 200.17 453.58 200.01 453.53 199.91C453.2 199.22 453.04 198.26 452.49 197.89C449.63 195.95 446.68 194.13 443.74 192.32C442.53 191.58 441.26 190.94 440.02 190.26C443.43 195.78 446.76 201.19 450.24 206.83ZM314.7 435.07C310.44 435.11 306.7 436.06 303.38 438.39C303.04 438.63 302.85 439.3 302.86 439.76C302.88 440.6 302.97 441.49 303.28 442.25C303.5 442.8 304.11 443.57 304.56 443.58C307.46 443.62 310.37 443.54 313.27 443.38C314.52 443.31 314.96 442.44 314.39 441.31C313.37 439.26 313.34 437.25 314.69 435.08M321.05 432.68C324.62 433.33 327.32 432.2 330.03 431.22C330.32 431.12 330.63 430.74 330.7 430.43C331.47 426.71 331.48 423.05 329.3 419.73C328.99 419.26 328.21 418.7 327.75 418.78C326.22 419.07 324.75 419.62 323.02 420.15C325.52 424.75 325.68 428.94 321.06 432.67M231.03 420.96C234.62 421.53 238.15 422.1 241.9 422.7C241.9 420.31 241.93 417.76 241.87 415.22C241.87 414.85 241.49 414.25 241.17 414.16C238.36 413.33 235.51 412.69 232.6 413.67C231.2 414.14 230.33 415.09 230.49 416.67C230.65 418.22 230.87 419.77 231.03 420.96ZM284.49 424.11C295.69 421.23 306.69 418.4 317.76 415.56C315.51 411.47 315.39 411.25 311.27 412.66C308.02 413.78 304.93 415.4 301.8 416.88C296.43 419.42 291.07 421.89 284.69 420.08C284.62 421.49 284.56 422.73 284.49 424.12M445.85 351.3C451.05 349.21 452.41 347.34 452.41 342.3C452.41 340.49 452.21 338.65 452.41 336.87C452.69 334.38 453.26 331.93 453.79 329.03C452.97 329.63 452.14 329.96 451.77 330.56C448.95 335.23 446.2 339.94 443.47 344.66C443.26 345.03 443.1 345.63 443.25 345.98C444.06 347.78 444.98 349.54 445.86 351.31M388.08 404.6C387.71 404.58 387.65 404.57 387.59 404.58C381.48 405.92 375.36 407.11 369.05 405.91C368.66 405.83 367.9 406.33 367.75 406.72C367.6 407.12 367.84 407.99 368.19 408.2C371.24 410.05 374.31 411.87 377.46 413.56C379.07 414.42 380.86 414.22 382.33 413.21C385.33 411.16 387.26 408.32 388.08 404.59M252.19 218.19C246.57 217.76 241.24 217.35 235.91 216.94C235.83 217.16 235.75 217.37 235.67 217.59C242.33 221.41 247.18 227 251.11 233.48C251.26 233.41 251.42 233.35 251.57 233.28C251.77 228.33 251.97 223.37 252.18 218.19M242.09 411.2C242.35 406.23 242.6 401.24 242.86 396.31C241.31 396.31 240.03 396.41 238.77 396.28C237.49 396.15 236.82 396.61 236.22 397.74C233.75 402.34 231.17 406.88 228.67 411.45C228.44 411.87 228.44 412.42 228.33 412.91C230.38 411.26 232.52 410.49 234.9 410.58C237.24 410.67 239.57 410.97 242.09 411.19M136.74 444.24C144.84 446.48 153.82 448.61 163.26 448.45C161.19 446.8 159.2 444.56 156.81 443.98C149.34 442.18 142.12 439.8 135.16 436.58C134.26 436.16 133.07 436.36 131.8 436.25C133.49 438.98 134.92 441.3 136.75 444.24M336.3 236.24C336.47 236.19 336.63 236.15 336.8 236.1C336.7 234.43 336.76 232.74 336.48 231.1C335.57 225.73 334.54 220.39 338.21 215.54C338.26 215.48 338.18 215.32 338.16 215.22C335.62 214.48 326.17 216.16 322.53 218C327.12 224.09 331.71 230.17 336.3 236.25M89.0698 417.15L88.5698 417.74C89.0798 418.05 89.6898 418.26 90.0798 418.69C95.4498 424.5 102.35 428.14 108.97 432.22C111.61 433.85 113.94 433.34 116.79 432.56C116.23 431.28 115.89 430.01 115.19 429C113.53 426.61 111.72 424.32 109.89 422.05C109.63 421.73 108.91 421.57 108.46 421.65C102.61 422.74 97.2698 421.15 92.0898 418.66C91.0698 418.17 90.0798 417.65 89.0698 417.14M472.64 309.09C470.26 309.11 469.02 310.74 468.78 312.05C468.21 315.12 466.57 317.57 465.05 320.08C463.79 322.16 462.33 324.44 460.36 325.68C457.98 327.18 456.69 328.97 456.15 331.55C456.13 331.67 456.08 331.78 456.04 331.9C454.44 336.16 455.2 340.55 455.01 345.26C463.41 334.19 468.44 321.99 472.65 309.08M459.68 203.24C461.24 211.57 462.7 219.4 464.16 227.23C464.36 227.31 464.55 227.4 464.75 227.48C467.01 221.35 472.06 221.84 477.32 222.23C472.59 214.66 467.19 208.33 459.68 203.24ZM317.12 409.22C317.79 409.28 318.81 409.35 319.82 409.46C322.57 409.76 324.78 409.12 326.08 406.36C326.58 405.28 327.44 404.36 328.21 403.42C329.22 402.2 329.43 400.82 328.63 399.54C327.49 397.7 326.08 396.03 324.85 394.24C323.89 392.86 322.61 392.67 321.19 393.18C319.54 393.77 317.95 394.52 316.31 395.14C314.82 395.7 314.55 396.74 314.86 398.18C315.63 401.77 316.34 405.37 317.13 409.21M283.85 430.6C281.55 433.06 279.37 435.33 277.26 437.66C276.41 438.59 275.52 439.56 274.94 440.66C274.15 442.17 275.5 444.22 277.11 444.14C280.92 443.95 284.73 443.58 288.55 443.52C293.04 443.45 295.97 440.77 298.98 438C294.92 433.16 288.68 433.15 283.86 430.6M39.1398 301.39C41.3898 301.87 42.0198 303.36 42.0898 305.32C42.1698 307.51 42.2798 309.69 42.4498 311.87C42.5098 312.57 42.5998 313.4 43.0098 313.92C46.1898 317.95 49.4498 321.91 52.4898 325.66C53.6298 323.39 54.8198 321.02 56.1098 318.46C56.2498 318.7 56.2098 318.58 56.1298 318.5C55.7398 318.12 55.3598 317.72 54.9298 317.38C51.6598 314.81 50.2198 311.28 49.7598 307.28C49.4598 304.69 49.3998 302.06 48.9598 299.49C48.6598 297.74 47.8998 296.07 47.3498 294.36C47.1498 294.39 46.9598 294.41 46.7598 294.44C45.2298 297.82 42.4298 299.76 39.1398 301.38M461.69 271.33C463.21 261 462.88 250.86 461.2 240.54C459.93 240.99 458.89 241.49 457.78 241.72C456 242.09 455.3 243.27 454.7 244.85C453.71 247.44 452.8 250.19 451.17 252.36C449.37 254.76 449.49 257.4 448.72 260.17C456.15 260.41 459.44 265.27 461.7 271.34M287.67 429.05C288.28 429.42 288.41 429.55 288.57 429.59C293.12 430.83 297.49 432.42 300.93 435.86C301.14 436.07 301.87 436.04 302.18 435.84C306.55 433.04 311.35 432.13 316.47 432.49C316.92 432.52 317.47 432.45 317.84 432.21C321.74 429.76 322.73 426.45 321.01 422.08C320.6 421.04 320.17 420.7 319 421.02C315.25 422.05 311.47 422.93 307.71 423.89C301.19 425.55 294.68 427.24 287.68 429.04M481.64 254.9C481.8 254.88 481.96 254.86 482.13 254.84C482.55 251.96 482.98 249.09 483.39 246.21C484.36 239.38 484.76 232.68 480.17 226.73C479.36 225.68 478.62 224.96 477.33 224.81C469.19 223.88 468.54 224.9 466.37 230.36C464.96 233.9 465.92 236 469.66 236.78C473.26 237.53 475.98 239.61 477.63 242.88C478.55 244.71 479.23 246.68 479.87 248.63C480.55 250.69 481.06 252.8 481.65 254.89M214.8 445.1C211.62 441.03 208.83 437.46 206 433.84C197.83 438.61 189.21 441.86 180.09 444.29C181.39 445.81 182.46 447.22 183.71 448.44C184.27 448.99 185.22 449.5 185.96 449.46C189.71 449.25 193.49 449.06 197.2 448.47C202.93 447.55 208.61 446.3 214.8 445.1ZM327.91 408.41C332.08 408.15 335.79 406.91 338.74 404.28C341.69 401.64 344.45 398.85 348.9 398.05C343.9 392.49 339.17 387.24 334.39 381.92C331.55 385.33 328.94 388.47 326.34 391.59C327.66 393.36 329.27 395.2 330.54 397.26C332.25 400.03 332.38 402.87 330.06 405.51C329.27 406.41 328.63 407.44 327.93 408.41M312.12 397.04C311.75 397.2 311.57 397.23 311.45 397.34C303.19 405.1 293.35 408.92 282.07 409.15C280.02 409.19 279.49 410.53 279.17 412.03C280.3 413.01 281.56 413.71 282.27 414.78C284.11 417.55 286.75 418.01 289.73 417.94C293.95 417.84 297.51 415.81 301.21 414.14C304.68 412.58 308.15 410.89 311.78 409.81C313.75 409.23 314.21 408.41 313.92 406.72C313.37 403.56 312.75 400.41 312.12 397.04ZM117.36 371.99C113.33 379.58 110.81 387.45 110.4 395.83C109.98 404.22 111.05 412.48 114.34 420.34C113.75 420.63 113.25 420.88 112.69 421.16C112.94 421.54 113.08 421.81 113.27 422.04C115.72 425.12 118.61 427.93 119.33 432.06C119.38 432.33 119.78 432.7 120.06 432.73C122.63 433.03 125.21 433.26 127.79 433.51C127.91 433.37 128.02 433.22 128.14 433.08C127.72 432.45 127.41 431.69 126.86 431.21C124.52 429.18 121.98 427.36 119.75 425.21C118.34 423.85 117.04 422.21 116.22 420.45C112.47 412.43 111.55 403.91 112.12 395.15C112.59 387.92 114.77 381.21 117.77 374.68C118.62 372.83 119.48 372.61 121.44 373.07C131.18 375.37 140.95 377.56 150.76 379.5C155.07 380.35 159.52 380.53 163.92 380.97C165.91 381.17 167.92 381.27 169.92 381.33C170.26 381.33 170.62 380.89 170.97 380.65C170.65 380.38 170.37 379.98 170 379.88C169.18 379.67 168.33 379.61 167.49 379.52C160.76 378.79 153.98 378.32 147.3 377.28C133.13 375.07 119.31 371.43 105.93 366.21C94.2398 361.65 82.8198 356.54 72.1298 349.94C66.5398 346.49 61.0998 342.77 55.3698 339.02C53.7898 340.08 51.7998 341.41 49.8098 342.75C49.8098 342.92 49.8098 343.09 49.8098 343.27C53.3898 344.14 56.9598 345.04 60.5498 345.87C61.2398 346.03 62.1098 345.66 62.6998 345.94C64.2198 346.67 65.6698 347.56 67.0798 348.51C81.3698 358.17 97.1198 364.78 113.23 370.66C114.56 371.15 115.94 371.53 117.38 371.99M466.82 239.58C466.85 239.9 466.85 240.31 466.92 240.72C468.77 252.66 468.53 264.6 466.94 276.53C466.19 282.18 466.16 282.18 471.96 282.03C472.06 282.03 472.16 281.91 472.49 281.7C471.78 276.36 474.45 272.03 477.36 267.75C478.31 266.35 478.96 264.75 479.73 263.23C480.71 261.27 481.24 259.39 479.79 257.29C479.03 256.19 478.8 254.7 478.39 253.36C477.71 251.15 477.2 248.89 476.42 246.72C474.85 242.35 472.22 239.21 466.82 239.57M310.73 155.64C308.34 155.33 305.54 154.76 302.73 154.63C294.93 154.27 287.68 156.35 280.73 159.79C272.08 164.07 266.3 170.67 263.89 180.06C263.29 182.4 262.94 184.8 262.43 187.36C261.38 186.08 260.49 184.99 259.61 183.91C259.43 183.97 259.25 184.02 259.07 184.08C258.69 193.74 258.3 203.4 257.93 212.84C261.77 211.8 265.35 210.83 269.22 209.79C268.72 208.17 267.97 206.19 267.51 204.15C266.3 198.8 265.08 193.44 264.16 188.04C263.88 186.4 264.47 184.58 264.83 182.87C266.26 175.99 269.1 169.83 274.84 165.51C284.08 158.56 294.46 155.08 306.1 156.52C309.6 156.95 313.16 157.74 315.74 160.65C316.09 161.04 317.1 161.16 317.66 160.97C320.19 160.12 322.69 159.19 325.15 158.14C326.38 157.61 327.48 156.78 328.64 156.08C327.16 155.5 325.85 155.19 324.52 155.13C320.52 154.94 316.51 154.83 312.51 154.76C312.03 154.76 311.55 155.22 310.74 155.64M333.5 430.11C334.47 429.78 335.17 429.59 335.83 429.31C342.51 426.5 349.36 424.66 356.73 425.45C358.73 425.66 360.34 424.38 360.9 422.36C361.58 419.91 361.95 417.36 362.74 414.96C363.48 412.71 363.22 411.37 360.98 410.01C359.31 409 358.15 409.08 356.67 409.85C355.65 410.38 354.65 411.01 353.57 411.33C346.88 413.31 340.17 415.22 333.47 417.15C332.75 417.36 332.02 417.56 331.16 417.8C333.68 421.62 334.14 425.58 333.51 430.1M217.19 170.84C217.95 172.04 218.39 173.14 219.17 173.89C220.66 175.31 222.27 176.62 223.96 177.8C226.82 179.81 229.62 181.83 231.01 185.23C231.14 185.55 231.61 185.94 231.91 185.93C234.33 185.88 236.74 185.97 238.8 184.21C243.21 180.44 248 177.3 254.08 176.26C251.02 172.28 248.08 168.43 245.07 164.63C244.85 164.35 244.08 164.35 243.62 164.46C241.73 164.91 239.88 165.52 237.99 165.97C231.26 167.57 224.51 169.14 217.2 170.85M34.7598 301.01C36.8798 299.77 39.0298 298.75 40.8798 297.33C42.2198 296.3 43.2298 294.79 44.2598 293.4C45.0198 292.38 44.8098 291.39 44.0498 290.27C41.9198 287.14 40.5698 283.69 41.0698 279.82C41.5198 276.27 42.1698 272.75 42.6998 269.21C43.1198 266.45 43.7498 263.64 41.8098 261.15C40.7398 259.77 39.5898 258.46 38.3198 256.94C37.7798 257.71 37.3098 258.32 36.8998 258.96C34.6998 262.38 32.4698 265.78 30.3298 269.23C29.8198 270.06 29.3198 271.06 29.2798 272C28.8798 281.67 30.9298 290.94 34.1898 299.98C34.3298 300.36 34.5798 300.7 34.7498 301.01M214.91 171.06C210.87 171.9 207.01 172.67 203.16 173.53C202.68 173.64 202.19 174.16 201.91 174.61C200.26 177.28 198.69 180.01 197.04 182.69C195.67 184.91 194.09 187.01 192.87 189.3C191.91 191.1 193.08 194.15 194.73 194.32C198.53 194.72 202.37 195.14 205.85 192.82C208.38 191.14 210.97 189.54 213.58 187.98C216.74 186.1 220.14 185.18 223.87 185.56C225.22 185.7 226.6 185.58 228.33 185.58C227.64 184.65 227.23 183.8 226.58 183.25C224.82 181.77 222.97 180.39 221.13 179C218.44 176.97 215.87 174.85 214.92 171.06M343.58 213.91C347.67 215.46 350.7 218.91 355.26 219.5C355.34 219.01 355.39 218.59 355.48 218.18C356.38 213.79 356.88 209.27 358.27 205.04C360.35 198.7 364.39 193.46 369.14 188.82C370.03 187.95 370.16 187.25 369.6 186.13C367.41 181.8 362.36 179.16 357.53 179.98C357.33 183.76 355.11 186.43 352.44 188.87C351.14 190.06 349.94 191.37 348.83 192.72C347.53 194.3 347.03 196.16 347.59 198.19C349.19 203.98 348.28 209.14 343.82 213.43C343.78 213.47 343.77 213.54 343.59 213.89M143.58 270.27C143.58 267.83 143.55 265.43 143.58 263.04C143.62 260.31 143.45 257.54 143.86 254.87C144.43 251.1 145.39 247.39 146.31 243.69C147.14 240.34 146 238.6 142.7 238.57C135.48 238.49 129.91 241.83 125.36 247.13C124.89 247.68 124.78 248.7 124.82 249.48C125.06 253.85 125.39 258.21 125.71 262.57C125.95 265.92 126.22 269.27 126.49 272.88C131.74 268.05 137.48 268.69 143.58 270.28M228.42 214.05C228.56 213.93 228.69 213.81 228.83 213.69C228.06 212 227.43 210.23 226.5 208.63C223.76 203.93 223.78 199.44 227.12 195.03C227.81 194.12 228.38 193.08 228.82 192.03C229.97 189.28 229.59 188.71 226.71 188.48C226.23 188.44 225.74 188.39 225.26 188.32C221.3 187.72 217.66 188.56 214.3 190.69C211.73 192.31 209.2 194 206.56 195.49C205.32 196.19 203.9 196.71 202.5 196.95C200.5 197.29 198.44 197.31 196.62 197.44C196.95 199.8 197.67 202.15 197.5 204.44C197.33 206.71 196.27 208.9 195.58 211.21C206.62 209.65 217.64 210.5 228.43 214.05M255.09 374.82C255.28 376.4 255.32 377.86 255.67 379.25C256 380.57 256.47 381.97 258.24 382.11C260.06 382.25 260.92 380.99 261.45 379.65C262.2 377.75 262.74 375.76 263.21 373.77C263.36 373.14 262.97 372.4 262.83 371.7C262.3 371.82 261.77 371.94 261.23 372.05C260.87 372.12 260.51 372.15 260.15 372.21C253.36 373.33 246.59 374.62 239.77 375.53C232.16 376.55 224.51 377.23 216.88 378.05C214.05 378.35 211.22 378.62 208.38 378.89C203.5 379.35 198.63 379.92 193.74 380.21C190.16 380.42 186.57 380.23 182.98 380.28C179.86 380.33 178.04 383.23 179.41 386.01C180.16 387.52 181.16 388.9 182.05 390.35C191.13 405.13 202.03 418.62 212.19 432.64C214.47 435.79 216.99 438.77 219.29 441.91C220.1 443.01 220.85 443.33 222.18 442.93C227.48 441.35 232.82 439.91 238.12 438.35C239.29 438.01 240.37 437.38 241.49 436.88C240.68 435.88 239.98 434.77 239.04 433.91C236.14 431.24 233.04 428.76 230.25 425.98C229.3 425.03 228.67 424.79 227.5 425.25C223.2 426.92 218.87 428.52 214.55 430.15C213.62 430.5 212.96 430.46 212.25 429.5C206.02 421.14 199.59 412.93 193.47 404.49C189.17 398.56 185.21 392.39 181.23 386.24C179.5 383.56 180.61 381.74 183.75 381.77C191.94 381.85 200.12 381.69 208.27 380.67C214.39 379.9 220.56 379.49 226.7 378.81C232.1 378.21 237.5 377.52 242.88 376.78C246.94 376.22 250.98 375.5 255.09 374.85M150.37 233.77C150.5 233.87 150.64 233.97 150.77 234.06C151.2 233.51 151.62 232.96 152.05 232.42C156.91 226.25 162.82 221.41 170 218.12C176.18 215.3 182.65 213.5 189.31 212.26C190.12 212.11 191.1 211.96 191.64 211.44C195.06 208.12 195.88 202.44 193.5 198.3C193.09 197.59 192.12 196.93 191.31 196.77C187.29 195.96 183.78 197.23 180.57 199.66C178.05 201.56 175.5 203.45 172.84 205.15C169.68 207.16 166.16 207.73 162.5 206.9C160.32 206.4 158.21 205.58 156.02 205.1C155.21 204.92 153.74 205 153.49 205.46C152.53 207.21 151.83 209.19 152.61 211.22C153.21 212.8 154.08 214.28 154.74 215.84C155.45 217.51 156.32 219.16 156.67 220.91C157.22 223.61 156.29 226.03 154.54 228.19C153.08 229.99 151.75 231.91 150.37 233.78M39.7898 251.89C41.8098 251.21 43.5598 250.56 45.3498 250.04C48.2698 249.21 50.6198 247.62 52.4098 245.18C53.9098 243.12 55.4098 241.05 56.9798 239.04C59.7598 235.46 63.3398 233.31 67.9598 233.04C70.0798 232.92 72.1998 232.78 74.3098 232.51C74.8298 232.44 75.5798 231.94 75.7198 231.48C76.5598 228.63 76.8698 225.7 75.4698 222.95C73.6698 219.4 72.6198 215.74 73.0598 211.74C73.0598 211.67 72.9298 211.58 72.6498 211.27C69.9298 212.83 67.0298 214.23 64.3998 216.04C56.1098 221.77 49.5298 229.2 43.5298 237.24C40.2298 241.67 40.1598 246.66 39.7898 251.89ZM354.14 177.09C353.1 175.59 352.23 174.13 351.17 172.84C347.83 168.79 345 164.54 344.89 159.01C344.89 158.56 344.11 157.81 343.6 157.72C340.36 157.18 337.11 156.74 333.84 156.39C333.14 156.32 332.22 156.56 331.69 157C327.95 160.09 323.58 161.86 318.99 163.17C318.51 163.31 317.88 163.33 317.43 163.14C311.74 160.78 305.84 160.22 299.81 161.16C292.27 162.33 285.51 165.31 279.98 170.63C274.28 176.12 270.77 182.77 271.47 190.88C271.78 194.48 273.05 198.03 274.18 201.51C275.16 204.54 276.89 207.33 276.8 210.66C276.76 212.01 277.62 212.4 278.88 212.44C278.62 211.94 278.17 211.5 278.21 211.11C278.61 207.35 276.64 204.26 275.54 200.9C274.41 197.43 273.19 193.84 272.97 190.25C272.54 183.28 275.48 177.26 280.4 172.52C288.52 164.71 298.3 161.18 309.62 162.7C315.21 163.45 320.33 165.24 323.69 170.26C324.33 171.22 325.09 172.1 325.86 172.96C326.46 173.64 327.04 174.42 327.81 174.83C336.09 179.34 344.77 179.9 354.15 177.08M354.66 179.93C346.24 181.87 338.09 182.69 330.26 178.64C330.12 179.17 330.05 179.45 330.01 179.62C328.28 178.66 326.7 177.63 325 176.86C319.94 174.58 314.64 174.32 309.17 174.97C302.59 175.76 296.8 178.22 291.82 182.55C285.57 187.98 282.6 195.32 280.21 202.96C280.03 203.52 280.04 204.18 280.13 204.77C280.19 205.16 280.53 205.51 280.74 205.88C281.02 205.54 281.43 205.24 281.56 204.85C282.48 202 283.17 199.06 284.25 196.27C290.71 179.64 307.39 173.43 321.36 177.29C331.47 180.08 335.09 186.42 332.26 196.64C330.44 203.23 326.67 208.6 321.4 212.93C320.86 213.38 320.33 213.84 319.8 214.29C319.84 214.53 319.88 214.77 319.91 215.01C320.96 215.04 322.05 215.26 323.06 215.06C325.32 214.61 327.56 214.01 329.77 213.34C332.9 212.4 336.04 212 339.31 212.54C339.99 212.65 340.95 212.24 341.51 211.76C345.31 208.49 346.34 204.36 345.09 199.57C344.12 195.86 344.96 192.58 347.65 189.83C349.14 188.31 350.7 186.86 352.16 185.31C353.46 183.93 354.59 182.44 354.66 179.92M124.53 243.41C124.88 243.3 125.02 243.3 125.1 243.23C130.91 238.01 137.46 234.91 145.52 236.03C145.9 236.08 146.52 235.85 146.71 235.55C148.92 232.16 151.07 228.72 153.23 225.3C154.23 223.71 154.49 222 153.8 220.25C153.31 219.01 152.74 217.79 152.07 216.64C150.26 213.52 148.97 210.3 150.22 206.13C149.16 206.86 148.47 207.22 147.92 207.74C146.47 209.12 145.01 210.51 143.7 212.02C141.65 214.38 139.08 215.64 136.01 215.54C133.06 215.44 130.11 214.99 127.16 214.69C126.35 214.61 125.54 214.52 124.53 214.41V243.41ZM347.64 158.2C347.72 159.37 347.71 160.34 347.86 161.27C348.43 164.83 350.53 167.59 352.64 170.36C353.96 172.09 355.24 173.89 356.31 175.78C356.85 176.72 357.36 177.06 358.4 177.05C362.37 177.03 366 178.15 368.92 180.91C370.26 182.18 371.29 183.77 372.47 185.23C380.96 178.49 390.24 173.34 401.72 172.67C384.17 165.73 366.47 160.34 347.63 158.21M232.65 188.58C231.74 191.07 231.03 193.22 230.15 195.29C229.7 196.34 228.94 197.25 228.33 198.23C226.94 200.47 226.81 202.78 227.88 205.19C229.33 208.43 230.73 211.69 232.02 214.64C235.19 214.64 238.46 214.56 241.72 214.67C244.51 214.76 247.3 215.04 250.08 215.31C251.73 215.47 252.37 215.01 252.44 213.17C252.81 203.75 253.34 194.34 253.84 184.93C253.94 183.02 254.11 181.11 254.26 179C250.25 179.7 247.04 181.38 244.1 183.56C240.5 186.23 237.22 189.55 232.66 188.59M199.31 174.78C199.15 174.6 198.98 174.43 198.82 174.25C184.26 177.42 169.7 180.58 154.85 183.81C161.9 189.94 157.92 195.94 155.29 201.95C157.01 202.54 158.65 203.15 160.33 203.67C163.78 204.74 167.28 205.16 170.58 203.28C172.63 202.12 174.59 200.76 176.47 199.33C180.58 196.21 184.68 193.14 190.58 194.1C188.9 190.19 190.56 187.25 192.6 184.42C193.81 182.74 195.11 181.14 196.3 179.45C197.36 177.93 198.31 176.34 199.31 174.78ZM78.4498 264.47C74.6898 265.96 71.4598 267.75 70.3298 271.43C68.6298 276.93 64.4598 278.99 59.4798 280.25C58.0098 280.62 56.4898 280.84 55.0598 281.34C51.6498 282.52 50.2198 285.45 48.6998 288.44C47.4698 290.88 49.0298 292.29 50.0098 294.01C50.0398 294.06 50.0598 294.12 50.0898 294.18C52.1898 297.63 51.9698 301.57 52.1998 305.34C52.4998 310.34 54.6298 314.15 58.6098 317.03C58.9398 317.27 59.5598 317.43 59.9098 317.29C61.6598 316.61 63.4298 315.94 65.0698 315.04C67.6298 313.63 68.7098 311.11 69.6998 308.5C72.1398 302.1 75.4698 296.61 83.3298 296.08C83.7398 296.05 84.3498 295.18 84.4098 294.64C84.8298 290.89 83.7498 287.55 81.3298 284.66C77.4398 280.01 76.0198 274.79 77.5898 268.84C77.9398 267.52 78.1198 266.15 78.4398 264.47M74.6098 235.31C72.5598 235.43 70.8098 235.61 69.0598 235.63C64.9298 235.67 61.6798 237.43 59.1698 240.62C57.8598 242.29 56.5998 244.02 55.3898 245.77C52.8698 249.44 49.5298 251.85 45.1698 252.92C43.5698 253.31 42.0498 254.07 40.1698 254.79C41.0598 255.93 41.5898 256.82 42.3198 257.51C45.5398 260.59 46.2498 264.32 45.5098 268.55C44.8198 272.5 44.2298 276.47 43.7398 280.45C43.3998 283.19 44.3398 285.65 45.9198 288.15C46.2698 287.36 46.5198 286.82 46.7598 286.27C48.7298 281.68 52.0298 278.77 57.0598 278C57.7198 277.9 58.3898 277.81 59.0198 277.6C62.3798 276.51 65.9498 275.63 67.2298 271.7C68.8798 266.62 72.5698 263.69 77.3898 262.03C78.6298 261.6 78.9698 261.13 78.7698 259.83C78.3098 256.78 76.9398 254.19 75.1198 251.78C72.1498 247.84 71.7998 243.55 73.3398 238.99C73.7298 237.85 74.1098 236.7 74.5898 235.31M119.35 251.21C116.96 251.21 114.74 251.53 112.64 251.15C106.63 250.05 101.99 252.15 97.9598 256.47C93.8298 260.91 88.7798 263.58 82.5998 263.84C82.1198 263.86 81.3198 264.28 81.2398 264.64C80.6298 267.55 80.0098 270.47 79.6898 273.42C79.3198 276.91 80.9898 279.79 83.0598 282.41C85.3898 285.35 86.9898 288.55 87.2198 292.33C87.2898 293.39 87.2298 294.45 87.2298 295.55C90.3298 295.47 92.6198 294.37 94.1498 292.01C95.3998 290.07 96.4098 287.99 97.6198 286.02C100.46 281.42 104.98 277.47 112.41 280.15C115.11 281.13 117.78 280.73 120.38 279.53C121.29 279.11 121.58 278.63 121.47 277.58C120.97 272.56 120.56 267.53 120.16 262.5C119.85 258.7 119.6 254.89 119.34 251.22M279.62 432.18C279.4 431.91 279.19 431.64 278.97 431.37C273.83 433 268.68 434.64 263.54 436.27C258.33 437.92 253.12 439.56 247.7 441.28C247.82 439.55 247.81 438.04 248.08 436.58C248.19 435.98 248.78 435.18 249.33 435C256.89 432.52 264.49 430.12 272.08 427.71C274.73 426.87 277.38 426.06 279.97 425.25C278.78 423.11 277.7 421.08 276.5 419.13C276.28 418.77 275.47 418.46 275.05 418.58C271.73 419.52 268.41 420.48 265.16 421.63C261.62 422.88 258.19 424.47 254.63 425.69C252.72 426.34 250.66 426.52 248.33 426.97C248.51 425.73 248.63 424.95 248.69 424.53C252.15 423.5 255.37 422.78 258.4 421.58C264.2 419.3 269.69 416.16 275.98 415.65C276.62 413.09 274.64 413.14 273.41 412.89C268.66 411.94 263.95 411.02 260.73 406.86C258.98 408.72 257.61 410.68 255.77 412C253.92 413.33 251.61 414.02 249.22 415.12V411.91C254.73 411.25 256.88 406.59 260.17 403.2C257.15 400.88 254.29 398.72 251.48 396.49C250.95 396.07 250.26 395.4 250.24 394.82C250.12 391.59 250.18 388.35 250.18 385.11C250.89 386.01 251.19 387 251.73 387.84C254.1 391.46 258.08 394.16 262.49 390.38C264.14 388.97 265.61 387.1 266.51 385.13C268.76 380.21 270.37 375.07 269.23 369.6C270.25 369.42 271.2 369.33 272.1 369.07C279.57 366.92 287.02 364.67 294.5 362.57C300.42 360.91 306.39 359.43 312.32 357.8C312.82 357.66 313.19 357.03 313.62 356.63C313.02 356.53 312.37 356.21 311.84 356.35C303.88 358.55 295.93 360.8 287.99 363.06C281.67 364.86 275.38 366.75 269.03 368.44C267.78 368.77 267.69 369.31 267.71 370.29C267.74 372.27 268.02 374.31 267.66 376.23C266.87 380.39 265.76 384.51 262.99 387.9C260.05 391.49 256.03 391.37 253.43 387.65C253.19 387.31 252.93 386.95 252.8 386.55C252.04 384.09 251.34 381.6 250.56 379.14C250.44 378.74 250.06 378.43 249.81 378.07C249.46 378.4 248.97 378.68 248.79 379.09C248.61 379.5 248.75 380.05 248.73 380.53C248.61 385.45 248.57 390.37 248.35 395.28C247.92 404.87 247.42 414.45 246.91 424.03C246.57 430.51 246.51 437.03 245.7 443.45C245.03 448.81 244.36 454.49 238.86 457.79C245.61 458.81 252.49 455.92 258.93 451.86C254.29 452.51 249.75 454.2 245 453.54C245.03 451.61 245.85 450.88 247.73 450.99C249.12 451.07 250.54 450.65 252.39 450.39C250.19 449.49 248.46 448.78 246.67 448.04C246.89 447.02 247.07 446.17 247.24 445.36C248.84 446.01 250.2 446.79 251.66 447.1C254.48 447.7 257.47 448.75 260.18 448.31C264.38 447.63 268.41 445.85 272.51 444.53C272.6 444.5 272.65 444.35 272.75 444.22C271.23 441.43 272.13 439.01 274.17 436.96C275.88 435.25 277.8 433.75 279.63 432.15M118.78 216.32C117.35 217.56 116.23 218.38 115.29 219.38C112.37 222.48 108.74 224.1 104.58 224.13C101.88 224.15 99.1498 223.67 96.4898 223.13C92.6998 222.35 89.4798 223.11 86.9298 226.08C85.9398 227.23 85.0298 228.47 84.2498 229.76C82.9398 231.93 81.2398 233.53 78.7898 234.35C78.2498 234.53 77.6698 235.11 77.4598 235.64C76.7298 237.5 76.0098 239.39 75.5398 241.33C74.8898 244 74.9598 246.67 76.6198 249.03C79.1898 252.69 81.5198 256.43 81.5598 261.12C82.1898 261.15 82.6098 261.2 83.0298 261.18C83.5098 261.16 83.9998 261.12 84.4798 261.02C89.0898 260.08 92.9598 257.89 96.2098 254.45C100.36 250.05 105.19 247.28 111.61 248.36C113.5 248.68 115.49 248.39 117.43 248.33C118.65 248.3 119.15 247.79 119.12 246.4C118.94 238.8 118.88 231.2 118.8 223.59C118.78 221.35 118.8 219.11 118.8 216.32M124.51 211.49C127.41 212.01 130.08 212.64 132.78 212.93C136.73 213.36 140.16 212.49 142.77 209.03C144.82 206.29 147.55 204.19 150.78 202.84C151.16 202.68 151.61 202.47 151.82 202.15C154.06 198.72 156.12 195.2 156.28 190.95C156.39 188.18 152.81 184.56 150.32 184.99C146.33 185.68 142.28 186.21 138.4 187.32C130.34 189.62 122.38 192.26 114.37 194.77C102.82 198.39 91.4098 202.37 80.4398 207.54C75.5398 209.85 75.2198 210.25 75.6798 215.68C75.7898 217.03 76.3298 218.39 76.9298 219.63C78.4798 222.82 79.4298 226.09 78.8898 229.67C78.8098 230.17 78.7398 230.67 78.6698 231.16C78.8098 231.25 78.9498 231.34 79.0898 231.43C79.8398 230.7 80.6798 230.03 81.3198 229.21C82.2498 228.02 83.0198 226.69 83.9098 225.46C86.0798 222.45 88.9398 220.42 92.6798 220.19C94.5698 220.07 96.5298 220.48 98.4098 220.89C104.14 222.13 109.41 221.76 113.71 217.15C114.62 216.18 115.62 215.19 116.77 214.57C118.8 213.49 119.21 211.89 119.16 209.78C119.06 205.22 120.72 200.62 118.79 196.09C118.66 195.78 118.91 194.98 119.17 194.88C121.38 194.02 123.63 193.27 126 192.44C126 193.31 125.87 193.9 126.03 194.38C126.27 195.13 126.71 195.82 127.07 196.54C127.77 196.14 128.67 195.9 129.13 195.31C129.98 194.22 130.57 192.92 131.28 191.72C131.52 191.31 131.75 190.68 132.11 190.57C134.83 189.76 137.59 189.06 140.73 188.22C139.15 192.91 137.24 196.78 134.61 200.23C132.54 202.95 129.68 204.32 126.15 203.93C125.8 203.89 125.45 203.93 124.86 203.93C124.74 206.49 124.62 208.95 124.5 211.49M145.74 178.2C177.51 171.46 208.78 164.83 240.46 158.11C228.35 141.43 214.86 126.33 204.5 108.69C203.89 109.56 203.48 110.16 203.06 110.74C199.02 116.29 195 121.85 190.91 127.37C189.14 129.76 187.22 132.05 185.35 134.37C178.13 143.31 171.04 152.36 163.63 161.14C158.39 167.35 152.92 173.42 145.75 178.21M60.8698 319.75C61.1298 320.32 61.3098 320.75 61.5198 321.18C63.4998 325.2 65.0598 329.42 64.8698 333.92C64.7598 336.53 65.4498 338.21 67.6498 339.42C68.1798 339.71 68.6198 340.17 69.1598 340.45C77.6698 344.92 86.0698 349.61 94.7198 353.78C107.84 360.1 121.09 366.18 135.57 368.8C143.05 370.15 150.54 371.48 158.05 372.59C162.35 373.22 166.71 373.43 171.04 373.74C176.72 374.14 182.41 374.79 188.09 374.73C198.16 374.63 208.24 374.32 218.29 373.66C225.27 373.2 232.28 372.38 239.14 371.01C246.04 369.63 252.77 367.39 259.57 365.48C260.17 365.31 260.67 364.77 261.21 364.4C261.13 364.18 261.04 363.95 260.96 363.73C258.18 363.79 255.63 365.23 252.76 365.6C253.88 360.85 254.93 356.27 256.06 351.72C256.22 351.09 256.75 350.1 257.18 350.07C258.94 349.92 258.98 348.85 259 347.53C259.09 339.99 259.2 332.45 259.37 324.91C259.42 322.61 259.61 320.3 259.84 318.01C260.36 312.9 260.95 307.79 261.53 302.68C262.04 298.17 262.59 293.67 263.11 289.17C263.69 284.06 264.23 278.95 264.82 273.84C265.36 269.16 265.95 264.48 266.49 259.8C267.03 255.12 267.62 250.44 268.09 245.74C268.43 242.3 268.43 238.82 268.93 235.42C269.92 228.67 270.21 221.91 269.98 215.1C269.92 213.33 269.21 212.99 267.65 213.06C264.5 213.21 261.82 214.63 259.05 215.88C258.13 216.3 257.8 216.82 257.78 217.8C257.69 221.45 257.6 225.1 257.33 228.74C257.26 229.64 256.73 230.71 256.06 231.33C248.36 238.41 241.68 246.28 236.95 255.67C231.37 266.75 228.61 278.37 230.86 290.79C231.23 292.84 230.5 293.65 228.86 294.53C225.39 296.4 221.95 297.46 218 296.08C216.61 295.6 214.97 295.44 213.51 295.63C209.69 296.13 205.87 296.74 202.12 297.6C199.2 298.27 196.43 299.94 193.51 300.2C186.77 300.82 180.02 299.96 173.76 297.39C169.49 295.64 165.48 293.14 161.59 290.61C155.08 286.36 148.63 281.95 144.93 274.7C144.78 274.4 144.46 274.13 144.16 273.95C140.1 271.52 135.8 271.05 131.39 272.75C128.35 273.92 126.95 276.76 127.42 280.02C127.75 282.31 127.92 284.62 128.3 286.9C128.84 290.21 129.5 293.51 130.19 297.21C131.32 296.25 132.01 295.67 132.5 295.25C131.91 294.51 131.4 293.87 130.89 293.23C131.72 292.92 132.53 292.38 133.37 292.34C135.02 292.25 136.53 292.2 138.01 291.15C140.54 289.36 143.24 287.82 145.91 286.25C147.29 285.44 148.76 284.81 149.7 284.34C156.16 288.63 162.34 293.02 168.8 296.94C175.43 300.96 183.03 301.58 191.06 302.03C178.23 310.22 172.55 322.63 168.13 335.62C161.99 337.55 155.85 339.51 149.69 341.39C149.28 341.51 148.51 341.25 148.25 340.91C141.49 332.14 132.5 326.64 122.13 323.33C117.71 321.92 113.1 321.07 108.35 319.91C109.47 319.4 110.51 318.96 111.51 318.44C112.08 318.14 112.69 317.8 113.08 317.32C116.98 312.5 120.8 307.62 124.74 302.84C125.49 301.92 125.61 301.19 125.37 300.06C124.35 295.25 123.46 290.41 122.54 285.58C122.32 284.41 122.2 283.23 122 281.77C118.01 283.84 114.19 283.75 110.27 282.42C107.12 281.35 104.26 282.21 102.18 284.7C100.53 286.68 99.2098 288.98 97.9398 291.25C95.7698 295.14 92.8998 297.97 88.2098 298.28C86.8998 298.37 86.5598 299.12 86.2898 300.22C85.1898 304.81 86.3898 308.75 89.4798 312.2C92.6598 315.75 95.6698 319.41 96.8098 324.21C96.8298 324.3 96.9898 324.35 97.1198 324.45C99.5698 323.83 102.1 323.38 104.49 322.54C107.09 321.62 109.63 321.85 112.2 322.31C122.33 324.08 131.56 328 139.62 334.39C142.47 336.65 144.86 339.48 147.38 341.98C144.27 344.01 141.47 345.61 138.93 347.55C133.35 351.82 128.53 356.87 124.29 362.47C123.47 363.55 122.71 364.08 121.28 363.48C117.15 361.76 112.9 360.33 108.84 358.47C98.6798 353.79 88.5998 348.96 78.5098 344.13C76.5298 343.18 74.6798 341.97 72.6998 340.84C75.5098 337.01 78.6098 333.89 82.3498 331.56C86.0898 329.23 90.0898 327.3 94.4098 324.96C93.4198 322.97 92.4998 320.66 91.1898 318.61C89.9898 316.73 88.3598 315.11 86.9198 313.39C84.0898 309.99 82.8298 306.12 83.3598 301.7C83.4598 300.82 83.6098 299.95 83.7598 298.87C80.4498 299.17 77.6198 300 75.8998 302.76C74.4298 305.12 73.0298 307.58 72.0498 310.16C70.4198 314.43 67.6398 317.36 63.3498 318.88C62.5598 319.16 61.7798 319.47 60.8898 319.8M407.58 276.56C410.72 277.46 413.89 278.26 416.99 279.28C421.41 280.73 424.42 283.53 425.18 288.36C425.46 290.13 426 291.85 426.42 293.6C426.58 293.62 426.74 293.64 426.9 293.67C427.57 292.61 428.53 291.62 428.84 290.46C429.47 288.08 430.09 285.6 430.11 283.16C430.16 277.53 432.26 273.02 436.53 269.44C438.44 267.84 440.34 266.22 442.25 264.61C442.91 264.05 443.59 263.51 444.26 262.97C444.09 262.68 443.91 262.38 443.74 262.09C442.55 262.44 441.21 262.55 440.2 263.17C436.04 265.74 431.84 268.23 426.95 269.06C418.28 270.53 409.74 273.3 400.71 271.12C392.61 269.17 384.65 267.01 377.77 262.05C372.6 258.32 368.12 253.84 364.28 248.81C361.77 245.52 359.13 242.02 357.83 238.17C356.29 233.58 356.09 228.54 355.39 223.68C355.27 222.81 355.16 222.4 354.18 222.05C351.85 221.23 349.6 220.16 347.38 219.07C345.69 218.25 344.12 217.17 342.43 216.37C342.03 216.18 341.09 216.42 340.81 216.79C338.87 219.33 337.78 222.12 338.37 225.45C339.16 229.93 340.05 234.43 339.02 239.02C338.9 239.54 339.15 240.23 339.44 240.72C342.71 246.39 345.98 252.05 349.32 257.68C358.49 273.13 368.76 287.82 379.83 301.98C386.45 310.45 392.98 318.98 400.43 326.77C404.52 331.05 408.44 335.53 410.08 341.52C410.48 342.98 409.95 343.84 409.26 344.76C408.58 345.68 407.63 346.25 406.41 345.63C404.91 344.87 403.1 344.42 401.97 343.28C398.97 340.28 396.02 337.17 393.51 333.77C389.83 328.81 386.53 323.57 383.12 318.42C382.19 317.02 381.37 315.55 380.62 314.06C380.03 312.89 379.8 311.49 379.06 310.44C374.09 303.27 368.99 296.18 364 289.02C355.92 277.43 347.94 265.78 339.84 254.22C333.47 245.12 326.99 236.09 320.52 227.06C318.4 224.1 316.17 221.23 314.21 218.61C309.66 220.05 305.3 221.43 301.03 222.78C300.97 222.72 301.03 222.83 301.13 222.87C301.47 222.99 301.82 223.1 302.17 223.2C311.5 225.98 319.53 230.72 325.57 238.54C328 241.69 330.06 244.89 330.65 249.01C331.38 254.11 331.06 259.2 330.78 264.26C330.59 267.72 329.94 271.26 328.86 274.56C326.33 282.3 321.93 289.09 316.92 295.42C314.65 298.29 311.81 300.71 309.2 303.31C308.57 303.93 307.95 303.91 307.13 303.36C300.01 298.57 292.19 297.26 283.89 299.12C279.25 300.16 274.69 301.51 270.06 302.73C270.06 301.78 269.98 300.81 270.07 299.86C270.49 295.71 270.99 291.56 271.41 287.41C271.94 282.11 272.41 276.8 272.94 271.5C273.51 265.84 274.12 260.18 274.7 254.52C275.11 250.49 275.37 246.43 275.91 242.42C276.75 236.14 277.83 229.89 278.68 223.61C278.86 222.24 279.38 221.68 280.65 221.54C283.4 221.24 286.14 220.91 289.11 220.57C285.19 218.57 282.43 214.51 277.25 215.2C278.2 223 275.64 230.5 274.96 238.2C274.38 244.71 273.53 251.19 272.84 257.69C272.42 261.6 272.11 265.53 271.7 269.44C271.02 275.88 270.26 282.32 269.6 288.76C268.93 295.27 268.4 301.79 267.69 308.29C266.74 317.02 265.54 325.7 265.82 334.54C266.09 343.05 266.91 351.47 268.04 359.89C268.17 360.87 268.07 361.46 266.89 361.7C265.79 361.92 264.77 362.5 263.71 362.92C263.82 363.27 263.93 363.62 264.04 363.97C272.25 361.82 280.38 359.31 288.59 357.15C296.99 354.94 305.35 352.58 313.73 350.28C322.04 347.99 330.33 345.64 338.66 343.4C347.04 341.15 355.49 339.12 363.85 336.79C372.14 334.49 380.35 331.94 388.58 329.51C389.51 330.89 390.32 332.09 391.25 333.46C388.35 334.29 385.57 335.05 382.81 335.88C373.5 338.68 364.23 341.57 354.9 344.29C343.61 347.58 332.28 350.73 320.97 353.98C320.58 354.09 320.31 354.63 319.99 354.97C320.4 355.12 320.8 355.34 321.22 355.4C321.49 355.44 321.79 355.25 322.09 355.17C333.82 351.88 345.57 348.67 357.27 345.3C368.51 342.06 379.72 338.67 390.92 335.27C391.93 334.96 392.43 335.13 393.07 335.88C395.03 338.2 396.89 340.65 399.11 342.68C400.99 344.4 403.22 345.86 405.52 346.96C407.81 348.05 409.14 347.47 410.66 345.66C412.15 343.89 412.52 341.57 411.53 339.74C410.02 336.95 408.46 334.18 407.03 331.58C413.96 329.12 420.99 326.63 428.3 324.04C429.9 328.04 431.47 331.95 433.1 336.03C436.63 332.4 440.92 330.23 445.68 328.88C446.06 328.77 446.5 328.48 446.68 328.15C447.97 325.82 449.2 323.46 450.23 321.53C448.45 319.15 446.91 317.1 445.58 315.32C438.73 318.04 431.9 320.84 425 323.45C419.19 325.64 413.3 327.63 407.42 329.64C406.75 329.87 405.62 329.95 405.23 329.56C403.66 328.01 402.29 326.25 400.84 324.56C402.5 324.14 404.04 323.83 405.54 323.36C419.07 319.11 432.07 313.58 444.74 307.25C453.5 302.88 461.96 298.01 468.73 290.75C470.26 289.11 471.51 287.2 472.89 285.42C472.79 285.23 472.69 285.03 472.6 284.84C470.49 284.61 468.38 284.38 465.92 284.11C466.11 290.1 464.26 294.84 458.33 297.17C458.9 293.8 459.55 290.46 460.02 287.1C460.44 284.1 461.3 280.96 460.81 278.08C460.23 274.62 458.54 271.31 457.12 268.03C455.78 264.94 453.2 263.36 449.9 262.82C448.48 262.59 447.43 262.67 446.46 264.03C445.53 265.35 444.16 266.36 442.96 267.47C440.73 269.53 438.42 271.52 436.26 273.65C434.38 275.5 433.35 277.83 433.14 280.48C432.97 282.6 432.92 284.73 432.71 286.84C432.35 290.39 430.86 293.46 427.98 296.43C430.08 297.08 431.77 297.67 433.49 298.11C436.59 298.9 439.76 299.45 442.81 300.41C444.65 300.99 445.88 302.48 446.3 304.63C445.54 305.03 444.81 305.41 444.03 305.83C442.94 302.46 440.1 301.89 437.36 301.4C433.49 300.72 429.45 300.73 426.29 298.05C423.75 299.87 423.88 299.84 424.64 302.67C425.35 305.3 425.88 307.99 426.22 310.7C426.59 313.67 426.41 313.59 423.68 314.99C422.4 315.65 421.74 315.36 420.77 314.43C411.67 305.65 401.18 299.21 388.82 296.15C384.68 295.13 380.43 294.55 376.24 293.7C375.75 293.6 375.24 293.1 374.92 292.66C370.46 286.46 366.01 280.26 361.61 274.02C359.99 271.71 358.51 269.3 356.81 266.7C362.6 266.7 368.09 266.23 373.47 266.8C383.82 267.9 393.61 271.04 402.9 275.86C411.55 280.35 418.04 286.69 421.87 295.69C422.09 296.22 422.41 296.7 422.67 297.18C424.15 296.52 424.55 295.73 423.93 294.25C423.3 292.76 422.93 291.11 422.72 289.5C422.16 285.1 419.35 283.06 415.5 281.47C412.68 280.3 410.25 278.21 407.65 276.53L407.62 276.56H407.58ZM335.54 409.33C336.07 409.3 336.63 409.37 337.14 409.23C342.17 407.91 347.2 406.56 352.22 405.2C353.01 404.99 353.78 404.71 354.9 404.36C353.3 402.89 351.96 400.67 350.65 400.68C348.46 400.71 346.27 402.11 344.13 403.05C343.5 403.33 343.11 404.08 342.52 404.5C340.23 406.15 337.9 407.75 335.59 409.38C332.74 410.26 329.88 411.14 326.82 412.09C327.07 412.33 327.46 412.89 327.64 412.83C330.4 411.95 333.69 412.23 335.54 409.31M494.11 245.99C493.69 258.41 491.97 268.34 487.57 277.83C485.5 282.3 484.65 287.33 483.28 292.12C481.93 296.85 480.74 301.64 479.28 306.34C477.48 312.12 475.16 317.76 473.64 323.61C472 329.9 469.57 335.55 465.24 340.55C461.92 344.39 459.48 348.97 456.52 353.13C452.18 359.23 447.72 365.23 443.34 371.3C442.78 372.08 442.3 372.95 441.94 373.84C440.8 376.6 439.11 378.94 436.82 380.83C430.55 386.01 424.28 391.2 417.96 396.34C416.08 397.87 414.15 399.39 412.09 400.68C406.13 404.38 400.56 408.59 395.32 413.24C393.11 415.2 390.68 416.78 387.54 416.81C387.01 416.81 386.46 417.29 385.96 417.61C383.34 419.25 380.57 420.04 377.44 419.44C376.54 419.27 375.47 419.36 374.62 419.69C371.39 420.93 368.17 422.21 365.05 423.7C364.12 424.14 363.55 425.32 362.75 426.1C362.08 426.75 361.42 427.6 360.59 427.86C356.32 429.23 352.01 430.49 347.69 431.7C344.35 432.63 340.99 433.47 337.62 434.25C335.13 434.83 332.98 435.94 331.07 437.65C323.79 444.17 315.21 446.63 305.52 446.23C302.33 446.1 298.96 446.75 295.89 447.72C289.44 449.74 283.03 451.81 276.22 452.21C275.65 452.24 275.1 452.65 274.52 452.79C271.29 453.57 268.05 454.33 264.81 455.07C264.47 455.15 264 455.15 263.74 454.97C261.67 453.55 259.96 454.81 258.19 455.65C255.72 456.81 253.28 458.08 250.74 459.06C244.99 461.28 238.98 461.2 233.11 460.02C228.15 459.02 223.34 459.27 218.46 460.02C217.62 460.15 216.77 460.27 215.92 460.24C205.58 459.93 195.28 460.84 184.96 461.24C180.11 461.43 175.29 461.34 170.55 459.68C167.97 458.77 165.05 458.89 162.29 458.45C160.37 458.15 158.36 457.98 156.6 457.24C151.57 455.14 146.24 454.81 140.95 454.05C134.16 453.07 127.94 450.69 122.58 446.21C121.13 445 119.3 444.21 117.6 443.33C112.16 440.51 106.54 438 101.29 434.87C96.1898 431.83 91.4598 428.17 86.5498 424.79C74.5998 416.55 64.6498 406.3 56.3698 394.44C49.8398 385.09 44.6798 374.95 39.8898 364.61C38.6898 362.02 37.3398 359.5 35.9298 357.02C31.5998 349.39 28.6598 341.23 26.7898 332.7C25.3198 326.01 24.3098 319.22 22.6698 312.58C21.6998 308.67 21.5998 304.98 22.5598 301.1C22.9398 299.55 22.6698 297.84 22.6698 296.21C22.6698 293.8 22.6998 291.38 22.6398 288.97C22.5698 286.44 22.5198 283.89 22.2698 281.38C20.6798 265.36 24.7198 250.94 34.1398 237.9C39.2798 230.79 44.4198 223.71 50.8498 217.68C55.9398 212.92 61.5098 208.91 67.7198 205.65C84.2898 196.96 101.79 190.79 119.68 185.58C121.1 185.17 122.56 184.24 123.56 183.15C126.59 179.88 130.46 177.99 134.39 176.2C140.39 173.45 145.68 169.72 150.21 164.96C158.14 156.63 165.74 148.01 172.71 138.84C178.53 131.19 184.65 123.78 190.58 116.21C192.49 113.77 194 110.99 196.09 108.73C199.05 105.53 199.96 101.7 200.54 97.6399C202.02 87.3599 206.41 78.4999 213.74 71.1499C217.32 67.5499 221.83 66.0399 226.79 65.5199C233.89 64.7799 239.95 67.3699 245.63 71.2099C246.39 71.7199 246.94 72.5999 247.49 73.3699C249.32 75.9399 251.09 78.5699 252.92 81.1399C262.5 94.5699 272.74 107.47 283.5 119.99C287.77 124.95 291.14 130.67 295.09 135.91C298.17 139.99 301.48 143.88 304.78 147.79C305.23 148.33 306.24 148.84 306.87 148.72C314.31 147.37 321.76 147.42 329.22 148.46C340.59 150.04 352.01 151.37 363.31 153.36C375.24 155.46 386.8 159.11 398.09 163.51C405.28 166.31 412.34 169.44 419.56 172.17C421.95 173.07 424.66 173.09 427.21 173.63C429.23 174.05 431.27 174.48 433.19 175.19C436.02 176.23 438.23 178.03 439.38 180.99C439.65 181.67 440.49 182.24 441.2 182.6C450.69 187.41 459.37 193.46 467.65 200.07C478.07 208.39 485.27 219.25 490.43 231.32C492.66 236.53 493.24 242.45 494.09 246.04" fill="white"/>
<path d="M245.61 69.22C245.06 68.9 244.51 68.59 243.97 68.27C239.55 65.59 234.79 63.8 229.61 63.71C220.48 63.55 213.45 67.57 208.18 74.96C203.46 81.57 200.17 88.74 199.06 96.83C198.97 97.49 198.83 98.14 198.68 98.79C198.55 99.37 198.36 99.95 198.11 100.86C196.97 98.72 194.82 97.32 195.11 94.78C195.67 89.81 196.04 84.78 197.12 79.91C198.45 73.88 202.14 69.12 206.67 64.99C211.7 60.41 217.1 56.56 223.92 55.09C229.18 53.96 233.97 55.53 238.63 57.55C239.88 58.09 240.84 59.62 241.63 60.88C243.25 63.46 244.66 66.17 246.15 68.82C245.97 68.95 245.79 69.09 245.61 69.22Z" fill="white"/>
<path d="M193.52 94.1498C188.18 87.2098 187.18 80.2398 191.28 72.5498C196.16 63.3898 204.06 58.5198 213.67 55.8398C214.52 55.5998 215.44 55.6398 216.4 55.6898C209.59 59.8398 203.43 64.6698 199.08 71.4198C194.69 78.2398 193.84 85.9898 193.52 94.1498Z" fill="white"/>
<path d="M269.74 360.9C268.01 349.64 267.02 338.46 267.41 327.23C267.58 322.4 268.27 317.59 268.75 312.78C268.98 310.49 269.2 308.2 269.58 305.94C269.68 305.33 270.25 304.49 270.78 304.32C278.2 301.92 285.61 299.22 293.58 300C299.92 300.62 305.23 303.59 310.07 307.72C319.15 315.48 323.66 325.63 326 336.98C326.4 338.93 326.5 340.94 326.71 342.93C326.86 344.38 326.32 345.13 324.76 345.56C308.34 350.01 291.94 354.56 275.54 359.1C273.62 359.63 271.74 360.28 269.74 360.92" fill="white"/>
<path d="M328.2 340.88C326.19 326.66 321.2 314.19 309.51 305.32C317.78 298.56 323.11 290.03 327.97 281.11C328.75 279.68 329.89 278.31 331.18 277.31C335.51 273.96 340.3 271.44 345.59 269.87C347.23 269.38 348.19 269.72 349.21 271.18C354.38 278.59 359.68 285.9 364.93 293.25C365.13 293.53 365.3 293.84 365.47 294.12C354.48 295.82 346.77 302.25 340.69 310.97C334.48 319.88 330.44 329.7 328.61 340.42C328.59 340.51 328.47 340.59 328.21 340.88" fill="white"/>
<path d="M387.87 328.33C368.32 333.72 349.2 338.99 329.48 344.43C330.14 341.01 330.5 338.03 331.31 335.18C334.41 324.3 339.02 314.15 346.91 305.81C351.22 301.25 356.37 297.91 362.47 296.15C365.55 295.26 366.72 295.72 368.53 298.3C371.45 302.47 374.46 306.58 377.32 310.79C378.11 311.96 378.48 313.4 379.11 314.69C379.77 316.04 380.42 317.41 381.25 318.65C383.29 321.73 385.42 324.75 387.88 328.32" fill="white"/>
<path d="M420.16 316.48C413.63 318.98 407.42 321.82 400.62 322.89C400 322.99 399.05 322.68 398.66 322.22C393.57 316.2 388.52 310.14 383.52 304.04C381.26 301.28 379.13 298.41 376.91 295.55C385.03 293.33 413.44 307.05 420.15 316.48" fill="white"/>
<path d="M347.51 251.32C350.98 248.09 353.54 244.32 357.98 242.61C363.91 252.06 371.37 260.11 381.37 266.39C380.06 266.19 379.24 266.07 378.42 265.93C377.59 265.79 376.76 265.6 375.93 265.46C370.21 264.51 364.48 264.48 358.74 265.18C356.87 265.41 355.54 265.25 354.49 263.24C352.31 259.07 349.75 255.1 347.51 251.32Z" fill="white"/>
<path d="M346.72 267.94C340.66 269.43 335.31 272.34 330.29 276.01C332.85 266.2 333.28 256.35 331.73 245.99C332.4 246.49 332.95 246.72 333.23 247.14C337.73 253.95 342.19 260.79 346.66 267.63C346.72 267.72 346.71 267.86 346.72 267.95" fill="white"/>
<path d="M407.61 276.53C405.27 275.34 402.92 274.15 400.51 272.92C403.93 272.28 405.6 274.72 407.58 276.56L407.61 276.53Z" fill="white"/>
<path d="M124.85 364.47C134.26 351.23 146.29 342.2 162.22 339.03C166.94 338.09 171.76 336.88 176.51 336.95C189.57 337.14 201.91 340.5 213.41 346.85C219.72 350.33 225.7 354.25 230.62 359.54C233.04 362.14 234.9 365.24 237.06 368.08C237.4 368.52 237.97 368.79 238.43 369.13C238.45 368.54 238.74 367.74 238.46 367.39C236.07 364.4 235.89 360.99 236.32 357.42C236.47 356.22 236.55 355.01 236.7 353.81C237.37 348.29 238.15 342.81 240.31 337.61C244.12 328.45 249.79 320.75 257.83 314.87C257.97 314.77 258.15 314.74 258.23 314.71C257.89 325.77 257.55 336.83 257.2 348.05C255.36 348.41 254.7 350.07 254.28 351.81C253.23 356.21 252.3 360.65 251.24 365.05C251.11 365.58 250.54 366.3 250.05 366.42C244.49 367.8 238.95 369.29 233.32 370.32C222.99 372.22 212.54 372.91 202.03 372.95C197.23 372.97 192.44 373.29 187.64 373.23C184.25 373.18 180.88 372.68 177.49 372.45C173.75 372.2 170 372.13 166.28 371.81C161.52 371.4 156.73 371.1 152.04 370.26C143.85 368.79 135.72 366.96 127.57 365.26C126.69 365.08 125.84 364.75 124.85 364.46" fill="white"/>
<path d="M234.6 361.09C216.8 342.87 195.21 334.63 169.9 335.35C171.11 330.75 172.98 326.25 175.43 322.01C178.52 316.66 181.62 311.35 186.54 307.3C192.75 302.18 199.92 299.12 207.65 297.85C220.54 295.73 231.33 300.26 240.03 309.84C242.72 312.8 245.1 316.05 247.66 319.14C248.55 320.21 248.4 321.02 247.57 322.14C242.51 329 238.02 336.18 236.55 344.77C235.81 349.11 235.39 353.51 234.85 357.89C234.72 358.96 234.68 360.04 234.61 361.09" fill="white"/>
<path d="M268.48 225.77C268.2 228.6 267.92 231.28 267.66 233.97C267.31 237.52 267 241.08 266.61 244.62C265.99 250.27 265.32 255.91 264.66 261.56C264.1 266.36 263.53 271.17 262.97 275.97C262.27 281.92 261.58 287.87 260.89 293.82C260.37 298.32 259.84 302.83 259.32 307.34C259.17 308.66 259.14 310.01 258.87 311.3C258.75 311.88 258.25 312.44 257.79 312.86C256.85 313.71 255.79 314.44 254.82 315.26C251.92 317.69 251.8 317.86 248.78 315.61C246.37 313.81 243.98 311.81 242.14 309.45C237.84 303.92 233.62 298.26 232.38 291.07C230.71 281.41 232.03 272.07 235.45 262.96C239.79 251.42 246.98 241.79 255.95 233.57C259.32 230.48 263.66 228.46 267.57 225.97C267.75 225.85 268.02 225.87 268.49 225.77" fill="white"/>
<path d="M225.42 297.76C227.32 296.85 229.37 295.86 231.45 294.86C232.69 297.49 233.91 300.09 235.1 302.63C231.9 301.02 228.66 299.39 225.42 297.76Z" fill="white"/>
<path d="M261.84 374.02C261.06 375.99 260.4 378.02 259.45 379.91C258.92 380.97 257.83 380.99 257.48 379.72C257.08 378.24 256.97 376.67 256.9 375.13C256.89 374.85 257.59 374.38 258.03 374.27C259.07 373.99 260.16 373.87 261.23 373.69C261.43 373.8 261.64 373.92 261.84 374.03" fill="white"/>
</g>
</svg>
