<svg width="516" height="516" viewBox="0 0 516 516" fill="none" xmlns="http://www.w3.org/2000/svg">
<mask id="mask0_2541_95" style="mask-type:luminance" maskUnits="userSpaceOnUse" x="20" y="78" width="476" height="360">
<path d="M495.28 78H20.72V438H495.28V78Z" fill="white"/>
</mask>
<g mask="url(#mask0_2541_95)">
<path d="M296.27 112.9C296.42 112.62 296.58 112.35 296.73 112.07C296.14 111.71 295.56 111.35 294.97 110.99C294.77 111.32 294.58 111.65 294.38 111.98C295.01 112.29 295.64 112.6 296.27 112.9ZM135.76 144.23C135.18 144.93 134.74 145.42 134.37 145.98C134.33 146.04 134.97 146.65 135 146.62C135.52 146.21 136.01 145.77 136.44 145.27C136.49 145.21 136.13 144.79 135.76 144.23ZM317.95 179.28C318.19 178.3 318.39 177.49 318.59 176.68C318.22 176.73 317.72 176.65 317.52 176.86C316.85 177.55 316.45 178.34 317.95 179.28ZM183 236.13C183.48 237.25 183.82 238.04 184.16 238.83C184.42 238.57 184.86 238.34 184.92 238.04C185.11 237.08 184.95 236.23 183 236.13ZM158.2 145.95C158.66 145.08 159.03 144.59 159.16 144.05C159.21 143.83 158.74 143.48 158.5 143.19C158.02 143.67 157.5 144.12 157.11 144.66C157.05 144.74 157.62 145.27 158.2 145.95ZM185.68 245.7C184.02 245.95 183.87 246.71 184.41 247.61C184.59 247.91 185.07 248.03 185.42 248.23C185.51 247.38 185.6 246.54 185.68 245.7ZM245.37 117.19C244.58 116.67 244.12 116.24 243.58 116.1C243.39 116.05 243.01 116.67 242.71 116.98C243.15 117.39 243.54 117.9 244.05 118.16C244.21 118.24 244.7 117.69 245.37 117.19ZM210.17 268.79C210 268.48 209.82 268.17 209.65 267.86C208.97 268.21 208.26 268.51 207.64 268.95C207.55 269.01 207.92 269.71 208.07 270.11C208.77 269.67 209.47 269.23 210.17 268.79ZM141.92 167.12C142.6 166.24 143.07 165.66 143.46 165.03C143.49 164.98 142.79 164.32 142.71 164.37C142.06 164.81 141.47 165.33 140.92 165.88C140.89 165.91 141.38 166.46 141.91 167.12M310.41 109.15C309.89 109.78 309.36 110.33 309.41 110.39C309.87 110.95 310.41 111.47 311 111.89C311.09 111.95 311.91 111.22 311.87 111.15C311.52 110.54 311.05 109.99 310.41 109.15ZM160.97 140C161.14 140.19 161.31 140.38 161.48 140.57C162.18 140 162.88 139.43 163.58 138.86C163.22 138.55 162.85 137.97 162.5 137.98C161.21 138.03 160.89 138.92 160.97 140ZM180.64 155.39C179.77 154.89 179.25 154.47 179.15 154.55C178.55 155.06 178.03 155.68 177.49 156.26C177.81 156.52 178.29 157.07 178.42 157C179.11 156.62 179.72 156.08 180.63 155.38M307.34 105.68C307.34 105.47 307.36 105.25 307.36 105.04C306.81 104.79 306.27 104.4 305.7 104.35C305.35 104.32 304.96 104.82 304.58 105.08C305.12 105.51 305.62 106.05 306.24 106.32C306.47 106.42 306.97 105.91 307.34 105.68ZM165.35 107.63C166.04 107.11 166.64 106.66 167.24 106.21C166.9 105.95 166.47 105.4 166.24 105.47C165.45 105.72 164.74 106.19 164 106.58C164.37 106.86 164.74 107.15 165.36 107.63M163.05 109.75C163.15 110.05 163.25 110.35 163.35 110.65C164.4 110.48 165.46 110.3 166.51 110.12C166.57 109.92 166.64 109.73 166.7 109.53C166.24 109.25 165.73 108.68 165.34 108.76C164.55 108.91 163.81 109.4 163.06 109.75M301.44 146.99C300.81 146.39 300.47 146.07 300.13 145.75C299.65 146.3 299.08 146.81 298.76 147.44C298.67 147.62 299.31 148.17 299.61 148.55C300.15 148.09 300.68 147.63 301.44 146.98M179.51 178.22C178.82 177.58 178.41 177.21 178 176.83C177.61 177.35 176.96 177.85 176.91 178.41C176.87 178.83 177.59 179.33 177.97 179.79C178.4 179.36 178.82 178.93 179.51 178.23M179.22 107.23C179.65 106.49 179.96 105.98 180.25 105.47C180.49 105.05 180.7 104.61 180.93 104.18C180.32 104.25 179.56 104.13 179.15 104.45C178.73 104.78 178.59 105.53 178.48 106.13C178.44 106.36 178.82 106.67 179.22 107.23ZM186.17 215.02C186.34 214.69 186.52 214.36 186.69 214.03C186.13 213.84 185.37 213.34 185.06 213.54C184.49 213.9 184.07 214.64 183.82 215.31C183.74 215.53 184.39 216.02 184.71 216.38C185.2 215.93 185.69 215.47 186.18 215.02M299.47 238.72C299.38 238.56 299.29 238.4 299.2 238.24C298.71 238.52 297.95 238.69 297.8 239.1C297.5 239.9 297.54 240.82 297.44 241.69C297.86 241.61 298.55 241.64 298.65 241.42C299.03 240.57 299.22 239.63 299.47 238.72ZM305.09 167.97C304.39 167.48 303.85 166.95 303.72 167.03C302.98 167.52 302.34 168.15 301.67 168.74C302.03 169.13 302.62 169.89 302.7 169.84C303.46 169.37 304.12 168.76 305.09 167.96M288.65 108C290.16 108.34 291.01 108.57 291.88 108.69C292.18 108.73 292.67 108.59 292.81 108.36C292.96 108.12 292.93 107.46 292.77 107.37C292.11 107.01 291.35 106.56 290.66 106.6C290.1 106.63 289.57 107.32 288.65 108ZM357.55 214.32C357.74 214.34 357.92 214.36 358.11 214.38C359.06 213.95 360.02 213.54 360.95 213.06C361.24 212.91 361.49 212.62 361.65 212.33C361.71 212.23 361.4 211.76 361.33 211.78C360.31 211.99 359.22 212.11 358.32 212.57C357.88 212.8 357.8 213.71 357.56 214.31M298.75 162.74C299.38 163.46 299.88 164.03 300.37 164.61C300.81 164.15 301.71 163.52 301.61 163.27C301.31 162.48 300.63 161.82 300.1 161.11C299.71 161.58 299.32 162.04 298.75 162.73M285.05 240.34C283.6 241.08 282.38 241.68 281.2 242.34C281.01 242.45 280.89 242.83 280.89 243.08C280.89 243.23 281.19 243.43 281.4 243.49C282.57 243.87 285.01 242.03 285.06 240.34M327.52 112.44C328.21 111.91 328.69 111.54 329.18 111.16C328.73 110.71 328.24 109.85 327.84 109.89C327.03 109.97 326.27 110.54 325.48 110.91C326.09 111.37 326.7 111.83 327.51 112.44M302.57 175.21C301.93 174.44 301.56 174 301.19 173.55C300.62 174.31 299.96 175.03 299.56 175.87C299.47 176.06 300.31 176.69 300.72 177.11C301.28 176.54 301.83 175.97 302.58 175.2M129.67 150.32C128.91 151.43 128.29 152.19 127.89 153.05C127.82 153.21 128.58 153.77 128.96 154.14C129.63 153.43 130.36 152.75 130.91 151.96C131 151.83 130.31 151.15 129.67 150.33M303.76 109.21C302.62 108.26 301.87 107.56 301.01 107.03C300.9 106.96 300.23 107.82 299.82 108.24C300.59 108.88 301.31 109.57 302.15 110.1C302.33 110.21 302.91 109.7 303.76 109.21ZM178.77 223.14C179.27 224.28 179.66 225.27 180.15 226.21C180.31 226.5 180.76 226.64 181.08 226.85C181.23 226.49 181.58 226.08 181.49 225.79C181.23 224.84 180.85 223.92 180.45 223.01C180.29 222.64 179.97 222.33 179.72 222C179.41 222.37 179.1 222.75 178.76 223.15M313.55 229.32C313.78 229.42 314.02 229.52 314.25 229.62C315.16 228.97 316.13 228.38 316.95 227.63C317.13 227.47 316.79 226.73 316.69 226.26C315.77 226.62 314.73 226.82 313.98 227.39C313.58 227.7 313.68 228.65 313.56 229.32M303.55 163.78C304.44 164.6 305.16 165.51 305.36 165.41C306.06 165.04 306.94 164.4 307.07 163.73C307.17 163.2 306.28 162.47 305.83 161.83C305.19 162.38 304.54 162.93 303.54 163.78M88.9699 307.7C89.1699 307.64 89.3799 307.58 89.5799 307.51C89.5799 305.48 89.5999 303.45 89.5499 301.42C89.5499 301.18 89.0999 300.76 88.8699 300.76C88.6299 300.76 88.1899 301.17 88.1799 301.41C88.1299 303.16 88.1199 304.92 88.2099 306.67C88.2299 307.02 88.7099 307.35 88.9699 307.69M416.49 356.51C417.05 356.93 417.52 357.53 418.08 357.64C419.26 357.88 422.6 355.65 422.9 354.24C420.82 354.97 418.95 355.64 416.48 356.5M323.45 222.49C323.45 222.18 323.43 221.86 323.43 221.55C322.78 221.18 321.86 220.35 321.55 220.53C320.58 221.1 319.84 222.06 319.06 222.92C319.04 222.94 319.73 223.85 319.93 223.8C321.13 223.45 322.29 222.95 323.46 222.49M242.52 97.0999C242.37 96.4999 242.36 96.0999 242.26 96.0799C240.1 95.6299 237.93 95.2099 235.76 94.8499C235.62 94.8299 235.21 95.3899 235.26 95.6099C235.31 95.8599 235.71 96.1699 236 96.2199C236.94 96.4099 237.91 96.4999 238.86 96.6199C240.01 96.7699 241.16 96.9199 242.52 97.0999ZM300.76 137.26C300 138.38 299.12 139.12 299.22 139.68C299.36 140.42 300.26 141.02 300.84 141.68C301.48 140.99 302.4 140.38 302.63 139.57C302.75 139.13 301.69 138.36 300.76 137.26ZM284.95 113.4C286.37 112.48 287.97 112.01 288.35 111.04C288.75 110.05 287.27 109.72 286.26 109.81C285.1 109.92 283.64 109.81 283.61 111.51C283.6 112.01 284.3 112.53 284.95 113.4ZM400.38 356.88C400.56 356.78 400.73 356.67 400.91 356.57C400.63 354.93 400.33 353.31 400.1 351.66C399.96 350.66 400 349.63 399.82 348.64C399.77 348.36 399.24 348.16 398.93 347.92C398.75 348.19 398.39 348.48 398.42 348.73C398.62 350.88 398.81 353.03 399.18 355.15C399.29 355.78 399.97 356.31 400.39 356.88M333.46 405.59C335.72 404.92 337.8 404.34 339.86 403.66C340.37 403.49 340.77 403 341.22 402.66C340.64 402.52 340.01 402.15 339.49 402.27C337.38 402.75 335.3 403.36 333.23 403.98C332.93 404.07 332.73 404.51 332.48 404.78C332.81 405.05 333.14 405.33 333.46 405.59ZM130.97 141.22C131.2 141.42 131.78 142.34 132.35 142.33C134.1 142.29 134.35 140.71 134.41 139.42C134.44 138.76 133.84 137.72 133.26 137.48C132.37 137.11 131 139.05 130.98 141.22M246.83 109.53C245.85 108.93 245.09 109.1 245.24 110.18C245.42 111.47 244.65 111.57 243.88 111.84C243.26 112.05 242.52 112.08 242.01 112.45C241.54 112.79 241.31 113.47 240.98 114C241.5 114.2 242.12 114.67 242.53 114.54C243.85 114.09 245.11 113.44 246.36 112.8C246.55 112.7 246.62 112.27 246.65 111.98C246.73 111.27 246.76 110.55 246.83 109.54M210.35 318.03C209.62 319.43 209 320.34 208.66 321.35C207.94 323.45 207.35 325.59 206.74 327.72C206.66 328 206.74 328.59 206.84 328.62C207.19 328.7 207.68 328.72 207.95 328.53C208.26 328.31 208.49 327.87 208.61 327.48C209.43 324.85 210.23 322.2 210.99 319.55C211.06 319.3 210.76 318.95 210.37 318.03M181.07 148.13C180.27 148.31 179.6 148.26 179.28 148.57C177.84 149.96 176.47 151.42 175.16 152.93C174.93 153.2 175.08 153.8 175.05 154.25C175.54 154.23 176.16 154.39 176.51 154.16C178.27 152.99 180.01 151.77 181.67 150.46C182.12 150.11 182.28 149.39 182.58 148.83C182.03 148.57 181.47 148.32 181.08 148.14M85.9599 304.14C85.7899 304.28 85.6299 304.42 85.4599 304.55C86.0599 306.55 86.6099 308.58 87.2799 310.56C88.0899 312.96 88.0099 315.08 85.9399 316.87C85.6699 317.1 85.6999 317.67 85.5899 318.08C86.0299 318.04 86.7199 318.16 86.8799 317.92C87.7399 316.66 89.1999 315.23 89.0899 313.99C88.8199 310.97 87.8299 308.01 87.0399 305.05C86.9399 304.68 86.3299 304.44 85.9499 304.14M328.21 405.79C328.05 405.63 327.89 405.48 327.73 405.33C326.88 405.72 326.06 406.19 325.18 406.48C321.73 407.61 318.26 408.67 314.81 409.8C314.4 409.93 314.1 410.38 313.74 410.68C314.17 410.87 314.69 411.32 315.03 411.22C319.02 410.02 323.01 408.78 326.95 407.42C327.49 407.23 327.79 406.36 328.21 405.8M268.51 121.5C268.39 121.73 268.27 121.97 268.15 122.2C268.61 122.45 269.05 122.83 269.55 122.92C270.5 123.1 271.51 122.97 272.44 123.21C275.64 124.05 278.81 125.02 282.01 125.88C282.53 126.02 283.13 125.9 283.69 125.9C283.71 125.64 283.72 125.39 283.74 125.13C278.95 122.76 273.9 121.44 268.53 121.49M251.36 94.7699C251.45 94.9099 251.54 95.0499 251.63 95.1899C252.28 95.0399 252.98 94.9899 253.58 94.7099C255.83 93.6699 258 92.4699 260.28 91.4999C261.99 90.7699 263.81 90.3099 265.56 89.6499C265.92 89.5099 266.18 89.0699 266.48 88.7699C266.07 88.5799 265.68 88.3199 265.25 88.2299C264.99 88.1699 264.66 88.3399 264.39 88.4599C260.3 90.2099 256.2 91.9599 252.13 93.7499C251.79 93.8999 251.62 94.4199 251.37 94.7699M347.16 401.69C348.13 403.65 350.78 404.88 352.89 404.23C356.28 403.18 359.6 401.87 362.92 400.61C363.27 400.47 363.46 399.9 363.73 399.53C363.62 399.37 363.52 399.22 363.41 399.06C362.63 399.27 361.83 399.42 361.09 399.7C358.83 400.56 356.61 401.49 354.35 402.35C352.57 403.02 350.83 403.03 349.1 402.06C348.62 401.79 347.97 401.83 347.17 401.69M141.62 181.97C141.92 181.64 142.57 181.12 142.96 180.46C143.83 178.97 144.4 177.35 145.99 176.33C147.23 175.54 146.5 174.39 146.02 173.43C145.57 172.53 145.08 172.71 144.55 173.43C143.37 175.02 142.13 176.57 140.94 178.15C140.51 178.72 140.05 179.3 139.77 179.94C139.26 181.11 139.89 182 141.62 181.97ZM377.25 350.87C378 350.3 378.61 350.01 378.97 349.54C379.8 348.43 380.9 347.85 382.13 348.32C383.85 348.97 385.54 349.81 387.09 350.81C389.52 352.39 392.76 352.35 394.97 350.44C395.23 350.22 395.27 349.73 395.41 349.37C395.04 349.28 394.64 349.06 394.3 349.13C393.78 349.23 393.27 349.49 392.8 349.75C390.88 350.8 389.2 350.68 387.46 349.2C385.54 347.56 383.35 346.39 380.63 346.77C378.84 347.02 377.3 348.6 377.25 350.87ZM160.62 107.21C160.13 107.25 159.92 107.21 159.77 107.28C156.18 109.13 152.59 110.96 149.05 112.89C148.74 113.06 148.76 113.83 148.62 114.33C149.15 114.44 149.77 114.78 150.18 114.61C152.98 113.47 155.74 112.25 158.5 111.01C159.43 110.59 160.37 110.13 161.16 109.49C161.53 109.19 161.75 108.4 161.65 107.92C161.57 107.57 160.85 107.35 160.62 107.21ZM216.51 321.75C217.49 322.92 250.4 330.4 251.99 329.69C250.58 329.08 249.58 328.44 248.5 328.2C238.65 325.95 228.78 323.76 218.91 321.6C218.24 321.45 217.48 321.68 216.51 321.75ZM355.77 212.97C355.77 212.8 355.77 212.64 355.77 212.48C355.29 212.32 354.76 211.95 354.35 212.05C352.95 212.4 351.57 212.87 350.22 213.39C347.85 214.3 345.59 215.78 343.15 216.13C336.87 217.06 331.99 220.32 327.57 224.51C326.71 225.32 326.09 226.41 325.5 227.46C325.32 227.77 325.62 228.36 325.7 228.82C326.06 228.58 326.52 228.4 326.75 228.07C329.87 223.71 333.84 220.09 339.02 218.92C344.52 217.68 349.44 215.06 354.78 213.52C355.13 213.42 355.44 213.16 355.76 212.97M206.49 105.51C203.92 105.78 201.89 106 199.86 106.21C199.83 106.43 199.79 106.66 199.76 106.88C200.22 107.11 200.7 107.58 201.14 107.54C203.49 107.35 205.85 107.15 208.17 106.72C209.43 106.49 209.85 105.57 208.95 104.6C209.46 104.26 209.97 103.92 210.48 103.58C210.08 103.12 209.74 102.55 209.25 102.21C208.49 101.68 207.62 101.29 206.6 100.74C209.17 99.9299 214.94 100.29 217.23 101.22C217.62 101.38 218.15 101.2 218.61 101.17C218.37 100.74 218.21 100.2 217.86 99.8999C217.52 99.5999 216.99 99.4199 216.53 99.3899C213.27 99.1899 210 98.9799 206.74 98.9499C206.05 98.9499 205.35 99.6499 204.65 100.03C205.04 100.72 205.43 101.41 205.81 102.1C205.85 102.17 205.78 102.3 205.75 102.45C205.39 102.45 205 102.37 204.67 102.47C204.15 102.63 203.68 102.9 203.19 103.13C203.56 103.62 203.85 104.21 204.31 104.57C204.79 104.94 205.45 105.07 206.52 105.52M170.53 215.73C170.89 217.15 171.13 218.4 171.53 219.6C172.43 222.34 173.78 224.99 174.27 227.79C174.87 231.28 176.99 233.66 179.14 236.11C179.54 236.56 180.48 236.53 181.17 236.73C181.13 236.02 181.3 235.19 181 234.61C180.19 233.06 178.96 231.7 178.28 230.1C176.24 225.33 174.39 220.48 172.43 215.67C172.26 215.26 171.83 214.97 171.52 214.62C171.18 215 170.84 215.39 170.54 215.73M158.14 101.08C158.16 101.39 158.17 101.69 158.19 102C158.6 102.07 159.01 102.23 159.41 102.2C161.72 102.07 164.02 101.94 166.32 101.73C169.59 101.42 172.84 101.16 175.37 98.5299C176.04 97.8299 177.32 97.6299 178.37 97.3899C182.43 96.4699 186.5 95.5999 190.58 94.7499C192.41 94.3699 194.24 93.9599 196.08 93.7199C199.45 93.2799 202.82 92.9199 206.2 92.5699C208.89 92.2899 211.61 91.7799 214.29 91.8999C217.42 92.0399 220.52 92.7699 223.64 93.1699C224.21 93.2399 224.83 92.9299 225.43 92.7999C224.94 92.3799 224.51 91.7499 223.95 91.5899C222.74 91.2299 221.46 91.0799 220.2 90.8899C216.36 90.3099 212.54 89.6099 208.61 90.3399C205.28 90.9599 201.92 91.3899 198.56 91.8399C196.34 92.1399 193.99 91.9899 191.9 92.6599C187.56 94.0599 183.24 95.3699 178.66 95.7299C176.4 95.8999 174.57 96.9699 172.83 98.4299C171.88 99.2299 170.45 99.6499 169.17 99.8499C167.14 100.17 165.04 100.09 162.99 100.3C161.36 100.47 159.75 100.81 158.14 101.08ZM205.61 279.91C205.72 280.15 205.83 280.38 205.95 280.61C206.64 280.39 207.36 280.24 208.01 279.94C211.12 278.47 214.24 277 217.3 275.43C219.56 274.27 221.95 273.21 223.91 271.64C228.36 268.08 233.11 265.11 238.4 262.98C239.35 262.6 240.29 262.08 241.08 261.44C243.08 259.81 245.43 259.34 247.88 259.3C249.79 259.27 251.02 258.47 252.03 256.86C252.54 256.05 253.59 255.38 254.53 255.1C255.4 254.84 256.49 255.05 257.41 255.32C260.12 256.12 262.02 255.12 263.48 252.9C265.04 250.53 267.27 249.02 269.86 247.95C273.14 246.59 276.42 245.2 279.67 243.77C280 243.62 280.17 243.1 280.42 242.75C280 242.56 279.59 242.25 279.17 242.23C278.79 242.21 278.39 242.52 278 242.69C275.4 243.82 272.84 245.04 270.2 246.06C267.19 247.22 264.36 248.69 262.57 251.42C261.29 253.36 259.8 254.18 257.56 253.74C256.97 253.62 256.36 253.59 255.76 253.48C253.51 253.06 251.99 253.64 250.85 255.68C249.96 257.28 248.73 257.84 246.98 257.78C244.81 257.71 242.84 258.31 240.99 259.56C239.24 260.73 237.23 261.51 235.4 262.58C232.06 264.53 228.77 266.57 225.47 268.57C222.16 270.57 218.9 272.66 215.52 274.54C212.62 276.16 209.58 277.52 206.61 279.03C206.24 279.22 205.97 279.6 205.65 279.89M235.18 115.49C235.09 115.14 234.99 114.78 234.9 114.43C234.32 114.54 233.71 114.58 233.17 114.79C231.54 115.42 229.96 116.2 228.32 116.78C222.6 118.76 216.83 120.59 211.14 122.64C206.32 124.38 201.8 126.75 197.84 130.03C197.27 130.5 197.18 131.54 196.87 132.32C197.73 132.6 198.63 133.22 199.43 133.1C201.63 132.76 203.8 132.16 205.96 131.56C217.41 128.36 229.03 126.04 240.87 124.82C241.26 124.78 241.61 124.4 241.97 124.18C241.6 123.9 241.2 123.36 240.85 123.39C238.13 123.58 235.36 123.63 232.71 124.18C222.94 126.23 213.21 128.46 203.47 130.62C202.7 130.79 201.93 130.97 201.16 131.12C200.46 131.25 199.74 131.34 199.04 131.45C198.96 131.23 198.88 131.02 198.81 130.8C202.25 128.93 205.55 126.71 209.16 125.27C215.61 122.69 222.26 120.61 228.8 118.24C230.98 117.45 233.07 116.42 235.2 115.5M311.15 183.35C311.1 183.13 311.04 182.9 310.99 182.68C310.37 182.75 309.66 182.67 309.13 182.93C294.38 190.13 279.76 197.74 266.51 207.38C253.68 216.71 241.79 227.35 229.52 237.45C229.16 237.74 229.13 238.42 228.95 238.92C229.54 238.76 230.26 238.77 230.69 238.42C235.43 234.5 240.1 230.49 244.84 226.57C251.13 221.37 257.21 215.86 263.87 211.18C271.71 205.67 279.97 200.74 288.24 195.89C295.25 191.78 302.54 188.14 309.7 184.28C310.2 184.01 310.67 183.66 311.15 183.35ZM100.42 208.23C100.61 209.24 100.75 210.25 101.01 211.24C101.08 211.5 101.49 211.76 101.79 211.83C101.95 211.87 102.24 211.51 102.4 211.28C104.15 208.85 105.71 206.25 107.67 204C109.68 201.71 111.4 199.35 111.85 196.3C112.54 191.65 114.95 188.05 118.51 185.17C120.44 183.61 122.58 182.32 124.59 180.86C124.98 180.58 125.17 180.03 125.46 179.61C124.99 179.45 124.47 179.08 124.07 179.18C119.56 180.31 115.13 181.71 112.14 185.61C109.5 189.05 106.34 192.29 105.93 196.91C105.72 199.31 104.5 200.95 102.92 202.53C101.36 204.08 100.33 205.9 100.42 208.24M291.65 313.16C289.71 312.24 288.68 313.25 287.83 314.04C280.14 321.16 272.48 328.32 264.9 335.56C263.71 336.7 262.79 338.25 262.1 339.77C260.82 342.62 262.15 344.52 265.22 344.29C266.89 344.16 268.58 343.81 270.19 343.32C280.09 340.31 289.91 337.04 299.86 334.21C312.65 330.58 325.49 327.08 338.4 323.89C348.55 321.38 358.81 319.47 369.31 318.81C375.39 318.43 381.42 317.14 387.45 316.15C392.08 315.39 396.71 314.32 400.57 311.57C403.57 309.43 406.17 306.71 408.93 304.23C412.28 301.21 415.79 298.81 420.7 299.84C422.04 300.12 422.96 300.64 423.1 301.88C423.35 304.1 423.35 306.34 423.45 308.58C423.5 309.78 423.45 310.99 423.63 312.17C424.21 315.93 424.85 319.69 425.51 323.44C425.94 325.88 426.38 328.33 426.97 330.74C427.11 331.29 427.84 332.02 428.36 332.07C428.92 332.13 429.6 331.54 430.14 331.12C430.4 330.93 430.47 330.48 430.61 330.15C431.92 327.1 433.27 324.07 434.53 321C435.26 319.22 435.92 317.4 436.47 315.55C437.26 312.89 437.92 310.19 438.63 307.51C438.77 306.97 438.93 306.44 439.08 305.9C438.89 305.77 438.71 305.64 438.52 305.5C438.01 306.04 437.3 306.49 437.02 307.13C436.46 308.4 435.89 309.74 435.77 311.1C435.13 318.2 430.57 323.8 428.65 330.91C428.35 329.89 428.16 329.39 428.07 328.87C427.2 324.05 426.21 319.26 425.56 314.41C425.15 311.35 425.23 308.22 425.15 305.13C424.99 299.28 422.51 296.35 417.6 297.06C412.58 297.79 407.77 299.42 404.2 303.39C401.46 306.45 398.13 308.63 394.33 310.08C391.28 311.24 388.2 312.41 385.05 313.23C379.49 314.66 373.89 316.01 368.24 317.04C362.63 318.06 356.88 318.32 351.31 319.48C341.13 321.6 330.99 324 320.9 326.55C312.04 328.79 303.24 331.26 294.48 333.86C286.52 336.23 278.68 338.95 270.75 341.43C268.8 342.04 266.76 342.4 264.73 342.72C263.33 342.95 262.94 341.97 263.36 340.89C263.82 339.73 264.42 338.51 265.28 337.63C269.44 333.35 273.68 329.13 277.97 324.97C281.08 321.96 284.27 319.03 287.5 316.15C288.69 315.09 290.08 314.26 291.66 313.13M455.26 292.18C455.36 292.28 455.46 292.38 455.56 292.48C453.21 294.86 450.81 297.19 448.53 299.63C445.95 302.39 443.45 305.22 440.96 308.07C440.68 308.39 440.77 309.02 440.69 309.51C441.17 309.45 441.66 309.44 442.13 309.32C442.34 309.27 442.5 309.02 442.7 308.87C446.91 305.67 451.1 302.44 455.35 299.29C456.69 298.29 458.2 297.52 459.64 296.65C459.55 297.18 459.28 297.41 459.01 297.66C452.41 303.74 446 310 440.44 317.07C439.91 317.75 439.62 318.62 439.22 319.41C439.4 319.56 439.57 319.71 439.75 319.86C440.27 319.56 440.86 319.34 441.31 318.96C446.16 314.81 450.92 310.55 455.85 306.49C458.05 304.68 460.58 303.26 462.96 301.67C458.48 306.3 453.74 310.59 449.2 315.08C445.53 318.71 442.09 322.57 438.62 326.39C438.23 326.82 438.31 327.67 438.17 328.32C438.83 328.08 439.68 328.03 440.11 327.57C443.25 324.25 446.17 320.7 449.44 317.51C452.72 314.32 456.32 311.47 459.78 308.47C459.93 308.64 460.09 308.8 460.24 308.97C458.53 310.9 456.78 312.8 455.13 314.78C451.5 319.12 447.89 323.49 444.33 327.9C444.04 328.26 444.17 328.95 444.11 329.49C444.64 329.33 445.29 329.3 445.68 328.97C446.36 328.38 446.85 327.57 447.47 326.9C453.42 320.5 459.81 314.58 466.68 309.19C468.71 307.6 470.78 306.06 472.84 304.5C467.97 310.68 463.05 316.71 458.18 322.78C457.8 323.25 457.8 324.01 457.62 324.63C458.26 324.36 459.07 324.25 459.5 323.79C461.81 321.28 463.88 318.53 466.32 316.16C471.07 311.52 476.02 307.09 480.87 302.54C481.34 302.1 481.66 301.51 482.06 301C481.93 300.87 481.79 300.73 481.66 300.6C479 301.03 477.82 303.84 475.04 305.01C476.29 303.68 477.3 302.77 478.08 301.7C478.51 301.11 478.56 300.25 478.78 299.51C478.08 299.63 477.23 299.53 476.7 299.9C473.5 302.11 470.32 304.37 467.23 306.74C464.13 309.12 461.15 311.65 458.11 314.12C462.45 309 467.04 304.15 472.42 300.11C472.89 299.76 473.05 299.01 473.36 298.44C472.74 298.55 472 298.49 471.51 298.81C468.95 300.48 466.45 302.24 463.93 303.97C464.08 303.41 464.41 303.1 464.76 302.81C467.77 300.24 470.8 297.69 473.76 295.06C474.2 294.67 474.26 293.85 474.5 293.23C473.85 293.34 473.09 293.26 472.57 293.59C468.2 296.35 463.87 299.15 459.55 302C456.8 303.82 454.11 305.73 451.4 307.61C451.65 307 452.04 306.56 452.46 306.16C456.8 302.05 461.16 297.96 465.45 293.81C465.94 293.34 466.08 292.5 466.38 291.84C465.61 291.91 464.72 291.77 464.09 292.1C462.11 293.15 460.2 294.35 458.29 295.54C455.6 297.23 452.95 298.97 450.28 300.68C450.16 300.54 450.04 300.41 449.93 300.27C451.51 298.79 453.1 297.32 454.66 295.81C457.21 293.36 459.76 290.91 462.24 288.38C462.59 288.02 462.51 287.24 462.63 286.66C462.08 286.7 461.43 286.56 461 286.81C459.38 287.76 457.81 288.83 456.25 289.88C453.75 291.56 451.26 293.26 448.77 294.96C448.63 294.77 448.48 294.57 448.33 294.38C451.43 291.96 454.53 289.55 457.61 287.11C458.13 286.7 458.56 286.16 459.03 285.68C458.83 285.48 458.64 285.29 458.44 285.09C451.7 288.28 447.04 293.86 442.43 299.88C442.56 298.86 442.64 298.19 442.73 297.5C442.52 297.39 442.32 297.28 442.11 297.17C441.71 297.8 440.93 298.47 440.99 299.05C441.09 300.05 441.72 301 442.12 301.98C442.69 301.72 443.33 301.57 443.81 301.2C447.64 298.21 451.45 295.19 455.26 292.18ZM276 272.78C276.03 272.69 276.07 272.6 276.1 272.51C277.57 272.84 279.03 273.15 280.49 273.5C283.08 274.1 285.66 274.78 288.27 275.3C288.79 275.4 289.42 274.95 290 274.76C289.68 274.27 289.47 273.58 289.02 273.32C288.09 272.78 287.02 272.46 286.01 272.06C283.56 271.07 281.1 270.08 278.64 269.1C278.69 268.95 278.74 268.8 278.79 268.65C284.39 270.02 289.98 271.39 295.71 272.79C295.4 276.8 294.69 281.16 294.8 285.5C294.99 292.78 295.7 300.05 296.24 307.32C296.28 307.84 296.72 308.69 297.06 308.74C297.59 308.82 298.34 308.47 298.76 308.06C300.15 306.69 301.46 305.24 302.75 303.78C305.31 300.87 307.5 297.74 308.13 293.81C308.52 291.36 308.34 288.78 308.96 286.4C310.02 282.37 311.67 278.5 312.78 274.48C314.12 269.65 315.38 264.78 316.28 259.86C317.07 255.51 317.26 251.06 317.85 246.67C318.1 244.87 318.9 243.23 320.95 241.94C320.6 244.23 320.27 246.17 320.01 248.11C318.48 259.48 316.33 270.72 313.47 281.82C313.13 283.13 313.1 284.52 312.92 285.88C314.97 286.3 314.91 284.76 315.17 283.89C316.49 279.36 317.63 274.78 318.93 270.24C320.22 265.73 321.62 261.24 322.96 256.75C323.26 257.43 323.27 258.04 323.18 258.63C322.01 266.12 320.81 273.6 319.68 281.09C319.6 281.63 320.02 282.24 320.2 282.82C320.62 282.33 321.28 281.89 321.41 281.33C322.23 277.73 322.86 274.09 323.71 270.5C324.74 266.17 325.93 261.88 327.04 257.58C327.17 258.72 326.94 259.77 326.75 260.84C325.84 265.91 324.9 270.98 324.08 276.06C323.98 276.71 324.45 277.46 324.65 278.16C325.05 277.72 325.73 277.33 325.82 276.83C326.87 271.05 327.7 265.23 328.85 259.48C329.69 255.32 330.93 251.23 331.99 247.12C332.19 247.17 332.39 247.21 332.58 247.26C331 255.4 329.4 263.53 327.88 271.67C327.78 272.22 328.25 272.87 328.45 273.47C328.81 272.98 329.35 272.55 329.5 272C331.11 266.3 332.6 260.57 334.24 254.88C334.99 252.28 335.98 249.74 336.86 247.18C336.24 251.85 335.22 256.39 334.32 260.96C333.41 265.57 332.61 270.2 331.76 274.81C333.59 275.25 333.73 274.32 333.95 273.39C335.52 266.61 337.06 259.83 338.71 253.07C339.58 249.51 340.65 246.01 341.63 242.48C340.96 248.66 339.89 254.75 338.84 260.83C338.39 263.46 337.94 266.08 337.59 268.73C337.53 269.2 337.98 269.73 338.2 270.23C338.53 269.79 338.87 269.37 339.17 268.91C339.3 268.71 339.35 268.46 339.4 268.22C340.76 261.7 342.03 255.17 343.49 248.68C344.28 245.18 345.41 241.76 346.38 238.3C346.54 238.34 346.7 238.38 346.86 238.41C346.14 242.95 345.4 247.49 344.69 252.04C343.89 257.2 343.07 262.35 342.39 267.52C342.28 268.39 342.78 270.11 343.08 270.13C344.68 270.22 344.33 268.68 344.54 267.74C346.54 258.7 348.43 249.64 350.48 240.62C351.1 237.87 352.13 235.21 352.97 232.51C353.2 233.94 353.13 235.28 352.92 236.59C351.53 245.52 350.09 254.43 348.76 263.37C348.63 264.24 349.15 265.21 349.37 266.13C349.85 265.4 350.58 264.73 350.77 263.93C352.66 255.73 354.4 247.5 356.33 239.32C357.09 236.07 358.22 232.9 359.18 229.7C359.39 229.74 359.6 229.78 359.82 229.83C359.44 233.74 359.17 237.67 358.64 241.57C357.83 247.46 356.81 253.31 355.97 259.2C355.88 259.79 356.37 260.46 356.58 261.1C356.98 260.6 357.46 260.13 357.77 259.58C358 259.17 358.02 258.65 358.12 258.17C359.98 249.54 361.83 240.91 363.72 232.28C363.95 231.24 364.43 230.25 364.8 229.24C364.98 229.29 365.15 229.33 365.33 229.38C364.7 233.57 364.1 237.77 363.42 241.95C362.66 246.62 361.78 251.27 361.09 255.95C360.97 256.75 361.48 258.38 361.75 258.39C363.19 258.46 363.03 257.05 363.23 256.13C365.09 247.74 366.86 239.33 368.77 230.95C369.28 228.72 370.19 226.58 370.91 224.4C371.1 224.44 371.28 224.47 371.47 224.51C371.52 225.15 371.68 225.81 371.61 226.44C370.98 232.23 370.35 238.02 369.64 243.8C369.15 247.77 368.51 251.73 368.03 255.71C367.96 256.28 368.45 256.92 368.68 257.52C369.07 257.02 369.71 256.57 369.81 256.02C371.21 248.58 372.52 241.13 373.87 233.69C374.11 232.38 374.42 231.08 374.75 229.79C375.06 228.59 375.45 227.41 375.94 225.76C376.19 226.56 376.36 226.85 376.35 227.13C376.18 233.1 376.06 239.07 375.79 245.03C375.63 248.55 375.2 252.07 374.98 255.59C374.95 256.07 375.43 256.58 375.67 257.07C376.04 256.6 376.69 256.16 376.74 255.65C377.3 249.72 377.7 243.78 378.29 237.85C378.65 234.25 379.25 230.67 379.74 227.08C379.94 227.08 380.15 227.1 380.35 227.11C380.35 229.21 380.37 231.31 380.35 233.41C380.28 239.87 380.15 246.33 380.17 252.79C380.17 253.58 380.94 254.37 381.35 255.17C381.66 254.32 382.23 253.47 382.24 252.61C382.31 245.35 382.26 238.08 382.29 230.82C382.29 229.01 382.45 227.2 382.53 225.38C383.08 226.04 383.29 226.67 383.38 227.32C384.49 235.18 385.56 243.05 386.72 250.91C386.81 251.54 387.46 252.08 387.85 252.67C388.06 252.05 388.52 251.39 388.45 250.8C387.43 242.25 386.33 233.71 385.28 225.17C385.18 224.33 385.27 223.47 385.27 222.62C385.55 222.57 385.82 222.52 386.1 222.47C387.64 227.03 389.29 231.56 390.67 236.17C391.61 239.29 392.12 242.54 392.92 245.71C393.02 246.13 393.71 246.4 394.13 246.74C394.27 246.27 394.58 245.77 394.53 245.32C394.38 244.12 394.06 242.95 393.82 241.76C392.57 235.42 391.33 229.08 390.08 222.74C390.26 222.69 390.44 222.65 390.61 222.6C390.88 223.24 391.2 223.87 391.42 224.53C393.63 231.12 395.8 237.73 398.07 244.3C398.33 245.07 399.13 245.65 399.68 246.31C399.69 245.5 399.93 244.6 399.68 243.88C397.2 236.65 395.42 229.27 394.41 221.27C394.81 222.03 395.06 222.42 395.24 222.84C397.85 228.85 400.43 234.87 403.07 240.86C403.36 241.52 403.97 242.05 404.44 242.64C404.61 242.52 404.78 242.4 404.95 242.28C403.5 236.6 402.05 230.93 400.6 225.26C400.84 225.19 401.09 225.12 401.33 225.05C403.87 231.05 406.6 236.98 407.73 243.54C409.75 240.91 407.66 238.43 407.49 235.65C407.91 236.31 408.2 236.76 408.48 237.22C411.84 242.85 411.22 244.84 405.12 247.19C400.2 249.08 395.07 250.47 390.27 252.61C371.67 260.93 353.09 269.32 334.65 278C327.69 281.28 321.11 285.37 314.4 289.17C313.5 289.68 312.86 290.62 312.1 291.36C312.24 291.55 312.38 291.75 312.51 291.95C313.03 291.77 313.6 291.69 314.05 291.41C316.59 289.86 318.99 288.06 321.64 286.73C335.21 279.94 348.78 273.15 362.47 266.6C374.77 260.72 387.15 254.99 400.13 250.7C403.22 249.68 406.29 248.46 409.16 246.94C412.13 245.37 412.84 242.9 411.54 239.81C410.79 238.03 409.85 236.3 408.76 234.71C406.91 232.03 405.43 229.25 404.96 225.96C404.81 224.91 404.3 223.87 403.78 222.92C400.2 216.47 391.06 212.36 383.86 214.12C379.81 215.11 375.8 216.35 371.86 217.74C367.42 219.31 362.77 220.64 358.78 223.04C353.01 226.51 347.08 229.37 340.72 231.5C334.3 233.66 327.76 235.56 321.89 239.12C318.41 241.23 316.34 244.08 315.97 248.16C315.61 252.16 315.54 256.22 314.72 260.12C313.52 265.85 311.9 271.51 310.2 277.12C308.86 281.52 306.84 285.74 306.86 290.47C306.9 297.44 302.54 301.88 297.86 306.51C297.72 304.34 297.62 302.49 297.46 300.64C297.07 295.99 296.43 291.35 296.31 286.69C296.22 283.06 296.71 279.41 297.02 275.77C297.31 272.32 297.73 268.88 298.04 265.44C298.22 263.51 298.44 261.56 298.39 259.63C298.3 256.25 296.73 255 293.48 255.64C291.88 255.96 290.3 256.39 288.76 256.93C280.08 260.01 272.43 264.97 265.01 270.26C257.76 275.42 250.49 280.47 242.17 283.79C236.31 286.13 230.41 288.35 224.61 290.83C218.94 293.25 213.42 296.01 209.76 301.29C207.19 305 203.71 307.4 199.48 308.77C194.19 310.5 188.92 312.3 183.57 313.8C181.02 314.52 179.63 316.27 178.28 318.21C177.52 319.3 176.78 320.45 176.32 321.68C175.39 324.16 173.93 326.74 174 329.24C174.16 334.51 172.34 339.1 170.48 343.77C170.3 344.22 169.94 344.65 169.92 345.1C169.9 345.49 170.24 345.89 170.43 346.29C170.73 346.06 171.13 345.89 171.3 345.58C171.69 344.9 172.06 344.19 172.29 343.44C173.37 339.87 175.21 336.28 175.25 332.69C175.32 326.76 177.75 322.05 180.88 317.47C181.48 316.59 182.57 315.84 183.59 315.5C188.34 313.9 193.14 312.41 197.95 310.98C203.52 309.31 208.32 306.62 211.63 301.61C212.52 300.27 213.76 299.1 215.04 298.1C219.98 294.24 225.75 291.97 231.51 289.71C239.75 286.48 248.16 283.6 255.63 278.72C260.92 275.26 265.99 271.46 271.28 268C277.98 263.6 284.83 259.46 292.72 257.45C295.87 256.65 296.51 256.84 296.91 260.57C296.94 260.81 296.94 261.06 296.91 261.3C296.52 264.52 296.12 267.74 295.71 271.09C291.71 269.18 287.87 267.35 284.03 265.52C286.54 265.61 288.9 266.15 291.27 266.55C291.76 266.63 292.33 266.22 292.86 266.04C292.57 265.59 292.36 265.02 291.95 264.71C291.21 264.15 290.34 263.75 289.52 263.29C289.6 263.09 289.67 262.89 289.75 262.7C291.89 263.36 294.03 264.02 296.15 264.68C296.15 263.22 295.98 262.77 294.67 262.44C292.86 261.99 290.99 261.64 289.13 261.55C287.25 261.45 286.86 262.08 287.2 263.98C285.82 263.88 284.43 263.68 283.05 263.72C282.38 263.74 281.73 264.23 281.07 264.51C281.49 265.12 281.78 265.91 282.35 266.3C283.63 267.17 285.04 267.85 286.85 268.86C286.12 268.76 285.94 268.75 285.77 268.72C282.8 268.15 279.84 267.51 276.86 267.06C276.31 266.98 275.64 267.63 275.03 267.95C275.38 268.53 275.6 269.3 276.1 269.66C277.02 270.31 278.1 270.72 279.12 271.23C277.9 271.27 276.71 271.2 275.56 270.95C274.38 270.69 272.99 270.36 272.58 271.68C272.42 272.18 273.77 273.47 274.67 273.91C277.54 275.32 280.52 276.51 283.46 277.78C282 277.73 280.62 277.37 279.23 277.08C275.38 276.27 271.53 275.44 267.66 274.73C267.1 274.63 266.43 275.15 265.81 275.38C266.27 275.94 266.62 276.75 267.21 277C269.16 277.82 271.2 278.4 273.18 279.13C276.75 280.44 280.3 281.79 283.86 283.13C281.22 282.83 278.76 281.98 276.23 281.47C272.26 280.67 268.25 280.06 264.24 279.49C263.67 279.41 263.01 279.99 262.4 280.26C262.78 280.87 263.04 281.65 263.57 282.05C264.33 282.62 265.29 282.94 266.18 283.31C268.54 284.27 270.91 285.21 273.27 286.15C272.41 286.27 271.68 286 270.93 285.84C265.49 284.67 260.05 283.48 254.59 282.42C253.57 282.22 251.87 281.87 251.7 283.37C251.63 284.03 253.09 285.2 254.07 285.6C258.12 287.22 262.25 288.62 266.35 290.11C267.66 290.59 268.96 291.07 270.25 291.59C271.45 292.07 272.63 292.61 273.82 293.13C273.48 293.33 273.25 293.28 273.03 293.22C265.16 291.12 257.27 289.15 249.04 289.4C247.9 289.43 246.13 289.97 245.81 290.75C245.19 292.23 246.95 292.81 248.02 293.36C250.23 294.5 252.54 295.47 255.16 296.67C251.2 295.94 247.66 295.09 244.07 294.69C241.08 294.35 238.03 294.46 235.01 294.55C234.4 294.57 233.82 295.37 233.22 295.81C233.67 296.4 234.02 297.14 234.6 297.54C235.52 298.16 236.6 298.55 237.62 299.04C236.95 299.2 236.37 299.08 235.78 299.04C233.23 298.86 230.69 298.62 228.13 298.59C227.38 298.58 226.63 299.18 225.88 299.51C226.18 300.16 226.48 300.8 226.72 301.31C225.44 301.24 223.93 301.12 222.42 301.12C222.02 301.12 221.31 301.52 221.3 301.74C221.29 302.2 221.55 302.85 221.91 303.08C222.61 303.53 223.45 303.79 224.25 304.05C230.48 306.02 236.73 307.93 242.94 309.93C246.47 311.07 249.94 312.37 253.44 313.59C247.31 312.62 241.29 311.25 235.23 310.13C230.05 309.17 224.83 308.44 219.61 307.72C218.93 307.63 218.16 308.19 217.43 308.45C218.03 309.03 218.58 309.68 219.24 310.18C219.6 310.46 220.14 310.52 220.6 310.66C224.87 312.01 229.16 313.32 233.42 314.7C237.06 315.88 240.68 317.14 244.3 318.36C243.92 318.65 243.62 318.66 243.33 318.6C236.28 316.87 229.24 315.08 222.17 313.43C219.64 312.84 217.04 312.51 214.45 312.2C213.87 312.13 213.21 312.67 212.59 312.93C213.03 313.4 213.42 313.91 213.91 314.32C214.17 314.54 214.58 314.58 214.93 314.68C219.13 315.85 223.35 316.95 227.51 318.21C237.24 321.16 246.94 324.2 256.66 327.17C257.13 327.31 257.71 327.09 258.25 327.03C257.86 326.6 257.55 325.96 257.07 325.79C252.2 324.11 247.32 322.47 242.41 320.9C238.25 319.58 234.06 318.38 229.88 317.12C230.29 316.9 230.66 316.89 231 316.98C241.59 319.77 252.18 322.58 262.77 325.34C263.31 325.48 263.95 325.22 264.54 325.15C264.12 324.68 263.78 323.97 263.26 323.77C254.23 320.44 245.18 317.12 236.11 313.91C231.88 312.41 227.57 311.16 223.3 309.79C224.31 309.69 225.28 309.76 226.22 309.95C237.48 312.31 248.73 314.68 259.99 317.06C262.06 317.5 264.11 318.06 266.19 318.45C266.59 318.53 267.09 318.1 267.54 317.91C267.28 317.56 267.06 317.16 266.75 316.87C266.54 316.67 266.21 316.6 265.92 316.5C258.05 313.67 250.2 310.79 242.3 308.05C237.61 306.42 232.84 305.02 228.11 303.52C229.76 303.6 231.35 303.92 232.93 304.28C245.74 307.2 258.48 310.33 270.93 314.57C271.75 314.85 272.78 314.52 273.72 314.47C272.95 313.91 272.25 313.1 271.39 312.83C261.45 309.72 251.5 306.67 241.53 303.67C237.57 302.48 233.55 301.43 229.57 300.32C230.41 300.15 231.19 300.29 231.97 300.35C240.1 300.95 248.03 302.66 255.81 305.03C263.62 307.41 271.36 310.03 279.16 312.48C279.74 312.66 280.49 312.29 281.16 312.18C280.73 311.61 280.42 310.76 279.86 310.53C276.94 309.37 273.99 308.24 270.98 307.33C260.38 304.1 249.75 300.97 239.15 297.77C237.95 297.41 236.82 296.81 235.65 296.32C238.04 296.02 240.33 295.76 242.54 296.06C252.65 297.46 262.47 300.12 272.08 303.52C276.13 304.95 280.08 306.67 284.11 308.18C284.53 308.34 285.13 308.01 285.65 307.9C285.39 307.42 285.25 306.72 284.85 306.5C283.57 305.82 282.21 305.28 280.86 304.75C270.61 300.7 260.34 296.66 250.09 292.6C249.31 292.29 248.6 291.81 247.86 291.41C248.6 290.93 249.19 290.8 249.77 290.86C253.63 291.26 257.58 291.3 261.32 292.21C270.01 294.33 278.6 296.89 287.23 299.24C288.06 299.46 288.93 299.55 289.78 299.7C289.89 299.47 290.01 299.23 290.12 299C289.54 298.57 289.02 297.99 288.37 297.72C279.93 294.18 271.49 290.64 263.01 287.18C260.31 286.08 257.53 285.18 254.78 284.19C254.82 284.04 254.87 283.89 254.91 283.73C257.81 284.32 260.76 284.72 263.59 285.54C272.42 288.11 281.2 290.85 290.01 293.47C290.6 293.64 291.32 293.37 291.98 293.3C291.57 292.8 291.18 292.3 290.75 291.82C290.64 291.69 290.44 291.63 290.27 291.56C283.84 288.86 277.41 286.16 270.98 283.47C270.03 283.07 269.06 282.74 268.11 282.35C267.23 281.99 266.36 281.59 265.48 281.2C265.54 281.02 265.6 280.83 265.67 280.65C270.71 281.89 275.76 283.1 280.79 284.39C283.95 285.2 287.07 286.18 290.24 286.96C290.8 287.1 291.5 286.66 292.14 286.49C291.78 285.93 291.54 285.23 291.04 284.85C290.28 284.27 289.37 283.86 288.48 283.49C283.86 281.55 279.22 279.64 274.59 277.72C276.88 278.16 279.15 278.72 281.42 279.29C284.59 280.08 287.75 280.93 290.94 281.62C291.59 281.76 292.36 281.31 293.08 281.13C292.6 280.58 292.22 279.84 291.62 279.52C290.24 278.78 288.75 278.22 287.3 277.61C283.53 276.01 279.76 274.42 275.98 272.83M194.22 275.68C195.31 272.56 196.12 268.96 197.77 265.8C201.03 259.56 204.7 253.54 208.3 247.48C209.6 245.29 211.02 243.14 212.66 241.2C218.8 233.94 226.09 227.89 233.51 222.04C242.49 214.96 251.82 208.31 260.96 201.42C263.29 199.66 265.47 197.71 267.74 195.86C272.97 191.59 274.03 186.08 272.71 179.75C270.6 169.61 267.27 159.91 262.76 150.6C259.33 143.52 256.29 136.42 256.56 128.24C256.7 123.9 254.2 122.23 250.03 123.76C243.73 126.07 237.51 128.65 231.46 131.55C221.31 136.42 211.47 141.89 202.75 149.1C201.07 150.49 198.93 152.26 198.59 154.15C197.61 159.51 197.25 165.01 197 170.47C196.67 177.78 196.68 185.11 196.54 192.43C196.53 192.98 196.49 193.53 196.45 194.07C196 199.4 195.53 204.72 195.08 210.05C194.86 212.66 194.59 215.26 194.47 217.87C194.3 221.46 194.14 225.06 194.15 228.65C194.17 235.52 194.3 242.39 194.4 249.25C194.4 249.84 194.4 250.56 194.71 250.99C195.31 251.8 195.17 252.37 194.57 253.04C194.21 253.45 193.84 253.91 193.7 254.42C193.58 254.86 193.76 255.39 193.81 255.88C194.24 255.66 194.8 255.55 195.08 255.21C198.61 250.95 201.83 246.4 205.65 242.41C218.39 229.12 232.95 218 248.08 207.58C248.55 207.26 248.8 206.63 249.15 206.14C248.51 206.14 247.74 205.9 247.25 206.17C236.38 212.14 225.69 218.43 215.71 225.83C214.19 226.96 212.65 228.08 211.13 229.21C211.41 228.5 211.85 228.02 212.36 227.61C228.04 214.84 244.94 204.06 263.53 196.01C264.14 195.75 264.65 195.26 265.21 194.88C265.14 194.65 265.08 194.42 265.01 194.19C264.34 194.25 263.61 194.15 263.01 194.39C260.43 195.45 257.91 196.63 255.35 197.72C238.3 204.95 221.9 213.37 206.87 224.29C206.59 224.49 206.26 224.63 205.95 224.8C205.86 224.68 205.77 224.56 205.68 224.44C205.98 224.23 206.3 224.03 206.59 223.8C212.5 219.11 218.2 214.12 224.36 209.78C236.07 201.53 248.55 194.66 262.23 190.13C262.81 189.94 263.43 189.82 263.94 189.52C264.23 189.34 264.34 188.86 264.53 188.51C264.14 188.3 263.76 187.96 263.34 187.9C262.96 187.85 262.53 188.08 262.13 188.23C250.37 192.43 238.55 196.48 227.56 202.54C227.11 202.79 226.64 202.99 226.18 203.22C226.24 202.8 226.42 202.64 226.63 202.51C235.97 196.69 245.66 191.54 255.73 187.12C259.06 185.66 262.47 184.4 265.81 182.97C266.38 182.72 266.8 182.1 267.28 181.65C266.6 181.51 265.85 181.09 265.26 181.26C258.51 183.2 251.68 184.93 245.08 187.29C232.16 191.9 220.62 199.14 209.44 206.98C208.91 207.35 208.37 207.69 207.83 208.04C208 207.4 208.35 207.06 208.75 206.8C213.39 203.67 217.93 200.39 222.69 197.46C236.03 189.26 249.56 181.4 264.69 176.81C265.13 176.68 265.43 176.07 265.8 175.68C265.23 175.53 264.6 175.14 264.11 175.27C253.65 177.92 243.27 180.8 233.4 185.28C233.14 185.4 232.85 185.45 232.58 185.53C232.5 185.32 232.41 185.11 232.33 184.9C241.38 181 250.43 177.08 259.5 173.2C261.11 172.51 262.82 172.07 264.45 171.42C264.76 171.29 264.9 170.71 265.11 170.34C264.76 170.18 264.42 169.92 264.06 169.89C263.66 169.86 263.22 170.01 262.83 170.14C259.98 171.14 257.14 172.21 254.28 173.17C240.16 177.94 226.53 183.79 213.76 191.55C211.04 193.2 208.37 194.93 205.68 196.63L205.39 196.28C205.67 196.09 205.96 195.9 206.24 195.7C211.74 191.78 217.07 187.6 222.76 183.99C235.21 176.09 247.91 168.62 261.87 163.57C262.38 163.38 262.72 162.72 263.13 162.29C262.53 162.14 261.86 161.74 261.34 161.89C259.53 162.38 257.8 163.14 256 163.64C240.58 167.98 225.72 173.66 211.92 181.91C211.68 182.06 211.38 182.11 210.85 182.3C211.14 181.98 211.2 181.86 211.3 181.8C225.03 173.13 239.08 165.06 253.79 158.16C254.39 157.88 254.76 157.13 255.24 156.61C254.56 156.5 253.81 156.16 253.21 156.33C241.7 159.44 230.68 163.81 220.09 169.28C216.82 170.97 213.63 172.79 210.4 174.56C211.01 173.8 211.76 173.26 212.53 172.74C226.56 163.36 241.36 155.4 256.88 148.78C257.46 148.53 257.81 147.76 258.26 147.24C257.6 147.14 256.88 146.83 256.28 146.99C253.77 147.65 251.27 148.41 248.8 149.22C232.99 154.44 218.05 161.52 203.92 170.33C203.28 170.73 202.58 171.03 201.91 171.37C201.84 171.24 201.76 171.1 201.69 170.97C202.88 170.04 204.02 169.04 205.27 168.2C215.47 161.32 226.42 155.83 237.63 150.83C242.56 148.63 247.55 146.59 252.47 144.38C253.03 144.13 253.3 143.24 253.7 142.65C253.05 142.47 252.36 142.06 251.75 142.15C249.18 142.56 246.62 143.06 244.08 143.66C232.4 146.42 221.67 151.5 211.15 157.1C209.7 157.87 208.25 158.63 206.77 159.36C205.32 160.07 203.84 160.73 202.38 161.41C202.57 160.86 202.88 160.55 203.24 160.35C210.3 156.42 217.21 152.19 224.47 148.68C232.97 144.57 241.79 141.12 250.44 137.3C251.05 137.03 251.4 136.15 251.87 135.56C251.17 135.49 250.41 135.21 249.76 135.37C237.32 138.44 225.35 142.92 213.35 147.33C211.09 148.16 208.81 148.94 206.54 149.75C207.02 149.05 207.59 148.59 208.23 148.26C215.09 144.76 221.84 141.02 228.85 137.86C236.74 134.31 244.73 130.91 253.36 129.42C254.85 129.16 255.15 129.56 255.22 130.92C255.33 133.28 255.29 135.74 255.94 137.96C256.94 141.37 258.32 144.7 259.83 147.93C264.7 158.34 268.92 168.94 271.18 180.28C272.3 185.91 271.44 190.65 266.84 194.4C264.05 196.67 261.37 199.07 258.52 201.26C247.87 209.46 237.08 217.49 226.51 225.79C217 233.27 208.73 241.87 203.2 252.84C201.28 256.65 198.94 260.26 196.8 263.96C196.64 263.96 196.47 263.98 196.31 263.99C195.8 261.97 195.31 259.94 194.75 257.93C194.63 257.49 194.26 257.11 194.01 256.71C193.75 257.12 193.24 257.56 193.29 257.93C193.49 259.41 193.53 261.06 194.24 262.31C195.73 264.94 195.33 267.62 194.57 270.12C193.57 273.41 192.36 276.75 190.57 279.66C186.18 286.78 181.39 293.67 177.26 299.91C177.94 295.56 178.93 290.33 179.54 285.05C180.18 279.57 180.3 273.99 177.09 269.16C175.32 266.5 173.02 264.16 170.74 261.89C167.39 258.55 165.09 254.73 164.75 249.97C164.49 246.27 164.35 242.55 164.44 238.84C164.55 234.13 162.93 230.2 159.93 226.67C158.36 224.82 156.39 223.03 155.6 220.86C153.75 215.69 152.15 210.34 152.72 204.72C152.97 202.26 153.81 199.87 154.11 197.41C154.9 190.98 156.86 185 160.37 179.54C160.89 178.73 161.42 177.88 161.74 176.98C161.95 176.39 161.79 175.68 161.8 175.02C161.2 175.18 160.49 175.19 160.03 175.54C156.34 178.33 152.67 181.15 149.06 184.03C143.06 188.81 137.79 194.22 133.87 200.91C131.48 204.99 128.61 208.78 126.09 212.79C124.71 214.99 123.1 217.23 122.48 219.68C121.03 225.38 118.2 230.2 114.49 234.65C112.02 237.61 110.07 240.72 109.99 244.92C109.88 250.78 106.69 254.77 101.15 256.83C100.47 257.08 99.7899 257.38 99.1899 257.77C97.2099 259.06 95.1799 260.3 93.3399 261.77C92.6299 262.34 91.9399 263.5 91.9899 264.36C92.0799 266.35 91.3699 267.89 90.2599 269.41C89.2599 270.79 88.2799 272.19 87.4199 273.65C85.1799 277.44 84.9499 281.57 85.4399 285.82C85.7999 288.95 86.0399 292.1 86.4299 295.23C86.4899 295.72 87.0499 296.15 87.3799 296.61C87.6799 296.31 87.9399 295.96 88.2799 295.73C88.6599 295.47 89.0999 295.26 89.5399 295.14C98.9499 292.6 108.29 289.81 117.78 287.61C128.87 285.03 139.96 282.22 151.48 282.31C151.94 282.31 152.43 282.13 152.86 281.92C153.08 281.81 153.37 281.41 153.32 281.24C153.23 280.95 152.92 280.63 152.64 280.54C152.25 280.41 151.79 280.45 151.37 280.47C146.45 280.73 141.51 280.86 136.61 281.29C131.78 281.71 126.97 282.42 122.15 283.02C119.04 283.41 115.93 283.83 112.82 284.23C113.27 283.8 113.76 283.57 114.27 283.46C123.56 281.5 132.85 279.49 142.17 277.65C144.78 277.13 147.48 276.93 150.14 276.92C152.8 276.9 155.47 277.33 158.14 277.52C160.57 277.69 163 277.89 165.43 277.9C166.62 277.9 168 277.7 167.53 275.93C168.75 275.72 169.92 275.66 171 275.29C171.58 275.09 172.32 274.41 172.38 273.89C172.43 273.38 171.78 272.71 171.29 272.25C170.97 271.94 170.43 271.8 169.96 271.71C167.1 271.2 164.25 270.41 161.37 270.31C152.3 269.99 143.26 270.37 134.23 271.63C123.51 273.12 112.98 275.21 102.78 278.89C101.61 279.31 100.28 279.3 99.0199 279.49C98.9199 279.26 98.8299 279.03 98.7299 278.8C100.33 277.66 101.83 276.34 103.54 275.41C113.99 269.76 125.14 266.42 137.03 265.94C144.4 265.64 151.79 265.66 159.17 265.51C160.14 265.49 161.13 265.41 162.05 265.16C162.61 265.01 163.08 264.48 163.59 264.12C163.12 263.62 162.73 262.82 162.17 262.68C160.47 262.26 158.71 261.85 156.97 261.88C152.05 261.98 147.07 261.88 142.22 262.62C132.4 264.11 122.65 266.03 112.9 267.89C108.95 268.65 105.06 269.71 101.14 270.63C101.43 270.12 101.8 269.81 102.21 269.58C114.67 262.65 127.95 258.45 142.22 257.43C146.39 257.13 150.55 256.56 154.7 256.04C155.83 255.9 157.56 255.99 157.37 254.31C157.19 252.76 155.52 253.07 154.36 253.04C146.5 252.81 138.94 254.61 131.4 256.52C122.85 258.7 114.29 260.83 105.74 262.98C105.66 262.8 105.59 262.62 105.52 262.44C107.54 261.38 109.54 260.26 111.59 259.27C123.64 253.44 136.7 251.8 149.76 250.11C152.09 249.81 154.41 249.32 156.71 248.79C157.16 248.69 157.75 247.98 157.75 247.57C157.75 247.19 157.07 246.61 156.59 246.49C155.6 246.23 154.52 246 153.53 246.13C149.09 246.73 144.59 247.14 140.25 248.21C131.85 250.29 123.56 252.78 115.21 255.08C112.92 255.71 110.61 256.25 108.3 256.83C108.66 256.14 109.14 255.8 109.65 255.51C119.49 249.78 130.05 246.02 141.22 243.89C145.38 243.1 149.53 242.24 153.66 241.28C154.38 241.11 154.96 240.32 155.61 239.82C154.88 239.56 154.12 239.03 153.42 239.09C151.07 239.29 148.67 239.46 146.41 240.08C138.76 242.16 131.17 244.46 123.54 246.62C120.72 247.42 117.86 248.09 115.01 248.82C115.36 248.02 115.83 247.55 116.38 247.22C124.31 242.46 132.67 238.6 141.51 235.89C145.37 234.71 149.42 234.16 153.36 233.23C153.93 233.09 154.38 232.39 154.88 231.95C154.23 231.66 153.6 231.32 152.92 231.1C152.67 231.02 152.33 231.19 152.04 231.26C144.01 233.33 135.98 235.38 127.96 237.48C124.68 238.34 121.43 239.33 117.93 240.33C118.16 239.92 118.2 239.78 118.29 239.71C118.73 239.39 119.16 239.04 119.64 238.78C129.92 233.07 140.73 228.73 152.16 225.91C152.78 225.76 153.28 225.1 153.84 224.68C153.21 224.5 152.53 224.08 151.96 224.19C147.69 225.05 143.42 225.97 139.18 226.97C135.43 227.86 131.71 228.89 127.98 229.85C128.3 229.49 128.65 229.23 129.04 229.1C132.73 227.92 136.41 226.73 140.11 225.6C142.72 224.81 145.36 224.16 147.95 223.31C148.56 223.11 149 222.35 149.51 221.85C148.9 221.62 148.31 221.3 147.68 221.18C147.23 221.09 146.7 221.21 146.25 221.35C142.6 222.46 138.96 223.58 135.33 224.74C133.87 225.21 132.45 225.8 131 226.33C131.39 225.75 131.87 225.38 132.4 225.1C136.61 222.96 140.85 220.86 145.04 218.67C145.83 218.26 146.44 217.47 147.13 216.86C146.26 216.93 145.32 216.81 144.53 217.11C138.7 219.33 132.9 221.65 127.09 223.92C126.25 224.25 125.38 224.51 124.53 224.8C124.45 224.64 124.37 224.49 124.29 224.33C127.65 222.05 130.94 219.67 134.38 217.5C138.64 214.81 143.03 212.32 147.32 209.68C147.78 209.4 147.96 208.68 148.27 208.16C147.68 208.1 147.03 207.84 146.53 208.02C144.42 208.79 142.36 209.66 140.29 210.54C138.03 211.51 135.79 212.52 133.54 213.51C133.67 213.06 133.9 212.8 134.18 212.62C139.35 209.2 144.54 205.81 149.68 202.35C150.18 202.02 150.41 201.29 150.76 200.74C150.11 200.74 149.37 200.52 148.83 200.75C145.89 202.05 143.01 203.48 140.09 204.83C138.68 205.48 137.24 206.06 135.81 206.66C136.01 205.89 136.37 205.41 136.82 205.03C140.08 202.28 143.32 199.52 146.63 196.83C148.23 195.53 150 194.42 151.6 193.11C152.01 192.77 152.08 192.02 152.31 191.46C151.77 191.46 151.17 191.3 150.7 191.48C149.46 191.97 148.29 192.61 147.08 193.18C145.89 193.73 144.69 194.26 143.5 194.79C143.45 194.68 143.4 194.57 143.34 194.46C147.12 191.93 150.89 189.4 154.6 186.92C154.02 189.94 153.49 192.97 152.86 195.98C151.51 202.34 150.46 208.57 152.22 215.19C153.5 220 155.35 224.15 158.73 227.73C161.64 230.82 163.07 234.55 162.99 238.85C162.93 241.96 162.91 245.08 162.99 248.19C163.08 251.7 163.78 255.16 165.8 258.03C167.72 260.74 170.03 263.2 172.35 265.6C175.2 268.56 177.42 271.82 177.98 275.97C178.82 282.15 177.94 288.23 176.63 294.24C175.25 300.57 173.69 306.87 172.27 313.19C172.16 313.68 172.49 314.27 172.62 314.82C173.07 314.45 173.58 314.12 173.97 313.69C174.19 313.44 174.24 313.02 174.33 312.67C175.8 307.38 177.89 302.33 180.81 297.7C184.28 292.2 187.98 286.84 191.55 281.41C192.2 280.42 192.73 279.52 194.03 279.04C195.3 278.57 196.31 277.42 197.43 276.56C198.35 275.86 199.16 274.89 200.19 274.5C203.21 273.39 204.98 271.07 206.54 268.5C206.79 268.09 206.83 267.56 206.97 267.08C206.81 266.95 206.65 266.81 206.49 266.68C201.38 268.31 198.78 273.4 194.32 275.65M480.63 236.02C479.38 234.91 478.09 234.03 477.15 232.87C472.92 227.68 466.98 225.56 460.9 223.75C457.67 222.79 457.26 223.17 456.5 226.5C456.35 227.15 456.24 227.85 455.92 228.41C453.56 232.51 453.52 236.99 453.68 241.51C453.71 242.47 453.97 243.72 452.24 243.58C452.17 243.58 451.73 244.84 451.94 245.08C452.69 245.92 452.32 246.52 451.76 247.1C450.15 248.75 448.45 250.33 446.87 252.01C446.46 252.44 446.34 253.13 446.08 253.7C446.63 253.86 447.18 254.11 447.74 254.15C449.8 254.31 451.87 254.3 453.92 254.53C457.9 254.97 461.14 257 463.28 260.22C465.7 263.87 468.85 266.33 472.87 267.66C479.4 269.82 483 274.44 484.66 280.88C485.37 283.63 486.13 286.37 486.87 289.11C486.64 289.31 486.42 289.51 486.19 289.71C485.25 288.52 484.51 287.04 483.32 286.2C480.57 284.25 477.73 282.34 474.69 280.9C468.53 277.98 461.72 278.1 455.13 277.28C453.21 277.04 451.44 277.72 450.4 279.68C447.84 284.5 445.2 289.27 442.66 294.1C442.41 294.57 442.64 295.29 442.64 295.89C443.09 295.5 443.7 295.2 443.97 294.72C446.6 290.01 449.19 285.28 451.75 280.52C452.39 279.33 453.32 278.89 454.57 278.97C461.47 279.41 468.44 279.75 474.84 282.66C478.76 284.44 482.34 286.88 485.27 290.18C485.92 290.92 487.03 291.26 487.92 291.78C488.12 290.76 488.6 289.69 488.47 288.71C488.15 286.32 487.58 283.96 487.04 281.6C486.48 279.2 486.12 276.69 485.14 274.46C484.23 272.4 482.59 270.66 481.32 268.74C480.77 267.91 480.29 267.01 479.92 266.09C477.1 259.01 474.31 251.91 471.52 244.81C471.4 244.49 471.37 244.13 471.58 243.68C473.19 247.05 474.82 250.41 476.41 253.79C478.73 258.73 481.02 263.68 483.32 268.63C483.47 268.96 483.53 269.39 483.77 269.61C484.09 269.89 484.56 270.01 484.96 270.19C485.06 269.77 485.34 269.29 485.22 268.95C484.87 267.93 484.32 266.98 483.94 265.96C482.08 261.1 480.25 256.23 478.43 251.35C478.31 251.02 478.31 250.65 478.57 250.2C480.18 253.9 481.8 257.59 483.39 261.3C484.75 264.47 486.06 267.66 487.39 270.84C487.55 271.23 487.64 271.71 487.92 271.98C488.26 272.3 488.78 272.43 489.22 272.64C489.29 272.15 489.55 271.59 489.39 271.19C488.75 269.49 487.87 267.88 487.29 266.16C485.46 260.72 483.72 255.24 481.96 249.78C481.89 249.57 481.96 249.31 482.27 248.99C483.85 253.41 485.43 257.83 487 262.25C487.45 263.51 487.79 264.81 488.37 266C488.65 266.59 489.34 266.98 489.84 267.46C489.9 266.81 490.15 266.12 490 265.53C489.31 262.73 488.5 259.95 488.02 257.07C488.37 258.08 488.73 259.09 489.05 260.11C489.46 261.41 490.09 261.9 491.28 260.61C491.6 261.68 491.87 262.6 492.16 263.5C497.25 279.15 495.33 294.77 491.97 310.39C490.84 315.64 489.66 320.87 488.58 326.13C486.69 335.4 482.44 343.44 476 350.34C459.13 368.41 439.66 382.76 416.22 391.07C399.46 397.02 383.69 405.23 367.26 411.91C352.46 417.93 337.82 424.35 322.27 428.31C312.55 430.78 302.68 432.28 292.76 433.62C284.91 434.69 277.12 436.19 269.26 437.26C260.94 438.39 252.57 437.92 244.21 437.52C219.69 436.33 196.04 430.74 172.93 422.87C164.25 419.92 155.93 415.79 147.66 411.78C137.9 407.04 128.36 401.84 118.73 396.82C110.24 392.39 102.67 386.62 95.3599 380.5C90.7699 376.66 86.2399 372.76 81.5899 369.01C74.4999 363.29 69.4899 355.87 64.3299 348.52C59.0399 340.98 53.1999 333.84 47.8999 326.3C44.3699 321.28 41.2999 315.92 38.1399 310.65C36.0999 307.26 34.0199 303.86 32.3799 300.26C25.4999 285.15 21.9699 269.21 21.0699 252.65C20.4299 240.85 20.4999 229.06 22.6099 217.42C26.5899 195.52 34.9899 175.58 50.0799 158.88C57.4599 150.71 66.3599 144.36 75.6699 138.57C75.8099 138.48 75.9899 138.46 76.4099 138.68C75.1299 139.96 73.9099 141.32 72.5499 142.51C64.2999 149.65 59.0999 158.57 57.0099 169.25C55.9399 174.72 55.1599 180.24 54.0199 185.7C53.6099 187.68 52.4099 189.49 51.8299 191.45C51.1099 193.87 50.2199 196.36 50.1699 198.84C50.0099 205.92 47.9699 212.57 46.3299 219.35C45.1699 224.16 44.8199 229.17 44.1899 234.1C43.9399 236.06 43.9099 238.05 43.7399 240.52C41.8499 236.36 40.8099 232.49 40.1599 228.49C39.0599 221.74 40.6099 215.35 42.5099 208.97C44.0199 203.9 45.6199 198.74 44.8399 193.43C44.2399 189.32 45.4499 185.96 47.3299 182.55C47.9299 181.46 48.1799 180.17 48.5099 178.95C48.5799 178.69 48.3599 178.2 48.1299 178.07C47.9499 177.97 47.3499 178.18 47.2699 178.38C45.8499 182.08 44.4699 185.81 43.0899 189.53C44.4399 197.55 41.9899 205.02 39.8199 212.55C36.7999 223.03 38.2099 233.11 43.0399 242.77C43.2899 243.28 43.9299 243.59 44.3899 243.99C44.6999 243.4 45.2299 242.83 45.2799 242.22C45.8299 235.08 45.7599 227.88 47.5199 220.86C48.6499 216.34 49.9799 211.87 50.9199 207.32C51.5199 204.42 51.4699 201.39 51.9299 198.46C52.2999 196.09 52.6299 193.6 53.6399 191.48C56.1899 186.11 57.0499 180.4 57.7699 174.62C58.5099 168.64 59.9099 162.86 62.6499 157.82C64.0099 158.16 65.1999 158.46 66.1699 158.7C66.0099 159.09 65.7699 159.68 65.5299 160.28C66.2699 160.4 67.0499 160.74 67.7299 160.61C71.9499 159.79 76.1399 158.86 80.3499 157.99C82.0599 157.64 83.7799 157.34 85.5599 157.29C81.6899 158.42 77.7899 159.47 73.9499 160.71C70.6799 161.78 67.4599 163.04 64.2599 164.31C63.8099 164.49 63.2499 165.22 63.2999 165.62C63.3599 166.08 64.0399 166.47 64.4799 166.91C64.1299 167.12 63.4299 167.38 62.9299 167.86C62.5099 168.26 62.3099 168.89 62.0099 169.42C62.6999 169.67 63.4299 170.22 64.0599 170.12C66.6299 169.7 69.1599 169.07 71.6999 168.53C72.0499 168.46 72.3999 168.44 72.8099 168.63C70.2199 169.53 67.6299 170.41 65.0599 171.35C64.1499 171.68 63.2299 172.05 62.4199 172.56C61.9899 172.84 61.7799 173.46 61.4799 173.93C61.9799 174.17 62.5299 174.67 62.9699 174.59C65.6499 174.13 68.3199 173.57 70.9799 172.99C73.5099 172.44 76.0299 171.82 78.6499 171.55C76.3499 172.45 74.0299 173.32 71.7499 174.26C70.1299 174.93 68.4799 175.59 66.9799 176.48C66.1899 176.95 65.7199 177.93 65.0299 178.6C64.5799 179.03 63.9399 179.26 63.4599 179.67C62.8799 180.16 62.3699 180.75 61.8299 181.29C62.6399 181.43 63.5199 181.84 64.2399 181.65C71.1099 179.92 77.9499 178.08 84.7999 176.28C85.1399 176.19 85.4799 176.14 85.8799 176.28C80.7499 178.16 75.5899 179.96 70.5099 181.96C67.0199 183.34 63.6099 184.95 60.2399 186.6C59.5999 186.91 59.3099 187.93 58.8499 188.62C59.6699 188.8 60.5899 189.32 61.3099 189.11C68.3499 187.1 75.3499 184.97 82.3599 182.87C82.6399 182.79 82.9299 182.72 83.3099 182.91C80.2799 184.04 77.2299 185.11 74.2299 186.31C70.5699 187.77 66.9599 189.34 63.3299 190.87C62.8899 191.06 62.3999 191.28 62.0899 191.62C61.7699 191.98 61.6299 192.51 61.4199 192.97C61.9299 193.17 62.5199 193.64 62.9499 193.52C65.3999 192.84 67.8099 192.02 70.2299 191.25C70.8499 191.06 71.4699 190.88 72.1499 190.92C69.6399 192.08 67.1199 193.22 64.6099 194.39C64.1199 194.62 63.5599 194.82 63.1999 195.2C62.8099 195.62 62.6099 196.22 62.3299 196.75C62.9199 196.89 63.5099 197.06 64.0999 197.16C64.2899 197.19 64.5099 197.07 64.7799 197.19C62.9899 198.06 61.1899 198.93 59.3999 199.81C59.0199 200 58.5599 200.12 58.2899 200.41C57.7199 201.03 57.2599 201.74 56.7499 202.42C57.5099 202.69 58.2799 202.95 58.9899 203.2C58.3499 203.66 57.3799 204.21 56.5999 204.96C56.2099 205.35 56.1699 206.1 55.9699 206.68C56.5599 206.81 57.2399 207.2 57.7299 207.03C61.7899 205.64 65.8199 204.14 69.8599 202.68C70.0699 202.6 70.2799 202.54 70.5999 202.7C67.8399 204.12 65.0599 205.53 62.3099 206.98C61.1799 207.57 60.0599 208.2 59.0099 208.92C58.6199 209.19 58.1899 209.76 58.2099 210.16C58.2299 210.5 58.8899 210.8 59.3099 211.16C58.6799 212.62 54.9599 212.33 56.4699 215.56C55.7399 216.06 54.8099 216.56 54.0799 217.27C53.5799 217.76 53.3699 218.54 53.0199 219.2C53.7299 219.36 54.5199 219.79 55.1499 219.63C57.2999 219.06 59.3899 218.28 61.6099 217.77C59.7299 218.85 57.7899 219.83 55.9999 221.04C55.1299 221.63 54.5399 222.64 53.8299 223.46C54.9399 223.56 56.1599 223.99 57.1499 223.69C61.4399 222.4 65.6599 220.89 69.9099 219.47C70.1299 219.4 70.3599 219.37 70.6999 219.59C68.1599 220.71 65.5999 221.77 63.0999 222.97C60.3199 224.3 57.5599 225.71 54.8699 227.21C54.2599 227.55 53.9499 228.44 53.4999 229.08C54.2799 229.25 55.1199 229.69 55.8099 229.53C58.8499 228.81 61.8499 227.91 65.0299 227.39C63.0399 228.66 61.0599 229.93 59.0799 231.2C56.6799 232.74 54.2699 234.29 51.8799 235.84C51.5299 236.07 51.1099 236.32 50.9299 236.66C50.7699 236.97 50.8899 237.43 50.8899 237.82C51.2299 237.82 51.6499 237.95 51.8899 237.8C56.9299 234.51 61.9699 231.21 66.9299 227.82C67.4899 227.43 67.6299 226.42 67.9599 225.7C67.1799 225.53 66.3399 225.12 65.6099 225.25C63.6599 225.61 61.7599 226.22 59.8399 226.73C59.7799 226.58 59.7299 226.44 59.6699 226.29C62.9499 224.83 66.2399 223.39 69.5099 221.9C71.9399 220.79 74.3899 219.71 76.7299 218.43C77.4299 218.05 77.7999 217.06 78.3099 216.34C77.4699 216.23 76.5399 215.83 75.7899 216.06C71.0999 217.48 66.4499 219.04 61.7799 220.55C60.8199 220.86 59.8799 221.2 58.7799 221.19C61.5999 219.71 64.4099 218.22 67.2299 216.76C70.5099 215.07 73.8199 213.41 77.0999 211.73C77.5799 211.48 78.0899 211.22 78.4699 210.85C78.7299 210.6 78.7799 210.14 78.9299 209.77C78.5599 209.64 78.1699 209.36 77.8099 209.41C77.1599 209.49 76.5199 209.72 75.8999 209.96C69.8899 212.36 63.8799 214.78 57.8699 217.19C57.7999 217.05 57.7299 216.92 57.6599 216.78C60.1899 215.41 62.6999 213.99 65.2599 212.69C69.4299 210.58 73.6399 208.54 77.8299 206.47C78.2699 206.25 78.7699 206.1 79.0999 205.77C79.4799 205.39 79.7099 204.86 79.9999 204.39C79.4099 204.35 78.7299 204.09 78.2599 204.31C73.6299 206.42 69.0299 208.62 64.4199 210.78C64.0599 210.95 63.6799 211.06 63.1799 210.92C66.4199 209.33 69.6499 207.72 72.8899 206.14C76.7099 204.28 80.5399 202.45 84.3599 200.61C84.6899 200.45 85.0999 200.35 85.3099 200.09C85.5699 199.77 85.6499 199.3 85.8099 198.9C85.3899 198.81 84.8899 198.54 84.5499 198.67C82.3199 199.52 80.1199 200.47 77.7899 201.1C81.7099 199.2 85.6299 197.3 89.5399 195.4C89.9199 195.21 90.3599 195.07 90.6299 194.77C90.9599 194.41 91.1399 193.91 91.3799 193.48C90.8499 193.37 90.2399 193.02 89.8099 193.18C86.2799 194.46 82.7699 195.8 79.2699 197.17C73.4499 199.44 67.6499 201.74 61.8399 204.03C61.5799 204.13 61.3099 204.2 60.8999 203.93C65.3599 201.74 69.7999 199.52 74.2799 197.36C77.6599 195.73 81.0899 194.18 84.4899 192.57C85.3799 192.15 86.3699 191.69 84.9699 190.42C87.5799 189.28 90.1199 188.18 92.6699 187.06C93.1699 186.84 93.7499 186.69 94.1199 186.33C94.4499 186.02 94.5299 185.45 94.7199 185C94.2999 184.92 93.8599 184.75 93.4499 184.8C92.8799 184.87 92.3199 185.09 91.6599 184.95C94.5499 183.79 97.4599 182.69 100.31 181.45C101.05 181.13 101.6 180.4 102.24 179.86C101.36 179.83 100.41 179.57 99.6199 179.81C94.3099 181.44 89.0399 183.18 83.6699 184.63C88.2799 182.89 92.8799 181.16 97.4899 179.42C99.3599 178.71 101.24 178.03 103.07 177.22C103.56 177 103.85 176.35 104.24 175.9C103.65 175.78 103 175.41 102.49 175.56C91.6099 178.68 80.7399 181.86 69.8799 185.04C67.6899 185.68 65.5099 186.38 63.1899 186.68C66.7999 185.23 70.3799 183.7 74.0299 182.36C82.8499 179.13 91.6899 176 100.53 172.82C101.1 172.61 101.71 172.44 102.18 172.08C102.54 171.81 102.71 171.27 102.97 170.86C102.51 170.72 102 170.38 101.58 170.46C99.5599 170.87 97.5699 171.39 95.5599 171.87C95.1699 171.96 94.7599 172 94.2999 171.84C95.9399 171.31 97.5899 170.85 99.1899 170.22C99.6799 170.03 99.9999 169.39 100.39 168.96C99.8199 168.86 99.1799 168.55 98.6799 168.7C89.2099 171.45 79.7499 174.26 70.2899 177.06C70.1299 177.11 69.9499 177.09 69.6799 176.8C73.4399 175.37 77.1499 173.78 80.9799 172.55C88.6999 170.09 96.4899 167.85 104.24 165.46C104.8 165.29 105.21 164.65 105.7 164.22C105.06 164.09 104.36 163.74 103.78 163.87C92.8599 166.32 81.9599 168.84 70.9499 171.02C74.0399 170.05 77.0999 169.02 80.2099 168.12C88.3399 165.75 96.4899 163.44 104.62 161.06C105.19 160.89 105.62 160.25 106.11 159.82C105.43 159.68 104.7 159.3 104.08 159.44C92.3899 162.11 80.7199 164.84 69.0299 167.55C68.6899 167.63 68.3199 167.62 67.8699 167.28C72.1799 165.95 76.4399 164.45 80.7999 163.33C89.3499 161.13 97.9499 159.14 106.54 157.06C106.72 157.02 106.94 157.04 107.07 156.94C107.61 156.49 108.13 156.01 108.65 155.54C107.97 155.38 107.23 154.96 106.62 155.1C95.2099 157.83 83.7999 160.63 72.3999 163.41C71.9399 163.52 71.4699 163.59 70.9099 163.32C75.0199 162.09 79.0999 160.75 83.2499 159.67C91.1499 157.61 99.0999 155.71 107.01 153.69C107.61 153.53 108.11 152.94 108.65 152.55C107.98 152.34 107.27 151.87 106.64 151.97C98.7999 153.23 90.9799 154.57 83.1499 155.88C82.8699 155.93 82.5699 155.88 82.2199 155.63C87.0999 154.27 91.9699 152.87 96.8599 151.57C100.3 150.65 103.79 149.89 107.23 148.97C107.78 148.82 108.2 148.17 108.68 147.75C108.05 147.58 107.36 147.14 106.81 147.27C98.2699 149.31 89.7599 151.44 81.2299 153.51C76.5299 154.65 71.8199 155.74 67.1199 156.84C67.0699 156.65 67.0099 156.46 66.9499 156.27C70.5699 155.07 74.1299 153.67 77.8099 152.7C88.3999 149.91 99.0299 147.3 109.64 144.61C109.99 144.52 110.4 144.5 110.67 144.29C111.04 144 111.29 143.56 111.59 143.19C111.14 143 110.65 142.58 110.25 142.65C107.27 143.19 104.27 143.68 101.35 144.46C92.8699 146.72 84.4299 149.11 75.9799 151.44C75.7599 151.5 75.5199 151.49 75.1899 151.22C77.8699 150.23 80.4999 149.11 83.2299 148.28C93.4699 145.17 103.75 142.16 114.01 139.11C114.18 139.06 114.41 139.08 114.54 138.98C115.22 138.45 115.89 137.89 116.56 137.34C115.66 137.24 114.7 136.89 113.86 137.08C111.14 137.69 108.47 138.5 105.78 139.23C105.4 139.33 105 139.38 104.52 139.06C109.47 137.74 114.43 136.43 119.39 135.1C119.8 134.99 120.26 134.94 120.58 134.71C120.86 134.51 121.07 134.08 121.1 133.74C121.11 133.59 120.58 133.23 120.32 133.25C119.42 133.31 118.51 133.45 117.63 133.65C105.24 136.52 92.8599 139.41 80.4799 142.28C79.4899 142.51 78.4699 142.59 77.3099 142.36C78.5199 141.76 79.6899 141.01 80.9599 140.6C87.6399 138.47 94.3099 136.31 101.05 134.39C108.04 132.4 115.1 130.7 122.11 128.78C122.92 128.56 123.58 127.8 124.31 127.28C123.39 127.15 122.39 126.72 121.56 126.94C110.91 129.76 100.29 132.68 89.6599 135.56C89.3299 135.65 88.9899 135.71 88.5699 135.44C93.6899 133.85 98.7999 132.24 103.92 130.68C112.43 128.09 120.95 125.54 129.45 122.92C130.04 122.74 130.49 122.1 131 121.67C130.3 121.53 129.54 121.15 128.9 121.29C124.84 122.17 120.8 123.16 116.64 123.73C121.06 122.39 125.48 121.02 129.91 119.71C132.17 119.04 134.47 118.53 136.72 117.83C137.21 117.68 137.55 117.05 137.96 116.64C137.39 116.52 136.76 116.18 136.25 116.31C127.33 118.56 118.42 120.87 109.51 123.17C109.23 123.24 108.95 123.28 108.6 123.09C113.1 121.36 117.61 119.65 122.09 117.88C127.27 115.83 132.44 113.73 137.6 111.64C138.1 111.44 138.67 111.27 139.06 110.92C139.62 110.41 140.04 109.75 140.51 109.16C139.8 109.05 139.04 108.73 138.38 108.88C136.02 109.4 133.69 110.09 131.35 110.71C131.02 110.8 130.67 110.81 130.27 110.65C134.35 109.15 138.44 107.66 142.51 106.15C143.3 105.86 144.14 105.59 144.82 105.11C145.22 104.84 145.35 104.18 145.6 103.7C145.06 103.54 144.47 103.15 143.98 103.26C141.2 103.86 138.44 104.56 135.68 105.24C132.46 106.03 129.24 106.83 126.02 107.63C125.97 107.45 125.92 107.27 125.86 107.09C132.91 104.97 139.96 102.86 147.14 100.7C147.36 101.49 147.5 101.96 147.69 102.64C148.78 102.14 149.79 101.76 150.69 101.2C151.07 100.96 151.21 100.34 151.46 99.8999C151.01 99.6499 150.54 99.1599 150.12 99.1999C148.13 99.4099 146.13 99.5999 144.2 100.09C139.69 101.23 135.23 102.53 130.72 103.68C138.57 99.2799 146.9 96.2599 155.69 94.8599C154.33 97.1699 152.9 99.4799 151.6 101.86C149.94 104.89 148.69 108.18 146.74 111C142.77 116.75 138.29 122.15 134.34 127.92C130.33 133.78 126.5 139.79 123.01 145.97C121.59 148.47 120.75 151.55 120.52 154.43C120.15 159.2 117.94 162.96 115.32 166.66C110.3 173.76 105.42 180.98 100.17 187.91C96.3899 192.9 92.2799 197.68 87.9899 202.24C82.9299 207.61 80.6299 214.15 78.9799 221.06C76.9599 229.48 77.8399 238.02 78.1899 246.52C78.3499 250.58 78.5499 254.61 77.5099 258.62C77.2399 259.68 77.2599 261.02 77.6599 262.03C78.5399 264.25 78.0999 266.27 77.0399 268.14C74.3099 272.97 74.0299 278.02 75.1999 283.31C75.5499 284.9 75.5099 286.57 75.6799 288.21C75.7799 289.22 76.1199 289.97 77.4699 289.58C77.0199 286.22 76.4799 282.95 76.1599 279.65C75.9099 277.11 75.8099 274.56 77.0199 272.14C77.8299 270.52 78.6699 268.85 79.1099 267.11C79.4899 265.65 79.3599 264.05 79.3799 262.52C79.4099 260.66 79.3099 258.81 79.3699 256.95C79.4499 254.43 79.7499 251.92 79.7299 249.4C79.6699 242.32 79.0299 235.21 79.4999 228.18C79.9999 220.73 81.9099 213.4 86.2299 207.12C88.5299 203.78 91.4199 200.82 94.2599 197.89C99.0499 192.95 102.58 187.11 106.55 181.57C110.16 176.53 113.81 171.5 117.42 166.46C119.81 163.12 121.75 159.6 121.96 155.34C122.22 150.19 124.73 145.9 127.21 141.54C132 133.14 138.15 125.76 144.01 118.15C147.67 113.39 150.88 108.29 153.07 102.62C153.66 101.1 154.48 99.6399 155.42 98.3099C157.24 95.7399 159.46 93.9699 162.96 93.9499C168.81 93.9099 174.42 92.2999 179.87 90.2999C192.54 85.6499 205.63 85.0699 218.87 86.2399C223.11 86.6099 227.38 87.2199 231.5 88.2399C239.64 90.2699 247.21 88.5899 254.67 85.4399C259 83.6199 263.27 81.6199 267.72 80.1399C270.93 79.0699 274.35 78.5099 277.72 78.0999C281.56 77.6399 285.01 78.8299 287.53 81.9199C289.37 84.1699 291.73 84.9599 294.48 84.9099C300.09 84.8099 305.71 84.5499 311.32 84.5699C321.81 84.5999 331.18 88.4599 340.15 93.5199C338.69 92.9699 337.24 92.4099 335.78 91.8699C334.24 91.3099 332.73 90.6399 331.16 90.2299C326.13 88.9099 321.1 87.5899 316.02 86.4999C314.79 86.2399 313.36 86.8999 312.03 87.1099C311.59 87.1799 311.14 87.2199 310.7 87.1799C307.92 86.9199 305.15 86.5699 302.37 86.3899C301.81 86.3599 301.2 86.9699 300.62 87.2799C301.02 87.8299 301.31 88.5399 301.84 88.8799C302.86 89.5199 304.01 89.9499 305.21 90.5199C303.86 91.5399 304.26 92.2499 305.6 92.7699C306.39 93.0699 307.19 93.3599 307.97 93.6999C308.97 94.1299 310.28 94.1099 310.49 95.6899C310.54 96.0599 311.41 96.4499 311.97 96.5999C316.99 97.9699 322.01 99.3199 327.05 100.59C327.56 100.72 328.21 100.29 328.8 100.12C328.37 99.6299 328.03 98.8799 327.49 98.6899C323.33 97.2099 319.12 95.8299 314.94 94.4199C314.51 94.2699 314.09 94.0699 313.77 93.5399C316.82 94.2499 319.86 94.9799 322.92 95.6599C326.64 96.4899 330.36 97.2899 334.09 98.0599C336.29 98.5099 336.3 98.4699 338.15 95.8999C331.08 92.7199 323.75 90.6499 316.5 88.1299C317.85 88.3699 319.2 88.5799 320.55 88.8499C321.91 89.1299 323.32 89.3199 324.61 89.8099C332.42 92.7799 340.21 95.7899 347.99 98.8499C350.54 99.8499 352.61 101.53 354.14 103.84C356.66 107.63 359.97 110.53 363.95 112.72C366.98 114.38 369.28 116.76 370.66 119.98C371.65 122.28 373.32 123.93 375.62 124.85C380.75 126.9 384.83 130.14 388.04 134.7C389.59 136.9 391.97 138.51 393.87 140.48C396.19 142.89 398.46 145.36 400.64 147.89C402.91 150.52 405 153.31 407.28 155.93C410.13 159.19 414.09 160.6 418.04 161.89C424.94 164.13 431.9 166.19 438.79 168.45C441.04 169.19 443.29 170.11 445.31 171.33C447.42 172.6 449.51 174.09 451.17 175.9C456.04 181.2 460.6 186.77 465.45 192.09C467.85 194.71 469.39 197.55 469.9 201.09C470.12 202.58 470.93 204.06 471.76 205.37C473.1 207.48 474.16 209.6 473.85 212.33C471.48 211.88 469.23 211.6 467.93 209.16C466.62 206.7 464.97 204.42 463.68 201.95C462.19 199.1 460.25 196.72 457.87 194.53C454.8 191.7 451.84 188.68 449.26 185.41C446.19 181.51 442.84 177.95 438.25 176.07C430.02 172.69 421.72 169.42 413.27 166.65C410.84 165.85 407.79 166.78 405.06 167.16C403.96 167.31 403.71 168.34 404.1 169.49C404.68 171.2 405.42 172.95 405.52 174.71C405.63 176.74 405.11 178.8 404.82 181.23C395.54 172.36 384.66 168.34 372.96 166.34C368.05 165.5 363.04 166.28 358.45 168.16C352.69 170.51 346.55 170.92 340.62 172.38C340.26 172.47 339.73 172.38 339.45 172.16C337.4 170.54 335.4 168.87 333.47 166.98C335.28 167.63 337.09 168.3 338.91 168.93C340.39 169.44 341.88 169.97 343.41 170.33C343.94 170.46 344.58 170.13 345.18 170.01C344.89 169.43 344.75 168.62 344.28 168.3C340.83 165.91 337.31 163.63 333.82 161.29C333.23 160.89 332.72 160.38 332.35 159.55C333.26 159.89 334.22 160.16 335.09 160.59C339.76 162.92 344.39 165.32 349.07 167.62C350 168.08 351.07 169.23 352.07 167.93C352.2 167.77 351 166.33 350.22 165.75C345.37 162.18 340.47 158.7 335.59 155.17C335.02 154.76 334.55 154.2 334.24 153.38C337.62 155.34 341.01 157.3 344.39 159.27C348.22 161.51 352.04 163.76 355.87 166C356.24 166.21 356.6 166.52 357 166.57C357.43 166.62 357.89 166.42 358.34 166.33C358.18 165.92 358.13 165.4 357.84 165.11C357.43 164.68 356.86 164.39 356.34 164.08C347.7 158.97 339.75 152.99 332.74 145.78C332.44 145.47 332.13 145.18 331.86 144.85C331.48 144.38 331.13 143.87 330.91 143.13C333.97 144.8 337.07 146.4 340.08 148.15C348.07 152.77 356.02 157.46 363.99 162.11C364.36 162.32 364.73 162.57 365.14 162.66C365.44 162.73 366.05 162.61 366.08 162.48C366.16 162.13 366.13 161.6 365.9 161.37C365.49 160.95 364.92 160.67 364.39 160.38C352.85 154.01 342.96 145.63 334.21 135.83C334.1 135.71 334.05 135.53 334.16 135.12C336.07 136.42 338 137.7 339.89 139.03C350.49 146.47 361.07 153.94 371.69 161.35C372.39 161.84 373.35 161.94 374.19 162.23C374.68 160.78 373.38 160.54 372.62 160C363.88 153.72 355.92 146.53 348.41 138.84C346.49 136.88 344.63 134.87 342.99 132.56C344.08 133.31 345.18 134.04 346.25 134.82C353.64 140.28 361.12 145.63 368.36 151.27C372.05 154.15 375.23 157.67 378.8 160.71C381.76 163.23 384.92 165.51 388.07 167.79C388.55 168.14 389.45 167.92 390.15 167.96C389.9 167.36 389.81 166.57 389.36 166.2C384.46 162.09 379.4 158.15 374.59 153.93C370.47 150.32 366.55 146.48 362.67 142.61C360.27 140.22 358.11 137.6 355.85 135.08C355.96 134.96 356.06 134.84 356.17 134.73C357.72 136.01 359.28 137.27 360.82 138.56C366 142.91 371.33 147.1 376.32 151.66C380.91 155.85 385.06 160.51 389.53 164.84C391.58 166.83 393.91 168.52 396.1 170.35C397.3 171.35 398.15 171.19 398.48 169.95C399.38 169.88 400.09 169.83 400.8 169.78C400.51 169.05 400.41 168.13 399.9 167.61C395.42 163.04 390.64 158.74 386.4 153.95C381.06 147.92 376.14 141.52 371.04 135.28C371.22 135.12 371.4 134.95 371.59 134.79C373.6 136.58 375.68 138.29 377.6 140.18C383.21 145.7 388.74 151.29 394.33 156.83C395.5 157.99 396.72 159.09 397.99 160.14C398.31 160.4 398.91 160.33 399.38 160.41C399.3 159.91 399.38 159.3 399.12 158.94C398.55 158.16 397.82 157.49 397.14 156.79C392.95 152.53 388.76 148.27 384.57 144.02C384.66 143.91 384.76 143.79 384.85 143.68C385.19 143.92 385.58 144.12 385.87 144.42C390.82 149.48 395.85 154.47 400.64 159.67C401.59 160.7 402.04 162.23 403.48 162.86C404 163.09 404.56 163.23 405.7 163.61C405.27 162.56 405.2 161.88 404.82 161.5C395.88 152.57 386.93 143.67 377.92 134.82C377.26 134.17 376.14 133.98 375.24 133.58C375.62 134.5 375.99 135.41 376.37 136.32C376.43 136.47 376.53 136.6 376.46 136.88C374.01 134.75 371.57 132.62 369.12 130.49C368.8 130.21 368.48 129.82 368.11 129.74C367.7 129.65 367.14 129.74 366.81 129.97C366.62 130.1 366.63 130.78 366.79 131.08C367.37 132.14 368.02 133.18 368.72 134.17C370.97 137.35 373.26 140.5 375.37 143.86C373.42 142.12 371.48 140.37 369.53 138.63C366.3 135.74 363.1 132.83 359.81 130.01C359.34 129.61 358.48 129.67 357.79 129.51C357.96 130.16 357.96 130.96 358.34 131.43C360.66 134.31 363.07 137.11 365.28 140.14C362.14 137.52 358.95 134.95 355.86 132.27C353.05 129.83 350.37 127.25 347.58 124.79C347.2 124.45 346.46 124.51 345.89 124.39C346 124.92 345.94 125.6 346.24 125.97C350.22 130.75 354.25 135.48 358.27 140.22C358.93 141 359.62 141.76 360.06 142.83C357.98 141.33 355.9 139.84 353.83 138.34C349.25 135.02 344.67 131.69 340.09 128.36C339.85 128.18 339.6 127.93 339.33 127.87C338.8 127.77 338.24 127.79 337.7 127.76C337.74 128.29 337.59 128.97 337.86 129.31C339.64 131.55 341.41 133.81 343.37 135.89C346.47 139.17 349.72 142.3 352.9 145.5C353.09 145.7 353.24 145.94 353.26 146.32C348.19 142.8 343.13 139.28 338.05 135.77C336.1 134.42 334.15 133.07 332.12 131.84C331.58 131.51 330.78 131.62 330.1 131.53C330.22 132.25 330.09 133.19 330.5 133.64C334.47 138.01 338.53 142.3 342.58 146.6C343.16 147.22 343.82 147.77 344.29 148.6C343.5 148.17 342.7 147.74 341.91 147.32C338.33 145.39 334.75 143.46 331.15 141.55C330.67 141.3 330.15 141.05 329.63 140.99C329.2 140.94 328.5 141.04 328.34 141.32C328.12 141.7 328.09 142.44 328.34 142.79C329.19 144.05 330.16 145.22 331.13 146.39C333.35 149.06 335.59 151.7 337.83 154.35C338.04 154.17 338.25 153.99 338.46 153.82C336.76 152.96 335.07 152.08 333.37 151.23C332.94 151.01 332.5 150.71 332.04 150.67C331.33 150.6 330.59 150.71 329.87 150.74C330.1 151.42 330.13 152.33 330.59 152.74C333.36 155.22 336.23 157.58 339.06 159.99C339.28 160.17 339.49 160.37 339.58 160.78C337.72 159.97 335.86 159.14 333.98 158.38C333.03 158 332.04 157.62 331.03 157.49C330.47 157.42 329.66 157.71 329.32 158.13C329.1 158.4 329.34 159.41 329.7 159.72C331.56 161.37 333.5 162.94 335.47 164.46C336.69 165.4 338.03 166.2 339.2 167.26C336.7 166.39 334.22 165.46 331.7 164.69C331.08 164.5 330.3 164.81 329.59 164.89C329.88 165.57 329.98 166.45 330.48 166.89C332.3 168.49 334.24 169.95 336.46 171.71C334.5 171.35 332.94 171.01 331.37 170.81C330.8 170.74 330.19 171.01 329.6 171.12C330.05 171.47 330.45 171.99 330.95 172.12C332.64 172.57 334.37 172.87 336.51 173.32C332.49 174.88 328.83 176.31 325.33 177.67C326.16 175.07 327.21 172.63 327.68 170.08C328.52 165.52 327.42 161.05 326.59 156.55C325.34 149.77 324.08 142.96 323.41 136.1C322.97 131.55 323.41 126.89 323.75 122.31C323.94 119.79 325.59 118.5 328.11 118.65C331.92 118.88 335.72 119.37 339.52 119.74C347.16 120.48 354.57 122.25 361.81 124.71C364.83 125.74 367.65 127.33 370.6 128.58C371.16 128.82 371.89 128.67 372.54 128.7C372.4 128.05 372.47 127.17 372.07 126.8C370.33 125.2 368.58 123.55 366.61 122.27C360.83 118.5 355.96 113.78 351.59 108.47C348.54 104.75 344.66 102.22 339.89 101.19C339.83 101.18 339.77 101.13 339.72 101.14C336.35 101.93 332.51 101.29 329.86 104.37C329.56 104.72 328.97 104.88 328.49 104.99C326.5 105.41 324.44 105.6 322.51 106.2C320.99 106.68 319.69 106.54 318.59 105.58C317.08 104.27 315.66 102.84 314.36 101.32C310.95 97.3099 306.54 95.5499 301.42 95.1099C299.75 94.9699 298.1 94.5099 296.47 94.0699C293.91 93.3799 291.36 92.6499 288.84 91.7999C288.06 91.5399 287.23 90.9799 286.76 90.3199C284.39 87.0099 282.36 83.4199 279.05 80.8899C278.42 80.4099 277.62 80.1799 276.89 79.8299C276.6 80.5899 276.11 81.3299 276.07 82.1099C275.87 85.3299 275.8 88.5599 275.68 91.7899C275.56 95.0199 274.48 95.8799 271.31 95.2499C266.84 94.3599 262.66 94.4699 259.03 97.8899C257.85 98.9999 256.03 99.4199 254.55 100.23C253.19 100.98 251.93 101.92 250.54 102.6C249.99 102.87 249.1 102.9 248.57 102.63C247.07 101.89 245.76 100.7 244.2 100.13C242.06 99.3399 241.02 100.09 240.68 102.37C240.41 104.17 240.29 106 240.23 107.83C240.21 108.46 240.6 109.1 240.8 109.73C241.08 109.73 241.36 109.73 241.63 109.72C241.89 107.05 242.15 104.37 242.46 101.16C243.94 101.85 245.12 102.32 246.23 102.94C246.97 103.35 247.56 104 248.27 104.47C249.44 105.24 250.43 105.04 251.54 104.1C252.76 103.07 254.22 102.31 255.62 101.51C257.14 100.65 258.96 100.15 260.22 99.0199C263.26 96.2899 266.65 95.8899 270.42 96.7499C271.18 96.9199 271.98 97.0099 272.76 97.0199C275.6 97.0599 277.01 95.7099 277.15 92.8599C277.33 89.3399 277.5 85.8299 277.71 81.7099C279.41 83.5599 280.95 85.0499 282.25 86.7299C283.51 88.3499 284.34 90.3599 285.74 91.8299C286.64 92.7799 288.19 93.1799 289.51 93.6499C291.5 94.3499 293.52 94.9799 295.56 95.4899C297.84 96.0699 300.14 96.7099 302.47 96.9199C307.42 97.3799 311.14 99.7699 314.14 103.58C314.89 104.53 315.74 105.43 316.66 106.23C318.81 108.1 321.19 108.76 323.87 107.3C324.18 107.13 324.53 106.98 324.88 106.92C327.69 106.42 330.85 106.88 332.81 104.02C338.12 102.27 343.1 102.61 347.34 106.62C349.24 108.42 351.02 110.36 352.71 112.35C356.42 116.7 360.75 120.31 365.47 123.49C365.81 123.72 366.12 124.01 366.76 124.54C363.02 123.42 359.68 122.45 356.36 121.4C349.78 119.31 342.98 118.52 336.16 117.85C333.62 117.6 331.08 117.38 328.55 117.11C324.03 116.63 322.2 119.87 321.81 123.5C320.56 135.41 322.53 147 325.29 158.5C326.34 162.88 326.76 167.3 325.77 171.69C325.31 173.7 323.94 175.49 323.06 177.42C322.81 177.97 322.85 178.64 322.76 179.26C323.42 179.31 324.16 179.57 324.74 179.38C329.79 177.7 334.75 175.72 339.87 174.28C343.99 173.12 348.32 172.73 352.5 171.71C356.08 170.84 359.53 169.48 363.09 168.5C369.06 166.85 374.92 167.86 380.65 169.67C387.9 171.96 395.01 174.62 400.86 179.74C402.02 180.76 403.01 181.98 404.29 183.32C408.59 178.73 407.35 173.74 405.69 168.74C409.81 167.29 413.73 167.86 417.6 169.37C422.68 171.35 427.78 173.27 432.85 175.27C439.46 177.88 444.86 181.88 448.99 187.85C451.24 191.1 454.64 193.55 457.41 196.46C458.95 198.08 460.66 199.73 461.58 201.69C463.72 206.26 466.85 210.13 469.61 214.27C470.82 216.09 471.72 218.22 472.27 220.34C472.9 222.76 473.86 224.9 475.5 226.75C477.23 228.72 478.97 230.68 480.68 232.67C481.77 233.94 481.74 234.09 480.62 236.05" fill="white"/>
<path d="M466.34 243.71C464.25 239.95 462.19 236.18 460.04 232.45C459.73 231.92 459.03 231.61 458.52 231.21C458.26 231.38 458 231.56 457.74 231.73C458.71 234.45 459.69 237.18 460.66 239.9C460.6 239.92 460.54 239.95 460.49 239.97C459.71 238.76 459.01 237.49 458.12 236.36C457.7 235.83 456.94 235.58 456.33 235.2C456.24 235.93 455.88 236.77 456.12 237.36C457.46 240.67 458.95 243.93 460.4 247.19C460.85 248.21 461.37 249.21 461.55 250.37C459.59 247.45 457.26 244.71 455.8 241.56C454.93 239.68 454.95 237.08 455.4 234.98C456.13 231.6 457.54 228.36 458.75 224.81C464.86 226.61 471.02 228.33 475.47 233.49C476.3 234.45 477.32 235.26 478.27 236.12C479.41 237.15 480.68 237.98 482.13 236.79C483.33 235.8 483.4 233.42 482.34 232.1C480.93 230.34 479.53 228.56 477.95 226.96C475.75 224.73 474.26 222.28 473.73 219.1C473.41 217.18 472.34 215.39 471.56 213.44C474.42 214.14 477.05 215.27 478.92 217.81C481.34 221.12 482.58 224.81 483.57 228.8C484.76 233.61 487.13 238.11 488.66 242.85C490.41 248.28 491.8 253.82 493.07 259.39C490.93 255.84 487.78 252.92 486.87 248.75C486.77 248.29 486.54 247.79 486.23 247.46C485.85 247.05 485.31 246.8 484.84 246.48C484.59 246.98 484.32 247.46 484.12 247.98C484.03 248.19 484.09 248.46 484.06 249.02C482.92 246.58 481.9 244.41 480.89 242.24C480.74 241.91 480.68 241.48 480.43 241.27C479.97 240.87 479.4 240.6 478.88 240.27C478.73 240.85 478.37 241.47 478.48 242C478.95 244.36 479.55 246.69 479.87 249.11C478.25 245.61 476.62 242.11 475 238.61C474.72 238.01 474.54 237.33 474.17 236.8C473.89 236.41 473.36 236.19 472.94 235.9C472.8 236.44 472.43 237.04 472.55 237.5C473.21 240.02 474 242.51 474.74 245C474.86 245.39 474.92 245.8 474.7 246.33C473.32 243.55 471.95 240.78 470.56 238C469.97 236.81 469.39 235.6 468.73 234.45C468.52 234.09 468.04 233.66 467.69 233.67C467.34 233.67 466.99 234.17 466.62 234.47C465.35 232.99 465.47 230.29 463.07 229.28C463.2 234.36 465.46 238.85 466.36 243.72" fill="white"/>
<path d="M63.3799 156.47C66.2699 150.96 69.9099 146.75 74.4199 143.18C75.7699 144.93 77.6099 144.37 79.2499 144.09C82.2899 143.57 85.2799 142.78 88.2899 142.12C88.6199 142.05 88.9699 142.11 89.8199 142.11C85.4099 143.66 81.4699 145.02 77.5499 146.44C76.0699 146.97 74.6299 147.62 73.1899 148.25C72.1099 148.72 71.9599 149.43 72.8499 150.33C71.4999 150.95 70.1599 151.49 68.8799 152.17C67.8599 152.71 66.7399 153.01 66.3799 154.54C66.2099 155.26 64.6999 155.67 63.3799 156.47Z" fill="white"/>
<path d="M475.22 260.09C476.09 262.06 476.96 264.03 477.87 266.11C472.12 264.48 469.07 259.67 465.68 256.7C465.09 254.24 464.67 252.47 464.22 250.59C465.24 252.42 466.23 254.21 467.24 255.99C467.54 256.52 467.81 257.12 468.25 257.49C468.64 257.81 469.25 257.85 469.77 258.02C469.86 257.53 470.15 256.95 469.99 256.56C469.01 254.21 467.94 251.91 466.89 249.59C466.65 249.05 466.39 248.51 466.41 247.83C467.66 250.28 468.91 252.73 470.18 255.17C471.11 256.94 472.04 258.72 473.06 260.43C473.32 260.87 473.94 261.1 474.39 261.42C474.65 260.99 474.92 260.57 475.22 260.08" fill="white"/>
<path d="M129.32 113.4C120.6 116.73 111.88 120.07 103.15 123.4C110.59 116.74 120.36 116.13 129.11 112.87C129.18 113.05 129.25 113.22 129.32 113.4Z" fill="white"/>
<path d="M366.91 138.35C374.47 145.68 383 152.02 389.41 160.52C389.28 160.65 389.15 160.79 389.02 160.92C381.45 153.6 373.87 146.27 366.3 138.95C366.5 138.75 366.71 138.55 366.91 138.35Z" fill="white"/>
<path d="M457.98 253.13C454.61 252.9 451.79 252.71 449.01 252.52C450.7 251.1 452.42 249.65 454.25 248.09C455.05 249.17 456.34 250.92 457.98 253.13Z" fill="white"/>
<path d="M322.28 93.9697C316.17 92.1497 310.06 90.3297 303.95 88.4997C308.39 87.9297 313.22 89.3597 322.47 93.4997C322.41 93.6497 322.34 93.8097 322.28 93.9597" fill="white"/>
<path d="M132.97 107.92C127.21 110.02 121.45 112.12 115.68 114.22C117.82 112.02 120.03 110.2 123.26 109.8C126.47 109.4 129.6 108.42 132.77 107.69C132.84 107.77 132.9 107.84 132.97 107.92Z" fill="white"/>
<path d="M462.98 256.45C466.26 259.57 469.54 262.69 472.77 265.76C467.85 264.67 465.61 260.33 462.65 256.81C462.76 256.69 462.87 256.57 462.98 256.45Z" fill="white"/>
<path d="M77.8699 140.28C80.5199 137.54 82.1599 133.66 86.3599 132.79C86.8199 133.1 87.4199 133.5 88.0299 133.91C86.3899 134.59 84.5699 135.29 82.7999 136.11C81.6999 136.61 80.5299 136.96 80.4099 138.67C80.3699 139.27 78.7599 139.75 77.8699 140.28Z" fill="white"/>
<path d="M462.56 254.7C461.16 254.13 460.12 253.72 459.34 253.4C459.1 251.89 458.88 250.57 458.64 249.09C459.91 250.91 461.11 252.63 462.56 254.7Z" fill="white"/>
<path d="M470.83 249.25C471.73 251.49 472.64 253.72 473.54 255.96C473.41 256.01 473.28 256.06 473.15 256.12C472.25 253.88 471.34 251.65 470.44 249.41C470.57 249.36 470.7 249.31 470.82 249.25" fill="white"/>
<path d="M246.55 182.2C243.07 184.02 239.56 185.78 236.12 187.67C225.25 193.66 214.66 200.1 204.86 207.76C203.57 208.77 202.39 209.94 201.31 211.17C200.91 211.61 200.93 212.43 200.76 213.07C201.42 213.09 202.24 213.38 202.72 213.1C206.04 211.08 209.34 209.03 212.53 206.82C224.71 198.38 237.49 191.13 251.71 186.65C252.03 186.55 252.36 186.49 252.75 186.6C249.17 188.36 245.54 190.06 242 191.91C228.34 199.05 215.34 207.24 203.31 216.91C202.22 217.79 201.15 218.72 200.2 219.74C199.82 220.15 199.79 220.89 199.6 221.48C200.2 221.41 200.94 221.54 201.38 221.24C204.96 218.83 208.38 216.17 212.06 213.92C219.1 209.62 226.28 205.54 233.41 201.38C233.7 201.21 234.04 201.13 234.4 201.15C230.22 203.92 225.98 206.6 221.88 209.47C214.39 214.73 207.2 220.36 200.99 227.15C200.87 227.29 200.67 227.39 200.62 227.55C200.42 228.24 200.25 228.94 200.08 229.63C200.79 229.57 201.67 229.76 202.2 229.42C206.26 226.74 210.15 223.81 214.28 221.24C220.72 217.23 227.3 213.45 233.82 209.58C234.11 209.41 234.43 209.3 234.81 209.32C230.96 211.93 227.05 214.47 223.27 217.17C214.98 223.09 207.08 229.48 200.05 236.89C199.8 237.16 199.44 237.39 199.33 237.7C199.12 238.27 199.07 238.9 198.95 239.5C199.6 239.46 200.44 239.66 200.88 239.33C204.37 236.68 207.7 233.81 211.25 231.25C217.61 226.66 224.1 222.25 230.53 217.77C230.7 217.65 230.91 217.6 231.2 217.64C218.61 227.62 206.26 237.83 196.34 250.63C196.18 250.56 196.03 250.49 195.87 250.42C195.98 249.22 196.19 248.01 196.17 246.81C196.07 240.59 195.77 234.38 195.83 228.16C195.89 222.08 196.3 216 196.59 209.91C196.61 209.57 196.87 209.12 197.16 208.92C208.85 200.7 220.65 192.65 233.8 186.89C237.93 185.08 242.17 183.52 246.37 181.84C246.42 181.96 246.47 182.09 246.53 182.21" fill="white"/>
<path d="M246.17 168.53C241.54 171.09 236.95 173.56 232.44 176.14C222.34 181.92 212.7 188.38 203.65 195.71C202.28 196.82 201.04 198.1 199.86 199.41C199.46 199.86 199.47 200.66 199.3 201.3C199.96 201.32 200.74 201.58 201.24 201.3C202.95 200.38 204.54 199.24 206.2 198.23C211.55 194.99 216.91 191.77 222.28 188.55C222.76 188.26 223.29 188.05 223.52 187.93C214.8 193.79 205.86 199.8 197.32 205.54C197.86 191.84 198.43 177.59 198.97 163.78C200.63 163.38 202.07 163.27 203.29 162.69C207.62 160.64 211.9 158.48 216.15 156.28C225.82 151.28 235.78 147.07 246.46 144.72C246.69 144.67 246.92 144.66 247.23 144.86C243.74 146.36 240.22 147.8 236.77 149.37C225.59 154.44 214.58 159.86 204.42 166.81C202.53 168.1 200.89 169.77 199.26 171.39C198.87 171.78 198.98 172.67 198.86 173.34C199.52 173.43 200.31 173.8 200.81 173.57C202.9 172.61 204.96 171.58 206.92 170.38C218.14 163.52 229.9 157.78 242.24 153.24C242.46 153.16 242.68 153.09 243.03 153.27C241.49 154.06 239.94 154.84 238.4 155.64C236.78 156.48 235.17 157.31 233.57 158.18C223.3 163.74 213.31 169.76 203.96 176.79C202.94 177.55 201.98 178.41 201.1 179.34C200.8 179.65 200.85 180.29 200.74 180.78C201.29 180.86 201.95 181.18 202.36 180.98C204.06 180.17 205.71 179.27 207.32 178.3C218.5 171.52 230.11 165.62 242.5 161.36C242.82 161.25 243.15 161.18 243.53 161.26C238.65 163.94 233.67 166.46 228.9 169.34C220.26 174.54 211.74 179.94 203.19 185.28C202.63 185.63 202.07 186.07 201.69 186.59C201.38 187.02 201.35 187.64 201.19 188.18C201.75 188.31 202.38 188.67 202.85 188.52C204.04 188.12 205.2 187.56 206.31 186.96C213.37 183.18 220.28 179.1 227.51 175.66C233.34 172.88 239.53 170.87 245.57 168.52C245.72 168.46 245.91 168.52 246.17 168.52" fill="white"/>
<path d="M131.54 277.64C121.14 279.99 110.76 282.3 100.74 285.97C100.34 286.12 99.8799 286.18 99.5599 286.43C99.2299 286.69 99.0399 287.14 98.7799 287.51C99.2199 287.72 99.6999 288.18 100.1 288.11C106.26 287.14 112.4 286.09 118.55 285.08C119.92 284.86 121.3 284.7 123.04 284.47C110.99 287.6 99.3099 290.63 87.5599 293.68C87.3999 291.47 87.1899 289.02 87.0499 286.56C86.9299 284.45 86.7099 282.31 86.8599 280.21C87.1299 276.49 89.0999 273.48 91.3199 270.62C92.7199 268.81 93.7599 266.89 93.6799 264.47C93.6599 263.89 94.1999 263.07 94.7299 262.73C97.9699 260.63 101.27 258.63 104.64 256.54C105.25 258.74 106.02 258.98 109.23 258.35C107.59 259.39 105.85 260.37 104.26 261.57C103.69 262 103.53 262.96 103.18 263.68C103.86 263.93 104.56 264.41 105.22 264.38C106.71 264.3 108.19 263.97 109.75 263.9C107.68 264.91 105.58 265.86 103.57 266.96C101.98 267.83 100.43 268.8 98.9899 269.9C98.4899 270.29 98.3799 271.19 98.0999 271.87C98.8199 272.07 99.5999 272.54 100.25 272.41C103.15 271.84 106.02 271.08 108.91 270.4C109.14 270.35 109.38 270.33 110.13 270.23C107.35 271.62 104.96 272.66 102.74 273.98C100.98 275.03 99.3599 276.35 97.7999 277.69C96.8499 278.51 96.5199 279.63 97.7699 280.75C96.0799 281.72 94.3699 282.59 92.8199 283.68C92.1899 284.12 91.9199 285.07 91.4799 285.79C92.3099 285.97 93.2399 286.47 93.9699 286.28C98.4699 285.07 102.87 283.5 107.4 282.43C114.82 280.69 122.3 279.23 129.77 277.68C130.34 277.56 130.95 277.66 131.54 277.66" fill="white"/>
<path d="M126.91 239.67C123.98 241.18 121.02 242.65 118.12 244.23C116.63 245.04 115.15 245.94 113.85 247.02C113.14 247.61 112.83 248.67 112.34 249.52C113.13 249.95 113.92 250.38 114.71 250.81C112.84 251.8 110.74 252.93 108.37 254.18C110.69 250.76 111.27 247.14 111.73 243.34C111.99 241.2 113.35 239.08 114.56 237.17C116.71 233.79 119.13 230.58 121.45 227.31C121.64 227.04 121.93 226.74 122.22 226.67C124.5 226.14 126.78 225.65 129.01 225.17C127.53 226.64 125.88 228.21 124.29 229.86C123.86 230.3 123.64 230.94 123.32 231.48C123.95 231.71 124.64 232.22 125.2 232.11C127.39 231.68 129.54 231.05 131.71 230.5C131.99 230.43 132.27 230.39 132.59 230.5C129.1 232.14 125.57 233.72 122.13 235.47C120.19 236.46 118.32 237.64 116.58 238.94C115.93 239.43 115.72 240.5 115.3 241.31C116.18 241.5 117.12 242 117.92 241.82C120.91 241.16 123.86 240.28 126.82 239.49C126.84 239.55 126.87 239.61 126.89 239.67" fill="white"/>
<path d="M237.55 140.48C224.54 146.59 211.44 152.46 199.71 160.81C198.9 157.55 200.05 153.61 202.27 151.63C203.6 151.63 204.77 151.92 205.73 151.59C214.2 148.68 222.63 145.65 231.08 142.67C233.22 141.91 235.39 141.21 237.54 140.48" fill="white"/>
<path d="M170.18 274.2C166.5 274.26 162.82 274.37 159.14 274.37C151.82 274.37 144.5 274.14 137.19 274.35C132.35 274.49 127.53 275.23 122.69 275.68C122.09 275.74 121.48 275.68 120.88 275.68C130.98 272.63 163.12 269.51 170.18 274.19" fill="white"/>
<path d="M218 140.68C228.71 134.79 239.21 128.45 251.09 125.05C253.54 124.35 254.34 124.95 254.74 127.62C241.73 129.82 229.99 135.58 218 140.69" fill="white"/>
<path d="M143.77 196.65C140.89 199.2 138.19 201.57 135.52 203.96C135.02 204.41 134.44 204.85 134.16 205.43C133.8 206.17 133.69 207.04 133.47 207.85C134.32 207.98 135.18 208.21 136.02 208.2C136.58 208.2 137.13 207.84 137.85 207.89C135.88 209.31 133.88 210.7 131.95 212.17C130.3 213.42 128.68 214.71 127.15 216.1C126.78 216.43 126.84 217.24 126.7 217.82C127.26 217.84 127.9 218.05 128.35 217.84C130.64 216.81 132.88 215.68 135.24 214.79C131.31 217.47 127.39 220.14 123.25 222.96C123.63 219.92 124.86 217.38 126.43 214.98C129.68 210 132.96 205.04 136.22 200.07C136.78 199.22 137.35 198.71 138.53 198.52C140.26 198.24 141.9 197.36 143.77 196.66" fill="white"/>
<path d="M141.5 193.66C146.4 187.75 152.5 183.3 158.65 178.83C157.25 181.07 156.82 183.83 154.21 185.4C150.11 187.86 146.2 190.63 142.21 193.27C141.98 193.42 141.73 193.53 141.49 193.66" fill="white"/>
<path d="M95.4299 284.19C101.01 280.23 107.62 279.9 114.02 278.82C107.82 280.61 101.63 282.4 95.4299 284.19Z" fill="white"/>
<path d="M144.41 263.57H159.23V263.89H144.41V263.57Z" fill="white"/>
<path d="M152.6 254.77C149.86 255.06 147.12 255.34 144.37 255.63C144.36 255.52 144.35 255.4 144.34 255.29C147.12 255 149.89 254.7 152.67 254.41C152.65 254.53 152.62 254.65 152.6 254.77Z" fill="white"/>
<path d="M144.94 248.66C147.32 248.36 149.69 248.06 152.07 247.76C152.09 247.9 152.1 248.03 152.12 248.16C149.75 248.46 147.37 248.77 144.99 249.07C144.97 248.93 144.96 248.79 144.94 248.66Z" fill="white"/>
<path d="M400.15 220.83C398.01 223.4 400.01 225.92 399.6 228.46C398.6 226.27 397.62 224.11 396.62 221.97C396.19 221.03 395.82 220.04 395.21 219.22C394.85 218.74 394.09 218.56 393.5 218.24C393.28 218.75 392.93 219.24 392.88 219.76C392.78 220.79 392.85 221.83 392.85 223.38C392.09 221.7 391.6 220.4 390.93 219.2C390.64 218.69 389.98 218.38 389.49 217.98C389.16 218.58 388.54 219.19 388.56 219.78C388.61 221.65 388.9 223.51 389.14 225.87C388.41 224.34 387.99 223.13 387.29 222.11C386.72 221.28 385.81 220.69 385.05 219.99C384.47 220.74 383.9 221.49 383.49 222.03C382.63 222.44 381.84 222.81 380.58 223.41C379.1 223.11 379.06 223.15 378.02 227.31C377.83 226.34 377.74 225.36 377.4 224.47C377.22 223.99 376.62 223.4 376.17 223.36C375.74 223.32 375.04 223.83 374.84 224.28C374.22 225.62 373.79 227.05 373.28 228.44C373.11 226.65 373 224.9 372.72 223.18C372.64 222.7 372.06 222.04 371.63 221.97C371.19 221.9 370.39 222.34 370.2 222.76C369.15 225.06 368.23 227.43 367.3 229.78C367.06 230.38 366.93 231.03 366.57 231.63C366.67 230.21 366.9 228.78 366.81 227.37C366.76 226.63 366.16 225.92 365.81 225.2C365.2 225.7 364.29 226.09 364.03 226.73C362.97 229.29 362.11 231.93 361.03 234.94C361.03 232.6 361.12 230.64 360.99 228.7C360.93 227.89 360.39 227.12 360.06 226.33C359.4 226.94 358.42 227.44 358.15 228.19C356.91 231.6 355.88 235.08 354.77 238.54C354.61 239.05 354.46 239.57 354.06 240.06C354.19 238.69 354.33 237.32 354.46 235.95C354.59 234.56 354.66 233.16 354.87 231.79C355.09 230.34 355.37 228.93 354.08 228.01C359.85 223.05 366.9 220.68 374.09 218.62C377.52 217.64 380.88 216.35 384.36 215.66C390.49 214.44 395.67 216.58 400.12 220.82" fill="white"/>
<path d="M331.28 244.39C330.89 243.99 330.45 243.54 330.02 243.1C329.69 243.62 329.21 244.09 329.04 244.66C327.67 249.36 326.36 254.07 324.79 258.76C325.05 256.75 325.28 254.73 325.57 252.72C325.85 250.74 326.23 248.78 326.46 246.79C326.51 246.35 326.13 245.86 325.95 245.39C325.54 245.74 324.91 246.01 324.76 246.44C323.25 250.85 321.83 255.28 320.37 259.7C320.22 260.15 320.06 260.6 319.64 260.99C320.01 258.47 320.38 255.94 320.76 253.42C321.34 249.53 321.88 245.63 322.56 241.75C322.68 241.07 323.24 240.19 323.84 239.91C327.4 238.26 330.98 236.61 334.65 235.23C340.64 232.99 346.72 230.96 352.47 228.94C351.05 233.38 349.5 238.22 347.88 243.29C348.14 240.35 348.38 237.64 348.62 234.94C348.65 234.58 348.73 234.18 348.64 233.85C348.5 233.38 348.22 232.96 348 232.52C347.51 232.8 346.78 232.96 346.59 233.37C345.93 234.79 345.46 236.3 344.91 237.78C344.75 238.21 344.59 238.64 344.25 239.56C344.25 238.03 344.32 237.02 344.22 236.02C344.18 235.57 343.82 235.14 343.6 234.7C343.15 235.01 342.47 235.23 342.3 235.66C341.53 237.56 340.91 239.53 340.23 241.47C340.16 241.68 340.09 241.88 339.83 242.06C339.85 241.71 339.93 241.34 339.87 241C339.77 240.36 339.58 239.73 339.43 239.1C338.9 239.55 338.13 239.89 337.89 240.46C336.61 243.47 335.47 246.54 334.28 249.58C334.13 249.96 333.97 250.35 333.54 250.68C333.86 248.52 334.2 246.37 334.47 244.21C334.62 243.07 334.7 241.91 334.69 240.76C334.69 240.35 334.33 239.94 334.13 239.53C333.7 239.81 333.08 239.99 332.89 240.38C332.24 241.74 331.75 243.17 331.28 244.38" fill="white"/>
<path d="M408.74 301.75C403.18 308.71 396.32 313.59 387.35 314.46C391.09 312.93 395.24 311.73 398.83 309.61C402.42 307.48 405.46 304.41 408.74 301.75Z" fill="white"/>
</g>
</svg>
